<svg id="Layer_1" data-name="Layer 1" xmlns="http://www.w3.org/2000/svg" viewBox="0 0 40 26">
  <title>alipay_hk</title>
  <g id="Page-1">
    <g id="alipay-65x41">
      <rect width="40" height="26" style="fill: #fff"/>
      <g id="Page-1-2" data-name="Page-1">
        <path id="Fill-1" d="M4.85277,6.97561h8.50615a1.93944,1.93944,0,0,1,1.41466.87582,1.68128,1.68128,0,0,1,.26756.817q-.00258,3.07257,0,6.1443a12.21833,12.21833,0,0,1-1.27555-.33084c-.89278-.26079-1.76251-.59045-2.63947-.89554a9.12955,9.12955,0,0,0,.99131-2.44107c-.78067.00434-1.56116.00167-2.34148.00167.00172-.27233-.00293-.54549.00172-.81949.956.00435,1.91159,0,2.86765.00268-.00361-.15447.00464-.30961-.006-.46391-.95433.0112-1.9097,0-2.86335.00518.00172-.45538-.00293-.90976.00172-1.366-.3967.0025-.79288-.00519-1.18888.00434a.18818.18818,0,0,0-.19018.19426c-.00447.38935-.00069.77886-.00069,1.1672-.96517-.00167-1.93034.00084-2.89379-.00167-.00275.1533-.00155.3061-.00155.4604.965-.00268,1.93.00084,2.89431-.00268.00086.275-.00069.54716.00086.81949-.79924.00267-1.59847-.00535-2.39788.00435.00722.15162.0055.30342.00361.45454,1.54912-.001,3.09893.00268,4.64839-.001a8.178,8.178,0,0,1-.65032,1.55221.04851.04851,0,0,1-.07686.02256,13.26773,13.26773,0,0,0-3.129-.68507,3.08031,3.08031,0,0,0-1.777.39637,2.01835,2.01835,0,0,0-.93818,1.3536,1.84965,1.84965,0,0,0,.44037,1.57662,2.5313,2.5313,0,0,0,1.61894.77869,4.152,4.152,0,0,0,2.36056-.44117,5.868,5.868,0,0,0,1.76888-1.39473c.04625-.04581.08-.11284.14169-.13892,1.52436.69577,3.07657,1.33388,4.63017,1.97031a1.7345,1.7345,0,0,1-.43161,1.27085,1.93061,1.93061,0,0,1-1.21123.6493H4.812a1.92634,1.92634,0,0,1-1.30942-.78454,1.86218,1.86218,0,0,1-.33187-.85092V8.6109a1.90829,1.90829,0,0,1,.45292-1.0007,1.96752,1.96752,0,0,1,1.22912-.63459" style="fill: #2ca3dc"/>
        <path id="Fill-3" d="M5.22041,13.469a3.25693,3.25693,0,0,1,1.93893-.16383,9.37747,9.37747,0,0,1,2.21217.81614A4.814,4.814,0,0,1,7.36466,15.671a2.873,2.873,0,0,1-1.83938.06236,1.61169,1.61169,0,0,1-.88143-.61888,1.042,1.042,0,0,1-.1453-.841,1.26649,1.26649,0,0,1,.72186-.80444" style="fill: #2ca3dc"/>
        <path id="Fill-5" d="M19.55816,8.01092a.2147.2147,0,0,1,.19792-.20813c.36677-.00953.73441.00351,1.10152-.00619.01153.30793.00362.6157.00448.9228q1.22.00125,2.43966,0c0,.15179-.00086.30342.00086.45454q-1.219-.0015-2.43967,0c-.00068.24274.001.484-.00068.72587H22.9654a4.96813,4.96813,0,0,1-2.00153,2.69,12.99418,12.99418,0,0,0,2.403,1.0995c.01221.17269,0,.34421.00963.51757a9.95873,9.95873,0,0,1-1.57423-.45872,10.84753,10.84753,0,0,1-1.54465-.71,11.35053,11.35053,0,0,1-3.15946,1.17456V13.6674a10.21118,10.21118,0,0,0,2.46-1.05687,6.16582,6.16582,0,0,1-1.74222-1.809c.36677.00518.73148-.001,1.09791.0025a5.66387,5.66387,0,0,0,1.32558,1.31048,4.1589,4.1589,0,0,0,1.34519-1.75783q-2.034.00251-4.06754.00167c-.00172-.15263-.00086-.30526-.00086-.45873q1.02114,0,2.04194.00067-.00258-.3641-.001-.72754c-.80543.00184-1.61257,0-2.419.001.0012-.15113-.00344-.30359.00292-.45622.8056.00618,1.61085,0,2.41628.00267.00086-.23487-.00447-.47176.00086-.70931" style="fill: #3f3a39"/>
        <path id="Fill-7" d="M33.28066,7.78373h1.28243c-.0019.20211,0,.40406-.0019.608.6548.00351,1.30943-.00084,1.96422.00184A.31977.31977,0,0,1,36.86,8.7082c.00619.26112,0,.52208.00241.78387-.40822.00268-.81678-.00167-1.22551.00268-.00344-.21866-.00172-.43632.0012-.65482-1.1409-.00786-2.27992.00619-3.42013-.00518-.01135.21849-.00275.438-.0043.65732-.41028.00184-.81884,0-1.22757.00184V8.39257c.76536.00184,1.52917,0,2.29453.001.00155-.20312.00069-.40624,0-.60985" style="fill: #3f3a39"/>
        <path id="Fill-9" d="M24.7905,7.83756c.39137,0,.78342.00351,1.17375-.00184q-.38791.88066-.79459,1.75432c.12931.00167.25776.00167.38621.00167-.00465,1.50807,0,3.01531-.00189,4.52272-.3513.00167-.70278-.003-1.05235.00234-.00895-1.13662-.0019-2.27273-.00362-3.41051q-.4818.00125-.96259.00083c.41664-.9574.83776-1.91213,1.25508-2.86953" style="fill: #3f3a39"/>
        <path id="Fill-11" d="M28.693,7.89289h1.10514c.00189.36678-.01066.73724.00619,1.10318.14358-.006.28716-.00267.43091-.00418-.00086.14828-.00086.29824,0,.44652h-.43882v4.15744a.42819.42819,0,0,1-.42988.43583c-.46754.00183-.93491,0-1.40228,0,0-.15163.00361-.3051-.00189-.45689.18915-.012.38019.00351.56917-.00752a.17785.17785,0,0,0,.16232-.20412c.00172-1.30947,0-2.61711.00172-3.92491H26.00088c.00086-.15-.00447-.2999.0043-.45.8957.00953,1.79312,0,2.69037.00519-.00172-.36762,0-.73457-.00258-1.10051" style="fill: #3f3a39"/>
        <path id="Fill-13" d="M30.98613,9.89981h5.87476c-.00086.14728-.00086.29473-.00086.44218-.78221-.00268-1.56546.00518-2.34784-.00435-.0098.29155-.00275.58544-.0043.87766.78324-.00167,1.56614.00268,2.34939-.00167.00361.15179.00292.30191.00172.45354-.7829-.00251-1.56787,0-2.35111-.00251v1.86265q.59659-.00251,1.19335,0c-.09887-.32264-.2017-.64345-.29421-.96693.33342.006.668-.00167,1.00248.00184a.19862.19862,0,0,1,.20325.1334c.13585.41292.25174.83153.38724,1.24361v.0346q-3.00642,0-6.01387.00084v-.44986c.78324.00334,1.56649,0,2.34973.00083q0-.92755,0-1.861c-.78324.00251-1.56649,0-2.34973.00251v-.4527c.78324.00267,1.56649.00083,2.34973.00083.00086-.29055-.00361-.58026.00172-.8698-.78324-.00786-1.56821-.00251-2.35145-.00251V9.89981" style="fill: #3f3a39"/>
        <path id="Fill-15" d="M26.35166,10.05328h.91857a.23353.23353,0,0,1,.223.1553c.21786.66769.4371,1.33455.6529,2.00224q-.54061-.00126-1.07883.00084c-.24211-.71818-.47236-1.44037-.71567-2.15838" style="fill: #3f3a39"/>
        <path id="Fill-17" d="M19.01221,15.73835c-.11418.35976-.26051.71066-.37279,1.07108.25156-.00518.505-.00351.75642-.0015-.10524-.31746-.21924-.63142-.32654-.94921a.39212.39212,0,0,0-.05709-.12037m-.20325-.69611c.13017-.00267.26137-.002.3924-.00351.33909.87549.67078,1.75332,1.00712,2.631-.17384-.00351-.34889.00752-.52187-.007-.05021-.17771-.114-.35123-.17746-.52459q-.49626.00375-.99113.00067c-.06775.17536-.12673.35373-.19345.53094-.1723-.00067-.34339-.00067-.51465,0q.50553-1.30972.999-2.62747" style="fill: #3f3a39"/>
        <path id="Fill-19" d="M21.80867,15.04023c.16422-.00066.32912.00084.49316-.0015.00362.75546.007,1.51158-.00172,2.26754.389.01488.77758.00151,1.1667.00519-.00189.119-.00189.23772,0,.35825H21.8085q.00311-1.31349.00017-2.62948" style="fill: #3f3a39"/>
        <path id="Fill-21" d="M25.25443,15.04408c.164-.01053.32809.00267.49144-.00819.01685.877-.001,1.75432.0098,2.63215-.16782.004-.33272.00117-.49935.00184.00138-.87583.00533-1.75115-.00189-2.6258" style="fill: #3f3a39"/>
        <path id="Fill-23" d="M28.22646,15.40116q.00542.44635-.00086.89137c.19328.00435.38982.00585.584-.00083a.40346.40346,0,0,0,.34889-.24658.45686.45686,0,0,0-.30435-.63811c-.20824-.01621-.419-.00217-.62763-.00585m-.48714-.36159c.37039.00334.7406-.00368,1.11133.00334a.8821.8821,0,0,1,.69589.33585.83415.83415,0,0,1,.11246.71651.78742.78742,0,0,1-.5279.51539,4.30688,4.30688,0,0,1-.90636.05651c.00877.33585,0,.66769.00447,1.00271h-.49144c.00155-.87767,0-1.75366.00155-2.63031" style="fill: #3f3a39"/>
        <path id="Fill-25" d="M32.07081,15.7325c-.114.3616-.26584.71417-.373,1.07693.24985-.00518.50141-.00351.753,0-.12466-.35959-.23557-.7257-.38-1.07693m-.206-.69026c.131-.00351.26291-.002.39428-.00267.33823.87465.66821,1.75432,1.00524,2.63014-.173-.00351-.34769.006-.52171-.005-.05-.17971-.114-.35307-.17556-.52592-.33118.00083-.66012.00367-.99027-.00268-.07326.17537-.12845.35641-.1962.53345-.17144,0-.34442-.00067-.51552,0,.3372-.873.66959-1.75081.99974-2.6273" style="fill: #3f3a39"/>
        <path id="Fill-27" d="M34.38185,15.04107c.17591-.004.35267.00184.5291-.004.18381.36076.35491.72587.52961,1.089l.03594-.00485c.16576-.36076.34614-.71467.50657-1.07693.17917-.0097.35852,0,.53856-.00519-.26756.52092-.55472,1.03347-.82211,1.55489-.01.35825-.00189.718-.00361,1.07626h-.488c-.00086-.35825.0043-.71651-.00258-1.07476-.266-.52125-.54853-1.03714-.82348-1.55438" style="fill: #3f3a39"/>
      </g>
    </g>
  </g>
</svg>
