<svg xmlns="http://www.w3.org/2000/svg" viewBox="0 0 40 26">
  <defs>
    <clipPath id="clip-path">
      <path d="M39.96477,15.66232H37.92038c-.19167,0-.35139,0-.44721.09583-.12778.06389-.15972.19166-.15972.35138a.34621.34621,0,0,0,.25555.35138,1.61814,1.61814,0,0,0,.41527.06389h.60692a1.9,1.9,0,0,1,1.27775.38332.44074.44074,0,0,1,.09583.12778V15.66232Zm0,3.09854a1.72851,1.72851,0,0,1-1.5333.60693H36.2593v-1.0222h2.17217a.57794.57794,0,0,0,.44721-.12778.42578.42578,0,0,0,.12777-.31943.488.488,0,0,0-.12777-.31944.61407.61407,0,0,0-.38332-.09583c-1.05414-.03195-2.36383.03194-2.36383-1.46941a1.41383,1.41383,0,0,1,1.59718-1.40552h2.23606v-.92636H37.88843a2.37915,2.37915,0,0,0-1.40552.38332v-.38332H33.41632a2.22322,2.22322,0,0,0-1.34163.38332v-.38332H26.58038v.38332a2.90523,2.90523,0,0,0-1.50135-.38332H21.43746v.38332a2.70416,2.70416,0,0,0-1.59718-.38332h-4.0249L14.889,14.736l-.86248-.99026H7.95725v6.54845h5.94151l.95831-1.0222.89442,1.0222H19.425v-1.5333h.35138a3.88038,3.88038,0,0,0,1.56524-.2236v1.7569h3.03465v-1.693H24.536c.19166,0,.19166,0,.19166.19166v1.50135h9.16783a2.80091,2.80091,0,0,0,1.53329-.41527v.41527h2.90687a4.5289,4.5289,0,0,0,1.66107-.2875V18.76086Zm-4.504-1.88468a1.28214,1.28214,0,0,1,.35137.99025c0,1.0222-.63887,1.46941-1.7569,1.46941H31.85108v-.99025h2.17217a.57794.57794,0,0,0,.44721-.12778.42578.42578,0,0,0,.12778-.31943.488.488,0,0,0-.12778-.31944.65878.65878,0,0,0-.41527-.09583c-1.05414-.03195-2.36382.03194-2.36382-1.46941a1.39673,1.39673,0,0,1,1.59718-1.40552h2.236v.99025H33.48021c-.22361,0-.35138,0-.44721.09583-.12778.06389-.15972.19167-.15972.35138a.3462.3462,0,0,0,.25555.35138,1.66473,1.66473,0,0,0,.44721.06389H34.183A2.00218,2.00218,0,0,1,35.46072,16.87618Zm-10.12614-.28749a1.03271,1.03271,0,0,1-.543.09583H23.418V15.63038h1.37358a.9771.9771,0,0,1,.543.09583.40522.40522,0,0,1,.22361.41527A.42907.42907,0,0,1,25.33458,16.58869Zm.70276.575a1.24893,1.24893,0,0,1,.543.38333,1.33368,1.33368,0,0,1,.19167.86247v.92637H25.654v-.575c0-.28749.03194-.70276-.19166-.92636a1.12574,1.12574,0,0,0-.83054-.22361H23.418v1.725h-1.118V14.67207h2.58743a2.7444,2.7444,0,0,1,1.34163.2236,1.12375,1.12375,0,0,1,.575,1.05414A1.246,1.246,0,0,1,26.03734,17.16367Zm1.40552-2.4916h3.73741v.99025H28.56089v.86248h2.55549v.95831H28.56089v.92636h2.61938v.99026H27.44286Zm-7.57064,2.17217H18.40281V15.66232h1.46941c.41527,0,.67082.15972.67082.575C20.575,16.62063,20.28749,16.84424,19.87222,16.84424Zm-2.58743,2.10828-1.725-1.91662,1.725-1.85273Zm-4.44017-.575H10.09747v-.92637h2.45966v-.9583H10.09747v-.86248h2.811L14.12237,17.004Zm8.91228-2.17216c0,1.30968-.95831,1.56523-1.94857,1.56523H18.40281v1.56524H16.23065L14.85707,17.7706l-1.43746,1.56524H8.97944V14.67207h4.504l1.37358,1.5333,1.43746-1.5333h3.57769C20.76664,14.67207,21.7569,14.92762,21.7569,16.20537Z" style="fill: none"/>
    </clipPath>
  </defs>
  <title>amex</title>
  <g id="Layer_2" data-name="Layer 2">
    <rect x="-0.31984" y="-0.20087" width="40.56987" height="26.41759" style="fill: #246ea9"/>
    <g>
      <g style="clip-path: url(#clip-path)">
        <rect x="6.36006" y="12.14852" width="35.20188" height="9.74281" style="fill: #fffffe"/>
      </g>
      <g>
        <polygon points="12.972 11.328 16.71 11.328 16.71 10.338 14.09 10.338 14.09 9.411 16.646 9.411 16.646 8.453 14.09 8.453 14.09 7.622 16.71 7.622 16.71 6.632 12.972 6.632 12.972 11.328" style="fill: none"/>
        <path d="M10.25718,6.63224,8.91557,9.82659,7.44616,6.63224H5.62535V11.0724L3.70873,6.63224H2.04766L.03521,11.328H1.2491l.44718-1.05415H4.02819L4.4754,11.328h2.268V7.65442L8.37252,11.328h.99026L10.9919,7.65442V11.328h1.118V6.63224ZM2.07962,9.28354l.76664-1.88466L3.6129,9.28354Z" style="fill: none"/>
        <path d="M22.01246,7.878a1.07354,1.07354,0,0,0-.575-1.02218,2.95513,2.95513,0,0,0-1.37356-.22359H17.47646v4.63183h1.118V9.571h1.21386c.41526,0,.6708.032.83052.19167.22362.22359.19167.63885.19167.92635V11.296h1.118v-.92635a1.33377,1.33377,0,0,0-.19164-.86248,1.2488,1.2488,0,0,0-.54305-.38333A1.315,1.315,0,0,0,22.01246,7.878ZM20.543,8.54885A1.03254,1.03254,0,0,1,20,8.64469h-1.3736V7.59055H20a.977.977,0,0,1,.543.09583.40517.40517,0,0,1,.22363.41526A.47723.47723,0,0,1,20.543,8.54885Z" style="fill: none"/>
        <path d="M32.26635,6.63224v4.47208L30.38169,6.66416h-1.693l-1.59719,3.70548h-.51109a1.01833,1.01833,0,0,1-.76664-.25555,1.61287,1.61287,0,0,1-.31943-1.118,1.534,1.534,0,0,1,.31943-1.05414,1.05352,1.05352,0,0,1,.86247-.28751h1.05414V6.66416H26.64429a2.20751,2.20751,0,0,0-1.693.54305A2.43481,2.43481,0,0,0,24.34433,9.028a2.41179,2.41179,0,0,0,.60693,1.78886,2.42677,2.42677,0,0,0,1.62912.5111h1.30969l.41525-1.05415h2.3l.44721,1.05415h2.3V7.81414l2.1402,3.51381H37.1218V6.63224h-1.15V9.89047L33.9913,6.63224Zm-3.51381,2.6513.76667-1.88466.76664,1.88466Z" style="fill: none"/>
        <polygon points="2.08 9.284 3.613 9.284 2.846 7.399 2.08 9.284" style="fill: #fffffe"/>
        <path d="M34.98156,6.47249l-.44721-.76664H31.34v.76664l-.4153-.76664H26.61233a3.82537,3.82537,0,0,0-1.88469.38334V5.70585H21.75688v.38334a1.85165,1.85165,0,0,0-1.27774-.38334H9.58637l-.73472,1.693L8.117,5.70585H4.667v.76664l-.3833-.76664H1.3449L.00329,8.8044v3.4499H1.9199l.44722-1.05414h.95831l.41526,1.05414H7.542v-.7986l.35139.7986H9.84192l.31942-.7986v.7986h9.39145V10.52935h.19167c.12776,0,.15971.032.15971.22359V12.2543h4.85542V11.839a3.5921,3.5921,0,0,0,1.78886.41526h2.04438L29.04,11.20016h.95831l.41526,1.05414h3.92907v-.99023l.60693.99023H38.112V5.70585H34.98156ZM12.10992,11.328h-1.118V7.65442L9.36278,11.328H8.37252L6.7434,7.65442V11.328H4.4754L4.02819,10.2738H1.69628L1.2491,11.328H.03521L2.04766,6.63224H3.70873L5.62535,11.0724V6.63224H7.44616L8.91557,9.82659l1.34161-3.19435h1.85274V11.328h0Zm4.59987-3.70548H14.09041V8.453h2.5555v.95831h-2.5555v.92635h2.61938V11.328h-3.7374V6.63224h3.7374Zm5.04712,1.88469a1.33377,1.33377,0,0,1,.19164.86248V11.296h-1.118v-.60693c0-.2875.032-.70276-.19167-.92635-.15972-.15971-.41526-.19167-.83052-.19167H18.59448v1.693h-1.118V6.63224h2.58743a2.95513,2.95513,0,0,1,1.37356.22359,1.07354,1.07354,0,0,1,.575,1.02218,1.315,1.315,0,0,1-.7986,1.24582A1.2488,1.2488,0,0,1,21.75691,9.50716ZM23.80129,11.328h-1.15V6.63224h1.15ZM35.97183,6.63224h1.15V11.328H35.49265l-2.1402-3.51381V11.328h-2.3l-.44721-1.05415h-2.3L27.89007,11.328H26.58038a2.42677,2.42677,0,0,1-1.62912-.5111A2.41179,2.41179,0,0,1,24.34433,9.028a2.43481,2.43481,0,0,1,.60693-1.82078,2.20751,2.20751,0,0,1,1.693-.543h1.08606v.99026H26.67621a1.05352,1.05352,0,0,0-.86247.28751,1.534,1.534,0,0,0-.31943,1.05414,1.61287,1.61287,0,0,0,.31943,1.118,1.01833,1.01833,0,0,0,.76664.25555h.51109l1.59719-3.70548h1.693l1.88466,4.44016V6.63224H33.9913l1.98053,3.25823Z" style="fill: #fffffe"/>
        <path d="M20.543,7.68638A.977.977,0,0,0,20,7.59055h-1.3736V8.64469H20a1.03254,1.03254,0,0,0,.543-.09584.47723.47723,0,0,0,.22363-.44721A.40517.40517,0,0,0,20.543,7.68638Z" style="fill: #fffffe"/>
        <polygon points="28.753 9.284 30.286 9.284 29.519 7.399 28.753 9.284" style="fill: #fffffe"/>
      </g>
    </g>
  </g>
</svg>
