<svg id="Layer_1" data-name="Layer 1" xmlns="http://www.w3.org/2000/svg" xmlns:xlink="http://www.w3.org/1999/xlink" viewBox="0 0 40 26">
  <defs>
    <radialGradient id="radial-gradient" cx="8.71987" cy="8.70255" r="22.58741" gradientTransform="translate(0 -1.2065) scale(1 1.13864)" gradientUnits="userSpaceOnUse">
      <stop offset="0" stop-color="#9dd3f2"/>
      <stop offset="0.0711" stop-color="#98d1f1"/>
      <stop offset="0.1575" stop-color="#89ccf0"/>
      <stop offset="0.2516" stop-color="#70c5ee"/>
      <stop offset="0.3514" stop-color="#50bae9"/>
      <stop offset="0.4546" stop-color="#1face3"/>
      <stop offset="0.5" stop-color="#17a4de"/>
    </radialGradient>
    <clipPath id="clip-path">
      <polygon points="0 0 40 26 0 26 0 0" style="fill: none"/>
    </clipPath>
    <mask id="mask" x="-0.90969" y="1.61116" width="40.64043" height="25.06093" maskUnits="userSpaceOnUse">
      <g id="mask-3">
        <rect id="path-1" y="1.61116" width="39.73074" height="25.06093" rx="2.44497" ry="2.44497" style="fill: #fff"/>
      </g>
    </mask>
    <mask id="mask-2" x="13.41425" y="-1.85892" width="34.74074" height="21.00603" maskUnits="userSpaceOnUse">
      <g id="mask-2-2" data-name="mask-2">
        <path id="path-1-2" data-name="path-1" d="M15.55214-1.85892h30.465A2.095,2.095,0,0,1,48.155.19045V17.09774a2.095,2.095,0,0,1-2.1379,2.04937H15.55214a2.095,2.095,0,0,1-2.13789-2.04937V.19045A2.095,2.095,0,0,1,15.55214-1.85892Z" style="fill: #fff"/>
      </g>
    </mask>
    <mask id="mask-3-2" x="23.56923" y="1.72748" width="14.43077" height="13.83324" maskUnits="userSpaceOnUse">
      <g id="mask-4">
        <polygon id="path-3" points="23.57 15.561 38 15.561 38 1.728 23.57 1.728 23.57 15.561" style="fill: #fff"/>
      </g>
    </mask>
  </defs>
  <title>Illustration CMYK - amex_androidpay</title>
  <g id="Page-1">
    <g id="android-pay-65x41">
      <rect y="-0.00026" width="40" height="26" style="fill: #767576"/>
    </g>
  </g>
  <polygon points="0 0 40 26 0 26 0 0" style="fill: url(#radial-gradient)"/>
  <g style="clip-path: url(#clip-path)">
    <g id="amex-65x41-">
      <g style="mask: url(#mask)">
        <g id="American_Express_logo" data-name="American Express logo">
          <g id="Layer_1-2" data-name="Layer 1">
            <g>
              <path id="Shape" d="M2.68782,10.53179,1.92005,8.65433l-.76338,1.87746Zm16.91391-.7476a1.0369,1.0369,0,0,1-.55488.097H17.68414v-1.046H19.0654a1.147,1.147,0,0,1,.53195.08494.43133.43133,0,0,1,.23553.41635.48183.48183,0,0,1-.23115.44774Zm9.72143.7476L28.5469,8.65433l-.772,1.87746ZM11.20182,12.564h-1.15L10.04762,8.8755,8.42106,12.564H7.43615L5.80534,8.87223V12.564H3.52382l-.431-1.05046H.75721L.3218,12.564H-.89653l2.00875-4.7095H2.77884l1.90782,4.45892V7.85445H6.51748l1.468,3.19483L9.33406,7.85445h1.86762V12.564Zm4.58328,0H12.03782V7.85445H15.7851v.98071H13.15961V9.684h2.5625v.96537h-2.5625v.94051H15.7851v.974Zm5.28352-3.44114a1.32591,1.32591,0,0,1-.79042,1.25529,1.30089,1.30089,0,0,1,.55488.3966,1.35806,1.35806,0,0,1,.18572.86408V12.564H19.88738L19.88314,11.97a1.41754,1.41754,0,0,0-.17708-.91749c-.16392-.16564-.41376-.20157-.8176-.20157H17.68428v1.713H16.56264V7.85445h2.58A2.634,2.634,0,0,1,20.501,8.08a1.09925,1.09925,0,0,1,.56762,1.04279ZM22.86377,12.564H21.71919V7.85445h1.14458V12.564Zm13.2786,0H34.55275L32.42652,9.02919V12.564H30.142l-.43654-1.05046H27.37528L26.95176,12.564h-1.3126a2.35245,2.35245,0,0,1-1.62656-.5209,2.3752,2.3752,0,0,1-.59933-1.79791A2.51181,2.51181,0,0,1,24.018,8.40361a2.27172,2.27172,0,0,1,1.70356-.54916h1.086V8.86357H25.74433a1.07782,1.07782,0,0,0-.86318.279,1.55851,1.55851,0,0,0-.32245,1.06679,1.63749,1.63749,0,0,0,.30844,1.106,1.07936,1.07936,0,0,0,.78179.2429h.50377l1.581-3.70365h1.68077l1.89919,4.45452V7.85459h1.708l1.9718,3.27992V7.85459h1.149V12.564Zm-37.05192.925h1.9166l.43215-1.046h.9675l.431,1.046H6.60878v-.79973l.33661.80314H8.903l.33661-.81508V13.489h9.37179l-.00439-1.71709h.18133c.127.00441.16406.0162.16406.22657V13.489h4.84712v-.39972a3.82948,3.82948,0,0,0,1.79926.39972H27.638l.4364-1.046h.9675l.42677,1.046h3.9296v-.99363l.59508.99363h3.14894V6.92062H34.0259v.77573l-.4364-.77573H30.39173v.77573L29.991,6.92062H25.67157a3.86773,3.86773,0,0,0-1.872.38353V6.92062H20.81879v.38353a1.84309,1.84309,0,0,0-1.26688-.38353H8.662L7.93129,8.61711,7.18093,6.92062H3.75087v.77573l-.37681-.77573H.44877l-1.35846,3.123V13.489Z" style="fill: #fff"/>
              <path id="Shape-2" data-name="Shape" d="M33,16.96279H30.95558a.77426.77426,0,0,0-.454.08508.36714.36714,0,0,0-.16392.33893.35537.35537,0,0,0,.24531.35087,1.27421,1.27421,0,0,0,.4323.05341l.608.01633a1.76886,1.76886,0,0,1,1.27268.37913.60529.60529,0,0,1,.104.11662Zm0,3.10562a1.745,1.745,0,0,1-1.52224.60257H29.31147V19.66087H31.469a.63656.63656,0,0,0,.45395-.11662.41483.41483,0,0,0,.13263-.30725.38741.38741,0,0,0-.137-.31152.56832.56832,0,0,0-.39521-.10455c-1.05328-.03594-2.36729.03267-2.36729-1.458,0-.68326.43229-1.40245,1.60943-1.40245h2.23438v-.93724h-2.076a2.33314,2.33314,0,0,0-1.4039.38467v-.38467H26.44931a2.12066,2.12066,0,0,0-1.34006.38467v-.38467h-5.4834v.38467a2.90965,2.90965,0,0,0-1.51261-.38467H14.49633v.38467a2.55149,2.55149,0,0,0-1.581-.38467H8.86742l-.9263,1.006-.86757-1.006H1.02678v6.5729h5.933l.95448-1.0219.89913,1.0219,3.65711.00327V20.05321H12.83a3.79757,3.79757,0,0,0,1.56244-.23111V21.596h3.01644V19.88289h.14552c.18571,0,.204.00767.204.1939v1.51908h9.16344a2.60634,2.60634,0,0,0,1.52662-.42061v.42061H31.355a3.882,3.882,0,0,0,1.645-.303V20.06841Zm-4.47456-1.88187a1.31378,1.31378,0,0,1,.33547.998c0,1.01338-.63089,1.4864-1.76216,1.4864H24.91391V19.66087H27.09a.65764.65764,0,0,0,.4582-.11662.41842.41842,0,0,0,.13249-.30725.4048.4048,0,0,0-.13688-.31152.58854.58854,0,0,0-.39946-.10455c-1.049-.03594-2.36276.03267-2.36276-1.458a1.3978,1.3978,0,0,1,1.60377-1.40245h2.24882v1.00258H26.57642a.75625.75625,0,0,0-.44942.08509.39526.39526,0,0,0,.077.68979,1.2855,1.2855,0,0,0,.43655.05341l.60385.01634a1.80533,1.80533,0,0,1,1.281.37884Zm-10.122-.29092a1.07007,1.07007,0,0,1-.55389.097H16.48682v-1.058h1.38125a1.10155,1.10155,0,0,1,.53535.08509.44853.44853,0,0,1,.23229.42373.50847.50847,0,0,1-.23229.45214Zm.67746.58624a1.21963,1.21963,0,0,1,.5495.39547,1.37579,1.37579,0,0,1,.18586.85982V20.671H18.69006v-.58936c0-.28339.02718-.703-.18133-.922-.16391-.16875-.41375-.2091-.823-.2091H16.487V20.671H15.35979V15.96035h2.58982a2.76829,2.76829,0,0,1,1.34968.2223A1.10406,1.10406,0,0,1,19.876,17.2287a1.31919,1.31919,0,0,1-.79509,1.25316ZM20.498,15.96035h3.74388v.97417H21.61507v.85642H24.1777v.9611H21.61507v.93724l2.62676.00426V20.671H20.498V15.96035Zm-7.5683,2.17392H11.48V16.93466h1.46264c.405,0,.6861.16563.6861.57757,0,.4074-.2681.622-.69912.622Zm-2.56688,2.10829-1.72225-1.9188,1.72225-1.85786v3.77666ZM5.9151,19.68928h-2.758V18.752h2.4627v-.9611H3.15712v-.85642H5.96945l1.227,1.37276-1.28132,1.382Zm8.918-2.17705c0,1.30856-.97287,1.57874-1.9534,1.57874H11.48v1.58H9.29972L7.91847,19.11157,6.483,20.671H2.03972V15.96035H6.55137l1.38012,1.54407,1.42683-1.54407h3.58435c.89021,0,1.89041.2473,1.89041,1.55188Z" style="fill: #fff"/>
            </g>
          </g>
        </g>
      </g>
    </g>
  </g>
  <g style="mask: url(#mask-2)">
    <g id="android_pay_logo_rgb_fc_light-_3_" data-name="android_pay_logo_rgb_fc_light-(3)">
      <g>
        <g id="Group-4">
          <g style="mask: url(#mask-3-2)">
            <path id="Fill-1" d="M38,8.6441a7.22184,7.22184,0,0,0-14.43077,0A7.22184,7.22184,0,0,0,38,8.6441" style="fill: #fff"/>
          </g>
          <g style="mask: url(#mask-3-2)">
            <path id="Fill-3" d="M30.78462,1.72748A7.07075,7.07075,0,0,0,23.56923,8.6441,7.22184,7.22184,0,0,0,38,8.6441a7.07074,7.07074,0,0,0-7.21538-6.91662Zm0,.222a7.09274,7.09274,0,0,1,4.93826,1.96081,6.50016,6.50016,0,0,1,0,9.46759,7.19874,7.19874,0,0,1-9.87653,0,6.5003,6.5003,0,0,1,0-9.46759A7.09278,7.09278,0,0,1,30.78462,1.9495Z" style="fill: #c6c5c4"/>
          </g>
        </g>
        <path id="Fill-5" d="M29.318,5.78717h-.0163V7.85924a.32228.32228,0,0,0,.32792.31433h.28274v.72219a.32819.32819,0,0,0,.65579,0V8.17357H31.01v.72219a.32821.32821,0,0,0,.65583,0V8.17357h.27555a.32229.32229,0,0,0,.3279-.31433V5.78717Zm.65318-.74652a.13948.13948,0,1,0,.13934-.13359.13655.13655,0,0,0-.13934.13359Zm1.34988,0a.13948.13948,0,1,0,.13938-.13359.13658.13658,0,0,0-.13938.13359Zm-2.01567.6365-.00094-.04309a1.09275,1.09275,0,0,1,.03654-.28037,1.30519,1.30519,0,0,1,.70233-.81509l-.22757-.40242a.05.05,0,0,1,.02145-.06925.05443.05443,0,0,1,.07222.02056l.23026.40718a1.71806,1.71806,0,0,1,1.29258-.00177l.22923-.40541a.05448.05448,0,0,1,.07226-.02056.05.05,0,0,1,.02145.06925l-.22639.4003a1.2954,1.2954,0,0,1,.71745.86214,1.08923,1.08923,0,0,1,.02024.127v.1515Zm3.73538.36935a.32819.32819,0,0,0-.65579,0V7.36678a.32819.32819,0,0,0,.65579,0V6.0465Zm-3.85655,0V7.36678a.32821.32821,0,0,1-.65582,0V6.0465a.32821.32821,0,0,1,.65582,0Z" style="fill: #78c159"/>
        <path id="Fill-6" d="M35.06633,9.90456h-.42318l-.919,2.10989h.1878L32.99551,9.907h-.4357L33.599,12.21848l-.08263.18a.47272.47272,0,0,1-.4357.28565h-.13772v.36244h.13272a.86169.86169,0,0,0,.82632-.55688l1.16437-2.58515Zm-2.73189,2.40273V9.907h-.37559v.27364a1.18681,1.18681,0,0,0-.83133-.32164,1.24856,1.24856,0,1,0,0,2.49635,1.19746,1.19746,0,0,0,.83133-.32165v.27364Zm-1.17939-.30244a.89965.89965,0,1,1,.77876-1.4066.1487.1487,0,0,1,.025.07921v.85213a.14014.14014,0,0,1-.02755.0816.94439.94439,0,0,1-.77625.39366Zm-3.67088,1.02253v-.99373a1.1885,1.1885,0,0,0,.83133.324,1.24973,1.24973,0,1,0,0-2.49875,1.19743,1.19743,0,0,0-.83133.32164V9.907h-.37561v3.12043Zm.80378-1.02013a.92474.92474,0,0,1-.77875-.39126.12972.12972,0,0,1-.025-.0792v-.86173a.1379.1379,0,0,1,.02754-.0792.93829.93829,0,0,1,.77624-.38647.89934.89934,0,1,1,0,1.79786Z" style="fill: #767576"/>
      </g>
    </g>
  </g>
</svg>
