<svg id="Layer_1" data-name="Layer 1" xmlns="http://www.w3.org/2000/svg" xmlns:xlink="http://www.w3.org/1999/xlink" viewBox="0 0 40 26">
  <defs>
    <mask id="mask" x="-1" y="0" width="43" height="26" maskUnits="userSpaceOnUse">
      <g id="mask-2">
        <path id="path-1" d="M1.64615,0h37.7077A2.59311,2.59311,0,0,1,42,2.53659V23.46341A2.59311,2.59311,0,0,1,39.35385,26H1.64615A2.59311,2.59311,0,0,1-1,23.46341V2.53659A2.59311,2.59311,0,0,1,1.64615,0Z" style="fill: #fff"/>
      </g>
    </mask>
    <mask id="mask-2-2" x="11.56923" y="4.43902" width="17.86154" height="17.12195" maskUnits="userSpaceOnUse">
      <g id="mask-4">
        <polygon id="path-3" points="11.57 21.561 29.431 21.561 29.431 4.44 11.57 4.44 11.57 21.561" style="fill: #fff"/>
      </g>
    </mask>
  </defs>
  <title>android_pay</title>
  <g id="Page-1">
    <g id="android-pay-65x41">
      <rect width="40" height="26" style="fill: #767576"/>
      <g style="mask: url(#mask)">
        <g id="android_pay_logo_rgb_fc_light-_3_" data-name="android_pay_logo_rgb_fc_light-(3)">
          <g>
            <g id="Group-4">
              <g style="mask: url(#mask-2-2)">
                <path id="Fill-1" d="M29.43077,13A8.75174,8.75174,0,0,0,20.5,4.439,8.75174,8.75174,0,0,0,11.56923,13,8.75174,8.75174,0,0,0,20.5,21.561,8.75174,8.75174,0,0,0,29.43077,13" style="fill: #fff"/>
              </g>
              <g style="mask: url(#mask-2-2)">
                <path id="Fill-3" d="M20.5,4.439A8.75175,8.75175,0,0,0,11.56923,13,8.75175,8.75175,0,0,0,20.5,21.561,8.75174,8.75174,0,0,0,29.43077,13,8.75174,8.75174,0,0,0,20.5,4.439Zm0,.27481a8.779,8.779,0,0,1,6.11229,2.427,8.04553,8.04553,0,0,1,0,11.71842,8.91016,8.91016,0,0,1-12.22458,0,8.04569,8.04569,0,0,1,0-11.71842A8.779,8.779,0,0,1,20.5,4.71383Z" style="fill: #c6c5c4"/>
              </g>
            </g>
            <path id="Fill-5" d="M18.68475,9.46387h-.02018v2.56468a.3989.3989,0,0,0,.40588.38905h.35v.89389a.40622.40622,0,0,0,.8117,0V12.4176h.54684v.89389a.40624.40624,0,0,0,.81174,0V12.4176h.34106a.3989.3989,0,0,0,.40586-.38905V9.46387Zm.80846-.924a.17265.17265,0,1,0,.17248-.16535.169.169,0,0,0-.17248.16535Zm1.67081,0a.17264.17264,0,1,0,.17251-.16535.169.169,0,0,0-.17251.16535Zm-2.49488.78782c-.0007-.0177-.00117-.03546-.00117-.05334a1.35253,1.35253,0,0,1,.04523-.347,1.6155,1.6155,0,0,1,.8693-1.00887l-.28167-.49809a.06191.06191,0,0,1,.02655-.08571.06738.06738,0,0,1,.0894.02545l.285.504a2.12654,2.12654,0,0,1,1.59988-.00219l.28373-.50178a.06741.06741,0,0,1,.08942-.02545.06191.06191,0,0,1,.02655.08571l-.2802.49546a1.60342,1.60342,0,0,1,.888,1.06712,1.34959,1.34959,0,0,1,.02505.15722v.18752Zm4.62344.45716a.40622.40622,0,0,0-.81171,0V11.419a.40622.40622,0,0,0,.81171,0V9.78485Zm-4.77341,0V11.419a.40624.40624,0,0,1-.81174,0V9.78485a.40624.40624,0,0,1,.81174,0Z" style="fill: #78c159"/>
            <path id="Fill-6" d="M25.79964,14.56012h-.52377l-1.13745,2.6115h.23244l-1.13435-2.60854h-.53928l1.28621,2.86107-.10227.22282a.58511.58511,0,0,1-.53928.35356h-.17047v.44861h.16427a1.06655,1.06655,0,0,0,1.02277-.68927l1.44118-3.19975Zm-3.38136,2.974v-2.971H21.9534v.33869a1.469,1.469,0,0,0-1.029-.3981,1.54539,1.54539,0,1,0,0,3.08983,1.48213,1.48213,0,0,0,1.029-.39812v.33869Zm-1.45978-.37434a1.11353,1.11353,0,1,1,.9639-1.741.184.184,0,0,1,.031.09805v1.0547a.17344.17344,0,0,1-.03411.101,1.16889,1.16889,0,0,1-.96079.48724Zm-4.54359,1.26564v-1.23a1.471,1.471,0,0,0,1.029.40109,1.54684,1.54684,0,1,0,0-3.0928,1.48211,1.48211,0,0,0-1.029.3981v-.33869H15.95v3.86229Zm.99487-1.26266a1.14464,1.14464,0,0,1-.9639-.48428.16066.16066,0,0,1-.031-.098V15.5138a.17073.17073,0,0,1,.03408-.098,1.16141,1.16141,0,0,1,.96079-.47835,1.11315,1.11315,0,1,1,0,2.22529Z" style="fill: #767576"/>
          </g>
        </g>
      </g>
    </g>
  </g>
</svg>
