<svg id="Layer_1" data-name="Layer 1" xmlns="http://www.w3.org/2000/svg" viewBox="0 0 40 26">
  <defs>
    <mask id="mask" x="-3.79917" y="-1.33957" width="47.30073" height="29.83585" maskUnits="userSpaceOnUse">
      <g id="mask-6">
        <rect id="path-5" x="-3.79917" y="-1.33957" width="47.30073" height="29.83585" rx="2.91081" ry="2.91081" style="fill: #fff"/>
      </g>
    </mask>
  </defs>
  <title>applepay
</title>
  <g id="Page-1">
    <rect width="40" height="26" style="fill: #fff"/>
    <g id="Page-1-Clipped">
      <g style="mask: url(#mask)">
        <g id="Apple_Pay_logo" data-name="Apple Pay logo">
          <g id="_Group_" data-name="&lt;Group&gt;">
            <path d="M9.13249,8.54155a2.13384,2.13384,0,0,1-1.7194.824,2.4914,2.4914,0,0,1,.61407-1.80714,2.55244,2.55244,0,0,1,1.70575-.89319,2.65444,2.65444,0,0,1-.60042,1.87638Zm.5936.9555c-.9484-.05539-1.76034.547-2.21065.547-.45715,0-1.14627-.51929-1.8968-.50544a2.7973,2.7973,0,0,0-2.38123,1.46787c-1.02345,1.78637-.26609,4.4313.72324,5.88532.48443.72009,1.06439,1.50942,1.82857,1.48172.72323-.02769,1.0098-.47775,1.88314-.47775.88017,0,1.13262.47775,1.8968.4639.79147-.01384,1.28955-.72008,1.774-1.44017a6.35932,6.35932,0,0,0,.79147-1.65482,2.60367,2.60367,0,0,1-1.542-2.3749,2.667,2.667,0,0,1,1.24861-2.2295A2.69094,2.69094,0,0,0,9.72609,9.49705ZM15.205,7.48912V18.2835h1.65117V14.59305h2.2857a3.40072,3.40072,0,0,0,3.55479-3.55889,3.36112,3.36112,0,0,0-3.5002-3.545ZM16.85613,8.9016h1.90361a1.99742,1.99742,0,0,1,2.25159,2.13949,2.00455,2.00455,0,0,1-2.25841,2.14641H16.85613V8.9016Zm8.85625,9.465a2.72391,2.72391,0,0,0,2.43581-1.37786h.03412V18.2835h1.52835v-5.373c0-1.55788-1.22814-2.56185-3.11811-2.56185-1.75351,0-3.04988,1.01782-3.09764,2.41645h1.48741a1.4518,1.4518,0,0,1,1.56247-1.1009c1.0098,0,1.57611.47775,1.57611,1.35709v.59545l-2.06054.12463c-1.91727.11771-2.95436.914-2.95436,2.29874A2.35408,2.35408,0,0,0,25.71238,18.36659Zm.4435-1.28093c-.88017,0-1.43966-.42928-1.43966-1.08705,0-.67854.539-1.07321,1.5693-1.13552l1.83538-.11771v.60931A1.80411,1.80411,0,0,1,26.15588,17.08566Zm5.59486,4.13358c1.61023,0,2.36758-.62315,3.02941-2.51338l2.89978-8.25331H36.00147l-1.94456,6.37693H34.0228l-1.94456-6.37693H30.352l2.79744,7.85865-.15011.47775a1.31649,1.31649,0,0,1-1.39189,1.12167c-.12964,0-.38209-.01385-.48444-.02769V21.1777A4.48376,4.48376,0,0,0,31.75074,21.21924Z"/>
          </g>
        </g>
      </g>
    </g>
  </g>
</svg>
