<svg id="Layer_1" data-name="Layer 1" xmlns="http://www.w3.org/2000/svg" xmlns:xlink="http://www.w3.org/1999/xlink" viewBox="0 0 40 26">
  <defs>
    <mask id="mask" x="26.52926" y="11.14621" width="5.2288" height="6.60829" maskUnits="userSpaceOnUse">
      <g id="mask-2">
        <polygon id="path-1" points="26.529 17.754 31.758 17.754 31.758 11.146 26.529 11.146 26.529 17.754" style="fill: #fff"/>
      </g>
    </mask>
    <mask id="mask-2-2" x="3.41522" y="8.26866" width="10.48622" height="9.48396" maskUnits="userSpaceOnUse">
      <g id="mask-6">
        <polygon id="path-5" points="3.415 8.269 3.415 17.753 13.901 17.753 13.901 8.269 3.415 8.269" style="fill: #fff"/>
      </g>
    </mask>
  </defs>
  <title>bacs</title>
  <g id="Page-1">
    <g id="bacs--65x41">
      <rect width="40" height="26" style="fill: #e81c44"/>
      <g id="Page-1-2" data-name="Page-1">
        <path id="Fill-1" d="M8.881,17.75211a4.10662,4.10662,0,0,0,3.86822-3.48242l1.15223-6.00154H5.24458l-1.82879,9.484Z" style="fill: #e81c44"/>
        <path id="Fill-3" d="M16.56008,8.32035l-.842,4.10851h.02576a2.69037,2.69037,0,0,1,2.2392-1.29539c1.39606,0,1.92209,1.15152,1.92209,2.27688,0,1.93625-1.40866,4.34392-3.96381,4.34392-1.1196,0-1.96159-.45833-1.96159-1.63544a6.28448,6.28448,0,0,1,.1036-.98149l1.38405-6.817ZM15.17776,15.1635a2.74316,2.74316,0,0,0-.07957.79838c0,.60107.34287.94226,1.028.94226,1.6462,0,2.64674-1.94991,2.64674-3.35049,0-.78474-.34229-1.51773-1.21175-1.51773-.94789,0-1.92267.96841-2.23863,2.46055Z" style="fill: #fff"/>
        <path id="Fill-5" d="M24.42314,17.60983A16.23123,16.23123,0,0,1,24.568,15.975h-.02633a2.79008,2.79008,0,0,1-2.4756,1.77931,1.881,1.881,0,0,1-1.83165-2.0932,4.4357,4.4357,0,0,1,4.41257-4.5276,5.98592,5.98592,0,0,1,1.7126.2485l-.64509,3.29761a14.35223,14.35223,0,0,0-.277,2.93025Zm.71149-5.521a2.97654,2.97654,0,0,0-.76472-.09155c-1.64562,0-2.9896,1.71391-3.00277,3.46706,0,.70684.25014,1.40059,1.09327,1.40059.90953,0,1.98906-1.17824,2.305-2.866Z" style="fill: #fff"/>
        <g id="Group-9">
          <g style="mask: url(#mask)">
            <path id="Fill-7" d="M30.8222,17.36156a4.37306,4.37306,0,0,1-1.84367.39294,2.29125,2.29125,0,0,1-2.44927-2.46,4.02072,4.02072,0,0,1,3.89856-4.14831,3.27543,3.27543,0,0,1,1.33024.27522l-.31653.86322a2.49246,2.49246,0,0,0-1.0801-.23543,2.9559,2.9559,0,0,0-2.7,3.11394,1.49605,1.49605,0,0,0,1.5798,1.68832,3.37451,3.37451,0,0,0,1.4762-.35313l.10475.86321Z" style="fill: #fff"/>
          </g>
        </g>
        <g id="Group-15">
          <g style="mask: url(#mask-2-2)">
            <path id="Fill-13" d="M5.05569,14.71944A5.93142,5.93142,0,0,1,4.01737,14.629L5.20222,8.48646c2.32907.05572,4.19392,1.429,4.19392,3.11564,0,1.7213-1.94384,3.11734-4.34045,3.11734Zm2.18711.32129c2.12186-.44469,3.66445-1.78784,3.66445-3.37722,0-1.611-1.5838-2.96836-3.75088-3.39485H6.62862c2.18024.344,3.811,1.73666,3.811,3.40338,0,1.74348-1.78644,3.189-4.11779,3.446.059-.0017.11791-.00284.17744-.00625q.3795-.02047.74354-.07108ZM8.38758,8.26866c2.27583.48449,3.93062,1.83675,4.02049,3.51085.11734,2.21717-2.55745,4.15912-5.97349,4.33881a9.04875,9.04875,0,0,1-2.657-.24395l-.36232,1.87825H8.881a4.105,4.105,0,0,0,3.86765-3.483l1.1528-6.001ZM11.929,11.36383c-.083-1.55924-1.8328-2.787-4.16014-3.09517H7.51011c2.27869.42706,3.94435,1.785,3.94435,3.39485A3.47114,3.47114,0,0,1,9.04183,14.596C10.822,13.92845,12,12.703,11.929,11.36383Z" style="fill: #fff"/>
          </g>
        </g>
        <path id="Fill-10" d="M31.81181,16.51126a2.91747,2.91747,0,0,0,1.36973.39293,1.09742,1.09742,0,0,0,1.21118-1.03437c0-.497-.2238-.79839-.88262-1.164a1.89115,1.89115,0,0,1-1.14479-1.60985,2.093,2.093,0,0,1,2.30445-1.96241A2.66727,2.66727,0,0,1,36,11.44742l-.3028.824a2.29466,2.29466,0,0,0-1.107-.28774,1.02109,1.02109,0,0,0-1.13162.95533c0,.45777.3028.7455.86889,1.06a1.994,1.994,0,0,1,1.198,1.661,2.17472,2.17472,0,0,1-2.43667,2.09434,2.90388,2.90388,0,0,1-1.57981-.44526Z" style="fill: #fff"/>
      </g>
    </g>
  </g>
</svg>
