<svg id="Layer_1" data-name="Layer 1" xmlns="http://www.w3.org/2000/svg" xmlns:xlink="http://www.w3.org/1999/xlink" viewBox="0 0 40 26">
  <defs>
    <mask id="mask" x="6.97561" y="3.21328" width="27.02439" height="19.49693" maskUnits="userSpaceOnUse">
      <g id="mask-2">
        <polygon id="path-1" points="6.981 22.71 34 22.71 34 3.213 6.981 3.213 6.981 22.71" style="fill: #fff"/>
      </g>
    </mask>
  </defs>
  <title>bancontact</title>
  <g id="Page-1">
    <g id="bancontact-65x41-">
      <rect width="40" height="26" style="fill: #075695"/>
      <g id="BC_logo_ORGNL_cmyk" data-name="BC logo ORGNL cmyk">
        <g id="Group-3">
          <g style="mask: url(#mask)">
            <path id="Fill-1" d="M34,21.03179a1.66663,1.66663,0,0,1-1.64457,1.67843H8.62018a1.66663,1.66663,0,0,1-1.64457-1.67843V4.89163A1.66661,1.66661,0,0,1,8.62018,3.21328H32.35543A1.66661,1.66661,0,0,1,34,4.89163V21.03179" style="fill: #fff"/>
          </g>
        </g>
        <path id="Fill-4" d="M28.68711,8.66041h-6.4847l-2.79963,3.2167v.00009l-.6595.75771h-6.399l1.606-1.89793H11.00174a1.00594,1.00594,0,0,0-.97943,1.02493V13.9245a1.006,1.006,0,0,0,.97943,1.025H22.28985a2.47024,2.47024,0,0,0,1.6352-.76127l4.76206-5.52783" style="fill: #064d80"/>
        <path id="Fill-5" d="M29.99,6.34861a1.006,1.006,0,0,1,.97943,1.025V9.53613a1.006,1.006,0,0,1-.97943,1.025H27.05107l.65544-.76161h.00009L28.687,8.66041H22.20241l-3.45913,3.97738h-6.4387l4.79223-5.52994a2.481,2.481,0,0,1,1.63744-.75924H29.99" style="fill: #fdd915"/>
        <path id="Fill-6" d="M12.22957,18.62576a.67238.67238,0,0,0-.0978-.3666.64907.64907,0,0,0-.25743-.23624.57738.57738,0,0,0,.24749-.2404.72845.72845,0,0,0,.08777-.35838V17.3508a.82089.82089,0,0,0-.09175-.40736.69535.69535,0,0,0-.25752-.26069,1.20919,1.20919,0,0,0-.39709-.14059,2.84689,2.84689,0,0,0-.515-.04271q-.09573,0-.1995.00406-.10393.00407-.20157.01015-.09784.00609-.17961.01429-.08193.00825-.13377.01624a.28288.28288,0,0,0-.16361.07334.28963.28963,0,0,0-.04791.1915v2.47666a.28027.28027,0,0,0,.0499.19142.29771.29771,0,0,0,.16966.07333,1.44045,1.44045,0,0,0,.14364.02039q.08379.00811.18159.01421t.20158.01023q.1038.00395.20356.00406a2.79831,2.79831,0,0,0,.489-.04077,1.13611,1.13611,0,0,0,.39908-.14464.76144.76144,0,0,0,.26945-.281.90071.90071,0,0,0,.09979-.4461v-.06107ZM11.551,17.4567a.38405.38405,0,0,1-.02.12426.2451.2451,0,0,1-.0658.10184.33919.33919,0,0,1-.12375.06919.62233.62233,0,0,1-.19759.02647h-.447v-.70468q.01989,0,.06183-.002t.08777-.002h.15367a.83443.83443,0,0,1,.42908.07943.27339.27339,0,0,1,.12176.2464v.06115Zm.016,1.21389a.31892.31892,0,0,1-.11778.26475.70778.70778,0,0,1-.42511.09372h-.06581q-.046,0-.09581-.002c-.03332-.00135-.06523-.00211-.09581-.00211H10.6969v-.7617h.447a.41919.41919,0,0,1,.33128.10793.38077.38077,0,0,1,.09184.25461v.04483Zm2.84985-.64361a.98293.98293,0,0,0-.06589-.38089.6603.6603,0,0,0-.18558-.25663.76062.76062,0,0,0-.2934-.14659,1.49474,1.49474,0,0,0-.38914-.04686,2.61982,2.61982,0,0,0-.38914.02851q-.18972.02855-.30136.057a.08809.08809,0,0,0-.07584.08957v.33a.06959.06959,0,0,0,.02.057.0789.0789,0,0,0,.05188.01633h.01989l.11977-.01016q.07186-.00609.16171-.01023.08976-.00393.18756-.00609t.19362-.002a.39373.39373,0,0,1,.21947.053q.07981.053.07982.22813v.14667h-.2155a1.32168,1.32168,0,0,0-.74843.16494.59635.59635,0,0,0-.23349.52341v.03671a.84646.84646,0,0,0,.05786.33395.55828.55828,0,0,0,.37123.332.92146.92146,0,0,0,.25346.03468.87792.87792,0,0,0,.30932-.04889,1.01448,1.01448,0,0,0,.2455-.1344v.06513a.07865.07865,0,0,0,.024.057.07574.07574,0,0,0,.05586.02444H14.337a.07589.07589,0,0,0,.05587-.02444.07869.07869,0,0,0,.02395-.057V18.027Zm-.63464.98575a1.0437,1.0437,0,0,1-.15366.06311.55789.55789,0,0,1-.17364.02647.38241.38241,0,0,1-.18964-.03662q-.06191-.03668-.06183-.167V18.862a.48268.48268,0,0,1,.016-.13034.19576.19576,0,0,1,.05586-.09372.25522.25522,0,0,1,.10775-.055.6744.6744,0,0,1,.17165-.01827h.22751v.448Zm3.07737.46438v-1.3565a2.06459,2.06459,0,0,0-.02992-.36042.81552.81552,0,0,0-.10775-.29334.55687.55687,0,0,0-.21557-.1975.74816.74816,0,0,0-.35325-.07334.99249.99249,0,0,0-.65055.21341v-.09871a.08008.08008,0,0,0-.024-.05744.07583.07583,0,0,0-.05594-.02469h-.447a.07544.07544,0,0,0-.05586.02444.079.079,0,0,0-.024.057v2.16708a.08194.08194,0,0,0,.02595.059.07912.07912,0,0,0,.05785.02647h.483a.07319.07319,0,0,0,.05586-.02639.08539.08539,0,0,0,.024-.05895V17.87591a1.77994,1.77994,0,0,1,.19561-.09339.48191.48191,0,0,1,.17961-.03662.50572.50572,0,0,1,.14968.01835.169.169,0,0,1,.08977.063.2771.2771,0,0,1,.04392.11774,1.13378,1.13378,0,0,1,.012.1789v1.35337a.0854.0854,0,0,0,.024.05895.07306.07306,0,0,0,.05586.02639h.483a.0794.0794,0,0,0,.05785-.02647.08228.08228,0,0,0,.02594-.059Zm1.96384-.03257V19.082a.06279.06279,0,0,0-.022-.05092.08116.08116,0,0,0-.05387-.01836h-.008q-.11176.01219-.21351.02039t-.27343.00812a.36053.36053,0,0,1-.12772-.02242.23814.23814,0,0,1-.10377-.07739.413.413,0,0,1-.06987-.14659.84187.84187,0,0,1-.02594-.22609V18.2266a.84108.84108,0,0,1,.02594-.2261.41339.41339,0,0,1,.06987-.14667.23956.23956,0,0,1,.10377-.0774.36277.36277,0,0,1,.12772-.02241q.17157,0,.27343.0082t.21351.0203h.008a.08157.08157,0,0,0,.05387-.01827.0629.0629,0,0,0,.022-.05092V17.3508a.08334.08334,0,0,0-.02-.06318.158.158,0,0,0-.0639-.03054q-.08379-.0203-.21749-.04077a2.116,2.116,0,0,0-.31338-.0203.89267.89267,0,0,0-.67649.26475,1.065,1.065,0,0,0-.25346.76584v.34215a1.06462,1.06462,0,0,0,.25346.76575.89243.89243,0,0,0,.67649.26483,2.115,2.115,0,0,0,.31338-.02038q.13365-.02043.21749-.04077a.15686.15686,0,0,0,.0639-.03054.083.083,0,0,0,.02-.0631Zm2.2153-1.18944a1.37027,1.37027,0,0,0-.06606-.43992.91274.91274,0,0,0-.192-.332.85454.85454,0,0,0-.31189-.2118,1.264,1.264,0,0,0-.85991,0,.87348.87348,0,0,0-.314.2118.89579.89579,0,0,0-.194.332,1.36807,1.36807,0,0,0-.06605.43992v.28514a1.36852,1.36852,0,0,0,.06605.43993.89587.89587,0,0,0,.194.332.87247.87247,0,0,0,.314.2118,1.2642,1.2642,0,0,0,.85991,0,.85357.85357,0,0,0,.31189-.2118.91282.91282,0,0,0,.192-.332,1.37072,1.37072,0,0,0,.06606-.43993V18.2551Zm-.64665.28514q0,.501-.35325.501a.30734.30734,0,0,1-.26589-.12629.637.637,0,0,1-.09134-.37471V18.2551a.62758.62758,0,0,1,.09134-.37276.30938.30938,0,0,1,.26589-.12426q.3532,0,.35325.497v.28514Zm3.0215.93687v-1.3565a2.07335,2.07335,0,0,0-.02992-.36042.81577.81577,0,0,0-.10783-.29334.5573.5573,0,0,0-.2155-.1975.74834.74834,0,0,0-.35324-.07334.99251.99251,0,0,0-.65064.21341v-.09871a.07975.07975,0,0,0-.024-.05744.07553.07553,0,0,0-.05587-.02469h-.44707a.07571.07571,0,0,0-.05586.02444.07931.07931,0,0,0-.02395.057v2.16708a.08228.08228,0,0,0,.02594.059.07931.07931,0,0,0,.05794.02647h.483a.07347.07347,0,0,0,.05586-.02639.08579.08579,0,0,0,.02395-.05895V17.87591a1.77994,1.77994,0,0,1,.19552-.09339.48266.48266,0,0,1,.17969-.03662.5048.5048,0,0,1,.14961.01835.16915.16915,0,0,1,.08984.063.27829.27829,0,0,1,.04393.11774,1.13484,1.13484,0,0,1,.01194.1789v1.35337a.08579.08579,0,0,0,.024.05895.07333.07333,0,0,0,.05586.02639h.483a.07946.07946,0,0,0,.05794-.02647.0826.0826,0,0,0,.02594-.059Zm1.7403.00913V19.171q0-.06864-.0838-.06868h-.1956q-.09187,0-.11173-.03459a.37975.37975,0,0,1-.02-.15683V17.72551h.3273a.07574.07574,0,0,0,.05587-.02461.07983.07983,0,0,0,.02395-.05752v-.33267a.08.08,0,0,0-.02395-.05752.07574.07574,0,0,0-.05587-.02461h-.3273v-.43181a.06619.06619,0,0,0-.01981-.05092.07339.07339,0,0,0-.05164-.01827h-.01185l-.484.08551a.13723.13723,0,0,0-.05562.02851.06653.06653,0,0,0-.02379.05295v.334h-.31926a.07966.07966,0,0,0-.05794.02647.08258.08258,0,0,0-.02594.059v.2689a.06975.06975,0,0,0,.02594.055.14006.14006,0,0,0,.05794.03053l.31926.05295v1.18132a1.18377,1.18377,0,0,0,.0436.3523.48751.48751,0,0,0,.127.21392.43.43,0,0,0,.20828.10387,1.40225,1.40225,0,0,0,.28777.02647,1.34363,1.34363,0,0,0,.15566-.00812q.06775-.00812.15963-.02427a.07682.07682,0,0,0,.07584-.0807ZM27.2853,18.027a.98293.98293,0,0,0-.06589-.38089.66119.66119,0,0,0-.18557-.25663.76067.76067,0,0,0-.29341-.14659,1.49474,1.49474,0,0,0-.38914-.04686,2.61959,2.61959,0,0,0-.38913.02851q-.18972.02855-.30137.057a.088.088,0,0,0-.07584.08957v.33a.06957.06957,0,0,0,.0199.057.0792.0792,0,0,0,.05188.01633h.02l.11976-.01016q.07187-.00609.16162-.01023.0899-.00393.18765-.00609t.19353-.002a.39385.39385,0,0,1,.21956.053q.07981.053.07982.22813v.14667h-.2155a1.32168,1.32168,0,0,0-.74843.16494.59634.59634,0,0,0-.23348.52341v.03671a.845.845,0,0,0,.05785.33395.55828.55828,0,0,0,.37123.332.921.921,0,0,0,.25346.03468.87823.87823,0,0,0,.30932-.04889,1.01448,1.01448,0,0,0,.2455-.1344v.06513a.07865.07865,0,0,0,.02395.057.0756.0756,0,0,0,.05586.02444h.44708a.07587.07587,0,0,0,.05586-.02444.079.079,0,0,0,.02395-.057V18.027Zm-.63463.98575a1.04427,1.04427,0,0,1-.15367.06311.55789.55789,0,0,1-.17364.02647.38243.38243,0,0,1-.18964-.03662q-.0619-.03668-.06183-.167V18.862a.48268.48268,0,0,1,.016-.13034.19445.19445,0,0,1,.05586-.09372.25534.25534,0,0,1,.10775-.055.6744.6744,0,0,1,.17165-.01827h.22752v.448Zm2.59838.43181V19.082a.06279.06279,0,0,0-.022-.05092.081.081,0,0,0-.05387-.01836h-.008q-.11177.01219-.21359.02039t-.27335.00812a.35982.35982,0,0,1-.12772-.02242.2383.2383,0,0,1-.10385-.07739.41292.41292,0,0,1-.06979-.14659.83821.83821,0,0,1-.026-.22609V18.2266a.83743.83743,0,0,1,.026-.2261.41336.41336,0,0,1,.06979-.14667.23972.23972,0,0,1,.10385-.0774.362.362,0,0,1,.12772-.02241q.17157,0,.27335.0082t.21359.0203h.008a.08143.08143,0,0,0,.05387-.01827.0629.0629,0,0,0,.022-.05092V17.3508a.083.083,0,0,0-.02-.06318.15761.15761,0,0,0-.06382-.03054q-.08379-.0203-.21757-.04077a2.11484,2.11484,0,0,0-.3133-.0203.89284.89284,0,0,0-.67657.26475,1.065,1.065,0,0,0-.25346.76584v.34215a1.06462,1.06462,0,0,0,.25346.76575.8926.8926,0,0,0,.67657.26483,2.11389,2.11389,0,0,0,.3133-.02038q.13365-.02043.21757-.04077a.15645.15645,0,0,0,.06382-.03054.0827.0827,0,0,0,.02-.0631Zm1.72033.0417V19.171q0-.06864-.0838-.06868H30.69q-.09187,0-.11173-.03459a.37975.37975,0,0,1-.02-.15683V17.72551h.3273a.0757.0757,0,0,0,.05586-.02461.08013.08013,0,0,0,.024-.05752v-.33267a.08026.08026,0,0,0-.024-.05752.0757.0757,0,0,0-.05586-.02461h-.3273v-.43181a.06592.06592,0,0,0-.0199-.05092.073.073,0,0,0-.05155-.01827H30.4749l-.484.08551a.13687.13687,0,0,0-.05553.02851.06653.06653,0,0,0-.02379.05295v.334h-.31926a.07965.07965,0,0,0-.05794.02647.08258.08258,0,0,0-.02594.059v.2689a.06975.06975,0,0,0,.02594.055.14.14,0,0,0,.05794.03053l.31926.05295v1.18132a1.18377,1.18377,0,0,0,.0436.3523.48751.48751,0,0,0,.127.21392.42966.42966,0,0,0,.20828.10387,1.40219,1.40219,0,0,0,.28777.02647,1.34475,1.34475,0,0,0,.15566-.00812q.06775-.00812.15963-.02427a.07688.07688,0,0,0,.07584-.0807Z" style="fill: #064d80"/>
      </g>
    </g>
  </g>
</svg>
