<svg id="Layer_1" data-name="Layer 1" xmlns="http://www.w3.org/2000/svg" viewBox="0 0 40 26">
  <title>bankTransfer_1</title>
  <rect x="-0.63839" y="-0.15601" width="40.54078" height="26.26832" style="fill: #fff"/>
  <path d="M26.63334,11.4454V19.947H24.633V10.9453h1.50029a.50007.50007,0,0,1,.50008.5001Zm1.50079,9.50182a.49949.49949,0,0,1,.49961.49961v.50058H11.13038a.50011.50011,0,0,1-.5001-.50008v-.50011H28.13413ZM12.63067,19.44728v-8.502H14.631V19.947h-1.502a.49994.49994,0,0,1-.49841-.49976Zm6.00115.49976V10.9453h2.00037V19.947ZM15.63124,10.9453h2.00037V19.947H15.63124V10.9453ZM23.63276,19.947H21.63239V10.9453h2.00037V19.947ZM11.13038,9.94511a.50012.50012,0,0,1-.5001-.5001V8.74664L19.632,4.0089l8.73462,4.59716a.49994.49994,0,0,1,.26711.44233v.89672H11.13038ZM28.63374,10.9453a1.0002,1.0002,0,0,0,1.00017-1.00019V8.74664a1.00008,1.00008,0,0,0-.53423-.88495l-9.002-4.738a.99967.99967,0,0,0-.93114,0l-9.002,4.73776a1.00054,1.00054,0,0,0-.53451.88538V9.94511a1.00022,1.00022,0,0,0,1.00019,1.00019h1.00018V19.947H10.63028a1.00018,1.00018,0,0,0-1.00019,1.00018v1.00019a1.00024,1.00024,0,0,0,1.00019,1.00021H28.63374a1.00022,1.00022,0,0,0,1.00017-1.00021V20.94722A1.00016,1.00016,0,0,0,28.63374,19.947H27.63355V10.9453Z" style="fill: #0f0f0f"/>
</svg>
