<svg id="Layer_1" data-name="Layer 1" xmlns="http://www.w3.org/2000/svg" viewBox="0 0 40 26">
  <title>bijcadeaucard</title>
  <rect y="-0.00026" width="40" height="26"/>
  <path d="M35.36574,16.88363c-.26515-.1603-.52944-.32147-.79633-.48091q-1.2192-.72789-2.44012-1.45316a.10486.10486,0,0,1-.06066-.10485V11.032a.10658.10658,0,0,1,.06066-.10658q1.58313-.94191,3.1706-1.889a.1421.1421,0,0,1,.1733,0q1.56666.94189,3.1394,1.876a.11873.11873,0,0,1,.06759.11785v3.79708a.14993.14993,0,0,1-.08666.14905q-1.55973.9237-3.10993,1.85175a.70439.70439,0,0,0-.07192.05632Zm.29808-.85092c.03206-.01646.05113-.02513.06846-.03553l2.324-1.38643a.10138.10138,0,0,0,.0546-.10225V11.396a.15512.15512,0,0,0-.08666-.156q-1.14294-.67675-2.28327-1.35871c-.02167-.013-.04333-.02426-.07366-.04072v.86478c0,.05633-.01646.07712-.07279.07192a1.17225,1.17225,0,0,0-.13517,0,.96725.96725,0,0,0-1.0147,1.01556q0,.87172,0,1.74344v.09878h-.91418v.27989h2.13337ZM33.8736,13.04062v-1.285a1.55971,1.55971,0,0,1,1.16546-1.5164c.01994-.0052.052-.0234.05286-.0364V9.8449l-.104.05979-.59963.3596-1.681,1.0017c-.03639.02166-.06759.03813-.06759.09445V14.5137a.11875.11875,0,0,0,.04853.08666q1.1698.701,2.3396,1.39769a.41483.41483,0,0,0,.05286.02253V14.50331H32.96549V13.04062Z" style="fill: #fff"/>
  <path d="M9.09289,14.90624V10.967a.5329.5329,0,0,1,.058-.00606H10.942a1.59426,1.59426,0,0,1,.5875.11091.77987.77987,0,0,1,.50778.6135.94461.94461,0,0,1-.14991.80153,1.84159,1.84159,0,0,1-.25995.23049.63461.63461,0,0,1-.07539.04679c.05026.0208.09185.0364.13084.05373a.91242.91242,0,0,1,.552.77033,1.0568,1.0568,0,0,1-.59616,1.16547,1.35173,1.35173,0,0,1-.57364.149c-.64469.00953-1.28938.00693-1.93493.00867A.2.2,0,0,1,9.09289,14.90624Zm.80846-1.75037v1.08575l.02079.00693c.34141,0,.68369,0,1.0251-.0104a.4731.4731,0,0,0,.409-.2175.5589.5589,0,0,0-.37606-.85265,1.38651,1.38651,0,0,0-.22183-.013c-.28682-.00086-.57017,0-.857,0Zm0-1.51294v.91071c.32321,0,.64036.00866.95317,0a.42113.42113,0,0,0,.41255-.42953l-.00009-.00373c.0078-.279-.12218-.45839-.38906-.474-.32062-.01906-.64816-.00433-.97744-.00433Z" style="fill: #fff"/>
  <path d="M4.06968,12.30321v-1.266c0-.03986-.00694-.07972.05632-.07885h.71488v3.95479H4.1338c-.05546,0-.08665-.01213-.08059-.07452a1.91127,1.91127,0,0,0-.01473-.19843.30164.30164,0,0,0-.03813.03032,1.076,1.076,0,0,1-1.45748.07366,1.48087,1.48087,0,0,1-.51991-.96444,1.96354,1.96354,0,0,1,.1733-1.15507,1.162,1.162,0,0,1,1.837-.34661A.34011.34011,0,0,0,4.06968,12.30321Zm-1.30758,1.175a1.21318,1.21318,0,0,0,.13344.59877.58489.58489,0,0,0,.54591.32321.54588.54588,0,0,0,.50431-.318,1.26164,1.26164,0,0,0,.11872-.84919,1.3482,1.3482,0,0,0-.10485-.32321.54765.54765,0,0,0-.54851-.34661.59011.59011,0,0,0-.54677.3804A1.25717,1.25717,0,0,0,2.7621,13.47821Z" style="fill: #fff"/>
  <path d="M24.17638,14.9071c-.03726,0-.05979.00607-.08232.00607h-.79633a.10918.10918,0,0,1-.10831-.05979c-.2305-.37867-.46272-.75561-.69322-1.13254-.01473-.02426-.03119-.04853-.05372-.08665-.10139.09791-.19844.18976-.292.28508a.12211.12211,0,0,0-.01386.07539v.90724h-.77987V10.96618h.77987v2.08831c.10658-.09879.21316-.1915.31194-.292.21577-.21923.42633-.44366.64123-.66375a.13.13,0,0,1,.07972-.04073h.83619a.31023.31023,0,0,1,.04419.00953l-1.06668,1.03982Z" style="fill: #fff"/>
  <path d="M8.0392,13.67145H5.976a.64121.64121,0,0,0,.38213.68281.77985.77985,0,0,0,.675-.05112.75821.75821,0,0,0,.21576-.20883.13085.13085,0,0,1,.12132-.06759h.60136c-.01906.05286-.03293.09618-.05026.13864a1.23657,1.23657,0,0,1-1.175.82233,1.62641,1.62641,0,0,1-.75473-.12131,1.27467,1.27467,0,0,1-.72615-.80847,1.67731,1.67731,0,0,1,.11612-1.37776A1.35388,1.35388,0,0,1,6.53146,11.98a1.30219,1.30219,0,0,1,1.05542.36481,1.48347,1.48347,0,0,1,.41419.85872C8.02447,13.35343,8.02707,13.50681,8.0392,13.67145Zm-.8024-.50172a.582.582,0,0,0-.62129-.60656.6106.6106,0,0,0-.64729.60656Z" style="fill: #fff"/>
  <path d="M17.90279,13.67145H15.93405c-.10658,0-.10918,0-.09531.10918a.605.605,0,0,0,.42026.57883.76038.76038,0,0,0,.81279-.19323.10838.10838,0,0,0,.02947-.03726c.03119-.10485.11091-.104.19929-.10225.17331.00433.34661,0,.532,0a.43265.43265,0,0,1-.01127.06412,1.26944,1.26944,0,0,1-1.23132.89685,1.75474,1.75474,0,0,1-.64989-.08665,1.2521,1.2521,0,0,1-.7712-.74434,1.66373,1.66373,0,0,1,.09965-1.50774,1.332,1.332,0,0,1,1.10654-.66462,1.30513,1.30513,0,0,1,1.10741.39339,1.51041,1.51041,0,0,1,.38994.86652C17.89412,13.3751,17.89325,13.51634,17.90279,13.67145Zm-.7946-.50172a.55354.55354,0,0,0-.273-.51038.68715.68715,0,0,0-.72614.0104.60659.60659,0,0,0-.279.49912Z" style="fill: #fff"/>
  <path d="M23.93982,13.48775a1.68612,1.68612,0,0,1,.17851-.77987,1.2712,1.2712,0,0,1,.79979-.65856,1.73313,1.73313,0,0,1,1.065.0182,1.25646,1.25646,0,0,1,.80759.77987,1.76418,1.76418,0,0,1-.0078,1.29978,1.2634,1.2634,0,0,1-.88818.78593,1.6888,1.6888,0,0,1-1.071-.04073,1.3214,1.3214,0,0,1-.85872-1.11261C23.95022,13.681,23.94762,13.5848,23.93982,13.48775Zm2.17757-.00694a1.228,1.228,0,0,0-.123-.5849.60657.60657,0,0,0-.5901-.33014.5771.5771,0,0,0-.56064.34661,1.35959,1.35959,0,0,0,0,1.12647.57623.57623,0,0,0,.55717.35527.60655.60655,0,0,0,.5979-.33014,1.22609,1.22609,0,0,0,.11872-.58057Z" style="fill: #fff"/>
  <path d="M18.23206,14.91317V12.05972h.74348v.3882a.399.399,0,0,0,.04246-.03986,1.062,1.062,0,0,1,1.06581-.42286.90636.90636,0,0,1,.54418.2331.91848.91848,0,0,1,.25995.56843,2.77245,2.77245,0,0,1,.02253.357V14.908h-.78593v-.09445c0-.52771,0-1.05629-.00693-1.584a1.35435,1.35435,0,0,0-.05546-.3466.3648.3648,0,0,0-.31541-.27816c-.32928-.04679-.5745.0468-.66722.35094a1.16718,1.16718,0,0,0-.05286.31975q-.00911.76816,0,1.53634c0,.08232-.0208.10311-.10138.10051-.19843-.00606-.39773,0-.597,0Z" style="fill: #fff"/>
  <path d="M30.75239,11.56061c-.12824,0-.24175-.00607-.35527,0a.22009.22009,0,0,0-.22269.21663c-.00694.06065,0,.12218-.0052.18283v.08665h.57537v.53118h-.57277v2.32834h-.792V11.86562a.85461.85461,0,0,1,.26429-.682,1.004,1.004,0,0,1,.70361-.22356,3.32357,3.32357,0,0,1,.34141.0208.0801.0801,0,0,1,.06066.04939C30.75413,11.2062,30.75239,11.38124,30.75239,11.56061Z" style="fill: #fff"/>
  <path d="M13.44108,15.26238a2.22764,2.22764,0,0,0,.28422,0,.20277.20277,0,0,0,.1891-.21557l-.0002-.0028V12.05972h.77986v3.02589a1.05531,1.05531,0,0,1-.07972.45059.59353.59353,0,0,1-.41679.32754,1.84757,1.84757,0,0,1-.69322.04333c-.02339,0-.06325-.026-.06325-.04073C13.43588,15.66617,13.44108,15.46514,13.44108,15.26238Z" style="fill: #fff"/>
  <path d="M28.04712,14.908h-.77986V12.05972h.7374v.48612l.01474.0052.039-.06326a1.02074,1.02074,0,0,1,.93757-.50864c.07106,0,.10312.02166.09965.10224-.00606.18544,0,.37174,0,.55718v.078a2.94567,2.94567,0,0,0-.41592,0,.69429.69429,0,0,0-.60657.643,2.1663,2.1663,0,0,0-.01993.28508v1.17847C28.05059,14.85165,28.04886,14.87418,28.04712,14.908Z" style="fill: #fff"/>
  <path d="M12.62915,14.91317V12.05972h.78507v2.76593c0,.07279-.0182.09532-.09272.09359-.2019-.0052-.40293,0-.60656,0Z" style="fill: #fff"/>
  <path d="M12.62742,11.6048v-.63862h.77986v.63949Z" style="fill: #fff"/>
  <path d="M13.91766,11.6048v-.63949h.77554v.63949Z" style="fill: #fff"/>
</svg>
