<svg id="Layer_1" data-name="Layer 1" xmlns="http://www.w3.org/2000/svg" viewBox="0 0 40 26">
  <title>boleto</title>
  <g>
    <polygon id="Fill-1" points="2.69 25.998 4.554 25.998 4.554 -0.014 2.69 -0.014 2.69 25.998" style="fill: #1a1918"/>
    <polygon id="Fill-2" points="5.142 25.998 5.72 25.998 5.72 -0.014 5.142 -0.014 5.142 25.998" style="fill: #1a1918"/>
    <polygon id="Fill-3" points="6.223 25.998 7.257 25.998 7.257 -0.014 6.223 -0.014 6.223 25.998" style="fill: #1a1918"/>
    <polygon id="Fill-4" points="8.255 25.998 8.832 25.998 8.832 -0.014 8.255 -0.014 8.255 25.998" style="fill: #1a1918"/>
    <polygon id="Fill-5" points="9.084 25.998 9.529 25.998 9.529 -0.014 9.084 -0.014 9.084 25.998" style="fill: #1a1918"/>
    <polygon id="Fill-6" points="1.272 25.998 1.85 25.998 1.85 -0.014 1.272 -0.014 1.272 25.998" style="fill: #1a1918"/>
    <polygon id="Fill-7" points="-0.002 25.998 1.032 25.998 1.032 -0.014 -0.002 -0.014 -0.002 25.998" style="fill: #1a1918"/>
    <polygon id="Fill-8" points="12.617 25.998 14.481 25.998 14.481 -0.014 12.617 -0.014 12.617 25.998" style="fill: #1a1918"/>
    <polygon id="Fill-9" points="15.069 25.998 15.646 25.998 15.646 -0.014 15.069 -0.014 15.069 25.998" style="fill: #1a1918"/>
    <polygon id="Fill-10" points="16.15 25.998 17.184 25.998 17.184 -0.014 16.15 -0.014 16.15 25.998" style="fill: #1a1918"/>
    <polygon id="Fill-11" points="18.181 25.998 18.759 25.998 18.759 -0.014 18.181 -0.014 18.181 25.998" style="fill: #1a1918"/>
    <polygon id="Fill-12" points="19.01 25.998 19.456 25.998 19.456 -0.014 19.01 -0.014 19.01 25.998" style="fill: #1a1918"/>
    <polygon id="Fill-13" points="11.199 25.998 11.777 25.998 11.777 -0.014 11.199 -0.014 11.199 25.998" style="fill: #1a1918"/>
    <polygon id="Fill-14" points="9.925 25.998 10.959 25.998 10.959 -0.014 9.925 -0.014 9.925 25.998" style="fill: #1a1918"/>
    <polygon id="Fill-15" points="20.188 25.998 21.222 25.998 21.222 -0.014 20.188 -0.014 20.188 25.998" style="fill: #1a1918"/>
    <polygon id="Fill-16" points="22.219 25.998 22.797 25.998 22.797 -0.014 22.219 -0.014 22.219 25.998" style="fill: #1a1918"/>
    <polygon id="Fill-17" points="23.049 25.998 23.494 25.998 23.494 -0.014 23.049 -0.014 23.049 25.998" style="fill: #1a1918"/>
    <polygon id="Fill-18" points="25.164 25.998 25.742 25.998 25.742 -0.014 25.164 -0.014 25.164 25.998" style="fill: #1a1918"/>
    <polygon id="Fill-19" points="23.89 25.998 24.924 25.998 24.924 -0.014 23.89 -0.014 23.89 25.998" style="fill: #1a1918"/>
    <polygon id="Fill-20" points="26.51 25.998 27.088 25.998 27.088 -0.014 26.51 -0.014 26.51 25.998" style="fill: #1a1918"/>
    <polygon id="Fill-21" points="27.339 25.998 27.784 25.998 27.784 -0.014 27.339 -0.014 27.339 25.998" style="fill: #1a1918"/>
    <polygon id="Fill-22" points="29.454 25.998 30.032 25.998 30.032 -0.014 29.454 -0.014 29.454 25.998" style="fill: #1a1918"/>
    <polygon id="Fill-23" points="28.18 25.998 29.214 25.998 29.214 -0.014 28.18 -0.014 28.18 25.998" style="fill: #1a1918"/>
    <polygon id="Fill-24" points="30.536 25.998 32.4 25.998 32.4 -0.014 30.536 -0.014 30.536 25.998" style="fill: #1a1918"/>
    <polygon id="Fill-25" points="32.988 25.998 33.566 25.998 33.566 -0.014 32.988 -0.014 32.988 25.998" style="fill: #1a1918"/>
    <polygon id="Fill-26" points="34.069 25.998 35.103 25.998 35.103 -0.014 34.069 -0.014 34.069 25.998" style="fill: #1a1918"/>
    <polygon id="Fill-27" points="36.1 25.998 36.678 25.998 36.678 -0.014 36.1 -0.014 36.1 25.998" style="fill: #1a1918"/>
    <polygon id="Fill-28" points="36.929 25.998 37.375 25.998 37.375 -0.014 36.929 -0.014 36.929 25.998" style="fill: #1a1918"/>
    <polygon id="Fill-29" points="38.107 25.998 39.971 25.998 39.971 -0.014 38.107 -0.014 38.107 25.998" style="fill: #1a1918"/>
    <polygon id="Fill-30" points="2.107 26.04 37.843 26.04 37.843 15.592 2.107 15.592 2.107 26.04" style="fill: #fff"/>
    <path id="Fill-31" d="M2.78078,25.63909V16.186H6.10246a3.88567,3.88567,0,0,1,1.62761.28608,2.13124,2.13124,0,0,1,.9582.88458,2.42324,2.42324,0,0,1,.3484,1.24748,2.22583,2.22583,0,0,1-1.23432,2.00476,2.2922,2.2922,0,0,1,1.23432.85824,2.39224,2.39224,0,0,1,.43269,1.43039,2.92338,2.92338,0,0,1-.26379,1.23651,2.377,2.377,0,0,1-.6492.88019,2.67065,2.67065,0,0,1-.96847.46644,5.53226,5.53226,0,0,1-1.42994.1584ZM3.95515,20.16H5.8695a4.01089,4.01089,0,0,0,1.11682-.11011,1.23523,1.23523,0,0,0,.67386-.473A1.43164,1.43164,0,0,0,7.887,18.7494a1.58492,1.58492,0,0,0-.2124-.82934,1.07759,1.07759,0,0,0-.60363-.49314,4.74935,4.74935,0,0,0-1.34566-.13207H3.95515V20.16Zm0,4.36985H6.16a4.69872,4.69872,0,0,0,.79959-.04609,1.81316,1.81316,0,0,0,.67591-.25755,1.34854,1.34854,0,0,0,.44707-.52789,1.738,1.738,0,0,0,.17506-.79861,1.6424,1.6424,0,0,0-.25556-.92226,1.34255,1.34255,0,0,0-.70469-.55021,4.08747,4.08747,0,0,0-1.29394-.1584H3.95515v3.261Z" style="fill: #1a1918"/>
    <path id="Fill-32" d="M10.53273,22.21308a3.64533,3.64533,0,0,1,.99109-2.81214,2.8722,2.8722,0,0,1,2.01747-.7591,2.79074,2.79074,0,0,1,2.16135.92409,3.65347,3.65347,0,0,1,.83864,2.55021,4.782,4.782,0,0,1-.37068,2.075,2.72765,2.72765,0,0,1-1.08187,1.175,2.98443,2.98443,0,0,1-1.54744.41815,2.79375,2.79375,0,0,1-2.17814-.9197,3.82751,3.82751,0,0,1-.83042-2.65155Zm1.11271.0022a3.03423,3.03423,0,0,0,.53785,1.96488,1.72664,1.72664,0,0,0,2.70743-.0022,3.1142,3.1142,0,0,0,.53785-2,2.9388,2.9388,0,0,0-.542-1.91878,1.72808,1.72808,0,0,0-2.70332-.00475,3.02594,3.02594,0,0,0-.53785,1.96085Z" style="fill: #1a1918"/>
    <polygon id="Fill-33" points="17.792 25.639 18.88 25.639 18.88 16.186 17.792 16.186 17.792 25.639" style="fill: #1a1918"/>
    <path id="Fill-34" d="M24.94036,23.42106l1.125.1584a2.92919,2.92919,0,0,1-.98081,1.62612,2.82587,2.82587,0,0,1-1.83179.57875,2.82838,2.82838,0,0,1-2.22541-.92409,3.75916,3.75916,0,0,1-.8222-2.59009,3.93676,3.93676,0,0,1,.83042-2.67568,2.727,2.727,0,0,1,2.15724-.95263,2.64985,2.64985,0,0,1,2.09592.93287,3.87746,3.87746,0,0,1,.81363,2.6274c0,.068-.00205.17157-.00616.308H21.3179a2.73346,2.73346,0,0,0,.59746,1.72526,1.72442,1.72442,0,0,0,1.33744.5985,1.5773,1.5773,0,0,0,1.01781-.33693,2.24027,2.24027,0,0,0,.66975-1.07591Zm-3.56079-1.86171H24.9527a2.41844,2.41844,0,0,0-.41007-1.29578,1.62129,1.62129,0,0,0-1.34361-.6713,1.66721,1.66721,0,0,0-1.25693.53485,2.20623,2.20623,0,0,0-.56252,1.43223Z" style="fill: #1a1918"/>
    <path id="Fill-35" d="M29.80126,24.60269l.14834,1.02543a3.79648,3.79648,0,0,1-.81809.10353,1.75137,1.75137,0,0,1-.91675-.20048,1.09672,1.09672,0,0,1-.45734-.5257,4.45,4.45,0,0,1-.1319-1.37333V19.68483h-.8037v-.89775h.8037V17.09255l1.0877-.69728v2.39181h1.088v.89775h-1.088v4.01353a2.11567,2.11567,0,0,0,.0579.6402.47427.47427,0,0,0,.18533.22682.6947.6947,0,0,0,.371.08341,3.2074,3.2074,0,0,0,.47379-.0461" style="fill: #1a1918"/>
    <path id="Fill-36" d="M30.4669,22.21308a3.64658,3.64658,0,0,1,.99109-2.81214,2.87217,2.87217,0,0,1,2.01746-.7591,2.79148,2.79148,0,0,1,2.1617.92409,3.65347,3.65347,0,0,1,.83864,2.55021,4.77649,4.77649,0,0,1-.371,2.075,2.72561,2.72561,0,0,1-1.08187,1.175,2.98359,2.98359,0,0,1-1.54745.41815,2.79423,2.79423,0,0,1-2.17813-.9197,3.82751,3.82751,0,0,1-.83042-2.65155Zm1.1127.0022a3.03624,3.03624,0,0,0,.53786,1.96488,1.727,1.727,0,0,0,2.70777-.0022,3.11625,3.11625,0,0,0,.53785-2,2.9408,2.9408,0,0,0-.542-1.91878,1.72844,1.72844,0,0,0-2.70366-.00475,3.02793,3.02793,0,0,0-.53786,1.96085Z" style="fill: #1a1918"/>
  </g>
</svg>
