<svg id="Layer_1" data-name="Layer 1" xmlns="http://www.w3.org/2000/svg" viewBox="0 0 40 26">
  <title>bunq2</title>
  <rect x="0.0498" width="39.9502" height="26" style="fill: #fff"/>
  <g id="Page-1">
    <g id="First_Block_Logo" data-name="First Block Logo">
      <g id="Website">
        <g id="Website_First_Block_Logo" data-name="Website/First_Block_Logo">
          <g id="Logo_Large-_Without-Border_bunq-_White_" data-name="Logo/Large-(Without-Border)/bunq-(White)">
            <g id="Group-4">
              <path id="Fill-23" d="M18.22414,10.23055h1.51724v3.991a3.4138,3.4138,0,1,1-6.82759,0v-3.991H14.431v3.991a2.0016,2.0016,0,0,0,1.89656,2.09052,2.0016,2.0016,0,0,0,1.89655-2.09052Z"/>
              <path id="Fill-24" d="M26.569,17.45237h1.51724v-3.991a3.4138,3.4138,0,1,0-6.82759,0v3.991h1.51724v-3.991a1.90555,1.90555,0,1,1,3.79311,0Z"/>
              <path id="Fill-25" d="M5.32759,17.45237H4V14.03151h.00474Q3.99991,13.93707,4,13.84146V6.99974H5.51724v3.80155a3.80111,3.80111,0,1,1-.11626,5.9892Zm2.37069-6.08153a2.47273,2.47273,0,0,0,0,4.94124,2.47273,2.47273,0,0,0,0-4.94124Z"/>
              <path id="Fill-26" d="M35.67241,10.23055H37v3.42086h-.00474q.00483.09445.00474.19v6.84172H35.48276V16.88164a3.80111,3.80111,0,1,1,.11626-5.98921Zm-2.37068,6.08153a2.47273,2.47273,0,1,0-2.3707-2.47062A2.42334,2.42334,0,0,0,33.30173,16.31208Z"/>
            </g>
          </g>
        </g>
      </g>
    </g>
  </g>
</svg>
