<svg id="Layer_1" data-name="Layer 1" xmlns="http://www.w3.org/2000/svg" viewBox="0 0 40 26">
  <title>dankort</title>
  <rect id="Rectangle" y="-0.00032" width="40" height="26" style="fill: #e92127"/>
  <path d="M11.46741,13.9304c-1.05518.8075-2.60358.4209-3.96863.48438l.2522-3.13721c1.37079.10382,4.00909-.47284,4.47357,1.31488A1.72532,1.72532,0,0,1,11.46741,13.9304ZM40,6.94066l-8.98663.02307c-.15491.06348-.2522.3-.43579.43817-1.28473,1.59186-2.56946,3.20648-3.9,4.7522.16065-1.707.23493-3.46613.46448-5.1731l-7.6452-.01727c-.05164,1.53381-.1377,3.04492-.22956,4.49829a5.38876,5.38876,0,0,0-3.418-3.96777,9.51194,9.51194,0,0,0-2.40875-.48438L.22638,7.056c0,.02308-.0459.02308-.22638,0L-.00018,19.00517l13.11944-.06927a6.55688,6.55688,0,0,0,4.97821-2.90644,12.33839,12.33839,0,0,0,1.00928-2.07623c-.13739,1.66107-.20654,3.368-.38989,5.05194,2.45471-.02313,7.59356,0,7.59356,0,.0459-2.07593.16065-4.24444.29834-6.29761l4.01453,5.83631c.14917.50744.57922.392.98663.392H40v-.13825a78.1546,78.1546,0,0,1-4.90314-6.4591l.023-.092A64.43508,64.43508,0,0,1,40,7.102Z" style="fill: #fff"/>
</svg>
