<svg id="Layer_1" data-name="Layer 1" xmlns="http://www.w3.org/2000/svg" viewBox="0 0 40 26">
  <title>diners</title>
  <g id="Page-1">
    <g id="diners-65x41-">
      <rect id="Rectangle" y="-0.00026" width="40" height="26" style="fill: #fff"/>
      <g id="DCI_updated_logos_AcceptanceMark_color_2c" data-name="DCI updated logos AcceptanceMark color 2c">
        <path id="Fill-5" d="M5.95913,15.58237c0-.56389-.29393-.52682-.57511-.53276v-.163c.24381.01188.4938.01188.73825.01188.26262,0,.61919-.01188,1.08245-.01188a2.28144,2.28144,0,0,1,2.50251,2.1946c0,.62136-.36288,2.18232-2.57777,2.18232-.3188,0-.61325-.01239-.90719-.01239-.28131,0-.55707.00581-.83825.01239v-.16312c.375-.038.55694-.05024.57511-.47658V15.58237Zm.61313,2.94086c0,.483.34445.53922.65089.53922a1.74508,1.74508,0,0,0,1.79531-1.956,1.88213,1.88213,0,0,0-1.95794-2.019c-.25708,0-.37538.01834-.48826.02506v3.41072Z" style="fill: #1a1918"/>
        <path id="Fill-6" d="M9.92642,19.10042H10.045c.17512,0,.30038,0,.30038-.20742V17.19384c0-.27549-.09369-.31359-.32551-.43861v-.1001c.29406-.0886.6447-.2069.66944-.22576a.22037.22037,0,0,1,.11289-.0319c.03066,0,.04355.03771.04355.08834V18.893c0,.20742.13788.20742.31327.20742h.10592v.16312c-.21275,0-.43208-.01239-.65655-.01239-.22526,0-.45064.00581-.682.01239v-.16312Zm.66932-3.66825a.30752.30752,0,0,1,0-.615.3068.3068,0,0,1,.30669.30158.31288.31288,0,0,1-.30669.31346Z" style="fill: #1a1918"/>
        <path id="Fill-7" d="M11.85949,17.23155c0-.23157-.06907-.29421-.36262-.41355v-.11908a8.43857,8.43857,0,0,0,.8255-.30145c.01894,0,.03711.01253.03711.06264v.40774a1.83413,1.83413,0,0,1,1.0836-.47038c.53105,0,.71867.38889.71867.878V18.893c0,.20742.138.20742.313.20742h.11288v.16312c-.21971,0-.43839-.01239-.66338-.01239-.22538,0-.45076.00581-.676.01239v-.16312h.11289c.17525,0,.29986,0,.29986-.20742V17.26965c0-.35789-.21791-.53328-.575-.53328a1.66233,1.66233,0,0,0-.72653.30132V18.893c0,.20742.13827.20742.31352.20742h.11237v.16312c-.21881,0-.43788-.01239-.66351-.01239-.22474,0-.45025.00581-.67524.01239v-.16312h.11288c.175,0,.3,0,.3-.20742V17.23155" style="fill: #1a1918"/>
        <path id="Fill-8" d="M15.06315,17.533a1.55275,1.55275,0,0,0,0,.3637,1.04633,1.04633,0,0,0,.9193,1.08438,1.19856,1.19856,0,0,0,.84482-.41975l.08737.08783a1.46661,1.46661,0,0,1-1.15692.70867,1.25893,1.25893,0,0,1-1.19521-1.36723c0-1.22917.82563-1.59313,1.26311-1.59313a.9946.9946,0,0,1,1.05784.98468.7355.7355,0,0,1-.0058.113l-.05657.03784Zm1.10783-.20084c.15605,0,.17435-.08162.17435-.15718a.53083.53083,0,0,0-.54432-.57641c-.3813,0-.64418.28168-.71918.73359Z" style="fill: #1a1918"/>
        <path id="Fill-9" d="M17.02766,19.10042h.16906c.17448,0,.29974,0,.29974-.20742V17.13133c0-.194-.23131-.23222-.32525-.28233v-.09377c.45669-.19451.70707-.35776.76428-.35776.0366,0,.05541.01886.05541.08189v.5644h.01315c.15592-.24449.41919-.64629.80062-.64629a.34143.34143,0,0,1,.35631.33245.30412.30412,0,0,1-.29342.32043c-.19459,0-.19459-.15124-.41378-.15124a.52947.52947,0,0,0-.45656.52114V18.893c0,.20742.125.20742.30025.20742h.35v.16312c-.34406-.00658-.60591-.01239-.87524-.01239-.25656,0-.51944.00581-.74456.01239v-.16312" style="fill: #1a1918"/>
        <path id="Fill-10" d="M19.4361,18.39162a.82545.82545,0,0,0,.78889.7655.44245.44245,0,0,0,.50605-.44532c0-.74032-1.3635-.50177-1.3635-1.51125a.86073.86073,0,0,1,.96995-.80295,1.64065,1.64065,0,0,1,.71261.18237l.04394.63905h-.14381a.64263.64263,0,0,0-.68207-.62045.43978.43978,0,0,0-.48774.41368c0,.73411,1.45112.508,1.45112,1.49251,0,.41355-.33118.85307-1.076.85307a1.64171,1.64171,0,0,1-.76287-.21337l-.0692-.7212.11263-.03164" style="fill: #1a1918"/>
        <path id="Fill-11" d="M26.881,16.02124H26.725a1.19065,1.19065,0,0,0-1.33862-1.02807,1.78507,1.78507,0,0,0-1.76478,1.98743,2.04172,2.04172,0,0,0,1.86452,2.17652,1.2735,1.2735,0,0,0,1.25782-1.08542l.14394.03746-.14394.91584a3.50432,3.50432,0,0,1-1.38333.33283A2.22925,2.22925,0,0,1,22.97131,17a2.30255,2.30255,0,0,1,2.37121-2.2079,4.50282,4.50282,0,0,1,1.47624.333l.06224.8962" style="fill: #1a1918"/>
        <path id="Fill-12" d="M27.1069,19.10042h.11843c.17576,0,.30063,0,.30063-.20742V15.40117c0-.408-.09368-.4204-.33169-.4895v-.10048a3.96407,3.96407,0,0,0,.64483-.2698.66416.66416,0,0,1,.13685-.0691c.03827,0,.05064.0381.05064.08847V18.893c0,.20742.13776.20742.31275.20742h.10593v.16312c-.21211,0-.431-.01239-.65643-.01239-.22512,0-.45012.00581-.68194.01239v-.16312" style="fill: #1a1918"/>
        <path id="Fill-13" d="M31.12393,18.91831c0,.11327.06843.11921.17448.11921.07552,0,.16894-.00594.2509-.00594v.132a6.32709,6.32709,0,0,0-.90152.19425l-.03119-.01912v-.508a1.68759,1.68759,0,0,1-1.108.52708.67571.67571,0,0,1-.68787-.746V17.006c0-.16325-.02487-.32-.37473-.35092v-.11946c.22538-.0062.72485-.04366.80642-.04366.06946,0,.06946.04366.06946.18185v1.61767c0,.1883,0,.727.54419.727a1.3946,1.3946,0,0,0,.75655-.38178V16.94948c0-.12528-.30012-.19425-.525-.25663v-.11276c.56249-.03822.91325-.08808.97575-.08808.05051,0,.05051.04366.05051.11288v2.31342" style="fill: #1a1918"/>
        <path id="Fill-14" d="M32.36862,16.849a1.58236,1.58236,0,0,1,.93219-.45153,1.22043,1.22043,0,0,1,1.16389,1.31738,1.58264,1.58264,0,0,1-1.496,1.643,1.84063,1.84063,0,0,1-.86956-.22l-.18711.14426-.13118-.06871a7.3748,7.3748,0,0,0,.08749-1.11628v-2.696c0-.408-.0942-.4204-.33195-.4895v-.10048a3.92627,3.92627,0,0,0,.64432-.2698.67476.67476,0,0,1,.138-.0691c.03724,0,.04987.03823.04987.08847V16.849Zm0,1.70574a.67414.67414,0,0,0,.64444.63984c.66931,0,.95075-.65856.95075-1.2169a1.19518,1.19518,0,0,0-1.00036-1.24131.96184.96184,0,0,0-.59483.29512v1.52325Z" style="fill: #1a1918"/>
        <path id="Fill-15" d="M5.37706,22.90958h.04781c.12242,0,.2518-.01679.2518-.19437V20.9277c0-.17784-.12938-.19476-.2518-.19476H5.37706v-.10255c.13273,0,.337.01356.50424.01356.1701,0,.37409-.01356.53413-.01356v.10255H6.36737c-.12191,0-.25154.01692-.25154.19476v1.78751c0,.17758.12963.19437.25154.19437h.04806v.10255c-.16326,0-.368-.01317-.53761-.01317-.16713,0-.368.01317-.50076.01317v-.10255" style="fill: #1a1918"/>
        <path id="Fill-16" d="M6.41543,23.02673c-.16468,0-.36841-.01369-.53787-.01369-.16662,0-.36687.01369-.5005.01369H5.36224v-.13187h.06237c.12358-.003.23595-.01292.237-.17965V20.9277c-.001-.167-.1134-.17784-.237-.18H5.36224v-.13212h.01482c.13363,0,.33775.0133.50424.0133.16932,0,.37319-.0133.53413-.0133h.01521v.13212H6.368c-.1237.0022-.23672.013-.23736.18v1.78751c.00064.16673.11366.17668.23736.17965h.06263v.13187Zm-.01469-.02919.00013-.07259H6.368c-.12177,0-.26648-.02144-.26726-.20974V20.9277c.00078-.18869.14549-.20974.26726-.20974h.03273v-.07285c-.15708.00013-.35437.01382-.51944.01382-.16172,0-.35747-.01278-.48929-.01382V20.718h.0326c.12139,0,.26636.021.26636.20974v1.78751c0,.1883-.145.20974-.26636.20974H5.392v.07259c.13182-.00116.32409-.01369.48555-.01369.16585,0,.36262.01278.52318.01369Z" style="fill: #1a1918"/>
        <path id="Fill-17" d="M8.75416,22.33962l.00683-.00671V21.05376a.2813.2813,0,0,0-.29638-.32095h-.075v-.10242c.1603,0,.31687.01356.47666.01356.13956,0,.27976-.01356.41881-.01356v.10242H9.23443c-.14342,0-.30347.02725-.30347.43331v1.55244a2.27207,2.27207,0,0,0,.0201.34485H8.82169L7.06877,21.10452v1.40611c0,.29705.0576.39895.31971.39895h.058v.10255c-.14638,0-.29264-.0133-.439-.0133-.15283,0-.30966.0133-.463.0133v-.10255h.0478c.23479,0,.30631-.16041.30631-.43254V21.03942a.30569.30569,0,0,0-.30966-.30661H6.54443v-.10242c.12912,0,.2621.01356.39122.01356.10245,0,.20116-.01356.30322-.01356l1.51529,1.70923" style="fill: #1a1918"/>
        <path id="Fill-18" d="M8.95106,23.07775l-.1402-.00478L7.0832,21.143v1.36762c.00412.29666.0491.381.3054.38423h.07294v.13187H7.44646c-.14729,0-.2938-.01369-.439-.01369-.15245,0-.30888.01369-.46313.01369H6.52935v-.13187h.06288c.225-.00129.2893-.1462.29175-.41794v-1.437a.29167.29167,0,0,0-.295-.29228H6.52935v-.13212H6.5443c.13015,0,.26339.0133.3911.0133.10154,0,.19986-.0133.31468-.008l1.49609,1.68793v-1.255c-.00167-.271-.18234-.3039-.28143-.3061H8.37466v-.13212h.01508c.16082,0,.31752.0133.47653.0133.13853,0,.27809-.0133.41881-.0133H9.3v.13212H9.23443c-.14059.00362-.28478.016-.28891.41846v1.55244a2.26758,2.26758,0,0,0,.02011.34214l.00309.01705ZM8.82181,23.048h.11263a2.30219,2.30219,0,0,1-.01791-.32948V21.16612c0-.40955.17126-.44816.3179-.44842h.03583v-.07259c-.13415.001-.26855.01344-.404.01344-.15592,0-.30746-.0124-.46133-.01344l-.00038.07259h.06018a.29819.29819,0,0,1,.31094.33606l-.00451,1.28987-.0067.00659-.0116.011-1.514-1.71608c-.10116,0-.19961.01344-.30347.01344-.12474,0-.25258-.0124-.376-.01344l-.00064.07259H6.589a.32117.32117,0,0,1,.324.32224v1.437c0,.273-.0759.44739-.32074.44829l-.03286-.0009v.07323c.14742-.00116.29935-.01369.44806-.01369.142,0,.28375.01253.42422.01369v-.07233H7.3886c-.2679-.0009-.33426-.11792-.33452-.41458V21.06629L8.82181,23.048Zm-.06752-.70842.0107-.00981-.0107.00981Zm-.00812-.00671v-.00129l-.0027-.0022.0027.00349Z" style="fill: #1a1918"/>
        <path id="Fill-19" d="M9.79524,20.801c-.25566,0-.26558.06174-.31661.31049H9.37644c.0134-.09557.03028-.191.04085-.29a2.039,2.039,0,0,0,.02049-.28982h.08157c.02745.10242.11249.09867.20489.09867h1.75588c.0924,0,.17732-.00336.18427-.10578l.08132.014c-.01315.09183-.02706.184-.037.27639-.0067.09209-.0067.18392-.0067.276l-.10231.038c-.007-.12606-.02384-.32793-.25193-.32793h-.55836v1.81527c0,.26322.11932.29331.28246.29331h.06495v.10255c-.13286,0-.37125-.01317-.55475-.01317-.20451,0-.443.01317-.57589.01317v-.10255h.06495c.18762,0,.28246-.01679.28246-.2862V20.801H9.79524" style="fill: #1a1918"/>
        <path id="Fill-20" d="M11.13709,23.02673c-.13415,0-.37229-.01356-.555-.01356-.20425,0-.44239.01356-.57589.01356H9.99163v-.13187h.07951c.18762-.00439.263-.00685.26726-.27148V20.8156H9.79524v-.02984h.57267v1.83762c0,.27394-.11018.30157-.29677.30183h-.05039v.07207c.13428-.0009.36365-.01343.56133-.01343.17718,0,.40463.01253.53955.01343v-.07207h-.04975c-.16468-.00026-.29715-.04081-.29715-.30894V20.78576h.57305c.22834.00091.25863.19541.26571.32237l.07371-.02725c0-.08911.00039-.17836.00645-.268.01-.08822.02242-.17488.03518-.26232l-.05168-.00865c-.01585.09932-.11185.10461-.19716.10332H9.70646c-.08016.00013-.1674-.00374-.19807-.09893H9.45221a2.04291,2.04291,0,0,1-.01984.27678c-.01018.09377-.02578.18379-.03815.27419H9.4669c.04472-.238.07384-.31487.32834-.31152v.02984c-.25218.005-.24664.04727-.30218.29938l-.00245.01162H9.35943l.0018-.01769c.01392-.09519.03119-.191.04111-.29008a1.92522,1.92522,0,0,0,.02062-.28711V20.5166h.10811l.00258.01072c.02294.086.086.08667.17281.08822H11.48c.09484-.00155.16392-.00284.16971-.09209l.00116-.01614.01547.00309.09626.01525-.00245.01511c-.01353.09157-.0268.1834-.03711.27484-.00632.09144-.00632.18314-.00632.27536v.01033l-.00992.004-.12049.04417-.00077-.01976c-.00941-.12838-.02255-.3141-.23775-.3141h-.54341v1.80067c.00335.25728.10515.27536.26751.27859h.07964v.13187h-.01443" style="fill: #1a1918"/>
        <path id="Fill-21" d="M11.85447,22.90958h.04793c.12217,0,.25193-.01679.25193-.19437V20.9277c0-.17784-.12976-.19476-.25193-.19476h-.04793v-.10255c.207,0,.56184.01356.84727.01356.28646,0,.64006-.01356.8715-.01356-.00593.14672-.00271.37248.00734.5223l-.10257.02712c-.01637-.22188-.05722-.39883-.41481-.39883h-.47267v.89337h.40437c.20425,0,.24871-.1156.26894-.3h.10206q-.01025.19993-.01044.39922,0,.19489.01044.38888l-.10206.02041c-.02023-.20445-.03041-.33748-.26559-.33748h-.40772v.79456c0,.22215.19664.22215.41468.22215.40862,0,.5889-.02751.69109-.416l.095.0235c-.0442.18121-.08479.36151-.11533.54258-.21816,0-.60965-.01317-.91544-.01317-.30708,0-.71184.01317-.906.01317v-.10255" style="fill: #1a1918"/>
        <path id="Fill-22" d="M13.67568,23.02673c-.21842,0-.61016-.01421-.91557-.01421-.30669,0-.71132.01421-.90577.01421H11.84v-.13187h.06225c.12319-.00207.2353-.01292.23684-.17965V20.9277c-.00154-.16673-.11365-.17784-.23684-.18H11.84v-.13212h.01431c.208,0,.5621.0133.8474.0133.2862,0,.63967-.0133.8715-.0133h.01507l-.00051.01575c-.00219.051-.00361.11172-.00361.17591,0,.11792.00361.24721.01031.34433l.00064.01214-.01147.00349-.11971.03138-.00051-.01756c-.02011-.22137-.04975-.38243-.40025-.38579h-.45888l-.00026.86418h.39071c.19626-.00207.23131-.10255.25451-.2866l.00077-.01369H13.381l-.00025.01563c-.00658.13329-.01057.26593-.01057.39883,0,.129.004.25857.01057.38824l.00025.0124-.01237.00284-.11855.02363-.00077-.016c-.02359-.20833-.02513-.3225-.251-.325h-.39393v.78022c.00051.20742.17886.20626.40076.20742.40991-.00245.57408-.0226.67666-.40528l.00348-.01382.0143.00232.10915.02841-.00309.01408c-.0442.18056-.0848.361-.11559.54155l-.00258.01214Zm-.01263-.02945c.02977-.17255.06856-.34484.11031-.51662l-.067-.01692c-.10193.38165-.29948.41575-.70127.41317-.21456,0-.429,0-.43014-.237V21.8305h.42331c.23775-.00246.26172.14116.27873.33528l.07345-.01511c-.00657-.1258-.00992-.25211-.00992-.37713,0-.12812.00335-.256.00992-.38475H13.277c-.0192.17823-.07474.30261-.28221.30041h-.41983v-.92359h.48826c.354-.00284.41262.18082.42808.39548l.07332-.02c-.00593-.09622-.00992-.22-.00992-.33387,0-.05838.00155-.11378.00348-.16209-.23131.001-.57653.01344-.85642.01344s-.62408-.0124-.83245-.01344v.07259h.033c.12113.00026.266.02131.26674.21v1.78751c-.00077.1883-.14561.2091-.26674.21h-.033v.07207c.19819-.00065.59173-.01343.89082-.01343.30051,0,.68349.01278.90294.01343Z" style="fill: #1a1918"/>
        <path id="Fill-23" d="M14.25105,20.99177c0-.24876-.13633-.259-.242-.259h-.06147v-.10242c.109,0,.3201.01356.52795.01356.20386,0,.36752-.01356.54793-.01356.42834,0,.81041.11585.81041.6007a.6443.6443,0,0,1-.47318.6007l.58181.873a.378.378,0,0,0,.33041.20483v.10255c-.11263,0-.22152-.01317-.3335-.01317-.10554,0-.21494.01317-.32.01317a9.44735,9.44735,0,0,1-.70835-1.10582h-.22435v.73063c0,.2627.12229.27264.27834.27264h.06173v.10255c-.19446,0-.3911-.01317-.58556-.01317-.16339,0-.32344.01317-.49367.01317v-.10255h.06147c.12641,0,.242-.05773.242-.18378v-1.734Zm.43569.79146h.16636c.34084,0,.52434-.12929.52434-.53212a.46528.46528,0,0,0-.49741-.49789,1.65228,1.65228,0,0,0-.19329.01382v1.01619Z" style="fill: #1a1918"/>
        <path id="Fill-24" d="M16.27291,23.02673c-.11418,0-.22242-.01369-.3344-.01369-.10374,0-.21262.01369-.33118.008a9.54393,9.54393,0,0,1-.70488-1.09937H14.7013v.71461c.00374.25689.10644.255.26378.25857h.07642v.13187h-.01508c-.19458,0-.39239-.01369-.58529-.01369-.16263,0-.32255.01369-.49355.01369h-.01482v-.13187h.07629c.12242-.0009.2259-.05437.22641-.16906v-1.734c-.00258-.24191-.12074-.24075-.22641-.24411h-.07629v-.13212h.01482c.11018,0,.32035.0133.52795.0133.20322,0,.36649-.0133.54793-.0133.42924.0009.8242.11934.82523.615a.65327.65327,0,0,1-.46558.60768l.57164.85836a.36538.36538,0,0,0,.32009.19825l.01237.00194v.12993Zm-1.5863-1.13514h.2326l.00425.00762a10.5507,10.5507,0,0,0,.696,1.09833c.10361,0,.213-.01369.31907-.01369.10863,0,.21378.01188.31945.01343v-.07491a.389.389,0,0,1-.32744-.20923l-.59264-.8882.01675-.00684a.62845.62845,0,0,0,.46429-.58753c-.00012-.47335-.36751-.58313-.79546-.58546-.17925,0-.34291.01382-.54793.01382-.2,0-.402-.01278-.51339-.01382v.07259h.04691c.10567.00026.25605.01782.25605.27407v1.734c0,.1369-.128.19915-.25605.19941h-.04691v.07207c.16366-.00065.31907-.01343.479-.01343.19007,0,.38233.01278.5706.01343v-.07207h-.04665c-.155-.00026-.29355-.0195-.29355-.28892v-.7447Zm0-.09364h-.01508V20.75322l.013-.001A1.62576,1.62576,0,0,1,14.88,20.739a.48132.48132,0,0,1,.51223.513c-.0009.40736-.19574.54581-.53916.54594Zm.16649-.02906c.337-.00336.50682-.1205.51017-.51688a.45161.45161,0,0,0-.48324-.48433,1.33409,1.33409,0,0,0-.17873.01279v.98842Z" style="fill: #1a1918"/>
        <path id="Fill-25" d="M18.58419,22.33962l.00592-.00671V21.05376a.28076.28076,0,0,0-.29561-.32095h-.07461v-.10242c.16005,0,.3161.01356.47654.01356.13994,0,.27847-.01356.41906-.01356v.10242H19.0642c-.143,0-.303.02725-.303.43331v1.55244a2.27074,2.27074,0,0,0,.02011.34485h-.12887l-1.753-1.95889v1.40611c0,.29705.05747.39895.31958.39895h.058v.10255c-.14625,0-.2929-.0133-.43916-.0133-.15373,0-.31.0133-.46313.0133v-.10255H16.422c.23505,0,.307-.16041.307-.43254V21.03942a.30559.30559,0,0,0-.30991-.30661h-.04433v-.10242c.12886,0,.26262.01356.39174.01356.10116,0,.20038-.01356.3027-.01356l1.515,1.70923" style="fill: #1a1918"/>
        <path id="Fill-26" d="M18.78122,23.07775,18.6414,23.073l-1.72792-1.92971V22.5105c.004.29718.04884.38113.30554.38436h.07216v.13187h-.01482c-.14716,0-.29329-.01421-.43916-.01421-.15193,0-.30927.01421-.46262.01421h-.01521v-.13187H16.422c.22487-.0009.2893-.1462.29149-.41872V21.03942a.29056.29056,0,0,0-.29445-.29176h-.05967v-.13212h.01521c.13,0,.26327.0133.39174.0133.1,0,.19858-.0133.31275-.00891l1.49661,1.68883v-1.255c-.0009-.271-.18221-.30455-.28118-.3061h-.08981v-.13212h.01482c.16082,0,.31777.0133.47692.0133.13865,0,.27808-.0133.41841-.0133h.01508v.13212H19.0642c-.14046.00336-.28517.016-.28852.41846v1.55244a2.15008,2.15008,0,0,0,.02036.34239l.00167.0168Zm-.12886-.02971H18.764a2.33515,2.33515,0,0,1-.01791-.32948V21.16612c.00026-.40955.17242-.44752.31816-.44842H19.1v-.07259c-.134.001-.26855.01344-.40359.01344-.15644,0-.30811-.0124-.46211-.01344v.07259h.06018a.29853.29853,0,0,1,.31108.33606l-.0049,1.28987-.00618.00659-.0107.01123-1.51465-1.71634c-.10129,0-.2.01344-.30283.01344-.12628,0-.25347-.0124-.37718-.01344v.07259h.0299a.32083.32083,0,0,1,.324.32172v1.43672c0,.27381-.07693.44817-.321.44907l-.03286-.00026v.07246c.147-.001.29871-.01356.44806-.01356.14278,0,.28427.01253.425.01356v-.0722H17.219c-.26791-.00026-.33466-.11753-.33543-.41471V21.0668L18.65236,23.048Zm-.06856-.70842.01108-.00981-.01108.00981Zm-.00812-.00671V22.332l-.00245-.00258.00245.00349Z" style="fill: #1a1918"/>
        <path id="Fill-27" d="M19.66277,22.52432a1.37916,1.37916,0,0,0-.07539.2658c0,.10267.14343.11959.25541.11959h.038v.10242c-.13672-.00736-.27564-.01317-.41262-.01317-.12254,0-.24445.00581-.36738.01317v-.10242h.02074a.30853.30853,0,0,0,.29574-.222l.54471-1.56562a2.87284,2.87284,0,0,0,.12654-.42363,1.729,1.729,0,0,0,.3094-.14659.07992.07992,0,0,1,.02719-.007.0232.0232,0,0,1,.0241.01072c.01.027.02.05773.03054.085l.62665,1.78479c.04085.11908.08132.24527.12487.3482a.21718.21718,0,0,0,.22577.13613h.02036v.10242c-.15335-.00736-.307-.01317-.46958-.01317-.16687,0-.33762.00581-.51119.01317v-.10242h.0375c.07783,0,.21146-.01356.21146-.09893a1.099,1.099,0,0,0-.06881-.24591l-.1326-.3956h-.77266l-.10876.355Zm.497-1.51163H20.1527l-.31636.96569h.63607l-.31262-.96569Z" style="fill: #1a1918"/>
        <path id="Fill-28" d="M21.47638,23.02673c-.153-.00659-.30644-.01421-.46855-.01421-.16687,0-.33671.00762-.51042.01421l-.01572.00077v-.13329h.05245c.07886,0,.19587-.01769.19612-.08343a1.09073,1.09073,0,0,0-.06726-.24087l-.12964-.38605h-.75088l-.10593.34485a1.41246,1.41246,0,0,0-.075.26167c.00116.0833.12822.10383.24123.10383h.05232v.13329l-.01547-.00077c-.13608-.00659-.275-.01421-.4112-.01421-.12152,0-.24458.00762-.36648.01421l-.01585.00077v-.13329h.03531a.29189.29189,0,0,0,.28143-.21129l.54522-1.56613a4.05157,4.05157,0,0,0,.13517-.43241,1.75106,1.75106,0,0,0,.30915-.14634.08914.08914,0,0,1,.0326-.00775.04158.04158,0,0,1,.03776.01951c.00966.028.02049.05863.03079.08614l.62679,1.78454c.04008.11946.0808.24552.12538.34665a.1993.1993,0,0,0,.21134.12708h.03441v.13329l-.01508-.00077Zm-.96492-.03035c.16842-.00595.33375-.01253.49637-.01253.15786,0,.30631.00658.45424.01253V22.925h-.005a.23111.23111,0,0,1-.23878-.14581c-.04433-.10307-.0857-.22977-.1259-.34924l-.62679-1.78466c-.01031-.02725-.02-.05773-.02887-.082l-.00528-.00336H20.425a.07811.07811,0,0,0-.01972.00426,1.25876,1.25876,0,0,1-.30321.13652,2.83234,2.83234,0,0,1-.12629.42621l-.5447,1.56574a.32442.32442,0,0,1-.30965.23235h-.00568v.07143c.11675-.00595.23453-.01253.3527-.01253.1317,0,.266.00658.39625.01253V22.925h-.0219c-.11121-.00155-.2661-.01369-.27-.13457a1.34883,1.34883,0,0,1,.07539-.27033l.01443.00427-.01443-.00465.11211-.36461h.79379l.13634.40516a1.0386,1.0386,0,0,1,.06919.25056c-.005.10449-.14832.11224-.2255.11417h-.02268v.07143ZM19.8156,21.9931l.32589-.99552h.0183v.01511l-.00361.001.00361-.001v-.01511H20.17l.32357.99552Zm.04072-.02983h.596l-.29626-.91429-.29973.91429Zm.28865-.94619.00786-.00245-.00786.00245Z" style="fill: #1a1918"/>
        <path id="Fill-29" d="M21.627,20.801c-.25528,0-.26559.06174-.31687.31049h-.10232c.0134-.09557.0308-.191.04136-.29a2.09638,2.09638,0,0,0,.01985-.28982h.08234c.02668.10242.112.09867.20386.09867h1.75691c.0915,0,.17655-.00336.18325-.10578l.08144.014c-.01263.09183-.02616.184-.03686.27639-.00747.09209-.00747.18392-.00747.276l-.10167.038c-.00606-.12606-.0232-.32793-.2518-.32793h-.55823v1.81527c0,.26322.11932.29331.28246.29331h.06508v.10255c-.133,0-.37087-.01317-.55514-.01317-.20386,0-.44277.01317-.5755.01317v-.10255h.06482c.18762,0,.28259-.01679.28259-.2862V20.801H21.627" style="fill: #1a1918"/>
        <path id="Fill-30" d="M22.96835,23.02673c-.13376,0-.37241-.01356-.5554-.01356-.20334,0-.44174.01356-.57511.01356h-.01508v-.13187h.07977c.18775-.00439.263-.00685.26752-.27148l-.00026-1.80778H21.627v-.02984h.57279v1.83762c0,.27394-.1103.30093-.29728.30157H21.8524v.07259c.13453-.00116.36326-.01369.56055-.01369.178,0,.40579.01253.54019.01369V22.925h-.05c-.164-.00064-.29665-.04016-.2969-.30868V20.78576H23.179c.22873.00091.2585.19541.26507.32237l.074-.02725c0-.08911.00051-.17836.00747-.26761.00915-.08795.022-.17526.03441-.26231l-.05142-.009c-.01559.09932-.11172.10487-.19639.10332h-1.7743c-.08028.00091-.16714-.00374-.19807-.09919h-.05566a2.00522,2.00522,0,0,1-.02088.277c-.00928.09415-.02564.18443-.03866.27419h.0732c.04471-.238.07422-.31526.32924-.31152v.02984c-.25244.00439-.2469.04727-.30244.29938l-.00245.01162h-.13144l.00206-.01692c.01431-.096.03106-.19179.041-.29008a1.97864,1.97864,0,0,0,.02023-.28788V20.5166h.10812l.00283.01072c.02384.086.08583.08667.17294.08822h1.7743c.0942-.00155.16289-.00284.16894-.09183l.00052-.0164.01585.00309.09665.01525-.00232.01511c-.01405.09157-.02694.1834-.03724.27484-.007.09144-.007.18327-.007.27536v.01033l-.00993.004-.12048.04417-.00052-.01976c-.00889-.12838-.02242-.3141-.23762-.3141H22.6355v1.80067c.00348.25728.10541.27536.26765.27859h.07938v.13187h-.01418" style="fill: #1a1918"/>
        <path id="Fill-31" d="M23.70287,22.90958h.04768c.12267,0,.25154-.01679.25154-.19437V20.9277c0-.17784-.12887-.19476-.25154-.19476h-.04768v-.10255c.13285,0,.33671.01356.50333.01356.17062,0,.375-.01356.5353-.01356v.10255h-.04781c-.12306,0-.25244.01692-.25244.19476v1.78751c0,.17758.12938.19437.25244.19437h.04781v.10255c-.16353,0-.368-.01317-.538-.01317-.16714,0-.36778.01317-.50063.01317v-.10255" style="fill: #1a1918"/>
        <path id="Fill-32" d="M24.7415,23.02673c-.16456,0-.36816-.01421-.538-.01421-.16662,0-.36765.01421-.50063.01421h-.01456v-.13187h.06236c.12268-.00207.23582-.01292.2366-.17965V20.9277c-.00078-.16673-.11392-.17784-.2366-.18h-.06236v-.13212h.01456c.133,0,.33775.0133.50333.0133.16972,0,.374-.0133.5353-.0133h.01417v.13212h-.06185c-.12461.0022-.23659.01331-.23775.18v1.78751c.00116.16673.11314.17758.23775.17965h.06185v.13187Zm-.01546-.02945V22.925h-.03222c-.12216,0-.26662-.02144-.26662-.20974V20.9277c0-.18869.14446-.20974.26662-.21H24.726v-.07259c-.157.001-.35412.01344-.51984.01344-.16159,0-.35643-.0124-.48851-.01344v.07259h.033c.12088.00026.266.02131.26636.21v1.78751c-.00038.1883-.14548.20974-.26636.20974h-.033v.07233c.13118-.00155.3237-.01343.48581-.01343.16507,0,.362.01253.52254.01343Z" style="fill: #1a1918"/>
        <path id="Fill-33" d="M26.09894,20.57925a1.1954,1.1954,0,0,1,1.30422,1.17763,1.2501,1.2501,0,0,1-1.2867,1.30653,1.20409,1.20409,0,0,1-1.27329-1.22516,1.23971,1.23971,0,0,1,1.25577-1.259m.05141,2.334c.66068,0,.77588-.58391.77588-1.08141,0-.49867-.26829-1.10234-.83374-1.10234-.5956,0-.77279.53238-.77279.9892,0,.61064.27938,1.19455.83065,1.19455" style="fill: #1a1918"/>
        <path id="Fill-34" d="M24.828,21.83825a1.2568,1.2568,0,0,1,1.27084-1.27386v.02984a1.22555,1.22555,0,0,0-1.242,1.244A1.19024,1.19024,0,0,0,26.11659,23.048a1.23535,1.23535,0,0,0,1.27213-1.29168,1.18052,1.18052,0,0,0-1.28991-1.16213v-.02984a1.21189,1.21189,0,0,1,1.31891,1.192,1.2665,1.2665,0,0,1-1.30113,1.32139,1.22158,1.22158,0,0,1-1.28862-1.2395m.47679-.1196c.001-.45915.17976-1.00444.7876-1.00444.57808.00129.84766.6162.84882,1.11758-.00116.4975-.1179,1.09536-.7907,1.09536v-.02893c.64728-.00052.75978-.56893.76081-1.06643,0-.49428-.26559-1.08658-.81893-1.08749-.584.00065-.75655.51985-.75809.97435.00025.6078.277,1.17867.81621,1.17957v.02893c-.56506-.00052-.84469-.59424-.84572-1.2085" style="fill: #1a1918"/>
        <path id="Fill-35" d="M29.69717,22.33962l.00708-.00671V21.05376a.28155.28155,0,0,0-.29677-.32095h-.07409v-.10242c.15953,0,.31648.01356.476.01356.13994,0,.2795-.01356.41919-.01356v.10242h-.05116c-.14265,0-.30334.02725-.30334.43331v1.55244a2.204,2.204,0,0,0,.02087.34485h-.1295L28.0119,21.10452v1.40611c0,.29705.05812.39895.31971.39895H28.39v.10255c-.14652,0-.29265-.0133-.439-.0133-.15334,0-.31.0133-.46326.0133v-.10255h.04781c.2353,0,.3063-.16041.3063-.43254V21.03942a.30516.30516,0,0,0-.31-.30661h-.04407v-.10242c.12938,0,.262.01356.39161.01356.10193,0,.20013-.01356.3027-.01356l1.51517,1.70923" style="fill: #1a1918"/>
        <path id="Fill-36" d="M29.8951,23.07775l-.14085-.00478-1.72766-1.92971v1.36737c.004.29705.049.38062.30463.38358h.07333v.13252h-.01444c-.14742,0-.29355-.01369-.43916-.01369-.15257,0-.30927.01369-.46365.01369h-.01391v-.13252h.062c.22435-.00064.289-.14555.29174-.41729v-1.4375a.29065.29065,0,0,0-.29522-.29176h-.0585v-.13212h.01391c.13054,0,.26327.0133.39187.0133.101,0,.19884-.0133.3143-.008l1.49584,1.68793v-1.255c-.00116-.271-.18247-.3039-.28183-.3061H29.3178v-.13212h.01559c.15992,0,.317.0133.47563.0133.1393,0,.27822-.0133.41971-.0133h.0143v.13212h-.06572c-.14033.00362-.28517.01653-.288.41846v1.55244a2.26169,2.26169,0,0,0,.0192.34239l.003.0168Zm-.12963-.02971h.11159a2.422,2.422,0,0,1-.01778-.32948V21.16612c0-.41019.1719-.44752.318-.44842h.03686v-.07259c-.13518.001-.26907.01344-.40515.01344-.155,0-.30721-.0124-.46133-.01344v.07259h.05979a.29853.29853,0,0,1,.31069.33606l-.00361,1.28987-.00657.00659-.01082.01123-1.515-1.71634c-.10077,0-.19987.01344-.303.01344-.12551,0-.25334-.0124-.37718-.01344v.07259h.0299a.32133.32133,0,0,1,.32448.32172v1.4375c0,.273-.076.44739-.321.44829L27.502,22.925v.07246c.14781-.001.29935-.01356.449-.01356.142,0,.28311.01253.42422.01356v-.0722h-.044c-.26713-.00026-.33414-.11753-.33414-.41458V21.06629L29.76547,23.048Zm-.0683-.70842.01082-.00981-.01082.00981Zm-.00786-.00671V22.332l-.00271-.00258.00271.00349Z" style="fill: #1a1918"/>
        <path id="Fill-37" d="M30.77549,22.52432a1.43,1.43,0,0,0-.07448.2658c0,.10267.14342.11959.255.11959h.038v.10242c-.13634-.00736-.276-.01317-.41236-.01317-.12255,0-.245.00581-.367.01317v-.10242H30.234a.30728.30728,0,0,0,.296-.222l.54586-1.56562a2.7876,2.7876,0,0,0,.12512-.42363,1.74683,1.74683,0,0,0,.31082-.14659.07184.07184,0,0,1,.02693-.007.022.022,0,0,1,.02333.01072c.01031.027.02049.05773.03079.085l.62641,1.78479c.04059.11908.08169.24527.12615.3482a.21542.21542,0,0,0,.22448.13613h.021v.10242c-.15347-.00736-.30682-.01317-.47034-.01317-.16649,0-.337.00581-.51081.01317v-.10242h.03775c.07784,0,.21134-.01356.21134-.09893a1.09392,1.09392,0,0,0-.06856-.24591l-.13272-.3956h-.77267l-.1094.355Zm.49779-1.51163h-.00682l-.31739.96569h.63761l-.3134-.96569Z" style="fill: #1a1918"/>
        <path id="Fill-38" d="M32.58936,23.02673c-.15348-.00607-.30631-.01369-.46867-.01369-.16611,0-.33672.00762-.51017.01369l-.01508.00077v-.13264h.0518c.07913,0,.19639-.01834.19652-.08408a1.06388,1.06388,0,0,0-.06817-.24087l-.12912-.38605h-.75153l-.10515.34485a1.43681,1.43681,0,0,0-.07409.26141c0,.08356.1277.10474.2402.10474H31.008v.13264l-.01534-.00077c-.13595-.00607-.27538-.01369-.41094-.01369-.122,0-.24419.00762-.367.01369l-.01482.00077v-.13264H30.234a.29517.29517,0,0,0,.283-.21194l.54445-1.56613a4.26574,4.26574,0,0,0,.135-.4319,1.85385,1.85385,0,0,0,.30992-.14685.08238.08238,0,0,1,.03221-.00749.03842.03842,0,0,1,.03712.02c.01031.02687.02036.05786.03144.08537l.626,1.78454c.041.11946.08157.24552.12577.34729a.2007.2007,0,0,0,.21056.12709h.03518v.13264l-.01533-.00077Zm-.965-.0301c.16842-.0062.334-.01278.49638-.01278.15824,0,.3063.00658.45488.01253l-.00039-.07143h-.00567a.23266.23266,0,0,1-.23813-.14581c-.04485-.10307-.08531-.22977-.12616-.34885l-.6264-1.785c-.01-.02725-.02088-.05773-.02887-.08137l-.00464-.004h-.0067a.063.063,0,0,0-.0192.00465,1.30555,1.30555,0,0,1-.30334.13613,2.93684,2.93684,0,0,1-.1268.42621l-.54522,1.56574a.32386.32386,0,0,1-.31.23235h-.005v.07143c.11727-.00595.23428-.01253.3527-.01253.13183,0,.26649.00658.39728.01253V22.925H30.9559c-.11069-.00155-.26585-.0133-.27023-.13483a1.41627,1.41627,0,0,1,.07616-.27007l.01366.00427-.01366-.00465.112-.36461h.79354l.13672.40516a1.067,1.067,0,0,1,.06856.25056c-.0049.10449-.14807.11224-.22539.11417h-.02293v.07168Zm-.6956-1.00366.32692-.99539h.01765v.01511l-.00386.001.00386-.001v-.01511h.01032l.32189.99539Zm.0411-.0297h.59561l-.29613-.91377-.29948.91377Zm.2893-.94619.0067-.00245-.0067.00245Z" style="fill: #1a1918"/>
        <path id="Fill-39" d="M33.44836,22.67749c0,.13717.09458.17759.20386.1918a2.4694,2.4694,0,0,0,.44973-.00723.48444.48444,0,0,0,.32641-.18457.78379.78379,0,0,0,.10566-.24539h.09846c-.0375.19451-.08505.38579-.1259.58-.299,0-.59947-.01317-.89856-.01317-.29987,0-.59921.01317-.89869.01317v-.10255h.04717c.1228,0,.256-.01679.256-.22834V20.9277c0-.17784-.13325-.19489-.256-.19489h-.04717v-.10242c.18015,0,.35747.01356.53762.01356.174,0,.3438-.01356.51789-.01356v.10242h-.08556c-.12938,0-.23092.00362-.23092.18443v1.76025" style="fill: #1a1918"/>
        <path id="Fill-40" d="M34.50671,23.02673c-.30025,0-.60012-.01369-.89869-.01369-.29948,0-.59908.01369-.89933.01369h-.01431v-.13187h.06212c.12306-.003.23994-.01162.24135-.21362V20.92706c-.00141-.16609-.11778-.1772-.24135-.1794h-.06212v-.13212h.01431c.18131,0,.35849.0133.538.0133.17332,0,.3429-.0133.51815-.0133h.01366v.13212h-.09922c-.13209.00336-.214-.00258-.217.16958v1.76025c.0009.12761.08427.16171.19071.177.05992.00413.12332.00633.18879.00633a2.45548,2.45548,0,0,0,.25772-.01318.47614.47614,0,0,0,.31687-.17823.76867.76867,0,0,0,.10283-.24075l.00284-.01123h.12835l-.003.01795c-.03853.195-.08543.3854-.12667.5799l-.0027.0115Zm-.0125-.02945c.03943-.18534.08389-.36654.12074-.55059h-.07023a.77239.77239,0,0,1-.10464.2401.50551.50551,0,0,1-.33736.19012,2.60767,2.60767,0,0,1-.26094.01369c-.066,0-.12964-.003-.19162-.00736-.1107-.01214-.21778-.0598-.21765-.20575V20.91724c0-.18973.11971-.19954.24677-.19954h.0701v-.07259c-.16765.001-.33324.01382-.50269.01382-.1759,0-.34845-.01278-.52267-.01382v.07259h.03248c.12138,0,.27.02131.27.20936v1.75418c0,.22085-.14793.24371-.27.24371H32.724v.07233c.29407-.00065.58839-.01343.884-.01343.296,0,.59148.01278.88619.01343Z" style="fill: #1a1918"/>
        <path id="Fill-41" d="M34.591,20.53365a.35918.35918,0,1,1-.35837.36009.35286.35286,0,0,1,.35837-.36009Zm0,.65159a.29227.29227,0,1,0-.284-.2915.28909.28909,0,0,0,.284.2915Zm-.17822-.102v-.01744c.04382-.00633.05206-.00517.05206-.032v-.26632c0-.03745-.00373-.05037-.05064-.0483v-.01834h.1835c.063,0,.12113.03022.12113.09557a.1126.1126,0,0,1-.08479.10837l.059.08239a.38134.38134,0,0,0,.07886.08473v.01137h-.06971c-.0335,0-.06314-.07052-.12886-.16519h-.03969v.11908c0,.0235.00825.02234.05232.02867v.01744Zm.12088-.18947h.04226c.04627,0,.06766-.035.06766-.0917,0-.05709-.033-.07737-.07-.07737h-.03994v.16907Z" style="fill: #1a1918"/>
        <path id="Fill-42" d="M13.32788,8.58451a5.76565,5.76565,0,1,1,5.76557,5.7789,5.7722,5.7722,0,0,1-5.76557-5.7789" style="fill: #fff"/>
        <path id="Fill-43" d="M22.58034,8.47072a3.47622,3.47622,0,0,0-2.22571-3.24178v6.48331a3.47626,3.47626,0,0,0,2.22571-3.24153ZM17.87377,11.711V5.22958a3.47291,3.47291,0,0,0,0,6.48138Zm1.24107-8.72014A5.47921,5.47921,0,1,0,24.582,8.47072a5.47395,5.47395,0,0,0-5.46713-5.4799Zm-.0134,11.47553a5.99021,5.99021,0,0,1-6.02368-5.93311,5.89855,5.89855,0,0,1,6.02368-6.03748h1.54841a6.10616,6.10616,0,0,1,6.24507,6.03748,6.22364,6.22364,0,0,1-6.24507,5.93311Z" style="fill: #154a78"/>
      </g>
    </g>
  </g>
</svg>
