<svg id="Layer_1" data-name="Layer 1" xmlns="http://www.w3.org/2000/svg" viewBox="0 0 40 26">
  <title>directdebit_NL</title>
  <rect id="Rectangle" y="-0.00026" width="40" height="26" style="fill: #fff"/>
  <g>
    <path d="M0-.00026v26H40v-26ZM10.7216,9.84287l.01843,2.03-.90911.05529a9.62773,9.62773,0,0,0-5.40066,1.74492c-.91854.83582-.90911,1.72693.02743,2.72819a8.29431,8.29431,0,0,0,5.80485,2.12169,5.28477,5.28477,0,0,0,2.70976-.6798,5.17937,5.17937,0,0,0,1.85551-1.94723,6.81945,6.81945,0,0,0-.06429-5.27207A4.80849,4.80849,0,0,0,11.5947,8.1991c-.2846-.07329-.54178-.17445-.56021-.24817-.05529-.16545.96441-.0733,1.92881.17445,2.6729.6888,4.73029,2.37886,5.23564,4.3171a4.2912,4.2912,0,0,1-1.35017,4.38139A7.21664,7.21664,0,0,1,13.9097,18.661a9.54783,9.54783,0,0,1-3.99563.56021,8.647,8.647,0,0,1-3.46285-.6708,6.15415,6.15415,0,0,1-4.06935-4.34453C1.86752,11.17461,4.981,8.2814,9.197,7.8592c.42263-.03686.92754-.06429,1.12985-.05529l.36734.009Zm23.615.35833a.47129.47129,0,0,1,.03686.3399c-.04587.22031-.0643.22974-.33047.156-1.0287-.294-2.09426.28461-1.94724,1.05613.11016.6155.65194.91854,1.58891.89111l.66137-.009v.26617c0,.33047-.11959.37676-.90954.37676-1.56148,0-2.46159-.74409-2.27771-1.89194a1.47,1.47,0,0,1,.91854-1.093,2.02108,2.02108,0,0,1,1.32273-.21131A3.01079,3.01079,0,0,1,34.33662,10.2012Zm3.40756.13759v.27561H36.64176v2.67289l-.43163-.02743-.441-.02743-.02744-1.3133-.02743-1.30431H35.2183c-.49592,0-.50535,0-.50535-.2756v-.27561h3.03122v.27518Zm-15.88994.05529a1.38355,1.38355,0,0,1,.73466,1.26744,1.26721,1.26721,0,0,1-.83582,1.28587c-.45005.22032-.57864.23875-1.61634.23875H19.00689V10.13691l1.26744.03686C21.33946,10.1922,21.57863,10.22864,21.85424,10.39408Zm2.11226,1.32274v1.56147h-.82639V10.15534h.82639Zm3.2974-1.396a.696.696,0,0,1,0,1.2953c-.156.09173-.23874.20188-.19288.22974a6.27138,6.27138,0,0,1,.75309,1.35017c0,.05529-.18388.08272-.43162.06429-.4132-.02743-.44106-.04586-.76252-.57864-.303-.49592-.36734-.55121-.67037-.57864l-.3399-.02744v1.20315h-.82638V10.15577h1.084A3.00166,3.00166,0,0,1,27.2639,10.32079Zm3.68316.11016v.2756H29.29343v.73466h1.46932V11.983l-.70723.02743-.71623.02744v.64293l.80839.02743.79895.02744v.54178h-2.48v-3.123h2.48V10.431ZM10.74,15.12438V18.1646l-.3399-.06429a6.402,6.402,0,0,1-1.883-.79,2.36506,2.36506,0,0,1-.42262-3.9862,7.294,7.294,0,0,1,2.53488-1.23058C10.7126,12.08415,10.74,12.74551,10.74,15.12438Zm18.1865-.69823v.68922l.303-.18388a1.881,1.881,0,0,1,1.543-.03686,1.25617,1.25617,0,0,1,.55121,1.3043,1.28069,1.28069,0,0,1-.71623.85425,2.19772,2.19772,0,0,1-1.36859-.05486c-.22974-.17445-.31247-.17445-.31247.009,0,.11016-.09172.12859-.43162.11016L28.05385,17.09l-.02743-1.56147c-.009-.85425,0-1.60734.01843-1.67163.02743-.0733.21131-.11959.46849-.11959h.41319Zm4.86788-.36733v.32146h-.45906c-.441,0-.459-.00943-.459-.25717,0-.3489.05486-.38576.52335-.38576C33.79441,13.73735,33.79441,13.73735,33.79441,14.05882ZM21.799,14.28856A1.32864,1.32864,0,0,1,22.5889,15.556a1.22943,1.22943,0,0,1-.71623,1.18471c-.40419.23875-.51435.25718-1.6442.28461l-1.22158.03686V13.99409l1.17572.02744A3.17287,3.17287,0,0,1,21.799,14.28856Zm14.935.18388c0,.25717.01843.2756.36733.2756.33047,0,.36733.01843.36733.22975,0,.20188-.03686.22974-.36733.22974h-.36733v.57864c0,.64294.09173.79895.47749.79895.22031,0,.25717.03687.25717.27561v.27561h-.56021c-.49592,0-.58807-.02744-.82682-.26618-.24817-.24817-.2666-.32147-.2666-.9644v-.69823h-.36733c-.33047,0-.36734-.02743-.36734-.22974,0-.21132.03686-.22975.36734-.22975.3489,0,.36733-.01843.36733-.2756,0-.26661.009-.27561.459-.27561S36.73391,14.20583,36.73391,14.47244Zm-10.70059.40376a1.07746,1.07746,0,0,1,.64294.90011l.06429.3489H25.62013c-1.01027,0-1.11142.01843-1.084.156.05529.2756.44105.40419,1.0377.35833a5.39959,5.39959,0,0,0,.76252-.11016c.19288-.05529.21131-.03686.18388.20188-.01843.21132-.08273.27561-.3489.3309a4.611,4.611,0,0,1-1.78179-.01843,1.1241,1.1241,0,0,1-.12859-2.10326A2.56209,2.56209,0,0,1,26.03332,14.8762Zm7.76109,1.075v1.19415l-.43163-.02744-.44105-.02743-.02743-1.17571L32.86687,14.748h.92754Z"/>
    <path d="M19.925,11.5788v1.05613h.36734a1.68327,1.68327,0,0,0,1.23057-.50535c.4042-.6245.00943-1.32273-.84481-1.50618C19.87914,10.45838,19.925,10.39408,19.925,11.5788Z"/>
    <path d="M25.6197,11.07388v.45906h.32147a1.47157,1.47157,0,0,0,.60607-.147c.54178-.27561.16545-.77152-.57864-.77152h-.3489Z"/>
    <path d="M29.15627,15.52857a.5873.5873,0,0,0,.156,1.01969.78031.78031,0,0,0,.99184-.21131.54208.54208,0,0,0-.009-.799A.77632.77632,0,0,0,29.15627,15.52857Z"/>
    <path d="M19.925,15.4827V16.493h.39477a1.76279,1.76279,0,0,0,1.249-.53278c.37676-.70723-.294-1.48775-1.27687-1.48775H19.925Z"/>
    <path d="M24.67373,15.37255a.60029.60029,0,0,0-.156.22974,1.88367,1.88367,0,0,0,.6888.06429,1.78283,1.78283,0,0,0,.68879-.07329C25.8953,15.23453,24.94933,15.06951,24.67373,15.37255Z"/>
  </g>
</svg>
