<svg id="Layer_1" data-name="Layer 1" xmlns="http://www.w3.org/2000/svg" xmlns:xlink="http://www.w3.org/1999/xlink" viewBox="0 0 40 26">
  <defs>
    <mask id="mask" x="30.83711" y="10.04562" width="5.12292" height="7.6658" maskUnits="userSpaceOnUse">
      <g id="mask-2">
        <polygon id="path-1" points="35.96 17.711 35.96 10.046 30.837 10.046 30.837 17.711 35.96 17.711" style="fill: #fff"/>
      </g>
    </mask>
  </defs>
  <title>dotpay</title>
  <rect width="40" height="26" style="fill: #fff"/>
  <g>
    <g id="Group-3">
      <g style="mask: url(#mask)">
        <path id="Fill-1" d="M35.8037,10.04624q-.51031.01242-1.02114-.00008c-.12625-.00322-.16353.027-.163.15886.00524,1.46411.00339,2.92825.00295,4.39236,0,.07078.02593.146-.10422.14379-.47269-.008-.94573.00428-1.41833-.00525a.78392.78392,0,0,1-.87705-.73469,3.21972,3.21972,0,0,1-.04843-.65986c-.00067-1.05455-.00205-2.10911.00209-3.16362.0004-.10613-.02679-.13418-.13314-.132-.35921.00722-.71877.00867-1.07789.00024-.11336-.00267-.12775.03613-.12747.1348.00327,1.14867.00134,2.29739.00248,3.4461a3.67634,3.67634,0,0,0,.07885.85517,1.71316,1.71316,0,0,0,1.59521,1.27775c.60911.05312,1.219.01746,1.82841.02723.29746.00478.2975.00086.25707.29091a.57119.57119,0,0,1-.6037.563c-.16936.01306-.33954.02118-.50941.02162q-1.26243.00323-2.52487-.00142c-.09823-.00047-.12739.022-.12451.12237.00768.26341.00851.52738-.00016.79071-.00367.11131.02865.13779.13882.1372q1.31208-.00718,2.62416-.00188a5.86093,5.86093,0,0,0,.86148-.05607A1.51454,1.51454,0,0,0,35.771,16.59879a3.1326,3.1326,0,0,0,.178-1.00928c.00757-.88961.00256-1.77938.00256-2.66908h.00465c0-.9086-.00334-1.8172.00375-2.72577.001-.13069-.038-.15128-.15632-.14842"/>
      </g>
    </g>
    <path id="Fill-4" d="M7.1509,14.74066c-.47674-.01507-.95518.02691-1.43055-.02146a1.257,1.257,0,0,1-1.183-1.00367A3.01833,3.01833,0,0,1,4.52181,12.155a1.34123,1.34123,0,0,1,1.20867-1.02674c.48537-.053.97252-.01094,1.45853-.02632.10891-.00342.09315.06583.09322.13045q.00054.42342.00024.84689,0,.42348-.00012.84693c-.00012.5599-.00252,1.11983.002,1.67973.00083.10295-.02423.13822-.1335.13477M8.46044,7.92705q-.51729.01236-1.03493.00039c-.12125-.0029-.1456.03649-.14461.14991.00535.607-.00249,1.21416.005,1.82109.00162.13328-.04118.15678-.16467.158-.595.00561-1.191-.03347-1.78506.02522A2.24085,2.24085,0,0,0,3.3468,11.48779a3.80416,3.80416,0,0,0-.145,2.55295,2.25642,2.25642,0,0,0,1.03175,1.40941A2.6624,2.6624,0,0,0,5.593,15.779c.95916.01459,1.91868.005,2.878.01173.11679.00082.14769-.02566.14725-.14473-.00488-1.25645-.003-2.51294-.00307-3.76942-.00008-1.26586-.00236-2.53177.00343-3.79763.00055-.13-.03783-.15474-.15817-.15187" style="fill: #801517"/>
    <path id="Fill-6" d="M23.11792,13.93341a1.20655,1.20655,0,0,1-1.09842.77913c-.46129.05308-.92515.01389-1.38763.02707-.10261.00294-.08543-.05826-.08539-.11778q0-.8539,0-1.70786,0-.84686.0002-1.6937c0-.05795-.02065-.12233.084-.11888.43891.01432.87893-.02166,1.31718.01946a1.34463,1.34463,0,0,1,1.31659,1.27124,3.10859,3.10859,0,0,1-.1465,1.54132m.65966-3.34253a2.36614,2.36614,0,0,0-1.60306-.52878c-.94021-.01377-1.88074-.00412-2.82106-.01169-.12156-.001-.14355.03291-.14316.14685.00449,1.23749.0028,2.475.0028,3.71253,0,1.2422.00142,2.48445-.00252,3.72665-.00036.10436.02293.13383.13062.13159.36374-.00749.72775-.006,1.09156-.00063.0913.00134.11687-.02126.11608-.11448-.00469-.57873.00036-1.15754-.00492-1.73623-.00095-.10248.02005-.13124.12881-.1321.59495-.00459,1.18991.01962,1.785-.02185a2.12413,2.12413,0,0,0,1.94083-1.38517,3.90372,3.90372,0,0,0,.18409-2.3511,2.509,2.509,0,0,0-.80509-1.43559"/>
    <path id="Fill-8" d="M29.06187,14.62454c-.00008.05292.01982.11628-.07545.11444-.72188-.01412-1.44478.03115-2.16563-.02629a.62031.62031,0,0,1-.56863-.33175.69664.69664,0,0,1,.60871-1.02219c.34407-.01236.68893-.00235,1.03348-.00235v-.01181c.34943,0,.69886.002,1.04825-.00145.08353-.00087.12443.0082.12258.11075-.00709.3901-.00264.78039-.00331,1.17065m1.27243-3.23973a1.54,1.54,0,0,0-1.22321-1.25151,4.34418,4.34418,0,0,0-.70328-.07274c-1.05885-.0069-2.11774-.004-3.17664-.00933-.09874-.00051-.11565.0337-.11411.12048.00473.26824.00776.53679-.00134.80479-.00374.10986.03077.13.13413.12944q1.3544-.00636,2.7088-.0013a2.93854,2.93854,0,0,1,.38139.02523.75289.75289,0,0,1,.71214.72895c.00969.08859-.00036.17961.0121.26761.01993.14085-.02822.17761-.17346.17738-.78441-.0013-1.56913-.02252-2.35326.0109a2.14084,2.14084,0,0,0-.79938.15961,1.35951,1.35951,0,0,0-.77665.86058,2.161,2.161,0,0,0,.0504,1.58294,1.453,1.453,0,0,0,1.338.84348c.6565.04779,1.31352.01287,1.85666.02652.76585,0,1.41825-.0031,2.07058.00306.11006.001.13094-.02989.13058-.13276-.00382-1.14852-.0007-2.297-.00386-3.44555a4.36471,4.36471,0,0,0-.06962-.82778"/>
    <path id="Fill-10" d="M13.36784,14.22252a.314.314,0,0,1-.31988.31932c-.34494.00125-.68988.00035-1.03478.00027-.33552-.00012-.671.00051-1.00644-.00039a.3186.3186,0,0,1-.33032-.3247c-.00158-.42811.00149-.85622-.0017-1.28434a.26365.26365,0,0,1,.159-.26027c.08527-.03782.0904-.09114.08984-.16553q-.00318-.42336-.00027-.84681a.37457.37457,0,0,1,.41547-.41952q.69461-.00123,1.38918.00051a.3761.3761,0,0,1,.39742.396q.004.43749-.00146.875a.14648.14648,0,0,0,.094.16211.26411.26411,0,0,1,.15222.264c-.00485.42808-.00123.85623-.00229,1.28435m-1.326-4.25376a2.938,2.938,0,1,0,2.94365,2.96584,2.94953,2.94953,0,0,0-2.94365-2.96584" style="fill: #801517"/>
    <path id="Fill-12" d="M18.66269,14.73522a6.89652,6.89652,0,0,1-.92043-.01985.51128.51128,0,0,1-.492-.44533,2.04719,2.04719,0,0,1-.04488-.44825c-.00315-.86128.0013-1.72257-.0039-2.58382-.00075-.11794.0396-.13838.14552-.137.44428.00557.88867,0,1.333.00561.09984.00125.12743-.0268.12463-.12606-.00757-.268-.01092-.53679.00012-.80456.00473-.115-.037-.12582-.13362-.1248-.43955.00467-.87925-.002-1.31872.00487-.11443.0018-.15214-.02323-.15088-.14419.00635-.61176-.00193-1.22368.00666-1.83541.00181-.13108-.039-.15191-.1569-.14928q-.52445.0116-1.04924.00012c-.10986-.00224-.14052.02558-.13941.13739.00591.61177-.002,1.22373.00658,1.83545.00185.13524-.04173.16-.1642.15588-.2644-.00887-.52931-.001-.794-.00412-.06888-.00079-.09914.01173-.09768.09118.0052.287.00481.57417.00035.86121-.00126.08.02171.10236.10249.10079.26933-.00526.53912.00533.80813-.00514.12369-.00487.14532.03633.14382.14936-.00638.48939-.00272.97891-.00272,1.56619.014.47111-.0251,1.04078.026,1.60919a1.31173,1.31173,0,0,0,1.30387,1.34524c.50972.0386,1.02035.00733,1.53043.01926.08271.00192.0757-.04563.07566-.09883-.0002-.273-.00607-.5462.00406-.8188.00433-.117-.0374-.13649-.14268-.13626" style="fill: #7f1416"/>
    <path id="Fill-14" d="M12.69886,11.93792a.27574.27574,0,0,0-.29825-.30068q-.38193-.00507-.764,0a.27445.27445,0,0,0-.28894.28153c-.00532.20649.00118.41325-.00359.61973-.00173.07455.023.09789.09646.0964.19324-.00388.38667-.00133.58-.00137.18867,0,.37737-.00334.56588.00153.0807.00212.11931-.0122.11588-.10566-.00725-.19695,0-.39437-.00346-.59152" style="fill: #801517"/>
  </g>
</svg>
