<svg id="Layer_1" data-name="Layer 1" xmlns="http://www.w3.org/2000/svg" xmlns:xlink="http://www.w3.org/1999/xlink" viewBox="0 0 40 26">
  <defs>
    <linearGradient id="linear-gradient" x1="-493.24553" y1="277.10052" x2="-493.24553" y2="277.7159" gradientTransform="matrix(9.84589, 0, 0, -21.55436, 4864.39521, 5991.95628)" gradientUnits="userSpaceOnUse">
      <stop offset="0" stop-color="#fde900"/>
      <stop offset="0.32424" stop-color="#f37721"/>
      <stop offset="0.64943" stop-color="#b01f24"/>
      <stop offset="1" stop-color="#781214"/>
    </linearGradient>
    <linearGradient id="linear-gradient-2" x1="-487.41815" y1="276.46975" x2="-487.41815" y2="277.08513" gradientTransform="matrix(8.90657, 0, 0, -19.13272, 4349.17527, 5308.52334)" gradientUnits="userSpaceOnUse">
      <stop offset="0" stop-color="#fbf398"/>
      <stop offset="0.57346" stop-color="#fccc1c"/>
      <stop offset="1" stop-color="#f48222"/>
    </linearGradient>
  </defs>
  <title>dragonpay</title>
  <g id="Page-1">
    <g id="dragonpay-65x41">
      <rect id="Rectangle" width="40" height="26"/>
      <g id="Dragonpay">
        <path id="Fill-1" d="M13.5587,17.01931V15.3024a1.63631,1.63631,0,0,0-.33461-.1253,1.40778,1.40778,0,0,0-.32121-.03467.71615.71615,0,0,0-.60519.28925,1.36752,1.36752,0,0,0-.21862.83583,1.57191,1.57191,0,0,0,.16794.80381.58152.58152,0,0,0,.53855.27856.96762.96762,0,0,0,.39721-.08929,1.52661,1.52661,0,0,0,.37593-.24128Zm.50122.72516H13.5587v-.30392q-.11731.09862-.20262.16262a1.12058,1.12058,0,0,1-.2.11732,1.15427,1.15427,0,0,1-.22128.07865,1.131,1.131,0,0,1-.26659.028,1.00658,1.00658,0,0,1-.44921-.10131.95563.95563,0,0,1-.35061-.29595,1.45952,1.45952,0,0,1-.2266-.48654,2.50255,2.50255,0,0,1-.08-.66517,2.03793,2.03793,0,0,1,.10131-.67848,1.60122,1.60122,0,0,1,.27994-.49989,1.16092,1.16092,0,0,1,.39322-.30525,1.105,1.105,0,0,1,.48388-.11066,1.368,1.368,0,0,1,.38927.04934,1.71271,1.71271,0,0,1,.34924.15327V13.59613h.50122Z" style="fill: #fff"/>
        <path id="Fill-3" d="M16.18918,15.30506h-.02665a.56.56,0,0,0-.11864-.02q-.06265-.004-.15066-.004a.99162.99162,0,0,0-.40257.088,1.29441,1.29441,0,0,0-.37854.26127v2.11417H14.6109v-2.978h.50122v.44257a2.29269,2.29269,0,0,1,.47852-.34259.89731.89731,0,0,1,.39592-.1q.07728,0,.116.004t.08664.012Z" style="fill: #fff"/>
        <path id="Fill-5" d="M18.08912,17.01131v-.82646q-.17863.016-.45187.044a2.4385,2.4385,0,0,0-.44124.07865.80557.80557,0,0,0-.33061.18794.46928.46928,0,0,0-.13061.35327.49568.49568,0,0,0,.144.38657.60682.60682,0,0,0,.42123.13065.89528.89528,0,0,0,.42922-.10268,1.86281,1.86281,0,0,0,.35992-.25192Zm0,.41592q-.06132.04536-.16395.12663a1.15553,1.15553,0,0,1-.19863.12928,1.49572,1.49572,0,0,1-.25728.10667,1.26449,1.26449,0,0,1-.34791.03729.90109.90109,0,0,1-.63986-.26393.90875.90875,0,0,1-.19193-.3026,1.08821,1.08821,0,0,1,.05866-.90645.89194.89194,0,0,1,.41321-.34524,2.0535,2.0535,0,0,1,.59189-.15864q.34124-.04395.7358-.06531v-.096a.64445.64445,0,0,0-.05334-.28393.39506.39506,0,0,0-.14928-.16662.58677.58677,0,0,0-.23462-.08131,1.99452,1.99452,0,0,0-.28526-.02,1.92088,1.92088,0,0,0-.40789.052,2.73543,2.73543,0,0,0-.46921.15061h-.02935v-.5092q.1386-.04.39725-.088a2.79914,2.79914,0,0,1,.51186-.048,2.36905,2.36905,0,0,1,.51722.048.99558.99558,0,0,1,.37859.17326.7433.7433,0,0,1,.24261.31727,1.25016,1.25016,0,0,1,.08.47453v2.03685h-.49856Z" style="fill: #fff"/>
        <path id="Fill-7" d="M20.9575,16.93667V15.30239a1.74713,1.74713,0,0,0-.34524-.12928,1.33134,1.33134,0,0,0-.31594-.03866.7194.7194,0,0,0-.59987.27994,1.27976,1.27976,0,0,0-.21857.80244,1.40075,1.40075,0,0,0,.16661.75451.594.594,0,0,0,.53988.25861,1.1415,1.1415,0,0,0,.40124-.07732,1.26349,1.26349,0,0,0,.37189-.216Zm-1.68494,1.285q.05067.02129.14932.05733t.22394.068q.1386.03464.25595.056a1.435,1.435,0,0,0,.25591.02133,1.11182,1.11182,0,0,0,.39326-.06132.59234.59234,0,0,0,.25192-.17065.65646.65646,0,0,0,.12-.25325,1.40716,1.40716,0,0,0,.03467-.328v-.26127a1.55608,1.55608,0,0,1-.39725.25994,1.2354,1.2354,0,0,1-.48787.084.982.982,0,0,1-.81047-.37859,1.71186,1.71186,0,0,1-.30126-1.08774,1.92052,1.92052,0,0,1,.104-.65719,1.50309,1.50309,0,0,1,.27994-.48655,1.158,1.158,0,0,1,.39725-.2959,1.13657,1.13657,0,0,1,.47453-.104,1.31258,1.31258,0,0,1,.40124.05467,1.67744,1.67744,0,0,1,.33992.156l.02931-.128h.47191v2.63937a1.58938,1.58938,0,0,1-.33061,1.11173,1.31824,1.31824,0,0,1-1.01042.3546,2.969,2.969,0,0,1-.44655-.03467,3.16478,3.16478,0,0,1-.42523-.09328V18.2217Z" style="fill: #fff"/>
        <path id="Fill-9" d="M23.99224,16.25683a1.43346,1.43346,0,0,0-.2106-.85981.78458.78458,0,0,0-1.20372,0,1.42623,1.42623,0,0,0-.212.85981,1.42647,1.42647,0,0,0,.212.84913.77389.77389,0,0,0,1.20239.00532,1.4228,1.4228,0,0,0,.21193-.85445m.51722,0a1.69429,1.69429,0,0,1-.36258,1.16108,1.226,1.226,0,0,1-.96511.40922,1.20942,1.20942,0,0,1-.97712-.42257,1.72537,1.72537,0,0,1-.35588-1.14773,1.68893,1.68893,0,0,1,.36657-1.15969,1.33665,1.33665,0,0,1,1.93154-.00138,1.70046,1.70046,0,0,1,.36258,1.16107" style="fill: #fff"/>
        <path id="Fill-11" d="M27.23972,17.74447H26.7385V16.04888a3.418,3.418,0,0,0-.02-.38257.81242.81242,0,0,0-.076-.28393.39063.39063,0,0,0-.1706-.16661.67582.67582,0,0,0-.29861-.05467.85482.85482,0,0,0-.38524.1,1.98673,1.98673,0,0,0-.38789.25994v2.22345H24.899v-2.978h.50122v.33061a1.96943,1.96943,0,0,1,.44256-.30658,1.03843,1.03843,0,0,1,.46123-.10667.85748.85748,0,0,1,.68783.28929,1.25415,1.25415,0,0,1,.24793.83844Z" style="fill: #fff"/>
        <path id="Fill-13" d="M29.76007,16.23284a1.59129,1.59129,0,0,0-.16263-.79047.5631.5631,0,0,0-.52786-.28127.947.947,0,0,0-.41193.09466,1.78254,1.78254,0,0,0-.37721.24394v1.68756a1.77738,1.77738,0,0,0,.33722.13066,1.34323,1.34323,0,0,0,.32126.03463.71533.71533,0,0,0,.60518-.28526,1.36664,1.36664,0,0,0,.216-.83445m.51722-.056a1.83263,1.83263,0,0,1-.35593,1.18506,1.10822,1.10822,0,0,1-.8998.44123,1.37867,1.37867,0,0,1-.39189-.05067,1.53788,1.53788,0,0,1-.34923-.15726v1.24766h-.50122V14.76651h.50122v.31195a1.84143,1.84143,0,0,1,.41454-.28127,1.10153,1.10153,0,0,1,.49723-.11332.92313.92313,0,0,1,.79845.40523,1.84988,1.84988,0,0,1,.28663,1.08774" style="fill: #fff"/>
        <path id="Fill-15" d="M32.34606,17.01131v-.82646q-.17863.016-.45188.044a2.43837,2.43837,0,0,0-.44123.07865.80544.80544,0,0,0-.33061.18794.46928.46928,0,0,0-.13062.35327.49568.49568,0,0,0,.144.38657.60686.60686,0,0,0,.42124.13065.8953.8953,0,0,0,.42922-.10268,1.86311,1.86311,0,0,0,.35992-.25192Zm0,.41592q-.06132.04536-.164.12663a1.15394,1.15394,0,0,1-.19862.12928,1.49581,1.49581,0,0,1-.25729.10667,1.26441,1.26441,0,0,1-.3479.03729.901.901,0,0,1-.63986-.26393.90875.90875,0,0,1-.19193-.3026,1.08821,1.08821,0,0,1,.05866-.90645.89184.89184,0,0,1,.41321-.34524,2.05341,2.05341,0,0,1,.59189-.15864q.34122-.04395.7358-.06531v-.096a.64445.64445,0,0,0-.05334-.28393.39512.39512,0,0,0-.14928-.16662.5871.5871,0,0,0-.23463-.08131,1.99427,1.99427,0,0,0-.28525-.02,1.921,1.921,0,0,0-.4079.052,2.73673,2.73673,0,0,0-.4692.15061H30.7171v-.5092q.1386-.04.39726-.088a2.799,2.799,0,0,1,.51186-.048,2.36905,2.36905,0,0,1,.51722.048.99565.99565,0,0,1,.37859.17326.74321.74321,0,0,1,.2426.31727,1.25,1.25,0,0,1,.08.47453v2.03685h-.49856Z" style="fill: #fff"/>
        <polygon id="Fill-17" points="35.653 14.767 34.051 18.843 33.515 18.843 34.048 17.6 32.966 14.767 33.507 14.767 34.32 16.971 35.131 14.767 35.653 14.767" style="fill: #fff"/>
        <path id="Fill-19" d="M10.94937,15.75629a4.84615,4.84615,0,0,0-.06535-.61458,8.77673,8.77673,0,0,0-.36742-1.31186,4.12542,4.12542,0,0,1-.16484-.63707A3.4066,3.4066,0,0,1,10.4,12.02023c.03258-.18072.07936-.3589.11953-.53829.00762-.034.02793-.0732-.00865-.09878-.03321-.02323-.06832-.0004-.10082.014a.67173.67173,0,0,0-.269.22181,1.5866,1.5866,0,0,0-.19778.34463c-.06548.16081-.13372.32055-.20293.47976a.5226.5226,0,0,1-.17681.22722.20984.20984,0,0,1-.34711-.15783.67438.67438,0,0,1,.105-.4388c.06531-.10375.13031-.20771.19774-.31013A2.49575,2.49575,0,0,0,9.94307,10.611a1.56107,1.56107,0,0,0-.45564-1.32808.70622.70622,0,0,0-.17083-.12849c-.036-.01849-.06016-.00239-.06242.03676a.45149.45149,0,0,0,.00909.07585,7.59449,7.59449,0,0,1,.04185,1.04008,1.27386,1.27386,0,0,1-.08175.41894.57875.57875,0,0,1-.16072.23937.358.358,0,0,1-.40191.04854.30053.30053,0,0,1-.178-.31159.70207.70207,0,0,1,.07541-.29461c.03733-.07839.076-.15624.11692-.23281a1.77,1.77,0,0,0,.16173-1.07307,2.08466,2.08466,0,0,0-.49266-1.15127,1.23293,1.23293,0,0,1-.271-.56014,3.54746,3.54746,0,0,1-.06473-1.0509c.009-.10171.0137-.20381.01894-.30583.00354-.06854-.03162-.07919-.087-.05369a1.13608,1.13608,0,0,0-.23143.14875,2.9898,2.9898,0,0,0-.86606,1.22544,2.16008,2.16008,0,0,0-.178.95624,2.73706,2.73706,0,0,0,.14312.719,3.35358,3.35358,0,0,1,.14737.53092,1.47773,1.47773,0,0,1-.00044.54831.24553.24553,0,0,1-.2078.21769.25759.25759,0,0,1-.2634-.148,1.09183,1.09183,0,0,1-.1139-.28335,2.71683,2.71683,0,0,1-.04966-.95881c.00909-.10157.02824-.20222.04159-.30344.00461-.03467.01764-.07745-.01645-.09935-.03707-.02377-.067.01108-.09262.03431a1.81363,1.81363,0,0,0-.28.30326,2.02773,2.02773,0,0,0-.30489,1.40652,3.21878,3.21878,0,0,0,.66473,1.64061,1.70063,1.70063,0,0,1,.18395.29976.845.845,0,0,1,.07453.24872.23028.23028,0,0,1-.10495.23831.21747.21747,0,0,1-.25555-.03543.51517.51517,0,0,1-.12614-.15269,1.73133,1.73133,0,0,1-.12848-.29448c-.03268-.0967-.06646-.19344-.10743-.28681a1.15983,1.15983,0,0,0-.33642-.44975.464.464,0,0,0-.48734-.08468c-.06673.02616-.08637.06593-.05086.13053.02213.04026.04163.082.06314.12263a5.29957,5.29957,0,0,1,.32476.79309,2.13839,2.13839,0,0,1-.00155,1.44234c-.03946.11061-.07564.22252-.10987.33491a8.03242,8.03242,0,0,0-.26867,1.05281,3.63888,3.63888,0,0,0-.04576.47874,3.0295,3.0295,0,1,0,5.99353.00017" style="fill: #ef4a25"/>
        <path id="Fill-22" d="M10.94937,15.75629a4.84615,4.84615,0,0,0-.06535-.61458,8.77673,8.77673,0,0,0-.36742-1.31186,4.12542,4.12542,0,0,1-.16484-.63707A3.4066,3.4066,0,0,1,10.4,12.02023c.03258-.18072.07936-.3589.11953-.53829.00762-.034.02793-.0732-.00865-.09878-.03321-.02323-.06832-.0004-.10082.014a.67173.67173,0,0,0-.269.22181,1.5866,1.5866,0,0,0-.19778.34463c-.06548.16081-.13372.32055-.20293.47976a.5226.5226,0,0,1-.17681.22722.20984.20984,0,0,1-.34711-.15783.67438.67438,0,0,1,.105-.4388c.06531-.10375.13031-.20771.19774-.31013A2.49575,2.49575,0,0,0,9.94307,10.611a1.56107,1.56107,0,0,0-.45564-1.32808.70622.70622,0,0,0-.17083-.12849c-.036-.01849-.06016-.00239-.06242.03676a.45149.45149,0,0,0,.00909.07585,7.59449,7.59449,0,0,1,.04185,1.04008,1.27386,1.27386,0,0,1-.08175.41894.57875.57875,0,0,1-.16072.23937.358.358,0,0,1-.40191.04854.30053.30053,0,0,1-.178-.31159.70207.70207,0,0,1,.07541-.29461c.03733-.07839.076-.15624.11692-.23281a1.77,1.77,0,0,0,.16173-1.07307,2.08466,2.08466,0,0,0-.49266-1.15127,1.23293,1.23293,0,0,1-.271-.56014,3.54746,3.54746,0,0,1-.06473-1.0509c.009-.10171.0137-.20381.01894-.30583.00354-.06854-.03162-.07919-.087-.05369a1.13608,1.13608,0,0,0-.23143.14875,2.9898,2.9898,0,0,0-.86606,1.22544,2.16008,2.16008,0,0,0-.178.95624,2.73706,2.73706,0,0,0,.14312.719,3.35358,3.35358,0,0,1,.14737.53092,1.47773,1.47773,0,0,1-.00044.54831.24553.24553,0,0,1-.2078.21769.25759.25759,0,0,1-.2634-.148,1.09183,1.09183,0,0,1-.1139-.28335,2.71683,2.71683,0,0,1-.04966-.95881c.00909-.10157.02824-.20222.04159-.30344.00461-.03467.01764-.07745-.01645-.09935-.03707-.02377-.067.01108-.09262.03431a1.81363,1.81363,0,0,0-.28.30326,2.02773,2.02773,0,0,0-.30489,1.40652,3.21878,3.21878,0,0,0,.66473,1.64061,1.70063,1.70063,0,0,1,.18395.29976.845.845,0,0,1,.07453.24872.23028.23028,0,0,1-.10495.23831.21747.21747,0,0,1-.25555-.03543.51517.51517,0,0,1-.12614-.15269,1.73133,1.73133,0,0,1-.12848-.29448c-.03268-.0967-.06646-.19344-.10743-.28681a1.15983,1.15983,0,0,0-.33642-.44975.464.464,0,0,0-.48734-.08468c-.06673.02616-.08637.06593-.05086.13053.02213.04026.04163.082.06314.12263a5.29957,5.29957,0,0,1,.32476.79309,2.13839,2.13839,0,0,1-.00155,1.44234c-.03946.11061-.07564.22252-.10987.33491a8.03242,8.03242,0,0,0-.26867,1.05281,3.63888,3.63888,0,0,0-.04576.47874,3.0295,3.0295,0,1,0,5.99353.00017" style="fill: url(#linear-gradient)"/>
        <path id="Fill-25" d="M9.964,13.06207c-.56334.57539-1.53208-.08211-.85786-.99486l.00089-.00115a2.99867,2.99867,0,0,0,.37889-.59477.02873.02873,0,0,0-.04739-.03051c-.44115.47258-1.85267.27245-1.09275-1.13886a1.495,1.495,0,0,0-.23529-1.70064,2.08642,2.08642,0,0,1-.49963-1.44074.02868.02868,0,0,0-.04974-.01929,2.31435,2.31435,0,0,0-.33425,2.387c.47586,1.37815-.77464,1.97376-1.21672.85143a.02865.02865,0,0,0-.05537.00927,2.40825,2.40825,0,0,0,.64788,1.58169c.78107.942-.07386,1.799-.76706,1.0998a.02863.02863,0,0,0-.04841.02478c.13416.89151-.57509,1.801-.57509,2.87786a2.82624,2.82624,0,0,0,2.763,2.93278,2.74484,2.74484,0,0,0,2.71714-2.9072c-.02447-1.06584-.70845-2.24314-.67936-2.91541a.02854.02854,0,0,0-.04886-.02123" style="fill: url(#linear-gradient-2)"/>
        <path id="Fill-27" d="M8.52568,16.7284V15.2908a1.43433,1.43433,0,0,0-.28584-.11514,1.05357,1.05357,0,0,0-.272-.03471.61992.61992,0,0,0-.50507.23449,1.13634,1.13634,0,0,0-.19149.72574,1.313,1.313,0,0,0,.14431.67994.4996.4996,0,0,0,.4607.23591.75638.75638,0,0,0,.33438-.08047,1.4958,1.4958,0,0,0,.315-.20816m1.65684-.70769a2.63222,2.63222,0,0,1-.10548.74516,2.44491,2.44491,0,0,1-.3025.65914H8.60615l-.06939-.322a2.5392,2.5392,0,0,1-.34271.25117.83374.83374,0,0,1-.426.093.85319.85319,0,0,1-.69936-.34272,1.57185,1.57185,0,0,1-.272-.99495,1.44446,1.44446,0,0,1,.33438-1.01573,1.01472,1.01472,0,0,1,.76462-.36356,1.0547,1.0547,0,0,1,.34413.05,1.7643,1.7643,0,0,1,.29138.13318v-.13318H8.9725v2.33673h.63a1.56859,1.56859,0,0,0,.15127-.51062,3.97232,3.97232,0,0,0,.0458-.56892,2.20572,2.20572,0,0,0-.46211-1.46118,1.632,1.632,0,0,0-1.328-.55367,1.73838,1.73838,0,0,0-1.3557.59805A2.30549,2.30549,0,0,0,6.63851,17.554a1.75265,1.75265,0,0,0,1.35709.56754,3.89329,3.89329,0,0,0,.4732-.0305,2.84859,2.84859,0,0,0,.4704-.09714V18.388a3.38742,3.38742,0,0,1-.4732.07772q-.24007.02221-.47315.02221a2.15277,2.15277,0,0,1-1.62634-.67439,2.42769,2.42769,0,0,1-.64385-1.7484,2.39923,2.39923,0,0,1,.66469-1.71789,2.14943,2.14943,0,0,1,1.61938-.6994,2.0136,2.0136,0,0,1,1.59853.65915,2.50649,2.50649,0,0,1,.57726,1.71372" style="fill: #781214"/>
      </g>
    </g>
  </g>
</svg>
