<svg id="Layer_1" data-name="Layer 1" xmlns="http://www.w3.org/2000/svg" viewBox="0 0 40 26">
  <title>ebanking_FI</title>
  <g id="Page-1">
    <g id="Paytrail-65x41">
      <rect y="-0.00006" width="40" height="26" style="fill: #e60092"/>
      <g id="Paytrail">
        <g id="Group-22">
          <path id="Fill-2" d="M19.966,10.2787a5.04077,5.04077,0,0,0,1.76016-.2719,5.70185,5.70185,0,0,0,3.92826-4.532.208.208,0,0,1,.14235-.172.88249.88249,0,0,0,.57334-.82542.90743.90743,0,0,0-.71791-.9196.91851.91851,0,0,0-1.04641.54026.90333.90333,0,0,0,.3392,1.11519A.20169.20169,0,0,1,25.046,5.458a5.17451,5.17451,0,0,1-4.85862,4.21677,4.92834,4.92834,0,0,1-2.75714-.6723,5.11731,5.11731,0,0,1-2.53661-3.56776.1633.1633,0,0,1,.08939-.20641A.8765.8765,0,0,0,15.4116,4.215a.92618.92618,0,0,0-1.78066.04214.883.883,0,0,0,.53621,1.0201.16782.16782,0,0,1,.11241.14582A5.63319,5.63319,0,0,0,15.838,8.53a5.65789,5.65789,0,0,0,4.128,1.74872" style="fill: #fdfdfd"/>
          <path id="Fill-4" d="M18.19,20.50311c.05632-.14736.10608-.27673.15528-.40633.07459-.19662.14742-.39392.22412-.58974.02386-.061.02915-.09082-.05557-.09151-.201-.00159-.201-.00569-.20089-.20561,0-.07772.00421-.15573-.0012-.23306-.005-.07078.02409-.08638.0898-.08587q.53843.00419,1.07692,0c.06868-.00057.0898.02124.08707.08871-.00484.11821-.00422.23688-.00023.3552.00216.06326-.02067.08786-.083.08308-.04043-.00314-.08137-.00052-.122-.00052-.191.00006-.19086.00012-.25612.17271q-.52246,1.38247-1.04316,2.76568c-.0291.07778-.06264.1132-.14862.10739a2.48993,2.48993,0,0,0-.33287-.00017c-.09811.00661-.09851-.02778-.06976-.106.12356-.33584.24029-.67419.36351-1.0102a.266.266,0,0,0-.0074-.21051q-.33345-.8026-.65613-1.60967A.14929.14929,0,0,0,17.039,19.415c-.0948.00536-.21774.04231-.27935-.01509-.068-.06332-.02112-.189-.023-.28709-.0041-.22048-.00131-.22054.21769-.22054.16285,0,.32582.00416.48844-.00188a.11332.11332,0,0,1,.12624.08957c.19183.48366.38743.96584.58222,1.44836.00775.01913.019.03684.03872.07476" style="fill: #fdfdfd"/>
          <path id="Fill-6" d="M22.45262,19.1617a1.33119,1.33119,0,0,1,.95559-.26432c.06434.00473.09327.01623.09008.08712-.00524.11451-.0049.22959-.00012.34415.00274.06623-.02408.0804-.0841.07921a2.17563,2.17563,0,0,0-.42062.02.59184.59184,0,0,0-.54043.63261c-.00182.25538.00347.51093-.00256.7662-.002.086.026.10921.10688.10369.09213-.00632.18511.001.27753-.00211.05762-.002.07875.01936.07738.07716-.003.12578-.0025.25174-.00017.37752.00091.05119-.01475.07231-.0693.072-.29245-.002-.585-.00313-.87735.00034-.08979.00109-.06719-.05836-.06724-.10488-.00086-.59971-.00319-1.19941.00188-1.79906.00091-.104-.0201-.14542-.13171-.1366-.09407.0074-.2162.04248-.27838-.0168-.06315-.06013-.01971-.18238-.021-.27718-.00313-.2284-.001-.2284.23244-.2284.21472,0,.42956.00467.64406-.00222.09059-.0029.11884.02728.10807.11258a1.49858,1.49858,0,0,0-.00091.159" style="fill: #fdfdfd"/>
          <path id="Fill-8" d="M27.9329,19.42756c0,.46287.00165.92574-.00153,1.38862-.00057.08194.01412.1198.10807.11553.09378-.00427.21512-.04436.27628.02118.05546.05951.01549.177.01634.26888.00228.23226.0008.23226-.229.23226-.20368,0-.40747-.005-.61092.00217-.09486.00336-.12481-.01891-.1243-.12026.00438-.92205.00057-1.84415.00518-2.7662.00051-.11007-.02312-.14458-.13837-.14053-.271.00951-.27126.0029-.27126-.2637,0-.25082,0-.25082.254-.25082.2,0,.40007.00478.59982-.00211.09122-.00319.119.021.11792.11525-.005.46652-.00222.93315-.00222,1.39973" style="fill: #fdfdfd"/>
          <path id="Fill-10" d="M20.49536,18.38834c.08763.00695.19964-.04595.25692.01014.05711.056.01674.16865.01782.25623.00285.23756.001.23756.23722.23756.23784,0,.23784,0,.23784.23528,0,.28989,0,.28989-.28539.28989-.1887,0-.1887,0-.1887.18528q0,.6165.00029,1.23306c.00028.13831.009.14406.14588.121.08752-.01475.17555-.02653.26255-.04384.05142-.01025.06606.00934.0656.05694q-.002.19986,0,.3999c.00034.03923-.0131.066-.05307.07026a2.28812,2.28812,0,0,1-.50467.05911.50584.50584,0,0,1-.47107-.56605c-.00211-.46652-.003-.93316.00154-1.39962.00085-.09053-.0205-.11992-.1152-.11844-.28675.00462-.28681.0004-.28681-.28618,0-.23653,0-.23653.23653-.23659a.83949.83949,0,0,1,.08878.00051c.05944.00638.077-.02038.07544-.07681-.00307-.111.00291-.2223-.00216-.33316-.00319-.07073.01623-.10261.09207-.09561.06235.0057.12567.00114.18859.00114" style="fill: #fdfdfd"/>
          <path id="Fill-12" d="M26.16351,20.43c0-.30338-.00341-.60682.00217-.91009.00159-.08621-.02659-.11035-.107-.10369-.06981.00586-.14059-.00137-.21074.00193-.0582.00279-.08826-.01059-.08564-.0784.00478-.12562.00319-.25157.00051-.37729-.00114-.05159.01463-.07147.06873-.071.27007.00211.5402.00393.81021-.00074.09242-.0016.0767.05517.07676.10893.00006.5993.003,1.19866-.00268,1.798-.001.10739.02614.1374.13376.134.25025-.008.25043-.00222.25043.2518,0,.27064,0,.27064-.2662.27064-.18871,0-.37758-.0049-.566.00222-.08547.00324-.10488-.02472-.1038-.10512.00421-.307.00171-.61411.00171-.92113h-.00223" style="fill: #fdfdfd"/>
          <path id="Fill-14" d="M26.71844,18.20638a.35318.35318,0,0,1-.34239.35184.35076.35076,0,0,1-.00267-.7014.35436.35436,0,0,1,.34506.34956" style="fill: #fdfdfd"/>
          <path id="Fill-16" d="M13.80654,19.162a.48521.48521,0,0,1-.47376.42034,6.41013,6.41013,0,0,1-.6424.01407c-.06828.00176-.0664-.03986-.06623-.08678.00069-.16638.00029-.33271.00023-.49909,0-.16262.00177-.3253-.00085-.48793-.001-.06184.01019-.09446.08433-.09184.21034.00734.421-.00621.63113.01941a.4663.4663,0,0,1,.46606.44676,1.00267,1.00267,0,0,1,.00149.26506m-.33-1.22372a7.88042,7.88042,0,0,0-.89477-.02357c-.33231,0-.6062.00119-.88008-.001-.05848-.00045-.08826.011-.08553.07881.0049.12191.004.24428.00029.3663-.00188.06064.02328.07613.07852.07425.08871-.00307.17771.00188.26637-.00171.05836-.00233.08712.01059.08695.07784q-.00257,1.17143-.00017,2.3429c0,.05694-.01788.07978-.07642.07755-.09241-.00341-.18511.00126-.27753-.00136-.05671-.0016-.07915.01885-.07755.07727.00324.11832.00455.237-.00046.3552-.00307.07123.01748.09611.09236.09492.26643-.00433.533-.00547.7994.0004.08979.002.12026-.01885.11878-.11434-.0057-.37,0-.74024-.00405-1.1103-.00091-.0845.019-.113.10956-.1132a4.57971,4.57971,0,0,0,.75333-.02084,1.0366,1.0366,0,0,0,.90553-1.09589,1.02407,1.02407,0,0,0-.91453-1.06326" style="fill: #fdfdfd"/>
          <path id="Fill-18" d="M24.94874,20.6637a.091.091,0,0,1-.03507.07693.88908.88908,0,0,1-.5779.24519.31055.31055,0,0,1-.32439-.217.3455.3455,0,0,1,.15653-.38258.53537.53537,0,0,1,.3191-.07192.65768.65768,0,0,1,.26033.04356c.25242.09931.193.04743.2014.30583m.91288.28311c-.05426-.05591-.16928-.0197-.25657-.01571-.086.00393-.10409-.02751-.10329-.10819.004-.40349.00227-.80708.0017-1.21063a.69435.69435,0,0,0-.5263-.71808,1.666,1.666,0,0,0-1.19468.13381c-.04909.02-.031.047-.01771.079.04225.10238.08524.20459.12288.30873.0185.05125.04173.05535.08985.03747.1038-.03855.2096-.07254.31614-.103a.77588.77588,0,0,1,.49049.01156.2108.2108,0,0,1,.15772.182c.00855.11695.00205.235.00205.35947a2.363,2.363,0,0,0-.40769-.08189,1.0886,1.0886,0,0,0-.81181.22469.8116.8116,0,0,0-.2276.93572.86215.86215,0,0,0,.84871.50723,1.48923,1.48923,0,0,0,.59891-.197c.00683.08809-.02141.176.11678.1657.19144-.01429.38475-.00359.57727-.00359.24286,0,.24479,0,.24183-.23966-.00114-.09139.04-.20715-.01868-.26757" style="fill: #fdfdfd"/>
          <path id="Fill-20" d="M15.88378,20.654a.1.1,0,0,1-.03582.08757.87445.87445,0,0,1-.58911.24348.30965.30965,0,0,1-.30965-.20669.34017.34017,0,0,1,.11924-.36676.51311.51311,0,0,1,.35508-.09731.65368.65368,0,0,1,.26022.0439c.25407.1.1903.05165.2.29581m.91629.29678c-.05426-.0619-.16746-.01293-.2543-.02187h-.0111c-.07938.01219-.09839-.02443-.09777-.1.00342-.39972.00165-.79945.00154-1.19923a.71711.71711,0,0,0-.6046-.75926,1.75266,1.75266,0,0,0-1.10961.15488c-.04328.01714-.04436.037-.02734.07522.03451.0775.064.15733.09532.23619.055.13837.0549.1382.19787.0886a1.14928,1.14928,0,0,1,.61628-.09526c.223.0455.27673.11121.27707.33954.00006.05552-.00279.11121.00074.1665.00371.057-.01531.07248-.06986.054a1.3037,1.3037,0,0,0-.347-.06873,1.09007,1.09007,0,0,0-.7937.2129.81247.81247,0,0,0-.2404.95126.86577.86577,0,0,0,.85132.503,1.56609,1.56609,0,0,0,.605-.19975c-.05364.18751.06081.16792.16735.1661.17019-.003.3405-.0008.51076-.0008.24855,0,.24991,0,.24786-.2449-.00079-.08809.03673-.19884-.01543-.25834" style="fill: #fdfdfd"/>
        </g>
      </g>
    </g>
  </g>
</svg>
