<svg id="Layer_1" data-name="Layer 1" xmlns="http://www.w3.org/2000/svg" viewBox="0 0 40 26">
  <title>Illustration CMYK - eftpos_australia_sav</title>
  <rect y="-0.00026" width="40" height="26" style="fill: #fff"/>
  <g>
    <g>
      <path d="M14.15024,8.29312v4.64451h2.14654V8.29312h.9308V6.75445h-.9308V4.91185H14.15024v1.8426h-2.251V5.76666c0-.51289.152-.77883.58888-.77883a1.53292,1.53292,0,0,1,.50339.114V3.43016a4.56063,4.56063,0,0,0-.89281-.114c-1.55767,0-2.346.73134-2.346,2.16554V6.745h-.9308V8.28362h.9308v4.64451h2.14654v-4.635Z" style="fill: #a8303c"/>
      <path d="M31.77846,12.42474a5.22571,5.22571,0,0,0,2.8209.75034c1.64315,0,2.65943-.87382,2.65943-2.11805,0-.98779-.57938-1.51967-1.75712-1.8711-.86432-.26594-1.4152-.28494-1.4152-.71235,0-.28493.24695-.4559.75034-.4559a3.18505,3.18505,0,0,1,1.78561.59837l.45591-1.51017a5.96351,5.96351,0,0,0-2.46948-.56038c-1.61465,0-2.50746.85481-2.50746,1.98507,0,.9403.58888,1.50068,1.8711,1.84261.81683.20895,1.32022.20895,1.32022.73134,0,.32293-.28494.51289-.84532.51289a3.41791,3.41791,0,0,1-2.20353-.86431Z" style="fill: #a8303c"/>
      <path d="M31.75,9.86029A3.31479,3.31479,0,1,1,28.43518,6.5455,3.3097,3.3097,0,0,1,31.75,9.86029ZM28.43518,8.36911a1.48644,1.48644,0,1,0,1.48168,1.49118A1.48563,1.48563,0,0,0,28.43518,8.36911Z" style="fill: #a8303c"/>
      <path d="M17.72148,15.673h2.08005V13.384a8.01692,8.01692,0,0,0-.057-1.08277,2.19014,2.19014,0,0,0,1.8711.87382,3.31325,3.31325,0,0,0-.0095-6.62008,2.42541,2.42541,0,0,0-1.8806.75033V6.75445H17.72147V15.673Zm5.1099-5.81275a1.57666,1.57666,0,1,1-1.57666-1.57666A1.57278,1.57278,0,0,1,22.83138,9.86029Z" style="fill: #a8303c"/>
      <path d="M6.8653,9.053H4.27236A1.27712,1.27712,0,0,1,5.62107,7.88471,1.2831,1.2831,0,0,1,6.92229,9.053M8.84088,10.2782A3.246,3.246,0,0,0,5.61157,6.555,3.2287,3.2287,0,0,0,2.25879,9.91727a3.284,3.284,0,0,0,3.35278,3.25781,3.23463,3.23463,0,0,0,2.83989-1.60516l-1.60515-.73134a1.28821,1.28821,0,0,1-1.23474.70285,1.36354,1.36354,0,0,1-1.4152-1.26323Z" style="fill: #a8303c"/>
      <path d="M14.15024,8.29312v4.64451h2.14654V8.29312h.9308V6.75445h-.9308V4.91185H14.15024v1.8426h-2.251V5.76666c0-.51289.152-.77883.58888-.77883a1.53292,1.53292,0,0,1,.50339.114V3.43016a4.56063,4.56063,0,0,0-.89281-.114c-1.55767,0-2.346.73134-2.346,2.16554V6.745h-.9308V8.28362h.9308v4.64451h2.14654v-4.635Z" style="fill: #a8303c"/>
    </g>
    <text transform="translate(22.56152 20.51585)" style="font-size: 8px;font-family: OpenSans, Open Sans">SAV</text>
  </g>
</svg>
