<svg id="Layer_1" data-name="Layer 1" xmlns="http://www.w3.org/2000/svg" viewBox="0 0 40 26">
  <title>eftpos</title>
  <rect id="Rectangle" width="40" height="26" style="fill: #7e1336"/>
  <g id="Eftpos">
    <path id="Fill-1" d="M17.29058,9.38581h-1.691v1.45331H13.827v-.78078c0-.40519.11881-.61313.46489-.61313a1.21791,1.21791,0,0,1,.39543.08862V8.21889a3.69639,3.69639,0,0,0-.70226-.08856c-1.226,0-1.849.57394-1.849,1.71055v.99824h-.73141v1.21622h.73141v3.65715H13.827V12.05534h1.77259v3.65715h1.691V12.05534h.73119V10.83912h-.73119V9.38581Zm-8.5021,1.29525A2.5444,2.5444,0,0,0,6.1438,13.33044,2.59306,2.59306,0,0,0,8.785,15.90079a2.55266,2.55266,0,0,0,2.24045-1.26557l-1.26557-.57279a1.023,1.023,0,0,1-.97488.55322,1.06764,1.06764,0,0,1-1.1128-.99824h3.66008a2.55827,2.55827,0,0,0-2.54378-2.93635Zm-1.0577,1.96726a1.05447,1.05447,0,0,1,2.09169,0Zm24.74161.10876c-.68263-.20736-1.11647-.22756-1.11647-.56383,0-.227.19726-.35595.5919-.35595a2.46782,2.46782,0,0,1,1.40452.47476l.35642-1.186a4.76445,4.76445,0,0,0-1.94867-.445c-1.27511,0-1.97634.672-1.97634,1.56207,0,.74152.46466,1.18654,1.47243,1.45222.6428.16925,1.03853.16925,1.03853.57445,0,.25671-.22809.40525-.663.40525a2.69115,2.69115,0,0,1-1.7397-.68269l-.35544,1.31545a4.12021,4.12021,0,0,0,2.22353.593c1.29525,0,2.09611-.69216,2.09611-1.67077,0-.78135-.45455-1.19607-1.38381-1.47294Zm-5.573-2.08239a2.60987,2.60987,0,1,0,2.61065,2.61012,2.6099,2.6099,0,0,0-2.61065-2.61012Zm0,3.7818a1.17168,1.17168,0,1,1,1.1722-1.17168,1.17144,1.17144,0,0,1-1.1722,1.17168ZM21.519,10.68209a1.91075,1.91075,0,0,0-1.48166.59356v-.4355H18.45509v7.02952h1.64024V16.06683a5.9838,5.9838,0,0,0-.049-.85395,1.7341,1.7341,0,0,0,1.47586.68734,2.61459,2.61459,0,0,0,2.494-2.60852A2.586,2.586,0,0,0,21.519,10.68209Zm-.28008,3.84655a1.24328,1.24328,0,1,1,1.24227-1.24325,1.24319,1.24319,0,0,1-1.24227,1.24325Z" style="fill: #fff"/>
  </g>
</svg>
