<svg id="Layer_1" data-name="Layer 1" xmlns="http://www.w3.org/2000/svg" xmlns:xlink="http://www.w3.org/1999/xlink" viewBox="0 0 40 26">
  <defs>
    <mask id="mask" x="5.78229" y="9.97199" width="3.16705" height="7.72274" maskUnits="userSpaceOnUse">
      <g id="mask-2">
        <polygon id="path-1" points="5.782 9.972 5.782 17.695 8.949 17.695 8.949 9.972 5.782 9.972" style="fill: #fff"/>
      </g>
    </mask>
    <mask id="mask-2-2" x="9.20102" y="14.41095" width="6.78374" height="4.58905" maskUnits="userSpaceOnUse">
      <g id="mask-4">
        <polygon id="path-3" points="9.201 19 15.985 19 15.985 14.411 9.201 14.411 9.201 19" style="fill: #fff"/>
      </g>
    </mask>
  </defs>
  <title>elo</title>
  <rect id="Rectangle" width="40" height="26"/>
  <g>
    <path d="M24.8357,13.85439a3.26764,3.26764,0,1,0-5.89664,2.57811l3.23223-1.413,1.34731-.5921v.00266Zm-5.03815.93843c-.00477-.05667-.00742-.11334-.00742-.17107a1.86907,1.86907,0,0,1,3.2714-1.23556Z" style="fill: #fff"/>
    <path id="Fill-3" d="M23.94222,16.9591a3.24047,3.24047,0,0,1-4.07745.3935l.76846-1.16778a1.90877,1.90877,0,0,0,2.33186-.22562Z" style="fill: #fff"/>
    <path id="Fill-5" d="M25.2726,16.15039,25.26412,9.972h1.171v6.01158a.12249.12249,0,0,0,.08262.1377l1.01844.39614-.45864,1.19321-1.19321-.50472c-.45228-.19172-.61117-.4687-.61169-1.05551" style="fill: #fff"/>
    <g id="Group-9">
      <g style="mask: url(#mask)">
        <path id="Fill-7" d="M8.94935,11.57829a3.01144,3.01144,0,0,0-.00212,4.55039L7.50405,17.69473A5.14543,5.14543,0,0,1,7.55012,9.972s1.38757,1.61425,1.39711,1.60418Z" style="fill: #289ad3"/>
      </g>
    </g>
    <g id="Group-12">
      <g style="mask: url(#mask-2-2)">
        <path id="Fill-10" d="M15.98264,14.81822h.00212A5.14865,5.14865,0,0,1,9.201,18.70183l.68584-2.01569a3.0206,3.0206,0,0,0,4.007-2.27519Z" style="fill: #ec442d"/>
      </g>
    </g>
    <path id="Fill-13" d="M15.97115,12.81778,13.894,13.296a3.0206,3.0206,0,0,0-4.007-2.27519L9.20117,9.00514a5.1506,5.1506,0,0,1,6.77,3.81264" style="fill: #fdda2e"/>
    <path id="Fill-15" d="M29.522,13.14551a1.85332,1.85332,0,0,0-.00106,2.80056l-.88815.96389a3.16716,3.16716,0,0,1,.02807-4.75323s.85426.99354.86008.98772Z" style="fill: #fff"/>
    <path id="Fill-17" d="M33.85049,15.13948h.00106a3.1694,3.1694,0,0,1-4.1749,2.39012l.42263-1.24034A1.85906,1.85906,0,0,0,32.56513,14.889Z" style="fill: #fff"/>
    <path id="Fill-19" d="M33.84339,13.9083l-1.27847.29446a1.859,1.859,0,0,0-2.46585-1.40028l-.4221-1.24034a3.168,3.168,0,0,1,4.16642,2.34616" style="fill: #fff"/>
  </g>
</svg>
