<svg id="Layer_1" data-name="Layer 1" xmlns="http://www.w3.org/2000/svg" xmlns:xlink="http://www.w3.org/1999/xlink" viewBox="0 0 40 26">
  <defs>
    <mask id="mask" x="12.30784" y="4.85651" width="15.88455" height="15.88434" maskUnits="userSpaceOnUse">
      <g id="mask-2">
        <polygon id="path-1" points="12.308 20.741 28.192 20.741 28.192 4.857 12.308 4.857 12.308 20.741" style="fill: #fff"/>
      </g>
    </mask>
  </defs>
  <title>entercash</title>
  <rect id="Rectangle" width="40" height="26.11538" style="fill: #2dace2"/>
  <g id="Page-1">
    <g id="Group-3">
      <g style="mask: url(#mask)">
        <path id="Fill-1" d="M18.97727,4.8927a8.28016,8.28016,0,0,1,9.12583,6.78289A7.85684,7.85684,0,0,1,22.269,20.32513a8.6598,8.6598,0,0,1-9.02019-2.32375,5.26342,5.26342,0,0,1-.941-1.04627,1.58689,1.58689,0,0,1,.86009.39655,8.49785,8.49785,0,0,0,3.279,1.41805,5.37524,5.37524,0,0,0,2.37918.04178,1.88683,1.88683,0,0,0,1.12055-.75983.9569.9569,0,0,0-.53988-1.53135,2.86186,2.86186,0,0,0-1.16718-.06586,4.91629,4.91629,0,0,1-5.11136-3.48367,2.14456,2.14456,0,0,1-.07759-.37319c-.07068-.62281.20764-.90642.84588-.8657a2.96708,2.96708,0,0,1,1.07247.33389c.78432.36894,1.56936.7361,2.35149,1.10894a1.48193,1.48193,0,0,0,1.1814.08356,1.20353,1.20353,0,0,0,.85426-1.08026,1.22312,1.22312,0,0,0-.765-1.23039c-.80253-.3962-1.62182-.76019-2.432-1.14187a6.48639,6.48639,0,0,1-.73186-.37532c-.682-.43585-.68742-.91774-.00947-1.349a4.30214,4.30214,0,0,1,2.60176-.71309,4.95764,4.95764,0,0,1,4.09936,2.29507,1.26387,1.26387,0,0,0,1.58976.49251,1.08965,1.08965,0,0,0,.60873-1.41911,4.284,4.284,0,0,0-1.52565-2.07165,8.55809,8.55809,0,0,0-3.04547-1.51506c-.259-.07754-.51292-.17137-.769-.25741" style="fill: #fff"/>
      </g>
    </g>
  </g>
</svg>
