<svg id="Layer_1" data-name="Layer 1" xmlns="http://www.w3.org/2000/svg" xmlns:xlink="http://www.w3.org/1999/xlink" viewBox="0 0 40 26">
  <defs>
    <mask id="mask" x="11.15766" y="6.54689" width="16.44806" height="7.85482" maskUnits="userSpaceOnUse">
      <g id="mask-2">
        <path id="path-1" d="M11.22863,14.4017V6.54689H14.723a6.41445,6.41445,0,0,0-.71695,7.41519q.12822.22524.27415.43962ZM27.60571,6.54689V14.4017h-2.483a7.407,7.407,0,0,0,.675-1.14664l-2.09414-1.22459a4.0856,4.0856,0,0,1-1.85728,2.24905q-.1149.0653-.2336.12218h-3.361a3.27167,3.27167,0,0,1-1.24919-1.08788l8.81319-5.0076L25.57629,7.886a8.21233,8.21233,0,0,0-.94343-1.33911Zm-10.10543.65772a3.67982,3.67982,0,0,1,4.558.71871L15.91951,11.411a3.46874,3.46874,0,0,1,1.58077-4.20642Z" style="fill: #fff"/>
      </g>
    </mask>
    <mask id="mask-2-2" x="11.22863" y="6.54689" width="16.37708" height="7.85482" maskUnits="userSpaceOnUse">
      <g id="mask-2-3" data-name="mask-2">
        <path id="path-1-2" data-name="path-1" d="M11.22863,14.4017V6.54689H14.723a6.41445,6.41445,0,0,0-.71695,7.41519q.12822.22524.27415.43962ZM27.60571,6.54689V14.4017h-2.483a7.407,7.407,0,0,0,.675-1.14664l-2.09414-1.22459a4.0856,4.0856,0,0,1-1.85728,2.24905q-.1149.0653-.2336.12218h-3.361a3.27167,3.27167,0,0,1-1.24919-1.08788l8.81319-5.0076L25.57629,7.886a8.21233,8.21233,0,0,0-.94343-1.33911Zm-10.10543.65772a3.67982,3.67982,0,0,1,4.558.71871L15.91951,11.411a3.46874,3.46874,0,0,1,1.58077-4.20642Z" style="fill: #fff"/>
      </g>
    </mask>
    <mask id="mask-42" x="11.22863" y="6.54689" width="16.58738" height="7.85482" maskUnits="userSpaceOnUse">
      <g id="mask-2-43" data-name="mask-2">
        <path id="path-1-42" data-name="path-1" d="M11.22863,14.4017V6.54689H14.723a6.41445,6.41445,0,0,0-.71695,7.41519q.12822.22524.27415.43962ZM27.60571,6.54689V14.4017h-2.483a7.407,7.407,0,0,0,.675-1.14664l-2.09414-1.22459a4.0856,4.0856,0,0,1-1.85728,2.24905q-.1149.0653-.2336.12218h-3.361a3.27167,3.27167,0,0,1-1.24919-1.08788l8.81319-5.0076L25.57629,7.886a8.21233,8.21233,0,0,0-.94343-1.33911Zm-10.10543.65772a3.67982,3.67982,0,0,1,4.558.71871L15.91951,11.411a3.46874,3.46874,0,0,1,1.58077-4.20642Z" style="fill: #fff"/>
      </g>
    </mask>
    <mask id="mask-43" x="11.20172" y="6.54689" width="16.404" height="7.85482" maskUnits="userSpaceOnUse">
      <g id="mask-2-44" data-name="mask-2">
        <path id="path-1-43" data-name="path-1" d="M11.22863,14.4017V6.54689H14.723a6.41445,6.41445,0,0,0-.71695,7.41519q.12822.22524.27415.43962ZM27.60571,6.54689V14.4017h-2.483a7.407,7.407,0,0,0,.675-1.14664l-2.09414-1.22459a4.0856,4.0856,0,0,1-1.85728,2.24905q-.1149.0653-.2336.12218h-3.361a3.27167,3.27167,0,0,1-1.24919-1.08788l8.81319-5.0076L25.57629,7.886a8.21233,8.21233,0,0,0-.94343-1.33911Zm-10.10543.65772a3.67982,3.67982,0,0,1,4.558.71871L15.91951,11.411a3.46874,3.46874,0,0,1,1.58077-4.20642Z" style="fill: #fff"/>
      </g>
    </mask>
    <mask id="mask-83" x="11.22863" y="6.54689" width="16.41763" height="7.85482" maskUnits="userSpaceOnUse">
      <g id="mask-2-84" data-name="mask-2">
        <path id="path-1-83" data-name="path-1" d="M11.22863,14.4017V6.54689H14.723a6.41445,6.41445,0,0,0-.71695,7.41519q.12822.22524.27415.43962ZM27.60571,6.54689V14.4017h-2.483a7.407,7.407,0,0,0,.675-1.14664l-2.09414-1.22459a4.0856,4.0856,0,0,1-1.85728,2.24905q-.1149.0653-.2336.12218h-3.361a3.27167,3.27167,0,0,1-1.24919-1.08788l8.81319-5.0076L25.57629,7.886a8.21233,8.21233,0,0,0-.94343-1.33911Zm-10.10543.65772a3.67982,3.67982,0,0,1,4.558.71871L15.91951,11.411a3.46874,3.46874,0,0,1,1.58077-4.20642Z" style="fill: #fff"/>
      </g>
    </mask>
    <mask id="mask-84" x="11.12714" y="6.54689" width="16.47858" height="7.85482" maskUnits="userSpaceOnUse">
      <g id="mask-2-85" data-name="mask-2">
        <path id="path-1-84" data-name="path-1" d="M11.22863,14.4017V6.54689H14.723a6.41445,6.41445,0,0,0-.71695,7.41519q.12822.22524.27415.43962ZM27.60571,6.54689V14.4017h-2.483a7.407,7.407,0,0,0,.675-1.14664l-2.09414-1.22459a4.0856,4.0856,0,0,1-1.85728,2.24905q-.1149.0653-.2336.12218h-3.361a3.27167,3.27167,0,0,1-1.24919-1.08788l8.81319-5.0076L25.57629,7.886a8.21233,8.21233,0,0,0-.94343-1.33911Zm-10.10543.65772a3.67982,3.67982,0,0,1,4.558.71871L15.91951,11.411a3.46874,3.46874,0,0,1,1.58077-4.20642Z" style="fill: #fff"/>
      </g>
    </mask>
    <mask id="mask-123" x="11.22863" y="6.54689" width="16.44556" height="7.85482" maskUnits="userSpaceOnUse">
      <g id="mask-2-124" data-name="mask-2">
        <path id="path-1-123" data-name="path-1" d="M11.22863,14.4017V6.54689H14.723a6.41445,6.41445,0,0,0-.71695,7.41519q.12822.22524.27415.43962ZM27.60571,6.54689V14.4017h-2.483a7.407,7.407,0,0,0,.675-1.14664l-2.09414-1.22459a4.0856,4.0856,0,0,1-1.85728,2.24905q-.1149.0653-.2336.12218h-3.361a3.27167,3.27167,0,0,1-1.24919-1.08788l8.81319-5.0076L25.57629,7.886a8.21233,8.21233,0,0,0-.94343-1.33911Zm-10.10543.65772a3.67982,3.67982,0,0,1,4.558.71871L15.91951,11.411a3.46874,3.46874,0,0,1,1.58077-4.20642Z" style="fill: #fff"/>
      </g>
    </mask>
    <mask id="mask-124" x="11.2233" y="6.54689" width="16.38241" height="7.85482" maskUnits="userSpaceOnUse">
      <g id="mask-2-125" data-name="mask-2">
        <path id="path-1-124" data-name="path-1" d="M11.22863,14.4017V6.54689H14.723a6.41445,6.41445,0,0,0-.71695,7.41519q.12822.22524.27415.43962ZM27.60571,6.54689V14.4017h-2.483a7.407,7.407,0,0,0,.675-1.14664l-2.09414-1.22459a4.0856,4.0856,0,0,1-1.85728,2.24905q-.1149.0653-.2336.12218h-3.361a3.27167,3.27167,0,0,1-1.24919-1.08788l8.81319-5.0076L25.57629,7.886a8.21233,8.21233,0,0,0-.94343-1.33911Zm-10.10543.65772a3.67982,3.67982,0,0,1,4.558.71871L15.91951,11.411a3.46874,3.46874,0,0,1,1.58077-4.20642Z" style="fill: #fff"/>
      </g>
    </mask>
    <mask id="mask-164" x="11.22863" y="6.54689" width="16.54889" height="7.85482" maskUnits="userSpaceOnUse">
      <g id="mask-2-165" data-name="mask-2">
        <path id="path-1-164" data-name="path-1" d="M11.22863,14.4017V6.54689H14.723a6.41445,6.41445,0,0,0-.71695,7.41519q.12822.22524.27415.43962ZM27.60571,6.54689V14.4017h-2.483a7.407,7.407,0,0,0,.675-1.14664l-2.09414-1.22459a4.0856,4.0856,0,0,1-1.85728,2.24905q-.1149.0653-.2336.12218h-3.361a3.27167,3.27167,0,0,1-1.24919-1.08788l8.81319-5.0076L25.57629,7.886a8.21233,8.21233,0,0,0-.94343-1.33911Zm-10.10543.65772a3.67982,3.67982,0,0,1,4.558.71871L15.91951,11.411a3.46874,3.46874,0,0,1,1.58077-4.20642Z" style="fill: #fff"/>
      </g>
    </mask>
    <mask id="mask-165" x="12.87681" y="6.547" width="5.43174" height="4.22292" maskUnits="userSpaceOnUse">
      <g id="mask-4-2" data-name="mask-4">
        <path id="path-3" d="M17.61232,6.547l.69623.31079a3.88179,3.88179,0,0,0-.80827.34694,3.39638,3.39638,0,0,0-1.72158,3.56519l-2.62432-.25924A6.30616,6.30616,0,0,1,14.72307,6.547Z" style="fill: #fff"/>
      </g>
    </mask>
    <mask id="mask-166" x="13.15438" y="6.547" width="5.15418" height="4.22292" maskUnits="userSpaceOnUse">
      <g id="mask-4-3" data-name="mask-4">
        <path id="path-3-2" data-name="path-3" d="M17.61232,6.547l.69623.31079a3.88179,3.88179,0,0,0-.80827.34694,3.39638,3.39638,0,0,0-1.72158,3.56519l-2.62432-.25924A6.30616,6.30616,0,0,1,14.72307,6.547Z" style="fill: #fff"/>
      </g>
    </mask>
    <mask id="mask-176" x="13.15438" y="6.547" width="5.15418" height="4.28577" maskUnits="userSpaceOnUse">
      <g id="mask-4-13" data-name="mask-4">
        <path id="path-3-12" data-name="path-3" d="M17.61232,6.547l.69623.31079a3.88179,3.88179,0,0,0-.80827.34694,3.39638,3.39638,0,0,0-1.72158,3.56519l-2.62432-.25924A6.30616,6.30616,0,0,1,14.72307,6.547Z" style="fill: #fff"/>
      </g>
    </mask>
    <mask id="mask-177" x="13.15438" y="6.547" width="5.15418" height="4.44392" maskUnits="userSpaceOnUse">
      <g id="mask-4-14" data-name="mask-4">
        <path id="path-3-13" data-name="path-3" d="M17.61232,6.547l.69623.31079a3.88179,3.88179,0,0,0-.80827.34694,3.39638,3.39638,0,0,0-1.72158,3.56519l-2.62432-.25924A6.30616,6.30616,0,0,1,14.72307,6.547Z" style="fill: #fff"/>
      </g>
    </mask>
    <mask id="mask-178" x="13.15438" y="6.547" width="5.54105" height="4.6875" maskUnits="userSpaceOnUse">
      <g id="mask-4-15" data-name="mask-4">
        <path id="path-3-14" data-name="path-3" d="M17.61232,6.547l.69623.31079a3.88179,3.88179,0,0,0-.80827.34694,3.39638,3.39638,0,0,0-1.72158,3.56519l-2.62432-.25924A6.30616,6.30616,0,0,1,14.72307,6.547Z" style="fill: #fff"/>
      </g>
    </mask>
    <mask id="mask-179" x="12.9193" y="6.547" width="5.38925" height="4.22292" maskUnits="userSpaceOnUse">
      <g id="mask-4-16" data-name="mask-4">
        <path id="path-3-15" data-name="path-3" d="M17.61232,6.547l.69623.31079a3.88179,3.88179,0,0,0-.80827.34694,3.39638,3.39638,0,0,0-1.72158,3.56519l-2.62432-.25924A6.30616,6.30616,0,0,1,14.72307,6.547Z" style="fill: #fff"/>
      </g>
    </mask>
    <mask id="mask-191" x="13.15438" y="6.547" width="5.29055" height="4.22292" maskUnits="userSpaceOnUse">
      <g id="mask-4-28" data-name="mask-4">
        <path id="path-3-27" data-name="path-3" d="M17.61232,6.547l.69623.31079a3.88179,3.88179,0,0,0-.80827.34694,3.39638,3.39638,0,0,0-1.72158,3.56519l-2.62432-.25924A6.30616,6.30616,0,0,1,14.72307,6.547Z" style="fill: #fff"/>
      </g>
    </mask>
  </defs>
  <title>epay</title>
  <rect id="Rectangle" width="40" height="26" style="fill: #3e3e3e"/>
  <g>
    <path id="Fill-1" d="M11.299,22.06064V3.90116a.823.823,0,0,1,.85862-.78h14.5303a.75528.75528,0,0,1,.78217.78V22.06064a.82018.82018,0,0,1-.82028.8183H12.11946a.8203.8203,0,0,1-.8205-.8183Zm.93022-19.14345a1.11648,1.11648,0,0,0-1.15226,1.07415V21.971a1.1143,1.1143,0,0,0,1.11448,1.11178H26.57783A1.11423,1.11423,0,0,0,27.69231,21.971V3.99134a1.05171,1.05171,0,0,0-1.07659-1.07415Z" style="fill: #fff;stroke: #fff;stroke-width: 0.615384615384615px"/>
    <path id="Fill-4" d="M27.60571,22.04557a.96585.96585,0,0,1-.96724.96467H12.19576a.96575.96575,0,0,1-.96713-.96467V3.99543a.9677.9677,0,0,1,1.00506-.92678H26.67651a.90252.90252,0,0,1,.9292.92678V22.04557" style="fill: #72387e"/>
    <path id="Fill-5" d="M11.22863,18.31372v3.73185a.96575.96575,0,0,0,.96713.96467H26.63847a.96585.96585,0,0,0,.96724-.96467V18.31372H11.22863" style="fill: #1a1918"/>
    <path id="Fill-6" d="M16.01944,20.22536l.7968-.45119-.00545.93517-.79135-.484Zm6.93037-1.15516h.52064v1.43414a.52438.52438,0,0,0,.57026.58075.56008.56008,0,0,0,.60059-.63124V19.0702h.5203v2.36829A1.08651,1.08651,0,0,1,24.05582,22.514a1.18859,1.18859,0,0,1-1.02573-.47944l.44036-.273a.75927.75927,0,0,0,.55539.25753.60555.60555,0,0,0,.64555-.64111v-.13138h-.01011a.85963.85963,0,0,1-.7306.33321.99561.99561,0,0,1-.98087-1.09571V19.0702Zm-.90843,2.444h.52042v-2.444h-.52042v.298h-.0101a.9.9,0,0,0-.7708-.3635,1.30277,1.30277,0,0,0-1.28088,1.28744,1.25561,1.25561,0,0,0,1.2559,1.28767.99116.99116,0,0,0,.79578-.3635h.0101v.29781Zm-1.51116-1.222a.766.766,0,1,1,.77057.79291.78431.78431,0,0,1-.77057-.79291Zm-2.83644-1.222h-.52053v3.28724h.52053V21.21635h.0101a.89981.89981,0,0,0,.77057.3635,1.303,1.303,0,0,0,1.281-1.28767,1.25546,1.25546,0,0,0-1.25579-1.28744.98811.98811,0,0,0-.79578.3635h-.0101v-.298Zm1.51139,1.222a.76616.76616,0,1,1-.77091-.7929.78468.78468,0,0,1,.77091.7929Zm-4.74493-.74163a.72979.72979,0,0,1,.90422.1425l-1.21786.69216a.68814.68814,0,0,1,.31364-.83466Zm.86221,1.40385a.73225.73225,0,0,1-.96112-.19174l1.74872-.9936-.04758-.08338a1.31026,1.31026,0,0,0-1.77131-.57373,1.2888,1.2888,0,1,0,1.27429,2.23862,1.358,1.358,0,0,0,.54108-.59959l-.4156-.2429a.81057.81057,0,0,1-.36848.44632Z" style="fill: #fff"/>
    <path id="Fill-7" d="M17.50028,7.20461a3.67982,3.67982,0,0,1,4.558.71871L15.91951,11.411a3.46874,3.46874,0,0,1,1.58077-4.20642Zm4.346,7.07491a3.68964,3.68964,0,0,1-4.84383-.9657l8.81319-5.0076L25.57629,7.886a6.60233,6.60233,0,0,0-8.92743-2.89095,6.49544,6.49544,0,1,0,6.42177,11.28268,6.84816,6.84816,0,0,0,2.72709-3.02267l-2.09415-1.22459a4.08554,4.08554,0,0,1-1.85727,2.24905Z" style="fill: #fff"/>
    <g id="Group-173">
      <g style="mask: url(#mask)">
        <path id="Fill-8" d="M11.22829,9.79742l-.07063.00578.0369.44235.07075-.006-.01283-.15338h.00125a.12371.12371,0,0,0,.10889.03993.17655.17655,0,0,0,.15966-.18764.17047.17047,0,0,0-.18509-.15906.13539.13539,0,0,0-.10413.058h-.00148l-.00329-.03993Zm.21916.14726a.10441.10441,0,1,1-.11356-.09791.10667.10667,0,0,1,.11356.09791Z" style="fill: #c7bacc"/>
      </g>
      <g style="mask: url(#mask-2-2)">
        <path id="Fill-10" d="M11.59291,9.768l.07741-.00488.00316.036.00158-.00011a.0805.0805,0,0,1,.07134-.04958.09706.09706,0,0,1,.046.00737l-.02348.07193a.06708.06708,0,0,0-.03151-.0076.0513.0513,0,0,0-.05262.05309l.01846.21772-.08215.0051-.02822-.329" style="fill: #c7bacc"/>
      </g>
      <g style="mask: url(#mask-2-2)">
        <path id="Fill-11" d="M12.08471,9.96a.11657.11657,0,0,1-.09209.05707.09945.09945,0,0,1-.1064-.08l.27389-.01725-.00091-.013a.1775.1775,0,0,0-.18271-.17414.17406.17406,0,1,0,.022.347.2.2,0,0,0,.1483-.09008L12.08471,9.96Zm-.20213-.08134a.09351.09351,0,0,1,.08835-.08282.09912.09912,0,0,1,.10231.07079l-.19066.012Z" style="fill: #c7bacc"/>
      </g>
      <g style="mask: url(#mask-2-2)">
        <polyline id="Fill-12" points="12.23 9.805 12.388 9.797 12.393 9.876 12.234 9.884 12.23 9.805" style="fill: #c7bacc"/>
      </g>
      <g style="mask: url(#mask-2-2)">
        <path id="Fill-13" d="M12.53029,9.71153l-.07086.00284.01828.44348.07086-.00284-.00624-.154h.00125a.12256.12256,0,0,0,.10719.04447.17642.17642,0,0,0,.16715-.18095.17.17,0,0,0-.17817-.16643.13515.13515,0,0,0-.10639.05343h-.00148l-.00159-.04005Zm.21268.15634a.10437.10437,0,1,1-.10923-.10279.106.106,0,0,1,.10923.10279Z" style="fill: #c7bacc"/>
      </g>
      <g style="mask: url(#mask-2-2)">
        <path id="Fill-14" d="M13.16187,10.0208l.071-.00159-.00806-.33-.07086.00171.00091.04039h-.00125a.12337.12337,0,0,0-.10628-.04663.17689.17689,0,0,0-.17045.17823.17041.17041,0,0,0,.17544.16961.13669.13669,0,0,0,.1072-.05174H13.161l.00091.04ZM12.952,9.861a.10442.10442,0,1,1,.10742.10437A.1062.1062,0,0,1,12.952,9.861Z" style="fill: #c7bacc"/>
      </g>
      <g style="mask: url(#mask-2-2)">
        <path id="Fill-15" d="M13.33584,9.6876l.071-.00046.00113.19378a.071.071,0,0,0,.07835.07771.0757.0757,0,0,0,.08131-.08554l-.001-.18685.071-.00046.0017.31993a.14746.14746,0,0,1-.14978.146.16269.16269,0,0,1-.14024-.0641l.05985-.03709a.10309.10309,0,0,0,.07585.03437.08213.08213,0,0,0,.08744-.08713v-.0177h-.00148a.11755.11755,0,0,1-.09936.04561.13519.13519,0,0,1-.13467-.14726l-.001-.19082" style="fill: #c7bacc"/>
      </g>
      <g style="mask: url(#mask-2-2)">
        <path id="Fill-16" d="M14.20565,9.9204a.11761.11761,0,0,1-.097.04844.09908.09908,0,0,1-.09845-.08917l.27411.00726.00023-.013a.17731.17731,0,0,0-.16624-.1898.174.174,0,1,0-.0092.3475.19913.19913,0,0,0,.15557-.07647l-.059-.03471Zm-.194-.09927a.09365.09365,0,0,1,.09539-.07465.09916.09916,0,0,1,.0955.07964l-.19089-.005Z" style="fill: #c7bacc"/>
      </g>
      <g style="mask: url(#mask-2-2)">
        <polyline id="Fill-17" points="14.391 9.78 14.549 9.788 14.546 9.866 14.387 9.859 14.391 9.78" style="fill: #c7bacc"/>
      </g>
      <g style="mask: url(#mask-2-2)">
        <path id="Fill-18" d="M14.72527,9.72016l-.071-.00522-.03248.44268.07075.00522.01124-.15361.00148.00023a.12338.12338,0,0,0,.10117.05661.177.177,0,0,0,.187-.16065.17029.17029,0,0,0-.15818-.18594.13716.13716,0,0,0-.11185.04084h-.00124l.00306-.04016ZM14.91865,9.9a.1045.1045,0,1,1-.09686-.11459A.10647.10647,0,0,1,14.91865,9.9Z" style="fill: #c7bacc"/>
      </g>
      <g style="mask: url(#mask-2-2)">
        <path id="Fill-19" d="M15.33426,10.10861l.07063.00794.03747-.32787-.0704-.008-.00466.04-.00136-.00011a.12254.12254,0,0,0-.09879-.06081.177.177,0,0,0-.1935.15282.1705.1705,0,0,0,.15057.1923.13667.13667,0,0,0,.11333-.03653l.00125.00011-.00454.04016Zm-.18589-.18753a.10439.10439,0,1,1,.09232.11833.10655.10655,0,0,1-.09232-.11833Z" style="fill: #c7bacc"/>
      </g>
      <g style="mask: url(#mask-2-2)">
        <path id="Fill-20" d="M15.58339,9.80842l.07.0118-.032.19071a.07117.07117,0,0,0,.0637.09042.07589.07589,0,0,0,.09471-.07045l.03111-.18436.06995.0118-.053.31539a.14784.14784,0,0,1-.17294.11822.162.162,0,0,1-.12707-.08713l.06529-.02632a.10356.10356,0,0,0,.06893.04674.08226.08226,0,0,0,.10129-.07068l.00284-.01747-.00125-.00023a.11792.11792,0,0,1-.10583.02791.135.135,0,0,1-.10731-.16813l.03168-.18822" style="fill: #c7bacc"/>
      </g>
      <g style="mask: url(#mask-2-2)">
        <path id="Fill-21" d="M16.31513,9.958,16.247,9.93787l-.12468.42612.06813.01985.04315-.14782.00136.00034a.12347.12347,0,0,0,.0871.07646.1767.1767,0,0,0,.21654-.118.17018.17018,0,0,0-.11548-.21476.136.136,0,0,0-.1181.01668l-.00125-.00045.01136-.03835Zm.15148.2159a.10443.10443,0,1,1-.07086-.13206.10659.10659,0,0,1,.07086.13206Z" style="fill: #c7bacc"/>
      </g>
      <g style="mask: url(#mask-2-2)">
        <path id="Fill-22" d="M16.69156,10.07639l.06313.02167-.01169.03426.00136.00034a.072.072,0,0,1,.10935.00068l-.04667.05832a.052.052,0,0,0-.022-.0177.04878.04878,0,0,0-.06268.03109l-.07063.20659-.06722-.023.10708-.31222" style="fill: #c7bacc"/>
      </g>
      <g style="mask: url(#mask-2-2)">
        <path id="Fill-23" d="M17.0882,10.45407a.11693.11693,0,0,1-.1072.01588.09942.09942,0,0,1-.06586-.11549l.25811.09246.00454-.012a.17755.17755,0,0,0-.09856-.23246.17408.17408,0,1,0-.11764.3273.20029.20029,0,0,0,.1718-.02382l-.04519-.05185Zm-.1533-.15486a.09394.09394,0,0,1,.11412-.041.09922.09922,0,0,1,.06586.10563l-.18-.06467Z" style="fill: #c7bacc"/>
      </g>
      <g style="mask: url(#mask-2-2)">
        <polyline id="Fill-24" points="17.307 10.376 17.456 10.433 17.428 10.507 17.28 10.45 17.307 10.376" style="fill: #c7bacc"/>
      </g>
      <g style="mask: url(#mask-2-2)">
        <path id="Fill-25" d="M17.63586,10.41935l-.06608-.02586-.16182.4133.066.026.05632-.14363.00114.00057a.123.123,0,0,0,.08.08395.177.177,0,0,0,.22608-.09836.17022.17022,0,0,0-.09606-.22429.13552.13552,0,0,0-.11912.00635l-.00113-.00068.01464-.03733Zm.13173.22883a.10441.10441,0,1,1-.05882-.13818.10665.10665,0,0,1,.05882.13818Z" style="fill: #c7bacc"/>
      </g>
      <g style="mask: url(#mask-2-2)">
        <path id="Fill-26" d="M18.10791,10.96392l.06552.027.12536-.3053-.06564-.02688-.01521.03721-.00136-.00046a.12275.12275,0,0,0-.07847-.08542.17655.17655,0,0,0-.22767.09473.17.17,0,0,0,.09243.22565.135.135,0,0,0,.11889-.00442l.00136.00068-.01521.03721Zm-.12809-.23065a.10431.10431,0,1,1,.05666.13864.10668.10668,0,0,1-.05666-.13864Z" style="fill: #c7bacc"/>
      </g>
      <g style="mask: url(#mask-2-2)">
        <path id="Fill-27" d="M18.41791,10.73566l.06552.02779-.07631.17812a.07106.07106,0,0,0,.04065.10256.07611.07611,0,0,0,.1089-.04618l.07335-.17187.06541.028-.12605.29395a.14757.14757,0,0,1-.19565.07431.16218.16218,0,0,1-.1031-.11459l.06949-.01021a.10486.10486,0,0,0,.0561.06172.08213.08213,0,0,0,.115-.04493l.00715-.01633-.00136-.00046a.1187.1187,0,0,1-.10935.00216.13491.13491,0,0,1-.06484-.18867l.07506-.17539" style="fill: #c7bacc"/>
      </g>
      <g style="mask: url(#mask-2-2)">
        <path id="Fill-28" d="M19.32008,11.37915a.11666.11666,0,0,1-.108.00715.09941.09941,0,0,1-.0561-.12072l.2497.11357.00557-.01169a.17737.17737,0,0,0-.07892-.23961.17405.17405,0,1,0-.14444.31631.20024.20024,0,0,0,.17317-.00965l-.041-.05536Zm-.13967-.16689a.09382.09382,0,0,1,.11708-.03142.09883.09883,0,0,1,.05655.11072l-.17363-.0793Z" style="fill: #c7bacc"/>
      </g>
      <g style="mask: url(#mask-2-2)">
        <polyline id="Fill-29" points="19.524 11.309 19.668 11.376 19.636 11.446 19.492 11.379 19.524 11.309" style="fill: #c7bacc"/>
      </g>
      <g style="mask: url(#mask-2-2)">
        <path id="Fill-30" d="M19.82574,11.3661l-.06416-.0304-.19.40127.06393.03029.06609-.1392.00114.00057a.12419.12419,0,0,0,.074.08928.17672.17672,0,0,0,.23232-.08248.17019.17019,0,0,0-.08028-.23042.13648.13648,0,0,0-.11911-.00192l-.00114-.00057.01715-.03642Zm.11582.23734a.1045.1045,0,1,1-.04917-.1417.107.107,0,0,1,.04917.1417Z" style="fill: #c7bacc"/>
      </g>
      <g style="mask: url(#mask-2-2)">
        <path id="Fill-31" d="M20.24316,11.93143l.06381.03086.14365-.29725-.06382-.03085-.01737.03641-.00136-.00068a.12287.12287,0,0,0-.07313-.09.17722.17722,0,0,0-.23313.08066.17047.17047,0,0,0,.0787.23121.13565.13565,0,0,0,.119.00272l.001.00057-.01737.03631Zm-.11378-.23814a.10446.10446,0,1,1,.04814.142.10638.10638,0,0,1-.04814-.142Z" style="fill: #c7bacc"/>
      </g>
      <g style="mask: url(#mask-2-2)">
        <path id="Fill-32" d="M20.54793,11.71247l.06393.03131-.08516.17392a.07092.07092,0,0,0,.0352.1046.07609.07609,0,0,0,.11106-.0405l.0821-.1678.06393.0312-.14081.28692a.1476.1476,0,0,1-.19917.06433.16246.16246,0,0,1-.09743-.11969l.07029-.0067a.1038.1038,0,0,0,.05269.06444.08226.08226,0,0,0,.11718-.03891l.008-.016-.00136-.00056a.11847.11847,0,0,1-.10947-.00329A.13506.13506,0,0,1,20.464,11.884l.08391-.17153" style="fill: #c7bacc"/>
      </g>
      <g style="mask: url(#mask-2-2)">
        <path id="Fill-33" d="M21.15874,12.01277l-.06371-.0312-.19678.39753.06336.03154.06824-.13807.00125.00046a.12375.12375,0,0,0,.07245.09064.17728.17728,0,0,0,.234-.07839.17064.17064,0,0,0-.07653-.23178.136.136,0,0,0-.11889-.00408l-.00148-.00057.01806-.03608Zm.11117.23927a.10428.10428,0,1,1-.04668-.14272.10622.10622,0,0,1,.04668.14272Z" style="fill: #c7bacc"/>
      </g>
      <g style="mask: url(#mask-2-2)">
        <path id="Fill-34" d="M21.48463,12.1741l.06.02961-.016.03222.00125.00068a.07068.07068,0,0,1,.0779-.01169.074.074,0,0,1,.03043.02632l-.05383.05185a.05124.05124,0,0,0-.01953-.02031.04869.04869,0,0,0-.0662.02292l-.09663.19559-.06359-.03143.14625-.29576" style="fill: #c7bacc"/>
      </g>
      <g style="mask: url(#mask-2-2)">
        <path id="Fill-35" d="M21.813,12.58615a.11814.11814,0,0,1-.10844.00409.10006.10006,0,0,1-.05258-.1223l.24641.12059.00568-.01146a.17756.17756,0,0,0-.07211-.242.174.174,0,1,0-.15329.31211.19966.19966,0,0,0,.17328-.00454l-.03895-.0565Zm-.13524-.171a.09454.09454,0,0,1,.118-.02814.0996.0996,0,0,1,.05371.11232l-.17169-.08418Z" style="fill: #c7bacc"/>
      </g>
      <g style="mask: url(#mask-2-2)">
        <polyline id="Fill-36" points="22.021 12.521 22.164 12.59 22.13 12.659 21.987 12.591 22.021 12.521" style="fill: #c7bacc"/>
      </g>
      <g style="mask: url(#mask-2-2)">
        <path id="Fill-37" d="M22.32266,12.5815l-.0645-.02972-.18771.40229.0645.02973.065-.13955.00113.00046a.12436.12436,0,0,0,.07449.08905.17705.17705,0,0,0,.232-.08406.16968.16968,0,0,0-.08164-.22963.13518.13518,0,0,0-.11924-.00136l-.001-.00057.017-.03664Zm.117.23666a.10449.10449,0,1,1-.05008-.14125.10636.10636,0,0,1,.05008.14125Z" style="fill: #c7bacc"/>
      </g>
      <g style="mask: url(#mask-2-2)">
        <path id="Fill-38" d="M22.753,13.14l.06507.02893.13422-.30155-.06473-.02893-.01646.037-.00148-.00068a.12242.12242,0,0,0-.07574-.08758.17707.17707,0,0,0-.2304.08792.17033.17033,0,0,0,.08562.22838.13611.13611,0,0,0,.11923-.00068l.00114.00045L22.753,13.14Zm-.12105-.23451a.10454.10454,0,1,1,.05247.14068.10646.10646,0,0,1-.05247-.14068Z" style="fill: #c7bacc"/>
      </g>
      <g style="mask: url(#mask-2-2)">
        <path id="Fill-39" d="M23.051,12.91005l.06563.02768-.07506.17835a.07088.07088,0,0,0,.04111.10233.0759.0759,0,0,0,.10855-.04674l.07256-.17222.06541.02734-.12411.29509a.148.148,0,0,1-.19543.07533.16272.16272,0,0,1-.10379-.1139l.06973-.01067a.10406.10406,0,0,0,.05643.06138.082.082,0,0,0,.11446-.04572l.00716-.01645-.00148-.00034a.11732.11732,0,0,1-.10935.00261.13468.13468,0,0,1-.06575-.188l.07393-.17608" style="fill: #c7bacc"/>
      </g>
      <g style="mask: url(#mask-2-2)">
        <path id="Fill-40" d="M23.77807,13.44339a.11655.11655,0,0,1-.10709.01418.09921.09921,0,0,1-.064-.11674l.25652.09677.00477-.012a.17756.17756,0,0,0-.09482-.23393.174.174,0,1,0-.12286.32526.19978.19978,0,0,0,.17191-.021l-.04439-.05252Zm-.15035-.15725a.09381.09381,0,0,1,.11446-.03937.09959.09959,0,0,1,.06427.10665l-.17873-.06728Z" style="fill: #c7bacc"/>
      </g>
      <g style="mask: url(#mask-2-2)">
        <polyline id="Fill-41" points="23.992 13.363 24.142 13.416 24.116 13.491 23.967 13.437 23.992 13.363" style="fill: #c7bacc"/>
      </g>
      <g style="mask: url(#mask-2-2)">
        <path id="Fill-42" d="M24.31177,13.39222l-.06757-.0219-.13706.42215.06745.0219.04735-.14658.00137.00045a.123.123,0,0,0,.08494.07908.17661.17661,0,0,0,.21972-.11141.17013.17013,0,0,0-.109-.21828.13556.13556,0,0,0-.11844.01316l-.00136-.00022.01261-.03835Zm.14489.22032a.10441.10441,0,1,1-.06677-.1341.10623.10623,0,0,1,.06677.1341Z" style="fill: #c7bacc"/>
      </g>
      <g style="mask: url(#mask-2-2)">
        <path id="Fill-43" d="M24.82457,13.894l.06836.01952.09107-.317-.068-.01974-.01124.03892-.00114-.00046a.12384.12384,0,0,0-.08766-.07635.17687.17687,0,0,0-.21586.119.17.17,0,0,0,.11673.21431.135.135,0,0,0,.11764-.01725l.00114.00046-.011.03857Zm-.15239-.21533a.10445.10445,0,1,1,.07143.13172.10637.10637,0,0,1-.07143-.13172Z" style="fill: #c7bacc"/>
      </g>
      <g style="mask: url(#mask-2-2)">
        <path id="Fill-44" d="M25.10107,13.62752l.06882.01724-.04679.188a.07113.07113,0,0,0,.05655.09473.07608.07608,0,0,0,.1-.063l.0452-.1814.06892.01724-.07744.31029a.14766.14766,0,0,1-.18134.1046.162.162,0,0,1-.11992-.09655l.06677-.02144a.10346.10346,0,0,0,.06541.052.08213.08213,0,0,0,.10628-.06262l.00421-.01725-.00137-.00034a.11741.11741,0,0,1-.1073.01974.13483.13483,0,0,1-.094-.176l.046-.18526" style="fill: #c7bacc"/>
      </g>
      <g style="mask: url(#mask-2-2)">
        <path id="Fill-45" d="M25.79023,13.78544l-.06984-.01316-.08221.4361.06983.01316.02873-.15123.00125.00012a.123.123,0,0,0,.094.06773.17664.17664,0,0,0,.20383-.13853.17057.17057,0,0,0-.13615-.20273.13481.13481,0,0,0-.11537.02836l-.00147-.00034.00738-.03948Zm.17169.20024a.10427.10427,0,1,1-.08312-.12468.1061.1061,0,0,1,.08312.12468Z" style="fill: #c7bacc"/>
      </g>
      <g style="mask: url(#mask-2-2)">
        <path id="Fill-46" d="M26.16639,13.85113l.07661.01032-.00607.03551.00159.00023a.087.087,0,0,1,.08215-.03449.08963.08963,0,0,1,.04286.01611l-.04128.06557a.06433.06433,0,0,0-.02914-.01361.05571.05571,0,0,0-.065.04164l-.0389.21567-.08137-.0109.05856-.32605" style="fill: #c7bacc"/>
      </g>
      <g style="mask: url(#mask-2-2)">
        <path id="Fill-47" d="M26.61315,14.14054a.11746.11746,0,0,1-.101.03925.09939.09939,0,0,1-.08971-.098l.2723.033.00159-.01282a.17765.17765,0,0,0-.14762-.2049.17409.17409,0,1,0-.04213.34524.1994.1994,0,0,0,.162-.06138l-.05552-.04039Zm-.18351-.11708a.0934.0934,0,0,1,.10186-.06523.099.099,0,0,1,.08766.08837l-.18952-.02314Z" style="fill: #c7bacc"/>
      </g>
      <g style="mask: url(#mask-2-2)">
        <polyline id="Fill-48" points="26.798 14.011 26.955 14.025 26.949 14.104 26.791 14.09 26.798 14.011" style="fill: #c7bacc"/>
      </g>
      <g style="mask: url(#mask-2-2)">
        <path id="Fill-49" d="M27.11516,13.95845l-.071-.00374-.02282.44336.07086.00363.008-.154h.00136a.12241.12241,0,0,0,.10254.05434.17616.17616,0,0,0,.183-.16461.1699.1699,0,0,0-.1617-.18221.13478.13478,0,0,0-.11094.04334h-.00136l.002-.04016Zm.19725.17528a.10447.10447,0,1,1-.09936-.11231.10646.10646,0,0,1,.09936.11231Z" style="fill: #c7bacc"/>
      </g>
      <g style="mask: url(#mask-42)">
        <path id="Fill-50" d="M27.74459,14.30527l.071.00011.00046-.3298-.07075-.00022v.04016H27.7438a.12338.12338,0,0,0-.10493-.04935.17675.17675,0,0,0-.175.17358.17017.17017,0,0,0,.17078.17426.13544.13544,0,0,0,.10856-.049h.00136v.04027Zm-.20576-.1653a.10445.10445,0,1,1,.105.10721.10626.10626,0,0,1-.105-.10721Z" style="fill: #c7bacc"/>
      </g>
      <g style="mask: url(#mask-43)">
        <path id="Fill-51" d="M11.27189,7.99616l-.07017.01044.06586.43916.07017-.01055-.02293-.15247.00136-.00023a.1229.1229,0,0,0,.11128.033.1766.1766,0,0,0,.14683-.19774.17014.17014,0,0,0-.19509-.14658.13515.13515,0,0,0-.09993.06455l-.00136.00023-.006-.03982Zm.22836.13251a.10452.10452,0,1,1-.11991-.09008.10658.10658,0,0,1,.11991.09008Z" style="fill: #c7bacc"/>
      </g>
      <g style="mask: url(#mask-2-2)">
        <path id="Fill-52" d="M11.63356,7.943l.07688-.00942.0058.03585.00145-.00011a.07807.07807,0,0,1,.06739-.05355.09413.09413,0,0,1,.04628.00465l-.0174.07295a.07331.07331,0,0,0-.03231-.00578.05055.05055,0,0,0-.0484.05627l.03548.21589-.08163.01L11.63356,7.943" style="fill: #c7bacc"/>
      </g>
      <g style="mask: url(#mask-2-2)">
        <path id="Fill-53" d="M12.13706,8.10121a.11767.11767,0,0,1-.08812.06342.09941.09941,0,0,1-.11151-.07272l.27207-.03585-.00181-.01282a.17764.17764,0,0,0-.19418-.16144.174.174,0,1,0,.04565.34466.20061.20061,0,0,0,.14183-.09983l-.06393-.02542Zm-.20735-.06727a.09407.09407,0,0,1,.08255-.08883.09942.09942,0,0,1,.10685.06376l-.1894.02507Z" style="fill: #c7bacc"/>
      </g>
      <g style="mask: url(#mask-2-2)">
        <polyline id="Fill-54" points="12.271 7.939 12.428 7.919 12.438 7.997 12.281 8.017 12.271 7.939" style="fill: #c7bacc"/>
      </g>
      <g style="mask: url(#mask-2-2)">
        <path id="Fill-55" d="M12.56379,7.822l-.07052.00806.05.44109.07052-.00794-.01737-.15338h.00125a.12329.12329,0,0,0,.11014.037.17691.17691,0,0,0,.154-.19252.17038.17038,0,0,0-.18986-.15328.135.135,0,0,0-.1022.061l-.00147.00011L12.56379,7.822Zm.22324.14091a.10442.10442,0,1,1-.11639-.09451.10619.10619,0,0,1,.11639.09451Z" style="fill: #c7bacc"/>
      </g>
      <g style="mask: url(#mask-2-2)">
        <path id="Fill-56" d="M13.216,8.08476l.07063-.00714L13.2543,7.7494l-.07074.00692.00409.04-.00148.00012a.12258.12258,0,0,0-.10935-.03846.1768.1768,0,0,0-.15682.19025.17044.17044,0,0,0,.18771.156.13558.13558,0,0,0,.1031-.05956l.00137-.00012.00386.04016Zm-.2212-.14408a.10444.10444,0,1,1,.11514.09621.10619.10619,0,0,1-.11514-.09621Z" style="fill: #c7bacc"/>
      </g>
      <g style="mask: url(#mask-2-2)">
        <path id="Fill-57" d="M13.36422,7.73931l.07086-.00579.0159.19287a.07118.07118,0,0,0,.084.0717.076.076,0,0,0,.07449-.09178l-.01545-.18606.07075-.006.02657.31869a.14758.14758,0,0,1-.13819.15724.16256.16256,0,0,1-.14478-.053l.05677-.04152a.10507.10507,0,0,0,.07835.02836.08231.08231,0,0,0,.08051-.09371l-.00147-.01759h-.00137a.1172.1172,0,0,1-.09561.05321.13488.13488,0,0,1-.14546-.13637l-.0159-.19025" style="fill: #c7bacc"/>
      </g>
      <g style="mask: url(#mask-2-2)">
        <path id="Fill-58" d="M14.24858,7.90222a.11732.11732,0,0,1-.09266.05627.09955.09955,0,0,1-.10572-.08066l.274-.01543-.00079-.01282A.17745.17745,0,0,0,14.142,7.674a.174.174,0,1,0,.01964.347.19988.19988,0,0,0,.14876-.08883l-.06177-.03Zm-.20168-.083a.094.094,0,0,1,.089-.08214.09935.09935,0,0,1,.10174.07136l-.19077.01078Z" style="fill: #c7bacc"/>
      </g>
      <g style="mask: url(#mask-2-2)">
        <polyline id="Fill-59" points="14.424 7.747 14.582 7.741 14.585 7.82 14.427 7.826 14.424 7.747" style="fill: #c7bacc"/>
      </g>
      <g style="mask: url(#mask-2-2)">
        <path id="Fill-60" d="M14.75423,7.65774l-.07109.00147.00784.44371.07086-.00137-.0025-.15395h.00125a.12265.12265,0,0,0,.10583.0472.17649.17649,0,0,0,.17158-.17687.17006.17006,0,0,0-.17408-.17086.13573.13573,0,0,0-.10776.05105H14.7548l-.00057-.04038Zm.20882.16144a.10441.10441,0,1,1-.10685-.10529.10645.10645,0,0,1,.10685.10529Z" style="fill: #c7bacc"/>
      </g>
      <g style="mask: url(#mask-2-2)">
        <path id="Fill-61" d="M15.4,7.98708l.071.00091.00534-.32969-.071-.00125-.00068.04028H15.4033a.1235.1235,0,0,0-.10436-.05083.1768.1768,0,0,0-.17737.17109.1706.1706,0,0,0,.16851.17664.13548.13548,0,0,0,.10913-.04742h.00148L15.4,7.98708Zm-.20337-.16824A.1044.1044,0,1,1,15.3,7.92763a.1065.1065,0,0,1-.10333-.10879Z" style="fill: #c7bacc"/>
      </g>
      <g style="mask: url(#mask-2-2)">
        <path id="Fill-62" d="M15.6195,7.66329l.07086.004-.011.19333a.07108.07108,0,0,0,.07313.08281A.07571.07571,0,0,0,15.839,7.863l.01079-.18652.071.00409-.0184.31925a.14778.14778,0,0,1-.159.13637.16317.16317,0,0,1-.136-.07273l.06223-.03324a.10334.10334,0,0,0,.07369.039.08219.08219,0,0,0,.09278-.08146l.00091-.01758L15.83571,7.97a.118.118,0,0,1-.10209.03937.135.135,0,0,1-.12491-.15543l.01079-.1906" style="fill: #c7bacc"/>
      </g>
      <g style="mask: url(#mask-2-2)">
        <path id="Fill-63" d="M16.3677,7.72694l-.07006-.01055-.06586.43894.07006.01055.02294-.15236.00136.00022a.12253.12253,0,0,0,.09675.06388.17662.17662,0,0,0,.19849-.146.17023.17023,0,0,0-.14353-.19718.13549.13549,0,0,0-.11469.03244l-.00136-.00034.0059-.03959Zm.17942.19366a.10442.10442,0,1,1-.08812-.12151.10639.10639,0,0,1,.08812.12151Z" style="fill: #c7bacc"/>
      </g>
      <g style="mask: url(#mask-2-2)">
        <path id="Fill-64" d="M16.77757,7.7958l.073.01475-.009.03517.00152.00034a.08686.08686,0,0,1,.12166-.01089l-.045.06285a.06023.06023,0,0,0-.0268-.01509.05477.05477,0,0,0-.06578.03756l-.05423.21272-.07747-.01577.082-.32164" style="fill: #c7bacc"/>
      </g>
      <g style="mask: url(#mask-2-2)">
        <path id="Fill-65" d="M17.20652,8.15068a.11818.11818,0,0,1-.1064.02031.09951.09951,0,0,1-.07052-.11277l.26186.08168.004-.01225a.17766.17766,0,0,0-.10821-.22815.174.174,0,1,0-.1039.33184.2.2,0,0,0,.17067-.03108l-.04747-.04958Zm-.15931-.14851a.09376.09376,0,0,1,.1123-.04561.09926.09926,0,0,1,.07006.10245l-.18236-.05684Z" style="fill: #c7bacc"/>
      </g>
      <g style="mask: url(#mask-2-2)">
        <polyline id="Fill-66" points="17.428 8.066 17.578 8.116 17.554 8.191 17.404 8.141 17.428 8.066" style="fill: #c7bacc"/>
      </g>
      <g style="mask: url(#mask-2-2)">
        <path id="Fill-67" d="M17.76361,8.09634l-.06734-.02281-.14239.42034.06722.0228.0494-.146.00125.00045a.123.123,0,0,0,.0838.08021.177.177,0,0,0,.22143-.10868.17.17,0,0,0-.10663-.21942.13521.13521,0,0,0-.11843.01158l-.00137-.00046.01306-.038Zm.14217.22225a.10443.10443,0,1,1-.06518-.135.10647.10647,0,0,1,.06518.135Z" style="fill: #c7bacc"/>
      </g>
      <g style="mask: url(#mask-2-2)">
        <path id="Fill-68" d="M18.26892,8.619l.067.02349.109-.31154-.06722-.02337-.01317.038-.00137-.00046a.12213.12213,0,0,0-.083-.081.1769.1769,0,0,0-.22234.10653.17039.17039,0,0,0,.10435.22055.13576.13576,0,0,0,.11867-.01055l.00159.00045-.01352.03789Zm-.14023-.22372a.10449.10449,0,1,1,.06393.1358.10672.10672,0,0,1-.06393-.1358Z" style="fill: #c7bacc"/>
      </g>
      <g style="mask: url(#mask-2-2)">
        <path id="Fill-69" d="M18.57279,8.376l.06688.02383-.06506.18254a.07112.07112,0,0,0,.04712.09984.07594.07594,0,0,0,.10561-.05276l.06291-.17607.06665.02393-.10731.3011a.1476.1476,0,0,1-.19088.08611.16266.16266,0,0,1-.11-.10789l.06892-.01441a.10388.10388,0,0,0,.05985.05809.08231.08231,0,0,0,.112-.05208l.00579-.01667-.00136-.00046a.11713.11713,0,0,1-.10867.009.135.135,0,0,1-.07654-.18425l.06416-.17982" style="fill: #c7bacc"/>
      </g>
      <g style="mask: url(#mask-2-2)">
        <path id="Fill-70" d="M19.33712,8.89a.1175.1175,0,0,1-.10742.01531.09925.09925,0,0,1-.0653-.11572l.25777.0936.00454-.01225a.17725.17725,0,0,0-.09766-.23269.174.174,0,1,0-.11889.32674.19969.19969,0,0,0,.17181-.02315L19.33712,8.89Zm-.15262-.15566a.09374.09374,0,0,1,.114-.04039.09946.09946,0,0,1,.06552.10574l-.17953-.06535Z" style="fill: #c7bacc"/>
      </g>
      <g style="mask: url(#mask-2-2)">
        <polyline id="Fill-71" points="19.539 8.805 19.688 8.861 19.661 8.935 19.512 8.879 19.539 8.805" style="fill: #c7bacc"/>
      </g>
      <g style="mask: url(#mask-2-2)">
        <path id="Fill-72" d="M19.84867,8.83762l-.06688-.0245-.15364.41648.06677.0245.05326-.14476.00136.00057a.12328.12328,0,0,0,.08165.08247.177.177,0,0,0,.224-.1029.17044.17044,0,0,0-.10038-.22236.13588.13588,0,0,0-.11889.00874l-.00125-.00057.014-.03767Zm.13627.22588a.10451.10451,0,1,1-.06166-.13659.10653.10653,0,0,1,.06166.13659Z" style="fill: #c7bacc"/>
      </g>
      <g style="mask: url(#mask-2-2)">
        <path id="Fill-73" d="M20.31924,9.36313l.06654.02462.1148-.30938L20.434,9.05386,20.42,9.09153,20.4186,9.091a.122.122,0,0,0-.08131-.08248.177.177,0,0,0-.22426.10245.1702.1702,0,0,0,.1.22247.13586.13586,0,0,0,.11877-.00839l.00137.00034-.014.03778Zm-.136-.22622a.10448.10448,0,1,1,.06143.13682.10673.10673,0,0,1-.06143-.13682Z" style="fill: #c7bacc"/>
      </g>
      <g style="mask: url(#mask-2-2)">
        <path id="Fill-74" d="M20.60312,9.1166l.06654.0245-.06767.18153a.07122.07122,0,0,0,.04564.10063.07586.07586,0,0,0,.1064-.0514l.06507-.17505.06654.02473-.11128.29962a.14772.14772,0,0,1-.19213.08362.16179.16179,0,0,1-.10856-.1096l.06915-.01338a.10478.10478,0,0,0,.05882.059.08236.08236,0,0,0,.11276-.05048l.00636-.01679-.00159-.00046a.117.117,0,0,1-.10878.0076.13472.13472,0,0,1-.07381-.18526l.06654-.1788" style="fill: #c7bacc"/>
      </g>
      <g style="mask: url(#mask-2-2)">
        <path id="Fill-75" d="M21.24061,9.3536,21.174,9.32909l-.15511.41569.06654.02473.05394-.14431.00125.00057a.12265.12265,0,0,0,.08119.08259.1767.1767,0,0,0,.22449-.10177.1701.1701,0,0,0-.0997-.22293.1365.1365,0,0,0-.11877.00817l-.00137-.00045.0142-.03778Zm.13547.22667a.10443.10443,0,1,1-.06121-.13693.10641.10641,0,0,1,.06121.13693Z" style="fill: #c7bacc"/>
      </g>
      <g style="mask: url(#mask-2-2)">
        <path id="Fill-76" d="M21.58081,9.48055l.0628.02337-.01261.03381.00137.00034a.07069.07069,0,0,1,.07642-.0194.07364.07364,0,0,1,.03259.02326l-.048.05695a.05325.05325,0,0,0-.02168-.01838.04863.04863,0,0,0-.06348.02961l-.07608.20432-.06654-.02484.11525-.309" style="fill: #c7bacc"/>
      </g>
      <g style="mask: url(#mask-2-2)">
        <path id="Fill-77" d="M21.959,9.8614a.11728.11728,0,0,1-.10743.01464.09945.09945,0,0,1-.06438-.11629l.25708.09564.00466-.01214a.17729.17729,0,0,0-.09584-.23348.174.174,0,1,0-.12139.32583.19977.19977,0,0,0,.17181-.0219L21.959,9.8614Zm-.15114-.15679a.09329.09329,0,0,1,.11423-.03936.09887.09887,0,0,1,.06473.10607l-.179-.06671Z" style="fill: #c7bacc"/>
      </g>
      <g style="mask: url(#mask-2-2)">
        <polyline id="Fill-78" points="22.175 9.783 22.324 9.839 22.297 9.913 22.149 9.857 22.175 9.783" style="fill: #c7bacc"/>
      </g>
      <g style="mask: url(#mask-2-2)">
        <path id="Fill-79" d="M22.505,9.8243l-.06654-.02473-.15443.41614.06654.02485.0536-.14454.00147.00034a.12276.12276,0,0,0,.08142.08271.17675.17675,0,0,0,.224-.10245.16982.16982,0,0,0-.1-.22236.135.135,0,0,0-.11878.00828L22.49094,9.862,22.505,9.8243Zm.13593.22623a.10452.10452,0,1,1-.06144-.13683.10676.10676,0,0,1,.06144.13683Z" style="fill: #c7bacc"/>
      </g>
      <g style="mask: url(#mask-2-2)">
        <path id="Fill-80" d="M22.99818,10.35775l.06666.02428.11344-.30984-.06677-.02416-.01374.03778-.00136-.00057a.12231.12231,0,0,0-.08165-.08225.177.177,0,0,0-.22392.10335.17064.17064,0,0,0,.10106.22214.13554.13554,0,0,0,.11877-.009l.00148.00045-.014.03778Zm-.13671-.22554a.10443.10443,0,1,1,.06177.13648.10646.10646,0,0,1-.06177-.13648Z" style="fill: #c7bacc"/>
      </g>
      <g style="mask: url(#mask-2-2)">
        <path id="Fill-81" d="M23.30478,10.11712l.06733.02269-.06222.18345a.071.071,0,0,0,.04871.099.07586.07586,0,0,0,.10492-.05434l.06-.177.06711.02269-.10254.3028a.14781.14781,0,0,1-.18952.0894.16262.16262,0,0,1-.11162-.10619l.06859-.01555a.10411.10411,0,0,0,.06075.05718.082.082,0,0,0,.11094-.05389l.0059-.01679-.00136-.00056a.11709.11709,0,0,1-.10867.01077.13456.13456,0,0,1-.07938-.18276l.0611-.181" style="fill: #c7bacc"/>
      </g>
      <g style="mask: url(#mask-2-2)">
        <path id="Fill-82" d="M24.09772,10.59736a.11712.11712,0,0,1-.10538.02416.09955.09955,0,0,1-.07472-.11l.26458.07226.00341-.01248a.17747.17747,0,0,0-.11605-.22406.174.174,0,1,0-.09187.33536.20038.20038,0,0,0,.16942-.0371l-.04939-.0481Zm-.16454-.1425a.094.094,0,0,1,.1106-.04969.09955.09955,0,0,1,.07381.10018l-.18441-.05049Z" style="fill: #c7bacc"/>
      </g>
      <g style="mask: url(#mask-2-2)">
        <polyline id="Fill-83" points="24.291 10.493 24.445 10.531 24.427 10.607 24.273 10.57 24.291 10.493" style="fill: #c7bacc"/>
      </g>
      <g style="mask: url(#mask-2-2)">
        <path id="Fill-84" d="M24.60133,10.48493l-.06961-.01384-.08653.43542.06972.01373.03-.15112.00136.00034a.12215.12215,0,0,0,.09346.06841.17676.17676,0,0,0,.2053-.13648.17.17,0,0,0-.13422-.20375.13474.13474,0,0,0-.11594.02711l-.00136-.00045.00784-.03937Zm.1701.20183a.1044.1044,0,1,1-.08244-.12537.1069.1069,0,0,1,.08244.12537Z" style="fill: #c7bacc"/>
      </g>
      <g style="mask: url(#mask-2-2)">
        <path id="Fill-85" d="M25.16353,10.918l.07006.01044.04962-.32629-.07017-.01043-.00613.0397-.00125-.00022a.12307.12307,0,0,0-.09641-.0641.17647.17647,0,0,0-.19895.14555.17.17,0,0,0,.14342.19741.13432.13432,0,0,0,.11446-.03222l.00125.00023-.0059.03993Zm-.17908-.194a.10448.10448,0,1,1,.08812.12151.10625.10625,0,0,1-.08812-.12151Z" style="fill: #c7bacc"/>
      </g>
      <g style="mask: url(#mask-2-2)">
        <path id="Fill-86" d="M25.39007,10.61585l.07028.00783-.02146.19241a.07124.07124,0,0,0,.06848.08679.07589.07589,0,0,0,.09061-.07556l.02112-.18583.07052.00794-.03566.31789a.148.148,0,0,1-.16635.12741.16208.16208,0,0,1-.1315-.08l.06359-.02995a.10342.10342,0,0,0,.07143.043.08191.08191,0,0,0,.097-.07612l.00239-.01759-.00136-.00023a.11817.11817,0,0,1-.10425.0337.13481.13481,0,0,1-.11616-.16212l.02135-.18958" style="fill: #c7bacc"/>
      </g>
      <g style="mask: url(#mask-2-2)">
        <path id="Fill-87" d="M26.07036,10.68177l-.07085-.00477-.02964.4428.07086.00465.01022-.15372.00158.00011a.12294.12294,0,0,0,.10164.05593.17668.17668,0,0,0,.18588-.16155.1704.1704,0,0,0-.15943-.185.13579.13579,0,0,0-.11162.04175l-.00136-.00012.00272-.04Zm.19463.17834a.10445.10445,0,1,1-.09777-.1139.10648.10648,0,0,1,.09777.1139Z" style="fill: #c7bacc"/>
      </g>
      <g style="mask: url(#mask-2-2)">
        <path id="Fill-88" d="M26.43637,10.70378l.07754.00329-.00224.03607.00185.00012a.08429.08429,0,0,1,.07753-.04209.09507.09507,0,0,1,.04458.01214l-.03323.069a.06712.06712,0,0,0-.03033-.01077.054.054,0,0,0-.05974.04742l-.01213.21794-.082-.00341.01819-.32968" style="fill: #c7bacc"/>
      </g>
      <g style="mask: url(#mask-2-2)">
        <path id="Fill-89" d="M26.90282,10.94735a.11815.11815,0,0,1-.0972.04811.09973.09973,0,0,1-.09822-.08974l.27434.00862.00034-.01293a.17773.17773,0,0,0-.16545-.19083.17408.17408,0,1,0-.01078.34762.19895.19895,0,0,0,.15579-.07556l-.05882-.03529Zm-.19338-.10017a.09373.09373,0,0,1,.09584-.0742.09946.09946,0,0,1,.09516.08l-.191-.00578Z" style="fill: #c7bacc"/>
      </g>
      <g style="mask: url(#mask-2-2)">
        <polyline id="Fill-90" points="27.063 10.804 27.221 10.807 27.22 10.885 27.061 10.883 27.063 10.804" style="fill: #c7bacc"/>
      </g>
      <g style="mask: url(#mask-83)">
        <path id="Fill-91" d="M27.36612,10.73066l-.071-.00034-.00261.44382.07074.00057.001-.15418h.00125a.12362.12362,0,0,0,.10481.04969.1767.1767,0,0,0,.17589-.17267.17016.17016,0,0,0-.17-.17494.13548.13548,0,0,0-.10889.04856h-.00148l.00023-.04051Zm.20507.16632a.10444.10444,0,1,1-.10412-.10755.10632.10632,0,0,1,.10412.10755Z" style="fill: #c7bacc"/>
      </g>
      <g style="mask: url(#mask-84)">
        <path id="Fill-92" d="M11.41418,7.30524a.11743.11743,0,0,1-.08051.07238.09932.09932,0,0,1-.11878-.06l.26628-.06535-.003-.01248a.17793.17793,0,0,0-.21064-.13943.17409.17409,0,1,0,.083.33774.19944.19944,0,0,0,.12979-.11469l-.0662-.01816Zm-.21326-.04458a.0934.0934,0,0,1,.07234-.097.09927.09927,0,0,1,.11321.0515l-.18555.0455Z" style="fill: #c7bacc"/>
      </g>
      <g style="mask: url(#mask-2-2)">
        <polyline id="Fill-93" points="11.557 7.126 11.711 7.089 11.729 7.166 11.574 7.202 11.557 7.126" style="fill: #c7bacc"/>
      </g>
      <g style="mask: url(#mask-2-2)">
        <path id="Fill-94" d="M11.86385,6.9709l-.06938.01487.09345.43383.06938-.01486-.03259-.15044.00136-.00056a.123.123,0,0,0,.1131.02586.17669.17669,0,0,0,.13434-.20659.17068.17068,0,0,0-.20417-.134.13515.13515,0,0,0-.09573.0708l-.00136.00034-.0084-.03926Zm.23607.118a.10445.10445,0,1,1-.12513-.08259.10641.10641,0,0,1,.12513.08259Z" style="fill: #c7bacc"/>
      </g>
      <g style="mask: url(#mask-2-2)">
        <path id="Fill-95" d="M12.56538,7.16434l.06972-.0135-.06291-.32391-.06961.01339.00772.03948-.00147.00034a.12279.12279,0,0,0-.11253-.02825.17661.17661,0,0,0-.13831.20388.17006.17006,0,0,0,.20122.13806.13524.13524,0,0,0,.09708-.06875l.00137-.00034.00772.0396Zm-.23369-.12276a.10442.10442,0,1,1,.12343.08509.1063.1063,0,0,1-.12343-.08509Z" style="fill: #c7bacc"/>
      </g>
      <g style="mask: url(#mask-2-2)">
        <path id="Fill-96" d="M12.709,6.802l.07006-.01192.03259.19083a.07112.07112,0,0,0,.08982.06432.07617.07617,0,0,0,.06655-.0979l-.03157-.18413.07-.0118.05394.31505a.14762.14762,0,0,1-.12423.16859.1624.1624,0,0,1-.14887-.04039l.05314-.04629a.10345.10345,0,0,0,.0804.02144.082.082,0,0,0,.0721-.10006l-.00283-.01747-.00137.00011a.11733.11733,0,0,1-.09061.06115.13487.13487,0,0,1-.15682-.12332L12.709,6.802" style="fill: #c7bacc"/>
      </g>
      <g style="mask: url(#mask-2-2)">
        <path id="Fill-97" d="M13.44223,6.68614l-.07028.00931.05825.44.0704-.00931-.02033-.1527.00137-.00023a.123.123,0,0,0,.1106.035.1769.1769,0,0,0,.15046-.19525.17047.17047,0,0,0-.19259-.14987.13514.13514,0,0,0-.10129.06285l-.00125.00011-.00534-.03982Zm.22586.1366a.10437.10437,0,1,1-.118-.09235.10617.10617,0,0,1,.118.09235Z" style="fill: #c7bacc"/>
      </g>
      <g style="mask: url(#mask-2-2)">
        <path id="Fill-98" d="M13.83865,6.63656l.07714-.00726.00448.03585.00159-.00022a.07945.07945,0,0,1,.06923-.05162.09745.09745,0,0,1,.04615.006l-.02017.07261a.06869.06869,0,0,0-.032-.00658.05076.05076,0,0,0-.0505.05468L13.962,6.957l-.082.0076-.04127-.328" style="fill: #c7bacc"/>
      </g>
      <g style="mask: url(#mask-2-2)">
        <path id="Fill-99" d="M14.36656,6.81207a.11631.11631,0,0,1-.09085.05888.09921.09921,0,0,1-.10787-.07771l.27343-.023L14.44,6.75728a.1775.1775,0,0,0-.18612-.17041.1741.1741,0,1,0,.02919.3466.20069.20069,0,0,0,.14625-.09315l-.06279-.02825Zm-.20349-.07726a.09349.09349,0,0,1,.08641-.08463.09933.09933,0,0,1,.10379.06864l-.1902.016Z" style="fill: #c7bacc"/>
      </g>
      <g style="mask: url(#mask-2-2)">
        <polyline id="Fill-100" points="14.541 6.654 14.699 6.645 14.703 6.724 14.545 6.732 14.541 6.654" style="fill: #c7bacc"/>
      </g>
      <g style="mask: url(#mask-2-2)">
        <path id="Fill-101" d="M14.874,6.55874l-.071.0017.01078.44382.07086-.00182-.00363-.154h.00136a.123.123,0,0,0,.10628.0464.17663.17663,0,0,0,.17033-.17812.17047.17047,0,0,0-.17544-.1696.136.136,0,0,0-.1073.05184h-.00137l-.0009-.04027Zm.21.16008a.10437.10437,0,1,1-.10765-.10461.10631.10631,0,0,1,.10765.10461Z" style="fill: #c7bacc"/>
      </g>
      <g style="mask: url(#mask-2-2)">
        <path id="Fill-102" d="M15.52457,6.88831l.071.0017.008-.3298-.07108-.0017-.00068.04028-.00148-.00023a.12276.12276,0,0,0-.10379-.05162.177.177,0,0,0-.179.16972.17034.17034,0,0,0,.167.17789.135.135,0,0,0,.10958-.04663l.00147.00023-.001.04016Zm-.2019-.17a.10442.10442,0,1,1,.10232.10948.10649.10649,0,0,1-.10232-.10948Z" style="fill: #c7bacc"/>
      </g>
      <g style="mask: url(#mask-2-2)">
        <path id="Fill-103" d="M15.7502,6.56781l.07075.00579-.01568.19309a.07115.07115,0,0,0,.07109.08441.07583.07583,0,0,0,.08846-.07839L15.98,6.58653l.07075.0059-.026.31857a.14755.14755,0,0,1-.162.13251.16222.16222,0,0,1-.1341-.0759l.06279-.03176a.1039.1039,0,0,0,.07256.04073.082.082,0,0,0,.09471-.07919l.00158-.01759h-.00136a.11781.11781,0,0,1-.103.03665.13493.13493,0,0,1-.12116-.15849l.01544-.19015" style="fill: #c7bacc"/>
      </g>
      <g style="mask: url(#mask-2-2)">
        <path id="Fill-104" d="M16.61729,6.86948a.11715.11715,0,0,1-.10344.03233.09918.09918,0,0,1-.083-.10381l.26935.05117.0025-.01271a.17755.17755,0,0,0-.13354-.21419.17411.17411,0,1,0-.06507.34171.20066.20066,0,0,0,.166-.05048l-.05281-.044Zm-.17555-.12911a.094.094,0,0,1,.10629-.05831.09952.09952,0,0,1,.08153.09405l-.18782-.03574Z" style="fill: #c7bacc"/>
      </g>
      <g style="mask: url(#mask-2-2)">
        <polyline id="Fill-105" points="16.826 6.767 16.979 6.807 16.96 6.884 16.806 6.843 16.826 6.767" style="fill: #c7bacc"/>
      </g>
      <g style="mask: url(#mask-2-2)">
        <path id="Fill-106" d="M17.15644,6.77441,17.088,6.756l-.11548.42839.06858.0186.04-.14884.00137.00034a.12313.12313,0,0,0,.08868.07465.17693.17693,0,0,0,.21405-.12242.1701.1701,0,0,0-.12025-.21226.13523.13523,0,0,0-.11753.01917L17.146,6.81321l.01044-.0388Zm.15614.21283a.10445.10445,0,1,1-.0737-.13058.1066.1066,0,0,1,.0737.13058Z" style="fill: #c7bacc"/>
      </g>
      <g style="mask: url(#mask-2-2)">
        <path id="Fill-107" d="M17.688,7.26134l.06847.01883.08812-.31789-.06848-.01894-.01067.0388-.00136-.00034a.12267.12267,0,0,0-.08812-.07534.17693.17693,0,0,0-.21484.12094.1701.1701,0,0,0,.11877.21306.13509.13509,0,0,0,.11764-.01826l.00125.00034-.01078.0388Zm-.15455-.214a.10448.10448,0,1,1,.07279.13115.10636.10636,0,0,1-.07279-.13115Z" style="fill: #c7bacc"/>
      </g>
      <g style="mask: url(#mask-2-2)">
        <path id="Fill-108" d="M17.96858,6.99688l.06835.0194-.05291.18618a.07114.07114,0,0,0,.05371.09666.07593.07593,0,0,0,.10186-.05968l.051-.17982.06813.01929-.08709.30768a.14735.14735,0,0,1-.18453.0987.16208.16208,0,0,1-.117-.1004l.0678-.01906a.10422.10422,0,0,0,.06336.05411.08233.08233,0,0,0,.10833-.05945l.00477-.0169L18.113,7.34314a.118.118,0,0,1-.108.01622.13506.13506,0,0,1-.08846-.1788l.052-.18368" style="fill: #c7bacc"/>
      </g>
      <g style="mask: url(#mask-2-2)">
        <path id="Fill-109" d="M18.6659,7.19622l-.068-.02-.12457.426.068.02.04337-.14793.00125.00034a.12225.12225,0,0,0,.087.07657.17674.17674,0,0,0,.21654-.118.17012.17012,0,0,0-.1156-.21477.13536.13536,0,0,0-.118.01668l-.00125-.00045.01124-.03846Zm.1516.216a.10452.10452,0,1,1-.07086-.13217.10659.10659,0,0,1,.07086.13217Z" style="fill: #c7bacc"/>
      </g>
      <g style="mask: url(#mask-2-2)">
        <path id="Fill-110" d="M19.03978,7.30456l.06672.01906-.01076.03472.00153.00034a.07529.07529,0,0,1,.07819-.02473.07682.07682,0,0,1,.03561.02087l-.04613.06024a.05284.05284,0,0,0-.02354-.01679.05092.05092,0,0,0-.06376.0337l-.06483.2092-.071-.02031.09794-.3163" style="fill: #c7bacc"/>
      </g>
      <g style="mask: url(#mask-2-2)">
        <path id="Fill-111" d="M19.44749,7.66261a.11748.11748,0,0,1-.1064.02145.09928.09928,0,0,1-.07142-.11209l.26253.07918.00375-.01236a.17773.17773,0,0,0-.11026-.22713.1741.1741,0,1,0-.1005.333A.19968.19968,0,0,0,19.4953,7.712l-.04781-.04935Zm-.161-.14669a.09351.09351,0,0,1,.11185-.04674.09893.09893,0,0,1,.0712.10188l-.183-.05514Z" style="fill: #c7bacc"/>
      </g>
      <g style="mask: url(#mask-2-2)">
        <polyline id="Fill-112" points="19.659 7.572 19.811 7.619 19.788 7.694 19.637 7.647 19.659 7.572" style="fill: #c7bacc"/>
      </g>
      <g style="mask: url(#mask-2-2)">
        <path id="Fill-113" d="M19.98675,7.59261l-.06767-.02121-.13218.42374.06757.0211.046-.14726.00125.00045a.12271.12271,0,0,0,.08585.07817.17693.17693,0,0,0,.21859-.114.17023.17023,0,0,0-.11185-.21691.13582.13582,0,0,0-.11821.01463L19.97472,7.631l.012-.03835Zm.14751.21862a.10427.10427,0,1,1-.06836-.13341.10622.10622,0,0,1,.06836.13341Z" style="fill: #c7bacc"/>
      </g>
      <g style="mask: url(#mask-2-2)">
        <path id="Fill-114" d="M20.49877,8.09985l.06767.02156.1005-.31426-.06768-.02156-.01249.03824-.001-.00034a.12293.12293,0,0,0-.08517-.07862.177.177,0,0,0-.2195.11231.17038.17038,0,0,0,.11038.21771.13619.13619,0,0,0,.11843-.01372l.00114.00045-.01226.03823Zm-.146-.21986a.10445.10445,0,1,1,.06733.134.10632.10632,0,0,1-.06733-.134Z" style="fill: #c7bacc"/>
      </g>
      <g style="mask: url(#mask-2-2)">
        <path id="Fill-115" d="M20.78992,7.84686l.06745.02212-.06041.1839a.07109.07109,0,0,0,.04951.09871.07591.07591,0,0,0,.10424-.05571l.05825-.17732.06768.02189-.0997.30405a.1479.1479,0,0,1-.18884.091.16316.16316,0,0,1-.11265-.10506l.06848-.01622a.10468.10468,0,0,0,.06132.05661.08222.08222,0,0,0,.11048-.055l.00568-.01668-.00136-.00057a.11724.11724,0,0,1-.10856.01169.13486.13486,0,0,1-.08108-.18209l.05951-.18129" style="fill: #c7bacc"/>
      </g>
      <g style="mask: url(#mask-2-2)">
        <path id="Fill-116" d="M21.62748,8.36442a.11732.11732,0,0,1-.107.01724.09935.09935,0,0,1-.06734-.11481l.25935.08929.00443-.01225a.17768.17768,0,0,0-.10163-.231.174.174,0,1,0-.1131.32867.20043.20043,0,0,0,.17136-.026l-.04611-.05117Zm-.15511-.15282a.09377.09377,0,0,1,.11333-.04254.09936.09936,0,0,1,.06733.1046l-.18066-.06206Z" style="fill: #c7bacc"/>
      </g>
      <g style="mask: url(#mask-2-2)">
        <polyline id="Fill-117" points="21.828 8.277 21.978 8.331 21.952 8.405 21.802 8.351 21.828 8.277" style="fill: #c7bacc"/>
      </g>
      <g style="mask: url(#mask-2-2)">
        <path id="Fill-118" d="M22.14108,8.30758l-.06665-.02439-.153.41659.06632.02439.05337-.14465.00113.00057a.12343.12343,0,0,0,.08188.08225.1769.1769,0,0,0,.22381-.10312.17.17,0,0,0-.10084-.22214.13539.13539,0,0,0-.11877.00873l-.00114-.00045.01385-.03778Zm.13649.22588a.10442.10442,0,1,1-.06177-.13659.10645.10645,0,0,1,.06177.13659Z" style="fill: #c7bacc"/>
      </g>
      <g style="mask: url(#mask-2-2)">
        <path id="Fill-119" d="M22.60506,8.83615l.066.02564.12048-.30711-.066-.02576-.01465.03744-.00136-.00056a.12319.12319,0,0,0-.07983-.08407.17727.17727,0,0,0-.22619.09825.17026.17026,0,0,0,.09595.22429.13608.13608,0,0,0,.119-.00613l.00125.00057-.01465.03744Zm-.13172-.22895a.10439.10439,0,1,1,.05882.13807.10656.10656,0,0,1-.05882-.13807Z" style="fill: #c7bacc"/>
      </g>
      <g style="mask: url(#mask-2-2)">
        <path id="Fill-120" d="M22.9003,8.56364l.0687.01815-.04985.18708a.07137.07137,0,0,0,.05519.09575.07614.07614,0,0,0,.10106-.06149l.04769-.1805.0687.01816-.082.309a.14772.14772,0,0,1-.183.10176.16306.16306,0,0,1-.11855-.09825l.06745-.02042a.10385.10385,0,0,0,.06427.053.08233.08233,0,0,0,.10742-.06115l.00443-.017-.00136-.00046a.11715.11715,0,0,1-.10776.018.13488.13488,0,0,1-.0913-.17721l.04894-.18447" style="fill: #c7bacc"/>
      </g>
      <g style="mask: url(#mask-2-2)">
        <path id="Fill-121" d="M23.56072,8.74618l-.06824-.01906-.119.4276.06836.01894.04133-.14839.00125.00034a.1232.1232,0,0,0,.08812.07545.17689.17689,0,0,0,.21495-.12083.17013.17013,0,0,0-.11843-.21329.136.136,0,0,0-.11776.01827l-.00148-.00034.0109-.03869Zm.15444.214a.10444.10444,0,1,1-.07256-.13126.10652.10652,0,0,1,.07256.13126Z" style="fill: #c7bacc"/>
      </g>
      <g style="mask: url(#mask-2-2)">
        <path id="Fill-122" d="M23.92266,8.84227l.07074.016-.00942.03506.00137.00045a.08041.08041,0,0,1,.08041-.02791.0815.0815,0,0,1,.03865.01929l-.04534.06194a.05743.05743,0,0,0-.02565-.01565.05342.05342,0,0,0-.06517.03641l-.05786.21159-.07521-.01713.08748-.32005" style="fill: #c7bacc"/>
      </g>
      <g style="mask: url(#mask-2-2)">
        <path id="Fill-123" d="M24.33652,9.16992a.11767.11767,0,0,1-.10424.03018.09988.09988,0,0,1-.08074-.106l.26821.05729.003-.01259a.17716.17716,0,0,0-.129-.21692.174.174,0,1,0-.07267.3399.2015.2015,0,0,0,.16715-.04663l-.05167-.04527Zm-.1726-.13308a.09342.09342,0,0,1,.10742-.0557.09943.09943,0,0,1,.07937.09564l-.18679-.03994Z" style="fill: #c7bacc"/>
      </g>
      <g style="mask: url(#mask-2-2)">
        <polyline id="Fill-124" points="24.523 9.055 24.679 9.083 24.666 9.161 24.509 9.133 24.523 9.055" style="fill: #c7bacc"/>
      </g>
      <g style="mask: url(#mask-2-2)">
        <path id="Fill-125" d="M24.83343,9.02879l-.07029-.00987-.06245.43939.07017.00987.02169-.15248.00159.00023a.1227.1227,0,0,0,.09686.06342.177.177,0,0,0,.19758-.1476.17031.17031,0,0,0-.14512-.19627.13625.13625,0,0,0-.11446.03347l-.00125-.00023.00568-.03993Zm.18089.1923a.1045.1045,0,1,1-.089-.1206.10633.10633,0,0,1,.089.1206Z" style="fill: #c7bacc"/>
      </g>
      <g style="mask: url(#mask-2-2)">
        <path id="Fill-126" d="M25.416,9.43245l.07051.00737.03418-.32821L25.45,9.10412l-.0042.04016-.00125-.00011a.12371.12371,0,0,0-.09958-.05979.17675.17675,0,0,0-.19168.155.16977.16977,0,0,0,.15239.19049.135.135,0,0,0,.11287-.03756l.00136.00012-.004.04ZM25.228,9.24707a.10443.10443,0,1,1,.09334.11731.10629.10629,0,0,1-.09334-.11731Z" style="fill: #c7bacc"/>
      </g>
      <g style="mask: url(#mask-2-2)">
        <path id="Fill-127" d="M25.628,9.1208l.07074.00522-.0143.193a.071.071,0,0,0,.07165.084.07573.07573,0,0,0,.08789-.07885l.014-.18617.07085.00522-.02362.31879a.14768.14768,0,0,1-.16136.13353.16176.16176,0,0,1-.13444-.07476l.06245-.03233a.10365.10365,0,0,0,.073.04027.08228.08228,0,0,0,.09413-.07987l.00136-.01758-.00136-.00012a.118.118,0,0,1-.10265.03744.13492.13492,0,0,1-.12252-.15735L25.628,9.1208" style="fill: #c7bacc"/>
      </g>
      <g style="mask: url(#mask-2-2)">
        <path id="Fill-128" d="M26.48653,9.3958a.1186.1186,0,0,1-.09754.0472.09944.09944,0,0,1-.09743-.09065l.274.01112.00057-.013a.17755.17755,0,0,0-.16363-.19218.174.174,0,1,0-.01386.34738.19886.19886,0,0,0,.15648-.07408l-.0586-.03574ZM26.294,9.29358a.09327.09327,0,0,1,.09652-.073.099.099,0,0,1,.09425.08078L26.294,9.29358Z" style="fill: #c7bacc"/>
      </g>
      <g style="mask: url(#mask-2-2)">
        <polyline id="Fill-129" points="26.658 9.254 26.816 9.258 26.814 9.337 26.656 9.332 26.658 9.254" style="fill: #c7bacc"/>
      </g>
      <g style="mask: url(#mask-2-2)">
        <path id="Fill-130" d="M26.9722,9.18331l-.071-.0008-.006.44371.07086.001.00216-.15407h.00125a.123.123,0,0,0,.10458.05049.1767.1767,0,0,0,.17691-.17131.17017.17017,0,0,0-.16874-.1763.13547.13547,0,0,0-.10923.04765h-.00159l.00079-.04039Zm.20383.1679a.10445.10445,0,1,1-.20882-.00272.10445.10445,0,1,1,.20882.00272Z" style="fill: #c7bacc"/>
      </g>
      <g style="mask: url(#mask-123)">
        <path id="Fill-131" d="M27.603,9.51765h.0712v-.33l-.0712.00011v.04h-.00136a.12316.12316,0,0,0-.105-.049.17691.17691,0,0,0-.17476.17392.17044.17044,0,0,0,.17135.17381.136.136,0,0,0,.10856-.04913H27.603v.04028Zm-.2061-.165a.10444.10444,0,1,1,.10526.107.10625.10625,0,0,1-.10526-.107Z" style="fill: #c7bacc"/>
      </g>
      <g style="mask: url(#mask-124)">
        <path id="Fill-132" d="M11.5057,9.10072a.11806.11806,0,0,1-.08869.06239.09933.09933,0,0,1-.11071-.07374l.27219-.03335L11.5769,9.0432a.17727.17727,0,0,0-.1927-.163.174.174,0,1,0,.04247.34511.20085.20085,0,0,0,.14262-.09881l-.06359-.02575Zm-.20655-.06944a.09347.09347,0,0,1,.08323-.08792.09941.09941,0,0,1,.10629.06478l-.18952.02314Z" style="fill: #c7bacc"/>
      </g>
      <g style="mask: url(#mask-2-2)">
        <polyline id="Fill-133" points="11.642 8.977 11.799 8.959 11.808 9.038 11.65 9.055 11.642 8.977" style="fill: #c7bacc"/>
      </g>
      <g style="mask: url(#mask-2-2)">
        <path id="Fill-134" d="M11.93573,8.86406l-.07063.00714.04474.44156.07051-.007-.01544-.15338.00136-.00012a.12258.12258,0,0,0,.10935.03846A.177.177,0,0,0,12.232,9a.17033.17033,0,0,0-.18793-.15577.13609.13609,0,0,0-.103.05991l-.00136.00011-.004-.04016Zm.22154.14351a.1044.1044,0,1,1-.11526-.09575.10627.10627,0,0,1,.11526.09575Z" style="fill: #c7bacc"/>
      </g>
      <g style="mask: url(#mask-2-2)">
        <path id="Fill-135" d="M12.58468,9.135l.07074-.00624L12.627,8.80007l-.07052.006.00329.04028h-.00136a.12214.12214,0,0,0-.10878-.03994.17671.17671,0,0,0-.1592.18811.1706.1706,0,0,0,.18565.15871.13609.13609,0,0,0,.10379-.05831l.00125-.00023.00352.04028Zm-.2195-.14669a.10454.10454,0,1,1,.114.09756.10663.10663,0,0,1-.114-.09756Z" style="fill: #c7bacc"/>
      </g>
      <g style="mask: url(#mask-2-2)">
        <path id="Fill-136" d="M12.73718,8.79145l.07086-.00488.01363.19321a.071.071,0,0,0,.08312.07261.0758.0758,0,0,0,.07562-.09065l-.01328-.1864.07086-.00488.02259.31891a.14739.14739,0,0,1-.14035.15531.1626.1626,0,0,1-.144-.05468l.05734-.04095a.10377.10377,0,0,0,.0779.02938.0824.0824,0,0,0,.08187-.09258L12.992,9.06827h-.00137a.117.117,0,0,1-.09606.05185.13493.13493,0,0,1-.144-.13819l-.0134-.19048" style="fill: #c7bacc"/>
      </g>
      <g style="mask: url(#mask-2-2)">
        <path id="Fill-137" d="M13.47755,8.71079l-.071.0034.02055.44325.07086-.00318-.007-.15406h.00136a.12384.12384,0,0,0,.1072.04436A.17693.17693,0,0,0,13.766,8.8627a.17033.17033,0,0,0-.17907-.16576.135.135,0,0,0-.10594.05412h-.00137l-.002-.04027Zm.21348.15542a.10444.10444,0,1,1-.10992-.1021.10633.10633,0,0,1,.10992.1021Z" style="fill: #c7bacc"/>
      </g>
      <g style="mask: url(#mask-2-2)">
        <path id="Fill-138" d="M13.86477,8.69479l.0774-.00216.00132.03619h.00158a.08131.08131,0,0,1,.07372-.047.09493.09493,0,0,1,.04562.00907l-.027.07091a.06783.06783,0,0,0-.03112-.00874.0524.0524,0,0,0-.05525.05128l.00791.218-.08229.00216-.01186-.3298" style="fill: #c7bacc"/>
      </g>
      <g style="mask: url(#mask-2-2)">
        <path id="Fill-139" d="M14.37189,8.90842a.11788.11788,0,0,1-.0947.05252.09929.09929,0,0,1-.10231-.085l.27434-.00431-.00022-.013a.17741.17741,0,0,0-.17408-.18265.17408.17408,0,1,0,.00534.34772.20022.20022,0,0,0,.15216-.08282l-.06053-.03244Zm-.19792-.0911a.09349.09349,0,0,1,.09221-.07851.09949.09949,0,0,1,.0989.07556l-.19111.003Z" style="fill: #c7bacc"/>
      </g>
      <g style="mask: url(#mask-2-2)">
        <polyline id="Fill-140" points="14.549 8.76 14.708 8.76 14.708 8.839 14.549 8.839 14.549 8.76" style="fill: #c7bacc"/>
      </g>
      <g style="mask: url(#mask-2-2)">
        <path id="Fill-141" d="M14.85211,8.684l-.0712-.00147-.0084.44393.07074.00136.00307-.154h.00136a.12274.12274,0,0,0,.10413.05105.17657.17657,0,0,0,.17805-.1704.1701.1701,0,0,0-.16783-.1771.13521.13521,0,0,0-.10947.04708l-.00124-.00011.00079-.04039Zm.20281.169a.10452.10452,0,1,1-.10311-.109.10642.10642,0,0,1,.10311.109Z" style="fill: #c7bacc"/>
      </g>
      <g style="mask: url(#mask-2-2)">
        <path id="Fill-142" d="M15.45928,9.00814l.071.003.0151-.32935-.071-.0034-.00182.04039L15.4712,8.7185a.12278.12278,0,0,0-.10276-.05378.17656.17656,0,0,0-.18237.16553.1702.1702,0,0,0,.16306.18163.13535.13535,0,0,0,.1106-.04413h.00137l-.00182.04039Zm-.19838-.17437a.10444.10444,0,1,1,.10027.11174.10663.10663,0,0,1-.10027-.11174Z" style="fill: #c7bacc"/>
      </g>
      <g style="mask: url(#mask-2-2)">
        <path id="Fill-143" d="M15.70807,8.68991l.07075.00545-.01442.19286a.07115.07115,0,0,0,.07165.08407.07615.07615,0,0,0,.08811-.07885L15.938,8.707l.07086.00533-.02385.31891a.14781.14781,0,0,1-.16136.13354.16217.16217,0,0,1-.13456-.075l.06245-.03222a.10386.10386,0,0,0,.073.04028.08223.08223,0,0,0,.09425-.07987l.00136-.01758-.00136-.00012a.11794.11794,0,0,1-.10277.03744.135.135,0,0,1-.12229-.15747l.0143-.19037" style="fill: #c7bacc"/>
      </g>
      <g style="mask: url(#mask-2-2)">
        <path id="Fill-144" d="M16.60242,9.01461a.11713.11713,0,0,1-.10186.03721.09914.09914,0,0,1-.08778-.09984l.27162.03858.00182-.01294A.17766.17766,0,0,0,16.5428,8.77a.17408.17408,0,1,0-.04894.34432.20021.20021,0,0,0,.16329-.05809l-.05473-.04163Zm-.18135-.12049a.09381.09381,0,0,1,.10334-.0633.09968.09968,0,0,1,.086.09l-.1893-.02666Z" style="fill: #c7bacc"/>
      </g>
      <g style="mask: url(#mask-2-2)">
        <polyline id="Fill-145" points="16.783 8.894 16.939 8.922 16.925 9 16.769 8.972 16.783 8.894" style="fill: #c7bacc"/>
      </g>
      <g style="mask: url(#mask-2-2)">
        <path id="Fill-146" d="M17.10114,8.87427l-.06949-.01486-.09289.43406.06927.01486.03236-.15066.00136.00022a.12305.12305,0,0,0,.09255.07.17682.17682,0,0,0,.20712-.13353.16985.16985,0,0,0-.13093-.20557.13479.13479,0,0,0-.1165.02507l-.00136-.00011.00851-.03948Zm.16693.20455a.10444.10444,0,1,1-.08029-.12672.10641.10641,0,0,1,.08029.12672Z" style="fill: #c7bacc"/>
      </g>
      <g style="mask: url(#mask-2-2)">
        <path id="Fill-147" d="M17.62928,9.34225l.06847.01872.08732-.31823L17.71671,9.024l-.01067.0388-.00125-.00045a.12291.12291,0,0,0-.08834-.075.17684.17684,0,0,0-.21451.12139.17021.17021,0,0,0,.11912.21295.13548.13548,0,0,0,.11776-.01872l.00113.00045-.01067.0388Zm-.15489-.21363a.10441.10441,0,1,1,.0729.131.10616.10616,0,0,1-.0729-.131Z" style="fill: #c7bacc"/>
      </g>
      <g style="mask: url(#mask-2-2)">
        <path id="Fill-148" d="M17.90408,9.10117l.06631.02553-.06961.18072a.071.071,0,0,0,.04418.10109.07609.07609,0,0,0,.10719-.05015l.06711-.17426.06632.02541-.115.29849a.14779.14779,0,0,1-.193.08135.16311.16311,0,0,1-.1072-.11084l.06927-.0126a.104.104,0,0,0,.058.05968.08228.08228,0,0,0,.11333-.04924l.0067-.01656-.00136-.00046a.11853.11853,0,0,1-.10935.00613.13484.13484,0,0,1-.07154-.18606l.0687-.17823" style="fill: #c7bacc"/>
      </g>
      <g style="mask: url(#mask-2-2)">
        <path id="Fill-149" d="M18.56882,9.36188l-.06575-.02678-.16658.41138.066.02666.05769-.14284.00136.00057a.1224.1224,0,0,0,.07892.08486A.17688.17688,0,0,0,18.76765,9.62a.1704.1704,0,0,0-.09334-.22543.13538.13538,0,0,0-.11923.00511L18.55383,9.399l.015-.0371Zm.12933.23a.10442.10442,0,1,1-.05734-.13852.10658.10658,0,0,1,.05734.13852Z" style="fill: #c7bacc"/>
      </g>
      <g style="mask: url(#mask-2-2)">
        <path id="Fill-150" d="M18.93253,9.50948l.06177.02541-.01374.03347.00125.00057a.07051.07051,0,0,1,.077-.017.07429.07429,0,0,1,.03225.02428l-.05008.05548a.05334.05334,0,0,0-.02112-.019.04843.04843,0,0,0-.06438.02723l-.08335.20171-.06552-.02711.12593-.30507" style="fill: #c7bacc"/>
      </g>
      <g style="mask: url(#mask-2-2)">
        <path id="Fill-151" d="M19.31509,9.912a.1181.1181,0,0,1-.1081.01021.09918.09918,0,0,1-.05962-.11878l.253.10585.00511-.012a.17723.17723,0,0,0-.0863-.237.1741.1741,0,1,0-.13434.32083.20034.20034,0,0,0,.1726-.01509l-.04235-.054ZM19.17,9.74954a.0937.0937,0,0,1,.11605-.03517.09921.09921,0,0,1,.06018.1088L19.17,9.74954Z" style="fill: #c7bacc"/>
      </g>
      <g style="mask: url(#mask-2-2)">
        <polyline id="Fill-152" points="19.546 9.848 19.692 9.91 19.662 9.981 19.516 9.919 19.546 9.848" style="fill: #c7bacc"/>
      </g>
      <g style="mask: url(#mask-2-2)">
        <path id="Fill-153" d="M19.87922,9.90622l-.06541-.0278-.17419.4082.06541.02779.06041-.1417.00125.00057a.123.123,0,0,0,.07756.08634.17679.17679,0,0,0,.22881-.09145.17011.17011,0,0,0-.08926-.227.13522.13522,0,0,0-.119.00261l-.00148-.00068.0159-.03687Zm.12491.23246A.10437.10437,0,1,1,19.9494,9.999a.10672.10672,0,0,1,.05473.13966Z" style="fill: #c7bacc"/>
      </g>
      <g style="mask: url(#mask-2-2)">
        <path id="Fill-154" d="M20.34479,10.46417l.06529.02791.13025-.30337-.0653-.02791-.01578.03687-.00148-.00045a.1225.1225,0,0,0-.0771-.08657.177.177,0,0,0-.22915.091.17013.17013,0,0,0,.08891.22724.13483.13483,0,0,0,.119-.00238l.00125.00057-.0159.0371Zm-.12412-.23292a.10441.10441,0,1,1,.05428.13977.10663.10663,0,0,1-.05428-.13977Z" style="fill: #c7bacc"/>
      </g>
      <g style="mask: url(#mask-2-2)">
        <path id="Fill-155" d="M20.66387,10.2418l.06518.02791-.07642.17789a.07117.07117,0,0,0,.04054.10268.076.076,0,0,0,.10878-.04606l.07393-.17166.06517.028-.12627.29383a.14786.14786,0,0,1-.196.07409.163.163,0,0,1-.103-.1147l.06972-.0101a.10384.10384,0,0,0,.05575.06161.08276.08276,0,0,0,.11549-.0447l.00681-.01634-.00147-.00057a.11723.11723,0,0,1-.10913.00216.13487.13487,0,0,1-.06438-.18878l.07528-.17529" style="fill: #c7bacc"/>
      </g>
      <g style="mask: url(#mask-2-2)">
        <path id="Fill-156" d="M21.3989,10.80112a.11757.11757,0,0,1-.10821.00953.09963.09963,0,0,1-.05882-.11924l.25231.10766.00511-.01191a.17709.17709,0,0,0-.08448-.23768.174.174,0,1,0-.13672.31971.20083.20083,0,0,0,.17294-.01362l-.04213-.05445Zm-.14387-.1636a.09384.09384,0,0,1,.11639-.03426.09923.09923,0,0,1,.05928.10925l-.17567-.075Z" style="fill: #c7bacc"/>
      </g>
      <g style="mask: url(#mask-2-2)">
        <polyline id="Fill-157" points="21.604 10.726 21.749 10.789 21.719 10.86 21.573 10.798 21.604 10.726" style="fill: #c7bacc"/>
      </g>
      <g style="mask: url(#mask-2-2)">
        <path id="Fill-158" d="M21.90875,10.77332l-.06529-.02768-.17283.40888.06541.02779.06007-.14215.001.00068a.12245.12245,0,0,0,.07779.08588.17673.17673,0,0,0,.22869-.09224.17021.17021,0,0,0-.09016-.22678.13621.13621,0,0,0-.11912.00317l-.00113-.00056.01555-.037Zm.12582.232a.10457.10457,0,1,1-.0553-.13932.10662.10662,0,0,1,.0553.13932Z" style="fill: #c7bacc"/>
      </g>
      <g style="mask: url(#mask-2-2)">
        <path id="Fill-159" d="M22.35513,11.31845l.0653.02723.12706-.30462L22.4822,11.014l-.01545.0371-.00124-.00057a.12323.12323,0,0,0-.07813-.08577.17672.17672,0,0,0-.22824.09326.17.17,0,0,0,.09107.22622.13457.13457,0,0,0,.119-.00352l.00114.00057-.01522.03721Zm-.12684-.23166a.10449.10449,0,1,1,.05576.13931.1067.1067,0,0,1-.05576-.13931Z" style="fill: #c7bacc"/>
      </g>
      <g style="mask: url(#mask-2-2)">
        <path id="Fill-160" d="M22.64764,11.08259l.06587.02711-.07393.17891a.07115.07115,0,0,0,.04213.10222.076.076,0,0,0,.1081-.04776l.07131-.17278.06564.027-.12207.29576a.1478.1478,0,0,1-.19463.07692.162.162,0,0,1-.1047-.113l.06938-.01135a.10522.10522,0,0,0,.05678.06092A.08232.08232,0,0,0,22.7461,11.46l.00681-.01645-.00136-.00057a.11683.11683,0,0,1-.10913.00374.13473.13473,0,0,1-.06734-.18764l.07256-.17653" style="fill: #c7bacc"/>
      </g>
      <g style="mask: url(#mask-2-2)">
        <path id="Fill-161" d="M23.27945,11.34239l-.06563-.02689-.16806.41092.06552.02689.05848-.14261.00114.00034a.1233.1233,0,0,0,.07869.08532.17717.17717,0,0,0,.22779-.09485.17041.17041,0,0,0-.09289-.22577.13518.13518,0,0,0-.11889.00443l-.00148-.00045.01533-.03733Zm.12832.23076a.10446.10446,0,1,1-.05689-.139.1064.1064,0,0,1,.05689.139Z" style="fill: #c7bacc"/>
      </g>
      <g style="mask: url(#mask-2-2)">
        <path id="Fill-162" d="M23.63953,11.48863l.062.02484-.01351.03347.00136.00034a.072.072,0,0,1,.10913.00624l-.04929.05593a.05363.05363,0,0,0-.02134-.01872.04857.04857,0,0,0-.064.02791l-.081.20263-.06609-.02621.12275-.30643" style="fill: #c7bacc"/>
      </g>
      <g style="mask: url(#mask-2-2)">
        <path id="Fill-163" d="M24.02311,11.88049a.11683.11683,0,0,1-.1073.0135.09943.09943,0,0,1-.06325-.11708l.25583.09847.00477-.01214a.17729.17729,0,0,0-.09323-.2345.17406.17406,0,1,0-.12479.32458.20094.20094,0,0,0,.17215-.02l-.04418-.05287Zm-.14955-.15827a.094.094,0,0,1,.115-.03846.09951.09951,0,0,1,.06337.1071l-.1784-.06864Z" style="fill: #c7bacc"/>
      </g>
      <g style="mask: url(#mask-2-2)">
        <polyline id="Fill-164" points="24.245 11.805 24.393 11.86 24.367 11.934 24.218 11.879 24.245 11.805" style="fill: #c7bacc"/>
      </g>
      <g style="mask: url(#mask-2-2)">
        <path id="Fill-165" d="M24.57441,11.84248l-.06711-.02314-.14375.41988.06688.023.05019-.14579.00125.00057a.12347.12347,0,0,0,.08357.08033.17679.17679,0,0,0,.22166-.10778.17.17,0,0,0-.10561-.21987.13492.13492,0,0,0-.11866.01123l-.00125-.00045.01283-.038Zm.14172.22282a.10451.10451,0,1,1-.06484-.13546.10651.10651,0,0,1,.06484.13546Z" style="fill: #c7bacc"/>
      </g>
      <g style="mask: url(#mask-2-2)">
        <path id="Fill-166" d="M25.09108,12.35664l.06768.02076.09652-.31562-.06791-.02076-.01169.03846L25.1742,12.079a.12343.12343,0,0,0-.08584-.0776.17719.17719,0,0,0-.21814.11538.17013.17013,0,0,0,.1131.21623.136.136,0,0,0,.11809-.01531l.00114.00045-.01147.03846Zm-.149-.21794a.10439.10439,0,1,1,.06915.133.10692.10692,0,0,1-.06915-.133Z" style="fill: #c7bacc"/>
      </g>
      <g style="mask: url(#mask-2-2)">
        <path id="Fill-167" d="M25.38121,12.09752l.06881.018-.04951.1873a.07108.07108,0,0,0,.0553.09553.07591.07591,0,0,0,.101-.06149l.04758-.18073.06859.01827-.08165.309a.14744.14744,0,0,1-.18282.1021.16291.16291,0,0,1-.11866-.09813l.06745-.02042a.10391.10391,0,0,0,.0645.05287.08205.08205,0,0,0,.10708-.06127l.00443-.01713-.00137-.00023a.11746.11746,0,0,1-.10776.01793.13488.13488,0,0,1-.09152-.177l.0486-.1847" style="fill: #c7bacc"/>
      </g>
      <g style="mask: url(#mask-2-2)">
        <path id="Fill-168" d="M26.20083,12.51831a.118.118,0,0,1-.10378.032.09911.09911,0,0,1-.08222-.10449l.26913.05264.00249-.0127a.17747.17747,0,0,0-.13251-.21477.174.174,0,1,0-.067.341.20019.20019,0,0,0,.16636-.04935l-.05247-.04436Zm-.17509-.13013a.09407.09407,0,0,1,.10674-.05752.099.099,0,0,1,.081.09428l-.1877-.03676Z" style="fill: #c7bacc"/>
      </g>
      <g style="mask: url(#mask-2-2)">
        <polyline id="Fill-169" points="26.381 12.4 26.538 12.425 26.526 12.503 26.369 12.478 26.381 12.4" style="fill: #c7bacc"/>
      </g>
      <g style="mask: url(#mask-2-2)">
        <path id="Fill-170" d="M26.68752,12.36708l-.07063-.00828-.05189.44064.0704.00839.01794-.15293.00171.00023a.12185.12185,0,0,0,.09845.06081.17647.17647,0,0,0,.19383-.15225.17028.17028,0,0,0-.15-.19253.13467.13467,0,0,0-.11333.036h-.00136l.00488-.04005Zm.1851.18787a.10436.10436,0,1,1-.09164-.11844.10641.10641,0,0,1,.09164.11844Z" style="fill: #c7bacc"/>
      </g>
      <g style="mask: url(#mask-2-2)">
        <path id="Fill-171" d="M27.28129,12.75145l.071.00442.0201-.32946-.07074-.0042-.00261.04005h-.00137a.12266.12266,0,0,0-.10174-.05547.17714.17714,0,0,0-.18532.16291.17032.17032,0,0,0,.16068.18379.13543.13543,0,0,0,.11117-.04232l.00125.00012-.00239.04016Zm-.19565-.17721a.10446.10446,0,1,1,.09845.11311.10687.10687,0,0,1-.09845-.11311Z" style="fill: #c7bacc"/>
      </g>
      <g style="mask: url(#mask-164)">
        <path id="Fill-172" d="M27.47592,12.42959l.071.00034-.00068.19355a.0709.0709,0,0,0,.07722.07862.07577.07577,0,0,0,.08221-.08475l.001-.18685.07086.00022-.00136.31993a.14764.14764,0,0,1-.15137.14454.16356.16356,0,0,1-.1399-.06546l.06053-.03642a.10373.10373,0,0,0,.07551.03506.0824.0824,0,0,0,.08846-.08622v-.01782h-.00148a.11748.11748,0,0,1-.09981.0447.135.135,0,0,1-.133-.1485l.00079-.19094" style="fill: #c7bacc"/>
      </g>
    </g>
    <g id="Group-226">
      <g style="mask: url(#mask-165)">
        <path id="Fill-174" d="M13.16187,10.0208l.071-.00159-.00806-.33-.07086.00171.00091.04039h-.00125a.12337.12337,0,0,0-.10628-.04663.17689.17689,0,0,0-.17045.17823.17041.17041,0,0,0,.17544.16961.13669.13669,0,0,0,.1072-.05174H13.161l.00091.04ZM12.952,9.861a.10442.10442,0,1,1,.10742.10437A.1062.1062,0,0,1,12.952,9.861Z" style="fill: #c7bacc"/>
      </g>
      <g style="mask: url(#mask-166)">
        <path id="Fill-176" d="M13.33584,9.6876l.071-.00046.00113.19378a.071.071,0,0,0,.07835.07771.0757.0757,0,0,0,.08131-.08554l-.001-.18685.071-.00046.0017.31993a.14746.14746,0,0,1-.14978.146.16269.16269,0,0,1-.14024-.0641l.05985-.03709a.10309.10309,0,0,0,.07585.03437.08213.08213,0,0,0,.08744-.08713v-.0177h-.00148a.11755.11755,0,0,1-.09936.04561.13519.13519,0,0,1-.13467-.14726l-.001-.19082" style="fill: #c7bacc"/>
      </g>
      <g style="mask: url(#mask-166)">
        <path id="Fill-177" d="M14.20565,9.9204a.11761.11761,0,0,1-.097.04844.09908.09908,0,0,1-.09845-.08917l.27411.00726.00023-.013a.17731.17731,0,0,0-.16624-.1898.174.174,0,1,0-.0092.3475.19913.19913,0,0,0,.15557-.07647l-.059-.03471Zm-.194-.09927a.09365.09365,0,0,1,.09539-.07465.09915.09915,0,0,1,.0955.07964l-.19089-.005Z" style="fill: #c7bacc"/>
      </g>
      <g style="mask: url(#mask-166)">
        <polyline id="Fill-178" points="14.391 9.78 14.549 9.788 14.546 9.866 14.387 9.859 14.391 9.78" style="fill: #c7bacc"/>
      </g>
      <g style="mask: url(#mask-166)">
        <path id="Fill-179" d="M14.72527,9.72016l-.071-.00522-.03248.44268.07075.00522.01124-.15361.00148.00023a.12338.12338,0,0,0,.10117.05661.177.177,0,0,0,.187-.16065.17029.17029,0,0,0-.15818-.18594.13716.13716,0,0,0-.11185.04084h-.00124l.00306-.04016ZM14.91865,9.9a.1045.1045,0,1,1-.09686-.11459A.10647.10647,0,0,1,14.91865,9.9Z" style="fill: #c7bacc"/>
      </g>
      <g style="mask: url(#mask-166)">
        <path id="Fill-180" d="M15.33426,10.10861l.07063.00794.03747-.32787-.0704-.008-.00466.04-.00136-.00011a.12254.12254,0,0,0-.09879-.06081.177.177,0,0,0-.1935.15282.1705.1705,0,0,0,.15057.1923.13667.13667,0,0,0,.11333-.03653l.00125.00011-.00454.04016Zm-.18589-.18753a.10439.10439,0,1,1,.09232.11833.10655.10655,0,0,1-.09232-.11833Z" style="fill: #c7bacc"/>
      </g>
      <g style="mask: url(#mask-166)">
        <path id="Fill-181" d="M15.58339,9.80842l.07.0118-.032.19071a.07113.07113,0,0,0,.0637.09042.07589.07589,0,0,0,.09471-.07045l.03111-.18436.06995.0118-.053.31539a.14784.14784,0,0,1-.17294.11822.162.162,0,0,1-.12707-.08713l.06529-.02632a.10356.10356,0,0,0,.06893.04674.08226.08226,0,0,0,.10129-.07068l.00284-.01747-.00125-.00023a.11792.11792,0,0,1-.10583.02791.135.135,0,0,1-.10731-.16813l.03168-.18822" style="fill: #c7bacc"/>
      </g>
      <g style="mask: url(#mask-166)">
        <path id="Fill-182" d="M16.31513,9.958,16.247,9.93787l-.12468.42612.06813.01985.04315-.14782.00136.00034a.12347.12347,0,0,0,.0871.07646.1767.1767,0,0,0,.21654-.118.17018.17018,0,0,0-.11548-.21476.136.136,0,0,0-.1181.01668l-.00125-.00045.01136-.03835Zm.15148.2159a.10443.10443,0,1,1-.07086-.13206.10659.10659,0,0,1,.07086.13206Z" style="fill: #c7bacc"/>
      </g>
      <g style="mask: url(#mask-166)">
        <path id="Fill-183" d="M16.69156,10.07639l.06313.02167-.01169.03426.00136.00034a.072.072,0,0,1,.10935.00068l-.04667.05832a.052.052,0,0,0-.022-.0177.04875.04875,0,0,0-.06268.0312l-.07063.20648-.06722-.023.10708-.31222" style="fill: #c7bacc"/>
      </g>
      <g style="mask: url(#mask-166)">
        <path id="Fill-184" d="M17.0882,10.45407a.11693.11693,0,0,1-.1072.01588.09942.09942,0,0,1-.06586-.11549l.25811.09246.00454-.012a.17755.17755,0,0,0-.09856-.23246.17408.17408,0,1,0-.11764.3273.20029.20029,0,0,0,.1718-.02382l-.04519-.05185Zm-.1533-.15486a.09394.09394,0,0,1,.11412-.041.09922.09922,0,0,1,.06586.10563l-.18-.06467Z" style="fill: #c7bacc"/>
      </g>
      <g style="mask: url(#mask-166)">
        <polyline id="Fill-185" points="17.307 10.376 17.456 10.433 17.428 10.507 17.28 10.45 17.307 10.376" style="fill: #c7bacc"/>
      </g>
      <g style="mask: url(#mask-176)">
        <path id="Fill-186" d="M17.63586,10.41935l-.06608-.02586-.16182.4133.066.026.05632-.14363.00114.00057a.123.123,0,0,0,.08.08395.177.177,0,0,0,.22609-.09836.17023.17023,0,0,0-.09607-.22429.13589.13589,0,0,0-.11912.00635l-.00113-.00068.01464-.03733Zm.13173.22883a.10441.10441,0,1,1-.05882-.13818.10665.10665,0,0,1,.05882.13818Z" style="fill: #c7bacc"/>
      </g>
      <g style="mask: url(#mask-177)">
        <path id="Fill-187" d="M18.10791,10.96392l.06552.027.12536-.3053-.06564-.02688-.01521.03721-.00136-.00046a.12275.12275,0,0,0-.07847-.08542.17655.17655,0,0,0-.22767.09473.17.17,0,0,0,.09243.22565.135.135,0,0,0,.11889-.00442l.00136.00068-.01521.03721Zm-.12809-.23065a.10431.10431,0,1,1,.05666.13864.10668.10668,0,0,1-.05666-.13864Z" style="fill: #c7bacc"/>
      </g>
      <g style="mask: url(#mask-178)">
        <path id="Fill-188" d="M18.41791,10.73566l.06552.02779-.07631.17812a.07106.07106,0,0,0,.04065.10256.07611.07611,0,0,0,.1089-.04618l.07335-.17187.06541.028-.126.29395a.14758.14758,0,0,1-.19566.07431.16218.16218,0,0,1-.1031-.11459l.06949-.01021a.10489.10489,0,0,0,.0561.06172.08213.08213,0,0,0,.115-.04493l.00715-.01633-.00136-.00046a.1187.1187,0,0,1-.10935.00216.13491.13491,0,0,1-.06484-.18867l.07506-.17539" style="fill: #c7bacc"/>
      </g>
      <g style="mask: url(#mask-179)">
        <path id="Fill-189" d="M13.216,8.08476l.07063-.007L13.2543,7.7494l-.07074.007.00409.03993-.00148.00012a.12286.12286,0,0,0-.10935-.03846.1768.1768,0,0,0-.15682.19025.17036.17036,0,0,0,.18771.156.13545.13545,0,0,0,.1031-.05945l.00137-.00011.00386.04Zm-.2212-.144a.10444.10444,0,1,1,.11514.0961.10623.10623,0,0,1-.11514-.0961Z" style="fill: #c7bacc"/>
      </g>
      <g style="mask: url(#mask-166)">
        <path id="Fill-190" d="M13.36422,7.73942l.07086-.0059.0159.19287a.07112.07112,0,0,0,.084.0717.07585.07585,0,0,0,.07449-.09167l-.01544-.18617.07074-.006.02657.3188a.14764.14764,0,0,1-.13819.15724.16254.16254,0,0,1-.14478-.053l.05677-.04163a.10421.10421,0,0,0,.07835.02836.08225.08225,0,0,0,.08051-.09371l-.00147-.01759h-.00137a.1172.1172,0,0,1-.09561.05321.13472.13472,0,0,1-.14546-.13625l-.0159-.19026" style="fill: #c7bacc"/>
      </g>
      <g style="mask: url(#mask-166)">
        <path id="Fill-191" d="M14.24858,7.90222a.11788.11788,0,0,1-.09266.0565.09994.09994,0,0,1-.10572-.08078l.274-.01554-.00079-.01271A.17756.17756,0,0,0,14.142,7.674a.174.174,0,1,0,.01964.34716.20038.20038,0,0,0,.14876-.08895l-.06177-.03Zm-.20167-.083a.09376.09376,0,0,1,.089-.082.09911.09911,0,0,1,.10174.07136l-.19076.01067Z" style="fill: #c7bacc"/>
      </g>
      <g style="mask: url(#mask-166)">
        <polyline id="Fill-192" points="14.424 7.748 14.582 7.741 14.585 7.82 14.427 7.826 14.424 7.748" style="fill: #c7bacc"/>
      </g>
      <g style="mask: url(#mask-166)">
        <path id="Fill-193" d="M14.75423,7.65785l-.07109.00136.00784.44371.07086-.00125-.0025-.15407h.00125a.12265.12265,0,0,0,.10583.0472A.17639.17639,0,0,0,15.038,7.818a.17.17,0,0,0-.17408-.17086.136.136,0,0,0-.10776.05094H14.7548l-.00057-.04027Zm.20882.16133A.10441.10441,0,1,1,14.8562,7.714a.10631.10631,0,0,1,.10685.10517Z" style="fill: #c7bacc"/>
      </g>
      <g style="mask: url(#mask-166)">
        <path id="Fill-194" d="M15.4,7.9872l.071.0009.00534-.3298-.071-.00113-.00068.04016H15.4033a.12307.12307,0,0,0-.10436-.0506.17663.17663,0,0,0-.17737.171.17044.17044,0,0,0,.16851.17653.13547.13547,0,0,0,.10913-.04742h.00148L15.4,7.9872Zm-.20337-.16836A.1044.1044,0,1,1,15.3,7.92763a.10642.10642,0,0,1-.10333-.10879Z" style="fill: #c7bacc"/>
      </g>
      <g style="mask: url(#mask-166)">
        <path id="Fill-195" d="M15.6195,7.66341l.07086.004-.011.19332a.07114.07114,0,0,0,.07313.08282.07577.07577,0,0,0,.08653-.08044l.01079-.18663.071.00409-.0184.31936a.14777.14777,0,0,1-.159.13637.16324.16324,0,0,1-.136-.07284l.06223-.03324a.10334.10334,0,0,0,.0737.039.08218.08218,0,0,0,.09277-.08146l.00091-.01758L15.83571,7.97a.118.118,0,0,1-.10209.03937.13486.13486,0,0,1-.12491-.15532l.01079-.19059" style="fill: #c7bacc"/>
      </g>
      <g style="mask: url(#mask-166)">
        <path id="Fill-196" d="M16.3677,7.72694l-.07006-.01055-.06586.43894.07006.01055.02294-.15236.00136.00022a.1226.1226,0,0,0,.09675.064.1767.1767,0,0,0,.19849-.146.17033.17033,0,0,0-.14353-.19729.13584.13584,0,0,0-.11469.03244l-.00136-.00022.0059-.03971Zm.17942.19366a.10441.10441,0,1,1-.08812-.12139.10649.10649,0,0,1,.08812.12139Z" style="fill: #c7bacc"/>
      </g>
      <g style="mask: url(#mask-166)">
        <path id="Fill-197" d="M16.77757,7.79592l.073.01475-.009.03517.00152.00034a.08653.08653,0,0,1,.12166-.01089l-.045.06273a.0613.0613,0,0,0-.0268-.01509.05475.05475,0,0,0-.06578.03767l-.05423.21272-.07747-.01577.082-.32163" style="fill: #c7bacc"/>
      </g>
      <g style="mask: url(#mask-166)">
        <path id="Fill-198" d="M17.20652,8.15068a.11786.11786,0,0,1-.1064.02031.09951.09951,0,0,1-.07052-.11277l.26186.08179.004-.01236a.17766.17766,0,0,0-.10821-.22815.174.174,0,1,0-.1039.33184.19993.19993,0,0,0,.17067-.031l-.04747-.04969Zm-.15931-.14839a.094.094,0,0,1,.1123-.04573.09949.09949,0,0,1,.07006.10256l-.18236-.05683Z" style="fill: #c7bacc"/>
      </g>
      <g style="mask: url(#mask-166)">
        <polyline id="Fill-199" points="17.428 8.066 17.578 8.116 17.554 8.191 17.404 8.141 17.428 8.066" style="fill: #c7bacc"/>
      </g>
      <g style="mask: url(#mask-166)">
        <path id="Fill-200" d="M17.76361,8.09645l-.06733-.0228-.1424.42033.06722.0228.0494-.146.00125.00046a.12329.12329,0,0,0,.0838.08021.17714.17714,0,0,0,.22143-.10869.17014.17014,0,0,0-.10663-.21953.13486.13486,0,0,0-.11843.01169l-.00137-.00045.01306-.038Zm.14217.22225a.10445.10445,0,1,1-.06518-.13512.10655.10655,0,0,1,.06518.13512Z" style="fill: #c7bacc"/>
      </g>
      <g style="mask: url(#mask-191)">
        <path id="Fill-201" d="M18.26892,8.619l.067.02349.109-.31154-.06722-.02337-.01317.038-.00137-.00046a.12213.12213,0,0,0-.083-.081.177.177,0,0,0-.22234.10664.17023.17023,0,0,0,.10435.22044.13576.13576,0,0,0,.11867-.01055l.00159.00045-.01352.03789Zm-.14023-.22361a.10447.10447,0,1,1,.06393.1358.10662.10662,0,0,1-.06393-.1358Z" style="fill: #c7bacc"/>
      </g>
      <g style="mask: url(#mask-166)">
        <path id="Fill-202" d="M13.44223,6.68626l-.07028.0093.05825.44.0704-.0093-.02032-.15271.00136-.00022a.123.123,0,0,0,.1106.03494A.17689.17689,0,0,0,13.7427,6.813a.17047.17047,0,0,0-.19259-.14987.13517.13517,0,0,0-.10129.06285l-.00125.00012-.00534-.03982Zm.22586.13659a.10437.10437,0,1,1-.118-.09235.10616.10616,0,0,1,.118.09235Z" style="fill: #c7bacc"/>
      </g>
      <g style="mask: url(#mask-166)">
        <path id="Fill-203" d="M13.83865,6.63668l.07714-.00726.00449.03585.00158-.00023a.07945.07945,0,0,1,.06923-.05162.09621.09621,0,0,1,.04615.006l-.02017.0725a.06852.06852,0,0,0-.032-.00647.05077.05077,0,0,0-.0505.05468l.02743.21692-.082.0076-.04127-.328" style="fill: #c7bacc"/>
      </g>
      <g style="mask: url(#mask-166)">
        <path id="Fill-204" d="M14.36656,6.81219a.11633.11633,0,0,1-.09085.05888.09932.09932,0,0,1-.10787-.07772l.27343-.023L14.44,6.75739a.17749.17749,0,0,0-.18612-.1704.1741.1741,0,1,0,.02919.34659.20068.20068,0,0,0,.14625-.09314l-.06279-.02825Zm-.20349-.07726a.0935.0935,0,0,1,.08641-.08464.09935.09935,0,0,1,.10379.06864l-.1902.016Z" style="fill: #c7bacc"/>
      </g>
      <g style="mask: url(#mask-166)">
        <polyline id="Fill-205" points="14.541 6.654 14.699 6.645 14.703 6.724 14.545 6.733 14.541 6.654" style="fill: #c7bacc"/>
      </g>
      <g style="mask: url(#mask-166)">
        <path id="Fill-206" d="M14.874,6.55885l-.071.0017.01078.44382.07086-.00181-.00363-.154h.00136a.12334.12334,0,0,0,.10628.04652.17679.17679,0,0,0,.17033-.17823.17047.17047,0,0,0-.17544-.16961.136.136,0,0,0-.1073.05185h-.00137l-.0009-.04028Zm.21.16008a.10437.10437,0,1,1-.10765-.1046.1063.1063,0,0,1,.10765.1046Z" style="fill: #c7bacc"/>
      </g>
      <g style="mask: url(#mask-166)">
        <path id="Fill-207" d="M15.52457,6.88843l.071.0017.008-.3298-.07108-.00171-.00068.04028-.00148-.00023a.12278.12278,0,0,0-.10379-.05162.177.177,0,0,0-.179.16972.17034.17034,0,0,0,.167.17789.1347.1347,0,0,0,.10958-.04674l.00147.00034-.001.04017Zm-.2019-.17A.10442.10442,0,1,1,15.425,6.828a.10648.10648,0,0,1-.10232-.10948Z" style="fill: #c7bacc"/>
      </g>
      <g style="mask: url(#mask-166)">
        <path id="Fill-208" d="M15.7502,6.56793l.07075.0059-.01567.193a.07113.07113,0,0,0,.07108.0844.07583.07583,0,0,0,.08846-.07839L15.98,6.58665l.07075.0059-.026.31857a.14755.14755,0,0,1-.162.13251.16227.16227,0,0,1-.1341-.0759l.06279-.03177a.1039.1039,0,0,0,.07256.04073.082.082,0,0,0,.09471-.07919l.00159-.01758h-.00137a.1178.1178,0,0,1-.103.03664.13493.13493,0,0,1-.12116-.15838l.01544-.19025" style="fill: #c7bacc"/>
      </g>
      <g style="mask: url(#mask-166)">
        <path id="Fill-209" d="M16.61729,6.86959a.11749.11749,0,0,1-.10344.03234.09927.09927,0,0,1-.083-.10381l.26935.05116.0025-.0127a.17749.17749,0,0,0-.13354-.2142.17411.17411,0,1,0-.06507.34172.2007.2007,0,0,0,.166-.05049l-.05281-.044Zm-.17555-.1291a.094.094,0,0,1,.10629-.05832.09952.09952,0,0,1,.08153.09405l-.18782-.03573Z" style="fill: #c7bacc"/>
      </g>
      <g style="mask: url(#mask-166)">
        <polyline id="Fill-210" points="16.826 6.767 16.979 6.808 16.96 6.884 16.806 6.843 16.826 6.767" style="fill: #c7bacc"/>
      </g>
      <g style="mask: url(#mask-166)">
        <path id="Fill-211" d="M17.15644,6.77452,17.088,6.75614l-.11548.42839.06858.01849.04-.14873.00137.00034a.12311.12311,0,0,0,.08868.07465.17692.17692,0,0,0,.21405-.12241.17011.17011,0,0,0-.12025-.21227.13523.13523,0,0,0-.11753.01917L17.146,6.81332l.01044-.0388Zm.15614.21283a.10446.10446,0,1,1-.0737-.13058.1066.1066,0,0,1,.0737.13058Z" style="fill: #c7bacc"/>
      </g>
      <g style="mask: url(#mask-166)">
        <path id="Fill-212" d="M17.688,7.26145l.06847.01883.08812-.31788-.06848-.01895-.01067.0388-.00136-.00034a.12241.12241,0,0,0-.08812-.07533.1769.1769,0,0,0-.21484.12105.17.17,0,0,0,.11877.21295.13506.13506,0,0,0,.11764-.01827l.00125.00034-.01078.0388Zm-.15455-.214a.10448.10448,0,1,1,.07279.13127.10627.10627,0,0,1-.07279-.13127Z" style="fill: #c7bacc"/>
      </g>
      <g style="mask: url(#mask-166)">
        <path id="Fill-213" d="M17.96858,6.997l.06835.0194-.05291.18617a.07114.07114,0,0,0,.05371.09666.07593.07593,0,0,0,.10186-.05967l.051-.17982.06813.01928-.08709.30768a.14735.14735,0,0,1-.18453.0987.16208.16208,0,0,1-.117-.1004l.0678-.01906a.10427.10427,0,0,0,.06336.05412.08233.08233,0,0,0,.10833-.05945l.00477-.01691L18.113,7.34325a.118.118,0,0,1-.108.01622.13506.13506,0,0,1-.08846-.1788l.052-.18367" style="fill: #c7bacc"/>
      </g>
      <g style="mask: url(#mask-166)">
        <path id="Fill-214" d="M13.47755,8.7109l-.071.0034.02055.44325.07086-.00317-.007-.154h.00136a.1241.1241,0,0,0,.1072.04424.17683.17683,0,0,0,.16646-.18175.17026.17026,0,0,0-.17907-.16575.13457.13457,0,0,0-.10594.054h-.00137l-.002-.04027Zm.21348.15543a.10444.10444,0,1,1-.10992-.102.10626.10626,0,0,1,.10992.102Z" style="fill: #c7bacc"/>
      </g>
      <g style="mask: url(#mask-166)">
        <path id="Fill-215" d="M13.86477,8.695l.0774-.00216.00132.03619h.00158a.08141.08141,0,0,1,.07372-.04708.09493.09493,0,0,1,.04562.00907l-.027.07091a.07084.07084,0,0,0-.03112-.00885.05263.05263,0,0,0-.05525.0514l.00791.218-.08229.00215L13.86477,8.695" style="fill: #c7bacc"/>
      </g>
      <g style="mask: url(#mask-166)">
        <path id="Fill-216" d="M14.37189,8.90853a.11789.11789,0,0,1-.0947.05253.09929.09929,0,0,1-.10231-.08509l.27434-.0042L14.449,8.85884a.17753.17753,0,0,0-.17408-.18277.17413.17413,0,1,0,.00534.34784.20034.20034,0,0,0,.15216-.08293l-.06053-.03245Zm-.19792-.091a.09361.09361,0,0,1,.09221-.07862.09961.09961,0,0,1,.0989.07556l-.19111.00306Z" style="fill: #c7bacc"/>
      </g>
      <g style="mask: url(#mask-166)">
        <polyline id="Fill-217" points="14.549 8.76 14.708 8.76 14.708 8.839 14.549 8.839 14.549 8.76" style="fill: #c7bacc"/>
      </g>
      <g style="mask: url(#mask-166)">
        <path id="Fill-218" d="M14.85211,8.68424l-.0712-.00159-.0084.44393.07074.00148.00307-.15407h.00136a.12279.12279,0,0,0,.10413.05117.17673.17673,0,0,0,.17805-.17041.17026.17026,0,0,0-.16783-.17721.13552.13552,0,0,0-.10947.04709l-.00124-.00012.00079-.04027Zm.20281.16893a.10452.10452,0,1,1-.10311-.109.10653.10653,0,0,1,.10311.109Z" style="fill: #c7bacc"/>
      </g>
      <g style="mask: url(#mask-166)">
        <path id="Fill-219" d="M15.45928,9.00825l.071.00307.0151-.32946-.071-.00329-.00182.04027-.00136-.00023a.12273.12273,0,0,0-.10276-.05366.17656.17656,0,0,0-.18237.16553.17011.17011,0,0,0,.16306.18152.13531.13531,0,0,0,.1106-.044h.00137l-.00182.04027Zm-.19838-.17437a.10444.10444,0,1,1,.10027.11175.10653.10653,0,0,1-.10027-.11175Z" style="fill: #c7bacc"/>
      </g>
      <g style="mask: url(#mask-166)">
        <path id="Fill-220" d="M15.70807,8.69014l.07075.00533-.01442.193a.0711.0711,0,0,0,.07165.08395.0761.0761,0,0,0,.08812-.07885l.01385-.18628.07086.00522L15.985,9.0314a.1478.1478,0,0,1-.16136.13353.1619.1619,0,0,1-.13456-.075l.06245-.03222a.10446.10446,0,0,0,.073.04039.08229.08229,0,0,0,.09425-.07987l.00136-.0177-.00136-.00011a.11731.11731,0,0,1-.10277.03743.135.135,0,0,1-.12229-.15747l.0143-.19025" style="fill: #c7bacc"/>
      </g>
      <g style="mask: url(#mask-166)">
        <path id="Fill-221" d="M16.60242,9.01483a.11669.11669,0,0,1-.10186.0371.09914.09914,0,0,1-.08778-.09983l.27162.03868.00182-.01293a.17759.17759,0,0,0-.14342-.20762.17408.17408,0,1,0-.04894.34433.20033.20033,0,0,0,.16329-.0582l-.05473-.04153Zm-.18135-.12059a.09363.09363,0,0,1,.10334-.0632.09959.09959,0,0,1,.086.09l-.1893-.02677Z" style="fill: #c7bacc"/>
      </g>
      <g style="mask: url(#mask-166)">
        <polyline id="Fill-222" points="16.783 8.895 16.939 8.922 16.925 9 16.769 8.972 16.783 8.895" style="fill: #c7bacc"/>
      </g>
      <g style="mask: url(#mask-166)">
        <path id="Fill-223" d="M17.10114,8.87449l-.06949-.01486-.09289.43407.06927.01486.03236-.15067.00136.00023a.12333.12333,0,0,0,.09255.07.177.177,0,0,0,.20712-.13364.17.17,0,0,0-.13093-.20558.13549.13549,0,0,0-.1165.02508l-.00136-.00023.00851-.03926Zm.16693.20444a.10443.10443,0,1,1-.08029-.12672.10658.10658,0,0,1,.08029.12672Z" style="fill: #c7bacc"/>
      </g>
      <g style="mask: url(#mask-166)">
        <path id="Fill-224" d="M17.62928,9.34248l.06847.01872.08732-.31834-.06836-.01861-.01067.0388-.00125-.00045a.12242.12242,0,0,0-.08834-.075.17675.17675,0,0,0-.2145.12127.17015.17015,0,0,0,.11911.213.13582.13582,0,0,0,.11776-.0186l.00113.00045-.01067.0388Zm-.15489-.21363a.10439.10439,0,1,1,.0729.13092.10615.10615,0,0,1-.0729-.13092Z" style="fill: #c7bacc"/>
      </g>
      <g style="mask: url(#mask-166)">
        <path id="Fill-225" d="M17.90408,9.1014l.06631.02541-.06961.18073a.07108.07108,0,0,0,.04418.10119.07614.07614,0,0,0,.10719-.05014l.06711-.17437.06632.02541-.115.2986a.14783.14783,0,0,1-.193.08123.16274.16274,0,0,1-.1072-.11073l.06927-.0127a.10365.10365,0,0,0,.058.05967.08228.08228,0,0,0,.11333-.04924l.0067-.01656-.00136-.00045a.11821.11821,0,0,1-.10935.00612.1348.1348,0,0,1-.07154-.18606l.0687-.17811" style="fill: #c7bacc"/>
      </g>
    </g>
  </g>
</svg>
