<svg id="Layer_1" data-name="Layer 1" xmlns="http://www.w3.org/2000/svg" xmlns:xlink="http://www.w3.org/1999/xlink" viewBox="0 0 40 26">
  <defs>
    <mask id="mask" x="17.72663" y="10.57282" width="6.44349" height="10.01098" maskUnits="userSpaceOnUse">
      <g id="mask-2">
        <polygon id="path-1" points="17.727 20.584 24.17 20.584 24.17 10.573 17.727 10.573 17.727 20.584" style="fill: #fff"/>
      </g>
    </mask>
  </defs>
  <title>eps</title>
  <rect id="Rectangle" width="40" height="26" style="fill: #c81b71"/>
  <g id="EPS">
    <g id="Group-3">
      <g style="mask: url(#mask)">
        <path id="Fill-1" d="M19.33332,17.09165v3.44293a11.38862,11.38862,0,0,1-1.507.046.73806.73806,0,0,1-.09138-.52826q-.0058-3.09764-.002-6.19547a3.21893,3.21893,0,1,1,6.43719-.0738,3.2362,3.2362,0,0,1-3.25427,3.30815c-.50387.00285-1.00785.00041-1.58246.00041" style="fill: #fff"/>
      </g>
    </g>
    <g id="Group-6">
      <path id="Fill-4" d="M23.10917,17.0836a3.1362,3.1362,0,0,0,1.28453-1.40539c.11791-.23807.30088-.22851.50651-.22821q1.82952.00306,3.65914.00072a3.53218,3.53218,0,0,0,.40608-.009c.247-.02887.42784-.16192.41961-.422a.38994.38994,0,0,0-.4437-.38749c-.66061-.003-1.32153.00824-1.98184-.00731a2.04558,2.04558,0,0,1-2.046-1.64081,1.97956,1.97956,0,0,1,1.558-2.36353,29.80334,29.80334,0,0,1,3.61207-.03639,8.08706,8.08706,0,0,1-.0003,1.5481H27.537c-.10165,0-.2034.00122-.305-.0002-.3335-.00488-.71133-.00579-.72526.43231-.01453.45549.37254.44583.70138.44715.60978.00234,1.21988-.00854,1.82946.003a2.03492,2.03492,0,0,1,.17789,4.05221c-1.98885.05825-3.98055.01678-6.10632.01678" style="fill: #fff"/>
    </g>
    <g id="Group-9">
      <path id="Fill-7" d="M16.89813,15.44478c-1.52615,0-2.98145.02175-4.43553-.01118a1.46038,1.46038,0,0,1-1.33068-.85049h4.654a3.30325,3.30325,0,0,0-2.575-3.98106,3.26421,3.26421,0,1,0-.74528,6.47358c1.26867.04777,2.54029.01341,3.81059.01575.18124.00031.36248,0,.55053,0A1.108,1.108,0,0,1,15.71748,18.111q-3.09947.0218-6.19913.0002A1.21243,1.21243,0,0,1,8.32277,16.895q-.03081-3.07384-.00143-6.1482A1.18387,1.18387,0,0,1,9.56806,9.5443q3.04869-.01815,6.09748.0005a1.162,1.162,0,0,1,1.22039,1.121c.038,1.57047.0122,3.14236.0122,4.779" style="fill: #fff"/>
    </g>
    <path id="Fill-10" d="M14.1208,12.99345H11.12786a1.58539,1.58539,0,0,1,1.16642-.87438,1.70964,1.70964,0,0,1,1.82652.87438" style="fill: #fff"/>
    <path id="Fill-12" d="M15.13737,8.50039h-.71153a.30493.30493,0,0,1-.305-.30495V7.59653a1.55534,1.55534,0,0,0-1.449-1.56833A1.52766,1.52766,0,0,0,11.069,7.55231v.63663a.305.305,0,0,1-.30494.30494h-.71154a.305.305,0,0,1-.30495-.30494V7.61279a2.887,2.887,0,0,1,2.76118-2.90663,2.85052,2.85052,0,0,1,2.93357,2.84615v.64313a.30493.30493,0,0,1-.30495.30495" style="fill: #fff"/>
    <path id="Fill-14" d="M19.35458,15.44568c0-.6293-.02114-1.18715.00488-1.74265a1.58385,1.58385,0,0,1,1.53509-1.5289,1.6128,1.6128,0,0,1,1.64589,1.35853A1.58359,1.58359,0,0,1,21.333,15.37911a9.43908,9.43908,0,0,1-1.97838.06657" style="fill: #c81b71"/>
  </g>
</svg>
