<svg id="Layer_1" data-name="Layer 1" xmlns="http://www.w3.org/2000/svg" xmlns:xlink="http://www.w3.org/1999/xlink" viewBox="0 0 40 26">
  <defs>
    <mask id="mask" x="0" y="0" width="40" height="25.23077" maskUnits="userSpaceOnUse">
      <g id="mask-2">
        <rect id="path-1" width="40" height="25.23077" rx="2.46154" ry="2.46154" style="fill: #fff"/>
      </g>
    </mask>
  </defs>
  <title>fortis</title>
  <g id="Rectangle">
    <rect id="path-2" width="39.9502" height="25.99881" style="fill: #30b2e5"/>
  </g>
  <g id="Page-1">
    <g id="fonq-65x41---">
      <g style="mask: url(#mask)">
        <g id="fonq-nl">
          <g id="Layer_1-2" data-name="Layer 1">
            <g id="Group">
              <path id="Shape" d="M7.008,7.40852c.07156.02391.13517.02391.20673.04782a.77977.77977,0,0,1,.6361.61361,3.09329,3.09329,0,0,1,.08746,1.10769.12021.12021,0,0,1-.07156.11157c-.22263.18329-.42936.34267-.6361.54189a1.63156,1.63156,0,0,0-.45321,1.09176c-.02386.3586-.02386.72518-.02386,1.09175,0,.04781.02386.06375.07156.08766a2.842,2.842,0,0,1,.83488.38251.93524.93524,0,0,1,.318.34267.72991.72991,0,0,1-.02386.67736,2.29382,2.29382,0,0,1-.61224.65346,5.80777,5.80777,0,0,1-.51683.34267c-.07156.02391-.07156.06375-.0477.11157A6.58955,6.58955,0,0,1,7.159,15.9513a1.77178,1.77178,0,0,1-.27034,1.42645,1.29433,1.29433,0,0,1-1.08931.58971.911.911,0,0,1-.93029-.63752,3.1907,3.1907,0,0,1-.18287-.88456c-.04771-.526-.13517-1.06785-.20673-1.58583-.02386-.18329-.07157-.36658-.08747-.5419,0-.0239-.02385-.07172-.04771-.07172-.20673-.13547-.38165-.27094-.58838-.43032V12.5565a.02337.02337,0,0,0,.02385-.0239c.18288-.11157.38166-.22314.56453-.31876.02386-.02391.02386-.04782.04771-.07173.02386-.247.04771-.47814.06361-.72518a16.09316,16.09316,0,0,1,.2942-1.76912,5.37861,5.37861,0,0,1,.51682-1.42645,1.74526,1.74526,0,0,1,.69971-.70127,4.31633,4.31633,0,0,1,.42936-.13547,5.17681,5.17681,0,0,0,.61224.0239Z" style="fill: #fff"/>
              <path id="Shape-2" data-name="Shape" d="M25.43085,12.7876a11.56409,11.56409,0,0,1-.13517,1.76912.11281.11281,0,0,0,.0477.11157c.40551.29485.79512.58971,1.15293.90847a4.0988,4.0988,0,0,1,1.24833,1.85678c.04771.13547.08747.29485.13517.43032,0,.02391.02386.04782-.02385.08766a1.8284,1.8284,0,0,1-.67585.40642,1.19054,1.19054,0,0,1-1.10522-.18329,3.241,3.241,0,0,1-.83487-.81283c-.159-.2072-.2942-.40642-.45322-.63753-.07156-.08765-.159-.08765-.20673,0a3.42264,3.42264,0,0,1-.77126.94832.61422.61422,0,0,1-.47708.15938,6.63664,6.63664,0,0,1-1.471-.18329,2.23968,2.23968,0,0,1-1.58229-1.49817,5.13468,5.13468,0,0,1-.27034-1.3388c-.02385-.29485-.04771-.5897-.04771-.88456a1.13908,1.13908,0,0,1,.07156-.27094,8.64372,8.64372,0,0,1,.69971-1.793,4.1355,4.1355,0,0,1,.79512-1.09176,2.36971,2.36971,0,0,1,2.3774-.61361,1.91928,1.91928,0,0,1,1.20063,1.09176,3.13925,3.13925,0,0,1,.318,1.26707c.008.06375.008.17532.008.27094ZM23.618,11.903v-.22313a.06333.06333,0,0,0-.07156-.07172.82356.82356,0,0,0-.58839.20719,2.2539,2.2539,0,0,0-.85873,1.70537,6.01388,6.01388,0,0,0,.07156,1.1316,12.747,12.747,0,0,0,.24649,1.26707.06332.06332,0,0,0,.07156.07173h.40551a.08619.08619,0,0,0,.08746-.06376.77289.77289,0,0,1,.42937-.502c.0477-.02391.0477-.04782.02385-.08766a3.18046,3.18046,0,0,1-.18288-.29486.663.663,0,0,1-.13517-.34266,4.38167,4.38167,0,0,1,.04771-.7969.56464.56464,0,0,1,.24649-.43033,1.48751,1.48751,0,0,1,.66-.247c.07156,0,.07156-.02391.07156-.08766v-.50205c0-.13547-.02386-.22313-.159-.247l-.13517-.06375A.34154.34154,0,0,1,23.618,11.903Z" style="fill: #fff"/>
              <path id="Shape-3" data-name="Shape" d="M13.61539,15.14643a3.52352,3.52352,0,0,1-.318,1.546A1.96815,1.96815,0,0,1,11.397,17.89574a3.47521,3.47521,0,0,1-1.948-.518,2.35166,2.35166,0,0,1-1.10522-1.58583,3.256,3.256,0,0,1,.13517-1.60974,3.06057,3.06057,0,0,1,.74741-1.25113,2.40163,2.40163,0,0,1,1.85263-.67737,2.55,2.55,0,0,1,2.41716,2.01616l.06361.34267a3.12339,3.12339,0,0,1,.05566.53392Zm-3.34745.13547c0,.07172-.02386.15938.02385.2072.08746.11156.159.22313.3419.22313H10.745a.51132.51132,0,0,0,.58839-.40642,1.78677,1.78677,0,0,0-.11132-1.1316c-.02385-.04781-.04771-.04781-.07156-.04781a.85241.85241,0,0,0-.72356.518,1.07646,1.07646,0,0,0-.159.63752Z" style="fill: #fff"/>
              <path id="Shape-4" data-name="Shape" d="M15.67474,12.58041a4.44761,4.44761,0,0,0,.56454,0,4.35285,4.35285,0,0,0,.90643-.247.24987.24987,0,0,1,.22264-.02391,1.14218,1.14218,0,0,1,.811.61362,9.4969,9.4969,0,0,1,.83487,2.11178c.11132.43033.24649.86066.3419,1.291a.75728.75728,0,0,1-.23058.7969,1.55262,1.55262,0,0,1-.811.43033c-.20673.04782-.27034.02391-.36576-.15938a4.22222,4.22222,0,0,1-.40551-.88456,6.05078,6.05078,0,0,0-.42936-.88456.76772.76772,0,0,0-.3419-.36657.629.629,0,0,0-.6361.04781c-.0477.02391-.02385.04781-.02385.08766a8.03008,8.03008,0,0,0,.08746.97222,3.31777,3.31777,0,0,1,.08746.70127.72414.72414,0,0,1-.56453.81284l-.27034.07172a.60025.60025,0,0,1-.56453-.27094,2.2683,2.2683,0,0,1-.38166-.88456,7.16565,7.16565,0,0,1-.20673-1.546c-.02385-.45424,0-.88456,0-1.3388a1.49461,1.49461,0,0,1,1.0416-1.25113.57962.57962,0,0,1,.33395-.07969Z" style="fill: #fff"/>
              <path id="Shape-5" data-name="Shape" d="M28.44435,16.50116a.85187.85187,0,0,1,.47707-.81284,1.40763,1.40763,0,0,1,.74741-.18328.42011.42011,0,0,1,.18288.07172,1.52121,1.52121,0,0,1,.42936.29485.61963.61963,0,0,1,.20673.50205,5.64309,5.64309,0,0,1-.08746.81284.94134.94134,0,0,1-.13517.31876.74962.74962,0,0,1-.72356.29485,1.32125,1.32125,0,0,1-1.09726-1.299Z" style="fill: #fff"/>
              <path id="Shape-6" data-name="Shape" d="M34.50315,17.65667a.74149.74149,0,0,1-.77127-.72518,2.28217,2.28217,0,0,1,.02386-.5658,7.97585,7.97585,0,0,0,0-1.06785,2.00478,2.00478,0,0,1,.07156-.74909.41982.41982,0,0,1,.318-.31876.33611.33611,0,0,1,.45321.31876,2.64557,2.64557,0,0,1-.02385.61362c-.02385.47814-.04771.97222-.07156,1.45036,0,.04781,0,.07172.07156.04781.159-.04781.29419-.08766.45322-.13547a.05975.05975,0,0,1,.08746.02391.42991.42991,0,0,1,.13517.38251.71693.71693,0,0,1-.74741.72518Z" style="fill: #fff"/>
              <path id="Shape-7" data-name="Shape" d="M31.29087,16.47726v-.22314a.51948.51948,0,0,1,.58839-.54189.85959.85959,0,0,0,.42936-.07172.37948.37948,0,0,1,.50093.18329,2.95052,2.95052,0,0,1,.27034.61361c.07156.22313.13517.45423.20673.70127a.29513.29513,0,0,1-.11132.34267,1.59638,1.59638,0,0,1-.27034.15938.14364.14364,0,0,1-.18288-.07172c-.07156-.13547-.13517-.29485-.20673-.43033a1.78409,1.78409,0,0,0-.159-.29485.24791.24791,0,0,0-.27034-.11157c-.04771.02391-.07156.04782-.07156.08766a3.25642,3.25642,0,0,0,.07156.518.32129.32129,0,0,1-.2942.40642.25773.25773,0,0,1-.27033-.11157,1.25484,1.25484,0,0,1-.159-.38251,2.91961,2.91961,0,0,1-.07156-.773Z" style="fill: #fff"/>
            </g>
          </g>
        </g>
      </g>
    </g>
  </g>
</svg>
