<svg id="Layer_1" data-name="Layer 1" xmlns="http://www.w3.org/2000/svg" xmlns:xlink="http://www.w3.org/1999/xlink" viewBox="0 0 40 26">
  <defs>
    <mask id="mask" x="3.6923" y="6.53897" width="32.61192" height="12.92206" maskUnits="userSpaceOnUse">
      <g id="mask-2">
        <polygon id="path-1" points="3.692 6.539 3.692 19.461 36.304 19.461 36.304 6.539 3.692 6.539" style="fill: #fff"/>
      </g>
    </mask>
  </defs>
  <title>giropay
</title>
  <g id="Rectangle">
    <rect id="path-2" y="0.00119" width="39.9502" height="25.99881" style="fill: #22225f"/>
  </g>
  <g id="Page-1">
    <g id="giropay--65x41--">
      <g id="Page-1-2" data-name="Page-1">
        <g id="Group-3">
          <g style="mask: url(#mask)">
            <path id="Fill-1" d="M32.12264,16.43092a4.01944,4.01944,0,0,0,.83911.08839c1.23661,0,1.52844-.92843,1.91069-1.886L36.30422,11.089H34.955l-.80181,2.48457h-.015L33.29879,11.089H31.84565l1.58083,3.89468a.68272.68272,0,0,1-.68215.52669,1.65725,1.65725,0,0,1-.5322-.08047Zm-.60681-1.53467a4.57541,4.57541,0,0,1-.07469-.89881V12.57966c0-1.16193-.86133-1.579-1.85826-1.579a4.12171,4.12171,0,0,0-1.55861.27076l.02295.892a2.58166,2.58166,0,0,1,1.24354-.28547c.48634,0,.88368.13924.89175.65826a4.03208,4.03208,0,0,0-.62976-.05177c-.71885,0-2.01547.13924-2.01547,1.30093,0,.82624.68912,1.19831,1.461,1.19831a1.34477,1.34477,0,0,0,1.23661-.687h.015c0,.198.02206.39446.03013.5995Zm-2.71992-1.206c0-.36511.3593-.50343.81705-.50343.20218,0,.39734.0138.56955.02171a.86564.86564,0,0,1-.83214.89876c-.31478,0-.55446-.15327-.55446-.417Zm-6.22559,2.74066h1.34836V14.36256h.01509a1.36642,1.36642,0,0,0,1.2373.62116A1.83522,1.83522,0,0,0,26.95428,12.923,1.7906,1.7906,0,0,0,25.283,11.0007a1.54862,1.54862,0,0,0-1.454.77511h-.01508V11.089H22.57032Zm2.99018-3.47851c0,.60649-.3076,1.02333-.81685,1.02333a.89994.89994,0,0,1-.825-.97224.88358.88358,0,0,1,.825-.99395.8496.8496,0,0,1,.81685.94286ZM3.6923,8.237v9.526A1.72507,1.72507,0,0,0,5.44293,19.461H21.42976V6.539H5.44293A1.725,1.725,0,0,0,3.6923,8.237Z" style="fill: #fff"/>
          </g>
        </g>
        <path id="Fill-4" d="M18.27432,14.98373a2.00871,2.00871,0,1,0,0-3.98306,2.00861,2.00861,0,1,0,0,3.98306Zm0-.92051c-.62189,0-.87642-.50431-.87642-1.06675,0-.57011.25453-1.07442.87642-1.07442.62259,0,.87731.50431.87731,1.07442,0,.56244-.25472,1.06675-.87731,1.06675Zm-2.32238-3.01846a2.9862,2.9862,0,0,0-.4569-.04409,1.20369,1.20369,0,0,0-1.15409.78982h-.01509v-.70144H13.09712v3.80721h1.3486V13.289c0-.74572.35278-1.19127.98189-1.19127a1.61337,1.61337,0,0,1,.45686.04318Zm-5.1041,3.8515H12.1962V11.08905H10.84784Zm-.0007-4.42841H12.1962V9.50329H10.84714Zm-.93059.6212H8.695v.68673H8.68083a1.53259,1.53259,0,0,0-1.327-.77511c-1.2137,0-1.76094.84858-1.76094,1.98113a1.72776,1.72776,0,0,0,1.73779,1.91446,1.53371,1.53371,0,0,0,1.31191-.65058h.01508v.205c0,.7451-.41955,1.10317-1.19841,1.10317a2.73845,2.73845,0,0,1-1.31913-.314l-.06743,1.038a4.63621,4.63621,0,0,0,1.49134.24142c1.57365,0,2.35251-.50455,2.35251-2.06861Zm-2.93013,1.871c0-.519.26264-.95057.76471-.95057a.84123.84123,0,0,1,.86137.89881.89729.89729,0,0,1-.86137.97927.82123.82123,0,0,1-.76471-.92751Z" style="fill: #ec2024"/>
      </g>
    </g>
  </g>
</svg>
