<svg id="Layer_1" data-name="Layer 1" xmlns="http://www.w3.org/2000/svg" viewBox="0 0 40 26">
  <title>girocard</title>
  <rect width="40" height="26" style="fill: #fff"/>
  <path d="M17.92934,11.84025h-.65312V15.554h.65312Zm-2.12263,1.88154a1.49823,1.49823,0,0,1-.21443.79709A.96643.96643,0,0,1,14.064,14.764a1.5,1.5,0,0,1-.33789-1.07188,1.38923,1.38923,0,0,1,.43132-1.11844.84149.84149,0,0,1,.58174-.23741,1.02058,1.02058,0,0,1,.616.22822,1.57371,1.57371,0,0,1,.45154,1.15735M16.14,16.59341a2.39984,2.39984,0,0,0,.31829-1.52251l-.00827-3.23065h-.62187V12.414a1.54249,1.54249,0,0,0-.29991-.35015,1.31814,1.31814,0,0,0-.88777-.29623,1.50733,1.50733,0,0,0-1.248.66353,2.179,2.179,0,0,0-.36822,1.29061,2.56649,2.56649,0,0,0,.11028.783,1.73854,1.73854,0,0,0,.51986.81792,1.39384,1.39384,0,0,0,.9861.30849,1.5455,1.5455,0,0,0,.88777-.32227,1.38369,1.38369,0,0,0,.25028-.28l-.0052.50945a1.77207,1.77207,0,0,1-.08639.49473.80811.80811,0,0,1-.16665.28184,1.03971,1.03971,0,0,1-.84458.329,2.96915,2.96915,0,0,1-.94475-.15776,2.20284,2.20284,0,0,1-.367-.1786l-.06923.64669c.10476.042.18166.07045.29316.10875a3.58577,3.58577,0,0,0,1.04585.15684,2.145,2.145,0,0,0,1.06177-.23772,1.32659,1.32659,0,0,0,.44449-.38874m1.09237-5.63664h.715V10.2237h-.715Zm3.12221,1.43489a1.26168,1.26168,0,0,1,.45.08854V11.828c-.03278,0-.23312-.03094-.39977-.03094a1.08126,1.08126,0,0,0-.87429.38109,2.50372,2.50372,0,0,0-.18166.28122l-.03339-.61912h-.62493c.02022.46564.03676.79005.03676,1.24864,0,.53824-.01011.91779-.01011,1.45052v1.014h.67456V13.73588a1.5077,1.5077,0,0,1,.40161-1.135.81592.81592,0,0,1,.56121-.20923m3.41384,1.26947a1.43954,1.43954,0,0,1-.62462,1.282,1.07,1.07,0,0,1-.96436.0291,1.265,1.265,0,0,1-.18227-.11732,1.19723,1.19723,0,0,1-.3526-.48769,1.71022,1.71022,0,0,1-.12345-.71837,1.42756,1.42756,0,0,1,.45032-1.06912,1.10557,1.10557,0,0,1,.72939-.26529,1.01616,1.01616,0,0,1,.95578.70366,1.915,1.915,0,0,1,.11181.643m.14524,1.4836a2.06821,2.06821,0,0,0,.5465-1.49585,1.882,1.882,0,0,0-.95026-1.695,1.94094,1.94094,0,0,0-2.43325.69722,2.21552,2.21552,0,0,0-.25824,1.05687,1.911,1.911,0,0,0,.57622,1.49371,1.857,1.857,0,0,0,.23649.17278,1.73929,1.73929,0,0,0,.99775.25,1.847,1.847,0,0,0,.78484-.14521,1.63528,1.63528,0,0,0,.49995-.33452m2.73864.46564a1.947,1.947,0,0,0,.89451-.19269l-.04994-.59706a1.87657,1.87657,0,0,1-.77442.2,1.06075,1.06075,0,0,1-.47115-.10139,1.34346,1.34346,0,0,1-.70152-1.26794,1.224,1.224,0,0,1,1.2756-1.30929,1.47536,1.47536,0,0,1,.57683.15868l.03462-.60349a2.93163,2.93163,0,0,0-.71438-.12835,1.71133,1.71133,0,0,0-1.47962.68007,2.04406,2.04406,0,0,0-.37955,1.31082,1.75215,1.75215,0,0,0,1.789,1.8506m3.53178-1.72959a1.68175,1.68175,0,0,1-.05637.50178.96772.96772,0,0,1-.16634.31737.91659.91659,0,0,1-.76462.393.63969.63969,0,0,1-.71163-.59491c0-.43286.37956-.61727.71163-.69876a2.51778,2.51778,0,0,1,.4883-.03952c.16634,0,.33269.00521.499.0193Zm.03921,1.67261h.56734V12.96115a1.55341,1.55341,0,0,0-.18595-.63994,1.341,1.341,0,0,0-1.20024-.55233,2.26724,2.26724,0,0,0-.92943.185c-.083.04319-.14551.08577-.235.12866v.58357a2.18084,2.18084,0,0,1,1.03941-.35167.84653.84653,0,0,1,.8216.50178,1.73289,1.73289,0,0,1,.06678.48984c-.17185-.00858-.355-.01532-.53333-.01532a2.68347,2.68347,0,0,0-1.17144.19514,1.12491,1.12491,0,0,0-.29929,1.857,1.29776,1.29776,0,0,0,.77136.26254,1.43577,1.43577,0,0,0,.89451-.24691,2.5638,2.5638,0,0,0,.39364-.39457v.5894Zm2.98313-3.16173a1.266,1.266,0,0,1,.45032.08854V11.828c-.0334,0-.23344-.03094-.4007-.03094a1.07989,1.07989,0,0,0-.87275.38109,2.33752,2.33752,0,0,0-.1832.28122l-.03308-.61912h-.62646c.02175.46564.03308.79005.03308,1.24864,0,.53824-.00306.91779-.00306,1.45052v1.014h.67272V13.73588a1.51929,1.51929,0,0,1,.40222-1.135.81483.81483,0,0,1,.56091-.20923M36.487,13.72853a1.84528,1.84528,0,0,1-.07628.51771,1.07189,1.07189,0,0,1-1.00479.81149.99045.99045,0,0,1-.90308-.61206,1.60761,1.60761,0,0,1-.13694-.76,1.732,1.732,0,0,1,.0965-.57255,1.02521,1.02521,0,0,1,.97171-.75727,1.04815,1.04815,0,0,1,.9766.79618,1.93938,1.93938,0,0,1,.07628.57653m.65131,1.03542c-.01992-.71775-.01992-1.22811-.01992-1.94954,0-.9.015-1.80035.01992-2.69915h-.66322V12.342a1.97139,1.97139,0,0,0-.20954-.23619,1.3595,1.3595,0,0,0-.915-.337,1.58716,1.58716,0,0,0-1.17267.50913,2.17259,2.17259,0,0,0-.50852,1.52128,2.43025,2.43025,0,0,0,.14857.81425,1.51669,1.51669,0,0,0,1.47625,1.02624,1.4244,1.4244,0,0,0,.99131-.38262,1.38662,1.38662,0,0,0,.22975-.2708l.02849.567H37.169c-.01746-.29623-.02025-.49566-.03063-.78944" style="fill: #004090"/>
  <g>
    <path d="M6.33707,12.79131a.89626.89626,0,0,1-.17-.023.75654.75654,0,0,0,.00736-.08271.471.471,0,0,0,.15347.027c.07291,0,.1789-.026.1789-.13019,0-.11549-.12223-.13111-.18778-.13111a.47689.47689,0,0,0-.07291.00337.38786.38786,0,0,0-.06464.01654V12.1526h.416v.06433H6.28254V12.379l.03493-.00276.05024-.00183c.11763,0,.25855.05881.25855.20463,0,.17278-.19575.21229-.28919.21229m.65312-.69753c-.00735-.08608-.05545-.11335-.10753-.11335H5.90973c-.057,0-.09925.02267-.10783.13112l-.03462.77105a.10964.10964,0,0,0,.10354.113H6.92218a.11189.11189,0,0,0,.10293-.11855Z" style="fill: #004090"/>
    <path d="M7.95886,12.79113c-.21811,0-.288-.1933-.288-.35351,0-.17921.06832-.29685.27632-.29685a.593.593,0,0,1,.15317.02512c-.00245.02267-.00582.04657-.00735.07261a.33415.33415,0,0,0-.13173-.027c-.10385,0-.1789.0484-.1884.1887v.03738c.02175-.045.11794-.06679.16267-.06679a.24292.24292,0,0,1,.25.22976c0,.14827-.12407.19054-.22669.19054M8.475,12.115a.14557.14557,0,0,0-.12744-.13448H7.37375a.09854.09854,0,0,0-.09282.09588l.05545.806a.12723.12723,0,0,0,.12192.11335H8.50843a.09647.09647,0,0,0,.094-.0916c0-.00919-.0916-.52813-.12744-.78913" style="fill: #004090"/>
    <path d="M7.92048,12.44414a.11725.11725,0,0,0-.12407.125.158.158,0,0,0,.15378.151.11693.11693,0,0,0,.12254-.12407.156.156,0,0,0-.15225-.15194" style="fill: #004090"/>
    <path d="M5.0136,13.53814,4.61352,14.27H4.47781l.4062-.69018H4.48455c.00306-.03737.00674-.06249.01072-.08731H5.0136Zm.2996-.26284H4.245c-.11733,0-.1259.06617-.13479.13326-.01194.087-.151.93525-.15255.94444-.01593.0968.03492.16787.098.16787H5.21455c.10937-.00337.12928-.08118.13939-.1694l.06617-.96681a.10986.10986,0,0,0-.10691-.10936" style="fill: #004090"/>
    <path d="M6.39224,14.26977c-.11671,0-.2855-.061-.2855-.223,0-.10078.06923-.1645.18594-.21444-.10323-.04686-.14367-.09557-.14367-.17491,0-.15256.16083-.18289.254-.18289.08455,0,.268.02359.268.17676a.22716.22716,0,0,1-.15041.1838.23215.23215,0,0,1,.16787.215c0,.17676-.18349.21965-.29623.21965M7.05,13.39149a.12754.12754,0,0,0-.11794-.1161H5.86013a.13149.13149,0,0,0-.117.10936L5.69624,14.388a.13444.13444,0,0,0,.12223.133H6.97766a.132.132,0,0,0,.11794-.13663Z" style="fill: #004090"/>
    <path d="M6.40649,13.79932c.05146,0,.14428-.09986.1452-.14367.00215-.07965-.087-.10416-.13785-.10416-.05208,0-.14551.01777-.14551.09956,0,.04841.08669.14827.13816.14827" style="fill: #004090"/>
    <path d="M6.396,13.87928c-.06954,0-.166.11579-.166.16573a.15191.15191,0,0,0,.166.13785c.06617,0,.17-.03063.17-.13173a.21148.21148,0,0,0-.17-.17185" style="fill: #004090"/>
    <path d="M8.36,13.99247a.27725.27725,0,0,1-.30756.27754.52964.52964,0,0,1-.17155-.02879c.00306-.05423.00643-.07383.00765-.09558a.47774.47774,0,0,0,.15134.03369.2157.2157,0,0,0,.208-.24108.16667.16667,0,0,0-.0049-.04841.17221.17221,0,0,1-.16175.07659.27249.27249,0,0,1-.28918-.27356c0-.159.12529-.21842.2512-.21842.21566,0,.29316.17369.31675.39947a.3664.3664,0,0,1,0,.11855m.31767-.61115a.12148.12148,0,0,0-.12682-.106H7.47953a.11719.11719,0,0,0-.10752.106c0,.00919.0726.95517.0726.95517.00919.099.02573.18441.13663.18441H8.73981a.11024.11024,0,0,0,.10446-.11518c0-.00766-.10875-.7444-.16665-1.0244" style="fill: #004090"/>
    <path d="M8.05,13.55462a.13009.13009,0,0,0-.13847.14183.18351.18351,0,0,0,.16665.18289.12971.12971,0,0,0,.1351-.14031A.16938.16938,0,0,0,8.05,13.55462" style="fill: #004090"/>
  </g>
  <polygon points="10.432 17.212 8.8 10.399 8.794 10.399 8.793 10.395 8.064 10.395 8.064 10.506 8.072 10.506 8.072 10.51 8.681 10.51 10.255 17.083 2.565 17.08 4.127 10.51 4.746 10.51 4.744 10.399 4.737 10.399 4.737 10.395 4.008 10.395 2.375 17.206 2.383 17.206 2.382 17.21 10.432 17.212" style="fill: #004090"/>
  <g>
    <path d="M7.88657,7.78929a.28826.28826,0,0,0-.1192-.02674H5.03513a.29436.29436,0,0,0-.29378.29439L4.742,10.72975h.00735v.004h.19881L4.94752,8.061a.0957.0957,0,0,1,.095-.09619h.49994V9.9094H4.98122l.75574.81731H5.7406l.00371.004H7.0729l.75482-.81732H7.81666l.00371-.004H7.26743V7.96476h.50729a.09129.09129,0,0,1,.05943.02561.09652.09652,0,0,1,.02757.0666v2.67281h.00735v.004h.19882V8.061A.29465.29465,0,0,0,7.88657,7.78929Z" style="fill: #4bbde3"/>
    <path d="M5.22644,14.87754a.12046.12046,0,0,0-.05738-.01538H4.00252c-.08516.00583-.14643.03523-.15653.1302-.01073.109-.21138,1.286-.21291,1.2952a.132.132,0,0,0,.06859.12885.104.104,0,0,0,.05606.0173H5.064c.08363,0,.1581-.11181.15623-.18686l.08792-1.2465A.14078.14078,0,0,0,5.22644,14.87754Z" style="fill: #004090"/>
    <path d="M8.948,15.01074a.14389.14389,0,0,0-.09833-.13562.19585.19585,0,0,0-.07107-.013H7.61178a.12982.12982,0,0,0-.12835.14459s.09619,1.29949.08914,1.26242a.16564.16564,0,0,0,.09867.1505.1546.1546,0,0,0,.064.014H9.03408c.0772,0,.11794-.08363.11794-.14214C9.152,16.28235,8.99462,15.41848,8.948,15.01074Z" style="fill: #004090"/>
    <g>
      <path d="M6.445,15.23164a.11853.11853,0,0,0-.05263-.01274c-.16144.00092-.17676.21352-.18074.378-.00377.15.01063.3454.12569.39052a.13916.13916,0,0,0,.06053.01388c.15868,0,.17829-.23864.17829-.41632C6.57611,15.44672,6.54587,15.2718,6.445,15.23164Z" style="fill: #004090"/>
      <path d="M7.13941,15.31708H7.13876L7.127,15.04281a.16815.16815,0,0,0-.08924-.16043.12629.12629,0,0,0-.06393-.01877H5.80392a.156.156,0,0,0-.14245.12682l-.014.32267H5.64662l-.04412.946a.19752.19752,0,0,0,.07555.15265.10918.10918,0,0,0,.06687.0223H7.04747c.09374,0,.1351-.11181.1351-.17339Zm-.75051.795a.32054.32054,0,0,1-.15123-.03266c-.12223-.06883-.16267-.23153-.16678-.456A.83028.83028,0,0,1,6.1147,15.318H6.1125l.00174-.0001A.317.317,0,0,1,6.582,15.162a.30591.30591,0,0,1,.09928.15133l.00022,0a.98144.98144,0,0,1,.03946.29016C6.72677,15.88871,6.64991,16.112,6.3889,16.112Z" style="fill: #004090"/>
    </g>
    <path d="M8.27834,10.96572A.06959.06959,0,0,0,8.23487,10.92a.15626.15626,0,0,0-.07661-.01927H7.30082c-.03336,0-.10385.02237-.10385.08088l.045.6479a.12908.12908,0,0,0,.04684.10009.09511.09511,0,0,0,.06528.02h.965a.07818.07818,0,0,0,.08-.08057C8.39907,11.6608,8.32249,11.19945,8.27834,10.96572Zm-.68528.52632a.696.696,0,0,0,.11028.02359c.042.00337.05208.00337.06127.00337.04442,0,.144-.0046.144-.08854a.093.093,0,0,0-.06571-.083.2541.2541,0,0,0-.09907-.02454H7.65988a.54888.54888,0,0,0,.0003-.05848h.0772c.03462,0,.1351-.02451.1351-.07842a.07791.07791,0,0,0-.06271-.07374.274.274,0,0,0-.09322-.016.61622.61622,0,0,0-.13791.02334.33436.33436,0,0,1-.00975-.05306.39089.39089,0,0,1,.10293-.02175.83066.83066,0,0,1,.11182,0,.26741.26741,0,0,1,.112.03113.12474.12474,0,0,1,.07211.10608c0,.06495-.05912.09405-.12958.10845l.01075.003-.0034.00095a.34716.34716,0,0,1,.06381.0181.14246.14246,0,0,1,.10069.128c0,.1219-.19391.13755-.24262.13755a.79435.79435,0,0,1-.1743-.02411V11.492Z" style="fill: #004090"/>
    <path d="M6.93728,10.987a.07506.07506,0,0,0-.04763-.06488.15634.15634,0,0,0-.074-.02123H5.95819a.10217.10217,0,0,0-.11028.09282l-.03247.658a.10325.10325,0,0,0,.05759.08553.07764.07764,0,0,0,.04013.01223H6.88a.10269.10269,0,0,0,.08945-.087Zm-.76.50822c.02818-.01777.31889-.1881.31889-.29869a.0727.0727,0,0,0-.054-.07128.21265.21265,0,0,0-.0817-.01544.45867.45867,0,0,0-.14827.03027c-.00389-.02022-.0076-.03909-.01011-.059a.70454.70454,0,0,1,.1884-.02911.31143.31143,0,0,1,.13221.02837.1251.1251,0,0,1,.07153.11439c0,.13509-.24691.24936-.32318.32012h.01234l-.005.004h.33409a.54092.54092,0,0,0,.00012.05882h-.4353v-.0824Z" style="fill: #004090"/>
    <path d="M5.53008,10.91217a.11863.11863,0,0,0-.053-.01137H4.61968c-.08455,0-.10937.02512-.117.06771-.04227.22944-.1115.68834-.11273.69661a.06085.06085,0,0,0,.02549.06638.09274.09274,0,0,0,.06093.0182h.96619c.03891,0,.08945-.01841.09987-.106-.00153.03615.04258-.63719.04258-.63719A.08913.08913,0,0,0,5.53008,10.91217Zm-.45791.66534H4.97926l.0525-.43222-.00836.00414.001-.00815c-.035.01676-.10336.05272-.10893.05563l-.04207-.03909.18411-.09833h.071Z" style="fill: #004090"/>
  </g>
  <g>
    <path d="M5.51134,12.06964a.09872.09872,0,0,0-.0613-.0817.0841.0841,0,0,0-.03949-.01146H4.43762a.12349.12349,0,0,0-.12346.08915c-.03281.08179-.12161.7876-.12315.79679a.11339.11339,0,0,0,.05781.12091.07612.07612,0,0,0,.03869.01234H5.33734c.06708,0,.10721-.04013.11794-.117C5.45007,12.91633,5.51134,12.06964,5.51134,12.06964Zm-.49064.49869-.00039.004h.08384a.55591.55591,0,0,0,.00012.07411h-.095c-.00613.0438-.01287.08945-.01746.13938H4.8884l.01369-.1354H4.89434l.0004-.004h-.3178c.00328-.02736.0102-.07656.0102-.07656s.23037-.2754.35046-.41172h.11662L5.013,12.5683H5.0207Z" style="fill: #004090"/>
    <polygon points="4.949 12.241 4.688 12.571 4.698 12.571 4.695 12.575 4.919 12.575 4.956 12.245 4.947 12.257 4.949 12.241" style="fill: #004090"/>
  </g>
</svg>

