<svg xmlns="http://www.w3.org/2000/svg" viewBox="0 0 40 26">
  <title>givex</title>
  <g id="Layer_1" data-name="Layer 1">
    <rect width="40" height="26" style="fill: #252828"/>
  </g>
  <g id="Layer_2" data-name="Layer 2">
    <g>
      <path d="M5.01931,17.93951c1.78027,0,2.67648-.80133,2.67648-1.79456,0-1.00113-.652-1.52512-1.956-1.52512-.41663,0-.8436.04745-1.25385.04745-.25576,0-.41268-.06965-.41268-.25972,0-.18733.26306-.33908.48962-.39078a2.86187,2.86187,0,0,0,.49236.02646,2.06505,2.06505,0,0,0,2.27414-2.01595A1.95229,1.95229,0,0,0,6.98751,10.889l.64077-.44522L6.69952,9.6394l-.53524.59272a2.61844,2.61844,0,0,0-1.26753-.27857,2.148,2.148,0,0,0-2.34652,2.09594,1.828,1.828,0,0,0,.98958,1.66075,1.08018,1.08018,0,0,0-.76.95065c0,.61917.458,1.0209,1.37581,1.0209.44764,0,.93665-.01916,1.38431-.01916.55409,0,.83874.19311.83874.52,0,.36311-.41724.64076-1.35056.64076A2.77984,2.77984,0,0,1,3.156,16.18053l-.81562.96616a4.15527,4.15527,0,0,0,2.67891.79282m-.07025-6.94377a1.03791,1.03791,0,1,1-.0149,2.07161,1.03947,1.03947,0,1,1,.0149-2.07161" style="fill: #fff"/>
      <polygon points="14.952 10.048 13.501 13.928 12.145 10.048 10.704 10.048 12.896 15.544 14.096 15.544 16.348 10.048 14.952 10.048" style="fill: #fff"/>
      <path d="M21.67574,13.1951H17.71043a1.47153,1.47153,0,0,0,1.62242,1.37672,2.10883,2.10883,0,0,0,1.3837-.48628l.50241.95643a3.21393,3.21393,0,0,1-2.05671.62829,2.65667,2.65667,0,0,1-2.83037-2.82093,2.7565,2.7565,0,0,1,2.77806-2.93954,2.4672,2.4672,0,0,1,2.64364,2.61627,3.36058,3.36058,0,0,1-.07784.669m-3.92182-.97224h2.68833a1.27675,1.27675,0,0,0-1.33992-1.259,1.36722,1.36722,0,0,0-1.34841,1.259" style="fill: #fff"/>
      <path d="M26.99772,14.64127c-.52765-.0079-.78675-.29285-1.6425-1.94144l2.29724-2.65611H26.30161l-1.4491,1.72948c-.624-1.148-.98958-1.84383-1.91621-1.846a1.4059,1.4059,0,0,0-.33542.03954l-.434.97224a.86264.86264,0,0,1,.21774-.02858c.48444.00152.69428.31293,1.56283,1.91955L21.5818,15.54813h1.39131l1.4728-1.77327c.58086.98684,1.01694,1.86907,1.891,1.86907a1.2562,1.2562,0,0,0,.59666-.11648l.40965-.933a.87739.87739,0,0,1-.34547.04683" style="fill: #c1d82f"/>
      <path d="M9.32748,8.06049a.74386.74386,0,1,1-.74417.74385.74014.74014,0,0,1,.74417-.74385" style="fill: #fff"/>
      <rect x="28.23952" y="14.85847" width="0.69916" height="0.69216" style="fill: #fff"/>
      <path d="M29.48179,14.59943v-.007a.99456.99456,0,0,1,1.02576-1.00113.91311.91311,0,0,1,.81988.42606l-.45435.3406a.43077.43077,0,0,0-.35853-.20223.40192.40192,0,0,0-.37955.42941v.00729a.39818.39818,0,0,0,.38318.4364.45089.45089,0,0,0,.36919-.19858l.45069.32631a.9506.9506,0,0,1-.8518.44035.98866.98866,0,0,1-1.00447-.99748" style="fill: #fff"/>
      <path d="M33.26894,14.59943v-.007a.4202.4202,0,0,0-.41177-.4367.403.403,0,0,0-.40081.42941v.00729a.41628.41628,0,0,0,.40813.43306.405.405,0,0,0,.40445-.42606m-1.4658,0v-.007a1.06124,1.06124,0,0,1,2.119-.00729v.00729a1.02291,1.02291,0,0,1-1.065,1.00448,1.01215,1.01215,0,0,1-1.054-.99748" style="fill: #fff"/>
      <path d="M34.561,13.63041h.67451v.26275a.70422.70422,0,0,1,.57143-.30533.58813.58813,0,0,1,.55349.31232.80812.80812,0,0,1,.64258-.31232.62354.62354,0,0,1,.65657.7028v1.25994h-.67421V14.50716c0-.20953-.10309-.323-.26275-.323s-.27674.11344-.27674.323v1.04341H35.775V14.50716c0-.20953-.10673-.323-.2664-.323s-.27309.11344-.27309.323v1.04341H34.561Z" style="fill: #fff"/>
      <polygon points="8.772 15.547 8.772 11.098 8.072 11.098 8.072 10.048 10.07 10.048 10.07 15.547 8.772 15.547" style="fill: #fff"/>
    </g>
  </g>
</svg>
