<svg id="Layer_1" data-name="Layer 1" xmlns="http://www.w3.org/2000/svg" xmlns:xlink="http://www.w3.org/1999/xlink" viewBox="0 0 40 26">
  <defs>
    <mask id="mask" x="-0.05753" y="0.38327" width="40.05753" height="25.26706" maskUnits="userSpaceOnUse">
      <g id="mask-2">
        <rect id="path-1" x="-0.05753" y="0.38327" width="40.05753" height="25.26706" rx="2.46508" ry="2.46508" style="fill: #fff"/>
      </g>
    </mask>
    <mask id="mask-2-2" x="8.57023" y="10.59185" width="9.38046" height="8.88405" maskUnits="userSpaceOnUse">
      <g id="mask-4">
        <polygon id="path-3" points="8.57 10.592 8.57 19.476 17.951 19.476 17.951 10.592 8.57 10.592" style="fill: #fff"/>
      </g>
    </mask>
  </defs>
  <title>google_wallet</title>
  <g id="Rectangle">
    <rect id="path-2" width="39.99966" height="26" style="fill: #fff"/>
  </g>
  <g id="Page-1">
    <g id="google-wallet-65x41--">
      <g style="mask: url(#mask)">
        <g id="Page-1-2" data-name="Page-1">
          <g>
            <path id="Fill-1" d="M22.75988,3.46513h3.91865s.40818-.02138.57883.97314c.18647,1.0862,2.29325,11.20708-.26721,18.64352-1.38034-3.8221-3.59335-11.657-3.59335-11.657a56.01589,56.01589,0,0,0-1.20091-7.21854c-.25236-.78667.564-.74108.564-.74108" style="fill: #547dbe"/>
            <path id="Fill-3" d="M19.86546,13.67168a32.33479,32.33479,0,0,1-1.91475,5.85566c-1.06873-.668-2.84993-4.88711-2.84993-4.88711l.10026-1.56974s.6749-5.1054.59514-5.87782c-.06082-.59006,2.37721,1.36922,2.37721,1.36922Z" style="fill: #f8bb15"/>
            <path id="Fill-5" d="M28.2281,15.61585a25.97355,25.97355,0,0,1-1.23791,7.47382c-1.38044-3.82238-3.59267-11.66143-3.59267-11.66143h0l4.82882,4.18048Z" style="fill: none"/>
            <path id="Fill-7" d="M15.843,6.9797h4.78508a.42954.42954,0,0,1,.22826.11481A7.66781,7.66781,0,0,1,21.847,8.64785c1.02421,1.87209,1.74977,2.96014,2.21906,4.08119A31.07183,31.07183,0,0,1,26.9902,22.9905H22.22552a1.32937,1.32937,0,0,1-.16323-.60352c-.67909-7.34-6.249-15.18645-6.249-15.18645s-.05379-.22083.02968-.22083" style="fill: #ea4435"/>
            <path id="Fill-9" d="M18.721,17.23733l.09216.17847a12.98145,12.98145,0,0,1-.86244,2.11088c-.94766-.59142-2.39976-3.97273-2.731-4.73676L15.19784,13.115l.52641.43415A16.35165,16.35165,0,0,1,18.721,17.23733" style="fill: none"/>
            <g id="Group-13">
              <g style="mask: url(#mask-2-2)">
                <path id="Fill-11" d="M15.32345,13.33771c-.30782-.536-.612-1.04461-1.3248-2.08736-.30049-.43972-.37293-.5185-.37293-.5185s-.05009-.14-.3952-.14H8.8667s-.501.2263-.20043.57141a20.25607,20.25607,0,0,1,3.22842,5.23964,14.6991,14.6991,0,0,1,.90169,2.711.41516.41516,0,0,0,.44527.362h4.709s-.53061-1.80737-.92024-2.72028a30.7419,30.7419,0,0,0-1.707-3.41791" style="fill: #34a751"/>
              </g>
            </g>
          </g>
        </g>
      </g>
    </g>
  </g>
</svg>
