<svg id="Layer_1" data-name="Layer 1" xmlns="http://www.w3.org/2000/svg" xmlns:xlink="http://www.w3.org/1999/xlink" viewBox="0 0 40 26">
  <defs>
    <mask id="mask" x="9.71787" y="3.67328" width="21.19828" height="18.65344" maskUnits="userSpaceOnUse">
      <g id="mask-2">
        <polygon id="path-1" points="30.916 22.327 9.718 22.327 9.718 3.673 30.916 3.673 30.916 22.327" style="fill: #fff"/>
      </g>
    </mask>
  </defs>
  <title>ideal
</title>
  <g id="Page-1">
    <g id="ideal-65x41--">
      <rect width="39.9502" height="26" style="fill: #fff"/>
      <g id="Page-1-2" data-name="Page-1">
        <polygon id="Fill-1" points="12.074 19.865 15.471 19.865 15.471 14.173 12.074 14.173 12.074 19.865"/>
        <g id="Group-9">
          <path id="Fill-2" d="M15.72755,11.32682a1.92292,1.92292,0,1,1-1.92283-1.94061,1.93221,1.93221,0,0,1,1.92283,1.94061"/>
          <g id="Group-6">
            <g style="mask: url(#mask)">
              <path id="Fill-4" d="M21.67474,4.91218a8.363,8.363,0,0,1,5.69292,1.86776c1.54008,1.38127,2.32092,3.474,2.32092,6.22006,0,5.44224-2.62136,8.08782-8.01384,8.08782H10.94544V4.91218Zm.23061-1.2389H9.71787V22.32672H21.90535v-.00354a9.572,9.572,0,0,0,6.26777-1.98911c1.82018-1.56285,2.743-4.03042,2.743-7.33407a11.47433,11.47433,0,0,0-.72146-4.21017,7.67448,7.67448,0,0,0-2.01157-2.936,9.45,9.45,0,0,0-6.27777-2.17646Z"/>
            </g>
          </g>
          <path id="Fill-7" d="M21.33945,19.87172H17.03071V6.42042h4.13485c3.59335,0,7.41822,1.43121,7.41822,6.74333,0,5.61583-3.82487,6.708-7.41822,6.708Z" style="fill: #cb1b69"/>
        </g>
        <g id="Group-30">
          <path id="Fill-10" d="M16.93471,10.44137v2.13934h.48447a1.75855,1.75855,0,0,0,.39237-.03087.59816.59816,0,0,0,.262-.13437.68522.68522,0,0,0,.16989-.31178,2.117,2.117,0,0,0,.06576-.59155,1.93885,1.93885,0,0,0-.06576-.575.73971.73971,0,0,0-.18413-.31284.617.617,0,0,0-.30034-.15206,2.93068,2.93068,0,0,0-.53266-.03084Zm-.64665-.54865h1.183a2.29023,2.29023,0,0,1,.61014.0618,1.07057,1.07057,0,0,1,.48324.29808,1.417,1.417,0,0,1,.30612.52434,2.41,2.41,0,0,1,.105.765,2.14686,2.14686,0,0,1-.09838.68883,1.42955,1.42955,0,0,1-.3433.57181,1.13511,1.13511,0,0,1-.45487.25832,1.94078,1.94078,0,0,1-.57293.06846h-1.218Z" style="fill: #fff"/>
          <path id="Fill-12" d="M17.47106,9.98121a2.22157,2.22157,0,0,1,.58555.05827.98891.98891,0,0,1,.44421.274,1.33618,1.33618,0,0,1,.28679.4921,2.33364,2.33364,0,0,1,.10024.73636,2.06856,2.06856,0,0,1-.09364.66009,1.34867,1.34867,0,0,1-.32145.53708,1.05525,1.05525,0,0,1-.42053.23755,1.8689,1.8689,0,0,1-.54617.06421H16.37575V9.98121Zm-1.27068-.177v3.41362h1.30568a2.03327,2.03327,0,0,0,.59937-.07259A1.226,1.226,0,0,0,18.595,12.866a1.52322,1.52322,0,0,0,.36505-.60646,2.2441,2.2441,0,0,0,.10315-.71757,2.50887,2.50887,0,0,0-.10967-.7936,1.51136,1.51136,0,0,0-.32549-.55662,1.1615,1.1615,0,0,0-.5221-.32208,2.34668,2.34668,0,0,0-.6349-.06541Z" style="fill: #fff"/>
          <path id="Fill-14" d="M17.22626,10.52987a2.73033,2.73033,0,0,1,.51348.0287.53445.53445,0,0,1,.25944.13016.657.657,0,0,1,.161.27617,1.86663,1.86663,0,0,1,.06131.54724,2.04278,2.04278,0,0,1-.06194.56568.60582.60582,0,0,1-.14474.27192.51485.51485,0,0,1-.22444.11426,1.69659,1.69659,0,0,1-.37118.02821h-.39675V10.52987Zm-.37925-.177V12.6692h.57216a1.8163,1.8163,0,0,0,.41393-.03356.68627.68627,0,0,0,.29911-.15447.76134.76134,0,0,0,.195-.3516,2.18071,2.18071,0,0,0,.06958-.61743,2.00184,2.00184,0,0,0-.07022-.60285.82983.82983,0,0,0-.20728-.34948.70536.70536,0,0,0-.34186-.17408,2.95978,2.95978,0,0,0-.55122-.03285Z" style="fill: #fff"/>
          <polygon id="Fill-16" points="19.707 13.129 19.707 9.893 22.081 9.893 22.081 10.441 20.354 10.441 20.354 11.158 21.961 11.158 21.961 11.707 20.354 11.707 20.354 12.581 22.143 12.581 22.143 13.129 19.707 13.129" style="fill: #fff"/>
          <path id="Fill-18" d="M21.99359,9.98121v.37167H20.26622v.89378H21.873v.37167H20.26622V12.6692H22.055v.37167h-2.26V9.98121Zm-2.374-.177v3.41362h2.61076v-.72564H20.44158v-.6969h1.60683v-.72564H20.44158v-.5398H22.169V9.80423Z" style="fill: #fff"/>
          <path id="Fill-20" d="M24.57193,11.8462l-.44206-1.19908-.43319,1.19908Zm1.19212,1.28314h-.70449l-.27981-.73449H23.49851l-.26544.73449h-.687L23.79232,9.8927h.68923Z" style="fill: #fff"/>
          <path id="Fill-22" d="M24.42219,9.98121c.041.10336,1.12484,2.83882,1.21235,3.05966H25.1198L24.84,12.30638h-1.4028s-.2298.63584-.2654.73449h-.49756l1.17812-3.05966Zm-.6899-.177-1.31438,3.41362h.87652l.26541-.73449h1.1597c.03676.0966.27982.73449.27982.73449h.8942L24.54091,9.80423Z" style="fill: #fff"/>
          <path id="Fill-24" d="M24.13067,10.90314l.31507.85456H23.822c.05513-.15256.2144-.5934.30871-.85456Zm-.55928,1.03155h1.12674l-.5691-1.5436Z" style="fill: #fff"/>
          <polygon id="Fill-26" points="26.305 13.129 26.305 9.919 26.952 9.919 26.952 12.581 28.563 12.581 28.563 13.129 26.305 13.129" style="fill: #fff"/>
          <path id="Fill-28" d="M26.864,10.00776V12.6692h1.61121v.37167H26.39269V10.00776Zm-.64665-.177v3.38708h2.43322v-.72564h-1.6112V9.83077Z" style="fill: #fff"/>
        </g>
      </g>
    </g>
  </g>
</svg>
