<svg id="Layer_1" data-name="Layer 1" xmlns="http://www.w3.org/2000/svg" viewBox="0 0 40 26">
  <defs>
    <clipPath id="clip-path">
      <rect x="7" y="-1" width="26" height="26.00045" style="fill: none"/>
    </clipPath>
  </defs>
  <title>interac_1</title>
  <rect width="40" height="26" style="fill: #fdb913"/>
  <g style="clip-path: url(#clip-path)">
    <g>
      <path d="M21.46558,12.27135l-.00209-4.49652,1.1737-.27855v.58947a1.687,1.687,0,0,1,1.00959-.95514.67549.67549,0,0,1,.32644-.02193V8.256a1.64466,1.64466,0,0,0-.615.128,1.07016,1.07016,0,0,0-.652,1.11552l.00074,2.48287Z" style="fill: #231f20"/>
      <path d="M15.2783,13.73353a2.67524,2.67524,0,0,1-.19082-1.29783V10.19677l-.60393.14367V9.41813l.60527-.14293V8.26979l1.248-.29481V8.9804l.88188-.20947V9.6922l-.88188.20931s-.00134,1.83433,0,2.27982c0,1.03659.27511,1.23562.27511,1.23562Z" style="fill: #231f20"/>
      <path d="M17.34914,11.0585a3.77616,3.77616,0,0,1,.35821-1.83015A2.08651,2.08651,0,0,1,19.16959,8.193c1.36915-.31137,1.86327.49905,1.84418,1.58577-.00731.38865-.00552.578-.00552.578l-2.41215.56694v.03893c0,.75925.15918,1.11955.64033,1.0175a.65806.65806,0,0,0,.5641-.67c.00537-.05192.00791-.184.00791-.184l1.13-.27079s.00269.0925.001.19634a1.89424,1.89424,0,0,1-1.70587,1.87312c-1.48775.35314-1.88446-.55545-1.88446-1.86625m1.87058-2.028c-.39969.09071-.6093.48278-.6184,1.13237l1.21339-.289c.00208-.02939.00238-.09414.00208-.19559-.00208-.49039-.15366-.74924-.59707-.64779" style="fill: #231f20"/>
      <path d="M28.19727,8.429c-.0467-1.36944.30853-2.45631,1.83642-2.80244.97378-.22125,1.34363.03208,1.53087.2769a1.56464,1.56464,0,0,1,.2496.99005l.001.081-1.19533.28406L30.619,7.09222c.00089-.52337-.14457-.72239-.52472-.6272-.452.11353-.63466.54261-.63466,1.39569,0,.30287.00134.35717.00134.39805,0,.867.11846,1.26381.63944,1.15475.45191-.09339.51382-.49024.52113-.83816.0009-.05461.00313-.22946.00313-.22946l1.19355-.282s.00119.08817.00119.18619a2.01293,2.01293,0,0,1-1.72467,2.11451c-1.54653.36254-1.84939-.53113-1.89744-1.93563" style="fill: #231f20"/>
      <path d="M24.06515,10.34627c0-1.04167.6102-1.37108,1.52863-1.75108.82593-.34165.84383-.51128.84727-.80818.00462-.24989-.1113-.46369-.52248-.3588a.62058.62058,0,0,0-.49771.58826,2.14214,2.14214,0,0,0-.00775.2308l-1.158.27348a2.30376,2.30376,0,0,1,.08-.6842c.18515-.62288.73447-1.042,1.68275-1.26143,1.232-.28391,1.64276.25676,1.64425,1.09776V9.66446c0,.96319.17873,1.10432.17873,1.10432l-1.13685.269a2.47144,2.47144,0,0,1-.15232-.40834,1.55632,1.55632,0,0,1-1.10746.82891,1.0363,1.0363,0,0,1-1.379-1.11208m2.368-1.42241a4.293,4.293,0,0,1-.60483.35419.80451.80451,0,0,0-.55022.76536.39236.39236,0,0,0,.53172.42.877.877,0,0,0,.62333-.91307Z" style="fill: #231f20"/>
      <path d="M8.75287,16.8856a.72167.72167,0,0,1-.60468-1.11417l.00806-.01044.01357-.00358,1.69752-.40074v1.28918l-.02641.00612c-.38507.09265-.84533.19813-.94006.21827a.70986.70986,0,0,1-.148.01536" style="fill: #231f20"/>
      <path d="M8.75287,18.53477a.72057.72057,0,0,1-.72075-.71986.713.713,0,0,1,.11607-.39193l.00806-.01208.01357-.00343,1.69752-.40059v1.28918l-.02641.00687c-.38507.09235-.84533.199-.94006.218a.76341.76341,0,0,1-.148.01387" style="fill: #231f20"/>
      <path d="M8.75287,20.18711a.72118.72118,0,0,1-.72075-.72045.71044.71044,0,0,1,.11607-.39193l.00806-.013,1.71109-.40327v1.28918l-.02641.00686c-.4067.09787-.85831.19992-.94006.218a.75208.75208,0,0,1-.148.01462" style="fill: #231f20"/>
      <polygon points="8.553 15.306 8.552 8.093 9.867 7.782 9.867 14.995 8.553 15.306" style="fill: #231f20"/>
      <path d="M11.82826,14.69221a.81139.81139,0,0,0-1.62278-.00071v.00071l.00135,6.74188a2.19975,2.19975,0,0,0,2.19552,2.197c.61423,0,2.29683-.003,2.29683-.003l.00074-2.81258c.00045-1.53669.00075-3.10083.00075-3.13649a1.06212,1.06212,0,0,0-.4719-.88426L12.1817,15.40446s-.00045,3.01847-.00045,3.15722a.17456.17456,0,0,1-.34911,0c0-.03387-.00388-3.45248-.00388-3.86947" style="fill: #231f20"/>
      <path d="M12.92408,9.66212a1.77421,1.77421,0,0,0-1.17057.905v-.507l-1.18414.28019.00134,3.23748a1.21144,1.21144,0,0,1,1.2468.218V11.70546a.93163.93163,0,0,1,.60513-.97915c.2678-.05878.49144.037.49144.514l.0009,3.0498,1.24725-.29242v-3.2263c0-.78221-.30122-1.329-1.23815-1.10924" style="fill: #231f20"/>
      <path d="M31.04592,5.04544a.771.771,0,1,1,.77028-.77163v.001a.77133.77133,0,0,1-.77028.77059m0-1.44494a.67421.67421,0,1,0,.67405.67435.6742.6742,0,0,0-.67405-.67435" style="fill: #231f20"/>
      <path d="M30.76518,3.81544h.33225a.21723.21723,0,0,1,.23886.24184c0,.122-.05416.21588-.1568.23185v.00179c.0934.00955.14248.061.14725.19335.00179.05968.00269.13368.00552.19127a.09688.09688,0,0,0,.04461.08131h-.16978a.15673.15673,0,0,1-.02536-.08355c-.00523-.05625-.00388-.10936-.00642-.17769-.00253-.10264-.034-.14755-.13711-.14755h-.12293v.40879h-.15009Zm.27034.41923a.13838.13838,0,0,0,.15023-.15262c0-.10041-.04341-.15322-.14232-.15322h-.12816v.30584Z" style="fill: #231f20"/>
    </g>
  </g>
</svg>

