<svg id="Layer_1" data-name="Layer 1" xmlns="http://www.w3.org/2000/svg" xmlns:xlink="http://www.w3.org/1999/xlink" viewBox="0 0 40 26">
  <defs>
    <mask id="mask" x="-1.56064" y="-1.19958" width="43.12128" height="27.19958" maskUnits="userSpaceOnUse">
      <g id="mask-2">
        <rect id="path-1" x="-1.56064" y="-1.19958" width="43.12128" height="27.19958" rx="2.65362" ry="2.65362" style="fill: #fff"/>
      </g>
    </mask>
    <mask id="mask-2-2" x="4.4101" y="17.14974" width="2.04238" height="4.31257" maskUnits="userSpaceOnUse">
      <g id="mask-4">
        <polygon id="path-3" points="4.41 21.462 6.452 21.462 6.452 17.15 4.41 17.15 4.41 21.462" style="fill: #fff"/>
      </g>
    </mask>
    <mask id="mask-3" x="11.32169" y="17.14974" width="3.47809" height="4.31257" maskUnits="userSpaceOnUse">
      <g id="mask-6">
        <polygon id="path-5" points="11.322 21.462 14.8 21.462 14.8 17.15 11.322 17.15 11.322 21.462" style="fill: #fff"/>
      </g>
    </mask>
    <mask id="mask-4-2" x="14.10662" y="17.14964" width="3.93309" height="4.31257" maskUnits="userSpaceOnUse">
      <g id="mask-8">
        <polygon id="path-7" points="14.107 21.462 18.04 21.462 18.04 17.15 14.107 17.15 14.107 21.462" style="fill: #fff"/>
      </g>
    </mask>
    <mask id="mask-5" x="17.51215" y="17.14954" width="4.06733" height="4.31257" maskUnits="userSpaceOnUse">
      <g id="mask-10">
        <polygon id="path-9" points="17.512 21.462 21.579 21.462 21.579 17.15 17.512 17.15 17.512 21.462" style="fill: #fff"/>
      </g>
    </mask>
    <mask id="mask-6-2" x="21.48193" y="17.14974" width="3.12864" height="4.31257" maskUnits="userSpaceOnUse">
      <g id="mask-12">
        <polygon id="path-11" points="21.482 21.462 24.611 21.462 24.611 17.15 21.482 17.15 21.482 21.462" style="fill: #fff"/>
      </g>
    </mask>
    <mask id="mask-7" x="24.81859" y="17.14974" width="2.0434" height="4.31257" maskUnits="userSpaceOnUse">
      <g id="mask-14">
        <polygon id="path-13" points="24.819 21.462 26.862 21.462 26.862 17.15 24.819 17.15 24.819 21.462" style="fill: #fff"/>
      </g>
    </mask>
    <mask id="mask-8-2" x="26.56594" y="17.14974" width="4.91482" height="4.31257" maskUnits="userSpaceOnUse">
      <g id="mask-16">
        <polygon id="path-15" points="26.566 21.462 31.481 21.462 31.481 17.15 26.566 17.15 26.566 21.462" style="fill: #fff"/>
      </g>
    </mask>
    <mask id="mask-9" x="31.22815" y="17.14974" width="4.72319" height="4.31257" maskUnits="userSpaceOnUse">
      <g id="mask-18">
        <polygon id="path-17" points="31.228 21.462 35.951 21.462 35.951 17.15 31.228 17.15 31.228 21.462" style="fill: #fff"/>
      </g>
    </mask>
  </defs>
  <title>interlink</title>
  <g id="Page-1">
    <g id="interlink_65x41" data-name="interlink 65x41">
      <rect width="40" height="26" style="fill: #0063a8"/>
      <g style="mask: url(#mask)">
        <g id="Page-1-2" data-name="Page-1">
          <g>
            <path id="Fill-1" d="M14.66318,6.90824a3.67061,3.67061,0,0,1,2.20121-.4004c-.11374.33023-.2275.66046-.34432.98965a2.04735,2.04735,0,0,0-1.2369.21259,1.08941,1.08941,0,0,0-.01128,1.81625l4.24155,2.87814q-.44886.308-.89873.61712-1.98447-1.34982-3.972-2.69962a2.04671,2.04671,0,0,1,.0205-3.41373ZM15.857,9.41694c-.10965-.07533-.21828-.14963-.32793-.225a.68757.68757,0,0,1-.26644-.78945.76264.76264,0,0,1,.71222-.49328h.40376q-.26131.75385-.52161,1.5077Zm1.89174-4.12372a2.327,2.327,0,0,1,3.94025-.6037A4.64931,4.64931,0,0,1,22.306,6.095H21.19407c-.05534-.162-.1117-.323-.165-.48708a1.232,1.232,0,0,0-2.277,0q-.80854,2.33584-1.613,4.66963-.45345-.30649-.9059-.61092.75936-2.18415,1.51565-4.37346Zm1.29531.80183c.042-.12177.084-.24044.126-.36325a.77636.77636,0,0,1,1.43673,0c.042.12281.083.24148.125.36325Zm4.77135.41279A2.254,2.254,0,0,1,25.9398,7.9691a2.05763,2.05763,0,0,1-.80342,2.35287q-.36585.24922-.73169.49534-.166-.49379-.3392-.98862c.34432-.23425.72041-.43755.867-.85549a1.1427,1.1427,0,0,0-1.12828-1.47571q-2.62393,0-5.2448-.00309c.1158-.3292.2316-.65633.34535-.98656Zm-.41606,1.4014a1.41528,1.41528,0,0,1,.84032.13829A.68578.68578,0,0,1,24.24687,9.192c-.10862.07534-.21827.14964-.3269.225Zm.22853,6.72117a2.38323,2.38323,0,0,1-2.63777.01136c-.24185-.16615-.48575-.33126-.72759-.49741.30026-.20433.59949-.40659.89873-.61092a2.819,2.819,0,0,0,.81059.46541A1.166,1.166,0,0,0,23.44652,12.583L21.82328,7.91853l1.11188-.00516q.75936,2.1888,1.52077,4.37243a2.05594,2.05594,0,0,1-.828,2.34461Zm-.72657-2.28166c.04407.12177.08506.24044.12708.36221a.693.693,0,0,1-.28079.78533.80293.80293,0,0,1-.88438.00516c-.10965-.07327-.21931-.14757-.33-.22187.457-.31166.912-.62021,1.36807-.93083Zm-3.00976-.192q-1.18977-.80648-2.38465-1.61812.45654-1.31419.911-2.62737h2.94111l.91205,2.62531Zm-3.14093.55416.125-.36221,1.36807.93083c-.10965.0743-.21828.1486-.32793.22187a.80291.80291,0,0,1-.88438-.00516.69009.69009,0,0,1-.28078-.78533Zm2.03622,1.93081a2.397,2.397,0,0,1-1.99421.29,2.15412,2.15412,0,0,1-1.46543-1.36219,3.05183,3.05183,0,0,1,.27464-2.08353c.29924.20329.59847.40452.89873.60782a1.72423,1.72423,0,0,0-.166,1.16921,1.23458,1.23458,0,0,0,1.83947.57274l4.23437-2.88536.34842.98655q-1.98447,1.35291-3.97,2.70478Zm-4.41165-3.9906c.28386.194.5667.38595.84953.58-.10657.31062-.21622.62434-.3228.93289a2.45549,2.45549,0,0,0,.98993,2.79869,2.8445,2.8445,0,0,0,3.14811.01548q.42426-.28638.84954-.57481.42119.28792.84749.57481a2.84834,2.84834,0,0,0,3.14811-.01548A2.44934,2.44934,0,0,0,24.874,12.164l-.32281-.93083q.42426-.291.84954-.582a2.45188,2.45188,0,0,0,.95714-2.81,2.69553,2.69553,0,0,0-2.53734-1.744H22.7712q-.16448-.47058-.32793-.94012a2.77989,2.77989,0,0,0-4.70372-.71825,5.328,5.328,0,0,0-.72861,1.6563c-.35048,0-.704,0-1.0545.00207a2.68986,2.68986,0,0,0-2.53529,1.744,2.4547,2.4547,0,0,0,.95407,2.81Z" style="fill: #fefefe"/>
            <path id="Fill-3" d="M18.55917,7.4947q2.62239,0,5.24479.0031a1.14156,1.14156,0,0,1,1.12828,1.47467c-.14654.419-.52263.62228-.867.8555q.17217.49535.34023.98965c.24287-.16408.48677-.33022.73169-.49637a2.0566,2.0566,0,0,0,.80239-2.35184,2.25258,2.25258,0,0,0-2.12435-1.46126H18.90452c-.11273.33023-.22955.65736-.34535.98655" style="fill: #fdb928"/>
            <path id="Fill-5" d="M22.93547,7.91348l-1.11188.00412,1.62222,4.66447A1.16646,1.16646,0,0,1,21.97218,13.999a2.84354,2.84354,0,0,1-.8106-.46542c-.29923.20433-.59847.40659-.89872.61092.24184.16615.48574.33126.72759.49741a2.38152,2.38152,0,0,0,2.63674-.01135,2.05645,2.05645,0,0,0,.829-2.34462q-.76242-2.18569-1.52076-4.37242" style="fill: #fdb928"/>
            <path id="Fill-7" d="M22.40853,10.95044,18.17416,13.8358a1.23458,1.23458,0,0,1-1.83947-.57274,1.72969,1.72969,0,0,1,.165-1.16921c-.29924-.2033-.59847-.40453-.89873-.60782a3.05725,3.05725,0,0,0-.27361,2.08353,2.15409,2.15409,0,0,0,1.46542,1.36219,2.397,2.397,0,0,0,1.99421-.29q1.98141-1.35291,3.97-2.70478Z" style="fill: #fdb928"/>
            <path id="Fill-9" d="M14.64278,10.32156q1.98448,1.34981,3.972,2.70064.44886-.30958.89873-.61711L15.272,9.52592a1.08845,1.08845,0,0,1,.01127-1.81523,2.05544,2.05544,0,0,1,1.2369-.21361c.11683-.3292.23058-.65839.34433-.98862a3.67009,3.67009,0,0,0-2.20122.39937,2.04672,2.04672,0,0,0-.0205,3.41373" style="fill: #fdb928"/>
            <path id="Fill-11" d="M17.13862,10.27718q.807-2.33584,1.613-4.66859a1.23233,1.23233,0,0,1,2.27807,0q.07994.24457.165.486h1.11188a4.64534,4.64534,0,0,0-.61794-1.4045,2.32589,2.32589,0,0,0-3.93923.60267q-.75628,2.18878-1.51667,4.37448.45346.30495.9059.60989" style="fill: #fdb928"/>
            <g id="Group-15">
              <g style="mask: url(#mask-2-2)">
                <polygon id="Fill-13" points="5.3 17.15 4.41 21.462 5.563 21.462 6.452 17.15 5.3 17.15" style="fill: #fefefe"/>
              </g>
            </g>
            <polygon id="Fill-16" points="9.5 20.14 9.488 20.14 8.611 17.149 7.181 17.149 6.267 21.462 7.347 21.462 7.942 18.478 7.955 18.478 8.851 21.462 10.273 21.462 11.181 17.149 10.101 17.149 9.5 20.14" style="fill: #fefefe"/>
            <g id="Group-20">
              <g style="mask: url(#mask-3)">
                <polygon id="Fill-18" points="14.8 17.15 11.505 17.15 11.322 18.002 12.39 18.002 11.659 21.462 12.818 21.462 13.549 18.002 14.615 18.002 14.8 17.15" style="fill: #fefefe"/>
              </g>
            </g>
            <g id="Group-23">
              <g style="mask: url(#mask-4-2)">
                <polygon id="Fill-21" points="17.401 19.671 17.579 18.854 15.794 18.854 15.99 17.966 17.874 17.966 18.04 17.15 15.027 17.15 14.107 21.462 17.205 21.462 17.371 20.646 15.413 20.646 15.622 19.671 17.401 19.671" style="fill: #fefefe"/>
              </g>
            </g>
            <g id="Group-26">
              <g style="mask: url(#mask-5)">
                <path id="Fill-24" d="M19.55556,18.941h-.38634l.19573-.9752h.5462c.34433.00619.52776.13519.52776.44374,0,.40866-.38634.53146-.88335.53146m2.02393-.69141c0-1.06911-.98174-1.09285-1.79643-1.10007H18.415l-.90283,4.31257H18.6599l.3433-1.7048h.123c.51546,0,.55235.04334.662.60473l.22135,1.10007h1.1416L20.8437,20.134c-.06149-.27863-.17216-.73579-.50931-.76674v-.01239c.65688-.07946,1.2451-.34467,1.2451-1.10523" style="fill: #fefefe"/>
              </g>
            </g>
            <g id="Group-29">
              <g style="mask: url(#mask-6-2)">
                <polygon id="Fill-27" points="23.53 17.15 22.371 17.15 21.482 21.462 24.432 21.462 24.611 20.609 22.819 20.609 23.53 17.15" style="fill: #fefefe"/>
              </g>
            </g>
            <g id="Group-32">
              <g style="mask: url(#mask-7)">
                <polygon id="Fill-30" points="25.708 17.15 24.819 21.462 25.971 21.462 26.862 17.15 25.708 17.15" style="fill: #fefefe"/>
              </g>
            </g>
            <g id="Group-35">
              <g style="mask: url(#mask-8-2)">
                <polygon id="Fill-33" points="30.401 17.15 29.799 20.14 29.787 20.14 28.91 17.15 27.48 17.15 26.566 21.462 27.646 21.462 28.241 18.478 28.254 18.478 29.149 21.462 30.572 21.462 31.481 17.15 30.401 17.15" style="fill: #fefefe"/>
              </g>
            </g>
            <g id="Group-38">
              <g style="mask: url(#mask-9)">
                <polygon id="Fill-36" points="35.951 17.15 34.473 17.15 32.927 18.91 32.915 18.91 33.283 17.15 32.13 17.15 31.228 21.462 32.381 21.462 32.792 19.504 32.804 19.504 33.859 21.462 35.179 21.462 33.915 19.245 35.951 17.15" style="fill: #fefefe"/>
              </g>
            </g>
          </g>
        </g>
      </g>
    </g>
  </g>
</svg>
