<svg id="Layer_1" data-name="Layer 1" xmlns="http://www.w3.org/2000/svg" viewBox="0 0 40 26">
  <title>Illustration CMYK - ipay</title>
  <rect y="-0.00026" width="40" height="26" style="fill: #7dbb40"/>
  <g>
    <path d="M3.38245,7.61024v1.6017H5.38458C5.38458,8.01067,5.38458,7.61024,3.38245,7.61024Z" style="fill: #fff"/>
    <path d="M3.38245,10.0128v8.40894H5.38458V10.85a.82852.82852,0,0,0-.83518-.82863C3.99369,10.02575,3.36779,10.02746,3.38245,10.0128Z" style="fill: #fff"/>
    <rect x="6.58586" y="11.6145" width="4.00426" height="2.00213" style="fill: #fff"/>
    <path d="M27.408,7.61024l3.60383,6.80724v3.60383H33.014V14.41748L36.6178,7.61024H35.27473a1.64537,1.64537,0,0,0-1.4979.96452l-1.56371,3.44016L29.81056,7.61024Z" style="fill: #fff"/>
    <path d="M16.99693,7.61024c-1.01282-.072-4.06147,0-4.06147,0A1.54449,1.54449,0,0,0,11.391,9.15475v8.86656c.056.05592,2.40256,0,2.40256,0V14.41748h2.803c.80085,0,2.803-.80085,2.803-3.60383S18.05841,7.68566,16.99693,7.61024Zm-.80085,4.80511H13.79353V9.21194h2.40255c.40043,0,1.20128.40043,1.20128,1.60171A1.78547,1.78547,0,0,1,16.19608,12.41535Z" style="fill: #fff"/>
    <path d="M25.40588,7.61024H23.80417c-1.20128,0-1.20128.80085-1.20128.80085l-3.60383,9.61022h2.40256l.80085-2.00213h4.00426l.80085,2.00213h2.40255Zm-2.803,6.80724L24.2046,10.0128l1.6017,4.40468Z" style="fill: #fff"/>
  </g>
</svg>
