<svg id="Layer_1" data-name="Layer 1" xmlns="http://www.w3.org/2000/svg" xmlns:xlink="http://www.w3.org/1999/xlink" viewBox="0 0 40 26">
  <defs>
    <linearGradient id="linear-gradient" x1="14.49602" y1="310.76294" x2="35.68482" y2="311.3598" gradientTransform="translate(0 -298)" gradientUnits="userSpaceOnUse">
      <stop offset="0" stop-color="#d0d792"/>
      <stop offset="1" stop-color="#009a50"/>
    </linearGradient>
  </defs>
  <title>kcp_creditcard</title>
  <rect y="-0.00032" width="40" height="26" style="fill: #fff"/>
  <g>
    <g>
      <path d="M9.962,12.57755l4.03549-3.253.36826-.29154H11.972l-.06138.06138L8.01327,12.57755l.69048-3.52914H5.55821l.9053.81324-1.427,7.28843-.03068.16879H7.09262l.03069-.16879.75186-3.836L10.008,17.24215l.03068.07672h2.70056l-.16878-.27619Zm11.23186-3.345a3.79712,3.79712,0,0,0-1.028-.24551,8.9176,8.9176,0,0,0-1.381-.10741,6.53317,6.53317,0,0,0-3.94343,1.19684,5.2002,5.2002,0,0,0-2.04076,3.22226,3.82955,3.82955,0,0,0,.09207,2.01007,2.81291,2.81291,0,0,0,1.05874,1.44235,4.62811,4.62811,0,0,0,2.70056.69048,8.88841,8.88841,0,0,0,2.62383-.36826.55007.55007,0,0,0,.39895-.35291s.26085-.75186.27619-.81324l.03069-.09206v-.03069a.22973.22973,0,0,0-.12275-.2455l-.10741-.07672a.24535.24535,0,0,0-.16878-.06138.25562.25562,0,0,0-.16879.06138,5.07258,5.07258,0,0,1-2.363.64445,1.84845,1.84845,0,0,1-1.73388-.85927,2.98244,2.98244,0,0,1-.29154-2.28627,3.79673,3.79673,0,0,1,1.0434-2.07145,2.74076,2.74076,0,0,1,1.964-.72117,4.671,4.671,0,0,1,2.14818.46032c.2455.12275.27619.12275.30688.12275a.46417.46417,0,0,0,.15344-.03068h.01534l.01535-.01535.15344-.07672-.01535.01535a.53793.53793,0,0,0,.26085-.26085l.24551-.78255A.25912.25912,0,0,0,21.19383,9.23254Zm7.19638.23016a4.02068,4.02068,0,0,0-2.34765-.491L21.869,8.987l.9053.81324-1.44234,7.30378-.03069.16879H23.388l.03069-.16879.55238-2.76193h.69049a5.79415,5.79415,0,0,0,2.65452-.50636,3.28371,3.28371,0,0,0,1.76458-2.25558A2.00708,2.00708,0,0,0,28.39021,9.4627Zm-1.51907,2.22489a1.49441,1.49441,0,0,1-.62911,1.02805,2.60862,2.60862,0,0,1-1.427.29154c-.18413,0-.3836,0-.59841-.01534l.537-2.71591h.59842a2.77683,2.77683,0,0,1,1.02805.15345C26.8558,10.59816,26.99389,11.02779,26.87114,11.68759Z" style="fill: #006c8a"/>
      <path d="M20.442,7.39125l4.726-3.80533a1.16454,1.16454,0,0,1,1.73388.09206l5.9535,7.089-.06137-.07672a1.232,1.232,0,0,1-.18413,1.71853c-.01535.01535-11.99907,10.00434-11.99907,10.00434l-.01535.01535-.01534.01534a1.25475,1.25475,0,0,1-1.82595-.18413l.06138.07672-2.9921-3.65189H13.52179L17.61866,23.656l.03069.03069.03069.03069a2.772,2.772,0,0,0,3.94342.19947l-.01534.01535,12.398-10.32657a2.747,2.747,0,0,0,.491-3.79l-.01535-.03069-.01534-.03068L28.068,2.26633,28.05264,2.251l-.01535-.01534a2.69858,2.69858,0,0,0-3.86671-.12276l.03069-.03068L17.78744,7.40659H20.442Z" style="fill: url(#linear-gradient)"/>
    </g>
    <g>
      <path d="M5.52753,4.95154c0-.19947-.03069-.32223-.16879-.39895-.01534-.01534-.03069-.01534-.06138,0a1.8493,1.8493,0,0,0-.26084.24551.2356.2356,0,0,0-.07672.19947V7.023c0,.16878.03068.29154.16878.35291.01534.01535.03069.01535.06138,0,.06137-.03068.18413-.15344.26085-.19947a.20654.20654,0,0,0,.07672-.18413Z" style="fill: #494949"/>
      <path d="M9.13339,4.95154c0-.19947-.03069-.32223-.16879-.39895-.01534-.01534-.03069-.01534-.06138,0-.03068.03069-.18412.16879-.26085.24551a.23563.23563,0,0,0-.07672.19947V7.023c0,.16878.03069.29154.16879.35291.01534.01535.03069.01535.06138,0a2.25676,2.25676,0,0,1,.26085-.19947.20654.20654,0,0,0,.07672-.18413Z" style="fill: #494949"/>
      <path d="M7.95189,6.07166c.16879.09206.26085.18413.26085.32222,0,.01535,0,.06138-.01534.06138a2.55738,2.55738,0,0,1-.30689.12275A.29919.29919,0,0,1,7.691,6.56267L6.264,5.82615c-.18413-.09206-.29154-.19947-.29154-.35291,0-.01535,0-.06138.01535-.06138.06137-.03069.26085-.09206.35291-.12275a.26954.26954,0,0,1,.21482.03069Z" style="fill: #494949"/>
      <path d="M13.09216,4.95154c0-.19947-.03069-.32223-.16879-.39895-.01534-.01534-.03069-.01534-.06137,0a1.84877,1.84877,0,0,0-.26085.24551.2356.2356,0,0,0-.07672.19947V7.023c0,.16878.03068.29154.16878.35291.01535.01535.03069.01535.06138,0a2.25764,2.25764,0,0,1,.26085-.19947.20654.20654,0,0,0,.07672-.18413Z" style="fill: #494949"/>
      <path d="M16.698,4.95154c0-.19947-.03069-.32223-.16879-.39895-.01535-.01534-.03069-.01534-.06138,0-.03068.03069-.18412.16879-.26084.24551a.2356.2356,0,0,0-.07672.19947V7.023c0,.16878.03068.29154.16878.35291.01535.01535.03069.01535.06138,0a2.25589,2.25589,0,0,1,.26085-.19947A.20654.20654,0,0,0,16.698,6.9923Z" style="fill: #494949"/>
      <path d="M15.51652,6.07166c.16879.09206.26085.18413.26085.32222,0,.01535,0,.06138-.01534.06138a2.55738,2.55738,0,0,1-.30689.12275.29919.29919,0,0,1-.19947-.01534l-1.427-.73652c-.18413-.09206-.29154-.19947-.29154-.35291,0-.01535,0-.06138.01535-.06138.06137-.03069.26085-.09206.35291-.12275a.26954.26954,0,0,1,.21482.03069Z" style="fill: #494949"/>
      <path d="M10.08472,5.67271a.24927.24927,0,0,0-.21482.07672c-.07672.06138-.21481.21482-.26085.26085-.01534.01535-.01534.03069,0,.07672a.44935.44935,0,0,0,.41429.18413H11.5731a.24922.24922,0,0,0,.21481-.07672c.07672-.06138.21482-.21482.26085-.26085.01535-.01534,0-.03069,0-.07672a.44234.44234,0,0,0-.41429-.16878H10.08472Z" style="fill: #ff1414"/>
    </g>
  </g>
</svg>
