<?xml version="1.0" encoding="UTF-8"?>
<svg width="40px" height="26px" viewBox="0 0 40 26" version="1.1" xmlns="http://www.w3.org/2000/svg">
    <!-- Generator: Sketch 51.3 (57544) - http://www.bohemiancoding.com/sketch -->
    <title>klarna-slice</title>
    <desc>Created with Sketch.</desc>
    <defs></defs>
    <g id="klarna-slice" stroke="none" stroke-width="1" fill="none" fill-rule="evenodd">
        <rect id="Rectangle-7" fill="#EB6F93" fill-rule="nonzero" x="0" y="0" width="40" height="26"></rect>
        <g id="Group-3" transform="translate(9.000000, 2.000000)" fill="#FFFFFF" fill-rule="nonzero">
            <g id="Group" transform="translate(0.000000, 15.272727)">
                <path d="M4.401766,0.536931818 L3.25969095,0.536931818 C3.25969095,1.4761677 2.82949227,2.33328459 2.081766,2.89785261 L1.63108168,3.23659342 L3.38260486,5.62830884 L4.82172184,5.62830884 L3.20847682,3.42649357 C3.97156733,2.66689297 4.401766,1.64040567 4.401766,0.536931818 Z" id="Shape"></path>
                <rect id="Rectangle-path" x="0.32" y="0.536931818" width="1.16768212" height="5.09137702"></rect>
                <rect id="Rectangle-path" x="5.15973508" y="0.536931818" width="1.10110375" height="5.09137702"></rect>
                <path d="M15.9198234,2.00994109 C15.4998676,2.00994109 15.1003974,2.13825201 14.8340839,2.502655 L14.8340839,2.10745739 L13.7893157,2.10745739 L13.7893157,5.62830884 L14.8494481,5.62830884 L14.8494481,3.78063168 C14.8494481,3.24685829 15.207947,2.98510403 15.6381457,2.98510403 C16.0990728,2.98510403 16.3653863,3.2622556 16.3653863,3.77549925 L16.3653863,5.63344128 L17.4152759,5.63344128 L17.4152759,3.39056651 C17.4152759,2.56937667 16.7648565,2.00994109 15.9198234,2.00994109 Z" id="Shape"></path>
                <path d="M9.58975716,2.10745739 L9.58975716,2.33328459 C9.29271524,2.12798713 8.93421632,2.00994109 8.54498896,2.00994109 C7.5207064,2.00994109 6.69103752,2.84139581 6.69103752,3.86788311 C6.69103752,4.89437039 7.5207064,5.72582511 8.54498896,5.72582511 C8.93421632,5.72582511 9.29271524,5.60777909 9.58975716,5.4024816 L9.58975716,5.62830884 L10.6396468,5.62830884 L10.6396468,2.10745739 L9.58975716,2.10745739 Z M8.632053,4.77119194 C8.10454748,4.77119194 7.6794702,4.36572945 7.6794702,3.86788311 C7.6794702,3.37003677 8.10454748,2.96457428 8.632053,2.96457428 C9.15955848,2.96457428 9.58463576,3.37003677 9.58463576,3.86788311 C9.58463576,4.36572945 9.15955848,4.77119194 8.632053,4.77119194 Z" id="Shape"></path>
                <path d="M12.2682561,2.56424424 L12.2682561,2.10745739 L11.1927594,2.10745739 L11.1927594,5.62830884 L12.2733775,5.62830884 L12.2733775,3.98592914 C12.2733775,3.431626 12.8725828,3.13394469 13.2874172,3.13394469 C13.2925386,3.13394469 13.29766,3.13394469 13.29766,3.13394469 L13.29766,2.10745739 C12.8725828,2.10745739 12.478234,2.2922251 12.2682561,2.56424424 Z" id="Shape"></path>
                <path d="M20.6827373,2.10745739 L20.6827373,2.33328459 C20.3856954,2.12798713 20.0271965,2.00994109 19.6379691,2.00994109 C18.6136865,2.00994109 17.7840177,2.84139581 17.7840177,3.86788311 C17.7840177,4.89437039 18.6136865,5.72582511 19.6379691,5.72582511 C20.0271965,5.72582511 20.3856954,5.60777909 20.6827373,5.4024816 L20.6827373,5.62830884 L21.7326269,5.62830884 L21.7326269,2.10745739 L20.6827373,2.10745739 Z M19.7250331,4.77119194 C19.1975276,4.77119194 18.7724503,4.36572945 18.7724503,3.86788311 C18.7724503,3.37003677 19.1975276,2.96457428 19.7250331,2.96457428 C20.2525386,2.96457428 20.6776159,3.37003677 20.6776159,3.86788311 C20.6827373,4.36572945 20.2525386,4.77119194 19.7250331,4.77119194 Z" id="Shape"></path>
                <path d="M22.8542163,4.38112675 C22.490596,4.38112675 22.1935541,4.67880806 22.1935541,5.04321107 C22.1935541,5.40761404 22.490596,5.70529536 22.8542163,5.70529536 C23.2178366,5.70529536 23.5148786,5.40761404 23.5148786,5.04321107 C23.5148786,4.67367563 23.2178366,4.38112675 22.8542163,4.38112675 Z" id="Shape"></path>
            </g>
            <g id="Group-2" transform="translate(2.880000, 0.000000)">
                <path d="M15.5661084,12.9584186 L7.31909504,1.37312474 C4.2689423,3.59222731 2.18149848,6.87870268 1.47964873,10.5667642 L15.5661084,12.9584186 Z M0.880136376,10.746388 C1.56969208,6.71150561 3.85312704,3.11648603 7.22389996,0.758823236 C7.34979788,0.670764868 7.52377772,0.700564431 7.61264836,0.825408712 L16.4103035,13.1842368 C16.5537026,13.3856819 16.38025,13.6586582 16.1352783,13.617066 L1.10824385,11.065717 C0.956461912,11.0399468 0.854387953,10.8970529 0.880136376,10.746388 Z" id="_Path_"></path>
                <path d="M8.20622996,2.64686243 C8.1346308,2.71831637 8.06116124,2.79746751 7.95803212,2.91264862 C7.92992884,2.94403617 7.8282712,3.05821997 7.83126716,3.05486048 C7.78005796,3.11228365 7.74075956,3.15597221 7.70203756,3.19836364 C7.24953976,3.69374147 6.92872008,3.92353666 6.62060068,3.9280169 C5.21569124,3.95108266 4.53561178,4.84133489 4.57414325,6.03437597 C4.57691551,6.11813677 4.58215696,6.19013268 4.59182941,6.29390608 C4.60778023,6.4650386 4.61005409,6.49684074 4.60860609,6.55839205 C4.60165907,6.85369596 4.38104099,7.20017561 3.5344825,8.1078212 C2.50276639,9.21503109 2.47267941,10.5030813 3.07951994,11.3210307 C3.17091182,11.4442162 3.34562623,11.4705533 3.4697555,11.3798563 C3.59388477,11.2891593 3.62042366,11.1157734 3.52903178,10.9925879 C3.07655711,10.3827055 3.09973814,9.39030517 3.94422749,8.48402195 C4.88072725,7.47994505 5.15543488,7.04851797 5.16666092,6.57132143 C5.16883048,6.47909755 5.16603088,6.43994229 5.14766352,6.24288305 C5.13892308,6.14910923 5.13438576,6.08678493 5.13205644,6.01640992 C5.102733,5.10847165 5.56806272,4.49933575 6.62930656,4.4819119 C7.14563088,4.47440472 7.56284196,4.17556678 8.11561124,3.57041539 C8.156079,3.52611278 8.1967276,3.4809232 8.24928116,3.42199253 C8.2467592,3.42482055 8.3478234,3.31130325 8.37530992,3.28060456 C8.47204496,3.17256475 8.53949756,3.09989589 8.60204592,3.03747439 C8.71073684,2.9290039 8.71024184,2.75362972 8.60094028,2.6457652 C8.49163872,2.53790069 8.31492088,2.53839193 8.20622996,2.64686243 Z" id="_Path_2"></path>
                <path d="M7.58638108,11.9208705 C7.96888192,11.0309156 8.89371616,10.494725 9.86274604,10.6011035 C10.8317759,10.707482 11.6161599,11.4313079 11.79341,12.3827113 C11.8094098,12.4684216 11.8203017,12.5548947 11.8260474,12.6417785 C11.8361418,12.7944228 11.9690156,12.9100444 12.1228294,12.9000267 C12.276643,12.890009 12.3931505,12.7581455 12.383056,12.6055013 C12.3758765,12.4969346 12.3622663,12.3888812 12.3422962,12.2819013 C12.1203048,11.0903464 11.1378488,10.1837406 9.9241202,10.0504994 C8.71039164,9.91725821 7.55201896,10.5888474 7.07292928,11.703533 C7.01245336,11.8442407 7.07836804,12.0069595 7.22015384,12.0669756 C7.36193964,12.1269917 7.52590516,12.0615782 7.58638108,11.9208705 Z" id="_Path_3"></path>
                <path d="M6.63847588,9.42065646 C5.84559248,9.26818086 5.02719354,9.50334185 4.43906208,10.052642 C4.32681145,10.1574813 4.32145454,10.3327756 4.42709708,10.4441727 C4.53273962,10.5555699 4.70937694,10.560886 4.82162757,10.4560467 C5.27906316,10.0288133 5.91559568,9.84591032 6.53228276,9.96450244 C6.68361228,9.99360392 6.83006124,9.89545122 6.85938568,9.74527229 C6.88871012,9.5950934 6.7898054,9.44975793 6.63847588,9.42065646 Z" id="_Path_4"></path>
                <path d="M10.4722605,8.48123109 C10.7320785,9.24080418 11.3443358,9.82989511 12.1173984,10.0641208 C12.2648251,10.1087887 12.420826,10.026395 12.4658362,9.88008923 C12.5108464,9.73378346 12.4278214,9.5789687 12.2803947,9.53430074 C11.6791238,9.35212525 11.2029236,8.89394338 11.000843,8.30316433 C10.9512944,8.15831013 10.7928002,8.08074421 10.6468362,8.12991599 C10.5008722,8.17908778 10.422712,8.33637692 10.4722605,8.48123109 Z" id="_Path_5"></path>
                <path d="M8.01725856,9.03231115 C6.8991676,9.03231115 5.9927758,8.132811 5.9927758,7.02322135 C5.9927758,5.91363171 6.8991676,5.01413155 8.01725856,5.01413155 C9.13534952,5.01413155 10.0417413,5.91363171 10.0417413,7.02322135 C10.0417413,8.132811 9.13534952,9.03231115 8.01725856,9.03231115 Z M8.01725856,8.47834853 C8.82706036,8.47834853 9.48353444,7.82686589 9.48353444,7.02322135 C9.48353444,6.21957681 8.82706036,5.56809418 8.01725856,5.56809418 C7.20745676,5.56809418 6.55098272,6.21957681 6.55098272,7.02322135 C6.55098272,7.82686589 7.20745676,8.47834853 8.01725856,8.47834853 Z" id="Oval"></path>
            </g>
        </g>
    </g>
</svg>