<svg id="Layer_1" data-name="Layer 1" xmlns="http://www.w3.org/2000/svg" viewBox="0 0 40 26">
  <title>klarna_1</title>
  <rect y="-0.00026" width="40" height="26" style="fill: #fff"/>
  <path d="M3,9.99974H4.69668v7.38413c-.0128,0-.02468.0032-.03657.0032H3.032A.12642.12642,0,0,1,3,17.38433Z"/>
  <path d="M16.47106,12.59779v-.32h1.52757v5.10238H16.47106v-.31629a2.67709,2.67709,0,0,1-2.37041.32315,2.60536,2.60536,0,0,1-1.3781-1.04351,2.6913,2.6913,0,0,1,.17278-3.25487,2.62865,2.62865,0,0,1,1.69119-.92924A2.6806,2.6806,0,0,1,16.47106,12.59779Zm-1.34061,3.54282a1.394,1.394,0,0,0,.82914-.29938,1.26611,1.26611,0,0,0,.25414-1.76159,1.4299,1.4299,0,0,0-1.933-.32,1.27315,1.27315,0,0,0-.48725,1.55179A1.40526,1.40526,0,0,0,15.13045,16.14061Z"/>
  <path d="M32.59548,12.59687v-.31721h1.53167v5.10055H32.59776v-.31675a2.66449,2.66449,0,0,1-2.07743.40269,2.6195,2.6195,0,0,1-1.72639-1.21127,2.69677,2.69677,0,0,1,.21163-3.147,2.72568,2.72568,0,0,1,.75875-.6326,2.65329,2.65329,0,0,1,.93473-.31447,2.70269,2.70269,0,0,1,.98547.04022A2.73188,2.73188,0,0,1,32.59548,12.59687Zm-1.46266,3.54466a1.47355,1.47355,0,0,0,.94433-.29071,1.26428,1.26428,0,0,0,.13027-1.92842,1.43523,1.43523,0,0,0-1.89552-.08867,1.2494,1.2494,0,0,0-.35469,1.54584,1.3279,1.3279,0,0,0,1.17333.762Z"/>
  <path d="M27.85145,17.38113h-1.533v-2.694a1.53709,1.53709,0,0,0-.069-.48633.87463.87463,0,0,0-.682-.62255,1.3352,1.3352,0,0,0-.76058.04571.99141.99141,0,0,0-.66231.79761,1.573,1.573,0,0,0-.02422.288q-.00275,1.30038,0,2.60124v.07176H22.57765V12.27874h1.52071v.5549c.06856-.07359.12707-.14261.19152-.20523a1.70989,1.70989,0,0,1,.93061-.45388,2.492,2.492,0,0,1,1.43569.15632,1.88161,1.88161,0,0,1,1.15915,1.417,1.81612,1.81612,0,0,1,.03474.352q.00366,1.61212,0,3.2247Z"/>
  <path d="M7.20514,14.19437l2.33842,3.189c-.02423,0-.03931.00366-.05439.00366H7.49538a.08684.08684,0,0,1-.07907-.04159q-1.23412-1.68709-2.47281-3.3728c-.01371-.01874-.02651-.03748-.0425-.06033l.36155-.27151a7.012,7.012,0,0,0,.72493-.58826,4.22394,4.22394,0,0,0,.97769-1.459,4.14517,4.14517,0,0,0,.2939-1.30131c.00594-.09461.00869-.18923.01326-.28841H8.9361A5.91568,5.91568,0,0,1,7.20514,14.19437Z"/>
  <path d="M11.63013,17.382H10.034V10.00431h1.59612Z"/>
  <path d="M18.79806,12.27829H20.3663v.64676a1.94927,1.94927,0,0,1,1.4942-.65271v1.48414c-.10239.01234-.20432.01783-.303.0384a1.57757,1.57757,0,0,0-.98592.58826,1.00971,1.00971,0,0,0-.20249.62117v2.37682h-1.571Z"/>
  <path d="M36.70966,16.536a.96147.96147,0,1,1-.95873-.96421A.96147.96147,0,0,1,36.70966,16.536Z"/>
  <path d="M35.1501,12.13888a.36566.36566,0,1,1-.36337.36794v-.00228A.36566.36566,0,0,1,35.1501,12.13888Zm0,.65865a.29233.29233,0,1,0-.28865-.296A.29253.29253,0,0,0,35.1501,12.79753Z"/>
  <path d="M35.02715,12.30617c.059,0,.11427-.00366.16866,0a.11059.11059,0,0,1,.10558.085.12111.12111,0,0,1-.03976.13712l-.01874.01417.06353.14855c-.05485.02011-.08593.00274-.1001-.04845-.0032-.01188-.01051-.02285-.01371-.03474-.0128-.04571-.04159-.06353-.09416-.04571v.13073h-.07176Zm.074.05576v.13027a.74034.74034,0,0,0,.11976-.03154c.00868-.00366.01-.05668,0-.06033a.79483.79483,0,0,0-.11976-.03794Z"/>
</svg>
