<?xml version="1.0" encoding="UTF-8"?>
<svg width="40px" height="26px" viewBox="0 0 40 26" version="1.1" xmlns="http://www.w3.org/2000/svg">
    <!-- Generator: Sketch 51.3 (57544) - http://www.bohemiancoding.com/sketch -->
    <title>klarna-paylayer</title>
    <desc>Created with Sketch.</desc>
    <defs></defs>
    <g id="klarna-paylayer" stroke="none" stroke-width="1" fill="none" fill-rule="evenodd">
        <rect id="Rectangle-7" fill="#EB6F93" fill-rule="nonzero" x="0" y="0" width="40" height="26"></rect>
        <g id="pink-(1)" transform="translate(9.000000, 5.000000)" fill="#FFFFFF" fill-rule="nonzero">
            <g id="Logo-/-White-(Clean)-Copy" transform="translate(0.320000, 12.884375)">
                <path d="M4.081766,0 L2.93969095,0 C2.93969095,0.934763327 2.50949227,1.78779871 1.761766,2.34967831 L1.31108168,2.68680607 L3.06260486,5.06713237 L4.50172184,5.06713237 L2.88847682,2.87580193 C3.65156733,2.11981848 4.081766,1.09821921 4.081766,0 Z" id="Shape"></path>
                <rect id="Rectangle-path" x="0" y="0" width="1.16768212" height="5.06713237"></rect>
                <rect id="Rectangle-path" x="4.83973508" y="0" width="1.10110375" height="5.06713237"></rect>
                <path d="M15.5998234,1.46599495 C15.1798676,1.46599495 14.7803974,1.59369485 14.5140839,1.95636259 L14.5140839,1.56304688 L13.4693157,1.56304688 L13.4693157,5.06713237 L14.5294481,5.06713237 L14.5294481,3.22825368 C14.5294481,2.69702206 14.887947,2.43651424 15.3181457,2.43651424 C15.7790728,2.43651424 16.0453863,2.71234605 16.0453863,3.22314568 L16.0453863,5.07224037 L17.0952759,5.07224037 L17.0952759,2.84004596 C17.0952759,2.02276654 16.4448565,1.46599495 15.5998234,1.46599495 Z" id="Shape"></path>
                <path d="M9.26975716,1.56304688 L9.26975716,1.78779871 C8.97271524,1.58347886 8.61421632,1.46599495 8.22498896,1.46599495 C7.2007064,1.46599495 6.37103752,2.29349035 6.37103752,3.31508961 C6.37103752,4.33668886 7.2007064,5.16418428 8.22498896,5.16418428 C8.61421632,5.16418428 8.97271524,5.04670038 9.26975716,4.8423805 L9.26975716,5.06713237 L10.3196468,5.06713237 L10.3196468,1.56304688 L9.26975716,1.56304688 Z M8.312053,4.21409697 C7.78454748,4.21409697 7.3594702,3.81056526 7.3594702,3.31508961 C7.3594702,2.81961397 7.78454748,2.41608226 8.312053,2.41608226 C8.83955848,2.41608226 9.26463576,2.81961397 9.26463576,3.31508961 C9.26463576,3.81056526 8.83955848,4.21409697 8.312053,4.21409697 Z" id="Shape"></path>
                <path d="M11.9482561,2.01765855 L11.9482561,1.56304688 L10.8727594,1.56304688 L10.8727594,5.06713237 L11.9533775,5.06713237 L11.9533775,3.43257353 C11.9533775,2.88090992 12.5525828,2.58464614 12.9674172,2.58464614 C12.9725386,2.58464614 12.97766,2.58464614 12.97766,2.58464614 L12.97766,1.56304688 C12.5525828,1.56304688 12.158234,1.74693474 11.9482561,2.01765855 Z" id="Shape"></path>
                <path d="M20.3627373,1.56304688 L20.3627373,1.78779871 C20.0656954,1.58347886 19.7071965,1.46599495 19.3179691,1.46599495 C18.2936865,1.46599495 17.4640177,2.29349035 17.4640177,3.31508961 C17.4640177,4.33668886 18.2936865,5.16418428 19.3179691,5.16418428 C19.7071965,5.16418428 20.0656954,5.04670038 20.3627373,4.8423805 L20.3627373,5.06713237 L21.4126269,5.06713237 L21.4126269,1.56304688 L20.3627373,1.56304688 Z M19.4050331,4.21409697 C18.8775276,4.21409697 18.4524503,3.81056526 18.4524503,3.31508961 C18.4524503,2.81961397 18.8775276,2.41608226 19.4050331,2.41608226 C19.9325386,2.41608226 20.3576159,2.81961397 20.3576159,3.31508961 C20.3627373,3.81056526 19.9325386,4.21409697 19.4050331,4.21409697 Z" id="Shape"></path>
                <path d="M22.5342163,3.82588925 C22.170596,3.82588925 21.8735541,4.12215303 21.8735541,4.48482078 C21.8735541,4.8474885 22.170596,5.14375229 22.5342163,5.14375229 C22.8978366,5.14375229 23.1948786,4.8474885 23.1948786,4.48482078 C23.1948786,4.11704503 22.8978366,3.82588925 22.5342163,3.82588925 Z" id="Shape"></path>
            </g>
            <g id="Icons-/-Pay-later-/-White" transform="translate(0.720000, 0.860938)">
                <path d="M0.687924051,1.01337525 C2.21878196,0.850695147 3.75724291,0.766099639 5.29711808,0.759945813 C6.37740396,0.759948047 7.1624362,0.795258521 8.23133656,0.874671008 C8.32309176,0.881487832 8.65437444,0.906534355 8.72757056,0.91198375 C8.91690136,0.926079283 9.06561,0.93659208 9.2096738,0.945860414 C9.67901048,0.976055158 10.077219,0.990931641 10.4992911,0.990931641 C10.6511764,0.990931641 10.7743038,0.86990214 10.7743038,0.720604687 C10.7743038,0.571307234 10.6511764,0.450277734 10.4992911,0.450277734 C10.0903127,0.450277734 9.70375812,0.435836623 9.24559612,0.406360805 C9.10369636,0.397231694 8.95672684,0.386841838 8.76911032,0.372873934 C8.69635688,0.367457494 8.36501652,0.342406614 8.27279,0.335554773 C7.19116688,0.255197066 6.39296312,0.219294141 5.296,0.219294141 C3.65317646,0.225857147 2.01305885,0.320490256 0.381846928,0.502773469 C0.242876469,0.518303016 0.137898734,0.633887754 0.137898734,0.771370313 L0.137898734,1.61915625 C0.137898734,1.6634727 0.148982796,1.70710953 0.17017506,1.74622488 C0.388456749,2.14911543 0.527041223,2.58903641 0.578585454,3.04267817 C0.651282267,4.44450499 0.795677204,5.32196083 1.23766264,6.20149348 C1.87851636,7.47676579 3.02081374,8.1971121 4.7563038,8.1971121 C7.78836284,8.19908202 8.68561888,7.52384665 9.33617416,5.50989778 C9.34662108,5.47755682 9.41630392,5.26035302 9.43707452,5.19636304 C9.47632416,5.07544309 9.50960808,4.97582619 9.54315104,4.87977896 C9.50567636,4.98686983 9.99802368,3.52519484 10.106677,3.26668983 C10.2662408,2.88705963 10.3834511,2.75757539 10.4992911,2.75757539 C10.6511764,2.75757539 10.7743038,2.63654589 10.7743038,2.48724844 C10.7743038,2.33795099 10.6511764,2.21692148 10.4992911,2.21692148 C10.0886448,2.21692148 9.83502756,2.49709693 9.59832932,3.06024313 C9.48081196,3.33983738 8.97765884,4.83359261 9.02297992,4.70407931 C8.98791104,4.80449573 8.95344384,4.90765402 8.91307452,5.03202349 C8.89195912,5.09707574 8.8221164,5.31477799 8.81194088,5.3462788 C8.51915964,6.25265281 8.30660868,6.65212775 7.85549328,6.99161732 C7.27110632,7.43140124 6.30782816,7.65746611 4.75648556,7.65645827 C3.23325195,7.65645819 2.28029566,7.05551264 1.73080571,5.96205045 C1.33236538,5.16917072 1.19688128,4.3458641 1.12654992,2.99881719 C1.06858966,2.48452336 0.92030904,1.99943392 0.687924051,1.55286669 L0.687924051,1.01337525 Z" id="_Path_"></path>
                <path d="M4.83893672,6.72363983 L4.81053164,6.72363983 C4.14822242,6.7461433 3.50600274,6.49804299 3.03650633,6.03830389 C2.07848101,5.08391016 2.09397468,3.50002266 2.09397468,3.42387422 C2.07073418,3.19289063 2.06040506,2.9390625 2.06040506,2.68523437 C2.0345,2.45341257 2.10486197,2.22112428 2.2555526,2.04098742 C2.40624323,1.86085057 2.62451009,1.74810951 2.86091139,1.72830234 C3.52713924,1.65469219 4.54972152,1.61915625 5.22111392,1.61154141 C6.94607596,1.59123515 7.88602532,1.69530469 8.26820252,1.94405625 C8.78465824,2.27403281 8.717519,2.76645938 8.26820252,4.17266719 L8.14683544,4.47726092 C7.70010128,5.92408124 7.44703796,6.72363983 4.83893672,6.72363983 Z M5.81461828,2.10008434 L3.20135246,5.31101013 C3.10647046,5.42759186 3.12569973,5.59770655 3.24430222,5.69097191 C3.36290471,5.78423732 3.53596808,5.76533567 3.63085007,5.64875394 L6.24411588,2.43782816 C6.33899788,2.32124643 6.31976864,2.15113174 6.20116612,2.05786636 C6.08256364,1.96460098 5.90950028,1.98350262 5.81461828,2.10008434 Z M4.08193828,1.9909028 L2.58163448,3.83369499 C2.48673257,3.95026104 2.50593276,4.1203789 2.62451932,4.21366387 C2.74310587,4.30694882 2.91617247,4.28807576 3.01107438,4.1715097 L4.51137816,2.32871751 C4.60628008,2.21215146 4.58707988,2.0420336 4.46849332,1.94874863 C4.34990678,1.85546368 4.17684019,1.87433674 4.08193828,1.9909028 Z" id="Combined-Shape"></path>
                <path d="M20.3106582,1.01337524 L20.3106582,1.55286557 C20.0782757,1.99940343 19.9300509,2.48381989 19.8733703,2.98266714 C19.801701,4.3458641 19.6662169,5.16917072 19.2677766,5.96205045 C18.7182866,7.05551264 17.7653303,7.65645819 16.2422785,7.65645819 C14.6925555,7.65645819 13.7295034,7.42893792 13.1444155,6.98728776 C12.6927703,6.646366 12.4795673,6.24579744 12.1851976,5.33753247 C12.1749514,5.30591828 12.1055835,5.09044165 12.0846444,5.02613541 C12.0445304,4.90294071 12.0103246,4.80081648 11.9756164,4.70158104 C12.0209234,4.83105434 11.5177703,3.3372991 11.4002529,3.05770485 C11.1635547,2.49455865 10.9099374,2.2143832 10.4992911,2.2143832 C10.3474058,2.2143832 10.2242785,2.3354127 10.2242785,2.48471016 C10.2242785,2.63400761 10.3474058,2.75503711 10.4992911,2.75503711 C10.6151312,2.75503711 10.7323414,2.88452135 10.8919053,3.26415155 C11.0005586,3.52265656 11.4929059,4.98433153 11.4554862,4.87739804 C11.4887378,4.97246864 11.5217827,5.07112672 11.5607972,5.19094484 C11.5813984,5.25421353 11.6506117,5.46920963 11.6611245,5.5016465 C12.3150234,7.51922352 13.2130744,8.1971121 16.2422785,8.1971121 C17.9777685,8.1971121 19.1200659,7.47676579 19.7609196,6.20149348 C20.2029051,5.32196083 20.3473,4.44450499 20.4213347,3.02652812 C20.471541,2.58903641 20.6101255,2.14911543 20.8284072,1.74622488 C20.8495995,1.70710953 20.8606836,1.6634727 20.8606836,1.61915625 L20.8606836,0.771370313 C20.8606836,0.633887754 20.7557058,0.518303016 20.6167354,0.502773469 C18.9855234,0.320490256 17.3454058,0.225857147 15.7037004,0.219296375 C14.6056192,0.219294141 13.8074154,0.255197066 12.7257923,0.335554773 C12.6335658,0.342406614 12.3022254,0.367457494 12.229472,0.372873934 C12.0418554,0.386841838 11.8948859,0.397231694 11.7529862,0.406360805 C11.2948242,0.435836623 10.9082696,0.450277734 10.4992911,0.450277734 C10.3474058,0.450277734 10.2242785,0.571307234 10.2242785,0.720604687 C10.2242785,0.86990214 10.3474058,0.990931641 10.4992911,0.990931641 C10.9213633,0.990931641 11.3195718,0.976055158 11.7889085,0.945860414 C11.9329723,0.93659208 12.0816809,0.926079283 12.2710117,0.91198375 C12.3442078,0.906534356 12.6754905,0.881487832 12.7672457,0.874671008 C13.8361461,0.795258521 14.6211783,0.759948047 15.7025823,0.759948047 C17.2413957,0.766099751 18.7798031,0.850695147 20.3106582,1.01337524 Z" id="_Path_2"></path>
                <path d="M16.1518987,6.72363983 C13.5437975,6.72363983 13.2907342,5.92408124 12.8336709,4.47979923 L12.732962,4.16251406 C12.2758987,2.75630625 12.2165063,2.26641797 12.732962,1.93390312 C13.1151392,1.680075 14.0550886,1.58108203 15.7800506,1.60138828 C16.4540253,1.60138828 17.4740253,1.64453906 18.1402532,1.71814922 C18.3780926,1.73918054 18.5972158,1.85372214 18.7479294,2.03579793 C18.8986429,2.21787372 18.9681759,2.45205533 18.9407595,2.68523437 C18.9407595,2.9390625 18.9407595,3.19289063 18.9046076,3.44671875 C18.9046076,3.49240781 18.9201013,5.08644842 17.962076,6.0408422 C17.4919584,6.50123714 16.8486638,6.74939151 16.1854684,6.72617814 L16.1518987,6.72617814 L16.1518987,6.72363983 Z M14.6357104,1.9909028 L13.1354066,3.83369499 C13.0405047,3.95026104 13.0597049,4.1203789 13.1782915,4.21366387 C13.296878,4.30694882 13.4699446,4.28807576 13.5648465,4.1715097 L15.0651503,2.32871751 C15.1600522,2.21215146 15.140852,2.0420336 15.0222655,1.94874863 C14.9036789,1.85546368 14.7306124,1.87433674 14.6357104,1.9909028 Z M16.3683904,2.10008434 L13.7551246,5.31101013 C13.6602426,5.42759186 13.6794719,5.59770655 13.7980744,5.69097191 C13.9166769,5.78423732 14.0897402,5.76533567 14.1846222,5.64875394 L16.797888,2.43782816 C16.89277,2.32124643 16.8735408,2.15113174 16.7549383,2.05786636 C16.6363358,1.96460098 16.4632724,1.98350262 16.3683904,2.10008434 Z" id="Combined-Shape"></path>
            </g>
        </g>
    </g>
</svg>