<?xml version="1.0" encoding="UTF-8"?>
<svg width="40px" height="26px" viewBox="0 0 40 26" version="1.1" xmlns="http://www.w3.org/2000/svg">
    <!-- Generator: Sketch 51.3 (57544) - http://www.bohemiancoding.com/sketch -->
    <title>klarna-paynow</title>
    <desc>Created with Sketch.</desc>
    <defs></defs>
    <g id="klarna-paynow" stroke="none" stroke-width="1" fill="none" fill-rule="evenodd">
        <rect id="Rectangle-7" fill="#EB6F93" fill-rule="nonzero" x="0" y="0" width="40" height="26"></rect>
        <g id="pink" transform="translate(9.000000, 1.000000)" fill="#FFFFFF" fill-rule="nonzero">
            <g id="Logo-/-White-(Clean)-Copy" transform="translate(0.320000, 16.830729)">
                <path d="M4.081766,0 L2.93969095,0 C2.93969095,0.942963005 2.50949227,1.80348116 1.761766,2.37028952 L1.31108168,2.71037454 L3.06260486,5.1115809 L4.50172184,5.1115809 L2.88847682,2.90102826 C3.65156733,2.13841337 4.081766,1.10785271 4.081766,0 Z" id="Shape"></path>
                <rect id="Rectangle-path" x="0" y="0" width="1.16768212" height="5.1115809"></rect>
                <rect id="Rectangle-path" x="4.83973508" y="0" width="1.10110375" height="5.1115809"></rect>
                <path d="M15.5998234,1.47885455 C15.1798676,1.47885455 14.7803974,1.60767463 14.5140839,1.97352367 L14.5140839,1.57675781 L13.4693157,1.57675781 L13.4693157,5.1115809 L14.5294481,5.1115809 L14.5294481,3.25657169 C14.5294481,2.72068015 14.887947,2.45788718 15.3181457,2.45788718 C15.7790728,2.45788718 16.0453863,2.73613856 16.0453863,3.25141889 L16.0453863,5.1167337 L17.0952759,5.1167337 L17.0952759,2.86495864 C17.0952759,2.04051011 16.4448565,1.47885455 15.5998234,1.47885455 Z" id="Shape"></path>
                <path d="M9.26975716,1.57675781 L9.26975716,1.80348116 C8.97271524,1.59736902 8.61421632,1.47885455 8.22498896,1.47885455 C7.2007064,1.47885455 6.37103752,2.31360869 6.37103752,3.34416935 C6.37103752,4.37472999 7.2007064,5.20948414 8.22498896,5.20948414 C8.61421632,5.20948414 8.97271524,5.09096968 9.26975716,4.88485752 L9.26975716,5.1115809 L10.3196468,5.1115809 L10.3196468,1.57675781 L9.26975716,1.57675781 Z M8.312053,4.25106274 C7.78454748,4.25106274 7.3594702,3.84399127 7.3594702,3.34416935 C7.3594702,2.84434743 7.78454748,2.43727596 8.312053,2.43727596 C8.83955848,2.43727596 9.26463576,2.84434743 9.26463576,3.34416935 C9.26463576,3.84399127 8.83955848,4.25106274 8.312053,4.25106274 Z" id="Shape"></path>
                <path d="M11.9482561,2.03535731 L11.9482561,1.57675781 L10.8727594,1.57675781 L10.8727594,5.1115809 L11.9533775,5.1115809 L11.9533775,3.46268382 C11.9533775,2.90618106 12.5525828,2.60731848 12.9674172,2.60731848 C12.9725386,2.60731848 12.97766,2.60731848 12.97766,2.60731848 L12.97766,1.57675781 C12.5525828,1.57675781 12.158234,1.76225873 11.9482561,2.03535731 Z" id="Shape"></path>
                <path d="M20.3627373,1.57675781 L20.3627373,1.80348116 C20.0656954,1.59736902 19.7071965,1.47885455 19.3179691,1.47885455 C18.2936865,1.47885455 17.4640177,2.31360869 17.4640177,3.34416935 C17.4640177,4.37472999 18.2936865,5.20948414 19.3179691,5.20948414 C19.7071965,5.20948414 20.0656954,5.09096968 20.3627373,4.88485752 L20.3627373,5.1115809 L21.4126269,5.1115809 L21.4126269,1.57675781 L20.3627373,1.57675781 Z M19.4050331,4.25106274 C18.8775276,4.25106274 18.4524503,3.84399127 18.4524503,3.34416935 C18.4524503,2.84434743 18.8775276,2.43727596 19.4050331,2.43727596 C19.9325386,2.43727596 20.3576159,2.84434743 20.3576159,3.34416935 C20.3627373,3.84399127 19.9325386,4.25106274 19.4050331,4.25106274 Z" id="Shape"></path>
                <path d="M22.5342163,3.85944968 C22.170596,3.85944968 21.8735541,4.15831226 21.8735541,4.52416131 C21.8735541,4.89001032 22.170596,5.18887292 22.5342163,5.18887292 C22.8978366,5.18887292 23.1948786,4.89001032 23.1948786,4.52416131 C23.1948786,4.15315946 22.8978366,3.85944968 22.5342163,3.85944968 Z" id="Shape"></path>
            </g>
            <g id="Icons-/-Pay-now-/-White" transform="translate(6.320000, 0.658854)">
                <path d="M3.82042853,10.408883 C4.09151764,10.6783824 4.09731098,11.1180472 3.83341885,11.394737 L3.78044362,11.4509086 C3.51634542,11.7239091 3.07959078,11.7306052 2.80489613,11.4633501 L1.26915643,9.92534783 C0.846363688,9.4962815 0.785641332,8.96755693 1.05471566,8.68820044 L1.10863746,8.63104123 C1.3303959,8.40035227 1.69188124,8.37601315 1.94406586,8.57659166 C2.06396052,8.67195155 2.23769626,8.65109391 2.33211551,8.53000482 C2.42653476,8.40891576 2.40588286,8.23344918 2.2859882,8.13808933 C1.81137988,7.760603 1.13106896,7.8064089 0.710275244,8.24418334 L0.656551724,8.30113652 C0.158123069,8.81858918 0.258286814,9.69073973 0.878735792,10.3203824 L2.41862736,11.8625102 C2.91490574,12.3453883 3.69943135,12.3333604 4.1781997,11.8383951 L4.23252936,11.7808134 C4.70546532,11.2849484 4.695059,10.4951953 4.20811201,10.011104 C4.09935185,9.9029816 3.92439842,9.90437699 3.81734258,10.0142207 C3.71028675,10.1240643 3.71166838,10.3007607 3.82042853,10.408883 Z" id="_Path_"></path>
                <path d="M2.90126455,2.07097941 L3.52980106,7.29565577 C3.54820778,7.44866063 3.68594082,7.55762531 3.83743642,7.53903521 C3.98893201,7.52044512 4.09682187,7.38133994 4.07841516,7.22833513 L3.44792867,1.98744969 L3.44169559,1.95342387 C3.33414183,1.51892289 3.60150873,1.03170796 3.957725,0.955006791 C4.15740378,0.9119509 4.36575708,0.951635315 4.53612668,1.06514161 C4.70649624,1.1786479 4.82462088,1.35647472 4.86400388,1.55873348 L5.95839656,6.28523747 C5.99315228,6.43531716 6.14179096,6.52852505 6.29039028,6.49342307 C6.4389896,6.45832108 6.53127808,6.30820165 6.49652236,6.15812192 L5.40419804,1.44132505 C5.33830228,1.10198934 5.13445176,0.795109325 4.84044084,0.599228792 C4.54642996,0.40334826 4.18686966,0.334863913 3.84241343,0.409137574 C3.17248188,0.553388502 2.73230763,1.34674208 2.90126455,2.07097941 Z" id="_Path_2"></path>
                <path d="M8.6778554,8.21040802 L9.9206662,1.94754995 C10.0651011,1.27339552 9.6684392,0.596546678 9.00974932,0.398828974 C8.27226556,0.210383502 7.53325808,0.649424494 7.34073644,1.38076773 L5.9647778,6.14617547 C5.92205636,6.29414307 6.006192,6.44907206 6.15270004,6.49221915 C6.29920804,6.5353662 6.45260884,6.45039237 6.49533028,6.30242477 L7.87306004,1.53059861 C7.98961416,1.08814711 8.43021672,0.826387126 8.86333468,0.9369147 C9.23399372,1.04842419 9.46384616,1.44063571 9.37965284,1.83370024 L8.13598244,8.10072478 C8.10599304,8.25184958 8.2029842,8.39891382 8.35261828,8.42920204 C8.50225236,8.45949023 8.64786596,8.36153281 8.6778554,8.21040802 Z" id="_Path_3"></path>
                <path d="M5.54767568,14.244165 C3.57757846,14.244165 1.93210811,12.7835174 1.93210811,10.7078776 C1.93210811,10.5537476 1.8083935,10.4288005 1.65578378,10.4288005 C1.50317407,10.4288005 1.37945946,10.5537476 1.37945946,10.7078776 C1.37945946,13.1089567 3.28709139,14.8023193 5.54767568,14.8023193 C5.7002854,14.8023193 5.824,14.6773722 5.824,14.5232422 C5.824,14.3691121 5.7002854,14.244165 5.54767568,14.244165 Z" id="Shape"></path>
                <path d="M4.573094,9.36232024 C4.530108,9.51872572 4.43393824,9.65483683 4.30147149,9.74675336 L4.24239852,9.78649494 C3.92454065,10.002433 3.4949513,9.9186745 3.28016477,9.59971298 L2.07200052,7.78249596 C1.74238584,7.27696314 1.78548491,6.74508133 2.10275239,6.52514246 L2.1619258,6.48533123 C2.5688918,6.24708579 2.91466623,6.42784199 3.27012518,6.95086804 L4.28040927,8.47095305 C4.36546411,8.5989253 4.53713336,8.63302981 4.66384324,8.5471276 C4.79055316,8.46122543 4.82432124,8.28784599 4.7392664,8.15987378 L3.72737451,6.63739654 C3.22762798,5.90203773 2.60840618,5.57833489 1.8698094,6.0118332 L1.79310122,6.06284584 C1.19919986,6.47452425 1.1282623,7.34995818 1.61181657,8.09155945 L2.82226975,9.91223062 C3.20899938,10.4865392 3.98065427,10.6369914 4.54990316,10.2502647 L4.61122312,10.2089803 C4.85396656,10.0405776 5.02787504,9.79444119 5.10560872,9.51160553 C5.14642608,9.36309067 5.0603076,9.20927697 4.91325772,9.168053 C4.76620784,9.12682899 4.61391136,9.21380542 4.573094,9.36232024 Z" id="_Path_4"></path>
                <path d="M6.40284528,10.2867416 C5.82867748,10.6107071 5.47168244,11.2207103 5.42735172,12.1434573 C5.41995568,12.2974063 5.53752928,12.4282619 5.68995964,12.4357316 C5.84239004,12.4432013 5.97195496,12.3244565 5.97935096,12.1705075 C6.0194976,11.3348528 6.34100304,10.883727 6.861006,10.6860352 C7.13929072,10.5802385 7.44187916,10.5591281 7.70844152,10.5877798 C7.74427032,10.5916309 7.76807284,10.595214 7.77769608,10.5970254 C8.13350644,10.6640003 8.24180812,10.1300241 7.88858124,10.0503116 L5.76360824,9.57077062 C4.76900144,9.29567902 4.61889444,8.92385422 4.80304908,8.30389014 C4.88256748,8.03375753 5.04590872,7.89510359 5.29227104,7.8397807 C5.45492756,7.8032547 5.63764904,7.80779649 5.81131364,7.83853264 C5.86152012,7.84741843 5.89682924,7.85586375 5.91245408,7.86039758 L9.13804832,8.62124953 C9.15940948,8.62540315 9.174461,8.62961888 9.20080616,8.64167598 C9.25416008,8.66609406 9.30970712,8.70532508 9.36388988,8.76379785 C9.5801162,8.99714418 9.69942036,9.43732188 9.639032,10.1603306 C9.4286456,12.6949406 8.2593202,14.2687833 5.48783452,14.2441758 C5.33523072,14.2428209 5.21043332,14.3666648 5.20909176,14.5207889 C5.2077502,14.6749129 5.33037248,14.8009536 5.48297628,14.8023085 C8.59776116,14.8299641 9.95797828,12.9991925 10.1897368,10.207103 C10.2623286,9.33798844 10.1008715,8.74228615 9.76739688,8.38240816 C9.58352476,8.18397771 9.38948816,8.09517471 9.24063896,8.0733082 L6.05157332,7.32040088 C6.03152832,7.31421526 5.97738604,7.30126539 5.90670608,7.28875604 C5.6676528,7.24644702 5.41607932,7.24019384 5.17232204,7.29493176 C4.739745,7.39207087 4.41334316,7.66914053 4.27351147,8.14416923 C4.00765372,9.03918726 4.29155914,9.74243956 5.63044536,10.1123198 L6.40284528,10.2867416 Z" id="Shape"></path>
            </g>
        </g>
    </g>
</svg>