<svg id="Layer_1" data-name="Layer 1" xmlns="http://www.w3.org/2000/svg" xmlns:xlink="http://www.w3.org/1999/xlink" viewBox="0 0 40 26">
  <defs>
    <mask id="mask" x="-0.57644" y="0.21657" width="41.63925" height="26.26476" maskUnits="userSpaceOnUse">
      <g id="mask-2">
        <rect id="path-1" x="-0.57644" y="0.21657" width="41.63925" height="26.26476" rx="2.56242" ry="2.56242" style="fill: #fff"/>
      </g>
    </mask>
    <mask id="mask-2-2" x="29.17402" y="21.96208" width="0.51215" height="0.5457" maskUnits="userSpaceOnUse">
      <g id="mask-4">
        <polygon id="path-3" points="29.686 22.508 29.686 21.962 29.174 21.962 29.174 22.508 29.686 22.508" style="fill: #fff"/>
      </g>
    </mask>
  </defs>
  <title>kmart</title>
  <rect width="40" height="26" style="fill: #e73035"/>
  <g style="mask: url(#mask)">
    <g id="Page-1">
      <g>
        <polygon id="Fill-1" points="19.396 3.42 16.559 6.285 16.559 3.42 10.314 3.42 10.314 17.72 16.559 17.72 16.559 14.863 19.396 17.72 28.283 17.72 21.194 10.573 28.283 3.42 19.396 3.42" style="fill: #fefefe"/>
        <polygon id="Fill-2" points="10.314 18.62 10.314 22.502 11.36 22.502 11.36 20.977 12.646 22.502 14.071 22.502 12.607 20.858 12.592 20.858 13.909 19.599 12.646 19.599 11.36 20.843 11.36 18.62 10.314 18.62" style="fill: #fefefe"/>
        <g id="Group-16">
          <path id="Fill-3" d="M14.20433,19.5986h1.00593V20.123a1.19462,1.19462,0,0,1,1.12425-.62538.99472.99472,0,0,1,.90707.64993,1.34616,1.34616,0,0,1,1.14639-.64993,1.126,1.126,0,0,1,1.19448,1.24365v1.761H18.58192V20.85862a.58186.58186,0,0,0-.55807-.61828.68364.68364,0,0,0-.62831.66576v1.59617h-1.007V20.85862c0-.31269-.15559-.61828-.51917-.61828-.25554,0-.62722.24175-.62722.82183v1.4401H14.20433Z" style="fill: #fefefe"/>
          <path id="Fill-5" d="M23.68078,19.5986h.99891v.61064c.19449-.60246.74445-.7116,1.41813-.65812v.90859a1.979,1.979,0,0,0-.92111.08622.75164.75164,0,0,0-.45758.64993v1.30641H23.68078V19.5986Z" style="fill: #fefefe"/>
          <path id="Fill-7" d="M26.323,18.62049h1.03132v.92332h.85142v.91568h-.85142v1.00245c0,.382.27715.42183.85142.31214v.68977c-1.061.21937-1.88274.08567-1.88274-1.03356v-2.8098Z" style="fill: #fefefe"/>
          <g id="Group-11">
            <g style="mask: url(#mask-2-2)">
              <polygon id="Fill-9" points="29.174 21.962 29.298 21.962 29.423 22.378 29.554 21.962 29.686 21.962 29.686 22.479 29.601 22.479 29.601 22.056 29.469 22.479 29.384 22.479 29.253 22.056 29.253 22.479 29.174 22.479 29.174 21.962" style="fill: #fefefe"/>
            </g>
          </g>
          <path id="Fill-12" d="M29.06689,22.11111h-.08536a.07407.07407,0,0,0-.03187-.06276.13851.13851,0,0,0-.08536-.02292.11734.11734,0,0,0-.06915.01474.07143.07143,0,0,0-.02377.048.04747.04747,0,0,0,.02377.04584.16636.16636,0,0,0,.10156.03983.46852.46852,0,0,1,.15289.06385.1178.1178,0,0,1,.03242.09277.14076.14076,0,0,1-.054.11787.22449.22449,0,0,1-.14748.04639.22691.22691,0,0,1-.15451-.04639.20047.20047,0,0,1-.06321-.1337h.08482a.15742.15742,0,0,0,.03943.07859.179.179,0,0,0,.10049.02346.1614.1614,0,0,0,.07023-.01582.05926.05926,0,0,0,.03188-.05512.05858.05858,0,0,0-.00811-.03111.32874.32874,0,0,1-.02377-.02346.266.266,0,0,0-.09346-.03929h-.02215a.27307.27307,0,0,1-.12426-.06276.12573.12573,0,0,1,.01513-.19427.21192.21192,0,0,1,.14749-.03983.17049.17049,0,0,1,.13128.03983.141.141,0,0,1,.0551.11624" style="fill: #fefefe"/>
          <path id="Fill-14" d="M22.22283,21.22577c-.31658.01637-1.37762-.11624-1.37762.40108,0,.2101.17882.328.47217.328a.865.865,0,0,0,.90545-.72905ZM23.239,22.50216h-.9908v-.44584a1.34876,1.34876,0,0,1-1.10912.52387c-.59643,0-1.23986-.18717-1.22473-.94733,0-1.10341,1.57427-.95443,2.30846-.96971a.50679.50679,0,0,0-.557-.57189c-.30146,0-.5262.149-.5262.32032H20.10022c0-.59317.745-.914,1.58074-.914,1.03889,0,1.55806.37544,1.55806,1.111v1.89358Z" style="fill: #fefefe"/>
        </g>
      </g>
    </g>
  </g>
</svg>
