<svg id="Layer_1" data-name="Layer 1" xmlns="http://www.w3.org/2000/svg" xmlns:xlink="http://www.w3.org/1999/xlink" viewBox="0 0 40 26">
  <defs>
    <mask id="mask" x="0.12417" y="0.0864" width="41.08254" height="25.9136" maskUnits="userSpaceOnUse">
      <g id="mask-2">
        <rect id="path-1" x="0.12417" y="0.0864" width="41.08254" height="25.9136" rx="2.52816" ry="2.52816" style="fill: #fff"/>
      </g>
    </mask>
    <mask id="mask-2-2" x="12.15071" y="3.93825" width="17.23673" height="17.52518" maskUnits="userSpaceOnUse">
      <g id="mask-4">
        <polygon id="path-3" points="12.151 21.463 29.387 21.463 29.387 3.938 12.151 3.938 12.151 21.463" style="fill: #fff"/>
      </g>
    </mask>
  </defs>
  <title>konbini</title>
  <g id="Page-1">
    <g id="konbini--65x41--">
      <rect width="40" height="26"/>
      <g style="mask: url(#mask)">
        <g id="Page-1-2" data-name="Page-1">
          <g>
            <g id="Group-3">
              <g style="mask: url(#mask-2-2)">
                <path id="Fill-1" d="M19.34192,21.4427c-.08921.00656-.17842.01873-.26769.01879-1.65215.00113-3.30436.00548-4.95645-.00436a2.19773,2.19773,0,0,1-.7328-.11626,1.6876,1.6876,0,0,1-1.20461-1.51494c-.04725-.62033-.02209-1.24609-.029-1.86946a.82974.82974,0,0,1,.141-.325c1.36111-2.04989,2.70025-4.114,4.04933-6.1716,1.52929-2.33245,3.06376-4.66167,4.58047-7.00223a1.26248,1.26248,0,0,1,.40818-.50519c.51123-.00287,1.02246-.00781,1.53369-.00811,1.61441-.00108,3.22894.01312,4.8431-.006a1.65038,1.65038,0,0,1,1.67822,1.59232,1.69067,1.69067,0,0,1-.32662,1.03049q-.51719.78319-1.0316,1.56818Q26.70433,10.14911,25.38343,12.17c-.04864.07447-.08861.15449-.13261.23194a2.91346,2.91346,0,0,1-.50593.87082c-1.44382,2.18666-2.86049,4.39073-4.31081,6.57316-.2976.44778-.58737.90111-.87733,1.354a.56042.56042,0,0,1-.21483.24279" style="fill: #f91e13"/>
              </g>
            </g>
            <g id="Group-6">
              <path id="Fill-4" d="M21.33029,3.95242c-.57907.89055-1.15579,1.78265-1.73769,2.67135q-3.60768,5.50983-7.21849,11.01757c-.07042.1075-.14832.21018-.22272.31512-.00626-.08855-.01793-.17715-.01793-.26575q-.0009-5.86713.00138-11.73419a1.927,1.927,0,0,1,.63174-1.54266,1.75671,1.75671,0,0,1,1.16771-.46811q3.6381-.00519,7.27621-.00131c.03991,0,.07988.00518.11979.008" style="fill: #1e32c7"/>
            </g>
            <path id="Fill-7" d="M19.34192,21.4427c.20646-.336.40468-.67721.62072-1.007q1.92781-2.94408,3.86248-5.88379.67638-1.03014,1.35118-2.0614a.94707.94707,0,0,1,.07452-.08854c.28243.4194.56907.83606.84651,1.25867q1.70976,2.60439,3.41626,5.21093a1.64192,1.64192,0,0,1-1.42209,2.58782q-2.872-.00135-5.744-.0003-1.35328,0-2.70663-.00072c-.09962-.00011-.1993-.01019-.29892-.01562" style="fill: #fec700"/>
          </g>
        </g>
      </g>
    </g>
  </g>
</svg>
