<svg id="Layer_1" data-name="Layer 1" xmlns="http://www.w3.org/2000/svg" xmlns:xlink="http://www.w3.org/1999/xlink" viewBox="0 0 40 26">
  <defs>
    <linearGradient id="linear-gradient" x1="20" y1="25.29787" x2="20" y2="0.66794" gradientUnits="userSpaceOnUse">
      <stop offset="0" stop-color="#acc23a"/>
      <stop offset="1" stop-color="#84a134"/>
    </linearGradient>
    <mask id="mask" x="8.68878" y="2.92194" width="21.73558" height="21.93523" maskUnits="userSpaceOnUse">
      <g id="mask-3">
        <path id="path-2" d="M30.42437,20.65488a4.18616,4.18616,0,0,1-4.16682,4.20229H12.84984a4.18355,4.18355,0,0,1-4.16106-4.20229V7.12244a4.18115,4.18115,0,0,1,4.16106-4.2005H26.25755a4.18376,4.18376,0,0,1,4.16682,4.2005ZM8.68878,2.92194H30.42437V24.85717H8.68878Z" style="fill: #fff"/>
      </g>
    </mask>
    <mask id="mask-2" x="11.72349" y="0.73509" width="19.58772" height="16.30052" maskUnits="userSpaceOnUse">
      <g id="mask-5">
        <path id="path-4" d="M11.72349,3.078a4.12669,4.12669,0,0,1,1.12591-.15562H26.25755a4.18347,4.18347,0,0,1,4.16682,4.20049v9.91273H11.72349V3.078Z" style="fill: #fff"/>
      </g>
    </mask>
    <mask id="mask-3-2" x="11.59522" y="0.60358" width="19.58751" height="16.30179" maskUnits="userSpaceOnUse">
      <g id="mask-7">
        <path id="path-6" d="M11.59522,3.11661a4.12187,4.12187,0,0,1,1.25418-.19422H26.25755a4.18347,4.18347,0,0,1,4.16682,4.20049v9.78249H11.59522V3.11661Z" style="fill: #fff"/>
      </g>
    </mask>
  </defs>
  <title>m_pay</title>
  <g id="Page-1">
    <g id="m-pay-65x41">
      <rect y="0.00001" width="40" height="25.99999" style="fill: url(#linear-gradient)"/>
      <g id="Page-1-2" data-name="Page-1">
        <g id="Group-6">
          <g style="mask: url(#mask)">
            <path id="Fill-4" d="M30.42437,20.65488a4.18616,4.18616,0,0,1-4.16682,4.20229H12.84984a4.18355,4.18355,0,0,1-4.16106-4.20229V7.12244a4.18115,4.18115,0,0,1,4.16106-4.2005H26.25755a4.18376,4.18376,0,0,1,4.16682,4.2005Z" style="fill: none"/>
          </g>
        </g>
        <g id="Group-13">
          <g id="Group-9">
            <g style="mask: url(#mask-2)">
              <path id="Fill-7" d="M28.36127,1.08153c-8.13633-2.05911-14.1797,5.73331-14.1797,5.73331-5.77822,7.41638.443,9.6074.443,9.6074,5.553,2.28536,11.37418-2.55142,11.37418-2.55142.7955-.51243.57733-.89966.57733-.89966-.28467-.45207-1.04691.1574-1.04691.1574-6.17374,4.51171-10.41417,1.984-10.41417,1.984-4.88251-2.89617.79106-8.8544.79106-8.8544,4.62088-4.57253,9.09987-3.82847,9.09987-3.82847,7.11956.74628,4.25374,6.00071,4.25374,6.00071-1.47571,2.54247-3.0126,2.32113-3.0126,2.32113-1.49256.17439.0776-2.2791.0776-2.2791h-.00355c.06385-.0948.1379-.1963.21107-.29736,0,0,.69794-.96628.8762-1.193,0,0,.9059-.96763.24166-1.45144-.34587-.21329-1.11786-.31658-2.63747,1.05214L20.9291,10.12194l-.02661.02907.0102-.017-.08026.06752s.04257-.04248.11307-.12162c.208-.3452,1.12452-1.92184,1.67791-2.72357,0,0,1.15511-1.7394-.15032-1.79172l-.0071-.00894a4.55532,4.55532,0,0,0-2.00293,1.134s-3.52342,2.94-4.16061,3.62681A32.10877,32.10877,0,0,1,18.21758,7.19s.92985-1.29583.32591-1.74566c0,0-.70415-.533-1.493.541,0,0-4.27812,5.8299-2.06013,6.43891,0,0,.52323.2267,1.67746-.67117L19.99969,8.7027s-2.0863,3.25657-.95291,3.6438c0,0,.53033.2741,1.66149-.54955l3.91452-3.06072s-.16673.2911-.35474.70739H24.2645v.00984c-.38311.8308-.8283,2.15927-.15785,2.71418l.0133.01341.01729.00984a2.34621,2.34621,0,0,0,1.97278.20122c2.426-.40914,4.25063-3.64693,4.25063-3.64693,2.98023-5.9551-1.99938-7.66365-1.99938-7.66365" style="fill: #e6e7e7"/>
            </g>
          </g>
          <g id="Group-12">
            <g style="mask: url(#mask-3-2)">
              <path id="Fill-10" d="M28.23653.94922C20.098-1.10766,14.05107,6.68745,14.05107,6.68745c-5.77511,7.41548.44652,9.60471.44652,9.60471,5.55606,2.28492,11.37418-2.55142,11.37418-2.55142.79816-.51466.57689-.9001.57689-.9001-.29133-.45162-1.05.15918-1.05.15918-6.17374,4.5135-10.412,1.98265-10.412,1.98265-4.88471-2.89483.7955-8.85485.7955-8.85485,4.61069-4.57252,9.09633-3.82355,9.09633-3.82355,7.12311.7445,4.244,5.99445,4.244,5.99445-1.46595,2.5474-3.0024,2.31935-3.0024,2.31935-1.49389.17573.07316-2.26882.07316-2.26882.0643-.1015.141-.20122.21151-.30585,0,0,.69795-.96449.87576-1.193,0,0,.9028-.96583.24255-1.4483-.34942-.21642-1.12186-.31614-2.63791,1.05079l-4.0808,3.541-.02572.02683.00931-.0152-.08291.06931s.04611-.0474.11661-.127c.19467-.34341,1.121-1.91871,1.67126-2.72044,0,0,1.15732-1.73895-.15431-1.79127L22.332,5.431a4.49322,4.49322,0,0,0-2.00382,1.12994s-3.51588,2.93865-4.15707,3.62368a33.5082,33.5082,0,0,1,1.91913-3.12422s.93339-1.29493.32635-1.743c0,0-.71124-.53925-1.49432.53479,0,0-4.27724,5.83437-2.0557,6.44383,0,0,.52013.22492,1.67081-.6734l3.33851-3.04507s-2.09073,3.2512-.95646,3.63888c0,0,.52634.2741,1.66061-.5482l3.90875-3.05893s-.16672.28975-.35163.70425c-.0071.00179-.0071.00671-.0102.01029-.37247.83527-.81545,2.16329-.14766,2.71329l.00976.01162c.0102.00537.01729.00671.01729.01386a2.34617,2.34617,0,0,0,1.97278.20122c2.43526-.40914,4.25417-3.64917,4.25417-3.64917C33.20993,2.66313,28.23653.94922,28.23653.94922" style="fill: #fefefe"/>
            </g>
          </g>
        </g>
        <g id="Group-26">
          <path id="Fill-14" d="M15.58087,21.36187a1.97023,1.97023,0,0,1-.65449-.11L15.49,18.88512a2.92571,2.92571,0,0,1,.76179-.093.91734.91734,0,0,1,.748.31658,1.064,1.064,0,0,1,.14456.89609,1.76245,1.76245,0,0,1-1.5635,1.35709m2.13374-2.771a1.6128,1.6128,0,0,0-1.352-.57682,5.1515,5.1515,0,0,0-1.50674.21955l-.07982.02057L13.554,23.51533h.84871l.353-1.50331a1.81164,1.81164,0,0,0,.71081.13817,2.69924,2.69924,0,0,0,2.5102-2.08728,1.72469,1.72469,0,0,0-.26206-1.472" style="fill: #e6e7e7"/>
          <path id="Fill-16" d="M20.81141,20.26734c-.03592.169-.06695.32329-.11706.4856l-.05321.27053a1.5887,1.5887,0,0,1-.97331.33849c-.49353,0-.81545-.17931-.81545-.47353,0-.32329.43278-.7767,1.24779-.77848a1.42805,1.42805,0,0,1,.71124.15739m.772-1.77472a1.42115,1.42115,0,0,0-1.15733-.48024,2.81819,2.81819,0,0,0-1.57015.51556l-.10731.07646.35828.56833.11441-.07423a2.14977,2.14977,0,0,1,1.07751-.3215.74554.74554,0,0,1,.58664.22313.67725.67725,0,0,1,.09445.53657,1.718,1.718,0,0,0-.77909-.18467h-.03636a2.18747,2.18747,0,0,0-1.94706.99311,1.18347,1.18347,0,0,0-.05321,1.18271,1.47178,1.47178,0,0,0,1.35554.61214H19.553a2.08406,2.08406,0,0,0,.9773-.25711v.20837h.68686l.56093-2.38061a1.4022,1.4022,0,0,0-.19466-1.218" style="fill: #e6e7e7"/>
          <path id="Fill-18" d="M25.2309,18.11241l-1.685,2.8045-.43234-2.8045H22.221l.65759,3.82668-.29887.48381a.56406.56406,0,0,1-.53653.30943c-.03725,0-.0776,0-.11707-.00358l-.1246-.01833-.17471.75254.1583.01521a1.6746,1.6746,0,0,0,.21506.00894,1.443,1.443,0,0,0,1.30765-.72438l2.86228-4.65032Z" style="fill: #e6e7e7"/>
          <path id="Fill-20" d="M15.39942,21.23175a1.98322,1.98322,0,0,1-.65094-.10329l.54718-2.37346a3.09672,3.09672,0,0,1,.76845-.0863.907.907,0,0,1,.748.31613,1.04331,1.04331,0,0,1,.145.89653,1.74373,1.74373,0,0,1-1.55774,1.35039m2.12443-2.76784a1.61372,1.61372,0,0,0-1.34623-.57682,5.26571,5.26571,0,0,0-1.509.22357l-.08469.02325L13.37343,23.387H14.215l.353-1.5042a1.73653,1.73653,0,0,0,.71124.144,2.71759,2.71759,0,0,0,2.51952-2.08772,1.74428,1.74428,0,0,0-.27492-1.47514" style="fill: #fefefe"/>
          <path id="Fill-22" d="M20.62739,20.142c-.05055.21507-.09711.41182-.1481.618l-.01951.13549a1.56052,1.56052,0,0,1-.97331.33625c-.50683,0-.819-.18109-.819-.47174,0-.32373.43278-.77356,1.24557-.77669a1.42674,1.42674,0,0,1,.71435.15874m.77111-1.77607a1.42386,1.42386,0,0,0-1.15733-.47845,2.80079,2.80079,0,0,0-1.5666.5169l-.11086.07825.35917.563L19.04,18.975a2.17287,2.17287,0,0,1,1.07751-.31613.74644.74644,0,0,1,.58753.21463.70372.70372,0,0,1,.09356.53792,1.79278,1.79278,0,0,0-.78175-.18288h-.03724a2.18,2.18,0,0,0-1.94618.9949,1.18709,1.18709,0,0,0-.05986,1.17733,1.48209,1.48209,0,0,0,1.36574.6193H19.369a2.07605,2.07605,0,0,0,.96976-.2589v.20837h.69439l.55029-2.38731a1.409,1.409,0,0,0-.18491-1.21624" style="fill: #fefefe"/>
          <path id="Fill-24" d="M25.046,17.98707l-1.68766,2.80138-.42967-2.80138h-.89261l.65449,3.82489-.302.48739a.55929.55929,0,0,1-.52634.30943,1.16557,1.16557,0,0,1-.1246-.0085l-.11706-.0152-.17782.74629.15742.02012a2.00846,2.00846,0,0,0,.22747.01028,1.434,1.434,0,0,0,1.29523-.72929l2.86583-4.64541Z" style="fill: #fefefe"/>
        </g>
      </g>
    </g>
  </g>
</svg>
