<svg id="Layer_1" data-name="Layer 1" xmlns="http://www.w3.org/2000/svg" xmlns:xlink="http://www.w3.org/1999/xlink" viewBox="0 0 40 26">
  <defs>
    <mask id="mask" x="3.38462" y="-0.53846" width="33.91747" height="27.24201" maskUnits="userSpaceOnUse">
      <g id="mask-2">
        <polygon id="path-1" points="3.385 26.704 37.302 26.704 37.302 -0.538 3.385 -0.538 3.385 26.704" style="fill: #fff"/>
      </g>
    </mask>
  </defs>
  <title>maestro</title>
  <g id="Page-1">
    <g id="maestro-65x41">
      <rect y="0.00001" width="40" height="26" style="fill: #fff"/>
      <g id="Page-1-2" data-name="Page-1">
        <path id="Fill-1" d="M29.61159,23.06319v.05307h.04991a.04891.04891,0,0,0,.0275-.00655.02472.02472,0,0,0,0-.04.05079.05079,0,0,0-.0275-.00655Zm.05061-.03726a.09311.09311,0,0,1,.06031.01716.05561.05561,0,0,1,.02126.04652.05353.05353,0,0,1-.01687.04065.08118.08118,0,0,1-.04807.01987l.06656.07519h-.052l-.06193-.07474h-.01987v.07474h-.04344v-.19939Zm-.01318.26781a.16555.16555,0,0,0,.06633-.01332.17384.17384,0,0,0,.05384-.03568.16535.16535,0,0,0,.03628-.05329.1656.1656,0,0,0-.03628-.18336.17008.17008,0,0,0-.12017-.04832.17738.17738,0,0,0-.06747.01287.16718.16718,0,0,0-.05454.03545.162.162,0,0,0-.03628.05307.1677.1677,0,0,0,0,.13029.16535.16535,0,0,0,.03628.05329.17156.17156,0,0,0,.05454.03568A.17359.17359,0,0,0,29.649,23.29374Zm0-.38184a.22566.22566,0,0,1,.15806.06277.2161.2161,0,0,1,.04807.06842.2079.2079,0,0,1,0,.1662.21512.21512,0,0,1-.04807.06819.22777.22777,0,0,1-.07094.0463.2201.2201,0,0,1-.08712.01693.2271.2271,0,0,1-.15967-.06323.21382.21382,0,0,1-.04761-.06819.20541.20541,0,0,1,0-.1662.2148.2148,0,0,1,.04761-.06842.22167.22167,0,0,1,.07117-.04606A.23089.23089,0,0,1,29.649,22.9119ZM26.32628,21.016a1.05285,1.05285,0,0,1,.34177.05849l-.14789.44191a.8017.8017,0,0,0-.29995-.0542c-.31381,0-.47072.19849-.47072.55482v1.20876h-.48V21.07h.47557v.26149A.65352.65352,0,0,1,26.32628,21.016Zm-1.6608.48233h-.78476v.97438c0,.21632.07857.36039.31844.36039a.90042.90042,0,0,0,.42473-.12171l.13842.40149a1.14623,1.14623,0,0,1-.59989.16687c-.56778,0-.766-.29762-.766-.79824v-.98318h-.44784V21.07h.44784l-.00023-.65395h.48458V21.07h.78476ZM22.359,21.62a1.44824,1.44824,0,0,0-.68747-.18471c-.2632,0-.42011.09462-.42011.25246,0,.14452.16615.18494.37389.212l.22623.03139c.47973.06774.77067.26623.77067.64514,0,.4103-.36928.7034-1.00614.7034a1.61734,1.61734,0,0,1-.9553-.27955l.226-.36514a1.19406,1.19406,0,0,0,.73392.22536c.32768,0,.50307-.09461.50307-.26171,0-.12171-.12455-.18946-.38776-.22559l-.22623-.03139c-.49359-.06751-.76119-.28407-.76119-.63588,0-.42836.3598-.68985.91833-.68985a1.67863,1.67863,0,0,1,.89984.22536Zm-3.664.33827a.56283.56283,0,0,1,.586-.523.54254.54254,0,0,1,.5583.523Zm1.64277.18945a1.04332,1.04332,0,0,0-1.0475-1.13176,1.06455,1.06455,0,0,0-1.09834,1.13176,1.07532,1.07532,0,0,0,1.13069,1.132,1.35994,1.35994,0,0,0,.90446-.30213l-.23524-.3473a1.06688,1.06688,0,0,1-.64149.22559.60941.60941,0,0,1-.66-.52772h1.63838C20.33337,22.26947,20.33776,22.211,20.33776,22.14775Zm7.65833-.691a.73349.73349,0,0,0-.27407.05059.64335.64335,0,0,0-.36395.36016.76842.76842,0,0,0,0,.56046.65747.65747,0,0,0,.14512.21836.6472.6472,0,0,0,.21883.14181.76455.76455,0,0,0,.54813,0,.65674.65674,0,0,0,.22-.14181.65013.65013,0,0,0,.14628-.21836.76532.76532,0,0,0,0-.56046.65242.65242,0,0,0-.14628-.21836.66387.66387,0,0,0-.22-.1418A.73257.73257,0,0,0,27.99609,21.45677Zm0-.44349a1.26808,1.26808,0,0,1,.47348.08671,1.15871,1.15871,0,0,1,.37644.23846,1.09473,1.09473,0,0,1,.24888.359,1.17207,1.17207,0,0,1,0,.9003,1.08863,1.08863,0,0,1-.24888.35927,1.15471,1.15471,0,0,1-.37644.23845,1.33217,1.33217,0,0,1-.94674,0,1.14326,1.14326,0,0,1-.37551-.23845,1.09525,1.09525,0,0,1-.24749-.35927,1.17207,1.17207,0,0,1,0-.9003,1.10142,1.10142,0,0,1,.24749-.359A1.14719,1.14719,0,0,1,27.52283,21.1,1.26692,1.26692,0,0,1,27.99609,21.01328ZM15.94024,22.14775a.66719.66719,0,1,1,.669.69008A.65323.65323,0,0,1,15.94024,22.14775Zm1.78582,0V21.07h-.48v.26149a.84414.84414,0,0,0-.69672-.31546,1.13225,1.13225,0,0,0,0,2.26375.84367.84367,0,0,0,.69672-.31568v.26171h.48Zm-2.70437,1.078v-1.353a.8114.8114,0,0,0-.86749-.85673.86076.86076,0,0,0-.77528.3832.81462.81462,0,0,0-.7293-.3832.73524.73524,0,0,0-.64611.3202V21.07h-.48v2.15581h.48458V22.03056a.50943.50943,0,0,1,.54-.57266c.31844,0,.48.20278.48.56814v1.19973h.48458V22.03056a.51369.51369,0,0,1,.53982-.57266c.32767,0,.48481.20278.48481.56814v1.19973Z"/>
        <g style="mask: url(#mask)">
          <polygon id="Fill-3" points="16.704 17.4 23.983 17.4 23.983 4.618 16.704 4.618 16.704 17.4" style="fill: #7773b4"/>
        </g>
        <g style="mask: url(#mask)">
          <path id="Fill-5" d="M17.16593,11.0089a8.04991,8.04991,0,0,1,3.1774-6.39111,8.40561,8.40561,0,0,0-5.14114-1.73807,8.22549,8.22549,0,0,0-8.3183,8.12918,8.22568,8.22568,0,0,0,8.3183,8.12941A8.40585,8.40585,0,0,0,20.34333,17.4a8.04993,8.04993,0,0,1-3.1774-6.39112" style="fill: #ea1d25"/>
        </g>
        <g style="mask: url(#mask)">
          <path id="Fill-6" d="M33.54317,16.04631v-.31546h-.08435l-.09705.21678-.09683-.21678H33.1806v.31546H33.24v-.23823l.091.20526h.0617l.09082-.20571v.23868Zm-.534,0v-.26172h.10791v-.05351h-.275v.05351h.10815v.26172Z" style="fill: #139fda"/>
        </g>
        <g style="mask: url(#mask)">
          <path id="Fill-7" d="M33.80291,11.0089a8.22574,8.22574,0,0,1-8.31854,8.12941A8.40585,8.40585,0,0,1,20.34323,17.4a8.01634,8.01634,0,0,0,0-12.78223,8.40561,8.40561,0,0,1,5.14114-1.73807,8.22556,8.22556,0,0,1,8.31854,8.12918" style="fill: #139fda"/>
        </g>
      </g>
    </g>
  </g>
</svg>
