<svg id="Layer_1" data-name="Layer 1" xmlns="http://www.w3.org/2000/svg" viewBox="0 0 40 26">
  <defs>
    <clipPath id="clip-path">
      <polygon points="0 0 40 26 0 26 0 0" style="fill: none"/>
    </clipPath>
    <mask id="mask" x="0.74651" y="12.16596" width="17.26681" height="13.86845" maskUnits="userSpaceOnUse">
      <g id="mask-2">
        <polygon id="path-1" points="0.747 26.034 18.013 26.034 18.013 12.166 0.747 12.166 0.747 26.034" style="fill: #fff"/>
      </g>
    </mask>
  </defs>
  <title>maestro_samsungpay</title>
  <g id="Page-1">
    <g id="android-pay-65x41">
      <rect width="40" height="26" style="fill: #fff"/>
    </g>
  </g>
  <g style="clip-path: url(#clip-path)">
    <g id="direct-debit--65x41">
      <rect id="Rectangle" width="40" height="26"/>
    </g>
  </g>
  <path d="M37.12473,6.54262A5.36733,5.36733,0,0,0,35.82241,3.5284h0A5.36336,5.36336,0,0,0,32.8082,2.22609a11.62235,11.62235,0,0,0-1.88289-.11174,11.62235,11.62235,0,0,0-1.88289.11174A5.36726,5.36726,0,0,0,26.02821,3.5284h0a5.36988,5.36988,0,0,0-1.30272,3.01422,11.62247,11.62247,0,0,0-.11174,1.88289,11.62377,11.62377,0,0,0,.11174,1.88289,5.36727,5.36727,0,0,0,1.30232,3.01421h0A5.36189,5.36189,0,0,0,29.042,14.62493a11.62377,11.62377,0,0,0,1.88289.11174,11.62377,11.62377,0,0,0,1.88289-.11174A5.36734,5.36734,0,0,0,35.822,13.32261h0a5.36065,5.36065,0,0,0,1.30232-3.01421,11.62377,11.62377,0,0,0,.11174-1.88289A11.58979,11.58979,0,0,0,37.12473,6.54262Zm-9.2204,3.12754H27.651V9.13134h.2533a.86424.86424,0,0,0,.88956-.85813.89036.89036,0,0,0-.88956-.88916h-.80405a.09266.09266,0,0,0-.09146.09146v3.02217h-.54916V7.47551a.64142.64142,0,0,1,.64062-.64062h.80405A1.44031,1.44031,0,0,1,29.34305,8.274,1.40531,1.40531,0,0,1,27.90433,9.67016ZM32.5032,8.33405V9.67692h-.54956V8.28a.9398.9398,0,0,0-.94045-.89194.91807.91807,0,0,0-.89233.89194.84476.84476,0,0,0,.92732.84421h.17139v.54916h-.17139A1.37987,1.37987,0,0,1,29.5717,8.28156a1.46444,1.46444,0,0,1,1.44149-1.4411,1.48841,1.48841,0,0,1,1.48961,1.4411Zm.08669-1.40451h.614l.70982,1.47887-.307.61437Zm1.26931,3.66318h-.61239l1.79938-3.66318h.614Z" style="fill: #3056d3"/>
  <g id="Page-1-2" data-name="Page-1">
    <g id="maestro-65x41">
      <g id="Page-1-3" data-name="Page-1">
        <path id="Fill-1" d="M14.09822,24.18116v.027h.02541l.014-.00333a.01258.01258,0,0,0,0-.02035l-.014-.00333Zm.02576-.019a.04735.04735,0,0,1,.03071.00874.0283.0283,0,0,1,.01082.02368.02722.02722,0,0,1-.00859.02069.04132.04132,0,0,1-.02447.01012l.03388.03828h-.02647l-.03152-.03806h-.01012v.03806H14.0761v-.10151Zm-.0067.13634a.0841.0841,0,0,0,.03376-.00679.08817.08817,0,0,0,.02741-.01816.08411.08411,0,0,0,.01847-.02713.08428.08428,0,0,0-.01847-.09334.08656.08656,0,0,0-.06117-.0246.09026.09026,0,0,0-.03435.00655.08516.08516,0,0,0-.02777.01805.08243.08243,0,0,0-.01847.027.08543.08543,0,0,0,0,.06633.08411.08411,0,0,0,.01847.02713.08709.08709,0,0,0,.02777.01816A.08819.08819,0,0,0,14.11728,24.29853Zm0-.19439a.1148.1148,0,0,1,.08046.03195.10989.10989,0,0,1,.02447.03484.10584.10584,0,0,1,0,.0846.10938.10938,0,0,1-.02447.03472.11586.11586,0,0,1-.03611.02357.11209.11209,0,0,1-.04435.00862.11562.11562,0,0,1-.08129-.03219.10873.10873,0,0,1-.02424-.03472.10454.10454,0,0,1,0-.0846.10924.10924,0,0,1,.02424-.03484.11286.11286,0,0,1,.03623-.02345A.1177.1177,0,0,1,14.11728,24.10414ZM12.42572,23.139a.53589.53589,0,0,1,.174.02978l-.07529.225a.408.408,0,0,0-.15269-.02759c-.15976,0-.23964.101-.23964.28244v.61537h-.24434V23.16644h.24211v.13312A.33267.33267,0,0,1,12.42572,23.139Zm-.84548.24555h-.39951v.496c0,.11012.04.18347.16211.18347a.45838.45838,0,0,0,.21622-.062l.07047.20439a.58348.58348,0,0,1-.30539.08495c-.289,0-.39-.15151-.39-.40637v-.50052h-.228v-.21807h.228l-.00012-.33292h.24669v.33292h.39951Zm-1.17417.062a.73723.73723,0,0,0-.35-.094c-.134,0-.21387.04816-.21387.12852,0,.07357.08458.09415.19034.10794l.11517.016c.24422.03449.39233.13553.39233.32843,0,.20888-.188.35809-.5122.35809a.82333.82333,0,0,1-.48633-.14232l.11505-.18588a.60788.60788,0,0,0,.37363.11473c.16681,0,.2561-.04817.2561-.13324,0-.062-.06341-.09645-.1974-.11484l-.11517-.016c-.25128-.03437-.38751-.14461-.38751-.32372,0-.21807.18317-.35119.46751-.35119a.85452.85452,0,0,1,.45809.11473Zm-1.86531.17221a.28654.28654,0,0,1,.29834-.26624.2762.2762,0,0,1,.28422.26624Zm.83631.09644A.53114.53114,0,0,0,8.8438,23.139a.54194.54194,0,0,0-.55914.57616.54742.54742,0,0,0,.57561.57628.69235.69235,0,0,0,.46045-.15381l-.11976-.1768a.54315.54315,0,0,1-.32657.11484.31023.31023,0,0,1-.336-.26866h.83407C9.37483,23.77709,9.37707,23.74731,9.37707,23.71512Zm3.89872-.35176a.37344.37344,0,0,0-.13952.02575.32755.32755,0,0,0-.18528.18335.3912.3912,0,0,0,0,.28532.33473.33473,0,0,0,.07388.11117.32949.32949,0,0,0,.1114.07219.38919.38919,0,0,0,.279,0,.32955.32955,0,0,0,.18646-.18336.38971.38971,0,0,0,0-.28532.33239.33239,0,0,0-.07447-.11116.33808.33808,0,0,0-.112-.07219A.373.373,0,0,0,13.27579,23.36336Zm0-.22578a.64551.64551,0,0,1,.241.04415.58987.58987,0,0,1,.19164.12139.55727.55727,0,0,1,.12669.18278.59659.59659,0,0,1,0,.45833.55425.55425,0,0,1-.12669.1829.588.588,0,0,1-.19164.12139.67818.67818,0,0,1-.482,0,.58224.58224,0,0,1-.19117-.12139.55762.55762,0,0,1-.126-.1829.59671.59671,0,0,1,0-.45833.56068.56068,0,0,1,.126-.18278.584.584,0,0,1,.19117-.12139A.64483.64483,0,0,1,13.27579,23.13758Zm-6.13742.57754a.33965.33965,0,1,1,.34057.35131A.33255.33255,0,0,1,7.13837,23.71512Zm.90913,0v-.54868H7.80316v.13312a.42972.42972,0,0,0-.35469-.1606.57641.57641,0,0,0,0,1.15244.42949.42949,0,0,0,.35469-.16071v.13324H8.0475Zm-1.37675.54881v-.68882a.41308.41308,0,0,0-.44163-.43615.4382.4382,0,0,0-.39468.19508.4147.4147,0,0,0-.37127-.19508.37431.37431,0,0,0-.32893.163v-.13553H4.8899v1.09749h.2467v-.60847a.25934.25934,0,0,1,.27492-.29153c.16211,0,.24434.10323.24434.28923v.61077h.24669v-.60847a.26151.26151,0,0,1,.27481-.29153c.16682,0,.24681.10323.24681.28923v.61077Z" style="fill: #fff"/>
        <g style="mask: url(#mask)">
          <polygon id="Fill-3" points="7.527 21.298 11.233 21.298 11.233 14.791 7.527 14.791 7.527 21.298" style="fill: #7773b3"/>
        </g>
        <g style="mask: url(#mask)">
          <path id="Fill-5" d="M7.76235,18.04452A4.09811,4.09811,0,0,1,9.3799,14.79091a4.27917,4.27917,0,0,0-2.61726-.88481,4.13958,4.13958,0,1,0,0,8.277,4.27921,4.27921,0,0,0,2.61726-.88494,4.09808,4.09808,0,0,1-1.61755-3.25361" style="fill: #e91d25"/>
        </g>
        <g style="mask: url(#mask)">
          <path id="Fill-6" d="M16.09972,20.609v-.16059h-.04294l-.04941.11036-.04929-.11036h-.04294V20.609h.03024V20.4877l.04635.1045h.03141l.04623-.10473V20.609Zm-.27187,0v-.13323h.05494V20.4485h-.14v.02725h.055V20.609Z" style="fill: #139ed9"/>
        </g>
        <g style="mask: url(#mask)">
          <path id="Fill-7" d="M16.232,18.04452a4.18758,4.18758,0,0,1-4.23483,4.13855,4.27921,4.27921,0,0,1-2.61726-.88494,4.081,4.081,0,0,0,0-6.50722,4.27917,4.27917,0,0,1,2.61726-.88481A4.18748,4.18748,0,0,1,16.232,18.04452" style="fill: #139ed9"/>
        </g>
      </g>
    </g>
  </g>
</svg>
