<svg id="Layer_1" data-name="Layer 1" xmlns="http://www.w3.org/2000/svg" viewBox="0 0 40 26">
  <title>masterpass</title>
  <rect x="-0.07589" y="-0.04155" width="40.02086" height="26.01649" style="fill: #fff"/>
  <rect x="1.66094" y="9.80546" width="36.67811" height="6.38909" style="fill: none"/>
  <rect x="1.66094" y="9.80546" width="36.67811" height="6.38909" style="fill: none"/>
  <rect x="1.66094" y="6.93621" width="53.14975" height="9.25834" style="fill: none"/>
  <g>
    <path d="M8.70405,22.432V20.70857A1.02233,1.02233,0,0,0,7.624,19.61711a1.06358,1.06358,0,0,0-.965.48829,1.00857,1.00857,0,0,0-.90752-.48829.90823.90823,0,0,0-.80422.408v-.33889H4.34978V22.432H4.953V20.90962a.64215.64215,0,0,1,.67208-.72944c.3964,0,.59745.25856.59745.72373V22.432h.60316V20.90962a.6475.6475,0,0,1,.67208-.72944c.40767,0,.603.25856.603.72373V22.432Zm8.92624-2.74583h-.97644v-.833h-.603v.83305h-.55736v.54565h.55736V21.484c0,.63785.24685,1.01683.95347,1.01683a1.40157,1.40157,0,0,0,.74671-.21261l-.17253-.51112a1.10011,1.10011,0,0,1-.52808.15511c-.2988,0-.39655-.18394-.39655-.45947v-1.241h.97644v-.5455Zm5.09527-.06907a.80986.80986,0,0,0-.72373.40226v-.33319h-.5916V22.432h.59745V20.89235c0-.45361.19535-.70646.58589-.70646a.97483.97483,0,0,1,.37343.06892l.18394-.56293a1.28127,1.28127,0,0,0-.42538-.07477m-7.70311.28724a2.053,2.053,0,0,0-1.12-.28724c-.69506,0-1.143.33334-1.143.879,0,.44805.33319.72388.94776.80992l.28153.04024c.32733.04595.48244.132.48244.28724,0,.21247-.21817.333-.62628.333a1.463,1.463,0,0,1-.91308-.28709l-.28138.46532a1.98233,1.98233,0,0,0,1.18875.35616c.793,0,1.25242-.37328,1.25242-.89611,0-.48274-.36171-.73529-.95932-.82148l-.28139-.04009c-.25871-.03453-.46562-.08619-.46562-.27,0-.20106.19535-.32178.52283-.32178a1.7683,1.7683,0,0,1,.85572.23559Zm4.46913-.28724a1.44306,1.44306,0,0,0,.04024,2.88367,1.66808,1.66808,0,0,0,1.126-.385l-.293-.44205a1.307,1.307,0,0,1-.79836.28709.76268.76268,0,0,1-.82148-.67208h2.03906c.00571-.07462.01172-.1494.01172-.22973a1.317,1.317,0,0,0-1.30423-1.44191m-.01156.53424a.68188.68188,0,0,1,.69506.66638H18.75073a.70664.70664,0,0,1,.72929-.66638m-7.41.90767V19.68618h-.5973v.33319a1.04209,1.04209,0,0,0-.86743-.40226,1.44357,1.44357,0,0,0,0,2.88367,1.04159,1.04159,0,0,0,.86743-.40211V22.432H12.07Zm-2.223,0a.83147.83147,0,1,1,.83289.87884A.82362.82362,0,0,1,9.847,21.059m19.91513,0V19.68618h-.5973v.33319a1.04257,1.04257,0,0,0-.86758-.40226,1.44358,1.44358,0,0,0,0,2.88367,1.04166,1.04166,0,0,0,.86758-.40211V22.432h.59731V21.059Zm-2.223,0a.83154.83154,0,1,1,.83305.87884.82365.82365,0,0,1-.833-.87884m-3.88864-.00571v2.36655H24.248V22.093a1.04127,1.04127,0,0,0,.86728.40211,1.44357,1.44357,0,0,0,0-2.88368,1.04087,1.04087,0,0,0-.86728.40211v-.33319H23.6505Zm2.223,0a.83147.83147,0,1,1-.833-.87884.82383.82383,0,0,1,.83305.87884m6.84123-1.1431a2.05292,2.05292,0,0,0-1.12013-.28725c-.69506,0-1.14326.33319-1.14326.87885,0,.44805.33349.72373.94791.80992l.28153.04024c.32733.04609.48244.132.48244.28724,0,.21246-.21832.333-.626.333a1.46211,1.46211,0,0,1-.91338-.2871l-.28154.46533a1.98119,1.98119,0,0,0,1.18891.35616c.7928,0,1.25227-.37328,1.25227-.89611,0-.48259-.36172-.73515-.959-.82133L31.543,20.749c-.25856-.03454-.46532-.08619-.46532-.27,0-.201.19505-.32177.52268-.32177a1.76815,1.76815,0,0,1,.85556.23559l.25887-.48259Zm2.86626,0a2.05189,2.05189,0,0,0-1.12014-.28725c-.695,0-1.143.33319-1.143.87885,0,.44805.33319.72373.94777.80992l.28138.04024c.32763.04609.48274.132.48274.28724,0,.21246-.21832.333-.62614.333a1.46224,1.46224,0,0,1-.91322-.2871l-.28169.46533a1.98175,1.98175,0,0,0,1.18921.35616c.7925,0,1.25227-.37328,1.25227-.89611,0-.48259-.36187-.73515-.95948-.82133l-.28138-.04024c-.25842-.03454-.46533-.08619-.46533-.27,0-.201.1952-.32177.52254-.32177a1.76745,1.76745,0,0,1,.85587.23559Z"/>
    <g>
      <path d="M24.15634,2.58014A6.72646,6.72646,0,1,0,30.8828,9.3066a6.7264,6.7264,0,0,0-6.72646-6.72646" style="fill: #f79e1b"/>
      <path d="M15.84366,2.58014A6.72646,6.72646,0,1,0,22.57012,9.3066a6.7264,6.7264,0,0,0-6.72646-6.72646" style="fill: #eb001b"/>
      <path d="M22.57012,9.3066a6.71254,6.71254,0,0,0-2.57024-5.28651,6.72219,6.72219,0,0,0,0,10.573,6.71253,6.71253,0,0,0,2.57024-5.2865" style="fill: #ff5f00"/>
    </g>
  </g>
  <rect x="1.66094" y="6.93621" width="53.14975" height="9.25834" style="fill: none"/>
</svg>
