<svg id="Layer_1" data-name="Layer 1" xmlns="http://www.w3.org/2000/svg" viewBox="0 0 40 26">
  <title>mayors</title>
  <rect x="-0.07733" y="-0.10141" width="40.21448" height="26.23923" style="fill: #fff"/>
  <g>
    <path d="M27.45268,9.478h2.475s2.19145.01289,2.19145,1.52112a1.96346,1.96346,0,0,1-1.07639,1.52112s2.92622,5.44638,5.74932,3.487c0,0-.886,1.50139-3.86015.06188-.75829-.367-2.3286-2.81369-2.582-3.23769a.123.123,0,0,0-.10578-.05979h-.63876v-.23784h.51406a.4534.4534,0,0,0,.322-.13121,2.23065,2.23065,0,0,0,.73664-1.339c0-.72189-.7799-1.26975-1.87562-1.26975v4.5118s-.05157.8379,1.01838.8379V15.324H27.44624v-.18692a.83474.83474,0,0,0,.96681-.84435V10.419s.13535-.74767-.941-.74767Z" style="fill: #4d2e41"/>
    <path d="M36.81559,10.87419V9.41047h-.18112s.007.425-.57125.11843-2.76569-.60608-2.76569,1.37936,2.78659,1.30273,2.78659,2.97468S33.2,15.31106,33.2,13.54855l-.16719.007v1.22609a2.47806,2.47806,0,0,0,1.78341.64092,2.04446,2.04446,0,0,0,2.23623-1.76948c0-1.90185-2.84928-1.59532-2.84928-2.99558s2.44523-1.13553,2.44523.216Z" style="fill: #4d2e41"/>
    <path d="M24.11024,9.437a2.94159,2.94159,0,0,0-3.2215,3.06433c0,3.01435,3.03258,2.97865,3.3858,2.97865a2.922,2.922,0,0,0,3.03577-3.08579A2.85214,2.85214,0,0,0,24.11024,9.437Zm.16062,5.664c-.64912,0-2.36983.03154-2.36983-2.63185s1.91986-2.70756,2.25484-2.70756c.41,0,2.23982.03788,2.23982,2.6129S24.82,15.101,24.27086,15.101Z" style="fill: #4d2e41"/>
    <path d="M19.49585,9.44262V9.6374s1.178-.15767.45451,1.04819l-.94613,1.62331-1.141-1.93869s-.50091-.74206.436-.74206v-.167H15.8504v.18553s.3896-.12059.76063.40814,1.69748,2.83846,1.69748,2.83846v1.28008s.07422.82554-.64.82554-1.05744.05565-1.54906-.86265-1.79953-4.66582-1.79953-4.66582h-.65861s-1.39747,3.81162-2.06854,4.98119c-.16529.28813-.92247,1.218-1.30074-.271a26.33936,26.33936,0,0,1-.24835-3.82894s-.12056-.71427.78846-.71427V9.4519H9.32941l-2.217,4.15562L5.20161,9.44262h-1.679V9.6374s.93937-.16542.88122.94617c-.0619,1.1834.08822,4.5081-1.43775,4.5081l-.01857.21336H5.517V15.1195c-.87389-.21509-1.348.49437-.63075-4.15562l1.9572,4.2855s2.36784-4.359,2.36784-4.335c0,3.38029.31221,4.1958-.85586,4.1958v.17625h4.5545v-.17625s-1.41.31541-.22261-2.21692h1.985s1.345,2.22621-.32463,2.22621v.19478H20.275V15.101a.859.859,0,0,1-1.02964-.95542V12.6521s1.35431-3.024,2.421-3.024V9.44262Zm-6.64837,3.03346.81219-2.09521.8475,2.09521Z" style="fill: #4d2e41"/>
  </g>
</svg>

