<svg id="Layer_1" data-name="Layer 1" xmlns="http://www.w3.org/2000/svg" xmlns:xlink="http://www.w3.org/1999/xlink" viewBox="0 0 40 26">
  <defs>
    <mask id="mask" x="0.5808" y="1.42663" width="37.81295" height="24.06169" maskUnits="userSpaceOnUse">
      <g id="mask-2">
        <polygon id="path-1" points="0.581 25.488 38.394 25.488 38.394 1.427 0.581 1.427 0.581 25.488" style="fill: #fff"/>
      </g>
    </mask>
  </defs>
  <title>mc
</title>
  <g id="Page-1">
    <g id="mastercard-65x41">
      <rect y="0.00001" width="40" height="26"/>
      <g id="Page-1-2" data-name="Page-1">
        <g id="Group-8">
          <path id="Fill-2" d="M29.5694,22.39738a.67563.67563,0,0,1,.67034-.73334.73782.73782,0,0,1,0,1.46667.67563.67563,0,0,1-.67034-.73333Zm1.74076,0V20.44649H30.8784v1.13165a.84961.84961,0,0,0-.6973-.31693,1.13878,1.13878,0,0,0,0,2.27234.84962.84962,0,0,0,.6973-.31694v.26268h.43176V22.39738Zm-6.08155,0a.67559.67559,0,0,1,.67011-.73334.73779.73779,0,0,1,0,1.46667.67559.67559,0,0,1-.67011-.73333Zm1.74076,0V21.31546h-.43176v.26268a.84961.84961,0,0,0-.6973-.31693,1.13878,1.13878,0,0,0,0,2.27234.84962.84962,0,0,0,.6973-.31694v.26268h.43176V22.39738Zm1.6554-1.13617a.66333.66333,0,0,0-.58474.31693v-.26268h-.4275v2.16383h.432V22.26152c0-.35763.171-.58844.47669-.58844a.75868.75868,0,0,1,.29249.05426l.144-.40736a.99627.99627,0,0,0-.33292-.05877ZM12.02629,22.39738a.67559.67559,0,0,1,.67011-.73334.73779.73779,0,0,1,0,1.46667.67559.67559,0,0,1-.67011-.73333Zm1.74076,0V21.31546h-.432v.26268a.84915.84915,0,0,0-.69707-.31693,1.13878,1.13878,0,0,0,0,2.27234.84915.84915,0,0,0,.69707-.31694v.26268h.432V22.39738ZM19.5878,21.664a.54917.54917,0,0,1,.56678.54774H18.99407a.57643.57643,0,0,1,.59373-.54774Zm.009-.40283a1.04367,1.04367,0,0,0-1.06167,1.13165,1.06068,1.06068,0,0,0,1.09312,1.14069,1.30225,1.30225,0,0,0,.88172-.30337l-.22958-.32123a1.01994,1.01994,0,0,1-.62519.22628.63327.63327,0,0,1-.66112-.5613h1.60575c.00449-.05878.009-.11778.009-.18107a1.02425,1.02425,0,0,0-1.012-1.13165Zm3.0228,1.13617a1.07515,1.07515,0,0,0,1.12906,1.13617,1.12154,1.12154,0,0,0,.77368-.25794l-.22487-.33954a.94249.94249,0,0,1-.56229.19464.73676.73676,0,0,1,0-1.46667.941.941,0,0,1,.56229.19464l.22487-.33954a1.12153,1.12153,0,0,0-.77368-.25793,1.07514,1.07514,0,0,0-1.12906,1.13617Zm-6.52253-.90989a1.59971,1.59971,0,0,0-.87724-.22628c-.54408,0-.877.25793-.877.68812,0,.35288.24284.56582.72426.63364l.22037.03165c.25632.03617.39582.12682.39582.24889,0,.16751-.18892.27624-.50836.27624a1.11178,1.11178,0,0,1-.715-.22628l-.22061.33954a1.59755,1.59755,0,0,0,.93115.28054c.62092,0,.9626-.28958.9626-.70169,0-.38023-.26081-.57487-.73324-.64268l-.22037-.03165c-.20241-.02713-.38234-.09065-.38234-.23533,0-.15847.17095-.2672.42749-.2672a1.38054,1.38054,0,0,1,.67012.18559l.2024-.3531Zm6.03214-.22628a.66361.66361,0,0,0-.58475.31693v-.26268h-.42727v2.16383h.43176V22.26152c0-.35763.17095-.58844.47692-.58844a.7583.7583,0,0,1,.29226.05426l.144-.40736a.99439.99439,0,0,0-.33292-.05877Zm-3.9899.05425h-.78266v-.65625h-.43626v.65625h-.45446v.39379h.45446v1.02314c0,.50231.17544.80116.72852.80116a1.09369,1.09369,0,0,0,.585-.16751l-.135-.38475a.861.861,0,0,1-.41379.12229c-.23408,0-.32843-.1449-.32843-.36214V21.70925h.78266v-.39379Zm-7.00822,2.16383V22.11661a.78568.78568,0,0,0-.82781-.8554.83091.83091,0,0,0-.7557.38475.78873.78873,0,0,0-.71078-.38475.73355.73355,0,0,0-.64764.31693v-.26268H7.75738v2.16383h.43626V22.23891A.51735.51735,0,0,1,8.738,21.664c.31046,0,.48568.20368.48568.57035v1.2449h.43648V22.23891a.52168.52168,0,0,1,.54432-.57487c.31944,0,.49017.20368.49017.57035v1.2449Z" style="fill: #fff"/>
          <g style="mask: url(#mask)">
            <polygon id="Fill-4" points="15.595 17.646 23.38 17.646 23.38 4.85 15.595 4.85 15.595 17.646" style="fill: #f06022"/>
          </g>
          <g style="mask: url(#mask)">
            <path id="Fill-6" d="M16.39844,11.24823a8.14246,8.14246,0,0,1,3.08885-6.39815,8.02,8.02,0,0,0-4.99787-1.74,8.13828,8.13828,0,0,0,0,16.27623,8.01991,8.01991,0,0,0,4.99787-1.74,8.14246,8.14246,0,0,1-3.08885-6.39814" style="fill: #ea1d25"/>
          </g>
          <g style="mask: url(#mask)">
            <path id="Fill-7" d="M32.57167,11.24823a8.1124,8.1124,0,0,1-8.0865,8.13811,8.01947,8.01947,0,0,1-4.99788-1.74,8.17086,8.17086,0,0,0,0-12.79629,8.01953,8.01953,0,0,1,4.99788-1.74,8.11241,8.11241,0,0,1,8.0865,8.13812" style="fill: #f79d1d"/>
          </g>
        </g>
      </g>
    </g>
  </g>
</svg>
