<svg id="Layer_1" data-name="Layer 1" xmlns="http://www.w3.org/2000/svg" xmlns:xlink="http://www.w3.org/1999/xlink" viewBox="0 0 40 26">
  <defs>
    <mask id="mask" x="14.82606" y="-1.71348" width="33.33191" height="20.15418" maskUnits="userSpaceOnUse">
      <g id="mask-2">
        <path id="path-1" d="M16.87725-1.71348H46.10677A2.01008,2.01008,0,0,1,48.158.25278V16.47444a2.01007,2.01007,0,0,1-2.0512,1.96626H16.87725a2.01007,2.01007,0,0,1-2.05119-1.96626V.25278A2.01008,2.01008,0,0,1,16.87725-1.71348Z" style="fill: #fff"/>
      </g>
    </mask>
    <mask id="mask-2-2" x="24.56923" y="1.72748" width="13.84556" height="13.27226" maskUnits="userSpaceOnUse">
      <g id="mask-4">
        <polygon id="path-3" points="24.57 15 38.415 15 38.415 1.728 24.57 1.728 24.57 15" style="fill: #fff"/>
      </g>
    </mask>
    <clipPath id="clip-path">
      <polygon points="0 0 40 26 0 26 0 0" style="fill: none"/>
    </clipPath>
    <mask id="mask-4-3" x="-0.20234" y="11.90588" width="19.37914" height="12.33162" maskUnits="userSpaceOnUse">
      <g id="mask-2-3" data-name="mask-2">
        <polygon id="path-1-2" data-name="path-1" points="-0.202 24.238 19.177 24.238 19.177 11.906 -0.202 11.906 -0.202 24.238" style="fill: #fff"/>
      </g>
    </mask>
  </defs>
  <title>Illustration CMYK - mc_androidpay</title>
  <g id="Page-1">
    <g id="android-pay-65x41">
      <rect y="-0.00026" width="40" height="26" style="fill: #767576"/>
    </g>
  </g>
  <g style="mask: url(#mask)">
    <g id="android_pay_logo_rgb_fc_light-_3_" data-name="android_pay_logo_rgb_fc_light-(3)">
      <g>
        <g id="Group-4">
          <g style="mask: url(#mask-2-2)">
            <path id="Fill-1" d="M38.41479,8.36361a6.929,6.929,0,0,0-13.84556,0,6.929,6.929,0,0,0,13.84556,0" style="fill: #fff"/>
          </g>
          <g style="mask: url(#mask-2-2)">
            <path id="Fill-3" d="M31.492,1.72748a6.784,6.784,0,0,0-6.92278,6.63613,6.929,6.929,0,0,0,13.84556,0A6.784,6.784,0,0,0,31.492,1.72748Zm0,.213A6.80516,6.80516,0,0,1,36.23,3.82179a6.23659,6.23659,0,0,1,0,9.08366,6.90683,6.90683,0,0,1-9.476,0,6.23672,6.23672,0,0,1,0-9.08366A6.80518,6.80518,0,0,1,31.492,1.9405Z" style="fill: #c6c5c4"/>
          </g>
        </g>
        <path id="Fill-5" d="M30.0849,5.62254h-.01564v1.988a.30921.30921,0,0,0,.31462.30158h.27127v.6929a.31489.31489,0,0,0,.62921,0v-.6929h.42388v.6929a.3149.3149,0,0,0,.62923,0v-.6929h.26438a.30921.30921,0,0,0,.3146-.30158v-1.988Zm.62669-.71625a.13383.13383,0,1,0,.1337-.12817.131.131,0,0,0-.1337.12817Zm1.29514,0a.13382.13382,0,1,0,.13372-.12817.131.131,0,0,0-.13372.12817ZM30.0728,5.517l-.0009-.04134a1.04843,1.04843,0,0,1,.03506-.269,1.25224,1.25224,0,0,1,.67384-.782l-.21833-.3861a.048.048,0,0,1,.02058-.06644.05222.05222,0,0,1,.06929.01973l.22092.39066a1.64838,1.64838,0,0,1,1.24017-.0017l.21993-.389a.05226.05226,0,0,1,.06932-.01973.048.048,0,0,1,.02058.06644l-.2172.38407a1.24292,1.24292,0,0,1,.68836.82718,1.04486,1.04486,0,0,1,.01941.12187V5.517Zm3.58391.35437a.31489.31489,0,0,0-.62921,0V7.13809a.31489.31489,0,0,0,.62921,0V5.87135Zm-3.70016,0V7.13809a.3149.3149,0,0,1-.62923,0V5.87135a.3149.3149,0,0,1,.62923,0Z" style="fill: #78c159"/>
        <path id="Fill-6" d="M35.60009,9.573h-.406l-.88171,2.02434h.18018l-.8793-2.022h-.418l.997,2.21779-.07927.17272a.45356.45356,0,0,1-.418.27406h-.13214v.34775h.12734a.82674.82674,0,0,0,.79281-.5343L35.60009,9.573Zm-2.6211,2.3053v-2.303h-.36036v.26254A1.13869,1.13869,0,0,0,31.821,9.5292a1.19792,1.19792,0,1,0,0,2.39511,1.14886,1.14886,0,0,0,.79762-.30861v.26255Zm-1.13156-.29018a.86316.86316,0,1,1,.74717-1.34956.14267.14267,0,0,1,.024.076v.81756a.13444.13444,0,0,1-.02644.0783.90607.90607,0,0,1-.74476.37769Zm-3.522.98107V11.6157a1.14028,1.14028,0,0,0,.79762.31092,1.19905,1.19905,0,1,0,0-2.39742,1.14887,1.14887,0,0,0-.79762.30859V9.57525H27.965v2.99389Zm.77118-.97876a.88726.88726,0,0,1-.74717-.3754.12447.12447,0,0,1-.024-.076v-.82678a.13232.13232,0,0,1,.02642-.076.90027.90027,0,0,1,.74476-.3708.86287.86287,0,1,1,0,1.725Z" style="fill: #767576"/>
      </g>
    </g>
  </g>
  <g style="clip-path: url(#clip-path)">
    <g id="direct-debit--65x41">
      <rect id="Rectangle" y="-0.00026" width="40" height="26"/>
    </g>
    <g id="Page-1-2" data-name="Page-1">
      <g id="mastercard-65x41">
        <rect x="-0.5" y="11.17474" width="20.5" height="13.325"/>
        <g id="Page-1-3" data-name="Page-1">
          <g id="Group-8">
            <path id="Fill-2" d="M14.65432,22.65339a.34625.34625,0,0,1,.34354-.37583.37813.37813,0,0,1,0,.75167.34626.34626,0,0,1-.34354-.37584Zm.89214,0v-.99983h-.22128v.58a.43544.43544,0,0,0-.35736-.16243.58363.58363,0,0,0,0,1.16458.43544.43544,0,0,0,.35736-.16243v.13462h.22128v-.55448Zm-3.1168,0a.34623.34623,0,0,1,.34343-.37583.37812.37812,0,0,1,0,.75167.34624.34624,0,0,1-.34343-.37584Zm.89214,0v-.55448h-.22128v.13462a.43542.43542,0,0,0-.35736-.16243.58363.58363,0,0,0,0,1.16458.43542.43542,0,0,0,.35736-.16243v.13462h.22128v-.55448Zm.8484-.58229a.34.34,0,0,0-.29969.16243v-.13462h-.21909v1.109h.22139v-.62411c0-.18328.08762-.30157.24431-.30157a.38871.38871,0,0,1,.1499.02781l.0738-.20877a.51048.51048,0,0,0-.17062-.03013Zm-8.50673.58229a.34624.34624,0,0,1,.34344-.37583.37812.37812,0,0,1,0,.75167.34625.34625,0,0,1-.34344-.37584Zm.89214,0v-.55448H6.33422v.13462A.43521.43521,0,0,0,5.977,22.0711a.58363.58363,0,0,0,0,1.16458.43521.43521,0,0,0,.35725-.16243v.13462h.22139v-.55448Zm2.98314-.37583a.28144.28144,0,0,1,.29047.28071H9.23446a.29542.29542,0,0,1,.30429-.28071Zm.0046-.20646a.53488.53488,0,0,0-.5441.58.54359.54359,0,0,0,.56022.58461.66745.66745,0,0,0,.45189-.15548l-.11767-.16463a.52271.52271,0,0,1-.3204.116.32455.32455,0,0,1-.33883-.28767h.823c.0023-.03012.0046-.06036.0046-.0928a.52492.52492,0,0,0-.51866-.58Zm1.54919.58229a.551.551,0,0,0,.57864.58229.57483.57483,0,0,0,.39651-.13219l-.11524-.174a.48306.48306,0,0,1-.28817.09976.37759.37759,0,0,1,0-.75167.48226.48226,0,0,1,.28817.09975l.11524-.174a.57483.57483,0,0,0-.39651-.13219.551.551,0,0,0-.57864.58229Zm-3.3428-.46632a.81979.81979,0,0,0-.44958-.116c-.27884,0-.44947.13219-.44947.35267,0,.18085.12446.29.37118.32474l.11294.01622c.13137.01853.20286.065.20286.12755,0,.08585-.09682.14158-.26054.14158a.56977.56977,0,0,1-.36645-.116l-.11306.174a.81869.81869,0,0,0,.47721.14378c.31822,0,.49333-.14841.49333-.35962,0-.19486-.13366-.29462-.37578-.32937l-.11294-.01622c-.10374-.0139-.19595-.04646-.19595-.12061,0-.08121.08761-.13694.21909-.13694A.70747.70747,0,0,1,7.646,22.368l.10373-.181Zm3.09147-.116a.34011.34011,0,0,0-.29968.16243v-.13462h-.219v1.109h.22128v-.62411c0-.18328.08762-.30157.24442-.30157A.38854.38854,0,0,1,10.938,22.31l.0738-.20877a.50951.50951,0,0,0-.17063-.03013Zm-2.04482.02781H8.39528v-.33633H8.17169v.33633h-.2329v.20182h.2329v.52436c0,.25743.08992.41059.37337.41059a.5605.5605,0,0,0,.2998-.08585l-.06919-.19719a.44128.44128,0,0,1-.21207.06268c-.12,0-.16832-.07426-.16832-.1856v-.529h.40111v-.20182Zm-3.59171,1.109V22.5095a.40267.40267,0,0,0-.42425-.4384.42587.42587,0,0,0-.3873.19719.40423.40423,0,0,0-.36427-.19719.376.376,0,0,0-.33192.16243v-.13462H3.47566v1.109h.22358v-.63569a.26514.26514,0,0,1,.279-.29462c.15911,0,.24891.10438.24891.2923v.638h.2237v-.63569a.26736.26736,0,0,1,.279-.29462c.16371,0,.25121.10438.25121.2923v.638Z" style="fill: #fff"/>
            <g style="mask: url(#mask-4-3)">
              <polygon id="Fill-4" points="7.492 20.218 11.482 20.218 11.482 13.66 7.492 13.66 7.492 20.218" style="fill: #f06022"/>
            </g>
            <g style="mask: url(#mask-4-3)">
              <path id="Fill-6-2" data-name="Fill-6" d="M7.9042,16.93945a4.173,4.173,0,0,1,1.583-3.27905,4.11026,4.11026,0,0,0-2.56141-.89173,4.17087,4.17087,0,0,0,0,8.34157,4.11021,4.11021,0,0,0,2.56141-.89174,4.173,4.173,0,0,1-1.583-3.279" style="fill: #ea1d25"/>
            </g>
            <g style="mask: url(#mask-4-3)">
              <path id="Fill-7" d="M16.193,16.93945a4.15761,4.15761,0,0,1-4.14433,4.17079,4.11,4.11,0,0,1-2.56141-.89174,4.18757,4.18757,0,0,0,0-6.5581,4.11,4.11,0,0,1,2.56141-.89173A4.1576,4.1576,0,0,1,16.193,16.93945" style="fill: #f79d1d"/>
            </g>
          </g>
        </g>
      </g>
    </g>
  </g>
</svg>
