<svg id="Layer_1" data-name="Layer 1" xmlns="http://www.w3.org/2000/svg" xmlns:xlink="http://www.w3.org/1999/xlink" viewBox="0 0 40 26">
  <defs>
    <clipPath id="clip-path">
      <polygon points="0 0 40 26 0 26 0 0" style="fill: none"/>
    </clipPath>
    <mask id="mask" x="-0.20234" y="11.90588" width="19.37914" height="12.33162" maskUnits="userSpaceOnUse">
      <g id="mask-2">
        <polygon id="path-1" points="-0.202 24.238 19.177 24.238 19.177 11.906 -0.202 11.906 -0.202 24.238" style="fill: #fff"/>
      </g>
    </mask>
    <mask id="mask-4" x="21.37878" y="-6.09286" width="47.81995" height="30.16335" maskUnits="userSpaceOnUse">
      <g id="mask-6">
        <rect id="path-5" x="21.37878" y="-6.09286" width="47.81995" height="30.16335" rx="2.94277" ry="2.94277" style="fill: #fff"/>
      </g>
    </mask>
  </defs>
  <title>Illustration CMYK - mc_applepay</title>
  <g id="Page-1">
    <g id="android-pay-65x41">
      <rect y="-0.00026" width="40" height="26" style="fill: #fff"/>
    </g>
  </g>
  <g style="clip-path: url(#clip-path)">
    <g id="direct-debit--65x41">
      <rect id="Rectangle" x="6.45304" y="-7.39582" width="25.99148" height="41.10001" transform="translate(6.14441 32.50055) rotate(-89.55641)"/>
    </g>
    <g id="Page-1-2" data-name="Page-1">
      <g id="mastercard-65x41">
        <rect x="-0.5" y="11.17474" width="20.5" height="13.325"/>
        <g id="Page-1-3" data-name="Page-1">
          <g id="Group-8">
            <path id="Fill-2" d="M14.65432,22.65339a.34625.34625,0,0,1,.34354-.37583.37813.37813,0,0,1,0,.75167.34626.34626,0,0,1-.34354-.37584Zm.89214,0v-.99983h-.22128v.58a.43544.43544,0,0,0-.35736-.16243.58363.58363,0,0,0,0,1.16458.43544.43544,0,0,0,.35736-.16243v.13462h.22128v-.55448Zm-3.1168,0a.34623.34623,0,0,1,.34343-.37583.37812.37812,0,0,1,0,.75167.34624.34624,0,0,1-.34343-.37584Zm.89214,0v-.55448h-.22128v.13462a.43542.43542,0,0,0-.35736-.16243.58363.58363,0,0,0,0,1.16458.43542.43542,0,0,0,.35736-.16243v.13462h.22128v-.55448Zm.8484-.58229a.34.34,0,0,0-.29969.16243v-.13462h-.21909v1.109h.22139v-.62411c0-.18328.08762-.30157.24431-.30157a.38871.38871,0,0,1,.1499.02781l.0738-.20877a.51048.51048,0,0,0-.17062-.03013Zm-8.50673.58229a.34624.34624,0,0,1,.34344-.37583.37812.37812,0,0,1,0,.75167.34625.34625,0,0,1-.34344-.37584Zm.89214,0v-.55448H6.33422v.13462A.43521.43521,0,0,0,5.977,22.0711a.58363.58363,0,0,0,0,1.16458.43521.43521,0,0,0,.35725-.16243v.13462h.22139v-.55448Zm2.98314-.37583a.28144.28144,0,0,1,.29047.28071H9.23446a.29542.29542,0,0,1,.30429-.28071Zm.0046-.20646a.53488.53488,0,0,0-.5441.58.54359.54359,0,0,0,.56022.58461.66745.66745,0,0,0,.45189-.15548l-.11767-.16463a.52271.52271,0,0,1-.3204.116.32455.32455,0,0,1-.33883-.28767h.823c.0023-.03012.0046-.06036.0046-.0928a.52492.52492,0,0,0-.51866-.58Zm1.54919.58229a.551.551,0,0,0,.57864.58229.57483.57483,0,0,0,.39651-.13219l-.11524-.174a.48306.48306,0,0,1-.28817.09976.37759.37759,0,0,1,0-.75167.48226.48226,0,0,1,.28817.09975l.11524-.174a.57483.57483,0,0,0-.39651-.13219.551.551,0,0,0-.57864.58229Zm-3.3428-.46632a.81979.81979,0,0,0-.44958-.116c-.27884,0-.44947.13219-.44947.35267,0,.18085.12446.29.37118.32474l.11294.01622c.13137.01853.20286.065.20286.12755,0,.08585-.09682.14158-.26054.14158a.56977.56977,0,0,1-.36645-.116l-.11306.174a.81869.81869,0,0,0,.47721.14378c.31822,0,.49333-.14841.49333-.35962,0-.19486-.13366-.29462-.37578-.32937l-.11294-.01622c-.10374-.0139-.19595-.04646-.19595-.12061,0-.08121.08761-.13694.21909-.13694A.70747.70747,0,0,1,7.646,22.368l.10373-.181Zm3.09147-.116a.34011.34011,0,0,0-.29968.16243v-.13462h-.219v1.109h.22128v-.62411c0-.18328.08762-.30157.24442-.30157A.38854.38854,0,0,1,10.938,22.31l.0738-.20877a.50951.50951,0,0,0-.17063-.03013Zm-2.04482.02781H8.39528v-.33633H8.17169v.33633h-.2329v.20182h.2329v.52436c0,.25743.08992.41059.37337.41059a.5605.5605,0,0,0,.2998-.08585l-.06919-.19719a.44128.44128,0,0,1-.21207.06268c-.12,0-.16832-.07426-.16832-.1856v-.529h.40111v-.20182Zm-3.59171,1.109V22.5095a.40267.40267,0,0,0-.42425-.4384.42587.42587,0,0,0-.3873.19719.40423.40423,0,0,0-.36427-.19719.376.376,0,0,0-.33192.16243v-.13462H3.47566v1.109h.22358v-.63569a.26514.26514,0,0,1,.279-.29462c.15911,0,.24891.10438.24891.2923v.638h.2237v-.63569a.26736.26736,0,0,1,.279-.29462c.16371,0,.25121.10438.25121.2923v.638Z" style="fill: #fff"/>
            <g style="mask: url(#mask)">
              <polygon id="Fill-4" points="7.492 20.218 11.482 20.218 11.482 13.66 7.492 13.66 7.492 20.218" style="fill: #f06022"/>
            </g>
            <g style="mask: url(#mask)">
              <path id="Fill-6" d="M7.9042,16.93945a4.173,4.173,0,0,1,1.583-3.27905,4.11026,4.11026,0,0,0-2.56141-.89173,4.17087,4.17087,0,0,0,0,8.34157,4.11021,4.11021,0,0,0,2.56141-.89174,4.173,4.173,0,0,1-1.583-3.279" style="fill: #ea1d25"/>
            </g>
            <g style="mask: url(#mask)">
              <path id="Fill-7" d="M16.193,16.93945a4.15761,4.15761,0,0,1-4.14433,4.17079,4.11,4.11,0,0,1-2.56141-.89174,4.18757,4.18757,0,0,0,0-6.5581,4.11,4.11,0,0,1,2.56141-.89173A4.1576,4.1576,0,0,1,16.193,16.93945" style="fill: #f79d1d"/>
            </g>
          </g>
        </g>
      </g>
    </g>
  </g>
  <g id="Page-1-Clipped">
    <g style="mask: url(#mask-4)">
      <g id="Apple_Pay_logo" data-name="Apple Pay logo">
        <g id="_Group_" data-name="&lt;Group&gt;">
          <path d="M34.45239,3.89672a2.15728,2.15728,0,0,1-1.73827.833,2.51873,2.51873,0,0,1,.62081-1.827,2.58044,2.58044,0,0,1,1.72447-.903,2.68358,2.68358,0,0,1-.607,1.897Zm.60011.966c-.9588-.056-1.77965.553-2.23491.553-.46216,0-1.15885-.525-1.91762-.511a2.828,2.828,0,0,0-2.40737,1.484c-1.03468,1.806-.269,4.47995.73118,5.94993.48975.728,1.07607,1.526,1.84864,1.498.73117-.028,1.02089-.483,1.90382-.483.88983,0,1.14505.483,1.91761.469.80016-.014,1.3037-.728,1.79346-1.456a6.42857,6.42857,0,0,0,.80015-1.673,2.63225,2.63225,0,0,1-1.55892-2.401,2.69629,2.69629,0,0,1,1.26231-2.254,2.72046,2.72046,0,0,0-2.13835-1.176Z"/>
        </g>
      </g>
    </g>
  </g>
</svg>
