<svg id="Layer_1" data-name="Layer 1" xmlns="http://www.w3.org/2000/svg" viewBox="0 0 40 26">
  <title>ministop</title>
  <g id="Page-1">
    <g id="ministop-65x41">
      <rect y="0.00001" width="40" height="25.99999" style="fill: #f2ea40"/>
      <g id="Page-1-2" data-name="Page-1">
        <path id="Fill-1" d="M18.6003,11.0038h.00107c0,.49-.00858.98045.00214,1.47041a1.03323,1.03323,0,0,0,.97831,1.02494,1.01594,1.01594,0,0,0,1.0287-.98742c.0193-1.00565.022-2.0129,0-3.01855a1.0093,1.0093,0,0,0-1.28118-.95579,1.069,1.069,0,0,0-.72743,1.011c-.00644.48514-.00161.97027-.00161,1.45541m7.12369-.01287h.00107c0,.49049-.008.98045.00215,1.471a1.00595,1.00595,0,1,0,2.01129.01608c.0134-.98528.01662-1.97109-.00053-2.95637a1.01612,1.01612,0,0,0-1.28708-.98367,1.07089,1.07089,0,0,0-.72529,1.0287c-.00536.47495-.00161.94936-.00161,1.42431m-9.27651,5.80391c0,.25785-.00214.51623.00054.77407a4.46537,4.46537,0,0,0,.01823.63363,1.05391,1.05391,0,0,0,.90379.88825,1.01147,1.01147,0,0,0,1.0228-.67276,1.27782,1.27782,0,0,0,.07881-.46959c0-.77407.00375-1.54813-.00322-2.3222-.00107-.13509.01662-.20585.17261-.20585a.58451.58451,0,0,0,.37256-.1694.85083.85083,0,0,0,.17851-.89093.67094.67094,0,0,0-.6556-.45189c-.21121-.0059-.423-.00161-.6347-.00161-.54195,0-1.08337-.00215-1.62533.00107a.68017.68017,0,0,0-.72314.52855c-.12651.62666.21925,1.025.76281.99547.11418-.00644.13509.037.13348.14044-.00536.40741-.00215.81535-.00215,1.22275m-2.50125-2.90973a2.997,2.997,0,0,0-.53445.03914A1.57055,1.57055,0,0,0,12.07324,15.206a1.489,1.489,0,0,0,.9054,1.63176c.21228.10453.43528.18655.654.27714a1.32992,1.32992,0,0,1,.3018.15546.14573.14573,0,0,1-.0327.27339.63314.63314,0,0,1-.164.0402,1.17657,1.17657,0,0,1-.71671-.14312c-.0997-.05361-.19512-.11686-.29751-.164a.50364.50364,0,0,0-.66418.18655.91152.91152,0,0,0,.33933,1.23187,2.58708,2.58708,0,0,0,2.029.14795,1.53584,1.53584,0,0,0,1.10214-1.43879,1.45092,1.45092,0,0,0-.93006-1.45111c-.22783-.10828-.46477-.1962-.698-.29269a1.06673,1.06673,0,0,1-.28411-.15492c-.10561-.089-.08792-.18333.04342-.22889a.58407.58407,0,0,1,.13669-.02359,1.17751,1.17751,0,0,1,.71671.201.5017.5017,0,0,0,.70975-.13294.88735.88735,0,0,0-.27875-1.17933,2.1183,2.1183,0,0,0-.99922-.25678m10.43118,2.15711c0,.27875-.00268.5575.00107.83625.00483.423-.02841.84751.01555,1.26885a1.02808,1.02808,0,0,0,.99224.94668,1.03884,1.03884,0,0,0,1.003-.93756,4.10922,4.10922,0,0,0,.01019-.61862c-.00215-.1115.03538-.1383.141-.13562a2.48444,2.48444,0,0,0,.72261-.05253,1.74986,1.74986,0,0,0-.47281-3.44043c-.75852-.01019-1.51758-.00054-2.27664-.00483-.10828-.00053-.13938.03163-.1383.13991.00482.66579.00214,1.33211.00214,1.9979m-2.89686,3.16543A2.65,2.65,0,1,0,18.826,16.566a2.64513,2.64513,0,0,0,2.65457,2.6417m1.49292-6.88836a.17981.17981,0,0,1,.0386.02841c.208.29536.51408.50228.71778.80409a.82579.82579,0,0,0,.454.30769,1.01724,1.01724,0,0,0,1.2903-.99707c.01662-.97563.0134-1.95179.00053-2.928a1.04291,1.04291,0,0,0-.90969-1.033,1.01972,1.01972,0,0,0-1.0823.83893,3.3116,3.3116,0,0,0-.03645.34951c-.25839-.28786-.49-.57036-.74352-.83357a1.00878,1.00878,0,0,0-.69634-.35648A1.02742,1.02742,0,0,0,20.94127,9.55c-.015.96491-.01287,1.93089-.00054,2.89633a1.045,1.045,0,0,0,.89308,1.048,1.01388,1.01388,0,0,0,1.0957-.81964,3.31639,3.31639,0,0,0,.044-.3554m-6.79509-.80249c0,.31735.00107.58913,0,.86092a1.22783,1.22783,0,0,0,.05414.39668,1.00943,1.00943,0,0,0,1.09464.71725,1.0481,1.0481,0,0,0,.86734-1.02334q.01689-1.47068,0-2.94243a1.06126,1.06126,0,0,0-.706-.98153.97258.97258,0,0,0-1.04907.30717c-.30073.33986-.6111.67168-.91237,1.01154-.06486.07344-.09756.074-.1635,0-.29537-.33075-.60038-.654-.89736-.98367a.96635.96635,0,0,0-1.0807-.33075,1.0576,1.0576,0,0,0-.6958.97188q-.01206,1.47872,0,2.958a1.01706,1.01706,0,0,0,.38918.795.90181.90181,0,0,0,.98527.15063,1.01782,1.01782,0,0,0,.63416-.91719c.02037-.28251.00429-.56769.008-.8518,0-.03485-.02734-.08148.029-.1115.21335.25194.42992.50121.63845.75638.06057.07451.08845.06754.14581-.00215.20531-.25087.41759-.49639.65881-.781m-7.42228.06755c.04021-.04825.05254-.06433.06648-.0788q2.92848-3.04026,5.85484-6.08267c.07933-.08255.11364-.05468.17743.00751.61915.60735,1.24205,1.21149,1.86174,1.81831a.60221.60221,0,0,0,.57733.18494.57294.57294,0,0,0,.45351-.4192.58951.58951,0,0,0-.17208-.62183Q16.3829,5.2299,15.19043,4.06772a.60244.60244,0,0,0-.91667.03217q-3.67629,3.81459-7.35151,7.62973a.61275.61275,0,0,0,.45993,1.06783c.439-.00214.87807-.00107,1.3171,0,.223.00054.1962-.02573.1962.19888q.00081,3.62482,0,7.2502a.72831.72831,0,0,0,.09113.41652.662.662,0,0,0,.61218.28947q6.22767-.00241,12.45534-.00107c2.68566,0,5.37078-.00536,8.0559.00536a.66786.66786,0,0,0,.74351-.75048c-.02412-.45833-.00268-.91881-.0075-1.37875a.12914.12914,0,0,1,.10882-.15063c.19191-.05843.38328-.12222.56876-.19888a3.37342,3.37342,0,0,0,2.32489-3.50851,3.13609,3.13609,0,0,0-2.03274-2.91884.18718.18718,0,0,1-.134-.20424,7.09313,7.09313,0,0,0-.18709-1.61139,3.6417,3.6417,0,0,0-2.497-2.80949.16083.16083,0,0,1-.11579-.141,5.99082,5.99082,0,0,0-.9231-2.06276,3.235,3.235,0,0,0-2.854-1.44843,5.54062,5.54062,0,0,0-2.59131.8459.58147.58147,0,0,0-.26749.62826.60174.60174,0,0,0,.89361.40312A6.05016,6.05016,0,0,1,24.505,5.07927a2.15831,2.15831,0,0,1,2.58274,1.01529,5.06744,5.06744,0,0,1,.68615,1.79527.63559.63559,0,0,0,.58806.61486,2.38976,2.38976,0,0,1,1.8226,1.57547,4.1011,4.1011,0,0,1,.16457.57949,7.81982,7.81982,0,0,1,.13455,1.54009.85976.85976,0,0,0,.66525.8904,2.4239,2.4239,0,0,1,.75477.38489,1.9822,1.9822,0,0,1,.72368,1.41948,2.07477,2.07477,0,0,1-1.02226,2.186,4.043,4.043,0,0,1-1.40769.53553.61515.61515,0,0,0-.55858.66417c-.00107.42349-.00857.847.00376,1.26993.00482.15814-.0386.193-.19406.193Q19.87424,19.73674,10.3,19.74264c-.1501.00053-.19727-.02681-.19674-.18977q.00885-3.64092.00375-7.28129a.61679.61679,0,0,0-.68883-.68723c-.2096-.00054-.4192,0-.662,0M19.87344,21.75768q-5.143,0-10.287,0a1.40937,1.40937,0,0,1-1.49721-1.49185q-.00081-3.23807.00321-6.47613c.00054-.149-.03591-.19406-.18708-.1887a4.46555,4.46555,0,0,1-.743-.00911,1.41231,1.41231,0,0,1-.85019-2.38922Q7.9823,9.45539,9.66419,7.7199q2.02068-2.09707,4.04189-4.1936a1.40353,1.40353,0,0,1,2.06919-.01554q.833.83223,1.65856,1.67143a.297.297,0,0,0,.2423.09971Q19.581,5.228,21.48537,5.18219c.11686-.00268.15492-.03.08577-.13616a.52629.52629,0,0,1,.0252-.59556,1.38521,1.38521,0,0,1,.50872-.53016,6.81807,6.81807,0,0,1,2.46855-.90755,4.03217,4.03217,0,0,1,3.94968,1.61568,6.26,6.26,0,0,1,1.01852,2.021.21736.21736,0,0,0,.12222.163,4.45173,4.45173,0,0,1,2.60846,3.19759,6.98591,6.98591,0,0,1,.1962,1.31495.21808.21808,0,0,0,.12758.20424,3.84608,3.84608,0,0,1,2.0306,3.107,4.21247,4.21247,0,0,1-.40527,2.5286,4.45147,4.45147,0,0,1-2.0917,1.92874,3.92448,3.92448,0,0,1-.36881.15974.1401.1401,0,0,0-.10614.15975c.00483.29912.00268.59878.00161.89843a1.406,1.406,0,0,1-1.4495,1.44629q-5.16627.00081-10.33362,0" style="fill: #fefefe"/>
        <path id="Fill-3" d="M8.75584,11.58408c.24337,0,.453-.00054.662,0a.61718.61718,0,0,1,.68937.68723q0,3.64091-.00429,7.28129c-.00053.163.04664.1903.19727.1903q9.57429-.00563,19.14805.00054c.156,0,.19887-.03484.19458-.193-.01233-.42349-.00536-.847-.00428-1.27046a.61465.61465,0,0,1,.55857-.66364,4.04314,4.04314,0,0,0,1.40823-.53606,2.0733,2.0733,0,0,0,1.02173-2.18605,1.98032,1.98032,0,0,0-.72368-1.41949,2.41678,2.41678,0,0,0-.75478-.38435A.85975.85975,0,0,1,30.4834,12.2a7.77323,7.77323,0,0,0-.134-1.5401,4.064,4.064,0,0,0-.1651-.57948,2.38881,2.38881,0,0,0-1.82261-1.57548.6361.6361,0,0,1-.58806-.61539A5.05612,5.05612,0,0,0,27.088,6.0943,2.15916,2.15916,0,0,0,24.50526,5.079a6.04575,6.04575,0,0,0-1.36588.572.60244.60244,0,0,1-.89361-.40365.58059.58059,0,0,1,.268-.62772,5.54338,5.54338,0,0,1,2.59078-.84644,3.23576,3.23576,0,0,1,2.85451,1.449,5.9951,5.9951,0,0,1,.92256,2.06275c.01823.06916.03592.11418.11579.14045a3.643,3.643,0,0,1,2.4975,2.81,7.15108,7.15108,0,0,1,.18709,1.6114.18652.18652,0,0,0,.13347.2037,3.13636,3.13636,0,0,1,2.03328,2.91884,3.37354,3.37354,0,0,1-2.32543,3.50851c-.18548.07666-.37685.14045-.56876.19942a.12815.12815,0,0,0-.10828.15063c.00482.4594-.01662.91988.007,1.37821a.66726.66726,0,0,1-.743.75048c-2.68512-.01018-5.37078-.00536-8.0559-.00536q-6.22767,0-12.45588.00161a.661.661,0,0,1-.61164-.29.726.726,0,0,1-.09167-.416q.00081-3.62564,0-7.25074c0-.22461.0268-.19834-.1962-.19888q-.65854-.00161-1.31656.00054A.61311.61311,0,0,1,6.922,11.72989q3.67629-3.8146,7.35205-7.63027a.60316.60316,0,0,1,.91666-.03217q1.19407,1.16031,2.38439,2.32489a.59005.59005,0,0,1,.17208.62183.57289.57289,0,0,1-.453.41974.603.603,0,0,1-.57734-.18548q-.93033-.90942-1.86227-1.81778c-.06325-.06218-.09809-.09059-.17743-.0075q-2.92447,3.04428-5.85484,6.08213c-.01394.01447-.02573.03055-.06647.0788" style="fill: #0b529b"/>
        <path id="Fill-5" d="M16.1786,11.51707c-.24123.28465-.45351.53016-.65936.781-.05682.06969-.08469.07666-.1458.00214-.20853-.2557-.42456-.50443-.63845-.75638-.05575.03-.02841.07613-.029.11151-.00321.28357.01233.56875-.008.85126a1.01592,1.01592,0,0,1-.63362.9172.90271.90271,0,0,1-.98528-.1501,1.0173,1.0173,0,0,1-.38918-.79551q-.01206-1.47873-.00053-2.958a1.05912,1.05912,0,0,1,.6958-.97187.96823.96823,0,0,1,1.08123.33128c.297.32968.60146.65238.89737.98367.06593.07344.0981.07344.16349,0,.30127-.3404.61165-.67168.91238-1.01208a.97147.97147,0,0,1,1.04853-.30663,1.061,1.061,0,0,1,.70653.98153q.01527,1.47068,0,2.94243a1.04952,1.04952,0,0,1-.86788,1.02333,1.01119,1.01119,0,0,1-1.09464-.71724,1.26122,1.26122,0,0,1-.05414-.39722c.00161-.27178.00054-.543.00054-.86038" style="fill: #0b529b"/>
        <path id="Fill-7" d="M22.97342,12.3195a3.33639,3.33639,0,0,1-.044.35541,1.01459,1.01459,0,0,1-1.09517.81963,1.04576,1.04576,0,0,1-.89361-1.048c-.01233-.96545-.01447-1.93143.00054-2.89687a1.02665,1.02665,0,0,1,1.06515-1.0496,1.0125,1.0125,0,0,1,.69687.35594c.253.26374.48514.54624.743.83357a3.288,3.288,0,0,1,.03645-.349A1.02018,1.02018,0,0,1,24.565,8.50115a1.04388,1.04388,0,0,1,.90969,1.03352c.01287.97563.01608,1.95179-.00054,2.92742a1.017,1.017,0,0,1-1.29029.99707.8203.8203,0,0,1-.454-.3077c-.20371-.3018-.5098-.50818-.71779-.80409a.16343.16343,0,0,0-.03859-.02787" style="fill: #0b529b"/>
        <path id="Fill-9" d="M21.46269,17.676a1.12127,1.12127,0,1,0-1.10964-1.1209,1.12395,1.12395,0,0,0,1.10964,1.1209m.0177,1.53152a2.65,2.65,0,1,1,2.64491-2.64867,2.65143,2.65143,0,0,1-2.64491,2.64867" style="fill: #0b529b"/>
        <path id="Fill-11" d="M26.40248,15.75971v.13938c0,.3613.00161.36291.3656.31842a.456.456,0,0,0,.39561-.42885.44581.44581,0,0,0-.36023-.47119c-.08577-.015-.1753-.00644-.26214-.01609-.104-.01125-.15117.01984-.141.13348.00965.10775.00214.21657.00214.32485m-2.02469.28251c0-.66579.00214-1.33211-.00268-1.9979-.00054-.10828.03055-.14044.13884-.13991.75852.00429,1.51758-.00536,2.2761.00483a1.74986,1.74986,0,0,1,.47281,3.44043,2.46489,2.46489,0,0,1-.72261.05253c-.1056-.00268-.14313.02412-.14045.13562a4.18317,4.18317,0,0,1-.01072.61862.99925.99925,0,0,1-1.99521-.00912c-.044-.42134-.01019-.8459-.01555-1.26885-.00321-.27875-.00053-.5575-.00053-.83625" style="fill: #0b529b"/>
        <path id="Fill-13" d="M13.94607,13.885a2.12467,2.12467,0,0,1,.99922.25678.88747.88747,0,0,1,.27875,1.17933.50126.50126,0,0,1-.70975.13294,1.18,1.18,0,0,0-.71671-.201.60366.60366,0,0,0-.13616.02358c-.13187.0461-.14956.13992-.04395.2289a1.06015,1.06015,0,0,0,.28411.15492c.23318.09649.47066.18494.698.29269a1.45091,1.45091,0,0,1,.93006,1.45111A1.53614,1.53614,0,0,1,14.428,18.8435a2.59045,2.59045,0,0,1-2.02952-.14795.91162.91162,0,0,1-.33879-1.2324.50386.50386,0,0,1,.66364-.18655c.10239.04717.19781.11043.298.164a1.17414,1.17414,0,0,0,.71617.14312.60757.60757,0,0,0,.164-.0402.14573.14573,0,0,0,.0327-.27339,1.37061,1.37061,0,0,0-.30127-.15546c-.21925-.09059-.44225-.17261-.65453-.27661a1.48931,1.48931,0,0,1-.9054-1.6323,1.57175,1.57175,0,0,1,1.33854-1.28171,3.10881,3.10881,0,0,1,.53445-.03914" style="fill: #0b529b"/>
        <path id="Fill-15" d="M16.44738,16.7949c0-.40741-.00322-.81535.00214-1.22275.00161-.10346-.0193-.14688-.13348-.14045-.54356.02948-.88878-.36881-.76281-.99546a.67971.67971,0,0,1,.72314-.52856c.542-.00321,1.08392-.00107,1.62534-.00107.21174,0,.42348-.00429.63469.00161a.66912.66912,0,0,1,.6556.4519.85083.85083,0,0,1-.17851.89093.58328.58328,0,0,1-.37256.16939c-.156,0-.17368.07076-.17261.20585.007.77407.00375,1.54814.00375,2.32221a1.27854,1.27854,0,0,1-.07933.46959,1.01124,1.01124,0,0,1-1.02227.67275,1.05448,1.05448,0,0,1-.90433-.88825,4.46819,4.46819,0,0,1-.01823-.63362c-.00268-.25785-.00053-.51623-.00053-.77407" style="fill: #0b529b"/>
        <path id="Fill-17" d="M25.72426,10.991c0-.47495-.00375-.94936.00107-1.42431A1.071,1.071,0,0,1,26.45062,8.538a1.01567,1.01567,0,0,1,1.28708.98313c.01715.98581.01447,1.97163.00107,2.9569a1.00622,1.00622,0,1,1-2.01183-.01662c-.01018-.49-.00214-.97991-.00214-1.47041Z" style="fill: #0b529b"/>
        <path id="Fill-19" d="M18.6003,11.0038c0-.48514-.00483-.97027.00161-1.45541a1.069,1.069,0,0,1,.72743-1.011,1.0093,1.0093,0,0,1,1.28118.95579c.022,1.00565.0193,2.0129,0,3.01855a1.01594,1.01594,0,0,1-1.0287.98742,1.03323,1.03323,0,0,1-.97831-1.02494c-.01072-.49-.00214-.98046-.00214-1.47041Z" style="fill: #0b529b"/>
        <path id="Fill-21" d="M21.46269,17.676a1.12127,1.12127,0,1,1,1.13752-1.107,1.12683,1.12683,0,0,1-1.13752,1.107" style="fill: #fefefe"/>
        <path id="Fill-23" d="M26.40248,15.75971c0-.10828.00751-.2171-.00214-.32485-.01019-.11364.037-.14473.141-.13348.08684.00965.17637.00108.26214.01609a.44581.44581,0,0,1,.36023.47119.456.456,0,0,1-.39561.42885c-.364.04449-.3656.04288-.3656-.31842v-.13938" style="fill: #fefefe"/>
      </g>
    </g>
  </g>
</svg>
