<svg id="Layer_1" data-name="Layer 1" xmlns="http://www.w3.org/2000/svg" xmlns:xlink="http://www.w3.org/1999/xlink" viewBox="0 0 40 26">
  <defs>
    <mask id="mask" x="9.75811" y="1.50517" width="20.99154" height="22.98967" maskUnits="userSpaceOnUse">
      <g id="mask-2">
        <polygon id="path-1" points="20.254 24.495 9.758 24.495 9.758 1.505 20.254 1.505 30.75 1.505 30.75 24.495 20.254 24.495" style="fill: #fff"/>
      </g>
    </mask>
    <mask id="mask-2-2" x="9.75818" y="1.50517" width="20.99154" height="22.98967" maskUnits="userSpaceOnUse">
      <g id="mask-4">
        <polygon id="path-3" points="9.758 24.495 30.75 24.495 30.75 1.505 9.758 1.505 9.758 24.495" style="fill: #fff"/>
      </g>
    </mask>
  </defs>
  <title>molpay_cash</title>
  <g id="Page-1">
    <g id="_7eleven-65x41-" data-name="7eleven-65x41-">
      <rect width="40" height="26" style="fill: #107f61"/>
      <g id="Page-1-2" data-name="Page-1">
        <g id="Group-3">
          <g style="mask: url(#mask)">
            <path id="Fill-1" d="M23.437,23.48984v1.005H17.24021v-1.007H12.55153a.97374.97374,0,0,1-.83156-1.069L9.75811,2.57545a1.04788,1.04788,0,0,1,1.02347-1.07028H29.72949a1.04729,1.04729,0,0,1,1.02016,1.07028L28.80956,22.41889a.97374.97374,0,0,1-.83157,1.069l-4.54095.002Z" style="fill: #fff"/>
          </g>
        </g>
        <path id="Fill-4" d="M13.20933,4.41069H25.89447c-1.249.46821-5.05137,3.0427-6.001,4.77309H13.22054l-.01121-4.77309Z" style="fill: #f6821f"/>
        <path id="Fill-6" d="M23.31893,18.08771c-.18135,1.72841-.1886,3.83336-.1886,6.04449H17.63251a60.15745,60.15745,0,0,1,.273-6.04449Z" style="fill: #ed1b2d"/>
        <polygon id="Fill-8" points="14.813 15.59 14.813 16.26 13.933 16.26 13.933 16.93 14.813 16.93 14.813 17.698 12.803 17.698 12.803 14.125 14.813 14.125 14.813 14.921 13.933 14.921 13.933 15.59 14.813 15.59" style="fill: #008061"/>
        <polygon id="Fill-10" points="19.487 15.59 19.487 16.26 18.611 16.26 18.611 16.93 19.487 16.93 19.487 17.698 17.481 17.698 17.481 14.125 19.487 14.125 19.487 14.921 18.611 14.921 18.611 15.59 19.487 15.59" style="fill: #008061"/>
        <polygon id="Fill-12" points="24.638 15.59 24.638 16.26 23.758 16.26 23.758 16.93 24.638 16.93 24.638 17.698 22.628 17.698 22.628 14.125 24.638 14.125 24.638 14.921 23.758 14.921 23.758 15.59 24.638 15.59" style="fill: #008061"/>
        <polygon id="Fill-14" points="16.321 14.124 16.321 16.93 17.2 16.93 17.2 17.698 15.19 17.698 15.19 14.124 16.321 14.124" style="fill: #008061"/>
        <polygon id="Fill-16" points="21.109 16.54 20.681 14.125 19.694 14.125 20.256 17.698 21.708 17.698 22.388 14.125 21.549 14.125 21.109 16.54" style="fill: #008061"/>
        <g style="mask: url(#mask-2-2)">
          <polygon id="Fill-18" points="25.115 17.697 26.201 17.697 26.201 14.124 25.115 14.124 25.115 17.697" style="fill: #008061"/>
        </g>
        <g style="mask: url(#mask-2-2)">
          <path id="Fill-20" d="M26.20091,15.18534c.05935-.391.61329-.2862.61329-.06264v2.57514h1.09007V14.669c0-.64231-.90542-.90015-1.6961-.335l-.00726.85134Z" style="fill: #008061"/>
        </g>
        <g style="mask: url(#mask-2-2)">
          <path id="Fill-21" d="M23.82881,13.62192c.11079-1.36769,1.98428-3.60058,3.79842-4.18749V4.15885c-4.992,2.23355-8.23584,5.61124-8.93815,9.44989l5.13973.01318Z" style="fill: #ed1b2d"/>
        </g>
      </g>
    </g>
  </g>
</svg>
