<svg id="Layer_1" data-name="Layer 1" xmlns="http://www.w3.org/2000/svg" xmlns:xlink="http://www.w3.org/1999/xlink" viewBox="0 0 40 26">
  <defs>
    <mask id="mask" x="27.94951" y="9.12978" width="3.27717" height="7.73992" maskUnits="userSpaceOnUse">
      <g id="mask-2">
        <polygon id="path-1" points="27.95 16.87 31.227 16.87 31.227 9.13 27.95 9.13 27.95 16.87" style="fill: #fff"/>
      </g>
    </mask>
  </defs>
  <title>molpay_esapay</title>
  <rect id="Rectangle" x="-0.125" y="-0.00026" width="40" height="26" style="fill: #fff"/>
  <g id="Page-1">
    <g id="esa-Pay-65x41">
      <g id="Esa-Pay">
        <path id="Fill-1" d="M25.42445,13.836c0-.21161.00077-.36725-.00027-.52284-.00072-.10115-.032-.19009-.1486-.19295a2.6712,2.6712,0,0,0-1.94281.50754,1.133,1.133,0,0,0-.273,1.21958.82358.82358,0,0,0,.76653.61106,1.397,1.397,0,0,0,1.03665-.272,1.38293,1.38293,0,0,0,.56147-1.35035m.11673,2.18166a2.7775,2.7775,0,0,1-2.722.75366,1.97136,1.97136,0,0,1-1.57379-1.52217,2.32512,2.32512,0,0,1,.62988-2.37611,3.70206,3.70206,0,0,1,2.10747-.92112,9.56907,9.56907,0,0,1,1.12047-.10622c.22449-.00919.28459-.09885.26654-.30572a1.09289,1.09289,0,0,0-.948-.99526,4.3759,4.3759,0,0,0-.684-.05735c-1.60455-.00479-3.20917-.002-4.81378-.00308a1.61713,1.61713,0,0,0-.82157.18492.65589.65589,0,0,0-.03726,1.192,3.82343,3.82343,0,0,0,.77138.35911,3.72252,3.72252,0,0,1,1.47434.88,2.18861,2.18861,0,0,1-1.05172,3.54659,3.97927,3.97927,0,0,1-1.18806.20424c-.62311.01541-1.247-.00132-1.87032.00831-.2268.00352-.31271-.0819-.30242-.30743a8.0054,8.0054,0,0,0-.00088-.85233c-.016-.26131.10281-.33616.34138-.33308.55.0071,1.10027.001,1.65041-.001a1.51745,1.51745,0,0,0,.76659-.18508.63318.63318,0,0,0,.11568-1.10886,2.79342,2.79342,0,0,0-.92883-.465,4.51475,4.51475,0,0,1-1.04639-.543,2.05427,2.05427,0,0,1,.02752-3.392,2.83691,2.83691,0,0,1,1.62415-.52735c2.0171-.01112,4.03448-.01855,6.05147.00027a2.5799,2.5799,0,0,1,2.705,2.57374c.10985,1.62052.02113,3.24406.04771,4.866.00292.1777-.05525.27594-.25129.273-.4033-.006-.80682-.00463-1.21017-.00039-.17226.00176-.25476-.06962-.25047-.24513.00446-.18035.001-.36092.001-.59416" style="fill: #676767"/>
        <g id="Group-5">
          <g style="mask: url(#mask)">
            <path id="Fill-3" d="M31.22552,12.99927c-.00033.98045.00137,1.961-.001,2.94142a.84628.84628,0,0,1-.9213.92526c-.48563.0044-.97137.00583-1.45695-.00072a.83726.83726,0,0,1-.89515-.89543q-.0038-2.96893.00149-5.93788a.84672.84672,0,0,1,.89537-.89735q.74207-.00926,1.48441.00022a.83406.83406,0,0,1,.89257.89553c.00324.98965.00093,1.9793.00055,2.96895" style="fill: #1e4496"/>
          </g>
        </g>
        <g id="Group-8">
          <path id="Fill-6" d="M13.70235,16.85743a9.939,9.939,0,0,1-1.90318-.09389,3.31027,3.31027,0,0,1-2.766-3.1303,5.95245,5.95245,0,0,1,.10452-1.91507,3.33279,3.33279,0,0,1,3.23812-2.57511c.91667-.02273,1.83433-.00149,2.75144-.01051.21811-.00209.29471.08464.28883.29262q-.01247.43992,0,.8804c.00627.21266-.08041.29031-.29378.28773-.70616-.0087-1.41248-.002-2.1187-.0033a2.70158,2.70158,0,0,0-1.097.22476,1.76851,1.76851,0,0,0-1.10589,1.52129,4.96625,4.96625,0,0,0-.0028,1.34215,1.89715,1.89715,0,0,0,1.79135,1.6815c.79674.07837,1.59448.0284,2.39167.04215.4328.00743.43313.00188.43351.44783.00023.23847-.00583.4771.00067.7154.00566.20809-.0797.299-.29367.29488-.44007-.00842-.88046-.00253-1.41915-.00253" style="fill: #1e4496"/>
        </g>
        <path id="Fill-9" d="M13.36179,13.56257c-.43049.00028-.8612-.0066-1.29146.00325-.20875.00473-.304-.06627-.29555-.28393.01068-.27435.0054-.54947.0027-.82427-.00154-.15976.06957-.23472.23126-.23445q1.34645.00248,2.69294-.00038c.18024-.00055.24.08767.23643.25608-.00583.27468-.00743.54969.0005.82426.00534.18668-.06819.26445-.25784.26142-.43957-.0071-.8793-.00226-1.319-.002" style="fill: #1e4496"/>
        <path id="Fill-11" d="M29.59174,10.34989a2.053,2.053,0,0,0-.01706.30044c0,.43813.12675.70522.34848.70522.21937,0,.32416-.26709.32416-.66351a2.58174,2.58174,0,0,0-.01706-.34215Zm.79207-.36307c.017.17529.03165.40478.03165.69686a1.76709,1.76709,0,0,1-.13649.78871.37663.37663,0,0,1-.69455.02917,1.72783,1.72783,0,0,1-.18029-.85955,2.1228,2.1228,0,0,1,.01458-.29212h-.658V9.98682Z" style="fill: #fff"/>
        <path id="Fill-13" d="M29.44308,13.23759l.47281-.27958a2.7534,2.7534,0,0,1,.29972-.14607v-.00836a2.79642,2.79642,0,0,1-.2973-.14183l-.47523-.27545Zm-.16571-.92642-.51662-.29207v-.37556l1.64253.95976v.434l-1.64253.95976v-.388l.51662-.30044Z" style="fill: #fff"/>
        <path id="Fill-15" d="M28.76073,14.70656h.697l.94562-.893v.41728l-.45333.39648c-.12427.10429-.22422.19191-.33874.27958v.00831c.1072.07507.21447.17529.33874.28371l.45333.40484v.40886l-.94315-.93885h-.69944Z" style="fill: #fff"/>
      </g>
    </g>
  </g>
</svg>
