<svg id="Layer_1" data-name="Layer 1" xmlns="http://www.w3.org/2000/svg" xmlns:xlink="http://www.w3.org/1999/xlink" viewBox="0 0 40 26">
  <defs>
    <mask id="mask" x="18.20578" y="11.13171" width="8.88038" height="5.86075" maskUnits="userSpaceOnUse">
      <g id="mask-2">
        <polygon id="path-1" points="27.086 11.132 18.206 11.132 18.206 16.992 27.086 16.992 27.086 11.132" style="fill: #fff"/>
      </g>
    </mask>
  </defs>
  <title>moneymail
</title>
  <g id="Page-1">
    <g id="Money-Mail-65x41">
      <rect y="0.00001" width="40" height="25.99999" style="fill: #1790ce"/>
      <g id="Page-1-2" data-name="Page-1">
        <path id="Fill-1" d="M4.61887,12.21178c-.20038.6605-.39928,1.31623-.59821,1.972-.23-.662-.41813-1.32333-.63646-1.98056-.18773,0-.35685-.00007-.52593,0-.1676.00011-.33515.00033-.50584.00051a.71732.71732,0,0,0-.01332.08963q.00246,1.226.0065,2.45191c0,.00491.00591.01015.00983.01462l.01324.01254h.63438V12.98873c.23913.58644.38592,1.19484.59332,1.78542h.83077c.09179-.29749.1795-.59229.27407-.8852a5.63017,5.63017,0,0,1,.29962-.85546v1.7492c.12732,0,.23086.004.33386-.00105a.88577.88577,0,0,0,.32152-.02076c.03036-.37181.01739-2.40734-.01705-2.5491Z" style="fill: #fff"/>
        <path id="Fill-3" d="M31.11857,12.22659,31.101,12.2115H30.1112q-.29887.98672-.59622,1.96837l-.02687-.00087q-.30234-.98682-.60527-1.97579c-.18828,0-.35783-.00291-.52719.00084a3.01861,3.01861,0,0,0-.50514.01468v2.56314c.22182-.001.4327.00615.65992-.005v-1.787l.02621-.00226.54322,1.787h.83346c.19373-.56783.34922-1.14459.55427-1.71379q0,.21454,0,.42907v.4181c0,.14543-.00333.29094.00094.43627a1.75248,1.75248,0,0,0,.01861.4282h.62317c.01085-.02072.02111-.03116.02115-.04167q.003-1.19958.00408-2.39923a.82184.82184,0,0,0-.0076-.09013.03224.03224,0,0,0-.00937-.01487" style="fill: #fff"/>
        <path id="Fill-5" d="M11.50247,12.2065v1.7889c-.47826-.61937-.93164-1.20657-1.38032-1.7877H9.36327a.66134.66134,0,0,0-.01285.08526q.00252,1.22631.00666,2.45261c0,.0049.00611.01.00991.01454l.02119.02189c.2058,0,.41868.00367.64962-.00262.00568-.08319.01371-.14751.01383-.21179.0011-.46642.00031-.93283.00125-1.39925a1.23608,1.23608,0,0,1,.01665-.13325c.46436.598.91159,1.174,1.35635,1.7468.25864-.00171.49723.008.73753-.00607V12.2117c-.22252-.01433-.43332-.00924-.66094-.0052" style="fill: #fff"/>
        <path id="Fill-7" d="M8.29009,13.84194a.79667.79667,0,0,1-.72354.542.84938.84938,0,0,1-.69984-.25048.7917.7917,0,0,1-.2083-.44081,1.15086,1.15086,0,0,1,.10182-.68777A.83063.83063,0,0,1,7.643,12.6134a.77681.77681,0,0,1,.6893.78089c.00122.03625.00016.07253.00016.10878l.01461.002c-.01841.11243-.02825.22677-.057.33687m.70756-.49547a1.13309,1.13309,0,0,0-.3949-.83949,1.75449,1.75449,0,0,0-1.18989-.3701,1.79713,1.79713,0,0,0-.43944.07,1.22091,1.22091,0,0,0-.85043.63952,1.50255,1.50255,0,0,0-.10746.97242,1.20133,1.20133,0,0,0,.98226.96643,1.88549,1.88549,0,0,0,.86618.03312,1.424,1.424,0,0,0,.92894-.54888,1.239,1.239,0,0,0,.20513-.77768c0-.04847.00254-.09708-.00039-.14537" style="fill: #fff"/>
        <path id="Fill-9" d="M32.72505,13.76515c-.11592.004-.23211.00088-.37315.00088.12568-.31953.24426-.621.37977-.96545.12819.33527.242.63291.36035.94229a1.21542,1.21542,0,0,1-.367.02228Zm-.37068-1.55148c-.37033.8503-.73753,1.69347-1.11562,2.56161h.697a5.40437,5.40437,0,0,1,.25848-.55938h1.08627l.22738.56044h.71649q-.55985-1.29976-1.10379-2.56267Z" style="fill: #fff"/>
        <path id="Fill-11" d="M14.81561,14.34728c-.27408.00026-.54878-.00989-.82211.00338a.75928.75928,0,0,1-.79386-.68882c.06291-.0016.12579-.00455.18871-.00458q.73413-.0006,1.46831-.00069c.056-.00011.11189-.00706.16537-.01066v-.42405c-.6014-.00695-1.19186.00283-1.78451-.003a.66456.66456,0,0,1,.55093-.53873,2.75639,2.75639,0,0,1,.4059-.03665c.23479-.00575.46984-.00066.70474-.00244a.93906.93906,0,0,0,.12909-.01851v-.41929h-.192c-.23489,0-.47.00487-.70473-.00142a2.30187,2.30187,0,0,0-.65428.0781,1.1584,1.1584,0,0,0-.92291.86411,1.87,1.87,0,0,0-.01986.64916.951.951,0,0,0,.24978.5231,1.43545,1.43545,0,0,0,1.079.46718c.34557.00959.69165.00254,1.03754.00214.03753,0,.07506-.00494.12607-.00854a1.7759,1.7759,0,0,0-.009-.42977c-.07389,0-.138-.00007-.20215,0" style="fill: #fff"/>
        <path id="Fill-13" d="M16.56659,13.22247c-.23008-.35348-.44747-.68744-.66345-1.01929-.13766,0-.26153-.00247-.38525.00069a1.61968,1.61968,0,0,0-.37621.01814c.02484.04618.039.0793.05912.109.30851.45409.6151.90934.92945,1.35994a.40709.40709,0,0,1,.07772.25339c-.00337.23-.002.46005-.00051.69006.00028.046.00917.092.01458.14253h.64147c.0036-.06683.00869-.11981.00893-.17282.00094-.21186.00482-.42387-.00153-.63556a.4545.4545,0,0,1,.08055-.274q.454-.68621.90586-1.37357a1.1759,1.1759,0,0,0,.05685-.11115h-.73875l-.60883,1.01267" style="fill: #fff"/>
        <path id="Fill-15" d="M37.45565,14.31005h-.86148c-.02609,0-.05242-.002-.07827.00029a.35223.35223,0,0,1-.41064-.374c.00991-.51466.0034-1.02965.00266-1.5445-.00008-.05835-.00584-.11671-.00921-.17957h-.65623v.203c0,.47245-.00247.9449.00184,1.41736a1.41892,1.41892,0,0,0,.041.32156.92792.92792,0,0,0,.8596.628c.39807.00265.79622.00112,1.19433-.00022a.84876.84876,0,0,0,.12164-.01669v-.45518Z" style="fill: #fff"/>
        <path id="Fill-17" d="M35.06823,12.242c-.00357-.005-.00874-.00894-.03346-.0333a5.16782,5.16782,0,0,0-.587.00229c-.01215.02225-.02276.03261-.02276.043q-.00318,1.18142-.00443,2.36287c0,.04221.004.08443.007.1266a.031.031,0,0,0,.00882.01516.23862.23862,0,0,0,.02084.01833h.60308c.01273-.02647.02233-.03712.02237-.04778q.00258-1.19058.00332-2.38112a.68639.68639,0,0,0-.00991-.08952.03971.03971,0,0,0-.00787-.01654" style="fill: #fff"/>
        <g id="Group-21">
          <g style="mask: url(#mask)">
            <path id="Fill-19" d="M19.2904,14.34916c-.08509-.0264-.16508-.06694-.23247-.09486a.22391.22391,0,0,1,.0031-.22684c.13688-.28684.26976-.57535.40661-.86219.15792-.33108.3183-.66115.47837-.99133.00486-.01007.01822-.01658.03918-.0348a1.105,1.105,0,0,1,.28273.3028c.40755.48449.80393.97705,1.20459,1.46655.09429.11522.196.22586.28191.34617a.31341.31341,0,0,0,.19846.1285l3.84552-1.39467c-.09061.30807-.17006.58033-.25088.85223q-.225.75662-.45162,1.51283c-.03479.11587-.07025.23186-.11236.34559a.23977.23977,0,0,1-.29554.17492,1.45306,1.45306,0,0,1-.24576-.05239c-.43391-.12468-.866-.25473-1.30056-.37737-.67011-.18907-1.34213-.37232-2.01247-.56062-.385-.1081-.76844-.221-1.15236-.33229-.22914-.06643-.45879-.13155-.68645-.20223m1.99015-2.46009c.31407.03519.62607.08642.93885.13143q.412.05934.82391.11919c.22977.03309.45973.06508.68942.09868.2872.042.5742.08537.86136.12773.10723.01578.21465.03032.322.04541l.00709.03687c-.87034.32963-1.74071.65926-2.628.99537-.49358-.518-.962-1.0558-1.45825-1.59068a1.11847,1.11847,0,0,1,.44367.036m5.7106.18728a.50614.50614,0,0,0-.33444-.23077,2.34251,2.34251,0,0,0-.32677-.04156c-.27043-.02665-.54173-.0465-.81149-.07795-.35917-.04189-.71661-.09664-1.07589-.13766-.379-.04326-.75939-.07642-1.13908-.11486q-.18346-.01854-.36642-.04134c-.2691-.03312-.53761-.0705-.8071-.10027-.27008-.02982-.54118-.0516-.81161-.07869-.11576-.01159-.231-.02752-.34647-.04174-.21155-.02607-.423-.05232-.64515-.0798a2.35131,2.35131,0,0,0-.35494.05479.64842.64842,0,0,0-.395.35381q-.27384.551-.55207,1.10015c-.24395.48085-.492.96-.73372,1.44183a.74186.74186,0,0,0-.08282.25735.64069.64069,0,0,0,.496.6558q1.77426.54828,3.549,1.0954,1.33065.411,2.66134.822a.98569.98569,0,0,0,.35627.07814.6717.6717,0,0,0,.64425-.495q.15354-.52194.309-1.0434.40752-1.37377.81584-2.74736a.74631.74631,0,0,0-.04874-.62891" style="fill: #fff"/>
          </g>
        </g>
      </g>
    </g>
  </g>
</svg>
