<svg id="Layer_1" data-name="Layer 1" xmlns="http://www.w3.org/2000/svg" viewBox="0 0 40 26">
  <title>moneybookers</title>
  <g id="skrill">
    <rect y="-0.00032" width="40" height="26" style="fill: #862565"/>
    <g id="skrill-2" data-name="skrill">
      <path id="skrill-3" data-name="skrill" d="M29.47075,5.61014l2.6875-.48221V15.45407h-2.6875Zm3.92836,0v9.84393h2.69364V5.12793Zm-7.75843,9.84393h2.69057V7.90143H25.64068ZM7.85711,8.96721c-.34093-.0215-1.12722-.07371-1.12722-.78014,0-.85693,1.13336-.85693,1.55722-.85693a9.40745,9.40745,0,0,1,2.408.42693s.387.13514.71257.27643l.03071.00614V5.69614l-.03992-.01228a9.62219,9.62219,0,0,0-3.52293-.559C4.841,5.12486,3.766,6.89093,3.766,8.40514c0,.87229.37471,2.92708,3.8485,3.16357.29485.01843,1.075.06143,1.075.7955,0,.60508-.63886.96136-1.71693.96136a8.43676,8.43676,0,0,1-3.01922-.58664V15.15a14.06135,14.06135,0,0,0,3.58743.4085c2.967,0,4.29386-1.67086,4.29386-3.32943C11.83461,10.3555,10.348,9.13614,7.85711,8.96721ZM24.12339,7.79086c-2.48785.07985-3.75021,1.19478-3.75021,3.41235V15.451h2.71207V11.9895c0-1.32686.17507-1.89814,1.75072-1.95036V7.83079A3.60627,3.60627,0,0,0,24.12339,7.79086Zm-7.30078.10135A9.46106,9.46106,0,0,1,15.29,10.52136V5.12793l-2.77658.54978v9.77636H15.29V12.43179a10.49048,10.49048,0,0,1,1.20092,3.02228h3.32636a21.57409,21.57409,0,0,0-1.76914-3.8915,12.28923,12.28923,0,0,0,1.95036-3.67035Zm10.16028-.71564A1.32686,1.32686,0,1,0,25.656,5.84971,1.3272,1.3272,0,0,0,26.98289,7.17657Z" style="fill: #fff"/>
      <path id="moneybookers" d="M6.84354,20.53422V18.94014c0-.18121-.06757-.30714-.24879-.30714a.63926.63926,0,0,0-.41464.22422v1.677H5.39382V18.94014c0-.18121-.06757-.30714-.24878-.30714a.63257.63257,0,0,0-.41465.22422v1.677H3.94718V17.988h.69107l.05836.34707a1.0795,1.0795,0,0,1,.78936-.39928.62587.62587,0,0,1,.63271.39928,1.1316,1.1316,0,0,1,.7955-.39928c.473,0,.72179.29485.72179.78935v1.80908Zm2.40493.04914a1.2031,1.2031,0,0,1-1.21629-1.31765,1.228,1.228,0,1,1,2.44793-.00614A1.21634,1.21634,0,0,1,9.24847,20.58336Zm.00307-2.00257c-.301,0-.46072.26414-.46072.68185,0,.41158.16586.69108.46072.69108.301,0,.46685-.27643.46685-.68493C9.72147,18.85414,9.55561,18.58079,9.25154,18.58079Zm3.1175,1.95343V18.94014c0-.18121-.07372-.30714-.26107-.30714a.6364.6364,0,0,0-.43.22729v1.67393h-.78322V17.988h.69107l.05836.34707a1.13174,1.13174,0,0,1,.7955-.39928c.473,0,.72179.29485.72179.78935v1.80908Zm3.49835-1.07808h-1.5265a.5583.5583,0,0,0,.6235.55593,1.70628,1.70628,0,0,0,.83543-.26414l.07679.54978a1.83154,1.83154,0,0,1-1.01357.28565,1.18978,1.18978,0,0,1-1.30843-1.31457,1.20286,1.20286,0,0,1,1.20093-1.33608c.78014,0,1.12721.5805,1.12721,1.32072A.88645.88645,0,0,1,15.86739,19.45614Zm-1.13028-1.0105c-.21807,0-.37472.1935-.39929.5805h.79857C15.11182,18.64222,14.97668,18.44564,14.73711,18.44564Zm2.93628,2.13772c-.22728.66343-.54057.89378-1.0965.89378a1.16147,1.16147,0,0,1-.29485-.03071l-.09829-.62964a.87874.87874,0,0,0,.31021.043.42151.42151,0,0,0,.41465-.24571l.03071-.07679-.9245-2.48785.84157-.09829.4945,1.60636.46686-1.5695h.75864ZM19.98,20.56493a3.11462,3.11462,0,0,1-1.09036-.18121V16.90686l.78321-.12286v1.4835a.95145.95145,0,0,1,.68186-.33171c.51907,0,.91529.39621.91529,1.25621A1.19708,1.19708,0,0,1,19.98,20.56493Zm.12593-1.92886a.59533.59533,0,0,0-.43308.24572v1.00742a.857.857,0,0,0,.28565.04608c.30714,0,.52521-.18736.52521-.69108C20.48375,18.81729,20.32711,18.63607,20.106,18.63607Zm2.68442,1.94729a1.20085,1.20085,0,0,1-1.21321-1.31765,1.22654,1.22654,0,1,1,2.44486-.00614A1.2147,1.2147,0,0,1,22.79039,20.58336Zm.00308-2.00257c-.301,0-.46379.26414-.46379.68185,0,.41158.16586.69108.46379.69108.301,0,.46685-.27643.46685-.68493C23.26339,18.85414,23.09447,18.58079,22.79347,18.58079ZM25.527,20.58336a1.2031,1.2031,0,0,1-1.21629-1.31765,1.228,1.228,0,1,1,2.44793-.00614A1.21634,1.21634,0,0,1,25.527,20.58336Zm.00614-2.00257c-.301,0-.46378.26414-.46378.68185,0,.41158.16585.69108.46378.69108.301,0,.46686-.27643.46686-.68493C26,18.85414,25.83418,18.58079,25.53318,18.58079Zm3.1605,1.98721-.73714-1.21936v1.18557h-.78322V16.90993l.78322-.12286v2.24829l.68185-1.04429H29.48L28.68139,19.149l.83236,1.30843Zm3.18507-1.11186h-1.5265a.5583.5583,0,0,0,.6235.55593,1.72676,1.72676,0,0,0,.8385-.26414l.07679.54978a1.839,1.839,0,0,1-1.01358.28565A1.18977,1.18977,0,0,1,29.569,19.26879a1.20229,1.20229,0,0,1,1.19785-1.33608c.78015,0,1.12722.5805,1.12722,1.32072A1.108,1.108,0,0,1,31.87875,19.45614Zm-1.13336-1.0105c-.21807,0-.37471.1935-.39928.5805h.79857C31.117,18.64222,30.985,18.44564,30.74539,18.44564Zm2.35272.67572v1.41286h-.78322V17.988h.68493l.08293.50372a.909.909,0,0,1,.74329-.55593l.129.79857A1.24875,1.24875,0,0,0,33.09811,19.12136Zm2.09164,1.45278a2.31335,2.31335,0,0,1-1.05043-.25492l.09522-.59586a1.95012,1.95012,0,0,0,.96135.301c.21807,0,.3225-.07372.3225-.1935,0-.129-.07064-.18736-.43-.27336-.63885-.16586-.90914-.33786-.90914-.817,0-.473.35321-.78936.97671-.78936a2.32124,2.32124,0,0,1,.93986.18736l-.09829.59893a1.879,1.879,0,0,0-.8385-.23957c-.18735,0-.27028.06757-.27028.16586,0,.10442.07371.16278.43.26107.67571.18121.91528.35321.91528.82621C36.234,20.28236,35.86546,20.57414,35.18975,20.57414Z" style="fill: #fff"/>
    </g>
  </g>
</svg>
