<svg id="Layer_1" data-name="Layer 1" xmlns="http://www.w3.org/2000/svg" xmlns:xlink="http://www.w3.org/1999/xlink" viewBox="0 0 40 26">
  <defs>
    <mask id="mask" x="35.66712" y="12.925" width="3.21272" height="2.40206" maskUnits="userSpaceOnUse">
      <g id="mask-2">
        <polygon id="path-1" points="38.88 15.327 38.88 12.925 35.667 12.925 35.667 15.327 38.88 15.327" style="fill: #fff"/>
      </g>
    </mask>
  </defs>
  <title>moneta</title>
  <g id="Page-1">
    <g id="moneta--65x41">
      <rect y="0.00001" width="40" height="25.99999" style="fill: #0086ca"/>
      <g id="Page-1-2" data-name="Page-1">
        <polygon id="Fill-1" points="28.308 19.085 30.125 19.085 30.125 5.939 28.308 5.939 28.308 19.085" style="fill: #fec10d"/>
        <g id="Group-19">
          <path id="Fill-2" d="M2.56372,12.92907l-.69356-.00048v2.33124h.76967V13.75857A2.14191,2.14191,0,0,1,3.6551,13.374a.37089.37089,0,0,1,.42486.39974v1.4788h.76825v-1.494a1.967,1.967,0,0,1,.98582-.38212c.35876,0,.459.17118.459.45552v1.42786h.77093V13.781a.85253.85253,0,0,0-.86973-.92366,2.57922,2.57922,0,0,0-1.4065.52988.76713.76713,0,0,0-.77885-.52988,2.39032,2.39032,0,0,0-1.37.5059Z" style="fill: #fff"/>
          <path id="Fill-4" d="M9.57391,14.85444c-.71535,0-.95586-.43209-.95586-.81123,0-.39081.32137-.77349.99-.77349.66569,0,.93883.35942.93883.78886,0,.38718-.21146.79586-.973.79586m.0509-1.99c-.9435,0-1.75966.374-1.75966,1.20831,0,.82194.74055,1.25781,1.70058,1.25781.99933,0,1.7514-.51748,1.7514-1.32887,0-.78886-.72711-1.13725-1.69232-1.13725" style="fill: #fff"/>
          <path id="Fill-6" d="M12.15892,12.93269v2.31989h.76884v-1.494a2.14392,2.14392,0,0,1,1.1266-.38437.51085.51085,0,0,1,.54869.52883v1.34956h.76859V13.753a.88029.88029,0,0,0-.94617-.90265,2.50583,2.50583,0,0,0-1.4983.48947c-.027-.17029-.07444-.40714-.07444-.40714Z" style="fill: #fff"/>
          <path id="Fill-8" d="M16.91962,13.83682s.079-.54855.92022-.54855c.84094,0,.94184.54823.94184.54823Zm.93024-.97267c-.97964,0-1.67263.51539-1.67263,1.21378s.573,1.26361,1.78579,1.26361a3.97564,3.97564,0,0,0,1.17875-.16845L19.265,14.669a4.17047,4.17047,0,0,1-1.14571.174c-1.13728,0-1.17959-.63233-1.17959-.63233h2.59226s.12885-1.34649-1.68205-1.34649Z" style="fill: #fff"/>
          <path id="Fill-10" d="M21.38782,12.29891l-.77126.241v.38952h-.57047v.4337h.57465V14.616c0,.49687.2264.72543.75056.72543a2.6542,2.6542,0,0,0,.56046-.06679l.12927-.48747a1.58792,1.58792,0,0,1-.39548.05658c-.16482,0-.27839-.05955-.27839-.28184V13.3626h.74706v-.43321h-.7464Z" style="fill: #fff"/>
          <path id="Fill-12" d="M24.03384,14.839c-.23868,0-.43153-.08522-.43153-.28449,0-.23234.25019-.32473.81056-.32473h.79455a1.72777,1.72777,0,0,1-1.17358.60922m2.12109.00773c-.14554,0-.17467-.05239-.17467-.16458v-1.0777c0-.47281-.22573-.75465-1.14963-.75465a8.67018,8.67018,0,0,0-1.48268.16933l-.06409.487a8.46085,8.46085,0,0,1,1.34307-.17842c.32721,0,.58157.03484.58157.37141,0,.17319-.00033-.00708-.00033.14727H24.2579c-.59617,0-1.40925.13376-1.40925.75731,0,.45994.41151.74.97681.74a2.08891,2.08891,0,0,0,1.45181-.63249.73365.73365,0,0,0,.04231.3851c.10089.20151.29141.24095.5769.24095a1.30738,1.30738,0,0,0,.4246-.06237l.12677-.46775a2.18475,2.18475,0,0,1-.29292.0396" style="fill: #fff"/>
          <g id="Group-16">
            <g style="mask: url(#mask)">
              <path id="Fill-14" d="M38.87984,15.24473V12.925h-.76917v1.49369a2.13953,2.13953,0,0,1-1.1266.38469.51109.51109,0,0,1-.54861-.529V12.925h-.76834v1.49957a.89424.89424,0,0,0,.985.90249,2.59925,2.59925,0,0,0,1.46358-.486c.02729.17013.07026.40368.07026.40368Z" style="fill: #fff"/>
            </g>
          </g>
          <path id="Fill-17" d="M32.49033,12.92231v2.33591h.7721l-.00977-1.39342a1.605,1.605,0,0,1,1.028-.39845,1.97185,1.97185,0,0,1,.69849.11517l.00209-.59474a2.40837,2.40837,0,0,0-.61362-.06246,1.385,1.385,0,0,0-1.16749.55788c-.01736-.19065-.05675-.54323-.05675-.54323Z" style="fill: #fff"/>
        </g>
      </g>
    </g>
  </g>
</svg>
