<svg id="Layer_1" data-name="Layer 1" xmlns="http://www.w3.org/2000/svg" xmlns:xlink="http://www.w3.org/1999/xlink" viewBox="0 0 40 26">
  <defs>
    <mask id="mask" x="-6" y="-3.0003" width="50.73219" height="32.0003" maskUnits="userSpaceOnUse">
      <g id="mask-2">
        <rect id="path-1" x="-6" y="-3.0003" width="50.73219" height="32.0003" rx="3.12198" ry="3.12198" style="fill: #fff"/>
      </g>
    </mask>
  </defs>
  <title>nyce</title>
  <g id="Page-1">
    <g id="nyce_65x41" data-name="nyce 65x41">
      <rect y="-0.0003" width="40" height="26" style="fill: #ea1e2e"/>
      <g style="mask: url(#mask)">
        <g id="Page-1-2" data-name="Page-1">
          <g>
            <polygon id="Fill-1" points="6.045 6.366 2.586 20.163 33.467 20.163 36.928 6.366 6.045 6.366" style="fill: #fff"/>
            <polygon id="Fill-2" points="12.496 6.366 11.446 10.512 9.942 6.366 7.743 6.366 5.853 13.899 8.165 13.899 9.168 9.776 10.575 13.899 12.822 13.899 14.776 6.366 12.496 6.366" style="fill: #eb1e2c"/>
            <polygon id="Fill-3" points="19.838 6.366 18.072 8.918 17.363 6.366 14.841 6.366 16.46 11.131 15.786 13.899 18.206 13.899 18.906 11.114 22.489 6.366 19.838 6.366" style="fill: #eb1e2c"/>
            <polygon id="Fill-4" points="29.457 6.366 27.568 13.899 33.291 13.899 33.696 12.283 30.237 12.283 30.561 10.99 33.585 10.99 33.999 9.34 30.975 9.34 31.251 8.241 34.759 8.241 35.229 6.366 29.457 6.366" style="fill: #eb1e2c"/>
            <path id="Fill-5" d="M20.85536,10.245a3.07978,3.07978,0,0,0,2.59592,4.04843c3.13759,0,3.922-1.34245,4.46053-3.14227H25.80213A1.79461,1.79461,0,0,1,23.982,12.4585c-.80079,0-1.18713-.99123-.85932-2.21271.327-1.22225,1.031-2.2127,2.04333-2.2127.73054,0,1.06226.53776,1.05757,1.30733h2.10578A2.56572,2.56572,0,0,0,26.72078,6.366h-2.6451c-2.05817.49328-2.72861,2.04178-3.22032,3.87906" style="fill: #eb1e2c"/>
          </g>
        </g>
      </g>
    </g>
  </g>
</svg>
