<svg id="Layer_1" data-name="Layer 1" xmlns="http://www.w3.org/2000/svg" xmlns:xlink="http://www.w3.org/1999/xlink" viewBox="0 0 40 26">
  <defs>
    <clipPath id="clip-path">
      <rect x="1.5" y="8.74358" width="37" height="8.51283" style="fill: none"/>
    </clipPath>
  </defs>
  <title>oasis</title>
  <rect y="-0.00032" width="40" height="26" style="fill: #fff"/>
  <g style="clip-path: url(#clip-path)">
    <path d="M5.8647,17.25642a4.652,4.652,0,0,0,1.84917-.38316,4.157,4.157,0,0,0,1.48266-1.09951,3.679,3.679,0,0,0,.74966-1.24944,4.0081,4.0081,0,0,0,.26655-1.466,4.0827,4.0827,0,0,0-.43314-1.84917A4.22526,4.22526,0,0,0,8.53017,9.72648a4.60659,4.60659,0,0,0-1.31608-.71634,4.16946,4.16946,0,0,0-1.366-.24989A4.2998,4.2998,0,0,0,4.482,9.01014a5.05362,5.05362,0,0,0-1.31607.71634,4.2254,4.2254,0,0,0-1.24944,1.48266,4.08283,4.08283,0,0,0-.43314,1.84917,4.00831,4.00831,0,0,0,.26655,1.466,4.30151,4.30151,0,0,0,.74966,1.24944,4.592,4.592,0,0,0,1.48267,1.09951,4.938,4.938,0,0,0,1.88248.38316M7.84714,16.0403a2.69972,2.69972,0,0,1-.89959.76632,2.29886,2.29886,0,0,1-1.08285.23323h0a2.4148,2.4148,0,0,1-1.08284-.23323,2.90972,2.90972,0,0,1-.8996-.76632A4.46722,4.46722,0,0,1,2.94935,13.125a6.49554,6.49554,0,0,1,.24989-1.83251,4.24107,4.24107,0,0,1,.733-1.44935,2.56837,2.56837,0,0,1,.84962-.71634A2.41672,2.41672,0,0,1,5.8647,8.91018h0a2.41679,2.41679,0,0,1,1.08285.21657,2.56847,2.56847,0,0,1,.84962.71634,4.389,4.389,0,0,1,.733,1.44935A6.4959,6.4959,0,0,1,8.78006,13.125a4.56152,4.56152,0,0,1-.93292,2.91535m2.79874.88293a1.02954,1.02954,0,0,0,.4498-.14993,1.58294,1.58294,0,0,0,.46645-.43314,2.75944,2.75944,0,0,0,.3665-.633c.11662-.24989.76633-1.89915.76633-1.89915l.09995-.24988,1.78253-4.59793h.33318l1.61594,3.9149c.19991.46645,1.31608,3.13192,1.43269,3.33183a1.47893,1.47893,0,0,0,.3665.4498,1.04214,1.04214,0,0,0,.33318.16659,2.344,2.344,0,0,0,.4498.1v.13327H15.42706v-.13328a1.18751,1.18751,0,0,0,.633-.18325.70817.70817,0,0,0,.36651-.6497,1.68493,1.68493,0,0,0-.1666-.64971l-.09995-.24989L15.59365,13.808H12.9615l-.4498,1.16614a2.83613,2.83613,0,0,0-.26655,1.03287.9031.9031,0,0,0,.1.41648.8237.8237,0,0,0,.26655.31653.89381.89381,0,0,0,.48311.18325v.13327H10.64588v-.13328m3.58172-6.41377c-.13327.33318-1.16614,3.06528-1.16614,3.06528h2.4489l-1.24944-3.06528Zm10.51193-.11662a2.848,2.848,0,0,0-.2832-.54975,2.11241,2.11241,0,0,0-.63305-.683,1.44072,1.44072,0,0,0-.79964-.21656,1.29085,1.29085,0,0,0-1.04953.44979,1.556,1.556,0,0,0-.24989.43314,1.33691,1.33691,0,0,0-.09995.49978c0,.66637.43313,1.19946,1.28275,1.59928l.833.39982a3.70791,3.70791,0,0,1,1.39937,1.01621,2.323,2.323,0,0,1,.48312,1.43269,2.52145,2.52145,0,0,1-.21657,1.04952,2.24632,2.24632,0,0,1-.93292,1.06619,2.76657,2.76657,0,0,1-1.44934.38316,3.664,3.664,0,0,1-1.466-.29987c-.24989-.1-.39982-.16659-.43314-.18325a.51354.51354,0,0,0-.16659-.01666.42443.42443,0,0,0-.39982.28321h-.0833V14.82418h.11662a3.90126,3.90126,0,0,0,.59973,1.2661,1.89422,1.89422,0,0,0,1.6326.99955,1.54471,1.54471,0,0,0,1.13282-.4498,1.56909,1.56909,0,0,0,.4498-1.16614,2.06907,2.06907,0,0,0-.1-.61639,1.60015,1.60015,0,0,0-.26654-.5331,2.55788,2.55788,0,0,0-.48312-.4498,9.74927,9.74927,0,0,0-.94957-.53309,7.06019,7.06019,0,0,1-.86628-.48312,2.46335,2.46335,0,0,1-.48311-.39982,1.98726,1.98726,0,0,1-.51644-1.366,2.31225,2.31225,0,0,1,.19991-.94957A2.37735,2.37735,0,0,1,21.491,9.36a2.14451,2.14451,0,0,1,1.49933-.58307,2.46911,2.46911,0,0,1,.51643.05,5.77452,5.77452,0,0,1,.63305.21657,3.63684,3.63684,0,0,0,.39982.14993.85955.85955,0,0,0,.18325.03332c.13327,0,.23323-.1.28321-.29986h.13327v2.149H25.0394c-.11662-.21656-.29987-.683-.29987-.683m2.982,6.66366v-.13327a1.38815,1.38815,0,0,0,.4498-.09995,1.0852,1.0852,0,0,0,.38316-.24989,1.16689,1.16689,0,0,0,.28321-.66637c.01665-.21656.03331-.4498.03331-.733V10.79266a4.848,4.848,0,0,0-.05-.783,1.289,1.289,0,0,0-.14994-.4498A.81179.81179,0,0,0,28.27127,9.21a1.13541,1.13541,0,0,0-.53309-.13327V8.9435H31.2366v.13327a1.38815,1.38815,0,0,0-.44979.09995.90191.90191,0,0,0-.3665.24989.848.848,0,0,0-.24989.48311,4.09972,4.09972,0,0,0-.06664.8996V15.174a4.00429,4.00429,0,0,0,.06664.89959,1.11324,1.11324,0,0,0,.24989.48311.90181.90181,0,0,0,.3665.24989,1.38812,1.38812,0,0,0,.44979.1v.13327l-3.51508.01666Zm9.89554-6.66366a2.848,2.848,0,0,0-.2832-.54975,2.11241,2.11241,0,0,0-.63305-.683,1.44072,1.44072,0,0,0-.79964-.21656,1.29085,1.29085,0,0,0-1.04953.44979,1.55626,1.55626,0,0,0-.24989.43314,1.33711,1.33711,0,0,0-.09995.49978c0,.66637.43314,1.19946,1.28276,1.59928l.833.39982a3.70783,3.70783,0,0,1,1.39937,1.01621A2.323,2.323,0,0,1,38.5,14.77421a2.52145,2.52145,0,0,1-.21657,1.04952,2.2463,2.2463,0,0,1-.93291,1.06619,2.76663,2.76663,0,0,1-1.44935.38316,3.664,3.664,0,0,1-1.466-.29987c-.24988-.1-.39982-.16659-.43313-.18325a.5136.5136,0,0,0-.1666-.01666.42443.42443,0,0,0-.39982.28321h-.08329V14.82418h.11661a3.90126,3.90126,0,0,0,.59973,1.2661,1.89422,1.89422,0,0,0,1.6326.99955,1.54468,1.54468,0,0,0,1.13282-.4498,1.56905,1.56905,0,0,0,.4498-1.16614,2.06907,2.06907,0,0,0-.1-.61639,1.6,1.6,0,0,0-.26654-.5331,2.55788,2.55788,0,0,0-.48312-.4498,8.06826,8.06826,0,0,0-.94957-.53309,7.06019,7.06019,0,0,1-.86628-.48312,2.46335,2.46335,0,0,1-.48311-.39982,1.98731,1.98731,0,0,1-.51644-1.366,2.31225,2.31225,0,0,1,.19991-.94957,2.37723,2.37723,0,0,1,.54976-.783,2.13354,2.13354,0,0,1,1.48266-.58307,2.58649,2.58649,0,0,1,.51644.05,4.78557,4.78557,0,0,1,.633.21657,3.63762,3.63762,0,0,0,.39982.14993.85966.85966,0,0,0,.18325.03332c.13328,0,.23323-.1.28321-.29986h.11661v2.149h-.09995c-.06664-.21656-.26655-.683-.26655-.683" style="fill: #ce0058"/>
  </g>
</svg>
