<svg id="Layer_1" data-name="Layer 1" xmlns="http://www.w3.org/2000/svg" viewBox="0 0 40 26">
  <title>c_invoice_1</title>
  <rect x="-0.27675" y="-0.15601" width="40.54078" height="26.26832" style="fill: #fff"/>
  <g>
    <path d="M14.012,21.4522V4.00563h6.48015a.49846.49846,0,0,1,.49846.49848V7.9934a.997.997,0,0,0,.997.997H25.4769a.49845.49845,0,0,1,.49848.49842l.00094,12.46188H14.51045a.49848.49848,0,0,1-.49848-.49847ZM21.98754,4.71049l3.2829,3.28291H22.486a.49845.49845,0,0,1-.49846-.49845V4.71049ZM26.68022,7.9934,21.98733,3.30058a.99646.99646,0,0,0-.70469-.29189H14.012a.99693.99693,0,0,0-.99694.99694v17.945a.99694.99694,0,0,0,.99694.997H25.97533a.99693.99693,0,0,0,.99693-.997V8.69855a.99743.99743,0,0,0-.292-.70515Z" style="fill: #0f0f0f"/>
    <path d="M23.98142,19.4583H16.00586a.49848.49848,0,0,0,0,.99695h7.97556a.49848.49848,0,1,0,0-.99695Z" style="fill: #0f0f0f"/>
    <path d="M23.98142,16.96592H16.00586a.49848.49848,0,0,0,0,.997h7.97556a.49848.49848,0,1,0,0-.997Z" style="fill: #0f0f0f"/>
    <path d="M23.98142,14.47357H16.00586a.49847.49847,0,1,0,0,.99693h7.97556a.49847.49847,0,1,0,0-.99693Z" style="fill: #0f0f0f"/>
    <path d="M16.00586,12.97815h7.97556a.49848.49848,0,1,0,0-.99695H16.00586a.49848.49848,0,0,0,0,.997Z" style="fill: #0f0f0f"/>
  </g>
</svg>
