<?xml version="1.0" encoding="UTF-8"?>
<svg width="40px" height="26px" viewBox="0 0 40 26" version="1.1" xmlns="http://www.w3.org/2000/svg" xmlns:xlink="http://www.w3.org/1999/xlink">
    <!-- Generator: Sketch 51.3 (57544) - http://www.bohemiancoding.com/sketch -->
    <title>Group</title>
    <desc>Created with Sketch.</desc>
    <defs>
        <polygon id="path-1" points="0 0 31.468 0 31.468 2.859375 0 2.859375"></polygon>
    </defs>
    <g id="Page-1" stroke="none" stroke-width="1" fill="none" fill-rule="evenodd">
        <g id="Group">
            <rect id="Rectangle-path" fill="#6180C3" fill-rule="nonzero" x="0" y="0" width="40" height="26"></rect>
            <g id="Group-3" transform="translate(4.000000, 12.000000)">
                <mask id="mask-2" fill="white">
                    <use xlink:href="#path-1"></use>
                </mask>
                <g id="Clip-2"></g>
                <path d="M30.38264,0 C30.73464,0 31.13304,0.13575 31.42344,0.3735 C31.45944,0.399 31.46824,0.45 31.43224,0.48375 L31.09784,0.8145 C31.06104,0.84 31.01624,0.84 30.97944,0.8145 C30.81704,0.67875 30.63544,0.6195 30.42824,0.6195 C29.96584,0.6195 29.59544,0.984 29.59544,1.425 C29.59544,1.8585 29.97464,2.21475 30.43624,2.21475 C30.56344,2.21475 30.68984,2.1975 30.81704,2.1465 L30.81704,1.91775 L30.54504,1.91775 C30.49944,1.91775 30.46424,1.884 30.46424,1.8495 L30.46424,1.4595 C30.46424,1.41675 30.49944,1.383 30.54504,1.383 L31.39624,1.383 C31.44104,1.383 31.46824,1.41675 31.46824,1.4595 L31.46824,2.52825 C31.46824,2.5455 31.45064,2.57925 31.43224,2.5965 C31.43224,2.5965 30.99784,2.85075 30.38264,2.85075 C29.54024,2.85075 28.86184,2.223 28.86184,1.425 C28.86184,0.62775 29.53224,0 30.38264,0 Z M25.81144,0.0675 C25.81144,0.0255 25.84824,0 25.89384,0 L26.00184,0 L27.69464,1.527 L27.69464,0.11025 C27.69464,0.0675 27.73064,0.03375 27.77544,0.03375 L28.28264,0.03375 C28.32824,0.03375 28.36424,0.0675 28.36424,0.11025 L28.36424,2.7915 C28.36424,2.8335 28.32824,2.85975 28.28264,2.85975 L28.20984,2.85975 C28.20104,2.85975 28.16504,2.85075 28.15624,2.8425 L26.48184,1.2645 L26.48184,2.74875 C26.48184,2.7915 26.44504,2.826 26.39944,2.826 L25.89384,2.826 C25.84824,2.826 25.81144,2.7915 25.81144,2.74875 L25.81144,0.0675 Z M24.47224,0.11025 C24.47224,0.0675 24.50824,0.03375 24.55384,0.03375 L25.06104,0.03375 C25.10584,0.03375 25.14184,0.0675 25.14184,0.11025 L25.14184,2.74875 C25.14184,2.7915 25.10584,2.826 25.06104,2.826 L24.55384,2.826 C24.50824,2.826 24.47224,2.7915 24.47224,2.74875 L24.47224,0.11025 Z M21.55864,0.13575 C21.55864,0.08475 21.60344,0.04275 21.65784,0.04275 L22.15544,0.04275 C22.20984,0.04275 22.25544,0.08475 22.25544,0.13575 L22.25544,1.17975 L23.19624,0.0765 C23.21464,0.05925 23.25064,0.03375 23.27784,0.03375 L23.81144,0.03375 C23.89304,0.03375 23.93784,0.1185 23.88424,0.1785 L22.88904,1.34925 L23.97464,2.67225 C24.02024,2.73225 23.97464,2.817 23.89304,2.817 L23.30424,2.817 C23.27784,2.817 23.23224,2.79975 23.23224,2.7915 L22.25544,1.54425 L22.25544,2.73225 C22.25544,2.78325 22.20984,2.826 22.15544,2.826 L21.65784,2.826 C21.59464,2.826 21.55864,2.78325 21.55864,2.73225 L21.55864,0.13575 Z M18.34504,0.0675 C18.34504,0.0255 18.38104,0 18.42664,0 L18.53464,0 L20.22824,1.527 L20.22824,0.11025 C20.22824,0.0675 20.26424,0.03375 20.30904,0.03375 L20.81624,0.03375 C20.86184,0.03375 20.89784,0.0675 20.89784,0.11025 L20.89784,2.7915 C20.89784,2.8335 20.86184,2.85975 20.81624,2.85975 L20.74344,2.85975 C20.73384,2.85975 20.69864,2.85075 20.68984,2.8425 L19.02424,1.2645 L19.02424,2.74875 C19.02424,2.7915 18.98824,2.826 18.94264,2.826 L18.43544,2.826 C18.39064,2.826 18.35464,2.7915 18.35464,2.74875 L18.34504,0.0675 Z M16.84264,1.86675 L16.51704,1.2135 L16.20024,1.86675 L16.84264,1.86675 Z M15.09624,2.724 L16.42664,0.04275 C16.43544,0.0165 16.47144,0 16.49944,0 L16.54424,0 C16.57144,0 16.60744,0.0165 16.61624,0.04275 L17.94664,2.724 C17.97384,2.77425 17.93784,2.826 17.87464,2.826 L17.40344,2.826 C17.33224,2.826 17.29544,2.79975 17.25944,2.724 L17.10504,2.40975 L15.94664,2.40975 L15.79304,2.73225 C15.77464,2.78325 15.72024,2.826 15.63944,2.826 L15.16824,2.826 C15.10504,2.826 15.06904,2.77425 15.09624,2.724 Z M13.82904,2.25675 C13.99224,2.25675 14.13704,2.13 14.13704,1.96875 C14.13704,1.8075 13.95544,1.68825 13.79304,1.68825 L13.44904,1.68825 L13.44904,2.25675 L13.82904,2.25675 Z M13.77464,1.17075 C13.93784,1.17075 14.07304,1.044 14.07304,0.88275 C14.07304,0.72075 13.93784,0.6105 13.77464,0.6105 L13.44024,0.6105 L13.44024,1.17075 L13.77464,1.17075 Z M12.77944,0.11025 C12.77944,0.0675 12.81544,0.03375 12.86104,0.03375 L13.84744,0.03375 C14.34504,0.03375 14.76104,0.35625 14.76104,0.77175 C14.76104,1.07775 14.47144,1.29825 14.27224,1.40025 C14.49864,1.485 14.84264,1.68 14.84264,2.04525 C14.84264,2.4945 14.42664,2.817 13.91944,2.817 L12.86984,2.817 C12.82424,2.817 12.78824,2.78325 12.78824,2.7405 L12.78824,0.11025 L12.77944,0.11025 Z M8.55224,0.0675 C8.55224,0.0255 8.58904,0 8.63384,0 L8.74264,0 L10.43464,1.527 L10.43464,0.11025 C10.43464,0.0675 10.47144,0.03375 10.51624,0.03375 L11.02344,0.03375 C11.06824,0.03375 11.10504,0.0675 11.10504,0.11025 L11.10504,2.7915 C11.10504,2.8335 11.06824,2.85975 11.02344,2.85975 L10.95064,2.85975 C10.94184,2.85975 10.90584,2.85075 10.89704,2.8425 L9.23144,1.2645 L9.23144,2.74875 C9.23144,2.7915 9.19544,2.826 9.14984,2.826 L8.64344,2.826 C8.59784,2.826 8.56184,2.7915 8.56184,2.74875 L8.55224,0.0675 Z M6.07304,0.11025 C6.07304,0.0675 6.10904,0.03375 6.15384,0.03375 L7.90984,0.03375 C7.95544,0.03375 7.99144,0.0675 7.99144,0.11025 L7.99144,0.543 C7.99144,0.58575 7.95544,0.6195 7.90984,0.6195 L6.73304,0.6195 L6.73304,1.1115 L7.70184,1.1115 C7.74744,1.1115 7.78344,1.14525 7.78344,1.188 L7.78344,1.62075 C7.78344,1.6635 7.74744,1.69725 7.70184,1.69725 L6.73304,1.69725 L6.73304,2.232 L7.90984,2.232 C7.95544,2.232 7.99144,2.26575 7.99144,2.30775 L7.99144,2.7405 C7.99144,2.78325 7.95544,2.817 7.90984,2.817 L6.15384,2.817 C6.10904,2.817 6.07304,2.78325 6.07304,2.7405 L6.07304,0.11025 Z M4.61624,1.23075 C4.79704,1.23075 4.95064,1.09425 4.95064,0.9165 C4.95064,0.747 4.79704,0.6195 4.61624,0.6195 L4.20824,0.6195 L4.20824,1.23075 L4.61624,1.23075 Z M3.54824,0.11025 C3.54824,0.0675 3.58344,0.03375 3.62904,0.03375 L4.65144,0.03375 C5.17704,0.03375 5.60184,0.43275 5.60184,0.9165 C5.60184,1.4085 5.17704,1.81575 4.65144,1.81575 L4.20824,1.81575 L4.20824,2.74875 C4.20824,2.7915 4.17224,2.826 4.12664,2.826 L3.62904,2.826 C3.58344,2.826 3.54824,2.7915 3.54824,2.74875 L3.54824,0.11025 Z M1.52024,2.232 C1.99144,2.232 2.37144,1.875 2.37144,1.44225 C2.37144,1.00125 1.99144,0.645 1.52024,0.645 C1.05864,0.645 0.67864,1.0095 0.67864,1.44225 C0.67864,1.86675 1.05864,2.232 1.52024,2.232 Z M1.52024,0 C2.37144,0 3.04984,0.645 3.04984,1.434 C3.04984,2.223 2.37144,2.85975 1.52024,2.85975 C0.66984,2.85975 -0.00056,2.223 -0.00056,1.434 C-0.00056,0.645 0.66984,0 1.52024,0 Z" id="Fill-1" fill="#FFFFFF" mask="url(#mask-2)"></path>
            </g>
        </g>
    </g>
</svg>