<svg id="Layer_1" data-name="Layer 1" xmlns="http://www.w3.org/2000/svg" viewBox="0 0 40 26">
  <title>oxxo</title>
  <rect id="Rectangle" x="0.00009" width="39.99991" height="26" style="fill: #eda42d"/>
  <g id="Page-1">
    <polygon id="Fill-4" points="0 20.666 40.043 20.666 40.043 5.613 0 5.613 0 20.666" style="fill: #fefefe"/>
    <path id="Fill-6" d="M33.93517,9.52263A3.37559,3.37559,0,1,0,37.26029,12.898a3.35681,3.35681,0,0,0-3.32512-3.37532" style="fill: #ed1c24"/>
    <path id="Fill-7" d="M6.52549,9.52263A3.37559,3.37559,0,1,0,9.85061,12.898,3.35686,3.35686,0,0,0,6.52549,9.52263" style="fill: #ed1c24"/>
    <path id="Fill-8" d="M33.93517,18.23051A5.3331,5.3331,0,1,1,39.189,12.89812a5.30379,5.30379,0,0,1-5.25379,5.33239ZM11.779,12.89812a5.30341,5.30341,0,0,1-5.25357,5.33239,5.3331,5.3331,0,0,1,0-10.665A5.30317,5.30317,0,0,1,11.779,12.89812Zm21.89534-6.346c-3.0786-.07192-4.52585,1.93163-6.62631,4.40277l-1.98154,2.33077,3.13783,3.81239c.74755,1.17152-.6792,2.334-1.56436,1.26217L23.7388,14.848,20.912,18.17409c-.90021,1.05866-2.31077-.12418-1.54728-1.2846l3.0688-3.62184L20.423,10.83328l1.29345-1.62569,2.04465,2.49288,1.76236-2.08079a13.99456,13.99456,0,0,1,2.88994-3.06753H0V19.72763H6.64317c3.07883,0,4.47663-1.8685,6.52014-4.38774l1.92823-2.37726L11.86735,9.22517c-.77329-1.15371.62634-2.349,1.53588-1.29824l2.97971,3.44355L19.13413,7.979C20.01,6.899,21.44672,8.049,20.70988,9.227L17.724,12.92032l2.06538,2.3865L18.488,16.871l-2.05581-2.35343-1.71451,2.121a13.77471,13.77471,0,0,1-2.82045,3.089H40.04269V6.55215Z" style="fill: #ed1c24"/>
  </g>
</svg>
