<svg id="Layer_1" data-name="Layer 1" xmlns="http://www.w3.org/2000/svg" xmlns:xlink="http://www.w3.org/1999/xlink" viewBox="0 0 40 26">
  <defs>
    <mask id="mask" x="-0.5086" y="-0.12481" width="41.17129" height="25.96958" maskUnits="userSpaceOnUse">
      <g id="mask-2">
        <rect id="path-1" x="-0.5086" y="-0.12481" width="41.17129" height="25.96958" rx="2.53362" ry="2.53362" style="fill: #fff"/>
      </g>
    </mask>
    <mask id="mask-2-2" x="32.97989" y="6.93762" width="1.82807" height="1.85367" maskUnits="userSpaceOnUse">
      <g id="mask-4">
        <polygon id="path-3" points="34.808 8.791 34.808 6.938 32.98 6.938 32.98 8.791 34.808 8.791" style="fill: #fff"/>
      </g>
    </mask>
    <mask id="mask-3" x="5.19204" y="9.38558" width="26.54168" height="11.146" maskUnits="userSpaceOnUse">
      <g id="mask-6">
        <path id="path-5" d="M31.73372,14.26724v.49491a3.36679,3.36679,0,0,1-.4778,1.83659A3.81983,3.81983,0,0,1,27.796,18.07056l-.00614-.00011-.00614.00011a3.82,3.82,0,0,1-3.45994-1.47182,3.36762,3.36762,0,0,1-.4777-1.83659V10.2484c0-.72933.29615-.86127,1.09273-.86127h.25078c.79647,0,1.09262.13194,1.09262.86127v1.70638l.00051.01081v.374l.00113.03839v2.38414a1.2808,1.2808,0,0,0,.17131.7038c.2172.33594.64708.48868,1.3347.48961.688-.00093,1.11791-.15387,1.335-.49013a1.2804,1.2804,0,0,0,.17111-.70328V12.378l.001-.03839v-.374l.00052-.01081V10.2484c0-.72933.29624-.86127,1.09282-.86127h.25058c.79658,0,1.09282.13194,1.09282.86127v4.01884ZM6.66436,9.38558c-1.01827,0-1.47232.45627-1.47232,1.47964V17.4386c0,.39533.12626.52224.51958.52224h.12872c.39343,0,.51969-.12691.51969-.52224V14.88123H8.56964c1.9618,0,2.87553-.87321,2.87553-2.74787s-.91373-2.74778-2.87553-2.74778ZM6.36,11.02054c0-.38329.14182-.52584.52316-.52584H8.56964c1.08146,0,1.70754.26811,1.70754,1.63866,0,1.07113-.27208,1.65152-1.70754,1.65152H6.36V11.02054Zm6.13127.38123c-.31775.06937-.45067.15706-.45067.52028v.10354a.56689.56689,0,0,0,.06595.31032.278.278,0,0,0,.25068.12176.81767.81767,0,0,0,.19712-.02871,6.85556,6.85556,0,0,1,1.39624-.13988c1.13973,0,1.60453.31732,1.60453,1.09522v.694H14.11794c-1.84752,0-2.7081.6264-2.7081,1.97152,0,1.30477.88864,2.02319,2.50218,2.02319,1.91746,0,2.77251-.65584,2.77251-2.12673v-2.562c0-1.42242-.91106-2.11386-2.78542-2.11386a6.7906,6.7906,0,0,0-1.40781.13133Zm.04793,4.64807c0-.75084.44626-1.04335,1.59162-1.04335h1.4243v.901c0,.73468-.271,1.15986-1.656,1.15986-.91505,0-1.35988-.33286-1.35988-1.01751Zm9.95933-4.58992a.52655.52655,0,0,0-.62034.49l-1.06846,4.46384c-.13332.54859-.32061.64894-.64134.64894-.3926,0-.54979-.09418-.70636-.651L18.252,11.94789a.54079.54079,0,0,0-.63254-.488h-.10312a.47413.47413,0,0,0-.38912.11836.48689.48689,0,0,0-.01167.41263l1.22287,4.50253c.22938.86169.50218,1.575,1.52107,1.575a1.61427,1.61427,0,0,0,.51242-.07616c-.309.977-.62342,1.4079-1.55046,1.50342-.18821.01575-.31038.04281-.37858.13462a.44658.44658,0,0,0-.02929.35334l.0255.11548c.0553.26709.14961.43249.4478.43249.03124,0,.065-.00154.10118-.00483,1.38426-.091,2.12595-.84007,2.56-2.58536l1.48082-5.95367a.49377.49377,0,0,0-.02488-.41088.48183.48183,0,0,0-.38954-.11692Z" style="fill: #fff"/>
      </g>
    </mask>
    <mask id="mask-122" x="5.19204" y="9.38558" width="26.54168" height="11.20519" maskUnits="userSpaceOnUse">
      <g id="mask-6-121" data-name="mask-6">
        <path id="path-5-120" data-name="path-5" d="M31.73372,14.26724v.49491a3.36679,3.36679,0,0,1-.4778,1.83659A3.81983,3.81983,0,0,1,27.796,18.07056l-.00614-.00011-.00614.00011a3.82,3.82,0,0,1-3.45994-1.47182,3.36762,3.36762,0,0,1-.4777-1.83659V10.2484c0-.72933.29615-.86127,1.09273-.86127h.25078c.79647,0,1.09262.13194,1.09262.86127v1.70638l.00051.01081v.374l.00113.03839v2.38414a1.2808,1.2808,0,0,0,.17131.7038c.2172.33594.64708.48868,1.3347.48961.688-.00093,1.11791-.15387,1.335-.49013a1.2804,1.2804,0,0,0,.17111-.70328V12.378l.001-.03839v-.374l.00052-.01081V10.2484c0-.72933.29624-.86127,1.09282-.86127h.25058c.79658,0,1.09282.13194,1.09282.86127v4.01884ZM6.66436,9.38558c-1.01827,0-1.47232.45627-1.47232,1.47964V17.4386c0,.39533.12626.52224.51958.52224h.12872c.39343,0,.51969-.12691.51969-.52224V14.88123H8.56964c1.9618,0,2.87553-.87321,2.87553-2.74787s-.91373-2.74778-2.87553-2.74778ZM6.36,11.02054c0-.38329.14182-.52584.52316-.52584H8.56964c1.08146,0,1.70754.26811,1.70754,1.63866,0,1.07113-.27208,1.65152-1.70754,1.65152H6.36V11.02054Zm6.13127.38123c-.31775.06937-.45067.15706-.45067.52028v.10354a.56689.56689,0,0,0,.06595.31032.278.278,0,0,0,.25068.12176.81767.81767,0,0,0,.19712-.02871,6.85556,6.85556,0,0,1,1.39624-.13988c1.13973,0,1.60453.31732,1.60453,1.09522v.694H14.11794c-1.84752,0-2.7081.6264-2.7081,1.97152,0,1.30477.88864,2.02319,2.50218,2.02319,1.91746,0,2.77251-.65584,2.77251-2.12673v-2.562c0-1.42242-.91106-2.11386-2.78542-2.11386a6.7906,6.7906,0,0,0-1.40781.13133Zm.04793,4.64807c0-.75084.44626-1.04335,1.59162-1.04335h1.4243v.901c0,.73468-.271,1.15986-1.656,1.15986-.91505,0-1.35988-.33286-1.35988-1.01751Zm9.95933-4.58992a.52655.52655,0,0,0-.62034.49l-1.06846,4.46384c-.13332.54859-.32061.64894-.64134.64894-.3926,0-.54979-.09418-.70636-.651L18.252,11.94789a.54079.54079,0,0,0-.63254-.488h-.10312a.47413.47413,0,0,0-.38912.11836.48689.48689,0,0,0-.01167.41263l1.22287,4.50253c.22938.86169.50218,1.575,1.52107,1.575a1.61427,1.61427,0,0,0,.51242-.07616c-.309.977-.62342,1.4079-1.55046,1.50342-.18821.01575-.31038.04281-.37858.13462a.44658.44658,0,0,0-.02929.35334l.0255.11548c.0553.26709.14961.43249.4478.43249.03124,0,.065-.00154.10118-.00483,1.38426-.091,2.12595-.84007,2.56-2.58536l1.48082-5.95367a.49377.49377,0,0,0-.02488-.41088.48183.48183,0,0,0-.38954-.11692Z" style="fill: #fff"/>
      </g>
    </mask>
    <mask id="mask-123" x="5.19204" y="9.38558" width="26.54168" height="11.33261" maskUnits="userSpaceOnUse">
      <g id="mask-6-122" data-name="mask-6">
        <path id="path-5-121" data-name="path-5" d="M31.73372,14.26724v.49491a3.36679,3.36679,0,0,1-.4778,1.83659A3.81983,3.81983,0,0,1,27.796,18.07056l-.00614-.00011-.00614.00011a3.82,3.82,0,0,1-3.45994-1.47182,3.36762,3.36762,0,0,1-.4777-1.83659V10.2484c0-.72933.29615-.86127,1.09273-.86127h.25078c.79647,0,1.09262.13194,1.09262.86127v1.70638l.00051.01081v.374l.00113.03839v2.38414a1.2808,1.2808,0,0,0,.17131.7038c.2172.33594.64708.48868,1.3347.48961.688-.00093,1.11791-.15387,1.335-.49013a1.2804,1.2804,0,0,0,.17111-.70328V12.378l.001-.03839v-.374l.00052-.01081V10.2484c0-.72933.29624-.86127,1.09282-.86127h.25058c.79658,0,1.09282.13194,1.09282.86127v4.01884ZM6.66436,9.38558c-1.01827,0-1.47232.45627-1.47232,1.47964V17.4386c0,.39533.12626.52224.51958.52224h.12872c.39343,0,.51969-.12691.51969-.52224V14.88123H8.56964c1.9618,0,2.87553-.87321,2.87553-2.74787s-.91373-2.74778-2.87553-2.74778ZM6.36,11.02054c0-.38329.14182-.52584.52316-.52584H8.56964c1.08146,0,1.70754.26811,1.70754,1.63866,0,1.07113-.27208,1.65152-1.70754,1.65152H6.36V11.02054Zm6.13127.38123c-.31775.06937-.45067.15706-.45067.52028v.10354a.56689.56689,0,0,0,.06595.31032.278.278,0,0,0,.25068.12176.81767.81767,0,0,0,.19712-.02871,6.85556,6.85556,0,0,1,1.39624-.13988c1.13973,0,1.60453.31732,1.60453,1.09522v.694H14.11794c-1.84752,0-2.7081.6264-2.7081,1.97152,0,1.30477.88864,2.02319,2.50218,2.02319,1.91746,0,2.77251-.65584,2.77251-2.12673v-2.562c0-1.42242-.91106-2.11386-2.78542-2.11386a6.7906,6.7906,0,0,0-1.40781.13133Zm.04793,4.64807c0-.75084.44626-1.04335,1.59162-1.04335h1.4243v.901c0,.73468-.271,1.15986-1.656,1.15986-.91505,0-1.35988-.33286-1.35988-1.01751Zm9.95933-4.58992a.52655.52655,0,0,0-.62034.49l-1.06846,4.46384c-.13332.54859-.32061.64894-.64134.64894-.3926,0-.54979-.09418-.70636-.651L18.252,11.94789a.54079.54079,0,0,0-.63254-.488h-.10312a.47413.47413,0,0,0-.38912.11836.48689.48689,0,0,0-.01167.41263l1.22287,4.50253c.22938.86169.50218,1.575,1.52107,1.575a1.61427,1.61427,0,0,0,.51242-.07616c-.309.977-.62342,1.4079-1.55046,1.50342-.18821.01575-.31038.04281-.37858.13462a.44658.44658,0,0,0-.02929.35334l.0255.11548c.0553.26709.14961.43249.4478.43249.03124,0,.065-.00154.10118-.00483,1.38426-.091,2.12595-.84007,2.56-2.58536l1.48082-5.95367a.49377.49377,0,0,0-.02488-.41088.48183.48183,0,0,0-.38954-.11692Z" style="fill: #fff"/>
      </g>
    </mask>
    <mask id="mask-124" x="5.19204" y="9.38558" width="26.54168" height="11.15303" maskUnits="userSpaceOnUse">
      <g id="mask-6-123" data-name="mask-6">
        <path id="path-5-122" data-name="path-5" d="M31.73372,14.26724v.49491a3.36679,3.36679,0,0,1-.4778,1.83659A3.81983,3.81983,0,0,1,27.796,18.07056l-.00614-.00011-.00614.00011a3.82,3.82,0,0,1-3.45994-1.47182,3.36762,3.36762,0,0,1-.4777-1.83659V10.2484c0-.72933.29615-.86127,1.09273-.86127h.25078c.79647,0,1.09262.13194,1.09262.86127v1.70638l.00051.01081v.374l.00113.03839v2.38414a1.2808,1.2808,0,0,0,.17131.7038c.2172.33594.64708.48868,1.3347.48961.688-.00093,1.11791-.15387,1.335-.49013a1.2804,1.2804,0,0,0,.17111-.70328V12.378l.001-.03839v-.374l.00052-.01081V10.2484c0-.72933.29624-.86127,1.09282-.86127h.25058c.79658,0,1.09282.13194,1.09282.86127v4.01884ZM6.66436,9.38558c-1.01827,0-1.47232.45627-1.47232,1.47964V17.4386c0,.39533.12626.52224.51958.52224h.12872c.39343,0,.51969-.12691.51969-.52224V14.88123H8.56964c1.9618,0,2.87553-.87321,2.87553-2.74787s-.91373-2.74778-2.87553-2.74778ZM6.36,11.02054c0-.38329.14182-.52584.52316-.52584H8.56964c1.08146,0,1.70754.26811,1.70754,1.63866,0,1.07113-.27208,1.65152-1.70754,1.65152H6.36V11.02054Zm6.13127.38123c-.31775.06937-.45067.15706-.45067.52028v.10354a.56689.56689,0,0,0,.06595.31032.278.278,0,0,0,.25068.12176.81767.81767,0,0,0,.19712-.02871,6.85556,6.85556,0,0,1,1.39624-.13988c1.13973,0,1.60453.31732,1.60453,1.09522v.694H14.11794c-1.84752,0-2.7081.6264-2.7081,1.97152,0,1.30477.88864,2.02319,2.50218,2.02319,1.91746,0,2.77251-.65584,2.77251-2.12673v-2.562c0-1.42242-.91106-2.11386-2.78542-2.11386a6.7906,6.7906,0,0,0-1.40781.13133Zm.04793,4.64807c0-.75084.44626-1.04335,1.59162-1.04335h1.4243v.901c0,.73468-.271,1.15986-1.656,1.15986-.91505,0-1.35988-.33286-1.35988-1.01751Zm9.95933-4.58992a.52655.52655,0,0,0-.62034.49l-1.06846,4.46384c-.13332.54859-.32061.64894-.64134.64894-.3926,0-.54979-.09418-.70636-.651L18.252,11.94789a.54079.54079,0,0,0-.63254-.488h-.10312a.47413.47413,0,0,0-.38912.11836.48689.48689,0,0,0-.01167.41263l1.22287,4.50253c.22938.86169.50218,1.575,1.52107,1.575a1.61427,1.61427,0,0,0,.51242-.07616c-.309.977-.62342,1.4079-1.55046,1.50342-.18821.01575-.31038.04281-.37858.13462a.44658.44658,0,0,0-.02929.35334l.0255.11548c.0553.26709.14961.43249.4478.43249.03124,0,.065-.00154.10118-.00483,1.38426-.091,2.12595-.84007,2.56-2.58536l1.48082-5.95367a.49377.49377,0,0,0-.02488-.41088.48183.48183,0,0,0-.38954-.11692Z" style="fill: #fff"/>
      </g>
    </mask>
    <mask id="mask-211" x="5.19204" y="9.38548" width="26.54168" height="11.1461" maskUnits="userSpaceOnUse">
      <g id="mask-6-210" data-name="mask-6">
        <path id="path-5-209" data-name="path-5" d="M31.73372,14.26724v.49491a3.36679,3.36679,0,0,1-.4778,1.83659A3.81983,3.81983,0,0,1,27.796,18.07056l-.00614-.00011-.00614.00011a3.82,3.82,0,0,1-3.45994-1.47182,3.36762,3.36762,0,0,1-.4777-1.83659V10.2484c0-.72933.29615-.86127,1.09273-.86127h.25078c.79647,0,1.09262.13194,1.09262.86127v1.70638l.00051.01081v.374l.00113.03839v2.38414a1.2808,1.2808,0,0,0,.17131.7038c.2172.33594.64708.48868,1.3347.48961.688-.00093,1.11791-.15387,1.335-.49013a1.2804,1.2804,0,0,0,.17111-.70328V12.378l.001-.03839v-.374l.00052-.01081V10.2484c0-.72933.29624-.86127,1.09282-.86127h.25058c.79658,0,1.09282.13194,1.09282.86127v4.01884ZM6.66436,9.38558c-1.01827,0-1.47232.45627-1.47232,1.47964V17.4386c0,.39533.12626.52224.51958.52224h.12872c.39343,0,.51969-.12691.51969-.52224V14.88123H8.56964c1.9618,0,2.87553-.87321,2.87553-2.74787s-.91373-2.74778-2.87553-2.74778ZM6.36,11.02054c0-.38329.14182-.52584.52316-.52584H8.56964c1.08146,0,1.70754.26811,1.70754,1.63866,0,1.07113-.27208,1.65152-1.70754,1.65152H6.36V11.02054Zm6.13127.38123c-.31775.06937-.45067.15706-.45067.52028v.10354a.56689.56689,0,0,0,.06595.31032.278.278,0,0,0,.25068.12176.81767.81767,0,0,0,.19712-.02871,6.85556,6.85556,0,0,1,1.39624-.13988c1.13973,0,1.60453.31732,1.60453,1.09522v.694H14.11794c-1.84752,0-2.7081.6264-2.7081,1.97152,0,1.30477.88864,2.02319,2.50218,2.02319,1.91746,0,2.77251-.65584,2.77251-2.12673v-2.562c0-1.42242-.91106-2.11386-2.78542-2.11386a6.7906,6.7906,0,0,0-1.40781.13133Zm.04793,4.64807c0-.75084.44626-1.04335,1.59162-1.04335h1.4243v.901c0,.73468-.271,1.15986-1.656,1.15986-.91505,0-1.35988-.33286-1.35988-1.01751Zm9.95933-4.58992a.52655.52655,0,0,0-.62034.49l-1.06846,4.46384c-.13332.54859-.32061.64894-.64134.64894-.3926,0-.54979-.09418-.70636-.651L18.252,11.94789a.54079.54079,0,0,0-.63254-.488h-.10312a.47413.47413,0,0,0-.38912.11836.48689.48689,0,0,0-.01167.41263l1.22287,4.50253c.22938.86169.50218,1.575,1.52107,1.575a1.61427,1.61427,0,0,0,.51242-.07616c-.309.977-.62342,1.4079-1.55046,1.50342-.18821.01575-.31038.04281-.37858.13462a.44658.44658,0,0,0-.02929.35334l.0255.11548c.0553.26709.14961.43249.4478.43249.03124,0,.065-.00154.10118-.00483,1.38426-.091,2.12595-.84007,2.56-2.58536l1.48082-5.95367a.49377.49377,0,0,0-.02488-.41088.48183.48183,0,0,0-.38954-.11692Z" style="fill: #fff"/>
      </g>
    </mask>
  </defs>
  <title>pay_u</title>
  <g id="Page-1">
    <g id="pay-u-65x41">
      <rect width="40" height="26" style="fill: #fff"/>
      <g style="mask: url(#mask)">
        <g id="Page-1-2" data-name="Page-1">
          <g>
            <g id="Group-6">
              <g id="Group-3">
                <g style="mask: url(#mask-2-2)">
                  <path id="Fill-1" d="M34.54868,8.79129l-1.31012-.00041a.25952.25952,0,0,1-.25867-.26019l.00052-1.33308a.25936.25936,0,0,1,.25876-.26L34.5493,6.938a.25951.25951,0,0,1,.25866.26019l-.00051,1.33308a.25936.25936,0,0,1-.25877.26" style="fill: #bbce00"/>
                </g>
              </g>
              <path id="Fill-4" d="M32.80291,6.93776l-.88976-.00031a.17622.17622,0,0,1-.17572-.17672l.00031-.90543a.17625.17625,0,0,1,.17582-.17651l.88976.00031a.17621.17621,0,0,1,.17572.17672l-.0003.90542a.17627.17627,0,0,1-.17583.17652" style="fill: #bbce00"/>
            </g>
            <g id="Group-266">
              <g style="mask: url(#mask-3)">
                <polygon id="Fill-7" points="23.846 11.738 31.734 11.738 31.734 9.387 23.846 9.387 23.846 11.738" style="fill: #bbce00"/>
              </g>
              <g style="mask: url(#mask-3)">
                <polygon id="Fill-9" points="23.846 12.054 31.734 12.054 31.734 11.738 23.846 11.738 23.846 12.054" style="fill: #bbce00"/>
              </g>
              <g style="mask: url(#mask-3)">
                <polygon id="Fill-10" points="23.846 12.182 31.734 12.182 31.734 11.865 23.846 11.865 23.846 12.182" style="fill: #bace00"/>
              </g>
              <g style="mask: url(#mask-3)">
                <polygon id="Fill-11" points="23.846 12.309 31.734 12.309 31.734 11.993 23.846 11.993 23.846 12.309" style="fill: #b8cd00"/>
              </g>
              <g style="mask: url(#mask-3)">
                <polygon id="Fill-12" points="23.846 12.437 31.734 12.437 31.734 12.12 23.846 12.12 23.846 12.437" style="fill: #b7cc00"/>
              </g>
              <g style="mask: url(#mask-3)">
                <polygon id="Fill-13" points="23.846 12.564 31.734 12.564 31.734 12.247 23.846 12.247 23.846 12.564" style="fill: #b6cb00"/>
              </g>
              <g style="mask: url(#mask-3)">
                <polygon id="Fill-14" points="23.846 12.692 31.734 12.692 31.734 12.375 23.846 12.375 23.846 12.692" style="fill: #b4cb01"/>
              </g>
              <g style="mask: url(#mask-3)">
                <polygon id="Fill-15" points="23.846 12.819 31.734 12.819 31.734 12.502 23.846 12.502 23.846 12.819" style="fill: #b3ca03"/>
              </g>
              <g style="mask: url(#mask-3)">
                <polygon id="Fill-16" points="23.846 12.946 31.734 12.946 31.734 12.63 23.846 12.63 23.846 12.946" style="fill: #b2c904"/>
              </g>
              <g style="mask: url(#mask-3)">
                <polygon id="Fill-17" points="23.846 13.074 31.734 13.074 31.734 12.757 23.846 12.757 23.846 13.074" style="fill: #b0c806"/>
              </g>
              <g style="mask: url(#mask-3)">
                <polygon id="Fill-18" points="23.846 13.201 31.734 13.201 31.734 12.884 23.846 12.884 23.846 13.201" style="fill: #afc707"/>
              </g>
              <g style="mask: url(#mask-3)">
                <polygon id="Fill-19" points="23.846 13.329 31.734 13.329 31.734 13.012 23.846 13.012 23.846 13.329" style="fill: #aec708"/>
              </g>
              <g style="mask: url(#mask-3)">
                <polygon id="Fill-20" points="23.846 13.456 31.734 13.456 31.734 13.139 23.846 13.139 23.846 13.456" style="fill: #acc60a"/>
              </g>
              <g style="mask: url(#mask-3)">
                <polygon id="Fill-21" points="23.846 13.583 31.734 13.583 31.734 13.267 23.846 13.267 23.846 13.583" style="fill: #abc50b"/>
              </g>
              <g style="mask: url(#mask-3)">
                <polygon id="Fill-22" points="23.846 13.711 31.734 13.711 31.734 13.394 23.846 13.394 23.846 13.711" style="fill: #aac40c"/>
              </g>
              <g style="mask: url(#mask-3)">
                <polygon id="Fill-23" points="23.846 13.838 31.734 13.838 31.734 13.521 23.846 13.521 23.846 13.838" style="fill: #a8c30d"/>
              </g>
              <g style="mask: url(#mask-3)">
                <polygon id="Fill-24" points="23.846 13.966 31.734 13.966 31.734 13.649 23.846 13.649 23.846 13.966" style="fill: #a7c30f"/>
              </g>
              <g style="mask: url(#mask-3)">
                <polygon id="Fill-25" points="23.846 14.093 31.734 14.093 31.734 13.776 23.846 13.776 23.846 14.093" style="fill: #a6c210"/>
              </g>
              <g style="mask: url(#mask-3)">
                <polygon id="Fill-26" points="23.846 14.22 31.734 14.22 31.734 13.904 23.846 13.904 23.846 14.22" style="fill: #a4c110"/>
              </g>
              <g style="mask: url(#mask-3)">
                <polygon id="Fill-27" points="23.846 14.348 31.734 14.348 31.734 14.031 23.846 14.031 23.846 14.348" style="fill: #a3c011"/>
              </g>
              <g style="mask: url(#mask-3)">
                <polygon id="Fill-28" points="23.846 14.475 31.734 14.475 31.734 14.158 23.846 14.158 23.846 14.475" style="fill: #a2c012"/>
              </g>
              <g style="mask: url(#mask-3)">
                <polygon id="Fill-29" points="23.846 14.603 31.734 14.603 31.734 14.286 23.846 14.286 23.846 14.603" style="fill: #a0bf13"/>
              </g>
              <g style="mask: url(#mask-3)">
                <polygon id="Fill-30" points="23.846 14.73 31.734 14.73 31.734 14.413 23.846 14.413 23.846 14.73" style="fill: #9fbe14"/>
              </g>
              <g style="mask: url(#mask-3)">
                <polygon id="Fill-31" points="23.846 14.857 31.734 14.857 31.734 14.541 23.846 14.541 23.846 14.857" style="fill: #9ebd14"/>
              </g>
              <g style="mask: url(#mask-3)">
                <polygon id="Fill-32" points="23.846 14.985 31.734 14.985 31.734 14.668 23.846 14.668 23.846 14.985" style="fill: #9dbd15"/>
              </g>
              <g style="mask: url(#mask-3)">
                <polygon id="Fill-33" points="23.846 15.112 31.734 15.112 31.734 14.795 23.846 14.795 23.846 15.112" style="fill: #9cbc15"/>
              </g>
              <g style="mask: url(#mask-3)">
                <polygon id="Fill-34" points="23.846 15.24 31.734 15.24 31.734 14.923 23.846 14.923 23.846 15.24" style="fill: #9abb16"/>
              </g>
              <g style="mask: url(#mask-3)">
                <polygon id="Fill-35" points="23.846 15.367 31.734 15.367 31.734 15.05 23.846 15.05 23.846 15.367" style="fill: #99bb17"/>
              </g>
              <g style="mask: url(#mask-3)">
                <polygon id="Fill-36" points="23.846 15.494 31.734 15.494 31.734 15.178 23.846 15.178 23.846 15.494" style="fill: #98ba17"/>
              </g>
              <g style="mask: url(#mask-3)">
                <polygon id="Fill-37" points="23.846 15.622 31.734 15.622 31.734 15.305 23.846 15.305 23.846 15.622" style="fill: #96b918"/>
              </g>
              <g style="mask: url(#mask-3)">
                <polygon id="Fill-38" points="23.846 15.749 31.734 15.749 31.734 15.433 23.846 15.433 23.846 15.749" style="fill: #95b818"/>
              </g>
              <g style="mask: url(#mask-3)">
                <polygon id="Fill-39" points="23.846 15.877 31.734 15.877 31.734 15.56 23.846 15.56 23.846 15.877" style="fill: #94b819"/>
              </g>
              <g style="mask: url(#mask-3)">
                <polygon id="Fill-40" points="23.846 16.004 31.734 16.004 31.734 15.687 23.846 15.687 23.846 16.004" style="fill: #93b719"/>
              </g>
              <g style="mask: url(#mask-3)">
                <polygon id="Fill-41" points="23.846 16.131 31.734 16.131 31.734 15.815 23.846 15.815 23.846 16.131" style="fill: #91b61a"/>
              </g>
              <g style="mask: url(#mask-3)">
                <polygon id="Fill-42" points="23.846 16.259 31.734 16.259 31.734 15.942 23.846 15.942 23.846 16.259" style="fill: #90b51a"/>
              </g>
              <g style="mask: url(#mask-3)">
                <polygon id="Fill-43" points="23.846 16.386 31.734 16.386 31.734 16.07 23.846 16.07 23.846 16.386" style="fill: #8fb51b"/>
              </g>
              <g style="mask: url(#mask-3)">
                <polygon id="Fill-44" points="23.846 16.514 31.734 16.514 31.734 16.197 23.846 16.197 23.846 16.514" style="fill: #8db41b"/>
              </g>
              <g style="mask: url(#mask-3)">
                <polygon id="Fill-45" points="23.846 16.641 31.734 16.641 31.734 16.324 23.846 16.324 23.846 16.641" style="fill: #8cb31c"/>
              </g>
              <g style="mask: url(#mask-3)">
                <polygon id="Fill-46" points="23.846 16.769 31.734 16.769 31.734 16.452 23.846 16.452 23.846 16.769" style="fill: #8bb21c"/>
              </g>
              <g style="mask: url(#mask-3)">
                <polygon id="Fill-47" points="23.846 16.896 31.734 16.896 31.734 16.579 23.846 16.579 23.846 16.896" style="fill: #89b21d"/>
              </g>
              <g style="mask: url(#mask-3)">
                <polygon id="Fill-48" points="23.846 17.023 31.734 17.023 31.734 16.707 23.846 16.707 23.846 17.023" style="fill: #88b11d"/>
              </g>
              <g style="mask: url(#mask-3)">
                <polygon id="Fill-49" points="23.846 17.151 31.734 17.151 31.734 16.834 23.846 16.834 23.846 17.151" style="fill: #86b01e"/>
              </g>
              <g style="mask: url(#mask-3)">
                <polygon id="Fill-50" points="23.846 17.278 31.734 17.278 31.734 16.961 23.846 16.961 23.846 17.278" style="fill: #85af1e"/>
              </g>
              <g style="mask: url(#mask-3)">
                <polygon id="Fill-51" points="23.846 17.406 31.734 17.406 31.734 17.089 23.846 17.089 23.846 17.406" style="fill: #84af1f"/>
              </g>
              <g style="mask: url(#mask-3)">
                <polygon id="Fill-52" points="23.846 17.533 31.734 17.533 31.734 17.216 23.846 17.216 23.846 17.533" style="fill: #82ae1f"/>
              </g>
              <g style="mask: url(#mask-3)">
                <polygon id="Fill-53" points="23.846 17.66 31.734 17.66 31.734 17.344 23.846 17.344 23.846 17.66" style="fill: #81ad1f"/>
              </g>
              <g style="mask: url(#mask-3)">
                <polygon id="Fill-54" points="23.846 17.788 31.734 17.788 31.734 17.471 23.846 17.471 23.846 17.788" style="fill: #80ac20"/>
              </g>
              <g style="mask: url(#mask-3)">
                <polygon id="Fill-55" points="23.846 17.915 31.734 17.915 31.734 17.599 23.846 17.599 23.846 17.915" style="fill: #7eac20"/>
              </g>
              <g style="mask: url(#mask-3)">
                <polygon id="Fill-56" points="23.846 18.043 31.734 18.043 31.734 17.726 23.846 17.726 23.846 18.043" style="fill: #7dab20"/>
              </g>
              <g style="mask: url(#mask-3)">
                <polygon id="Fill-57" points="23.846 18.17 31.734 18.17 31.734 17.853 23.846 17.853 23.846 18.17" style="fill: #7caa21"/>
              </g>
              <g style="mask: url(#mask-3)">
                <polygon id="Fill-58" points="23.846 18.297 31.734 18.297 31.734 17.981 23.846 17.981 23.846 18.297" style="fill: #7aaa21"/>
              </g>
              <g style="mask: url(#mask-3)">
                <polygon id="Fill-59" points="17.048 11.777 23.085 11.777 23.085 11.46 17.048 11.46 17.048 11.777" style="fill: #bbce00"/>
              </g>
              <g style="mask: url(#mask-3)">
                <polygon id="Fill-60" points="17.048 12.054 23.085 12.054 23.085 11.738 17.048 11.738 17.048 12.054" style="fill: #bbce00"/>
              </g>
              <g style="mask: url(#mask-3)">
                <polygon id="Fill-61" points="17.048 12.182 23.085 12.182 23.085 11.865 17.048 11.865 17.048 12.182" style="fill: #bace00"/>
              </g>
              <g style="mask: url(#mask-3)">
                <polygon id="Fill-62" points="17.048 12.309 23.085 12.309 23.085 11.993 17.048 11.993 17.048 12.309" style="fill: #b8cd00"/>
              </g>
              <g style="mask: url(#mask-3)">
                <polygon id="Fill-63" points="17.048 12.437 23.085 12.437 23.085 12.12 17.048 12.12 17.048 12.437" style="fill: #b7cc00"/>
              </g>
              <g style="mask: url(#mask-3)">
                <polygon id="Fill-64" points="17.048 12.564 23.085 12.564 23.085 12.247 17.048 12.247 17.048 12.564" style="fill: #b6cb00"/>
              </g>
              <g style="mask: url(#mask-3)">
                <polygon id="Fill-65" points="17.048 12.692 23.085 12.692 23.085 12.375 17.048 12.375 17.048 12.692" style="fill: #b4cb01"/>
              </g>
              <g style="mask: url(#mask-3)">
                <polygon id="Fill-66" points="17.048 12.819 23.085 12.819 23.085 12.502 17.048 12.502 17.048 12.819" style="fill: #b3ca03"/>
              </g>
              <g style="mask: url(#mask-3)">
                <polygon id="Fill-67" points="17.048 12.946 23.085 12.946 23.085 12.63 17.048 12.63 17.048 12.946" style="fill: #b2c904"/>
              </g>
              <g style="mask: url(#mask-3)">
                <polygon id="Fill-68" points="17.048 13.074 23.085 13.074 23.085 12.757 17.048 12.757 17.048 13.074" style="fill: #b0c806"/>
              </g>
              <g style="mask: url(#mask-3)">
                <polygon id="Fill-69" points="17.048 13.201 23.085 13.201 23.085 12.884 17.048 12.884 17.048 13.201" style="fill: #afc707"/>
              </g>
              <g style="mask: url(#mask-3)">
                <polygon id="Fill-70" points="17.048 13.329 23.085 13.329 23.085 13.012 17.048 13.012 17.048 13.329" style="fill: #aec708"/>
              </g>
              <g style="mask: url(#mask-3)">
                <polygon id="Fill-71" points="17.048 13.456 23.085 13.456 23.085 13.139 17.048 13.139 17.048 13.456" style="fill: #acc60a"/>
              </g>
              <g style="mask: url(#mask-3)">
                <polygon id="Fill-72" points="17.048 13.583 23.085 13.583 23.085 13.267 17.048 13.267 17.048 13.583" style="fill: #abc50b"/>
              </g>
              <g style="mask: url(#mask-3)">
                <polygon id="Fill-73" points="17.048 13.711 23.085 13.711 23.085 13.394 17.048 13.394 17.048 13.711" style="fill: #aac40c"/>
              </g>
              <g style="mask: url(#mask-3)">
                <polygon id="Fill-74" points="17.048 13.838 23.085 13.838 23.085 13.521 17.048 13.521 17.048 13.838" style="fill: #a8c30d"/>
              </g>
              <g style="mask: url(#mask-3)">
                <polygon id="Fill-75" points="17.048 13.966 23.085 13.966 23.085 13.649 17.048 13.649 17.048 13.966" style="fill: #a7c30f"/>
              </g>
              <g style="mask: url(#mask-3)">
                <polygon id="Fill-76" points="17.048 14.093 23.085 14.093 23.085 13.776 17.048 13.776 17.048 14.093" style="fill: #a6c210"/>
              </g>
              <g style="mask: url(#mask-3)">
                <polygon id="Fill-77" points="17.048 14.22 23.085 14.22 23.085 13.904 17.048 13.904 17.048 14.22" style="fill: #a4c110"/>
              </g>
              <g style="mask: url(#mask-3)">
                <polygon id="Fill-78" points="17.048 14.348 23.085 14.348 23.085 14.031 17.048 14.031 17.048 14.348" style="fill: #a3c011"/>
              </g>
              <g style="mask: url(#mask-3)">
                <polygon id="Fill-79" points="17.048 14.475 23.085 14.475 23.085 14.158 17.048 14.158 17.048 14.475" style="fill: #a2c012"/>
              </g>
              <g style="mask: url(#mask-3)">
                <polygon id="Fill-80" points="17.048 14.603 23.085 14.603 23.085 14.286 17.048 14.286 17.048 14.603" style="fill: #a0bf13"/>
              </g>
              <g style="mask: url(#mask-3)">
                <polygon id="Fill-81" points="17.048 14.73 23.085 14.73 23.085 14.413 17.048 14.413 17.048 14.73" style="fill: #9fbe14"/>
              </g>
              <g style="mask: url(#mask-3)">
                <polygon id="Fill-82" points="17.048 14.857 23.085 14.857 23.085 14.541 17.048 14.541 17.048 14.857" style="fill: #9ebd14"/>
              </g>
              <g style="mask: url(#mask-3)">
                <polygon id="Fill-83" points="17.048 14.985 23.085 14.985 23.085 14.668 17.048 14.668 17.048 14.985" style="fill: #9dbd15"/>
              </g>
              <g style="mask: url(#mask-3)">
                <polygon id="Fill-84" points="17.048 15.112 23.085 15.112 23.085 14.795 17.048 14.795 17.048 15.112" style="fill: #9cbc15"/>
              </g>
              <g style="mask: url(#mask-3)">
                <polygon id="Fill-85" points="17.048 15.24 23.085 15.24 23.085 14.923 17.048 14.923 17.048 15.24" style="fill: #9abb16"/>
              </g>
              <g style="mask: url(#mask-3)">
                <polygon id="Fill-86" points="17.048 15.367 23.085 15.367 23.085 15.05 17.048 15.05 17.048 15.367" style="fill: #99bb17"/>
              </g>
              <g style="mask: url(#mask-3)">
                <polygon id="Fill-87" points="17.048 15.494 23.085 15.494 23.085 15.178 17.048 15.178 17.048 15.494" style="fill: #98ba17"/>
              </g>
              <g style="mask: url(#mask-3)">
                <polygon id="Fill-88" points="17.048 15.622 23.085 15.622 23.085 15.305 17.048 15.305 17.048 15.622" style="fill: #96b918"/>
              </g>
              <g style="mask: url(#mask-3)">
                <polygon id="Fill-89" points="17.048 15.749 23.085 15.749 23.085 15.433 17.048 15.433 17.048 15.749" style="fill: #95b818"/>
              </g>
              <g style="mask: url(#mask-3)">
                <polygon id="Fill-90" points="17.048 15.877 23.085 15.877 23.085 15.56 17.048 15.56 17.048 15.877" style="fill: #94b819"/>
              </g>
              <g style="mask: url(#mask-3)">
                <polygon id="Fill-91" points="17.048 16.004 23.085 16.004 23.085 15.687 17.048 15.687 17.048 16.004" style="fill: #93b719"/>
              </g>
              <g style="mask: url(#mask-3)">
                <polygon id="Fill-92" points="17.048 16.131 23.085 16.131 23.085 15.815 17.048 15.815 17.048 16.131" style="fill: #91b61a"/>
              </g>
              <g style="mask: url(#mask-3)">
                <polygon id="Fill-93" points="17.048 16.259 23.085 16.259 23.085 15.942 17.048 15.942 17.048 16.259" style="fill: #90b51a"/>
              </g>
              <g style="mask: url(#mask-3)">
                <polygon id="Fill-94" points="17.048 16.386 23.085 16.386 23.085 16.07 17.048 16.07 17.048 16.386" style="fill: #8fb51b"/>
              </g>
              <g style="mask: url(#mask-3)">
                <polygon id="Fill-95" points="17.048 16.514 23.085 16.514 23.085 16.197 17.048 16.197 17.048 16.514" style="fill: #8db41b"/>
              </g>
              <g style="mask: url(#mask-3)">
                <polygon id="Fill-96" points="17.048 16.641 23.085 16.641 23.085 16.324 17.048 16.324 17.048 16.641" style="fill: #8cb31c"/>
              </g>
              <g style="mask: url(#mask-3)">
                <polygon id="Fill-97" points="17.048 16.769 23.085 16.769 23.085 16.452 17.048 16.452 17.048 16.769" style="fill: #8bb21c"/>
              </g>
              <g style="mask: url(#mask-3)">
                <polygon id="Fill-98" points="17.048 16.896 23.085 16.896 23.085 16.579 17.048 16.579 17.048 16.896" style="fill: #89b21d"/>
              </g>
              <g style="mask: url(#mask-3)">
                <polygon id="Fill-99" points="17.048 17.023 23.085 17.023 23.085 16.707 17.048 16.707 17.048 17.023" style="fill: #88b11d"/>
              </g>
              <g style="mask: url(#mask-3)">
                <polygon id="Fill-100" points="17.048 17.151 23.085 17.151 23.085 16.834 17.048 16.834 17.048 17.151" style="fill: #86b01e"/>
              </g>
              <g style="mask: url(#mask-3)">
                <polygon id="Fill-101" points="17.048 17.278 23.085 17.278 23.085 16.961 17.048 16.961 17.048 17.278" style="fill: #85af1e"/>
              </g>
              <g style="mask: url(#mask-3)">
                <polygon id="Fill-102" points="17.048 17.406 23.085 17.406 23.085 17.089 17.048 17.089 17.048 17.406" style="fill: #84af1f"/>
              </g>
              <g style="mask: url(#mask-3)">
                <polygon id="Fill-103" points="17.048 17.533 23.085 17.533 23.085 17.216 17.048 17.216 17.048 17.533" style="fill: #82ae1f"/>
              </g>
              <g style="mask: url(#mask-3)">
                <polygon id="Fill-104" points="17.048 17.66 23.085 17.66 23.085 17.344 17.048 17.344 17.048 17.66" style="fill: #81ad1f"/>
              </g>
              <g style="mask: url(#mask-3)">
                <polygon id="Fill-105" points="17.048 17.788 23.085 17.788 23.085 17.471 17.048 17.471 17.048 17.788" style="fill: #80ac20"/>
              </g>
              <g style="mask: url(#mask-3)">
                <polygon id="Fill-106" points="17.048 17.915 23.085 17.915 23.085 17.599 17.048 17.599 17.048 17.915" style="fill: #7eac20"/>
              </g>
              <g style="mask: url(#mask-3)">
                <polygon id="Fill-107" points="17.048 18.043 23.085 18.043 23.085 17.726 17.048 17.726 17.048 18.043" style="fill: #7dab20"/>
              </g>
              <g style="mask: url(#mask-3)">
                <polygon id="Fill-108" points="17.048 18.17 23.085 18.17 23.085 17.853 17.048 17.853 17.048 18.17" style="fill: #7caa21"/>
              </g>
              <g style="mask: url(#mask-3)">
                <polygon id="Fill-109" points="17.048 18.297 23.085 18.297 23.085 17.981 17.048 17.981 17.048 18.297" style="fill: #7aaa21"/>
              </g>
              <g style="mask: url(#mask-3)">
                <polygon id="Fill-110" points="17.048 18.425 23.085 18.425 23.085 18.108 17.048 18.108 17.048 18.425" style="fill: #79a921"/>
              </g>
              <g style="mask: url(#mask-3)">
                <polygon id="Fill-111" points="17.048 18.552 23.085 18.552 23.085 18.236 17.048 18.236 17.048 18.552" style="fill: #78a822"/>
              </g>
              <g style="mask: url(#mask-3)">
                <polygon id="Fill-112" points="17.048 18.68 23.085 18.68 23.085 18.363 17.048 18.363 17.048 18.68" style="fill: #76a722"/>
              </g>
              <g style="mask: url(#mask-3)">
                <polygon id="Fill-113" points="17.048 18.807 23.085 18.807 23.085 18.49 17.048 18.49 17.048 18.807" style="fill: #75a722"/>
              </g>
              <g style="mask: url(#mask-3)">
                <polygon id="Fill-114" points="17.048 18.935 23.085 18.935 23.085 18.618 17.048 18.618 17.048 18.935" style="fill: #74a623"/>
              </g>
              <g style="mask: url(#mask-3)">
                <polygon id="Fill-115" points="17.048 19.062 23.085 19.062 23.085 18.745 17.048 18.745 17.048 19.062" style="fill: #72a523"/>
              </g>
              <g style="mask: url(#mask-3)">
                <polygon id="Fill-116" points="17.048 19.189 23.085 19.189 23.085 18.873 17.048 18.873 17.048 19.189" style="fill: #71a523"/>
              </g>
              <g style="mask: url(#mask-3)">
                <polygon id="Fill-117" points="17.048 19.317 23.085 19.317 23.085 19 17.048 19 17.048 19.317" style="fill: #6fa423"/>
              </g>
              <g style="mask: url(#mask-3)">
                <polygon id="Fill-118" points="17.048 19.444 23.085 19.444 23.085 19.127 17.048 19.127 17.048 19.444" style="fill: #6ea324"/>
              </g>
              <g style="mask: url(#mask-3)">
                <polygon id="Fill-119" points="17.048 19.572 23.085 19.572 23.085 19.255 17.048 19.255 17.048 19.572" style="fill: #6da224"/>
              </g>
              <g style="mask: url(#mask-3)">
                <polygon id="Fill-120" points="17.048 19.699 23.085 19.699 23.085 19.382 17.048 19.382 17.048 19.699" style="fill: #6ba224"/>
              </g>
              <g style="mask: url(#mask-3)">
                <polygon id="Fill-121" points="17.048 19.826 23.085 19.826 23.085 19.51 17.048 19.51 17.048 19.826" style="fill: #6aa124"/>
              </g>
              <g style="mask: url(#mask-3)">
                <polygon id="Fill-122" points="17.048 19.954 23.085 19.954 23.085 19.637 17.048 19.637 17.048 19.954" style="fill: #69a025"/>
              </g>
              <g style="mask: url(#mask-3)">
                <polygon id="Fill-123" points="17.048 20.081 23.085 20.081 23.085 19.764 17.048 19.764 17.048 20.081" style="fill: #67a025"/>
              </g>
              <g style="mask: url(#mask-3)">
                <polygon id="Fill-124" points="17.048 20.209 23.085 20.209 23.085 19.892 17.048 19.892 17.048 20.209" style="fill: #669f25"/>
              </g>
              <g style="mask: url(#mask-3)">
                <polygon id="Fill-125" points="17.048 20.336 23.085 20.336 23.085 20.019 17.048 20.019 17.048 20.336" style="fill: #649e25"/>
              </g>
              <g style="mask: url(#mask-3)">
                <polygon id="Fill-126" points="17.048 20.463 23.085 20.463 23.085 20.147 17.048 20.147 17.048 20.463" style="fill: #639e26"/>
              </g>
              <g style="mask: url(#mask-122)">
                <polygon id="Fill-127" points="17.048 20.591 23.085 20.591 23.085 20.274 17.048 20.274 17.048 20.591" style="fill: #629d26"/>
              </g>
              <g style="mask: url(#mask-123)">
                <polygon id="Fill-128" points="23.085 20.718 17.048 20.718 17.048 20.401 23.085 20.401 23.085 20.718" style="fill: #619c26"/>
              </g>
              <g style="mask: url(#mask-124)">
                <polygon id="Fill-129" points="17.048 20.529 23.085 20.529 23.085 20.539 17.048 20.539 17.048 20.529" style="fill: #5f9c26"/>
              </g>
              <g style="mask: url(#mask-3)">
                <polygon id="Fill-130" points="12.539 15.166 15.555 15.166 15.555 15.006 12.539 15.006 12.539 15.166" style="fill: #9abb16"/>
              </g>
              <g style="mask: url(#mask-3)">
                <polygon id="Fill-131" points="12.539 15.367 15.555 15.367 15.555 15.05 12.539 15.05 12.539 15.367" style="fill: #99bb17"/>
              </g>
              <g style="mask: url(#mask-3)">
                <polygon id="Fill-132" points="12.539 15.494 15.555 15.494 15.555 15.178 12.539 15.178 12.539 15.494" style="fill: #98ba17"/>
              </g>
              <g style="mask: url(#mask-3)">
                <polygon id="Fill-133" points="12.539 15.622 15.555 15.622 15.555 15.305 12.539 15.305 12.539 15.622" style="fill: #96b918"/>
              </g>
              <g style="mask: url(#mask-3)">
                <polygon id="Fill-134" points="12.539 15.749 15.555 15.749 15.555 15.433 12.539 15.433 12.539 15.749" style="fill: #95b818"/>
              </g>
              <g style="mask: url(#mask-3)">
                <polygon id="Fill-135" points="12.539 15.877 15.555 15.877 15.555 15.56 12.539 15.56 12.539 15.877" style="fill: #94b819"/>
              </g>
              <g style="mask: url(#mask-3)">
                <polygon id="Fill-136" points="12.539 16.004 15.555 16.004 15.555 15.687 12.539 15.687 12.539 16.004" style="fill: #93b719"/>
              </g>
              <g style="mask: url(#mask-3)">
                <polygon id="Fill-137" points="12.539 16.131 15.555 16.131 15.555 15.815 12.539 15.815 12.539 16.131" style="fill: #91b61a"/>
              </g>
              <g style="mask: url(#mask-3)">
                <polygon id="Fill-138" points="12.539 16.259 15.555 16.259 15.555 15.942 12.539 15.942 12.539 16.259" style="fill: #90b51a"/>
              </g>
              <g style="mask: url(#mask-3)">
                <polygon id="Fill-139" points="12.539 16.386 15.555 16.386 15.555 16.07 12.539 16.07 12.539 16.386" style="fill: #8fb51b"/>
              </g>
              <g style="mask: url(#mask-3)">
                <polygon id="Fill-140" points="12.539 16.514 15.555 16.514 15.555 16.197 12.539 16.197 12.539 16.514" style="fill: #8db41b"/>
              </g>
              <g style="mask: url(#mask-3)">
                <polygon id="Fill-141" points="12.539 16.641 15.555 16.641 15.555 16.324 12.539 16.324 12.539 16.641" style="fill: #8cb31c"/>
              </g>
              <g style="mask: url(#mask-3)">
                <polygon id="Fill-142" points="12.539 16.769 15.555 16.769 15.555 16.452 12.539 16.452 12.539 16.769" style="fill: #8bb21c"/>
              </g>
              <g style="mask: url(#mask-3)">
                <polygon id="Fill-143" points="12.539 16.896 15.555 16.896 15.555 16.579 12.539 16.579 12.539 16.896" style="fill: #89b21d"/>
              </g>
              <g style="mask: url(#mask-3)">
                <polygon id="Fill-144" points="12.539 17.023 15.555 17.023 15.555 16.707 12.539 16.707 12.539 17.023" style="fill: #88b11d"/>
              </g>
              <g style="mask: url(#mask-3)">
                <polygon id="Fill-145" points="12.539 17.151 15.555 17.151 15.555 16.834 12.539 16.834 12.539 17.151" style="fill: #86b01e"/>
              </g>
              <g style="mask: url(#mask-3)">
                <polygon id="Fill-146" points="12.539 17.278 15.555 17.278 15.555 16.961 12.539 16.961 12.539 17.278" style="fill: #85af1e"/>
              </g>
              <g style="mask: url(#mask-3)">
                <polygon id="Fill-147" points="11.41 11.738 16.685 11.738 16.685 11.27 11.41 11.27 11.41 11.738" style="fill: #bbce00"/>
              </g>
              <g style="mask: url(#mask-3)">
                <polygon id="Fill-148" points="11.41 12.054 16.685 12.054 16.685 11.738 11.41 11.738 11.41 12.054" style="fill: #bbce00"/>
              </g>
              <g style="mask: url(#mask-3)">
                <polygon id="Fill-149" points="11.41 12.182 16.685 12.182 16.685 11.865 11.41 11.865 11.41 12.182" style="fill: #bace00"/>
              </g>
              <g style="mask: url(#mask-3)">
                <polygon id="Fill-150" points="11.41 12.309 16.685 12.309 16.685 11.993 11.41 11.993 11.41 12.309" style="fill: #b8cd00"/>
              </g>
              <g style="mask: url(#mask-3)">
                <polygon id="Fill-151" points="11.41 12.437 16.685 12.437 16.685 12.12 11.41 12.12 11.41 12.437" style="fill: #b7cc00"/>
              </g>
              <g style="mask: url(#mask-3)">
                <polygon id="Fill-152" points="11.41 12.564 16.685 12.564 16.685 12.247 11.41 12.247 11.41 12.564" style="fill: #b6cb00"/>
              </g>
              <g style="mask: url(#mask-3)">
                <polygon id="Fill-153" points="11.41 12.692 16.685 12.692 16.685 12.375 11.41 12.375 11.41 12.692" style="fill: #b4cb01"/>
              </g>
              <g style="mask: url(#mask-3)">
                <polygon id="Fill-154" points="11.41 12.819 16.685 12.819 16.685 12.502 11.41 12.502 11.41 12.819" style="fill: #b3ca03"/>
              </g>
              <g style="mask: url(#mask-3)">
                <polygon id="Fill-155" points="11.41 12.946 16.685 12.946 16.685 12.63 11.41 12.63 11.41 12.946" style="fill: #b2c904"/>
              </g>
              <g style="mask: url(#mask-3)">
                <polygon id="Fill-156" points="11.41 13.074 16.685 13.074 16.685 12.757 11.41 12.757 11.41 13.074" style="fill: #b0c806"/>
              </g>
              <g style="mask: url(#mask-3)">
                <polygon id="Fill-157" points="11.41 13.201 16.685 13.201 16.685 12.884 11.41 12.884 11.41 13.201" style="fill: #afc707"/>
              </g>
              <g style="mask: url(#mask-3)">
                <polygon id="Fill-158" points="11.41 13.329 16.685 13.329 16.685 13.012 11.41 13.012 11.41 13.329" style="fill: #aec708"/>
              </g>
              <g style="mask: url(#mask-3)">
                <polygon id="Fill-159" points="11.41 13.456 16.685 13.456 16.685 13.139 11.41 13.139 11.41 13.456" style="fill: #acc60a"/>
              </g>
              <g style="mask: url(#mask-3)">
                <polygon id="Fill-160" points="11.41 13.583 16.685 13.583 16.685 13.267 11.41 13.267 11.41 13.583" style="fill: #abc50b"/>
              </g>
              <g style="mask: url(#mask-3)">
                <polygon id="Fill-161" points="11.41 13.711 16.685 13.711 16.685 13.394 11.41 13.394 11.41 13.711" style="fill: #aac40c"/>
              </g>
              <g style="mask: url(#mask-3)">
                <polygon id="Fill-162" points="11.41 13.838 16.685 13.838 16.685 13.521 11.41 13.521 11.41 13.838" style="fill: #a8c30d"/>
              </g>
              <g style="mask: url(#mask-3)">
                <polygon id="Fill-163" points="11.41 13.966 16.685 13.966 16.685 13.649 11.41 13.649 11.41 13.966" style="fill: #a7c30f"/>
              </g>
              <g style="mask: url(#mask-3)">
                <polygon id="Fill-164" points="11.41 14.093 16.685 14.093 16.685 13.776 11.41 13.776 11.41 14.093" style="fill: #a6c210"/>
              </g>
              <g style="mask: url(#mask-3)">
                <polygon id="Fill-165" points="11.41 14.22 16.685 14.22 16.685 13.904 11.41 13.904 11.41 14.22" style="fill: #a4c110"/>
              </g>
              <g style="mask: url(#mask-3)">
                <polygon id="Fill-166" points="11.41 14.348 16.685 14.348 16.685 14.031 11.41 14.031 11.41 14.348" style="fill: #a3c011"/>
              </g>
              <g style="mask: url(#mask-3)">
                <polygon id="Fill-167" points="11.41 14.475 16.685 14.475 16.685 14.158 11.41 14.158 11.41 14.475" style="fill: #a2c012"/>
              </g>
              <g style="mask: url(#mask-3)">
                <polygon id="Fill-168" points="11.41 14.603 16.685 14.603 16.685 14.286 11.41 14.286 11.41 14.603" style="fill: #a0bf13"/>
              </g>
              <g style="mask: url(#mask-3)">
                <polygon id="Fill-169" points="11.41 14.73 16.685 14.73 16.685 14.413 11.41 14.413 11.41 14.73" style="fill: #9fbe14"/>
              </g>
              <g style="mask: url(#mask-3)">
                <polygon id="Fill-170" points="11.41 14.857 16.685 14.857 16.685 14.541 11.41 14.541 11.41 14.857" style="fill: #9ebd14"/>
              </g>
              <g style="mask: url(#mask-3)">
                <polygon id="Fill-171" points="11.41 14.985 16.685 14.985 16.685 14.668 11.41 14.668 11.41 14.985" style="fill: #9dbd15"/>
              </g>
              <g style="mask: url(#mask-3)">
                <polygon id="Fill-172" points="11.41 15.112 16.685 15.112 16.685 14.795 11.41 14.795 11.41 15.112" style="fill: #9cbc15"/>
              </g>
              <g style="mask: url(#mask-3)">
                <polygon id="Fill-173" points="11.41 15.24 16.685 15.24 16.685 14.923 11.41 14.923 11.41 15.24" style="fill: #9abb16"/>
              </g>
              <g style="mask: url(#mask-3)">
                <polygon id="Fill-174" points="11.41 15.367 16.685 15.367 16.685 15.05 11.41 15.05 11.41 15.367" style="fill: #99bb17"/>
              </g>
              <g style="mask: url(#mask-3)">
                <polygon id="Fill-175" points="11.41 15.494 16.685 15.494 16.685 15.178 11.41 15.178 11.41 15.494" style="fill: #98ba17"/>
              </g>
              <g style="mask: url(#mask-3)">
                <polygon id="Fill-176" points="11.41 15.622 16.685 15.622 16.685 15.305 11.41 15.305 11.41 15.622" style="fill: #96b918"/>
              </g>
              <g style="mask: url(#mask-3)">
                <polygon id="Fill-177" points="11.41 15.749 16.685 15.749 16.685 15.433 11.41 15.433 11.41 15.749" style="fill: #95b818"/>
              </g>
              <g style="mask: url(#mask-3)">
                <polygon id="Fill-178" points="11.41 15.877 16.685 15.877 16.685 15.56 11.41 15.56 11.41 15.877" style="fill: #94b819"/>
              </g>
              <g style="mask: url(#mask-3)">
                <polygon id="Fill-179" points="11.41 16.004 16.685 16.004 16.685 15.687 11.41 15.687 11.41 16.004" style="fill: #93b719"/>
              </g>
              <g style="mask: url(#mask-3)">
                <polygon id="Fill-180" points="11.41 16.131 16.685 16.131 16.685 15.815 11.41 15.815 11.41 16.131" style="fill: #91b61a"/>
              </g>
              <g style="mask: url(#mask-3)">
                <polygon id="Fill-181" points="11.41 16.259 16.685 16.259 16.685 15.942 11.41 15.942 11.41 16.259" style="fill: #90b51a"/>
              </g>
              <g style="mask: url(#mask-3)">
                <polygon id="Fill-182" points="11.41 16.386 16.685 16.386 16.685 16.07 11.41 16.07 11.41 16.386" style="fill: #8fb51b"/>
              </g>
              <g style="mask: url(#mask-3)">
                <polygon id="Fill-183" points="11.41 16.514 16.685 16.514 16.685 16.197 11.41 16.197 11.41 16.514" style="fill: #8db41b"/>
              </g>
              <g style="mask: url(#mask-3)">
                <polygon id="Fill-184" points="11.41 16.641 16.685 16.641 16.685 16.324 11.41 16.324 11.41 16.641" style="fill: #8cb31c"/>
              </g>
              <g style="mask: url(#mask-3)">
                <polygon id="Fill-185" points="11.41 16.769 16.685 16.769 16.685 16.452 11.41 16.452 11.41 16.769" style="fill: #8bb21c"/>
              </g>
              <g style="mask: url(#mask-3)">
                <polygon id="Fill-186" points="11.41 16.896 16.685 16.896 16.685 16.579 11.41 16.579 11.41 16.896" style="fill: #89b21d"/>
              </g>
              <g style="mask: url(#mask-3)">
                <polygon id="Fill-187" points="11.41 17.023 16.685 17.023 16.685 16.707 11.41 16.707 11.41 17.023" style="fill: #88b11d"/>
              </g>
              <g style="mask: url(#mask-3)">
                <polygon id="Fill-188" points="11.41 17.151 16.685 17.151 16.685 16.834 11.41 16.834 11.41 17.151" style="fill: #86b01e"/>
              </g>
              <g style="mask: url(#mask-3)">
                <polygon id="Fill-189" points="11.41 17.278 16.685 17.278 16.685 16.961 11.41 16.961 11.41 17.278" style="fill: #85af1e"/>
              </g>
              <g style="mask: url(#mask-3)">
                <polygon id="Fill-190" points="11.41 17.406 16.685 17.406 16.685 17.089 11.41 17.089 11.41 17.406" style="fill: #84af1f"/>
              </g>
              <g style="mask: url(#mask-3)">
                <polygon id="Fill-191" points="11.41 17.533 16.685 17.533 16.685 17.216 11.41 17.216 11.41 17.533" style="fill: #82ae1f"/>
              </g>
              <g style="mask: url(#mask-3)">
                <polygon id="Fill-192" points="11.41 17.66 16.685 17.66 16.685 17.344 11.41 17.344 11.41 17.66" style="fill: #81ad1f"/>
              </g>
              <g style="mask: url(#mask-3)">
                <polygon id="Fill-193" points="11.41 17.788 16.685 17.788 16.685 17.471 11.41 17.471 11.41 17.788" style="fill: #80ac20"/>
              </g>
              <g style="mask: url(#mask-3)">
                <polygon id="Fill-194" points="11.41 17.915 16.685 17.915 16.685 17.599 11.41 17.599 11.41 17.915" style="fill: #7eac20"/>
              </g>
              <g style="mask: url(#mask-3)">
                <polygon id="Fill-195" points="11.41 18.043 16.685 18.043 16.685 17.726 11.41 17.726 11.41 18.043" style="fill: #7dab20"/>
              </g>
              <g style="mask: url(#mask-3)">
                <polygon id="Fill-196" points="11.41 18.17 16.685 18.17 16.685 17.853 11.41 17.853 11.41 18.17" style="fill: #7caa21"/>
              </g>
              <g style="mask: url(#mask-3)">
                <polygon id="Fill-197" points="11.41 18.297 16.685 18.297 16.685 17.981 11.41 17.981 11.41 18.297" style="fill: #7aaa21"/>
              </g>
              <g style="mask: url(#mask-3)">
                <polygon id="Fill-198" points="6.36 11.738 10.277 11.738 10.277 10.495 6.36 10.495 6.36 11.738" style="fill: #bbce00"/>
              </g>
              <g style="mask: url(#mask-3)">
                <polygon id="Fill-199" points="6.36 12.054 10.277 12.054 10.277 11.738 6.36 11.738 6.36 12.054" style="fill: #bbce00"/>
              </g>
              <g style="mask: url(#mask-3)">
                <polygon id="Fill-200" points="6.36 12.182 10.277 12.182 10.277 11.865 6.36 11.865 6.36 12.182" style="fill: #bace00"/>
              </g>
              <g style="mask: url(#mask-3)">
                <polygon id="Fill-201" points="6.36 12.309 10.277 12.309 10.277 11.993 6.36 11.993 6.36 12.309" style="fill: #b8cd00"/>
              </g>
              <g style="mask: url(#mask-3)">
                <polygon id="Fill-202" points="6.36 12.437 10.277 12.437 10.277 12.12 6.36 12.12 6.36 12.437" style="fill: #b7cc00"/>
              </g>
              <g style="mask: url(#mask-3)">
                <polygon id="Fill-203" points="6.36 12.564 10.277 12.564 10.277 12.247 6.36 12.247 6.36 12.564" style="fill: #b6cb00"/>
              </g>
              <g style="mask: url(#mask-3)">
                <polygon id="Fill-204" points="6.36 12.692 10.277 12.692 10.277 12.375 6.36 12.375 6.36 12.692" style="fill: #b4cb01"/>
              </g>
              <g style="mask: url(#mask-3)">
                <polygon id="Fill-205" points="6.36 12.819 10.277 12.819 10.277 12.502 6.36 12.502 6.36 12.819" style="fill: #b3ca03"/>
              </g>
              <g style="mask: url(#mask-3)">
                <polygon id="Fill-206" points="6.36 12.946 10.277 12.946 10.277 12.63 6.36 12.63 6.36 12.946" style="fill: #b2c904"/>
              </g>
              <g style="mask: url(#mask-3)">
                <polygon id="Fill-207" points="6.36 13.074 10.277 13.074 10.277 12.757 6.36 12.757 6.36 13.074" style="fill: #b0c806"/>
              </g>
              <g style="mask: url(#mask-3)">
                <polygon id="Fill-208" points="6.36 13.201 10.277 13.201 10.277 12.884 6.36 12.884 6.36 13.201" style="fill: #afc707"/>
              </g>
              <g style="mask: url(#mask-3)">
                <polygon id="Fill-209" points="6.36 13.329 10.277 13.329 10.277 13.012 6.36 13.012 6.36 13.329" style="fill: #aec708"/>
              </g>
              <g style="mask: url(#mask-3)">
                <polygon id="Fill-210" points="6.36 13.456 10.277 13.456 10.277 13.139 6.36 13.139 6.36 13.456" style="fill: #acc60a"/>
              </g>
              <g style="mask: url(#mask-3)">
                <polygon id="Fill-211" points="6.36 13.583 10.277 13.583 10.277 13.267 6.36 13.267 6.36 13.583" style="fill: #abc50b"/>
              </g>
              <g style="mask: url(#mask-3)">
                <polygon id="Fill-212" points="6.36 13.711 10.277 13.711 10.277 13.394 6.36 13.394 6.36 13.711" style="fill: #aac40c"/>
              </g>
              <g style="mask: url(#mask-3)">
                <polygon id="Fill-213" points="6.36 13.838 10.277 13.838 10.277 13.521 6.36 13.521 6.36 13.838" style="fill: #a8c30d"/>
              </g>
              <g style="mask: url(#mask-3)">
                <polygon id="Fill-214" points="6.36 13.966 10.277 13.966 10.277 13.649 6.36 13.649 6.36 13.966" style="fill: #a7c30f"/>
              </g>
              <g style="mask: url(#mask-3)">
                <polygon id="Fill-215" points="6.36 13.808 10.277 13.808 10.277 13.776 6.36 13.776 6.36 13.808" style="fill: #a6c210"/>
              </g>
              <g style="mask: url(#mask-211)">
                <polygon id="Fill-216" points="5.192 11.738 11.445 11.738 11.445 9.385 5.192 9.385 5.192 11.738" style="fill: #bbce00"/>
              </g>
              <g style="mask: url(#mask-3)">
                <polygon id="Fill-217" points="5.192 12.054 11.445 12.054 11.445 11.738 5.192 11.738 5.192 12.054" style="fill: #bbce00"/>
              </g>
              <g style="mask: url(#mask-3)">
                <polygon id="Fill-218" points="5.192 12.182 11.445 12.182 11.445 11.865 5.192 11.865 5.192 12.182" style="fill: #bace00"/>
              </g>
              <g style="mask: url(#mask-3)">
                <polygon id="Fill-219" points="5.192 12.309 11.445 12.309 11.445 11.993 5.192 11.993 5.192 12.309" style="fill: #b8cd00"/>
              </g>
              <g style="mask: url(#mask-3)">
                <polygon id="Fill-220" points="5.192 12.437 11.445 12.437 11.445 12.12 5.192 12.12 5.192 12.437" style="fill: #b7cc00"/>
              </g>
              <g style="mask: url(#mask-3)">
                <polygon id="Fill-221" points="5.192 12.564 11.445 12.564 11.445 12.247 5.192 12.247 5.192 12.564" style="fill: #b6cb00"/>
              </g>
              <g style="mask: url(#mask-3)">
                <polygon id="Fill-222" points="5.192 12.692 11.445 12.692 11.445 12.375 5.192 12.375 5.192 12.692" style="fill: #b4cb01"/>
              </g>
              <g style="mask: url(#mask-3)">
                <polygon id="Fill-223" points="5.192 12.819 11.445 12.819 11.445 12.502 5.192 12.502 5.192 12.819" style="fill: #b3ca03"/>
              </g>
              <g style="mask: url(#mask-3)">
                <polygon id="Fill-224" points="5.192 12.946 11.445 12.946 11.445 12.63 5.192 12.63 5.192 12.946" style="fill: #b2c904"/>
              </g>
              <g style="mask: url(#mask-3)">
                <polygon id="Fill-225" points="5.192 13.074 11.445 13.074 11.445 12.757 5.192 12.757 5.192 13.074" style="fill: #b0c806"/>
              </g>
              <g style="mask: url(#mask-3)">
                <polygon id="Fill-226" points="5.192 13.201 11.445 13.201 11.445 12.884 5.192 12.884 5.192 13.201" style="fill: #afc707"/>
              </g>
              <g style="mask: url(#mask-3)">
                <polygon id="Fill-227" points="5.192 13.329 11.445 13.329 11.445 13.012 5.192 13.012 5.192 13.329" style="fill: #aec708"/>
              </g>
              <g style="mask: url(#mask-3)">
                <polygon id="Fill-228" points="5.192 13.456 11.445 13.456 11.445 13.139 5.192 13.139 5.192 13.456" style="fill: #acc60a"/>
              </g>
              <g style="mask: url(#mask-3)">
                <polygon id="Fill-229" points="5.192 13.583 11.445 13.583 11.445 13.267 5.192 13.267 5.192 13.583" style="fill: #abc50b"/>
              </g>
              <g style="mask: url(#mask-3)">
                <polygon id="Fill-230" points="5.192 13.711 11.445 13.711 11.445 13.394 5.192 13.394 5.192 13.711" style="fill: #aac40c"/>
              </g>
              <g style="mask: url(#mask-3)">
                <polygon id="Fill-231" points="5.192 13.838 11.445 13.838 11.445 13.521 5.192 13.521 5.192 13.838" style="fill: #a8c30d"/>
              </g>
              <g style="mask: url(#mask-3)">
                <polygon id="Fill-232" points="5.192 13.966 11.445 13.966 11.445 13.649 5.192 13.649 5.192 13.966" style="fill: #a7c30f"/>
              </g>
              <g style="mask: url(#mask-3)">
                <polygon id="Fill-233" points="5.192 14.093 11.445 14.093 11.445 13.776 5.192 13.776 5.192 14.093" style="fill: #a6c210"/>
              </g>
              <g style="mask: url(#mask-3)">
                <polygon id="Fill-234" points="5.192 14.22 11.445 14.22 11.445 13.904 5.192 13.904 5.192 14.22" style="fill: #a4c110"/>
              </g>
              <g style="mask: url(#mask-3)">
                <polygon id="Fill-235" points="5.192 14.348 11.445 14.348 11.445 14.031 5.192 14.031 5.192 14.348" style="fill: #a3c011"/>
              </g>
              <g style="mask: url(#mask-3)">
                <polygon id="Fill-236" points="5.192 14.475 11.445 14.475 11.445 14.158 5.192 14.158 5.192 14.475" style="fill: #a2c012"/>
              </g>
              <g style="mask: url(#mask-3)">
                <polygon id="Fill-237" points="5.192 14.603 11.445 14.603 11.445 14.286 5.192 14.286 5.192 14.603" style="fill: #a0bf13"/>
              </g>
              <g style="mask: url(#mask-3)">
                <polygon id="Fill-238" points="5.192 14.73 11.445 14.73 11.445 14.413 5.192 14.413 5.192 14.73" style="fill: #9fbe14"/>
              </g>
              <g style="mask: url(#mask-3)">
                <polygon id="Fill-239" points="5.192 14.857 11.445 14.857 11.445 14.541 5.192 14.541 5.192 14.857" style="fill: #9ebd14"/>
              </g>
              <g style="mask: url(#mask-3)">
                <polygon id="Fill-240" points="5.192 14.985 11.445 14.985 11.445 14.668 5.192 14.668 5.192 14.985" style="fill: #9dbd15"/>
              </g>
              <g style="mask: url(#mask-3)">
                <polygon id="Fill-241" points="5.192 15.112 11.445 15.112 11.445 14.795 5.192 14.795 5.192 15.112" style="fill: #9cbc15"/>
              </g>
              <g style="mask: url(#mask-3)">
                <polygon id="Fill-242" points="5.192 15.24 11.445 15.24 11.445 14.923 5.192 14.923 5.192 15.24" style="fill: #9abb16"/>
              </g>
              <g style="mask: url(#mask-3)">
                <polygon id="Fill-243" points="5.192 15.367 11.445 15.367 11.445 15.05 5.192 15.05 5.192 15.367" style="fill: #99bb17"/>
              </g>
              <g style="mask: url(#mask-3)">
                <polygon id="Fill-244" points="5.192 15.494 11.445 15.494 11.445 15.178 5.192 15.178 5.192 15.494" style="fill: #98ba17"/>
              </g>
              <g style="mask: url(#mask-3)">
                <polygon id="Fill-245" points="5.192 15.622 11.445 15.622 11.445 15.305 5.192 15.305 5.192 15.622" style="fill: #96b918"/>
              </g>
              <g style="mask: url(#mask-3)">
                <polygon id="Fill-246" points="5.192 15.749 11.445 15.749 11.445 15.433 5.192 15.433 5.192 15.749" style="fill: #95b818"/>
              </g>
              <g style="mask: url(#mask-3)">
                <polygon id="Fill-247" points="5.192 15.877 11.445 15.877 11.445 15.56 5.192 15.56 5.192 15.877" style="fill: #94b819"/>
              </g>
              <g style="mask: url(#mask-3)">
                <polygon id="Fill-248" points="5.192 16.004 11.445 16.004 11.445 15.687 5.192 15.687 5.192 16.004" style="fill: #93b719"/>
              </g>
              <g style="mask: url(#mask-3)">
                <polygon id="Fill-249" points="5.192 16.131 11.445 16.131 11.445 15.815 5.192 15.815 5.192 16.131" style="fill: #91b61a"/>
              </g>
              <g style="mask: url(#mask-3)">
                <polygon id="Fill-250" points="5.192 16.259 11.445 16.259 11.445 15.942 5.192 15.942 5.192 16.259" style="fill: #90b51a"/>
              </g>
              <g style="mask: url(#mask-3)">
                <polygon id="Fill-251" points="5.192 16.386 11.445 16.386 11.445 16.07 5.192 16.07 5.192 16.386" style="fill: #8fb51b"/>
              </g>
              <g style="mask: url(#mask-3)">
                <polygon id="Fill-252" points="5.192 16.514 11.445 16.514 11.445 16.197 5.192 16.197 5.192 16.514" style="fill: #8db41b"/>
              </g>
              <g style="mask: url(#mask-3)">
                <polygon id="Fill-253" points="5.192 16.641 11.445 16.641 11.445 16.324 5.192 16.324 5.192 16.641" style="fill: #8cb31c"/>
              </g>
              <g style="mask: url(#mask-3)">
                <polygon id="Fill-254" points="5.192 16.769 11.445 16.769 11.445 16.452 5.192 16.452 5.192 16.769" style="fill: #8bb21c"/>
              </g>
              <g style="mask: url(#mask-3)">
                <polygon id="Fill-255" points="5.192 16.896 11.445 16.896 11.445 16.579 5.192 16.579 5.192 16.896" style="fill: #89b21d"/>
              </g>
              <g style="mask: url(#mask-3)">
                <polygon id="Fill-256" points="5.192 17.023 11.445 17.023 11.445 16.707 5.192 16.707 5.192 17.023" style="fill: #88b11d"/>
              </g>
              <g style="mask: url(#mask-3)">
                <polygon id="Fill-257" points="5.192 17.151 11.445 17.151 11.445 16.834 5.192 16.834 5.192 17.151" style="fill: #86b01e"/>
              </g>
              <g style="mask: url(#mask-3)">
                <polygon id="Fill-258" points="5.192 17.278 11.445 17.278 11.445 16.961 5.192 16.961 5.192 17.278" style="fill: #85af1e"/>
              </g>
              <g style="mask: url(#mask-3)">
                <polygon id="Fill-259" points="5.192 17.406 11.445 17.406 11.445 17.089 5.192 17.089 5.192 17.406" style="fill: #84af1f"/>
              </g>
              <g style="mask: url(#mask-3)">
                <polygon id="Fill-260" points="5.192 17.533 11.445 17.533 11.445 17.216 5.192 17.216 5.192 17.533" style="fill: #82ae1f"/>
              </g>
              <g style="mask: url(#mask-3)">
                <polygon id="Fill-261" points="5.192 17.66 11.445 17.66 11.445 17.344 5.192 17.344 5.192 17.66" style="fill: #81ad1f"/>
              </g>
              <g style="mask: url(#mask-3)">
                <polygon id="Fill-262" points="5.192 17.788 11.445 17.788 11.445 17.471 5.192 17.471 5.192 17.788" style="fill: #80ac20"/>
              </g>
              <g style="mask: url(#mask-3)">
                <polygon id="Fill-263" points="5.192 17.915 11.445 17.915 11.445 17.599 5.192 17.599 5.192 17.915" style="fill: #7eac20"/>
              </g>
              <g style="mask: url(#mask-3)">
                <polygon id="Fill-264" points="5.192 18.043 11.445 18.043 11.445 17.726 5.192 17.726 5.192 18.043" style="fill: #7dab20"/>
              </g>
              <g style="mask: url(#mask-3)">
                <polygon id="Fill-265" points="5.192 18.17 11.445 18.17 11.445 17.853 5.192 17.853 5.192 18.17" style="fill: #7caa21"/>
              </g>
            </g>
            <path id="Fill-267" d="M32.63024,11.28538l-1.76387-.00062a.34923.34923,0,0,1-.34826-.35025l.00061-1.7948a.34924.34924,0,0,1,.34847-.35l1.76387.00062a.34917.34917,0,0,1,.34826.35025l-.00061,1.7948a.34925.34925,0,0,1-.34847.35" style="fill: #bbce00"/>
          </g>
        </g>
      </g>
    </g>
  </g>
</svg>
