<svg id="Layer_1" data-name="Layer 1" xmlns="http://www.w3.org/2000/svg" xmlns:xlink="http://www.w3.org/1999/xlink" viewBox="0 0 40 26">
  <defs>
    <mask id="mask" x="6.42499" y="17.12008" width="2.04707" height="0.7009" maskUnits="userSpaceOnUse">
      <g id="mask-2">
        <path id="path-1" d="M7.14224,17.24441a.75206.75206,0,0,0,.142.45223h.42623a1.237,1.237,0,0,1,.22133-.45223Z" style="fill: #fff"/>
      </g>
    </mask>
    <mask id="mask-2-2" x="6.35317" y="16.89465" width="2.04413" height="0.70201" maskUnits="userSpaceOnUse">
      <g id="mask-4">
        <path id="path-3" d="M7.51613,17.019a.386.386,0,0,1-.00561.09773c-.01425.0676-.09619.06158-.17873.05556-.08075-.00583-.1623-.01185-.18368.05011a.39669.39669,0,0,0,.027.25h.61642a1.135,1.135,0,0,1,.25243-.34983q.05739-.05316.11827-.10356Z" style="fill: #fff"/>
      </g>
    </mask>
    <mask id="mask-3" x="6.57623" y="16.77923" width="2.03999" height="0.70123" maskUnits="userSpaceOnUse">
      <g id="mask-6">
        <path id="path-5" d="M7.49786,16.90354a.50885.50885,0,0,1,.01266.21315c-.01425.0676-.09619.06158-.17873.05556-.08075-.00583-.1623-.01185-.18368.05011a.27994.27994,0,0,0-.00519.13379h.711a1.11481,1.11481,0,0,1,.19-.23363,3.06335,3.06335,0,0,1,.26615-.219Z" style="fill: #fff"/>
      </g>
    </mask>
    <mask id="mask-4-2" x="6.50397" y="16.54777" width="2.04484" height="0.70787" maskUnits="userSpaceOnUse">
      <g id="mask-8">
        <path id="path-7" d="M7.42672,16.672a1.01478,1.01478,0,0,1,.0838.44469l-.00463.01473h.52865l.0094-.0089a3.34444,3.34444,0,0,1,.47616-.36262V16.672Z" style="fill: #fff"/>
      </g>
    </mask>
    <mask id="mask-5" x="6.98464" y="16.4662" width="2.04789" height="0.70921" maskUnits="userSpaceOnUse">
      <g id="mask-10">
        <path id="path-9" d="M7.41727,16.59042c-.02.06743.10167.2745.09969.46077h.607a3.87172,3.87172,0,0,1,.68608-.46077Z" style="fill: #fff"/>
      </g>
    </mask>
    <mask id="mask-6-2" x="6.91328" y="16.24267" width="2.0472" height="0.70354" maskUnits="userSpaceOnUse">
      <g id="mask-12">
        <path id="path-11" d="M7.4751,16.82191c-.04142-.13308-.0911-.24039-.03484-.25282.17008-.04557.5288-.12042.94351-.20212h.5483v.16a4.57616,4.57616,0,0,0-.50637.295Z" style="fill: #fff"/>
      </g>
    </mask>
    <mask id="mask-7" x="6.54625" y="17.52967" width="2.0517" height="0.70414" maskUnits="userSpaceOnUse">
      <g id="mask-14">
        <path id="path-13" d="M7.26005,17.654a3.43435,3.43435,0,0,0,.31268.45553h.08632a1.57013,1.57013,0,0,1,.06344-.45553Z" style="fill: #fff"/>
      </g>
    </mask>
    <mask id="mask-8-2" x="6.47312" y="17.30173" width="2.05145" height="0.70206" maskUnits="userSpaceOnUse">
      <g id="mask-16">
        <path id="path-15" d="M7.15956,17.42606a1.78967,1.78967,0,0,0,.24154.45339H7.674a1.39347,1.39347,0,0,1,.14048-.45339Z" style="fill: #fff"/>
      </g>
    </mask>
    <mask id="mask-9" x="7.69615" y="16.22655" width="2.05361" height="0.70717" maskUnits="userSpaceOnUse">
      <g id="mask-18">
        <path id="path-17" d="M8.44419,16.80946a5.163,5.163,0,0,1,.87134-.45864H8.466c-.2813.05507-.54154.10774-.74127.15134v.3073Z" style="fill: #fff"/>
      </g>
    </mask>
    <mask id="mask-10-2" x="7.60052" y="16.01702" width="2.05056" height="0.70583" maskUnits="userSpaceOnUse">
      <g id="mask-20">
        <path id="path-19" d="M8.795,16.59858a6.20735,6.20735,0,0,1,.82761-.36766V16.1413H9.5682c-.66283.1232-1.50257.28324-1.93918.38211v.07517Z" style="fill: #fff"/>
      </g>
    </mask>
    <mask id="mask-11" x="8.49631" y="16.05523" width="2.05297" height="0.70509" maskUnits="userSpaceOnUse">
      <g id="mask-22">
        <path id="path-21" d="M8.72714,16.636a6.29046,6.29046,0,0,1,1.04133-.4565H9.36322c-.27292.05108-.56425.10635-.83849.15981V16.636Z" style="fill: #fff"/>
      </g>
    </mask>
    <mask id="mask-12-2" x="8.39737" y="15.8597" width="2.04994" height="0.70073" maskUnits="userSpaceOnUse">
      <g id="mask-24">
        <path id="path-23" d="M9.121,16.43608a7.373,7.373,0,0,1,1.29814-.44618v-.00474c-.30615.05543-1.23467.22457-1.99354.37358v.07734Z" style="fill: #fff"/>
      </g>
    </mask>
    <mask id="mask-13" x="8.91683" y="15.83473" width="2.04758" height="0.70506" maskUnits="userSpaceOnUse">
      <g id="mask-26">
        <path id="path-25" d="M9.1663,16.41551a7.2447,7.2447,0,0,1,1.35611-.449s-.78582.14124-1.57708.29187v.15713Z" style="fill: #fff"/>
      </g>
    </mask>
    <mask id="mask-14-2" x="8.78067" y="15.67961" width="2.04874" height="0.70355" maskUnits="userSpaceOnUse">
      <g id="mask-28">
        <path id="path-27" d="M9.54711,16.25886a7.10172,7.10172,0,0,1,.9753-.29235s-.7875.14155-1.57961.29235Z" style="fill: #fff"/>
      </g>
    </mask>
    <mask id="mask-15" x="6.36353" y="17.65737" width="2.0429" height="0.70295" maskUnits="userSpaceOnUse">
      <g id="mask-30">
        <path id="path-29" d="M7.33611,17.78166a4.08388,4.08388,0,0,0,.3288.439,1.498,1.498,0,0,1,.02565-.439Z" style="fill: #fff"/>
      </g>
    </mask>
    <mask id="mask-16-2" x="37.61142" y="15.27566" width="0.55875" height="0.31081" maskUnits="userSpaceOnUse">
      <g id="mask-32">
        <polygon id="path-31" points="38.17 15.586 38.17 15.276 37.611 15.276 37.611 15.586 38.17 15.586" style="fill: #fff"/>
      </g>
    </mask>
  </defs>
  <title>pay_post</title>
  <g id="Page-1">
    <g id="pay-post-65x41">
      <rect width="40" height="26" style="fill: #fff"/>
      <g id="Page-1-2" data-name="Page-1">
        <path id="Fill-1" d="M7.66479,18.22062s-.61517-.70107-.5166-.99827c.04355-.12569.33391.02738.36241-.10568.04513-.23019-.16626-.52623-.07046-.5476.55123-.14764,3.08235-.60258,3.08235-.60258A6.03736,6.03736,0,0,0,8.044,17.1225a1.39133,1.39133,0,0,0-.37923,1.09812" style="fill: #c6c5c3"/>
        <g id="Group-48">
          <g id="Group-5">
            <g style="mask: url(#mask)">
              <path id="Stroke-3" d="M6.45324,17.24441l1.99058.45223" style="fill: none;stroke: #fefefe;stroke-width: 0.25501090157189205px"/>
            </g>
          </g>
          <g id="Group-8">
            <g style="mask: url(#mask-2-2)">
              <path id="Stroke-6" d="M6.38153,17.019l1.98741.45339" style="fill: none;stroke: #fefefe;stroke-width: 0.25501090157189205px"/>
            </g>
          </g>
          <g id="Group-11">
            <g style="mask: url(#mask-3)">
              <path id="Stroke-9" d="M6.6046,16.90354l1.98325.45261" style="fill: none;stroke: #fefefe;stroke-width: 0.25501090157189205px"/>
            </g>
          </g>
          <g id="Group-14">
            <g style="mask: url(#mask-4-2)">
              <path id="Stroke-12" d="M6.53269,16.672l1.98741.45942" style="fill: none;stroke: #fefefe;stroke-width: 0.25501090157189205px"/>
            </g>
          </g>
          <g id="Group-17">
            <g style="mask: url(#mask-5)">
              <path id="Stroke-15" d="M7.0134,16.59042l1.99038.46077" style="fill: none;stroke: #fefefe;stroke-width: 0.25501090157189205px"/>
            </g>
          </g>
          <g id="Group-20">
            <g style="mask: url(#mask-6-2)">
              <path id="Stroke-18" d="M6.94169,16.367l1.99038.45494" style="fill: none;stroke: #fefefe;stroke-width: 0.25501090157189205px"/>
            </g>
          </g>
          <g id="Group-23">
            <g style="mask: url(#mask-7)">
              <path id="Stroke-21" d="M6.57463,17.654l1.99493.45553" style="fill: none;stroke: #fefefe;stroke-width: 0.25501090157189205px"/>
            </g>
          </g>
          <g id="Group-26">
            <g style="mask: url(#mask-8-2)">
              <path id="Stroke-24" d="M6.50138,17.42606l1.99493.45339" style="fill: none;stroke: #fefefe;stroke-width: 0.25501090157189205px"/>
            </g>
          </g>
          <g id="Group-29">
            <g style="mask: url(#mask-9)">
              <path id="Stroke-27" d="M7.7247,16.35082l1.99652.45864" style="fill: none;stroke: #fefefe;stroke-width: 0.25501090157189205px"/>
            </g>
          </g>
          <g id="Group-32">
            <g style="mask: url(#mask-10-2)">
              <path id="Stroke-30" d="M7.629,16.1413l1.99355.45728" style="fill: none;stroke: #fefefe;stroke-width: 0.25501090157189205px"/>
            </g>
          </g>
          <g id="Group-35">
            <g style="mask: url(#mask-11)">
              <path id="Stroke-33" d="M8.52473,16.17953l1.99612.4565" style="fill: none;stroke: #fefefe;stroke-width: 0.25501090157189205px"/>
            </g>
          </g>
          <g id="Group-38">
            <g style="mask: url(#mask-12-2)">
              <path id="Stroke-36" d="M8.42557,15.98405l1.99354.452" style="fill: none;stroke: #fefefe;stroke-width: 0.25501090157189205px"/>
            </g>
          </g>
          <g id="Group-41">
            <g style="mask: url(#mask-13)">
              <path id="Stroke-39" d="M8.94533,15.959l1.99058.4565" style="fill: none;stroke: #fefefe;stroke-width: 0.25501090157189205px"/>
            </g>
          </g>
          <g id="Group-44">
            <g style="mask: url(#mask-14-2)">
              <path id="Stroke-42" d="M8.80906,15.80392l1.992.45494" style="fill: none;stroke: #fefefe;stroke-width: 0.25501090157189205px"/>
            </g>
          </g>
          <g id="Group-47">
            <g style="mask: url(#mask-15)">
              <path id="Stroke-45" d="M6.392,17.78166l1.986.45436" style="fill: none;stroke: #fefefe;stroke-width: 0.25501090157189205px"/>
            </g>
          </g>
        </g>
        <g id="Group-148">
          <polygon id="Fill-49" points="2.628 13.055 2.002 13.055 2.896 8.654 3.525 8.654 2.628 13.055" style="fill: #2c296b"/>
          <polygon id="Fill-51" points="3.043 13.102 3.272 13.102 4.184 8.654 3.955 8.654 3.043 13.102" style="fill: #2c296b"/>
          <polygon id="Fill-53" points="4.184 13.055 4.41 13.055 5.306 8.678 5.083 8.678 4.184 13.055" style="fill: #2c296b"/>
          <polygon id="Fill-55" points="4.632 13.08 4.861 13.08 5.76 8.678 5.534 8.678 4.632 13.08" style="fill: #2c296b"/>
          <polygon id="Fill-57" points="3.618 13.029 3.928 13.029 4.824 8.654 4.518 8.654 3.618 13.029" style="fill: #2c296b"/>
          <polygon id="Fill-59" points="4.987 13.055 5.21 13.055 6.116 8.654 5.886 8.654 4.987 13.055" style="fill: #2c296b"/>
          <polygon id="Fill-61" points="5.525 13.055 6.03 13.055 6.928 8.654 6.428 8.654 5.525 13.055" style="fill: #2c296b"/>
          <polygon id="Fill-63" points="6.293 13.08 6.51 13.08 7.416 8.678 7.187 8.678 6.293 13.08" style="fill: #2c296b"/>
          <polygon id="Fill-65" points="6.835 13.055 7.187 13.055 8.085 8.654 7.736 8.654 6.835 13.055" style="fill: #2c296b"/>
          <polygon id="Fill-67" points="7.588 13.055 7.988 13.055 8.883 8.654 8.496 8.654 7.588 13.055" style="fill: #2c296b"/>
          <polygon id="Fill-69" points="8.159 13.029 8.333 13.029 9.235 8.63 9.061 8.63 8.159 13.029" style="fill: #2c296b"/>
          <polygon id="Fill-71" points="8.57 13.029 8.826 13.029 9.726 8.63 9.471 8.63 8.57 13.029" style="fill: #2c296b"/>
          <path id="Fill-73" d="M1.656,15.81132S7.24391,17.24977,7.4268,17.099c.1811-.15385-.43881-1.19-.43881-1.19Z" style="fill: #2c296b"/>
          <polygon id="Fill-75" points="6.958 15.894 7.319 16.529 10.547 15.934 6.958 15.894" style="fill: #d92028"/>
          <path id="Fill-77" d="M1.93315,15.91206,7.60323,18.1963a4.67115,4.67115,0,0,1-.43247-.61734c-.15736-.27779-.04949-.419-.04949-.419Z" style="fill: #adaeae"/>
          <path id="Fill-79" d="M11.69509,9.44749h-.858l-.2769,1.26848h.86119a.88914.88914,0,0,0,.5358-.15657.78578.78578,0,0,0,.286-.49088.48666.48666,0,0,0-.08055-.47981.6616.6616,0,0,0-.46751-.14122m-.36083,2.00937h-.9271l-.33391,1.55287H9.16258l.93126-4.31265h1.90685a1.312,1.312,0,0,1,.98529.33432,1.13392,1.13392,0,0,1,.171,1.0311,1.68627,1.68627,0,0,1-.632,1.07675,2.08388,2.08388,0,0,1-1.19075.31761" style="fill: #2c296b"/>
          <path id="Fill-81" d="M15.25665,11.45691a.96652.96652,0,0,1-.17952.07848,1.99266,1.99266,0,0,1-.24108.06178l-.19338.02875a1.62319,1.62319,0,0,0-.4105.11616.48729.48729,0,0,0-.26642.35257.31282.31282,0,0,0,.04493.31081.40765.40765,0,0,0,.27572.09188,1.02761,1.02761,0,0,0,.53758-.1556.8558.8558,0,0,0,.37111-.574ZM14.824,11.068a1.28454,1.28454,0,0,0,.35172-.07712.32641.32641,0,0,0,.2383-.23233.22881.22881,0,0,0-.08808-.27332.75009.75009,0,0,0-.382-.0742.67.67,0,0,0-.46474.14841.88316.88316,0,0,0-.17794.29255H13.4836a1.49491,1.49491,0,0,1,.38933-.691,1.69427,1.69427,0,0,1,1.24438-.4159,1.8459,1.8459,0,0,1,.89583.20281c.2486.14258.33252.40133.2486.78634l-.31135,1.462a2.98237,2.98237,0,0,0-.078.36519.41381.41381,0,0,0,0,.225.24467.24467,0,0,0,.10629.09635l-.02514.127h-.92611a1.53734,1.53734,0,0,1,.00613-.37938,2.55005,2.55005,0,0,1-.47622.32052,1.42188,1.42188,0,0,1-.653.15133.87779.87779,0,0,1-.67117-.24612.75067.75067,0,0,1-.133-.69893,1.185,1.185,0,0,1,.63951-.85025,2.31482,2.31482,0,0,1,.78914-.20067Z" style="fill: #2c296b"/>
          <path id="Fill-83" d="M16.36343,13.616l.10827.00311a1.29949,1.29949,0,0,0,.23474-.00311.75379.75379,0,0,0,.21139-.07129.60536.60536,0,0,0,.17952-.20785.58293.58293,0,0,0,.099-.19173l-.47186-3.32583h.94531l.19773,2.3497,1.18005-2.3497h.897l-1.79126,3.13235a5.69962,5.69962,0,0,1-.75194,1.12746,1.16938,1.16938,0,0,1-.79528.21173h-.17991c-.04751,0-.10887-.00311-.20486-.01049Z" style="fill: #2c296b"/>
          <path id="Fill-85" d="M22.80214,10.09059a.34728.34728,0,0,0-.25612-.10743.64966.64966,0,0,0-.54035.38,1.49839,1.49839,0,0,0-.21733.73272.51056.51056,0,0,0,.10174.34558.32466.32466,0,0,0,.27868.13307c.20941,0,.38339-.16318.52551-.47865a2.12463,2.12463,0,0,0,.20069-.74438.399.399,0,0,0-.09282-.26088m-1.42727,1.658a1.01294,1.01294,0,0,1-.23534-.70981,1.61085,1.61085,0,0,1,.36419-.99283,1.10678,1.10678,0,0,1,.89721-.45961.66016.66016,0,0,1,.48988.1692.68981.68981,0,0,1,.1718.30129l.10787-.36889h.56173L23.355,10.9556a1.59833,1.59833,0,0,0-.06769.23233.57486.57486,0,0,0-.01643.13073.25153.25153,0,0,0,.05721.1624.23907.23907,0,0,0,.19159.07557.68278.68278,0,0,0,.51046-.32694,1.36446,1.36446,0,0,0,.25948-.86948,1.19552,1.19552,0,0,0-.69671-1.15387,2.15636,2.15636,0,0,0-.99736-.225,2.19854,2.19854,0,0,0-1.62481.60724A1.80836,1.80836,0,0,0,20.421,10.9084a1.614,1.614,0,0,0,.64525,1.35026,2.26007,2.26007,0,0,0,1.40332.441,2.7547,2.7547,0,0,0,1.05457-.20222,2.5447,2.5447,0,0,0,.55262-.30848l.07462-.04856.21574.32771a3.251,3.251,0,0,1-.91522.4901,3.11476,3.11476,0,0,1-1.01795.16337,2.47013,2.47013,0,0,1-1.92012-.75118,2.23573,2.23573,0,0,1,.1435-3.10594A2.64571,2.64571,0,0,1,22.546,8.55967a2.4287,2.4287,0,0,1,1.55018.48291,1.6294,1.6294,0,0,1,.64723,1.35376,1.67417,1.67417,0,0,1-.40774,1.13328,1.19064,1.19064,0,0,1-.93442.47612.59236.59236,0,0,1-.42852-.15074.47422.47422,0,0,1-.13914-.31294v-.04332a.22756.22756,0,0,1,.00475-.05731,1.19271,1.19271,0,0,1-.25315.33587.874.874,0,0,1-.60527.22708.807.807,0,0,1-.60507-.25583" style="fill: #2c296b"/>
          <path id="Fill-87" d="M27.40014,9.44749h-.858L26.26026,10.716H27.123a.87612.87612,0,0,0,.53163-.15657.774.774,0,0,0,.28621-.49088.4921.4921,0,0,0-.07046-.47981.69055.69055,0,0,0-.47028-.14122m-.35826,2.00937h-.94194L25.769,13.00973h-.91206l.93324-4.31265h1.91714a1.30271,1.30271,0,0,1,.97481.33432,1.08118,1.08118,0,0,1,.17358,1.0311,1.68664,1.68664,0,0,1-.62744,1.07675,2.085,2.085,0,0,1-1.18639.31761" style="fill: #e82027"/>
          <path id="Fill-89" d="M31.40666,11.41859a1.12466,1.12466,0,0,0-.03463-.737.55921.55921,0,0,0-.5259-.26108.84554.84554,0,0,0-.62724.26108,1.41306,1.41306,0,0,0-.35667.737,1.07729,1.07729,0,0,0,.03622.73855.55145.55145,0,0,0,.51818.25953.84046.84046,0,0,0,.63041-.25953,1.48812,1.48812,0,0,0,.35963-.73855m-1.13413,1.69409a1.218,1.218,0,0,1-1.13948-.494,1.56935,1.56935,0,0,1-.153-1.2001,2.279,2.279,0,0,1,.668-1.19292,1.87464,1.87464,0,0,1,1.35859-.50623,1.19949,1.19949,0,0,1,1.13235.50623,1.57075,1.57075,0,0,1,.15854,1.19292,2.28662,2.28662,0,0,1-.67236,1.2001,1.89037,1.89037,0,0,1-1.35265.494" style="fill: #e82027"/>
          <path id="Fill-91" d="M33.44181,11.99111a.41741.41741,0,0,0,.04652.31392c.078.1115.25909.16958.54054.16958a1.08516,1.08516,0,0,0,.41961-.075.32327.32327,0,0,0,.19457-.22184.18411.18411,0,0,0-.07779-.21174,4.09041,4.09041,0,0,0-.827-.25408,1.44435,1.44435,0,0,1-.70265-.33237.612.612,0,0,1-.09857-.5748,1.28006,1.28006,0,0,1,.50928-.759,1.74208,1.74208,0,0,1,1.06347-.31625,1.56247,1.56247,0,0,1,.939.23971.80994.80994,0,0,1,.26067.8217h-.842a.47673.47673,0,0,0-.04335-.25506c-.06709-.114-.21416-.17269-.44494-.17269a.82271.82271,0,0,0-.40576.0845.29031.29031,0,0,0-.15715.203.16138.16138,0,0,0,.07323.2063,4.47725,4.47725,0,0,0,.83764.23155,1.26973,1.26973,0,0,1,.68246.35276.66267.66267,0,0,1,.117.59908,1.2399,1.2399,0,0,1-.52411.77314,2.015,2.015,0,0,1-1.17135.29895,1.4067,1.4067,0,0,1-1.06189-.31741.85911.85911,0,0,1-.193-.804Z" style="fill: #e82027"/>
          <path id="Fill-93" d="M36.16469,10.44267l.13479-.59092h.45069l.195-.89163H37.782l-.19318.89163h.52748l-.12746.59092h-.53164l-.35766,1.68225c-.03464.12859-.03464.21232,0,.24534.01762.03244.12133.04643.29313.04643h.08254c.0285,0,.05384-.00233.08373-.00233l-.1348.61831-.40714.013c-.39863.01632-.66227-.04973-.7743-.20125a.51123.51123,0,0,1-.04651-.43882l.42218-1.96294Z" style="fill: #e82027"/>
          <path id="Fill-95" d="M13.2994,17.42606H13.046l.19338-1.07015c.00158-.01321.00733-.02564.00733-.02952V16.287a.295.295,0,0,0-.08987-.2162.379.379,0,0,0-.25909-.08081.7506.7506,0,0,0-.36854.10509.37153.37153,0,0,0-.20189.25661l-.19773,1.07442H11.887l.29214-1.63679h.24425l-.02732.16687a.88633.88633,0,0,1,.55124-.19329.61775.61775,0,0,1,.4016.12258.39515.39515,0,0,1,.1528.33081.24325.24325,0,0,1-.00475.05964.31658.31658,0,0,1-.00317.05439Z" style="fill: #2c296b"/>
          <polygon id="Fill-97" points="13.18 18.08 12.928 18.08 12.979 17.794 12.814 17.794 12.854 17.59 13.272 17.59 13.18 18.08" style="fill: #2c296b"/>
          <path id="Fill-99" d="M14.963,17.42606h-.24682l.19318-1.076a.38117.38117,0,0,0,.00139-.0404v-.02875a.24039.24039,0,0,0-.10471-.2131.48929.48929,0,0,0-.29372-.07789.676.676,0,0,0-.48988.18959l-.22623,1.24653h-.25118l.2302-1.3083a1.03477,1.03477,0,0,1,.782-.35491.73588.73588,0,0,1,.43565.11325.38512.38512,0,0,1,.18011.34014.14242.14242,0,0,1-.00633.04934v.0441Z" style="fill: #2c296b"/>
          <path id="Fill-101" d="M16.72606,16.89252a.61609.61609,0,0,1-.28166.40269.91856.91856,0,0,1-.52708.15948.928.928,0,0,1-.24266-.03535.61926.61926,0,0,1-.195-.09771.61131.61131,0,0,1-.1344-.14608.48239.48239,0,0,1-.04077-.19717v-.03963c0-.01826.00633-.03224.00633-.04623l.19773-1.10336H15.76l-.20089,1.10336c-.001.01107-.001.028-.001.04915a.22165.22165,0,0,0,.11658.20571.47311.47311,0,0,0,.28442.07965.68278.68278,0,0,0,.177-.02526.87123.87123,0,0,0,.16171-.06682.4129.4129,0,0,0,.11361-.10665.26922.26922,0,0,0,.06611-.13578l.19912-1.10336H16.927Z" style="fill: #2c296b"/>
          <polygon id="Fill-103" points="16.958 15.586 15.662 15.586 15.7 15.379 17.003 15.379 16.958 15.586" style="fill: #2c296b"/>
          <path id="Fill-105" d="M18.33461,17.42606h-.253l.11974-.65852a.317.317,0,0,0-.16507-.18746.56316.56316,0,0,0-.30085-.075.64533.64533,0,0,0-.38933.12277.41148.41148,0,0,0-.19041.35063.25624.25624,0,0,0,.06591.1688.2138.2138,0,0,0,.1724.06916.589.589,0,0,0,.26641-.06954l.11084.17463a.68267.68267,0,0,1-.41466.12724.43354.43354,0,0,1-.457-.43513.65252.65252,0,0,1,.28185-.53809.93269.93269,0,0,1,.58983-.19969.63363.63363,0,0,1,.4883.17114l.04512-.24029a.22343.22343,0,0,0-.13479-.15055.50116.50116,0,0,0-.25335-.06624.61634.61634,0,0,0-.54351.2535h-.26245a.87871.87871,0,0,1,.8406-.48059.72059.72059,0,0,1,.43762.12413.38417.38417,0,0,1,.17042.27779Z" style="fill: #2c296b"/>
          <path id="Fill-107" d="M20.18286,16.57725a.94326.94326,0,0,1-.3925.63346,1.20617,1.20617,0,0,1-.81329.22922l-.04948-.8217h-.18408l.04474-.22844h.37745l.05423.82092A.7523.7523,0,0,0,19.69,17.019a.79735.79735,0,0,0,.25019-.44173c.00277-.042.00435-.08023.00435-.12064a.46436.46436,0,0,0-.12549-.33722.52079.52079,0,0,0-.36122-.12937.97555.97555,0,0,0-.62308.2535l-.17814-.156a1.3319,1.3319,0,0,1,.84912-.3246.71486.71486,0,0,1,.50888.17114.603.603,0,0,1,.18763.47262.811.811,0,0,1-.01939.17056" style="fill: #2c296b"/>
          <polygon id="Fill-109" points="20.3 15.586 20.043 15.586 20.13 15.137 20.38 15.137 20.3 15.586" style="fill: #2c296b"/>
          <path id="Fill-111" d="M21.1441,17.42606h-.25157l.18724-1.01071c0-.01981.00456-.03671.00456-.05342a.33275.33275,0,0,0,.003-.05361c0-.21329-.11658-.31838-.34162-.31838a.78961.78961,0,0,0-.39546.11538l.04552-.258a.89629.89629,0,0,1,.40556-.0845.603.603,0,0,1,.41347.12413.43751.43751,0,0,1,.13756.33742.89066.89066,0,0,1-.01326.12646Z" style="fill: #2c296b"/>
          <path id="Fill-113" d="M22.85471,17.17982a1.03791,1.03791,0,0,1-.74739.2706.8396.8396,0,0,1-.51362-.13617.37277.37277,0,0,1-.16943-.32538.35705.35705,0,0,1,.03009-.15968.53491.53491,0,0,1,.07778-.14472,1.21422,1.21422,0,0,1,.12153-.12568.46148.46148,0,0,1,.14647-.08314.2793.2793,0,0,1-.15577-.11985.26881.26881,0,0,1-.05067-.18863.54777.54777,0,0,1,.07323-.15967.30837.30837,0,0,1,.13321-.12549,1.00684,1.00684,0,0,1,.18447-.08314.83255.83255,0,0,1,.21257-.03166.75293.75293,0,0,1,.26048.04778l-.03444.22281a1.39466,1.39466,0,0,0-.25454-.03749c-.18882,0-.29076.056-.31015.16686-.02079.12025.07066.183.29353.183H22.368l-.04078.22709h-.18268a.51323.51323,0,0,0-.30244.09479.32024.32024,0,0,0-.15854.26963.22771.22771,0,0,0,.12271.20571.65523.65523,0,0,0,.33827.075.9746.9746,0,0,0,.47621-.13442l.234-1.29878h.25453Z" style="fill: #2c296b"/>
          <polygon id="Fill-115" points="24.644 17.426 24.443 17.426 24.238 16.191 23.581 17.426 23.38 17.426 23.229 15.789 23.782 15.789 23.734 16.022 23.505 16.022 23.593 16.932 24.198 15.789 24.418 15.789 24.608 16.932 25.13 15.789 25.386 15.789 24.644 17.426" style="fill: #2c296b"/>
          <polygon id="Fill-117" points="25.299 15.586 25.048 15.586 25.13 15.137 25.378 15.137 25.299 15.586" style="fill: #2c296b"/>
          <path id="Fill-119" d="M26.136,17.42606h-.24563l.18269-1.01071a.16835.16835,0,0,0,.00614-.05342v-.05361c0-.21329-.114-.31838-.33688-.31838a.79938.79938,0,0,0-.39863.11538l.05106-.258a.86358.86358,0,0,1,.40279-.0845.587.587,0,0,1,.4117.12413.44114.44114,0,0,1,.13775.33742.51027.51027,0,0,1-.01167.12646Z" style="fill: #2c296b"/>
          <path id="Fill-121" d="M27.80894,17.42606h-.24563L27.5932,17.26a.90579.90579,0,0,1-.55124.19464.649.649,0,0,1-.41149-.12043.43071.43071,0,0,1-.1528-.33878c0-.0169.00732-.03613.00732-.05362,0-.02136,0-.03826.00139-.05672l.19931-1.09579h.252l-.18743,1.06782a.1413.1413,0,0,0-.00911.03535v.03691a.274.274,0,0,0,.08828.218.4043.4043,0,0,0,.25632.07965.74217.74217,0,0,0,.36537-.10432.42569.42569,0,0,0,.21119-.26321L27.86,15.78927h.24563Z" style="fill: #2c296b"/>
          <path id="Fill-123" d="M28.7033,15.70689,28.39473,17.426h-.25335l.30719-1.68166a.71185.71185,0,0,1,.28739-.4563l-.05839-.07712-.23672.17619-.33529-.32616.18269-.17269.20822.211.2771-.19328.23375.33586a.681.681,0,0,0-.304.465" style="fill: #2c296b"/>
          <path id="Fill-125" d="M30.12147,16.89252a.58024.58024,0,0,1-.28443.40269.90642.90642,0,0,1-.52293.15948.9498.9498,0,0,1-.244-.03535.60192.60192,0,0,1-.19477-.09771.57953.57953,0,0,1-.12726-.14608.3947.3947,0,0,1-.04771-.19717.18989.18989,0,0,1,.003-.03963.23624.23624,0,0,1,.00277-.04623l.20071-1.10336H29.154l-.195,1.10336a.45126.45126,0,0,0-.00891.04915.24.24,0,0,0,.12.20571.465.465,0,0,0,.28324.07965.71963.71963,0,0,0,.18387-.02526.82008.82008,0,0,0,.16032-.06682.4164.4164,0,0,0,.11381-.10665.37566.37566,0,0,0,.06453-.13578l.29353-1.63912h.24108Z" style="fill: #2c296b"/>
          <path id="Fill-127" d="M31.58468,16.24346c-.02988-.16745-.16923-.24321-.40575-.24321a.65935.65935,0,0,0-.2967.07052c-.093.05011-.14667.10373-.15894.17269-.0283.1082.12272.17794.44079.202.39072.029.5837.15521.5837.38385V16.866a.14332.14332,0,0,1-.00871.03749.56734.56734,0,0,1-.29373.41085.91512.91512,0,0,1-.51818.14608.70348.70348,0,0,1-.43109-.1249.42451.42451,0,0,1-.192-.36753c0-.04021.01088-.07557.01187-.11889h.25335a.05188.05188,0,0,1-.0091.03749v.04119c0,.20358.13479.29973.41031.29973a.63461.63461,0,0,0,.33094-.07867.2961.2961,0,0,0,.18427-.22106c.02988-.14123-.10906-.23-.40991-.25584-.41506-.0404-.61893-.15423-.61893-.34169a.49977.49977,0,0,1,.26226-.41823.9805.9805,0,0,1,.50016-.14491.84491.84491,0,0,1,.24425.03671.54071.54071,0,0,1,.20327.08975.42993.42993,0,0,1,.17715.34985Z" style="fill: #2c296b"/>
          <path id="Fill-129" d="M33.56629,16.67428h-.17081l-.03464.21834a.59057.59057,0,0,1-.28581.40269.91208.91208,0,0,1-.52867.15948.68954.68954,0,0,1-.4299-.13015.40378.40378,0,0,1-.18269-.34616.19159.19159,0,0,1,.003-.03982.15689.15689,0,0,1,.00416-.046l.19812-1.10337h.253l-.19615,1.10337a.10968.10968,0,0,0-.00614.04914.24153.24153,0,0,0,.114.20572.497.497,0,0,0,.29214.07945.62848.62848,0,0,0,.17656-.02506.56745.56745,0,0,0,.15893-.06682.50963.50963,0,0,0,.11975-.10665.2488.2488,0,0,0,.05839-.13578l.03721-.21834h-.48057l.05839-.30731.10787.08022h.35627l.12569-.65794h.24583l-.11837.65794h.1631Z" style="fill: #2c296b"/>
          <path id="Fill-131" d="M36.03461,17.42606h-.2488l.02851-.16473a.81747.81747,0,0,1-.51205.19328.54984.54984,0,0,1-.37488-.11907.41592.41592,0,0,1-.13776-.33c0-.01826.00456-.0373.00456-.05575a.2006.2006,0,0,1,.00594-.05731l.09738-.54158c0-.01632.00316-.02447.00316-.03322V16.287c0-.1993-.1332-.297-.4-.297a.65464.65464,0,0,0-.48988.19328l-.187,1.01867h.25295l-.03444.22417h-.50907l.23652-1.3083a1.00749,1.00749,0,0,1,.77886-.35491.753.753,0,0,1,.43425.11325.39226.39226,0,0,1,.17379.34014v.04934a.40957.40957,0,0,1-.00733.0441l-.10193.58276v.06683c0,.17793.10193.26768.31926.26768a.63832.63832,0,0,0,.33509-.10432.44333.44333,0,0,0,.18428-.26321l.19614-1.07015h.252Z" style="fill: #2c296b"/>
          <polygon id="Fill-133" points="36.366 15.586 35.074 15.586 35.113 15.379 36.153 15.379 36.195 15.176 36.439 15.176 36.366 15.586" style="fill: #2c296b"/>
          <path id="Fill-135" d="M37.74175,17.17982a1.04793,1.04793,0,0,1-.75055.2706.818.818,0,0,1-.5061-.13617.36839.36839,0,0,1-.17794-.32538.493.493,0,0,1,.02989-.15968.42784.42784,0,0,1,.08847-.14472.75408.75408,0,0,1,.115-.12568.66808.66808,0,0,1,.14825-.08314.31.31,0,0,1-.15854-.11985.24532.24532,0,0,1-.04513-.18863.40877.40877,0,0,1,.06472-.15967.52057.52057,0,0,1,.139-.12549,1.00575,1.00575,0,0,1,.18269-.08314.84511.84511,0,0,1,.21435-.03166.8061.8061,0,0,1,.265.04778l-.03879.22281a1.35482,1.35482,0,0,0-.26206-.03749c-.17853,0-.28462.056-.29986.16686-.02831.12025.07066.183.28937.183h.22306l-.04176.22709h-.18427a.50406.50406,0,0,0-.3056.09479.31956.31956,0,0,0-.156.26963.22438.22438,0,0,0,.12153.20571.68037.68037,0,0,0,.34.075,1.00828,1.00828,0,0,0,.48057-.13442l.22465-1.29878h.25018Z" style="fill: #2c296b"/>
          <g id="Group-139">
            <g style="mask: url(#mask-16-2)">
              <path id="Fill-137" d="M38.14167,15.43864h-.12272c-.09144,0-.13657.03089-.15141.10218l-.0103.04565h-.24582l.01662-.07284a.2905.2905,0,0,1,.3248-.238h.21733Z" style="fill: #2c296b"/>
            </g>
          </g>
          <path id="Fill-140" d="M1.78933,13.90852l.0196-.09926a.68216.68216,0,0,0,.2098-.04546.42209.42209,0,0,0,.1152-.14783h.10015l-.21535,1.01712H1.87622l.15874-.72457Z" style="fill: #221f20"/>
          <path id="Fill-142" d="M3.27226,14.36949a.13351.13351,0,0,0,.0764.15715.19816.19816,0,0,0,.099.02078.25772.25772,0,0,0,.18527-.07226.2799.2799,0,0,0,.09025-.16162.16269.16269,0,0,0-.02711-.169.20794.20794,0,0,0-.14825-.05439.31.31,0,0,0-.1154.022.43882.43882,0,0,0-.10609.06993l-.114-.00291.20683-.55207h.5358l-.02672.12063H3.48642l-.11243.28885a.32832.32832,0,0,1,.08551-.03982.39673.39673,0,0,1,.13637-.02408.28636.28636,0,0,1,.22584.08741.24015.24015,0,0,1,.0483.23077.52022.52022,0,0,1-.14687.25933.43167.43167,0,0,1-.31609.10665.32147.32147,0,0,1-.20981-.06916.23308.23308,0,0,1-.06294-.21814Z" style="fill: #221f20"/>
          <path id="Fill-144" d="M5.14273,14.26943l.10075-.46291-.43169.46291Zm-.07323.36383.05522-.25291H4.66928l.02455-.12491.61675-.65036h.11559l-.14093.66435h.1435l-.018.11092H5.25516l-.054.25291Z" style="fill: #221f20"/>
          <path id="Fill-146" d="M6.35891,14.36949a.14873.14873,0,0,0,.078.15715.1939.1939,0,0,0,.0958.02078.25052.25052,0,0,0,.18863-.07226.30418.30418,0,0,0,.08966-.16162.16743.16743,0,0,0-.02692-.169.20944.20944,0,0,0-.14805-.05439.44415.44415,0,0,0-.12588.022.54524.54524,0,0,0-.09283.06993l-.112-.00291.19615-.55207h.5451l-.02851.12063H6.57465l-.10787.28885a.30715.30715,0,0,1,.07937-.03982.37359.37359,0,0,1,.13321-.02408.28671.28671,0,0,1,.23237.08741.27068.27068,0,0,1,.05067.23077.53933.53933,0,0,1-.15142.25933.43629.43629,0,0,1-.31431.10665.28983.28983,0,0,1-.20387-.06916.21073.21073,0,0,1-.0671-.21814Z" style="fill: #221f20"/>
        </g>
      </g>
    </g>
  </g>
</svg>
