<svg id="Layer_1" data-name="Layer 1" xmlns="http://www.w3.org/2000/svg" xmlns:xlink="http://www.w3.org/1999/xlink" viewBox="0 0 40 26">
  <defs>
    <mask id="mask" x="8.95257" y="1.56918" width="12.38012" height="21.62022" maskUnits="userSpaceOnUse">
      <g id="mask-2">
        <polygon id="path-1" points="21.333 1.569 8.953 1.569 8.953 23.189 21.333 23.189 21.333 1.569" style="fill: #fff"/>
      </g>
    </mask>
    <mask id="mask-2-2" x="5.10434" y="8.02612" width="1.73525" height="1.73461" maskUnits="userSpaceOnUse">
      <g id="mask-4">
        <polygon id="path-3" points="5.104 8.026 5.104 9.761 6.84 9.761 6.84 8.026 5.104 8.026" style="fill: #fff"/>
      </g>
    </mask>
    <mask id="mask-3" x="5.10441" y="1.56924" width="28.71745" height="22.72798" maskUnits="userSpaceOnUse">
      <g id="mask-6">
        <polygon id="path-5" points="5.104 24.297 33.822 24.297 33.822 1.569 5.104 1.569 5.104 24.297" style="fill: #fff"/>
      </g>
    </mask>
    <mask id="mask-7" x="5.10441" y="1.56924" width="28.71796" height="22.72798" maskUnits="userSpaceOnUse">
      <g id="mask-6-6" data-name="mask-6">
        <polygon id="path-5-5" data-name="path-5" points="5.104 24.297 33.822 24.297 33.822 1.569 5.104 1.569 5.104 24.297" style="fill: #fff"/>
      </g>
    </mask>
  </defs>
  <title>pay_easy</title>
  <rect width="40" height="26" style="fill: #fff"/>
  <g id="Page-1">
    <path id="Fill-1" d="M11.14011,11.8177h1.01131a5.40925,5.40925,0,0,1-.78693-2.85716c0-2.32159,1.36621-4.24843,3.15932-4.62133v-.207h3.64666a5.92583,5.92583,0,0,0-2.78193-2.13514V1.71866H13.76066c-3.28277,0-5.94382,3.27955-5.94382,7.32482a7.62835,7.62835,0,0,0,3.32327,6.57518v-3.801Z" style="fill: #2c80c2"/>
    <path id="Fill-3" d="M28.46457,8.89342a2.63631,2.63631,0,1,1-2.636-2.636,2.63588,2.63588,0,0,1,2.636,2.636" style="fill: #9ccb3b"/>
    <path id="Fill-5" d="M16.78593,4.12422a3.17833,3.17833,0,0,0-.35167.01993A4.94658,4.94658,0,0,1,17.85,7.69887c0,2.45533-1.61373,4.45739-3.63508,4.557a3.42236,3.42236,0,0,0,2.571,1.24149c2.09465,0,3.79325-2.09851,3.79325-4.68691,0-2.58777-1.6986-4.68627-3.79325-4.68627" style="fill: #2c80c2"/>
    <g id="Group-9">
      <g style="mask: url(#mask)">
        <path id="Fill-7" d="M16.78594,13.49733c-2.09465,0-3.79325-2.0985-3.79325-4.68626,0-2.58841,1.6986-4.68691,3.79325-4.68691s3.79324,2.0985,3.79324,4.68691c0,2.58776-1.6986,4.68626-3.79324,4.68626M15.38886,1.56918a5.39144,5.39144,0,0,0-4.09542,2.01621c-.09579-.19159-.153-.2906-.153-.2906q-.18614.487-.353.96245A8.39358,8.39358,0,0,0,9.445,8.89336c0,.09.00193.18.0045.26938-1.71468,8.9945,1.561,13.9315,1.52373,14.02666a30.28745,30.28745,0,0,0,1.98406-7.61093,4.99168,4.99168,0,0,0,2.43153.63971c3.28277,0,5.94383-3.27955,5.94383-7.32482s-2.66106-7.32418-5.94383-7.32418" style="fill: #263b90"/>
      </g>
    </g>
    <path id="Fill-10" d="M11.14011,3.295s-.47384-.05593-2.0895-.13951c-4.34681,11.67484,0,18.585,0,18.585L10.973,23.189c.045-.11379-4.6792-7.19624.16716-19.894" style="fill: #2c80c2"/>
    <g id="Group-14">
      <g style="mask: url(#mask-2-2)">
        <path id="Fill-12" d="M6.83959,8.89342a.86763.86763,0,1,1-.8673-.8673.86733.86733,0,0,1,.8673.8673" style="fill: #9ccb3b"/>
      </g>
    </g>
    <path id="Fill-15" d="M17.1751,8.89342a1.66228,1.66228,0,1,1-1.6626-1.66259,1.66277,1.66277,0,0,1,1.6626,1.66259" style="fill: #9ccb3b"/>
    <path id="Fill-17" d="M22.18289,8.89342A2.00624,2.00624,0,1,1,20.177,6.8875a2.006,2.006,0,0,1,2.00592,2.00592" style="fill: #9ccb3b"/>
    <path id="Fill-19" d="M13.61356,21.80583a.37241.37241,0,0,0,.11251.28353.38585.38585,0,0,0,.27774.10672.83651.83651,0,0,0,.56-.25524V21.0909a3.9465,3.9465,0,0,0-.55806.22759,1.00827,1.00827,0,0,0-.297.21795.39778.39778,0,0,0-.09515.26939m.5182-2.42575a1.48465,1.48465,0,0,1,.95024.26424.89372.89372,0,0,1,.32853.73807v1.579q0,.18324.14852.18324a.45167.45167,0,0,0,.17423-.05337.789.789,0,0,0,.18837-.12279V22.459a1.59077,1.59077,0,0,1-.81522.2726.66827.66827,0,0,1-.351-.07587.41732.41732,0,0,1-.171-.26938,1.6816,1.6816,0,0,1-.97788.34525.84287.84287,0,0,1-.59921-.23467.74569.74569,0,0,1-.25074-.5632.87825.87825,0,0,1,.24881-.66028,2.1223,2.1223,0,0,1,.87052-.42112l.68793-.20059v-.14852q0-.4735-.57349-.47383a1.36944,1.36944,0,0,0-.58377.135,1.66083,1.66083,0,0,0-.52913.39733V19.798a1.96335,1.96335,0,0,1,1.25435-.4179" style="fill: #263b90"/>
    <polygon id="Fill-21" points="16.776 19.442 17.54 21.177 18.314 19.442 19.226 19.442 16.997 24.297 16.085 24.297 17.111 22.075 15.857 19.442 16.776 19.442" style="fill: #263b90"/>
    <g style="mask: url(#mask-3)">
      <polygon id="Fill-23" points="18.986 21.643 20.277 21.643 20.277 21.056 18.986 21.056 18.986 21.643" style="fill: #263b90"/>
    </g>
    <g style="mask: url(#mask-3)">
      <path id="Fill-25" d="M23.10625,20.71041a.93634.93634,0,0,0-.21409-.551.63388.63388,0,0,0-.49441-.19866.70788.70788,0,0,0-.51626.18966.93978.93978,0,0,0-.24753.56Zm-.74321-1.3302a1.44775,1.44775,0,0,1,1.127.45583,1.80918,1.80918,0,0,1,.41469,1.26141v.128H21.62046a.99674.99674,0,0,0,.32275.66542,1.10967,1.10967,0,0,0,.74515.23274,1.65073,1.65073,0,0,0,.5857-.10544,2.54541,2.54541,0,0,0,.58184-.31953v.63263a2.31656,2.31656,0,0,1-1.37521.40054,1.7359,1.7359,0,0,1-1.24727-.45969,1.60607,1.60607,0,0,1-.48412-1.22283,1.66691,1.66691,0,0,1,.44747-1.20291,1.54478,1.54478,0,0,1,1.16627-.46612Z" style="fill: #263b90"/>
    </g>
    <g style="mask: url(#mask-3)">
      <path id="Fill-26" d="M25.2297,21.80583a.37241.37241,0,0,0,.11251.28353.38585.38585,0,0,0,.27775.10672.83649.83649,0,0,0,.56-.25524V21.0909a3.9465,3.9465,0,0,0-.55806.22759,1.00827,1.00827,0,0,0-.297.21795.39783.39783,0,0,0-.09515.26939m.5182-2.42575a1.48465,1.48465,0,0,1,.95024.26424.89372.89372,0,0,1,.32853.73807v1.579q0,.18324.14852.18324a.45167.45167,0,0,0,.17423-.05337.789.789,0,0,0,.18837-.12279V22.459a1.59074,1.59074,0,0,1-.81522.2726.66827.66827,0,0,1-.351-.07587.41727.41727,0,0,1-.171-.26938,1.68165,1.68165,0,0,1-.97789.34525.84287.84287,0,0,1-.59921-.23467.74568.74568,0,0,1-.25073-.5632.87821.87821,0,0,1,.24881-.66028,2.12218,2.12218,0,0,1,.87051-.42112l.68793-.20059v-.14852q0-.4735-.57349-.47383a1.36944,1.36944,0,0,0-.58377.135,1.66094,1.66094,0,0,0-.52913.39733V19.798a1.96337,1.96337,0,0,1,1.25435-.4179" style="fill: #263b90"/>
    </g>
    <g style="mask: url(#mask-3)">
      <path id="Fill-27" d="M29.24385,19.38008a1.99121,1.99121,0,0,1,.50084.06043,2.541,2.541,0,0,1,.49763.19159V20.313a2.41216,2.41216,0,0,0-.5182-.25074,1.55058,1.55058,0,0,0-.49441-.09451.51278.51278,0,0,0-.28674.06879.22372.22372,0,0,0-.10351.19674.19845.19845,0,0,0,.08615.1453,3.23323,3.23323,0,0,0,.47383.26617,2.88512,2.88512,0,0,1,.77537.51691.79692.79692,0,0,1,.22309.56834.89991.89991,0,0,1-.32467.73422,1.337,1.337,0,0,1-.87759.26746,2.60451,2.60451,0,0,1-.64486-.07587,2.16311,2.16311,0,0,1-.49569-.18323v-.70786a2.27691,2.27691,0,0,0,1.04732.34525.69952.69952,0,0,0,.35233-.07779.23176.23176,0,0,0,.13437-.20574.222.222,0,0,0-.04822-.13823.62969.62969,0,0,0-.14531-.1273q-.09643-.06654-.60434-.315a1.73044,1.73044,0,0,1-.57735-.40568.77889.77889,0,0,1-.18644-.52013.81647.81647,0,0,1,.3356-.68407,1.41353,1.41353,0,0,1,.8808-.25588" style="fill: #263b90"/>
    </g>
    <g style="mask: url(#mask-7)">
      <polygon id="Fill-28" points="31.372 19.32 32.136 21.054 32.91 19.32 33.822 19.32 31.593 24.174 30.681 24.174 31.707 21.952 30.453 19.32 31.372 19.32" style="fill: #263b90"/>
    </g>
  </g>
</svg>
