<svg id="Layer_1" data-name="Layer 1" xmlns="http://www.w3.org/2000/svg" xmlns:xlink="http://www.w3.org/1999/xlink" viewBox="0 0 40 26">
  <defs>
    <mask id="mask" x="29.43031" y="8.96277" width="8.21639" height="8.13503" maskUnits="userSpaceOnUse">
      <g id="mask-2">
        <polygon id="path-1" points="37.647 17.098 37.647 8.963 29.43 8.963 29.43 17.098 37.647 17.098" style="fill: #fff"/>
      </g>
    </mask>
    <mask id="mask-2-2" x="21.94186" y="8.9628" width="6.99697" height="8.13845" maskUnits="userSpaceOnUse">
      <g id="mask-4">
        <polygon id="path-3" points="21.942 17.101 28.939 17.101 28.939 8.963 21.942 8.963 21.942 17.101" style="fill: #fff"/>
      </g>
    </mask>
  </defs>
  <title>payco</title>
  <rect width="40" height="26" style="fill: #f61a23"/>
  <g id="Page-1">
    <g id="Group-3">
      <g style="mask: url(#mask)">
        <path id="Fill-1" d="M33.658,10.54565a2.354,2.354,0,0,0-1.37855.3486,2.5383,2.5383,0,0,0-1.05405,2.67018,2.34419,2.34419,0,0,0,2.3993,1.97178,2.197,2.197,0,0,0,1.68086-.79723,2.60114,2.60114,0,0,0,.545-2.21587A2.315,2.315,0,0,0,33.658,10.54565Zm.00053-1.58288c.15813.02048.316.04342.47459.0611a3.95372,3.95372,0,0,1,3.46572,3.36267,4.01937,4.01937,0,0,1-3.33951,4.64625,4.11244,4.11244,0,0,1-3.37439-.849,3.82313,3.82313,0,0,1-1.428-2.67146,4.00114,4.00114,0,0,1,.83134-2.98609A3.92966,3.92966,0,0,1,32.78108,9.0525c.16563-.02959.33517-.03559.5026-.05553a1.30537,1.30537,0,0,0,.1465-.0342Z" style="fill: #fff"/>
      </g>
    </g>
    <path id="Fill-4" d="M3.8392,11.80227c0,.35558.00465.71126-.00243,1.06672-.00254.126.045.167.16151.16487.46434-.00847.92921-.00171,1.39292-.02176a1.16354,1.16354,0,0,0,1.1921-1.137,1.05315,1.05315,0,0,0-.64689-1.15087,2.06738,2.06738,0,0,0-.675-.14525c-.42132-.02273-.84465-.00311-1.267-.00922-.12452-.00171-.15908.0462-.15718.16584.0056.35546.002.71114.002,1.06671m-1.68794-1.939a1.08587,1.08587,0,0,0,.03711-.12113.82306.82306,0,0,1,.80269-.68906c.84518-.0029,1.6911-.02166,2.53544.00536a2.87126,2.87126,0,0,1,2.04489.82563,2.453,2.453,0,0,1,.67077,1.38349A2.98671,2.98671,0,0,1,8.08731,12.846a2.50828,2.50828,0,0,1-1.55242,1.453,3.97059,3.97059,0,0,1-1.3163.23241c-.4098.0089-.81992.00589-1.22972-.00043-.11807-.00193-.15274.0387-.15157.15468.00465.4885.00232.97711.00158,1.46571a.844.844,0,0,1-.75914.87591.83282.83282,0,0,1-.89423-.71383.673.673,0,0,0-.03425-.09551V9.86329" style="fill: #fff"/>
    <g id="Group-8">
      <g style="mask: url(#mask-2-2)">
        <path id="Fill-6" d="M26.0734,8.9628l.56413.06207a3.78358,3.78358,0,0,1,1.93506.76689.84855.84855,0,0,1,.18276,1.1007.81594.81594,0,0,1-1.0735.28214c-.13-.07032-.24639-.166-.37408-.2414a2.29924,2.29924,0,0,0-2.50024-.06057,2.251,2.251,0,0,0-1.0624,1.60517,2.6709,2.6709,0,0,0,.544,2.28062,2.10018,2.10018,0,0,0,1.60739.77857,2.55856,2.55856,0,0,0,1.76795-.61777.73549.73549,0,0,1,.87648-.08415.76814.76814,0,0,1,.16341,1.22537,3.46929,3.46929,0,0,1-1.73952.92672,4.19515,4.19515,0,0,1-2.93319-.3499,3.81281,3.81281,0,0,1-2.02882-2.89614,4.076,4.076,0,0,1,.74836-3.18472A3.811,3.811,0,0,1,25.384,9.02519c.15358-.02154.30738-.04159.46107-.06239Z" style="fill: #fff"/>
      </g>
    </g>
    <path id="Fill-9" d="M11.77614,11.08827l-.04323-.0014c-.356.861-.712,1.722-1.07783,2.60672.08308.00664.1317.01393.18032.01393q.91864.00129,1.8374.00032c.18593-.0001.19227-.01007.11881-.18791q-.47471-1.14938-.95067-2.298c-.01892-.04566-.04313-.08919-.0648-.13367m-.02273,4.1139c-.52839,0-1.0569.00258-1.58529-.00225a.174.174,0,0,0-.19037.125c-.15982.392-.32471.782-.49162,1.171a.80437.80437,0,0,1-.71781.53084.772.772,0,0,1-.75143-1.07594c.23159-.51455.45124-1.03467.67691-1.552q1.01013-2.31644,2.01994-4.633a1.08986,1.08986,0,0,1,.75608-.73323,1.072,1.072,0,0,1,1.34695.6657q.76437,1.75187,1.52906,3.50352c.38655.88567.77056,1.77251,1.16165,2.65613a.80331.80331,0,0,1-.046.81771.79036.79036,0,0,1-1.31481.00653,1.6828,1.6828,0,0,1-.16288-.304q-.22674-.52371-.44268-1.05246a.17422.17422,0,0,0-.18973-.126c-.53263.005-1.06525.00236-1.598.00236" style="fill: #fff"/>
    <path id="Fill-11" d="M18.29692,12.3373c.04144-.05285.07431-.09069.10275-.13164q.91721-1.32657,1.83549-2.65238a1.61474,1.61474,0,0,1,.27746-.31505.8072.8072,0,0,1,.91611-.10538.751.751,0,0,1,.41868.7611,1.11541,1.11541,0,0,1-.26245.62946q-1.18914,1.6271-2.37806,3.25429a.46977.46977,0,0,0-.09513.2964q.00381,1.05483,0,2.10965a.82668.82668,0,0,1-1.48393.51883.77742.77742,0,0,1-.16923-.48775c.00011-.69892-.00264-1.39785.00085-2.09677a.50846.50846,0,0,0-.10412-.31945q-1.20165-1.64977-2.39782-3.3035a1.03057,1.03057,0,0,1-.217-.56589.768.768,0,0,1,.41107-.76625.78881.78881,0,0,1,.90765.05307,1.57715,1.57715,0,0,1,.33412.364c.59975.86658,1.192,1.73852,1.78729,2.60821.03267.04781.07114.09144.11627.149" style="fill: #fff"/>
  </g>
</svg>
