<svg id="Layer_1" data-name="Layer 1" xmlns="http://www.w3.org/2000/svg" viewBox="0 0 40 26">
  <title>paypal_small</title>
  <rect y="-0.00032" width="40" height="26" style="fill: #fff"/>
  <rect y="-0.00032" width="40" height="26" style="fill: #fff"/>
  <g>
    <path id="path14499" d="M25.35636,5.36343c-.83281-.94922-2.33824-1.35617-4.264-1.35617H15.503a.80043.80043,0,0,0-.79052.6751L12.38514,19.44258a.47982.47982,0,0,0,.47411.5547h3.45064l.86663-5.49683-.02686.17213a.79775.79775,0,0,1,.78754-.6751h1.63974c3.22129,0,5.7436-1.30841,6.48039-5.09336q.03283-.16791.05721-.32736h0a3.57308,3.57308,0,0,0-.75818-3.21332" style="fill: #003086"/>
    <path id="path14527" d="M25.35636,5.36343c-.83281-.94922-2.33824-1.35617-4.264-1.35617H15.503a.80043.80043,0,0,0-.79052.6751L12.38514,19.44258a.47982.47982,0,0,0,.47411.5547h3.45064l.86663-5.49683-.02686.17213a.79775.79775,0,0,1,.78754-.6751h1.63974c3.22129,0,5.7436-1.30841,6.48039-5.09336q.03283-.16791.05721-.32736h0a3.57308,3.57308,0,0,0-.75818-3.21332" style="fill: #003086"/>
    <path id="path14531" d="M18.10794,8.59532a.69833.69833,0,0,1,.691-.59053h4.382a9.15053,9.15053,0,0,1,1.44522.105q.19029.03057.36914.07065.1791.03952.34775.08905c.05622.0164.11144.03335.16567.05124a3.95948,3.95948,0,0,1,.606.25621,3.57277,3.57277,0,0,0-.75818-3.21333c-.83331-.94922-2.33824-1.35617-4.264-1.35617H15.50255a.80029.80029,0,0,0-.79.6751L12.38524,19.44223a.47952.47952,0,0,0,.47361.55471H16.31l.86663-5.49684.93132-5.90478Z" style="fill: #002f85"/>
    <path id="path14535" d="M26.11464,8.57676h0c-.01691.107-.03534.21542-.05721.32735-.73679,3.78446-3.2591,5.09337-6.48039,5.09337H17.9368a.79685.79685,0,0,0-.787.6751L16.31,19.99679l-.2383,1.51039a.42.42,0,0,0,.41441.48556H19.395a.69986.69986,0,0,0,.691-.59053l.02838-.14825.54824-3.47451.03534-.192a.69986.69986,0,0,1,.691-.59052h.4353c2.81782,0,5.02422-1.14474,5.669-4.45558a3.79539,3.79539,0,0,0-.58207-3.35014,2.77823,2.77823,0,0,0-.79649-.61441" style="fill: #009bdd"/>
    <path id="path14539" d="M25.34318,8.26926q-.16866-.04924-.34775-.089c-.1194-.02639-.24278-.04975-.36915-.07015a9.09542,9.09542,0,0,0-1.44572-.10547H18.79911a.69986.69986,0,0,0-.691.591l-.93131,5.90478-.02687.17213a.79685.79685,0,0,1,.787-.6751h1.64024c3.22129,0,5.7436-1.30841,6.48039-5.09336.02189-.11194.0403-.22039.05721-.32736a3.97935,3.97935,0,0,0-.60595-.25571c-.05423-.01791-.10945-.03534-.16566-.05174" style="fill: #012069"/>
  </g>
</svg>
