<svg id="Layer_1" data-name="Layer 1" xmlns="http://www.w3.org/2000/svg" xmlns:xlink="http://www.w3.org/1999/xlink" viewBox="0 0 40 26">
  <defs>
    <mask id="mask" x="2.23444" y="10.62437" width="3.17823" height="1.66399" maskUnits="userSpaceOnUse">
      <g id="mask-2">
        <polygon id="path-1" points="5.413 10.624 2.234 10.624 2.234 12.288 5.413 12.288 5.413 10.624" style="fill: #fff"/>
      </g>
    </mask>
    <mask id="mask-2-2" x="2.15121" y="12.25402" width="3.34456" height="3.00529" maskUnits="userSpaceOnUse">
      <g id="mask-4">
        <polygon id="path-3" points="2.151 12.254 2.151 15.259 5.496 15.259 5.496 12.254 2.151 12.254" style="fill: #fff"/>
      </g>
    </mask>
  </defs>
  <title>paysafecard</title>
  <g id="Page-1">
    <g id="paysafecard-65x41">
      <rect width="40" height="26" style="fill: #168cc7"/>
      <g id="Page-1-2" data-name="Page-1">
        <g id="Group-3">
          <path id="Fill-1" d="M6.80249,13.04994a.89642.89642,0,0,1,.18239-.59134.78518.78518,0,0,1,.23259-.14281A.71883.71883,0,0,1,7.501,12.254H8.61213a.67867.67867,0,0,1,.74713.76629v1.5606a.63128.63128,0,0,1-.22075.46692.72712.72712,0,0,1-.50806.21148H7.57978v1.12512H6.80249v-3.3345Zm1.7791.14718a.16533.16533,0,0,0-.1757-.18277h-.6054a.20726.20726,0,0,0-.22071.224v1.03682c.00341.14533.08525.21947.24439.22366H8.379a.18633.18633,0,0,0,.14367-.062.14592.14592,0,0,0,.05894-.12118Z" style="fill: #fff"/>
        </g>
        <path id="Fill-4" d="M11.77142,13.17875c.004-.11372-.06563-.168-.20909-.16441H9.9969V12.254h1.76251q.77011.012.78282.71054v1.59059a.7181.7181,0,0,1-.19461.49889.67332.67332,0,0,1-.50789.20528H10.77437q-.7779-.00624-.78952-.67783v-.61372q.006-.70254.75266-.71453h1.03391v-.07448Zm-1.0091,1.20454a.13078.13078,0,0,0,.062.11291.19927.19927,0,0,0,.14117.05134h.597c.13489,0,.2049-.0543.20891-.16425v-.23147c0-.12642-.07116-.19023-.21462-.19023h-.59127a.25544.25544,0,0,0-.16161.03885.27081.27081,0,0,0-.0416.177Z" style="fill: #fff"/>
        <path id="Fill-6" d="M14.72524,15.62394a.25815.25815,0,0,0,.15836-.0625.15661.15661,0,0,0,.06257-.12171v-.18042H13.951a.844.844,0,0,1-.311-.04723.72107.72107,0,0,1-.24538-.15734.74261.74261,0,0,1-.22072-.55592V12.254H13.951v2.00389c0,.1606.06888.24091.20835.24091h.54872a.24865.24865,0,0,0,.16942-.062.15523.15523,0,0,0,.06867-.12607V12.254h.7708v3.31161a.902.902,0,0,1-.19768.59007.68225.68225,0,0,1-.53113.22873H13.17393v-.76049h1.55131" style="fill: #fff"/>
        <path id="Fill-8" d="M16.3273,14.49881h1.38494c.12669-.00419.1925-.0525.19651-.14516v-.0683a.1453.1453,0,0,0-.01849-.06542.13353.13353,0,0,0-.11411-.08591h-.68664a.78746.78746,0,0,1-.52374-.19968.56345.56345,0,0,1-.228-.43783v-.567q.012-.66358.75763-.67548h1.60626v.76032H17.34077c-.1597,0-.2402.0467-.2402.13973v.07357q0,.14468.24612.14479h.68456a.68937.68937,0,0,1,.67044.66656v.55467a.72039.72039,0,0,1-.22551.46655.62413.62413,0,0,1-.21639.158.92675.92675,0,0,1-.30753.04106h-1.625v-.76049" style="fill: #fff"/>
        <path id="Fill-10" d="M21.04153,13.17875c.00345-.11372-.0662-.168-.20987-.16441h-1.565V12.254h1.76307q.76928.012.78169.71054v1.59059a.72041.72041,0,0,1-.19422.49889.67029.67029,0,0,1-.50732.20528H20.04352q-.7773-.00624-.78856-.67783v-.61372q.00518-.70254.75231-.71453h1.03426v-.07448Zm-1.00985,1.20454a.12968.12968,0,0,0,.063.11291.19764.19764,0,0,0,.14022.05134H20.833c.1349,0,.20451-.0543.20853-.16425v-.23147c0-.12642-.07212-.19023-.215-.19023h-.59166a.25342.25342,0,0,0-.161.03885.27006.27006,0,0,0-.04217.177Z" style="fill: #fff"/>
        <path id="Fill-12" d="M22.44326,11.8229a.61754.61754,0,0,1,.23982-.49362.9233.9233,0,0,1,.5949-.19367h.49358v.73452h-.299c-.16428.00363-.24806.07851-.25169.2231v.161h.55066v.76106H23.2209v2.24443h-.77764V11.8229" style="fill: #fff"/>
        <path id="Fill-14" d="M25.01988,14.23938v.0474a.1994.1994,0,0,0,.05038.14426.11133.11133,0,0,0,.1009.06776h1.59675v.76053H25.07026a1.2277,1.2277,0,0,1-.361-.04143.66224.66224,0,0,1-.25014-.14352.63265.63265,0,0,1-.17287-.24674,1.04646,1.04646,0,0,1-.04788-.3499l-.00666-1.52189q.01284-.68976.75647-.70182H26.036a.66013.66013,0,0,1,.737.72778V13.583l-1.75317.65639Zm.96215-1.04889v-.02065a.14472.14472,0,0,0-.05-.11375.21072.21072,0,0,0-.13373-.04177h-.54107a.22394.22394,0,0,0-.16865.06628.19451.19451,0,0,0-.0811.16184v.35784Z" style="fill: #fff"/>
        <path id="Fill-16" d="M28.41842,15.25931a1.69619,1.69619,0,0,1-.32264-.02925.69718.69718,0,0,1-.52867-.43421.98855.98855,0,0,1-.06334-.36717V13.00961a.88365.88365,0,0,1,.03625-.30538.63167.63167,0,0,1,.16407-.25835.71939.71939,0,0,1,.29308-.17623,1.431,1.431,0,0,1,.33233-.03526h1.19132v.17787H28.35719a.85028.85028,0,0,0-.485.12064.52337.52337,0,0,0-.18239.45236v1.42a.89848.89848,0,0,0,.04791.29086.59043.59043,0,0,0,.165.24362.63514.63514,0,0,0,.25126.115,1.34067,1.34067,0,0,0,.27512.02654h1.11039v.178H28.41842" style="fill: #fff"/>
        <path id="Fill-18" d="M32.77035,14.44068a1.75329,1.75329,0,0,1-.02463.30287.6734.6734,0,0,1-.1553.27633.80231.80231,0,0,1-.6067.23943h-.92857a.84431.84431,0,0,1-.58842-.20528.7087.7087,0,0,1-.23312-.5634v-.45745a.72487.72487,0,0,1,.80971-.79247h1.5471V13.0405a.67239.67239,0,0,0-.14994-.43367.46765.46765,0,0,0-.22343-.1624,1.20129,1.20129,0,0,0-.29019-.03217H30.23915v-.17787H31.8391a2.51549,2.51549,0,0,1,.39839.02908.47372.47372,0,0,1,.16921.06757.53826.53826,0,0,1,.15321.13771.9166.9166,0,0,1,.21044.60845v1.36348Zm-.18563-1.02246h-1.5618a.61131.61131,0,0,0-.439.16512.59421.59421,0,0,0-.16312.44313v.45289a.90926.90926,0,0,0,.02938.24037.37229.37229,0,0,0,.14614.20239.70532.70532,0,0,0,.4476.15915h.94632a.52967.52967,0,0,0,.59452-.59627Z" style="fill: #fff"/>
        <path id="Fill-20" d="M34.51683,12.41226a.58113.58113,0,0,0-.63858.67565v2.1714h-.186V13.08864a.74824.74824,0,0,1,.85455-.85425h.20684v.17787h-.23679" style="fill: #fff"/>
        <path id="Fill-22" d="M37.84879,14.41851q-.02463.8595-.9551.84208H36.2036a1.99912,1.99912,0,0,1-.3913-.03526.74867.74867,0,0,1-.34153-.20548.67321.67321,0,0,1-.15624-.29394,1.067,1.067,0,0,1-.03643-.33192V13.10207q.012-.87282.924-.86677H37.663v-.98086h.18584v3.16407ZM37.663,12.41317H36.19081a1.17812,1.17812,0,0,0-.28674.03271.51033.51033,0,0,0-.25739.15533.52162.52162,0,0,0-.14688.22909.73561.73561,0,0,0-.0353.27634V14.491a.50014.50014,0,0,0,.212.47091.87038.87038,0,0,0,.23315.08793,1.16833,1.16833,0,0,0,.28713.0325h.64373a1.00177,1.00177,0,0,0,.58821-.15894.58643.58643,0,0,0,.23428-.51707Z" style="fill: #fff"/>
        <g id="Group-26">
          <g style="mask: url(#mask)">
            <path id="Fill-24" d="M2.48491,12.13974a.98889.98889,0,0,1,.18316-.05813,1.16829,1.16829,0,0,1,1.15542-.89277A1.16879,1.16879,0,0,1,4.9793,12.082a.86888.86888,0,0,1,.43157.19894,1.53807,1.53807,0,0,0-.01184-.28106,1.55725,1.55725,0,0,0-1.578-1.37548,1.55294,1.55294,0,0,0-1.58145,1.4467,2.03778,2.03778,0,0,0-.00384.21729,1.01436,1.01436,0,0,1,.24918-.14862" style="fill: #e3001b"/>
          </g>
        </g>
        <g id="Group-29">
          <g style="mask: url(#mask-2-2)">
            <path id="Fill-27" d="M4.74825,12.254H2.8499a.71982.71982,0,0,0-.28354.06176.78968.78968,0,0,0-.23294.14281.89744.89744,0,0,0-.18221.59134V14.463a.894.894,0,0,0,.18221.591.78006.78006,0,0,0,.23294.14406.73509.73509,0,0,0,.28354.06122H4.74825a.67951.67951,0,0,0,.74752-.76666V13.02034a.67886.67886,0,0,0-.74752-.76632" style="fill: #e3001b"/>
          </g>
        </g>
      </g>
    </g>
  </g>
</svg>
