<svg id="Layer_1" data-name="Layer 1" xmlns="http://www.w3.org/2000/svg" xmlns:xlink="http://www.w3.org/1999/xlink" viewBox="0 0 40 26">
  <defs>
    <mask id="mask" x="-5.65774" y="-3.49189" width="52.31298" height="32.99742" maskUnits="userSpaceOnUse">
      <g id="mask-2">
        <rect id="path-1" x="-5.65774" y="-3.49189" width="52.31298" height="32.99742" rx="3.21926" ry="3.21926" style="fill: #fff"/>
      </g>
    </mask>
    <mask id="mask-2-2" x="4.0002" y="14.34547" width="11.45587" height="8.99783" maskUnits="userSpaceOnUse">
      <g id="mask-6">
        <polygon id="path-5" points="4 23.343 15.456 23.343 15.456 14.345 4 14.345 4 23.343" style="fill: #fff"/>
      </g>
    </mask>
    <mask id="mask-3" x="36.90104" y="14.16825" width="2.09896" height="2.1054" maskUnits="userSpaceOnUse">
      <g id="mask-8">
        <polygon id="path-7" points="39 16.274 39 14.168 36.901 14.168 36.901 16.274 39 16.274" style="fill: #fff"/>
      </g>
    </mask>
  </defs>
  <title>pulse_pay</title>
  <g id="Page-1">
    <g id="pulse-pay-65x41">
      <rect y="0.00001" width="40" height="26"/>
      <g style="mask: url(#mask)">
        <g id="Page-1-2" data-name="Page-1">
          <g>
            <path id="Fill-1" d="M29.18874,11.24025h4.01039c1.002,0,.84425,1.50822-.24788,1.50822h-.31388c-.3018,0-1.74,0-3.76412.00161Z" style="fill: #eb2027"/>
            <path id="Fill-3" d="M24.1811,11.25361l5.00756-.01288-.31549,1.509c-1.43579.0008-3.16695.00161-4.99629.00322Z" style="fill: #f48020"/>
            <path id="Fill-5" d="M24.20363,11.24234l-.32675,1.50983c-1.63377.00081-3.34642.00161-4.99549.00322l.31468-1.51546Z" style="fill: #fddb00"/>
            <path id="Fill-7" d="M19.21853,11.24025h-5.0639L13.749,12.75732c1.49776-.0008,3.27559-.0016,5.1315-.00241Z" style="fill: #00a44e"/>
            <path id="Fill-9" d="M13.74949,12.75732c-2.5078.00081-4.23252.00242-4.23252.00242-1.00119,0-.85472-1.51949.23661-1.51949h4.40073Z" style="fill: #2ca9e1"/>
            <path id="Combined-Shape" d="M19.10123,8.81293l-.0072.05287c-.01127.09014-.01127.12394.09013.12394h.697c.07,0,.07888,0,.07888-.11267,0,0,.004-.02253.00965-.06439h2.3726a.60306.60306,0,0,0,.42011.1658h2.58829a.13356.13356,0,0,0,.09979-.194.21508.21508,0,0,0-.12233-.08209s-1.62894-.59235-1.76093-.635a.42533.42533,0,0,1-.27042-.43943s.06438-.41851.11187-.771c.01609-.11589.03058-.22213.04024-.29858.07726-.61005.23581-.911.78791-.911l4.16573.00563-.17143,1.20964-3.50577-.004,3.50577.004-.03058.21971S26.6778,7.0767,26.49832,7.0767c-.16981,0-.293.202-.0338.326,0,0,1.16859.55532,1.30541.6189a.64692.64692,0,0,1,.43058.68329c0,.037-.00081.07565-.00322.11589L26.5949,8.79981l1.60239.02092-.14567.99073c-.04588.32595-.39436.95612-1.51949.95612H14.22087c-.57383,0-1.20883-.61327-1.06316-1.6877,0,0,.01529-.10382.03863-.2672H15.5625a.42109.42109,0,0,0,.32434.1658H16.81c.1497,0,.136.00563.15211-.1658h.0003c.00561-.02408.01042-.05136.016-.08184L17.252,6.85723l.17626-1.204h2.12713c-.00242.00081-.0829.55613-.17545,1.204-.11348.79274-.24628,1.72632-.27847,1.9557ZM15.563,8.81252a.299.299,0,0,1-.05875-.22856c.0346-.22777.18189-1.28851.24305-1.72714.0169-.1183.02656-.19074.02656-.19074.05634-.59637,0-1.01889-.57383-1.01889H13.35457c.20844.0338.24225.41126.24225.41126l-.1167.79837h.0008s-.19879,1.365-.2841,1.9557Zm6.77952,0a.57356.57356,0,0,1-.12072-.49818c.00966-.06519.1014-.69536.21086-1.45752.1835-1.26275.41931-2.88606.41931-2.88606.11267-.664-.12314-1.02453-.59556-1.02453H20.56225c.18028.04587.21891.293.15211.73157-.03783.24467-.2664,1.82452-.46277,3.179-.132.91508-.24869,1.72633-.28169,1.9557Z" style="fill: #fff"/>
            <path d="M33.61005,8.618c.42737,0,.74288-.495.79919-.79841.05637-.30418.18028-1.18146.2141-1.42932a.7453.7453,0,0,0-.709-.75978l-2.36309.00807V5.63838L29.69446,5.636c-.57458,0-.86677.61886-.91181.84423-.0451.22454-.27041,2.0595-.37182,2.64465a1.33367,1.33367,0,0,0,1.37377,1.64259h3.64506a.63476.63476,0,0,0,.64224-.57382c.03376-.169.22454-1.49613.22454-1.49613a.42639.42639,0,0,1-.35414.247H30.98219c-.14484,0-.173-.06112-.202-.247,0,0,0-.07886.06195-.07886l.55691.0016h.15149v.00012C32.37389,8.622,33.61005,8.618,33.61005,8.618Zm-2.72844-.87745.06759-.47241c.033-.17463.14081-.276.41609-.28732.04652-.0016.12111.0032.19653.00243v.00018c.21327-.00083.47888-.00243.47888-.00243.22454,0,.26477.07322.24145.28168a1.55379,1.55379,0,0,1-.02736.18592.30387.30387,0,0,1-.30987.29212c-.02735.00084-.19683.00084-.39372.00084V7.74138C31.2478,7.74138,30.88161,7.74055,30.88161,7.74055Z" style="fill: #fff"/>
            <path d="M11.39065,5.64752,9.69781,5.64734H6.70471c.35972.10141.31468.66395.29213.78791L6.0512,12.75386v.00564H8.5389c-.1417-.03382-.25919-.3485-.22537-.50059,0,0,.23018-1.48569.22537-1.44629-.004.02255.02172-.045.05068-.045.60188-.004.31883-.0016,1.10775-.00083v.00018c.26317.00077.65351.00077,1.249.00077a1.87649,1.87649,0,0,0,1.62176-1.406,10.914,10.914,0,0,0,.32672-2.15047A1.74637,1.74637,0,0,0,11.39065,5.64752Zm-.38227,2.59391c-.00807.04427-.01127.05875-.01448.07887-.09179.50219-.3847.65831-.90783.66318-.05952.0016-.21143.0016-.38826.0016V8.9849c-.35978,0-.82174-.00083-.82174-.00083-.06759-.00564-.07886-.02813-.06195-.1239.02332-.13441.19718-1.37787.19718-1.37787.01128-.062.01128-.07322.06682-.06842h.61921l.602.00018C10.98583,7.41406,11.08161,7.8527,11.00838,8.24143Z" style="fill: #fff"/>
            <g id="Group-30">
              <g style="mask: url(#mask-2-2)">
                <path id="Fill-28" d="M11.58719,17.62187c-.00724.03863-.01288.0676-.0169.09175a1.11822,1.11822,0,0,1-1.1694.92071c-.09657.0008-.39355.00161-.709.00161-.44184-.00081-.91829-.00161-.91829-.00161-.08692-.00644-.10141-.03622-.07968-.15855.03058-.17384.25352-1.77221.25352-1.77221.01449-.07967.01449-.09416.08611-.08692h.65834l.98349-.0008c.89656-.00644,1.00521.507.91185,1.006M4.02354,23.21533c.01449-.066.02414-.11428,0,0m9.63927-8.86986H4.82433c.46277.13038.40563.8531.37585,1.01245l-1.2,7.97089s.01046-.0507.02093-.099c-.00564.02656-.01208.05553-.02093.099v.00725l4.35405.00724c-.18108-.04346-.33239-.45633-.28893-.6511,0,0,.28169-1.74323.26-1.63458a.17689.17689,0,0,1,.18027-.11589c.44185-.00241.74526-.00241,1.1863-.00241.59235.0008,1.43338.00241,3.19029.00241,2.676,0,3.77539-6.59626.78067-6.59626" style="fill: #fff"/>
              </g>
            </g>
            <path id="Fill-31" d="M31.21,23.33517l.02173.00081h-4.152l.60764-2.48849c-.08853-.24306-2.68326-5.85825-2.68326-5.85825-.14486-.31871-.52071-.66558-.72353-.6511h4.04984l1.63538,3.67479,2.75488-3.6603h3.52992l-4.80233,6.52383-.50784,2.01123a.47573.47573,0,0,0,.2833.44829Z" style="fill: #fff"/>
            <path id="Fill-33" d="M24.43148,18.59344l-.28732.00081.28732-.00081-.78389-4.26632H17.803c.3501,0,.27525.60763-.173,1.37462l-1.74966,2.89492,3.69088.01046.89334-1.47361.00564.01368.25191,1.45269h0l.24305,1.39877-2.23658-.00081.84344-1.39072-3.69168-.01046-2.86514,4.74278H16.7471l.62615-1.04465,4.01764.00322.22052,1.0374h3.70376Z" style="fill: #fff"/>
            <g id="Group-37">
              <g style="mask: url(#mask-3)">
                <path id="Fill-35" d="M37.83221,15.16541h.08531c.10463,0,.17706-.04587.17706-.11831,0-.07887-.05875-.1175-.16418-.1175-.03944,0-.07887.00644-.09819.00644Zm-.01287.5505h-.26881v-.96417a1.90924,1.90924,0,0,1,.39355-.03863.62687.62687,0,0,1,.36056.07806.23977.23977,0,0,1-.11831.433V15.237a.29926.29926,0,0,1,.19718.24949,1.218,1.218,0,0,0,.05875.22938H38.1469a.55721.55721,0,0,1-.07163-.20282.14558.14558,0,0,0-.15775-.14486h-.09818Zm-.61-.49175a.74239.74239,0,1,0,.74123-.79354.75707.75707,0,0,0-.74123.79354ZM39,15.21773a1.04948,1.04948,0,1,1-1.04948-1.04948A1.046,1.046,0,0,1,39,15.21773Z" style="fill: #211e1f"/>
              </g>
            </g>
          </g>
        </g>
      </g>
    </g>
  </g>
</svg>
