<svg id="Layer_1" data-name="Layer 1" xmlns="http://www.w3.org/2000/svg" viewBox="0 0 40 26">
  <title>qbank</title>
  <g id="Page-1">
    <g id="Qbank-65x41">
      <rect x="0.0498" width="39.9502" height="26" style="fill: #fff"/>
      <g id="Page-1-2" data-name="Page-1">
        <path id="Fill-1" d="M29.29291,14.83432c.02745-.00114.0549-.00324.08235-.00324q3.10084-.00024,6.20171,0c.02745,0,.0549.00216.08234.00332a.127.127,0,0,1,.07208.13085q0,.84089-.00031,1.68176a.18235.18235,0,0,1-.01925.096.11988.11988,0,0,1-.09946.0433c-.03784.00181-.07571.00142-.11358.00142q-2.97462.00006-5.94924.00069a1.88813,1.88813,0,0,0-.23692-.002c-.05039-.0134-.05709-.05044-.05583-.09317.01571-.53643.00316-1.073.00659-1.60945.00054-.08432-.029-.17165.02952-.24951" style="fill: #a482b4"/>
        <path id="Fill-3" d="M2.69108,14.83441c.055-.00107.1101-.00306.16515-.00306q3.13075-.00027,6.26154,0c.04126,0,.08249.0025.12375.00386-.04806.04919-.11257.03324-.16955.034-.241.00344-.4821.00145-.72315.00145q-2.63959,0-5.27918.00049c-.09266,0-.184-.01091-.27619-.014.08241.00338.16414.01386.247.01384q3.00117-.00045,6.00235-.00026c.02753,0,.05513.00079.08262-.0009.118-.00729.12757-.00051.12778.1164q.00134.82483.00029,1.64969a.16333.16333,0,0,1-.02286.10508.27245.27245,0,0,1-.17954.02619q-2.98148.00123-5.963-.00036a2.99168,2.99168,0,0,1-.32855.00678.098.098,0,0,0-.02879.019.04732.04732,0,0,1-.032.012.06144.06144,0,0,1-.044-.06736c.00232-.012.0042-.02388.00544-.036.004-.57852.00051-1.15691.00167-1.73529.00011-.04567-.0092-.09353.02911-.13151" style="fill: #83abdc"/>
        <path id="Fill-5" d="M32.64313,12.04934c.16054-.13092.298-.24334.4358-.35532q.65408-.53145,1.30785-1.06315a.15205.15205,0,0,1,.10326-.03476c.44426.00058.88851.00163,1.33272-.00113.06932-.00044.08644.02183.08629.08534q-.00291,1.35654-.00037,2.7131c.00012.06417-.01736.08534-.08656.08494q-.74383-.00414-1.48768.00006c-.08028.00058-.08764-.03155-.08733-.0941q.003-.62114.00015-1.24227c-.00011-.03076.01868-.07526-.01929-.08993-.03644-.01408-.05727.02919-.0823.04949q-.82436.66858-1.64665,1.33945a.16114.16114,0,0,1-.112.03569c-.43734-.00069-.87471-.00189-1.312.00134-.07387.00055-.09111-.02245-.091-.09023q.00293-1.35158-.00041-2.70317c-.00016-.06717.01695-.09039.09128-.08991q.73865.0048,1.47734.0001c.07226-.00044.093.01841.09247.0883-.00314.44371-.00159.88747-.00159,1.36616" style="fill: #737373"/>
        <path id="Fill-7" d="M25.24168,12.04735c0,.444-.00186.888.00176,1.33194.00062.07767-.02005.1-.10314.0993q-.74393-.00612-1.48792.00036c-.09583.001-.11249-.029-.111-.1125.00515-.29481.00025-.58976.00329-.88463.00068-.06788-.01892-.0911-.09287-.09037q-.49068.00492-.98142-.00151c-.07951-.00109-.10589.01722-.10448.098.00523.29811-.00006.59639.00353.89454.00087.072-.01757.09664-.09737.09606q-.75425-.00543-1.50857-.00026c-.07338.00046-.09316-.01976-.093-.08892q.00338-1.35182.00043-2.70364c-.00014-.06727.01521-.09134.09031-.09089q.75945.0046,1.51894-.00014c.07555-.00049.09025.02386.08936.09063-.00364.275.00066.55-.003.825-.00087.06567.01945.08331.08669.08267.33406-.00314.66823-.00417,1.00225.0005.07848.00109.08972-.02692.089-.09158-.003-.26835.001-.53677-.00283-.80512-.001-.07342.01346-.10315.10012-.10241q.74907.00637,1.49824.00012c.08414-.00066.10384.02419.10329.101-.00335.4506-.00166.90121-.00166,1.35182" style="fill: #737373"/>
        <path id="Fill-9" d="M19.4576,11.99319c.10114.01835.20069.03352.29876.05485a1.04846,1.04846,0,0,1,.469.21446.54342.54342,0,0,1,.01368.85437,1.73746,1.73746,0,0,1-.85866.37995,6.1669,6.1669,0,0,1-1.89775.06547,7.00555,7.00555,0,0,1-1.10513-.221c-.06486-.01742-.08681-.03368-.071-.10691.04457-.20609.07508-.415.11181-.62674a8.98391,8.98391,0,0,0,.95256.18418,2.84591,2.84591,0,0,0,.88195.01216.53631.53631,0,0,0,.2175-.08508.22512.22512,0,0,0,.093-.2374.19959.19959,0,0,0-.15762-.15436,1.07274,1.07274,0,0,0-.31525-.03978c-.31683.00026-.63365-.00163-.95043.00161-.06784.00069-.08893-.01831-.08686-.08353q.00679-.21344-.00049-.42721c-.00236-.06824.01769-.09055.09164-.08979.3512.00357.70248.00075,1.05372.002a.52832.52832,0,0,0,.18165-.03006.19556.19556,0,0,0,.14454-.18543.20055.20055,0,0,0-.12231-.21068,1.34366,1.34366,0,0,0-.6589-.06291,7.12185,7.12185,0,0,0-1.13391.19c-.06133.0143-.08642.01231-.09389-.0616-.01655-.1639-.04627-.32678-.07606-.48917-.01592-.08677.00657-.12619.10391-.14811a9.2883,9.2883,0,0,1,1.43044-.22132,4.44153,4.44153,0,0,1,1.4298.10682,1.40424,1.40424,0,0,1,.5095.22975.57774.57774,0,0,1-.08348,1.02255,1.09073,1.09073,0,0,1-.30207.12077c-.02369.005-.055.00611-.06966.04218" style="fill: #737373"/>
        <path id="Fill-11" d="M6.36959,11.15c0,.116-.00325.23207.00128.34789.0024.06172-.02261.06625-.0721.04824a3.42491,3.42491,0,0,0-.67606-.16652,1.69847,1.69847,0,0,0-.93094.0812.59127.59127,0,0,0-.40843.6343.581.581,0,0,0,.44364.52847,2.12255,2.12255,0,0,0,1.20735.03174,2.14157,2.14157,0,0,0,.35241-.10767c.05424-.02231.08576-.0273.0844.04949-.00424.2352-.00294.47053-.00046.70579a.07943.07943,0,0,1-.064.0859,3.909,3.909,0,0,1-.89826.20823,4.56433,4.56433,0,0,1-.8557.01854,3.19416,3.19416,0,0,1-1.42775-.40365,1.37045,1.37045,0,0,1-.00606-2.35583,2.98894,2.98894,0,0,1,1.18962-.383,4.32337,4.32337,0,0,1,1.69313.12332c.36728.09955.368.09707.368.46411l0,.08948" style="fill: #737373"/>
        <path id="Fill-13" d="M33.67693,10.73981l-.04161.03569a.31164.31164,0,0,0-.10356.08156,5.85893,5.85893,0,0,1-.48.394.05616.05616,0,0,1-.07776.00038q-.00186-.83173-.00372-1.66346c-.00012-.05611-.00091-.11224.00044-.16833.00037-.01525.00244-.037.01256-.04414.0215-.01521.03708.00736.05135.01941.0896.07573.17835.15238.2674.22873a.38129.38129,0,0,0,.12788.11473l-.00062-.00052c.05151.08574.15234.11843.21883.18808.09984.06156.17526.1527.27741.21146.02133.01612.04357.03125.06383.04853.194.16563.2458.12338-.02225.31159a1.8002,1.8002,0,0,0-.29013.2423" style="fill: #eea45a"/>
        <path id="Fill-15" d="M15.92312,16.83524c-.57517.00161-1.15034.0043-1.72554.00465q-2.351.00144-4.70206.00008A.41748.41748,0,0,1,9.28283,16.82a.18292.18292,0,0,1-.02851-.133q-.001-.86937-.00028-1.73873a.14483.14483,0,0,1,.02825-.11266c.05153-.00159.10306-.00453.15459-.00453q3.2002-.00027,6.40042.00012c.03436,0,.06871.00231.10306.00352a.09053.09053,0,0,1,.02716.05164c.01352.17835.00531.357.00571.53551.00093.42013.00192.84027-.00019,1.26038-.01176.05239.01265.11592-.04992.153" style="fill: #e8a75e"/>
        <path id="Fill-17" d="M15.944,14.87073l-.00368-.036c.02749-.00113.055-.00324.08245-.00324q3.24907-.00024,6.49813-.00008c.02406,0,.04812.00167.07218.00256a.03777.03777,0,0,1,.00605.03546.37972.37972,0,0,0-.01519.14737q-.00043.7803-.00029,1.56061a.50945.50945,0,0,1-.00612.11887c-.00531.02233-.01213.04712-.04264.04889-.02863.00167-.042-.01955-.05333-.04a.269.269,0,0,1-.01963-.13629q-.00038-.79025-.00033-1.58048-.00038.79919-.00037,1.59841c-.00007.07575-.015.157.09985.1744-.03718.05227-.08049.043-.12.04527a.11833.11833,0,0,1-.07451-.02257.476.476,0,0,1-.05238-.24009q.00143-.7452.00029-1.49039c-.00014-.14516-.00546-.15043-.15688-.15045q-2.93339-.00045-5.86676-.00028c-.14064,0-.1545.01758-.1556.12622-.00035.034-.00256.08458-.052.08233-.04684-.00212-.04965-.05241-.04845-.08665a.161.161,0,0,0-.09078-.15383" style="fill: #95cd86"/>
        <path id="Fill-19" d="M22.63763,14.83453c.07228-.00171.14454-.00492.21682-.00493q3.00733-.00039,6.01469,0c.1136,0,.2272.00348.34078.00535a.0317.0317,0,0,1-.01209.05017.47452.47452,0,0,1-.19363.01767q-3.04206.00075-6.08412.00052c-.2246,0-.20715-.01072-.20744.19967-.00068.49682.00041.99366-.00089,1.49049-.00016.06478.0116.13461-.04957.18523-.07019-.00129-.06878-.055-.07215-.09856-.00662-.08546-.0025-.1714-.00252-.25713q-.0002-.71233.00006-1.4247c0-.05915-.00631-.12043.05006-.16381" style="fill: #f9e064"/>
        <path id="Fill-21" d="M9.2823,14.83559q.00027.99222.00054,1.98445l-.02111-.00085c-.02924.009-.03941-.00913-.04733-.03063a.14491.14491,0,0,1,.00837-.04883c0-.58958-.001-1.17915.00124-1.76873.00029-.07544-.01038-.11554-.10134-.08286a.28908.28908,0,0,1-.09238.00243q-2.99043.00006-5.98087-.001c-.09117-.00006-.18235-.015-.28578-.024a.21748.21748,0,0,1,.11925-.0142q3.11439-.0009,6.22878-.00123c.04324,0,.08975.01439.12987-.015l.04076.00045" style="fill: #83a7d9"/>
        <path id="Fill-23" d="M29.31359,16.77947c.00335-.0283.01859-.04432.04849-.034a.70053.70053,0,0,0,.23554.01346q2.97587.00134,5.95172.00048a.27645.27645,0,0,0,.15116-.01969.19746.19746,0,0,0,.03107-.14173q.00037-.81138.00053-1.62277c.00007-.04841-.01077-.10015.03039-.14085l.1025-.00028a.17878.17878,0,0,1,.02135.10562q.00032.87954-.00012,1.75905a.15544.15544,0,0,1-.01145.07794.07609.07609,0,0,1-.03312.02273.51375.51375,0,0,1-.13348.00811q-3.11828.00033-6.23656,0a.5483.5483,0,0,1-.12344-.0066.07953.07953,0,0,1-.03458-.02149" style="fill: #a682b7"/>
        <path id="Fill-25" d="M22.63763,14.83453A.42754.42754,0,0,0,22.616,14.98q.00148.82658.0007,1.65311c0,.05224-.00835.107.04132.14634a.45.45,0,0,0,.10206.01185q3.05612-.00046,6.11174-.00025c.055,0,.1101.00083.16509-.0014.14665-.01169.16045-.02393.16081-.16829.00132-.54116.00049-1.08232.00053-1.62348a.33674.33674,0,0,1,.012-.12736l-.00033-.03555.04394.00062a.58338.58338,0,0,1,.01609.24269q.0066.76821-.0004,1.53646a.45548.45548,0,0,1-.0161.22138c-.11695.00127-.2339.00364-.35087.00366q-3.09762.00063-6.19527.00048c-.03777,0-.07553-.00392-.11327-.006a.0841.0841,0,0,1-.02284-.03133c.00955-.60449.00144-1.20908.00434-1.81361a.29982.29982,0,0,1,.01544-.1367l.00215-.01863.0445.00056" style="fill: #e8e27c"/>
        <path id="Fill-27" d="M29.25345,16.83611q.00019-1.00026.00042-2.00055l.039-.00125c0,.59-.00148,1.18011.00217,1.77014.00036.05729-.05105.12356.0185.175q.01028.00018.02053.00012a.17787.17787,0,0,0,.11939.01953q3.13622.0006,6.27243,0a.17814.17814,0,0,0,.11941-.01949l.02051-.0001a.02509.02509,0,0,1,.03826,0c.00831.04315-.011.0616-.05577.06013-.03779-.00125-.07567-.00014-.11352-.00014q-3.184.00006-6.368-.00006c-.03779,0-.07557-.00221-.11336-.00338" style="fill: #9f8da7"/>
        <path id="Fill-29" d="M2.67041,16.73979a.06041.06041,0,0,0,.04138.05967.46122.46122,0,0,1,.12307-.00833q3.10088,0,6.20171.00155c.05531,0,.12647-.03084.16386.04279-.04125.00109-.08253.00316-.12381.00316q-3.15206.0003-6.3041.00027c-.14246,0-.14272,0-.14277-.13462q-.00021-.87981.00093-1.75963c.00013-.043-.02684-.10793.0604-.11025q0,.89632-.00066,1.79261c-.00006.03778.01563.08-.01986.11266a.10557.10557,0,0,1-.0099-.06755q-.0004-.80511.0001-1.61026c0-.01962-.007-.03927-.00093-.0468,0,.53116-.00023,1.07439.00052,1.61762a.1955.1955,0,0,0,.01006.10711" style="fill: #81a9d5"/>
        <path id="Fill-31" d="M22.59148,16.85848l.00256.02782-.22736.00086a.25286.25286,0,0,0-.12311-.01q-3.04435-.00091-6.08869-.00076a.63083.63083,0,0,1-.12373-.004.0582.0582,0,0,1-.00434-.0609c.0394-.05086.08551-.03889.12958-.03892q3.04455-.00136,6.08912-.00224c.05591,0,.10806.03048.16267.0351.06164.01129.12873-.03373.1833.053" style="fill: #95cd86"/>
        <path id="Fill-33" d="M9.20045,16.88116c-.03992-.049-.08653-.02508-.12973-.02511q-3.1155-.002-6.231-.00252c-.04269,0-.09014.02711-.12791-.03089l.00011-.00019c.09355-.07512.1951-.04268.29218-.04307,1.07017-.00426,2.14034-.00268,3.21049-.00268q1.38329,0,2.7666-.00026a.63328.63328,0,0,0,.16482-.00911.05984.05984,0,0,1,.07681.023l.039.0644c-.01529.038-.0382.03279-.0613.02646" style="fill: #83abdc"/>
        <path id="Fill-35" d="M16.02294,16.86409q3.10692.00025,6.21386.00146c.04324,0,.08966-.01965.12989.02045-.03436.00163-.06871.00474-.10306.00474q-3.13426.00094-6.26857.00115c-.024,0-.048-.00335-.072-.00517a.58142.58142,0,0,0,.02034-.18531c.04054-.00091.0418.04468.04134.07606a.10174.10174,0,0,0,.03818.08662" style="fill: #94c586"/>
        <path id="Fill-37" d="M35.82607,14.83436q0,.88294-.00069,1.76589c-.00011.05359.02565.11634-.0995.13948,0-.58281-.001-1.16563.00154-1.74845a.18155.18155,0,0,0-.06812-.15686l.16677-.00006" style="fill: #a185b3"/>
        <path id="Fill-39" d="M35.97552,16.77957l-.10809-.00006q0-.89454-.00006-1.78907c-.00006-.05212-.00157-.10423-.00239-.15637.13974-.00157.11918.03389.11907.0622q-.00317.94163-.00853,1.8833" style="fill: #a28aae"/>
        <path id="Fill-41" d="M33.67693,10.73981a.496.496,0,0,1,.29013-.2423,1.391,1.391,0,0,1-.29013.2423" style="fill: #e9a869"/>
        <path id="Fill-43" d="M33.63362,9.93936a.65649.65649,0,0,0-.13938-.09636.11527.11527,0,0,1-.065-.10514.79627.79627,0,0,1,.22914.17995c-.00366.012-.01724.01358-.02474.02155" style="fill: #e4a96e"/>
        <path id="Fill-45" d="M33.63362,9.93936l.02472-.02153a1.43505,1.43505,0,0,1,.26714.21957c-.08843-.00929-.13012-.08638-.19727-.12672-.0337-.02026-.04941-.064-.09459-.07132" style="fill: #e6ab75"/>
        <path id="Fill-47" d="M33.49739,9.81008a.21871.21871,0,0,1-.19542-.18643c.072.05467.16219.08931.19542.18643" style="fill: #e4a96e"/>
        <path id="Fill-49" d="M33.53176,10.908c.00675-.10207.08105-.12439.16737-.13254a.30918.30918,0,0,1-.16737.13254" style="fill: #e5ae78"/>
        <path id="Fill-51" d="M32.97635,11.25188,33.102,11.251c-.01934.07018-.05409.12926-.11278.11455-.02793-.007-.01881-.07237-.0129-.11371" style="fill: #e2ab74"/>
        <path id="Fill-53" d="M9.22279,16.82269H9.16064c-.0358.03288-.07441.01658-.11156.01658q-3.11286.00136-6.22572,0c-.03714,0-.07576.01641-.11153-.01662.00419-.0421-.00453-.12358.03869-.08685.09188.07817.18259.01136.27284.01154q3.09969.00612,6.19941.0031a.04927.04927,0,0,1,0,.07225" style="fill: #81afdd"/>
        <path id="Fill-55" d="M2.71183,16.77954q3.22439.00012,6.44881.00015c-.03413.13054-.07811.07293-.11749.073q-3.16563.00421-6.33126.00235l-.00006-.0755" style="fill: #83a7d9"/>
        <path id="Fill-57" d="M29.03521,12.11429a.86517.86517,0,0,1-1.01465.7228,1.13005,1.13005,0,0,1-.20341-.03158.75511.75511,0,0,1-.64125-.72766.78732.78732,0,0,1,.78877-.84369,1.18421,1.18421,0,0,1,.68884.12212.73416.73416,0,0,1,.3817.758m1.53788-.77a1.799,1.799,0,0,0-.92488-.65048,4.73866,4.73866,0,0,0-2.56415-.14942,2.73276,2.73276,0,0,0-1.11465.46241,1.24308,1.24308,0,0,0-.39561,1.6212,1.64672,1.64672,0,0,0,.84156.68623,4.40191,4.40191,0,0,0,1.77368.3096,4.15285,4.15285,0,0,0,.76376-.06713,3.23193,3.23193,0,0,0,1.21426-.438,1.23887,1.23887,0,0,0,.406-1.77442" style="fill: #737373"/>
        <path id="Fill-59" d="M9.67748,12.56524a.24666.24666,0,0,1-.18677.23551.87964.87964,0,0,1-.26424.03691c-.25806.00169-.51616-.00213-.77414.0021-.07866.0013-.1006-.0236-.09772-.09687.00556-.14212.00444-.28467.00037-.42689-.00176-.062.021-.07939.08313-.07788.15128.00366.30273.00119.45411.00119v.00791c.16164,0,.324-.00926.48471.00231.21076.01515.3107.12861.30055.31571m-1.322-.88135c.00448-.13892.002-.27807.00066-.41711-.00048-.04716.0119-.07512.069-.07349.2955.00845.59188-.01885.88658.01591.17594.02076.27663.11471.28194.2513a.28856.28856,0,0,1-.27026.28841,3.26871,3.26871,0,0,1-.48044.01656c-.14812,0-.2721-.00242-.39589.001-.06409.00177-.09382-.0141-.0916-.0826m2.69188.48859a1.20263,1.20263,0,0,0-.59481-.16791c-.02553-.00062-.066.01028-.06806-.02468-.00205-.03459.03865-.02771.06446-.03227a1.02435,1.02435,0,0,0,.58092-.296.53444.53444,0,0,0-.072-.82645,1.2112,1.2112,0,0,0-.41645-.18835,5.72087,5.72087,0,0,0-1.36872-.139c-.45089-.01068-.902.00014-1.35229.02081-.3329.01531-.66475.05051-.99755.06934-.09256.00525-.101.04464-.1005.11806.00294.44384.00147.88769.00143,1.33154l0,.66577c0,.23186.00063.46372-.00076.69558-.00029.04951.007.07733.07127.08114.37728.02243.75388.05878,1.13143.07359A14.19863,14.19863,0,0,0,10.152,13.5179a2.394,2.394,0,0,0,.86632-.23671.62428.62428,0,0,0,.37509-.52042.61158.61158,0,0,0-.34611-.58829" style="fill: #737373"/>
        <path id="Fill-61" d="M14.32015,11.888c-.0686-.00344-.13753-.00075-.20632-.00073h-.22156a2.64535,2.64535,0,0,1-.47819-.02029c-.26118-.05716-.38168-.27729-.26513-.48391a.38226.38226,0,0,1,.30748-.17215,5.2186,5.2186,0,0,1,.69-.01629c.244-.00332.2441-.00073.24408.23761,0,.129-.002.2581.00071.38708.00109.0515-.01667.07141-.07109.06868m1.5422-1.3111-.02065-.00062c-.42542-.02843-.851-.05163-1.27734-.06666a11.65613,11.65613,0,0,0-1.80325.04756,2.16361,2.16361,0,0,0-.94161.29137.76775.76775,0,0,0-.23784,1.08212,1.06771,1.06771,0,0,0,.59022.35935c.07637.02088.0915.03828.03791.10588-.24395.30787-.483.61934-.72172.931a.33683.33683,0,0,0-.09178.14443.30134.30134,0,0,0,.04192.00627c.54411-.00014,1.08821-.00153,1.63232.0003a.12821.12821,0,0,0,.12216-.07091c.17344-.27783.34985-.55393.52261-.83215a.12966.12966,0,0,1,.12951-.07277c.15133.00522.3031.005.45447.00023.07135-.00224.09392.01748.0928.08817-.00421.265.00145.53006-.00335.795-.00136.07589.0221.09353.09891.09293.46145-.00364.92292-.00189,1.38439-.00177.15053,0,.15064.00028.15064-.14q.00006-1.297,0-2.5939c0-.15293,0-.15293-.16034-.16587" style="fill: #737373"/>
        <path id="Fill-63" d="M33.22292,9.6c-.01657.05574-.0426.09134-.10521.0897-.05335-.00139-.08709-.01952-.08138-.07567a.10126.10126,0,0,1,.08857-.102c.049-.00136.07971.0463.098.088" style="fill: #f2a456"/>
        <path id="Fill-65" d="M33.75518,10.60605a.06472.06472,0,0,1-.07334.05455c-.05219-.00364-.04716-.04076-.04636-.06956a.04516.04516,0,0,1,.05283-.04663c.03956.00412.06607.0262.06687.06164" style="fill: #e9a869"/>
        <path id="Fill-67" d="M9.51212,14.87077q3.11483,0,6.22963,0c.13654,0,.13658.00008.1366.1363q0,.78512.00007,1.5702a.24485.24485,0,0,0,.00285.08882c.04818.11646-.02259.11447-.10943.11441q-3.05284-.00182-6.10567-.00006a.28491.28491,0,0,0-.16819.02539c-.04231.026-.09713-.02541-.14835-.03635-.04146-.00886.00984-.05338.01205-.08313.00244-.03289.00548-.06585.0055-.09878.00035-.53665-.00033-1.07332.00151-1.61.00012-.037-.02805-.09065.04012-.10672.03855.0419.02863.09343.02869.14207.0007.51209-.0001,1.02418.00151,1.53628.00012.03569-.021.07953.02466.10589.03069-.02783.01686-.06324.01695-.09448q.00157-.70014.00074-1.40032a.49928.49928,0,0,1,.03076-.28954" style="fill: #eea45a"/>
        <path id="Fill-69" d="M16.02294,16.81892c-.09512.00377-.03421-.09017-.07954-.11753q.00031-.91533.00058-1.83065c.09109-.01358.13535.01578.1221.11186a.14506.14506,0,0,0,.02044.12377.25005.25005,0,0,0,.01782-.15487c-.00129-.05857.01719-.08846.0821-.081a.45542.45542,0,0,0,.05161.00026q2.99016,0,5.98033-.00223c.10341-.00016.13338.02293.13225.12546-.00581.52323-.00312,1.04654-.00211,1.56982.00012.06095-.01683.12614.0407.17746.0154.01374-.01654.02354-.02061.03828a.2667.2667,0,0,1-.12185.00916q-3.051.00084-6.10195.001a.25221.25221,0,0,0-.12162.00974l-.00025.01949" style="fill: #93cd83"/>
        <path id="Fill-71" d="M9.56359,14.87077q0,.86605-.00087,1.73211c-.0001.04211.03234.10063-.09932.09709-.04767-.03064-.0325-.06889-.03257-.10431q-.00165-.81-.0003-1.6199c0-.03589-.01022-.07357.03281-.105Z" style="fill: #eba759"/>
        <path id="Fill-73" d="M9.52729,14.87077q.00009.91461.00012,1.8292a.06454.06454,0,0,1-.09554.01662c-.03948-.02231-.01968-.0578-.01974-.08738q-.001-.87918-.00041-1.75834l.11557-.0001" style="fill: #f2a357"/>
        <path id="Fill-75" d="M22.61333,16.81892a.51982.51982,0,0,0-.18171-.01952q-.01152-.00658-.00771-.01322l.00764-.00664h.11521a.12558.12558,0,0,1-.11736-.14167c.00418-.55594.0022-1.11189.00224-1.66783,0-.01984-.00007-.03972.00129-.05953a.03235.03235,0,0,1,.0333-.034.0318.0318,0,0,1,.0339.03323c.00147.02642.00147.05291.00147.07937q.00011.80414.00052,1.60826c.00007.04656-.01429.09878.05193.13622a.15156.15156,0,0,0,.01711-.10733q.00115-.829.001-1.65791c.00005-.0412-.01616-.08832.04063-.11582.00432.649.01158,1.298-.00364,1.947a.08389.08389,0,0,0,.00415.01938" style="fill: #93cd83"/>
        <path id="Fill-77" d="M22.43057,16.78833q.00006.03786,0,.07573-3.20372,0-6.40741.00007c.03764-.13682.08512-.07269.12773-.07277q3.10886-.00522,6.21767-.00311l.062.00008" style="fill: #94c586"/>
        <path id="Fill-79" d="M29.21025,14.87052c.03542.03283.01978.07508.01984.11294q.00157.82874.0007,1.65746c0,.17072-.01079.18078-.18679.17645a.22569.22569,0,0,0-.12071-.0179q-3.04163-.00024-6.08327.00022a.1877.1877,0,0,0-.1198.01833c-.03035.00147-.06005.002-.06224-.03857a.51719.51719,0,0,0,.02125-.166c-.001-.543.0017-1.08609-.00279-1.6291-.00074-.0922.02675-.11562.12106-.1155q3.20638.00365,6.41275.00171" style="fill: #fedd63"/>
        <path id="Fill-81" d="M35.84535,16.77968c-.00558.10924-.03849.1028-.06988.1028l-.1549-.0001q-3.08249,0-6.16494-.00367c-.04115-.0001-.10068.07976-.12153-.09913q3.25565.00008,6.51125.0001" style="fill: #a482b4"/>
        <path id="Fill-83" d="M22.72022,16.89081c.01453-.16528.06556-.1028.10169-.10312.44752-.0041.895-.00268,1.34258-.00268q2.37016,0,4.7403.00213c.04833.00011.10614-.05713.13923.10192q-1.488.00213-2.9759.00409-1.674.00042-3.3479-.00234" style="fill: #f9df61"/>
      </g>
    </g>
  </g>
</svg>
