<svg id="Layer_1" data-name="Layer 1" xmlns="http://www.w3.org/2000/svg" xmlns:xlink="http://www.w3.org/1999/xlink" viewBox="0 0 40 26">
  <defs>
    <mask id="mask" x="11.37417" y="3.6743" width="17.75942" height="18.65139" maskUnits="userSpaceOnUse">
      <g id="mask-2">
        <polygon id="path-1" points="29.134 22.326 11.374 22.326 11.374 3.674 29.134 3.674 29.134 22.326" style="fill: #fff"/>
      </g>
    </mask>
  </defs>
  <title>qiwi</title>
  <g id="Page-1">
    <g id="qiwi-65x41--">
      <rect width="40" height="26" style="fill: #f39135"/>
      <g id="Page-1-2" data-name="Page-1">
        <g id="Group-3">
          <g style="mask: url(#mask)">
            <path id="Fill-1" d="M26.14941,16.55444a3.01827,3.01827,0,0,0-.96226-1.68872,2.466,2.466,0,0,0-.58129-.42217,2.47007,2.47007,0,0,0-1.30265-.3214,1.8497,1.8497,0,0,1,.80188-.10078,3.79326,3.79326,0,0,1,.681.1607q.27291.14876.54135.30169a6.7111,6.7111,0,0,0-.22012-4.2817,7.66094,7.66094,0,0,0-2.06413-3.01549A6.865,6.865,0,0,0,19.696,5.4578a5.50415,5.50415,0,0,0-2.205.02019,4.929,4.929,0,0,0-1.70344.824A5.07345,5.07345,0,0,0,14.605,7.669a2.82875,2.82875,0,0,0-.24072.40215c-.0615.15253-.13051.29769-.2.44221a6.27065,6.27065,0,0,0-.281.985,6.40276,6.40276,0,0,0-.07987,2.27176,7.50911,7.50911,0,0,0,.54151,1.98992c.14552.28263.27842.57823.44008.8442a8.18947,8.18947,0,0,0,.5217.744,7.52239,7.52239,0,0,0,1.34243,1.18627,7.33764,7.33764,0,0,0,3.80814,1.266c.03163-.06569-.04345-.19675-.06006-.28118-.02412-.09677-.03355-.20781-.06054-.30137a2.98164,2.98164,0,0,1,0-.6835c.06389.0165.062.09853.10063.14051.03418.03942.047.1003.10032.12049a2.256,2.256,0,0,0,.18018.2815,2.47371,2.47371,0,0,0,.46116.46223,3.33615,3.33615,0,0,0,.541.38213,3.27854,3.27854,0,0,0,.60141.30137,4.72994,4.72994,0,0,0,1.463.36194c.53527.07274,1.05171.16422,1.5429.2815a5.91214,5.91214,0,0,1,1.283.54234,5.17191,5.17191,0,0,1,.56083.36226,1.48444,1.48444,0,0,1,.26054.20076c.10542.04213.15191.14275.26053.18072a8.32615,8.32615,0,0,1,.88255.94482,4.33793,4.33793,0,0,1,.34039.58336c.07316.08059.09457.21293.16022.30121.00432.11423.11453.25122.01981.34191-.14872.022-.11853-.13571-.18-.20108a1.21492,1.21492,0,0,1-.14088-.241c-.2345-.24706-.44455-.51879-.70125-.74358a5.51327,5.51327,0,0,0-.80172-.62325,6.037,6.037,0,0,0-1.96413-.90508,7.3598,7.3598,0,0,0-2.54509-.24081,5.70476,5.70476,0,0,0-1.1827.26068,11.03562,11.03562,0,0,1-1.22247.20107,10.11789,10.11789,0,0,1-4.69-.88393A7.36918,7.36918,0,0,1,13.90363,17.841a5.56132,5.56132,0,0,1-.7415-.70369,4.6687,4.6687,0,0,1-.60141-.82432,8.10317,8.10317,0,0,1-.52123-.92463,8.40425,8.40425,0,0,1-.36068-1.0653,5.36172,5.36172,0,0,1-.24025-1.20613c-.007-.121-.061-.35409-.06054-.543,0-.01683.02173-.03173.02029-.06025a1.946,1.946,0,0,1,0-.58287,6.11632,6.11632,0,0,1,.14057-1.26654,7.38115,7.38115,0,0,1,.30078-1.12586c.11917-.36242.277-.68654.42027-1.02508.09648-.14468.1698-.31227.26053-.46224.07668-.15781.19153-.27686.261-.44236.07716-.04342.09089-.15.1599-.20092.03115-.08956.11437-.12689.14041-.22126a.68471.68471,0,0,0,.16038-.20108.62058.62058,0,0,0,.16021-.20107c.23881-.23617.45254-.4978.70141-.72355.24823-.2336.52569-.43756.78207-.66331.16261-.07787.28-.2014.44072-.28151.122-.112.29982-.16855.42091-.2815a10.25352,10.25352,0,0,1,.98206-.46256,7.76729,7.76729,0,0,1,1.04228-.38164,8.46191,8.46191,0,0,1,2.50484-.30169c.03451.00416.05208-.03429.06007,0a7.85926,7.85926,0,0,1,4.26913,1.347,7.588,7.588,0,0,1,2.60548,2.9953,7.92566,7.92566,0,0,1,.66163,4.684,9.49509,9.49509,0,0,1-.66163,2.15078,9.6342,9.6342,0,0,1-.5011.90476,2.69308,2.69308,0,0,1-.2805.422.8504.8504,0,0,1-.13993.20108.98864.98864,0,0,1-.08034.10061c-.00911.01779-.01742.036-.04026.04038.00575.03573-.01837.041-.0198.01987" style="fill: #fefefe"/>
          </g>
        </g>
        <path id="Fill-4" d="M25.66848,17.07712c-.23513-.09277-.27474-.38132-.38113-.60307a.4951.4951,0,0,1,0-.2815c.01613-.00385.01981-.02019.0401-.02019.0591-.03813.11549.01026.20015.04022a1.2416,1.2416,0,0,1,.24072.5026c.00415.1583.01613.32445-.09984.36194" style="fill: #fefefe"/>
        <path id="Fill-6" d="M23.90466,16.7354c.00368-.02307.02029-.01121.02029,0,.35526.04535.51835.28375.541.66331a.42752.42752,0,0,1-.341.382.61919.61919,0,0,1-.58112-.88458c.09552-.07818.16325-.18441.36084-.1607" style="fill: #fefefe"/>
      </g>
    </g>
  </g>
</svg>
