<svg id="Layer_1" data-name="Layer 1" xmlns="http://www.w3.org/2000/svg" xmlns:xlink="http://www.w3.org/1999/xlink" viewBox="0 0 40 26">
  <defs>
    <symbol id="logo_qiwi_rus_compact_color" data-name="logo qiwi rus compact color" viewBox="0 0 343.647 154.805">
      <path d="M168.077,61.79462h8.72c4.45,0,7.59-2.28,7.59-6.31a5.8,5.8,0,0,0-3-5.24v-.07a5.73,5.73,0,0,0,4-5.76c0-4.9-3.93-7.1-8.45-7.1h-8.86Zm8.76-10a2.92,2.92,0,0,1,3,3.14,2.84,2.84,0,0,1-3.1,3h-4.24v-6.14Zm.45-10.66a3.535,3.535,0,1,1,0,7.07h-4.76v-7.07Zm20.3,14.17a9.33007,9.33007,0,0,0,6.76-2.62l-2-3a6.68006,6.68006,0,0,1-4.55,1.9,5.23,5.23,0,0,1-5.35321-5.10382q-.00412-.1731.0032-.34618a5.33,5.33,0,0,1,5.13432-5.51874q.17279-.00624.34568-.00126a7.88,7.88,0,0,1,5.17,2.24l1.69-3.1a10.15,10.15,0,0,0-7.24-2.86c-5.83,0-9.55,4.1-9.55,9.21S191.767,55.30462,197.587,55.30462Zm17.8,0c5,0,7.79-3.69,7.79-8.34a13.87,13.87,0,0,0-.14-1.69h-12.05a5,5,0,0,1,5.28-4.66,8.31,8.31,0,0,1,5,1.93l1.72-3.14a11.13,11.13,0,0,0-7.07-2.52,9,9,0,0,0-9.4698,8.50429q-.01893.35252-.01019.70571c-.01,5.42,3.68,9.21,8.95,9.21Zm-5,6.48h3.38v-4h-3.38Zm8.45-13.52a3.46,3.46,0,0,1-3.18945,3.71087q-.165.01245-.33055.00913a4.22,4.22,0,0,1-4.24-3.72Zm-2.14,13.53h3.35v-4h-3.35Zm18.76-6.9h16v-17.59h-4.38v13.87h-7.28v-13.86h-4.38Zm20.7,0h4v-1.31a11.99671,11.99671,0,0,0-.07-1.24h.07a6.44,6.44,0,0,0,5.66,3c4.76,0,7.79-3.76,7.79-9.21s-3.41-9.21-8-9.21a6.37,6.37,0,0,0-5.07,2.48h-.07a10.20013,10.20013,0,0,0,.1-1.52v-7.45h-4.38Zm8.62-14.31c2.41,0,4.41,2,4.41,5.45s-1.79,5.52-4.35,5.52c-2.31,0-4.45-1.66-4.45-5.55.02-2.73,1.54-5.42,4.4-5.42Zm21,14.72c5.38,0,9.69-3.83,9.69-9.21s-4.31-9.21-9.66-9.21-9.66,3.79-9.66,9.21,4.37,9.21,9.68,9.21Zm0-14.69a5.49,5.49,0,1,1-5.20285,5.76286q-.00724-.14131-.00714-.28286a5.23,5.23,0,0,1,4.97357-5.47442q.15812-.00757.3164-.00558Zm13.26,14.28h4.17v-13.86h5.48v13.86h4.17v-13.86h5.48v13.86h4.17v-13.86h2.48v-7.86h-3.93v4.14h-22Zm36.82.41c5,0,7.79-3.69,7.79-8.34a13.8699,13.8699,0,0,0-.14-1.69h-12.1a5,5,0,0,1,5.28-4.66,8.31,8.31,0,0,1,5,1.93l1.72-3.14a11.13,11.13,0,0,0-7.07-2.52,9,9,0,0,0-9.46981,8.50427q-.019.35253-.0102.70573C326.887,51.51462,330.577,55.30462,335.857,55.30462Zm3.41-7a3.46,3.46,0,0,1-3.18946,3.71087q-.165.01247-.33053.00913a4.22,4.22,0,0,1-4.24-3.72Z" style="fill: #2d3540"/>
      <path d="M243.357,132.00461v-50.53a1.37,1.37,0,0,0-1.37-1.37h-10.32a1.37,1.37,0,0,0-1.37,1.37v50.53a1.37,1.37,0,0,0,1.37,1.37h10.32A1.37,1.37,0,0,0,243.357,132.00461Zm80.43,1.37h-11.55a1.37,1.37,0,0,1-1.31-1l-9.14-29.82-10,29.89a1.37,1.37,0,0,1-1.3.93h-8.06a1.37,1.37,0,0,1-1.3-.93l-10.14-29.89-9.14,29.86a1.37,1.37,0,0,1-1.31,1h-11.55a1.38,1.38,0,0,1-1.11-.57,1.35,1.35,0,0,1-.19-1.23l17-50.55a1.37,1.37,0,0,1,1.3-.93h9.17a1.37,1.37,0,0,1,1.3.93l9.95,29.53,9.95-29.53a1.37,1.37,0,0,1,1.3-.93h9.17a1.37,1.37,0,0,1,1.3.93l17,50.55a1.35,1.35,0,0,1-.19,1.23A1.38,1.38,0,0,1,323.787,133.37462Zm17.37,0h-10.32a1.37,1.37,0,0,1-1.37-1.37v-50.53a1.37,1.37,0,0,1,1.37-1.37h10.32a1.37,1.37,0,0,1,1.37,1.37v50.53a1.37,1.37,0,0,1-1.37,1.37Zm-116.84-51.58a1,1,0,0,0-.8-1.74h-12.65a1.73,1.73,0,0,0-1.33.62l-2.14,2.58a28,28,0,1,0,8.34,8.36Zm-25.07,11.3-5.54,6.7a1.07,1.07,0,0,0,.82,1.76h11.59a16.3699,16.3699,0,0,1,.86,5.22c0,8.35-6.21,15.54-14.74,15.54s-14.74-7.2-14.74-15.54,6.21-15.44,14.74-15.44A14.29985,14.29985,0,0,1,199.247,93.09462Zm-76.41-42.44c.45-3-.5-4.27-1.46-4.27s-2.36,1.22-3.9,3.64-2.08,5.11-1.33,6.5a2.15,2.15,0,0,0,2.87.81c2.55-.96,3.55-4.87,3.82-6.67Zm-14.13-6.58c3.06-2.59,4-5.67,2.37-7.84a5,5,0,0,0-4.11-1.85,7.3,7.3,0,0,0-4.68,1.7c-2.78,2.43-3.6,6.38-1.78,8.62a4.05,4.05,0,0,0,3.25,1.36,7.82,7.82,0,0,0,4.95-1.98Zm-5.12-25c13.19,0,27.5-4.52,43.34-18.56,1.59-1.41,3.7.34,2.32,2.09-15.57,19.66-30,23.4-44.33,26.56-17.56,3.89-26.6,13.78-32.93,24.63-1.25,2.16-1.81,1.78-1.93-1a61.41035,61.41035,0,0,1,.93-12.3h-2.14a45.5,45.5,0,1,0,45.5,45.5,46.00149,46.00149,0,0,0-.29-5.29,68.21983,68.21983,0,0,1-14.45.27c-1.73-.15-1.48-1-.18-1.19,15-2.72,25.37-12,27.74-29a.42.42,0,0,1,.76-.17,68.84,68.84,0,1,1-59.08-33.5c10.05.02,20.06,1.98,34.74,1.98Z" style="fill: #ff8c00"/>
    </symbol>
  </defs>
  <title>qiwiwallet</title>
  <rect y="-0.00026" width="40" height="26" style="fill: #fff"/>
  <g id="main">
    <use width="343.64696" height="154.80509" transform="matrix(0.10767, 0, 0, -0.10767, 1, 22.66767)" xlink:href="#logo_qiwi_rus_compact_color"/>
  </g>
</svg>
