<svg id="Layer_1" data-name="Layer 1" xmlns="http://www.w3.org/2000/svg" xmlns:xlink="http://www.w3.org/1999/xlink" viewBox="0 0 40 26">
  <defs>
    <mask id="mask" x="18.38435" y="19.03386" width="3.43513" height="3.73296" maskUnits="userSpaceOnUse">
      <g id="mask-2">
        <polygon id="path-1" points="18.384 22.767 21.819 22.767 21.819 19.034 18.384 19.034 18.384 22.767" style="fill: #fff"/>
      </g>
    </mask>
    <mask id="mask-2-2" x="12.34041" y="2.46144" width="15.3191" height="15.37323" maskUnits="userSpaceOnUse">
      <g id="mask-4">
        <polygon id="path-3" points="27.66 2.461 12.34 2.461 12.34 17.835 27.66 17.835 27.66 2.461" style="fill: #fff"/>
      </g>
    </mask>
  </defs>
  <title>safetypay</title>
  <g id="Page-1">
    <g id="safetypay-65x41--">
      <rect y="0.0701" width="40" height="25.88042" style="fill: #0c5aa5"/>
      <g id="Page-1-2" data-name="Page-1">
        <polygon id="Fill-1" points="35.132 19.035 34.474 20.294 33.819 19.035 32.7 19.035 33.905 21.204 33.905 22.767 35.033 22.767 35.033 21.204 36.243 19.035 35.132 19.035" style="fill: #fff"/>
        <g id="Group-22">
          <path id="Fill-2" d="M28.29615,20.50774a.55042.55042,0,0,1-.30812.10744c-.0486.00437-.10161.00826-.15955.00826h-.28416v-.83162h.32941c.04132,0,.07933,0,.1143.0029a.49018.49018,0,0,1,.32667.11817.41179.41179,0,0,1,.11672.2989.37334.37334,0,0,1-.13527.29595m.94749-1.17792a1.31407,1.31407,0,0,0-.93973-.29885H26.43477v3.73291h1.10955V21.37845h.63109a1.478,1.478,0,0,0,1.04-.317,1.15217,1.15217,0,0,0,.34016-.88391,1.115,1.115,0,0,0-.3119-.84777" style="fill: #fff"/>
          <path id="Fill-4" d="M31.10338,21.34083h-.27106l.25847-1.3415.01259.06545.27006,1.27605Zm.54547-2.30986H30.55351l-1.2229,3.73391h1.12748l.1587-.61632h.96741l.1596.61632h1.13089Z" style="fill: #fff"/>
          <polygon id="Fill-6" points="11.096 19.032 14.221 19.032 14.221 19.834 12.225 19.834 12.225 20.486 13.95 20.486 13.95 21.238 12.225 21.238 12.225 22.763 11.096 22.763 11.096 19.032" style="fill: #fff"/>
          <polygon id="Fill-8" points="17.911 19.834 17.911 19.031 14.785 19.031 14.785 19.031 14.783 19.031 14.783 22.763 14.785 22.763 15.914 22.763 17.907 22.763 17.907 21.961 15.914 21.961 15.914 21.238 17.233 21.238 17.233 20.485 15.914 20.485 15.914 19.834 17.911 19.834" style="fill: #fff"/>
          <polygon id="Fill-10" points="22.123 19.024 23.24 19.024 23.899 20.285 24.556 19.024 25.667 19.024 24.455 21.192 24.455 22.758 23.328 22.758 23.328 21.192 22.123 19.024" style="fill: #fff"/>
          <g id="Group-14">
            <g style="mask: url(#mask)">
              <polygon id="Fill-12" points="18.39 19.034 21.819 19.034 21.817 19.834 20.665 19.834 20.669 22.767 19.541 22.767 19.536 19.834 18.384 19.834 18.39 19.034" style="fill: #fff"/>
            </g>
          </g>
          <path id="Fill-15" d="M9.10028,21.33791H8.73934l.256-1.34107.01363.06483v.00067l.02684.12686.001.0048h0l.24181,1.14391ZM9.554,19.03H8.45811L7.23422,22.76139H8.36369l.15765-.61485h.96742l.16059.61485h1.128Z" style="fill: #fff"/>
          <path id="Fill-17" d="M3.75724,21.4805h1.0847a.65521.65521,0,0,0,.1392.35941.61111.61111,0,0,0,.50656.21782.58044.58044,0,0,0,.37812-.11134.33294.33294,0,0,0,.13139-.25985.32735.32735,0,0,0-.12462-.252,1.51876,1.51876,0,0,0-.58831-.208,2.51425,2.51425,0,0,1-1.075-.43858.8733.8733,0,0,1-.32652-.69536.92074.92074,0,0,1,.1674-.5264,1.08691,1.08691,0,0,1,.49829-.39071,2.38641,2.38641,0,0,1,.91289-.14164,1.92242,1.92242,0,0,1,1.08569.25687,1.13968,1.13968,0,0,1,.44528.83413h-1.092a.43615.43615,0,0,0-.17181-.30863.59472.59472,0,0,0-.38-.10939.47.47,0,0,0-.30267.08251.25124.25124,0,0,0-.10124.20072.19949.19949,0,0,0,.08372.15531.95757.95757,0,0,0,.38541.13181,5.02217,5.02217,0,0,1,1.07641.31941,1.1157,1.1157,0,0,1,.47354.39945.99583.99583,0,0,1,.1479.53524A1.12505,1.12505,0,0,1,6.915,22.171a1.21555,1.21555,0,0,1-.55233.44486,2.284,2.284,0,0,1-.89344.15094,1.87732,1.87732,0,0,1-1.31146-.35456,1.43643,1.43643,0,0,1-.4005-.93174" style="fill: #fff"/>
          <g id="Group-21">
            <g style="mask: url(#mask-2-2)">
              <path id="Fill-19" d="M25.40346,11.00292l-3.79484,3.8083-.86163-.86464,3.79488-3.80824L20.747,6.33005l.86158-.86468L26.265,10.13829ZM18.5101,14.82879l-2.25819-2.26617,2.3457-2.35408-2.3457-2.354L18.5101,5.58834l2.34575,2.354L23.114,10.20854ZM20,2.46144l-7.65957,7.68664L20,17.83467l7.65953-7.68659Z" style="fill: #fff"/>
            </g>
          </g>
        </g>
      </g>
    </g>
  </g>
</svg>
