<svg id="Layer_1" data-name="Layer 1" xmlns="http://www.w3.org/2000/svg" viewBox="0 0 40 26">
  <title>amex_samsungpay</title>
  <path d="M30.56338,10.372a9.13072,9.13072,0,0,0-2.21545-5.12767h0a9.12411,9.12411,0,0,0-5.12767-2.21545,19.77274,19.77274,0,0,0-3.2031-.19008,19.77271,19.77271,0,0,0-3.2031.19008,9.13072,9.13072,0,0,0-5.12767,2.21545h0A9.13488,9.13488,0,0,0,9.47027,10.372a19.77,19.77,0,0,0-.19009,3.2031,19.77214,19.77214,0,0,0,.19009,3.2031,9.13059,9.13059,0,0,0,2.21545,5.12767h0a9.12143,9.12143,0,0,0,5.12766,2.21545,19.77359,19.77359,0,0,0,3.2031.19009,19.77356,19.77356,0,0,0,3.2031-.19009,9.13063,9.13063,0,0,0,5.12767-2.21545h0a9.11942,9.11942,0,0,0,2.21545-5.12767,19.77356,19.77356,0,0,0,.19009-3.2031A19.71582,19.71582,0,0,0,30.56338,10.372ZM14.878,15.69244h-.43091v-.91662H14.878A1.4702,1.4702,0,0,0,16.39126,13.316,1.51461,1.51461,0,0,0,14.878,11.8034H13.51016a.15762.15762,0,0,0-.15559.15559v5.14119h-.9342V11.959a1.09114,1.09114,0,0,1,1.08979-1.0898H14.878a2.45018,2.45018,0,0,1,2.44748,2.44815A2.39066,2.39066,0,0,1,14.878,15.69244Zm7.82341-2.27295v2.28445h-.93488V13.32749a1.59876,1.59876,0,0,0-1.59986-1.51733,1.56179,1.56179,0,0,0-1.518,1.51733,1.4371,1.4371,0,0,0,1.57754,1.43615h.29156v.93421h-.29156a2.3474,2.3474,0,0,1-2.51175-2.36765,2.49125,2.49125,0,0,1,2.45222-2.45154,2.532,2.532,0,0,1,2.53407,2.45154Zm.14748-2.3893h1.04447l1.2075,2.5158-.52223,1.04515Zm2.1593,6.23167H23.96641l3.061-6.23167h1.04447Z" style="fill: #3056d3"/>
  <path d="M13.51016,10.86919a1.09114,1.09114,0,0,0-1.08979,1.0898v2.85877h.93421V11.959a.1576.1576,0,0,1,.15558-.15559h.90039v-.93421Z" style="fill: #fff"/>
  <path d="M14.878,10.86919h-.02367v.93421H14.878a1.51463,1.51463,0,0,1,1.5126,1.51394,1.469,1.469,0,0,1-1.51327,1.45983h-.43024v.91662H14.878A2.39037,2.39037,0,0,0,17.32547,13.318,2.45017,2.45017,0,0,0,14.878,10.86919Z" style="fill: #fff"/>
  <rect x="14.41055" y="10.86919" width="0.44377" height="0.93421" style="fill: #fff"/>
  <path d="M20.16666,10.876a2.49126,2.49126,0,0,0-2.45222,2.45154,2.34625,2.34625,0,0,0,2.51175,2.36766h.29156V14.763h-.29156a1.43673,1.43673,0,0,1-1.57754-1.43616,1.56418,1.56418,0,0,1,1.518-1.51733,1.59876,1.59876,0,0,1,1.59986,1.51733v.09268h.93421v-.09268A2.53191,2.53191,0,0,0,20.16666,10.876Z" style="fill: #fff"/>
  <rect x="12.42037" y="15.28453" width="0.93421" height="1.81768" style="fill: #fff"/>
  <rect x="12.42037" y="14.81776" width="0.93421" height="0.46677" style="fill: #fff"/>
  <rect x="21.76652" y="13.9884" width="0.93421" height="1.71486" style="fill: #fff"/>
  <rect x="21.76652" y="13.41949" width="0.93421" height="0.56959" style="fill: #fff"/>
  <polygon points="25.1 13.546 23.893 11.03 22.848 11.03 24.578 14.591 25.1 13.546" style="fill: #fff"/>
  <polygon points="23.966 17.262 25.008 17.262 28.072 11.03 27.027 11.03 23.966 17.262" style="fill: #fff"/>
</svg>
