<svg id="Layer_1" data-name="Layer 1" xmlns="http://www.w3.org/2000/svg" xmlns:xlink="http://www.w3.org/1999/xlink" viewBox="0 0 40 26">
  <defs>
    <mask id="mask" x="-2.31222" y="-9.40786" width="44.62382" height="44.81495" maskUnits="userSpaceOnUse">
      <g id="mask-4">
        <polygon id="path-3" points="-2.312 35.407 42.312 35.407 42.312 -9.408 -2.312 -9.408 -2.312 35.407" style="fill: #fff"/>
      </g>
    </mask>
  </defs>
  <title>sepa</title>
  <g id="Page-1">
    <g id="sepa-65x41-">
      <g id="Rectangle">
        <rect id="path-1" x="0.11464" y="1.44227" width="39.27002" height="24.77032" rx="2.41662" ry="2.41662" style="fill: #c83291"/>
      </g>
      <g>
        <polygon id="Fill-1" points="0 25.951 40 25.951 40 0 0 0 0 25.951" style="fill: #9a1b27"/>
        <g id="Group-24">
          <path id="Fill-2" d="M9.90864,12.41546a7.09569,7.09569,0,0,0-1.80435-.38371,3.8471,3.8471,0,0,1-1.03961-.21565.37954.37954,0,0,1-.239-.35351.43885.43885,0,0,1,.18812-.35651.9802.9802,0,0,1,.60055-.14672,1.21738,1.21738,0,0,1,.693.19193.79185.79185,0,0,1,.29878.45011l2.30621-.22813a2.8282,2.8282,0,0,0-.6004-.99,2.18449,2.18449,0,0,0-.90218-.54007,5.90833,5.90833,0,0,0-1.67589-.17406,5.31062,5.31062,0,0,0-1.71478.225,2.16947,2.16947,0,0,0-1.00387.68015,1.68447,1.68447,0,0,0-.36443,1.08519,1.66154,1.66154,0,0,0,.33766,1.025,1.85546,1.85546,0,0,0,.8304.63841,10.839,10.839,0,0,0,1.75964.41059,5.01093,5.01093,0,0,1,1.04559.25169.4459.4459,0,0,1,.27486.40758.46858.46858,0,0,1-.20922.38925,1.20759,1.20759,0,0,1-.75876.20979,1.23716,1.23716,0,0,1-.7169-.18608,1.19454,1.19454,0,0,1-.41826-.618l-2.41389.228a2.23993,2.23993,0,0,0,.947,1.41626,4.60323,4.60323,0,0,0,2.47654.498,5.00648,5.00648,0,0,0,1.94477-.30877,2.2448,2.2448,0,0,0,1.04559-.83018,1.97441,1.97441,0,0,0,.33169-1.073,1.72826,1.72826,0,0,0-.31374-1.00109A1.99057,1.99057,0,0,0,9.90864,12.41546Z" style="fill: #fefefe"/>
          <path id="Fill-4" d="M24.72611,14.1546a.884.884,0,0,1-.71107.351,1.01241,1.01241,0,0,1-.80048-.366,1.68127,1.68127,0,0,1-.31673-1.122,1.82616,1.82616,0,0,1,.31074-1.18812.977.977,0,0,1,.77672-.36616.91188.91188,0,0,1,.72886.36315,1.77514,1.77514,0,0,1,.29878,1.13706,1.90636,1.90636,0,0,1-.28682,1.19112M24.78,9.66915a2.4725,2.4725,0,0,0-1.177.282,3.03078,3.03078,0,0,0-.86644.8041V9.81318h-2.2763v9.12916h2.4556V15.5677a2.43918,2.43918,0,0,0,.82756.57011,2.65131,2.65131,0,0,0,1.02465.19193,2.47689,2.47689,0,0,0,1.91785-.837,3.49687,3.49687,0,0,0,.75877-2.42731,4.06487,4.06487,0,0,0-.69595-2.41813A2.275,2.275,0,0,0,24.78,9.66915" style="fill: #fefefe"/>
          <path id="Fill-6" d="M32.93547,13.55155a1.62212,1.62212,0,0,1-.14639.741,1.19585,1.19585,0,0,1-.49588.48315,1.50774,1.50774,0,0,1-.75578.19794.844.844,0,0,1-.58859-.18292.62667.62667,0,0,1,.003-.92109,2.41071,2.41071,0,0,1,.93807-.39q.54357-.138,1.04558-.3181Zm2.43467,1.9832a3.416,3.416,0,0,1-.05667-.70513V12.01545a2.77524,2.77524,0,0,0-.1793-.94512,1.79987,1.79987,0,0,0-.4899-.765,2.25258,2.25258,0,0,0-1.1054-.513,10.01848,10.01848,0,0,0-1.7565-.123,7.39227,7.39227,0,0,0-1.26676.102,2.97419,2.97419,0,0,0-.92.28806,2.09423,2.09423,0,0,0-.71406.609,2.62236,2.62236,0,0,0-.37938.96314l2.32416.246a1.052,1.052,0,0,1,.37639-.5641,1.67824,1.67824,0,0,1,.89619-.19193.92685.92685,0,0,1,.65125.17991.8613.8613,0,0,1,.18528.63,8.25239,8.25239,0,0,1-.8603.29106q-.40638.111-1.7746.387a2.86473,2.86473,0,0,0-1.56539.69611,1.70953,1.70953,0,0,0-.42424,1.19413,1.68063,1.68063,0,0,0,.58859,1.30211,2.50253,2.50253,0,0,0,1.72375.52805,3.941,3.941,0,0,0,1.49959-.264,3.15035,3.15035,0,0,0,.95-.66007,2.79589,2.79589,0,0,0,.08359.40505,2.34091,2.34091,0,0,0,.1793.375h2.28229a3.17321,3.17321,0,0,1-.24794-.65106Z" style="fill: #fefefe"/>
          <polygon id="Fill-8" points="11.482 7.306 11.482 9.764 11.482 18.694 19.83 20.171 19.83 18.694 19.83 9.764 19.83 5.829 11.482 7.306" style="fill: #fefefe"/>
          <path id="Fill-10" d="M24.06338,18.384a.44421.44421,0,0,0,.08218.29281.24759.24759,0,0,0,.1941.09691.24306.24306,0,0,0,.19173-.09265.42792.42792,0,0,0,.07887-.28268.48015.48015,0,0,0-.08044-.30719.24665.24665,0,0,0-.19788-.098.23791.23791,0,0,0-.19158.09423.46567.46567,0,0,0-.077.29659Zm.54389.50893v-.12869a.3152.3152,0,0,1-.28383.15161.3974.3974,0,0,1-.22322-.06719.44136.44136,0,0,1-.15773-.18766.65068.65068,0,0,1-.05589-.277.72972.72972,0,0,1,.05053-.277.39775.39775,0,0,1,.3786-.25675.33789.33789,0,0,1,.28005.14008v-.505h.17112V18.893Z" style="fill: #fefefe"/>
          <g style="mask: url(#mask)">
            <path id="Fill-12" d="M25.23415,18.893h.20578V17.87336h-.20578Zm0-1.20883h.20578v-.19873h-.20578Z" style="fill: #fefefe"/>
          </g>
          <g style="mask: url(#mask)">
            <path id="Fill-14" d="M25.86215,18.8929V17.87331h.1549v.15463a.42051.42051,0,0,1,.10941-.14308.19021.19021,0,0,1,.11035-.03463.33554.33554,0,0,1,.17694.05565l-.05935.16032a.24616.24616,0,0,0-.12609-.03731.16438.16438,0,0,0-.10138.034.18513.18513,0,0,0-.06407.09455.67877.67877,0,0,0-.02865.20174v.53374Z" style="fill: #fefefe"/>
          </g>
          <g style="mask: url(#mask)">
            <path id="Fill-15" d="M26.84178,18.28516h.56687a.34611.34611,0,0,0-.065-.193.263.263,0,0,0-.21314-.09976.27268.27268,0,0,0-.1993.07968.31529.31529,0,0,0-.08941.21312m.565.27937.17773.02213a.435.435,0,0,1-.15569.24284.52583.52583,0,0,1-.64385-.05138.539.539,0,0,1-.1305-.3864.56458.56458,0,0,1,.13191-.39936.4455.4455,0,0,1,.34224-.14213.43306.43306,0,0,1,.33263.13929.5542.5542,0,0,1,.12908.39161l-.00094.04616h-.7572a.39325.39325,0,0,0,.09461.25723.28115.28115,0,0,0,.21236.08933.26207.26207,0,0,0,.16152-.05.33106.33106,0,0,0,.1061-.15936" style="fill: #fefefe"/>
          </g>
          <g style="mask: url(#mask)">
            <path id="Fill-16" d="M28.659,18.51944l.16923.02213a.44128.44128,0,0,1-.142.27493.4115.4115,0,0,1-.28052.09945.43507.43507,0,0,1-.33515-.13676A.557.557,0,0,1,27.944,18.387a.712.712,0,0,1,.05446-.289.38158.38158,0,0,1,.16577-.18577.49106.49106,0,0,1,.24242-.062.42.42,0,0,1,.27045.08411.38536.38536,0,0,1,.13491.23857l-.16734.02593a.27871.27871,0,0,0-.08469-.15462.21779.21779,0,0,0-.14671-.05186.26651.26651,0,0,0-.21126.0936.44628.44628,0,0,0-.08123.29627.46043.46043,0,0,0,.07839.2985.25453.25453,0,0,0,.20465.09312.24037.24037,0,0,0,.16907-.06229.30984.30984,0,0,0,.08611-.19209" style="fill: #fefefe"/>
          </g>
          <g style="mask: url(#mask)">
            <path id="Fill-17" d="M29.54681,18.73833l.02487.15272a.64436.64436,0,0,1-.13.01533.29225.29225,0,0,1-.1453-.02988.16581.16581,0,0,1-.07272-.0781.62761.62761,0,0,1-.02094-.2041v-.58655h-.12625v-.13439h.12625v-.25264l.17112-.10356v.3562h.173v.13439h-.173v.59619a.29877.29877,0,0,0,.00913.095.07107.07107,0,0,0,.02959.03367.11515.11515,0,0,0,.05872.01249.56806.56806,0,0,0,.07556-.00679" style="fill: #fefefe"/>
          </g>
          <g style="mask: url(#mask)">
            <path id="Fill-18" d="M30.66744,18.384a.44426.44426,0,0,0,.08217.29281.24761.24761,0,0,0,.1941.09691.2431.2431,0,0,0,.19174-.09265.42792.42792,0,0,0,.07887-.28268.48015.48015,0,0,0-.08044-.30719.24666.24666,0,0,0-.19788-.098.2379.2379,0,0,0-.19158.09423.46567.46567,0,0,0-.077.29659Zm.54389.50893v-.12869a.31522.31522,0,0,1-.28383.15161.39735.39735,0,0,1-.22322-.06719.44145.44145,0,0,1-.15774-.18766.65068.65068,0,0,1-.05588-.277.72972.72972,0,0,1,.05053-.277.39775.39775,0,0,1,.37859-.25675.33792.33792,0,0,1,.28006.14008v-.505H31.371V18.893Z" style="fill: #fefefe"/>
          </g>
          <g style="mask: url(#mask)">
            <path id="Fill-19" d="M31.96731,18.28516h.56687a.34611.34611,0,0,0-.065-.193.263.263,0,0,0-.21314-.09976.27268.27268,0,0,0-.1993.07968.31529.31529,0,0,0-.08941.21312m.565.27937.17773.02213a.43494.43494,0,0,1-.15569.24284.52583.52583,0,0,1-.64385-.05138.539.539,0,0,1-.1305-.3864.56454.56454,0,0,1,.13192-.39936.44549.44549,0,0,1,.34223-.14213.433.433,0,0,1,.33263.13929.5542.5542,0,0,1,.12908.39161l-.00094.04616h-.75719a.39315.39315,0,0,0,.09461.25723.28114.28114,0,0,0,.21236.08933.26206.26206,0,0,0,.16151-.05.33106.33106,0,0,0,.1061-.15936" style="fill: #fefefe"/>
          </g>
          <g style="mask: url(#mask)">
            <path id="Fill-20" d="M33.27865,18.37542a.532.532,0,0,0,.04975.265.24538.24538,0,0,0,.4148.0351.44768.44768,0,0,0,.08233-.29328.45673.45673,0,0,0-.07887-.29485.23975.23975,0,0,0-.19079-.095.24787.24787,0,0,0-.195.09833.43408.43408,0,0,0-.08218.28474Zm.00189.51746h-.15962v-1.4074H33.293v.50212a.34022.34022,0,0,1,.27816-.13738.42484.42484,0,0,1,.17741.03794.36243.36243,0,0,1,.13759.10656.51782.51782,0,0,1,.08469.16569.68791.68791,0,0,1,.03054.20727.58361.58361,0,0,1-.12909.40521.40229.40229,0,0,1-.30964.14308.3232.3232,0,0,1-.2821-.15067Z" style="fill: #fefefe"/>
          </g>
          <g style="mask: url(#mask)">
            <path id="Fill-21" d="M34.40751,18.893h.20578V17.87336h-.20578Zm0-1.20883h.20578v-.19873h-.20578Z" style="fill: #fefefe"/>
          </g>
          <g style="mask: url(#mask)">
            <path id="Fill-22" d="M35.413,18.73833l.02488.15272a.64452.64452,0,0,1-.13.01533.2922.2922,0,0,1-.1453-.02988.16579.16579,0,0,1-.07273-.0781.6279.6279,0,0,1-.02094-.2041v-.58655H34.9426v-.13439h.12625v-.25264l.17112-.10356v.3562h.173v.13439H35.24v.59619a.29877.29877,0,0,0,.00913.095.07107.07107,0,0,0,.02959.03367.11517.11517,0,0,0,.05872.01249.56778.56778,0,0,0,.07556-.00679" style="fill: #fefefe"/>
          </g>
          <g style="mask: url(#mask)">
            <path id="Fill-23" d="M16.85732,12.43546a1.63707,1.63707,0,0,0-.37938-1.01405,1.187,1.187,0,0,0-1.73572.156,1.69687,1.69687,0,0,0-.28084.858Zm2.47355,1.17009H14.4554a1.58464,1.58464,0,0,0,.31673.876,1.15071,1.15071,0,0,0,.92012.41407,1.37791,1.37791,0,0,0,.68116-.17992,1.60558,1.60558,0,0,0,.42409-.40205l2.39594.222A3.43952,3.43952,0,0,1,17.867,15.91286a4.8016,4.8016,0,0,1-2.2286.41691,4.54561,4.54561,0,0,1-1.98365-.357A2.91679,2.91679,0,0,1,12.457,14.83873a3.43334,3.43334,0,0,1-.4751-1.82716,3.21673,3.21673,0,0,1,.953-2.41829,3.62174,3.62174,0,0,1,2.63191-.92409,4.66645,4.66645,0,0,1,2.15083.41406,2.78941,2.78941,0,0,1,1.201,1.20014,4.40272,4.40272,0,0,1,.41228,2.04612Z" style="fill: #9a1b27"/>
          </g>
        </g>
      </g>
    </g>
  </g>
</svg>
