<svg id="Layer_1" data-name="Layer 1" xmlns="http://www.w3.org/2000/svg" viewBox="0 0 40 26">
  <title>sofort</title>
  <g id="Ebene_2" data-name="Ebene 2">
    <g id="Background">
      <rect x="-4.029" y="0.02271" width="47.20524" height="26.97442" style="fill: none"/>
    </g>
    <g id="SOFORT">
      <rect y="0.02271" width="40" height="25.97729" style="fill: #fa82a0"/>
      <path d="M12.737,23.79392h.07586a1.492,1.492,0,0,0,1.492-1.492h0c0-.843-.58164-1.18013-1.29815-1.39086-.46362-.13488-.74179-.236-.74179-.56478h0a.48048.48048,0,0,1,.48048-.48048h0a.66592.66592,0,0,1,.59849.37933h0l.7418-.47206a1.492,1.492,0,0,0-2.7986.61536h0c0,.59849.36247,1.06212,1.24757,1.34872.48891.1433.79237.2276.79237.62378h0a.58163.58163,0,0,1-.5732.57321h-.06744a1.14643,1.14643,0,0,1-.89353-.49734h0l-.62378.63221a1.84605,1.84605,0,0,0,1.46673.72494Zm3.65,0a1.6859,1.6859,0,1,1,1.73647-1.6859h0a1.6859,1.6859,0,0,1-1.6859,1.6859Zm0-.84295h0a.843.843,0,1,0-.843-.843h0a.843.843,0,0,0,.843.843Zm4.01244-3.04306v-.843H20.0622a1.50888,1.50888,0,0,0-1.50888,1.50889v.09272h0v3.05148h.91039V22.36933a.78394.78394,0,0,1,.78394-.7418h.0843v-.91038h-.06744a1.12106,1.12106,0,0,0-.77551.32032h0v-.40462a.75021.75021,0,0,1,.74179-.74179h.13487Zm1.97251,3.886a1.6859,1.6859,0,1,1,1.728-1.6859h0a1.6859,1.6859,0,0,1-1.6859,1.6859Zm0-.84295h0a.84295.84295,0,1,0-.843-.843h0a.843.843,0,0,0,.843.843Zm3.0852-2.09052v-.3709h-.843v3.21164h.843V22.167a.76708.76708,0,0,1,.76708-.76708H26.3v-.9694h-.10116a.9104.9104,0,0,0-.77551.413h0Zm2.30125,1.20542v-.79238a1.079,1.079,0,0,0,.77551.32032h.06744v-.843h-.05058a.79237.79237,0,0,1-.79237-.77551h0v-.50577H26.8311V22.1333a.26089.26089,0,0,0,0,.0843,1.51731,1.51731,0,0,0,1.51731,1.50888h.26974v-.84295h-.13487a.7418.7418,0,0,1-.75018-.73332l-.00005-.00848v-.059h0Zm1.94722,1.6859a.60693.60693,0,1,0-.60693-.60692h0a.60693.60693,0,0,0,.60693.60692Z" style="fill: #fff"/>
      <path d="M25.45385,10.3067a.93573.93573,0,0,0-.53949-.32032h0l-.53949-.118L25.614,3.698a1.48346,1.48346,0,0,0,0-.2866A1.3403,1.3403,0,0,0,24.6109,2.11322h0a1.68584,1.68584,0,0,0-.36247-.04214A1.42457,1.42457,0,0,0,22.925,3.09948h0L21.76172,6.96862l-.843-3.78485a1.34028,1.34028,0,0,0-1.36558-1.09583,1.8545,1.8545,0,0,0-.30346,0h0a1.433,1.433,0,0,0-1.02,1.36558,1.28129,1.28129,0,0,0,.05058.354h0L18.803,8.1066a1.20542,1.20542,0,0,0-.92725-.43833,1.22224,1.22224,0,0,0-.67436.20231h0l-.08429.05057a1.41615,1.41615,0,0,0-.52263,1.10427,1.3909,1.3909,0,0,0,.22759.76709h0a1.18012,1.18012,0,0,0-.843.37089h0l-.059.059a1.47516,1.47516,0,0,0,.24762,2.07145l.01369.01064h0l.53106.5142a4.21475,4.21475,0,0,0,4.21475,4.05459h.13487c3.17793,0,4.5688-1.87978,4.80482-4.729a2.16627,2.16627,0,0,0,0-.42148,2.3433,2.3433,0,0,0-.48048-1.433Zm-6.0271-7.58655h.16016a.79238.79238,0,0,1,.77552.63221h0l1.138,4.8554h0v.09272h.41305l.06743-.07586h0V8.18247h0l1.4836-4.92283A.84294.84294,0,0,1,24.49011,2.652l.00277.00071h0a.784.784,0,0,1,.55635.75023,1.036,1.036,0,0,1,0,.16859h0L23.768,9.7335l-2.217-.52263h-.15174a2.52784,2.52784,0,0,0-.37932,0,2.03951,2.03951,0,0,0-.39619.04215h0a1.197,1.197,0,0,0-.72494.47205h0l-.34561-.6575-.67436-5.30216v-.059a.84347.84347,0,0,1,0-.21074.843.843,0,0,1,.57321-.84295ZM17.488,8.40164h.059c.42147-.24446.78394-.059,1.14641.48048l.30347.44676h0l.67436.97782a1.23039,1.23039,0,0,0-.04215.32033,1.27282,1.27282,0,0,0,.34561.843h0a.65751.65751,0,0,1-.20231.22759h-.06744a.6575.6575,0,0,1-.40461.12645.69966.69966,0,0,1-.59007-.3119h0L17.46268,9.64077c-.33718-.53949-.30347-1.0874,0-1.30657Zm-1.0874,2.217.05057-.059a.70814.70814,0,0,1,.46362-.177.68284.68284,0,0,1,.38776.118h0l.92725,1.34873a1.2813,1.2813,0,0,0,1.07055.56477h0a.69964.69964,0,0,1,.18544.48048.74186.74186,0,0,1-.18544.48049h0l-.05058.059a.74181.74181,0,0,1-.50577.21074.71648.71648,0,0,1-.50577-.21074h0l-1.58475-1.61c-.472-.40462-.53106-.95254-.25288-1.23914Zm8.90156,1.51731c-.21917,2.58786-1.42459,4.21475-4.27376,4.21475h-.07587a3.65841,3.65841,0,0,1-3.57411-2.84074h0l.42991.42147a1.28971,1.28971,0,0,0,1.82392.00528l.00528-.00528h0l.05057-.059a1.27283,1.27283,0,0,0,.36247-.89353,1.298,1.298,0,0,0-.16016-.62378h0l.13487-.06744.059-.04215a1.18006,1.18006,0,0,0,.31189-.42147h0a2.83243,2.83243,0,0,0,.64908.26974h0l.8008.18545a2.14106,2.14106,0,0,0-.97782,1.78706.51407.51407,0,0,0,0,.118h0a.28659.28659,0,0,0,.2866.24445.295.295,0,0,0,.2866-.24445h0a.72512.72512,0,0,1,0-.13487,1.52573,1.52573,0,0,1,.97783-1.38244h0a1.964,1.964,0,0,1,.64064-.10959h.33718a.28533.28533,0,0,0,.059-.56477h0l-2.217-.47206a2.40236,2.40236,0,0,1-.75022-.32032h0a.2276.2276,0,0,0-.10116-.07586h0a.79082.79082,0,0,1-.15173-.91882h0a.62379.62379,0,0,1,.49734-.48048h0a1.33174,1.33174,0,0,1,.26975,0h.37933l3.3718.78394h.06744a.63224.63224,0,0,1,.16859.12645h0a1.86291,1.86291,0,0,1,.32875,1.05368,1.96435,1.96435,0,0,1-.05058.44677Z" style="fill: #fff"/>
    </g>
  </g>
</svg>
