<svg id="Layer_1" data-name="Layer 1" xmlns="http://www.w3.org/2000/svg" viewBox="0 0 40 26">
  <title>solo</title>
  <g>
    <rect y="-0.00026" width="40" height="26" style="fill: #cb2686"/>
    <g>
      <path d="M22.48224,9.28009A4.73871,4.73871,0,0,1,14.54039,14.452l1.36147-.9148A3.0771,3.0771,0,0,0,21.059,10.17885Z" style="fill: #fff"/>
      <path d="M25.65087,7.2673a4.73868,4.73868,0,1,0-7.93506,5.18221l1.38607-.87721a3.077,3.077,0,1,1,5.15259-3.365Z"/>
      <path d="M11.00054,10.67393a8.99946,8.99946,0,1,1,8.99941,8.99941A8.99947,8.99947,0,0,1,11.00054,10.67393Zm8.99941,8.36934a8.36939,8.36939,0,1,0-8.36924-8.36934A8.36934,8.36934,0,0,0,19.99995,19.04327Z" style="fill: #fff"/>
      <g>
        <path d="M21.03409,21.58754H21.61l-.47413,2.13223H22.684l-.10842.47984H20.45125Z" style="fill: #fff"/>
        <path d="M14.54954,23.40366a1.28046,1.28046,0,0,0,1.05.47756c.49026-.01534.66568-.15436.69894-.389.01338-.09287.051-.3049-.35675-.35429l-.66057-.07192c-.702-.09366-.815-.37751-.7991-.72786.02175-.47973.62259-.85085,1.26752-.8597a1.54189,1.54189,0,0,1,1.27548.42385l-.39876.24114a1.27955,1.27955,0,0,0-.9817-.25895c-.24675.01535-.57979.11432-.63046.35271-.03591.16894-.02706.275.32664.3172l.83609.1098a.756.756,0,0,1,.677.71557c-.04506.453-.44038.98917-1.386.94293a1.50367,1.50367,0,0,1-1.34268-.67139Z" style="fill: #fff"/>
        <path d="M17.34037,22.881a1.70078,1.70078,0,0,1,1.62918-1.42562A1.2074,1.2074,0,0,1,20.192,22.881,1.70073,1.70073,0,0,1,18.56282,24.307,1.2076,1.2076,0,0,1,17.34037,22.881Zm1.29348.9269A1.106,1.106,0,0,0,19.693,22.881a.785.785,0,0,0-.79466-.9267,1.10586,1.10586,0,0,0-1.05913.9267A.78509.78509,0,0,0,18.63385,23.80793Z" style="fill: #fff"/>
        <path d="M23.02287,22.881a1.70073,1.70073,0,0,1,1.62928-1.42562A1.20745,1.20745,0,0,1,25.8746,22.881,1.701,1.701,0,0,1,24.24532,24.307,1.20756,1.20756,0,0,1,23.02287,22.881Zm1.29359.9269a1.106,1.106,0,0,0,1.05913-.9269.785.785,0,0,0-.79447-.9267,1.1057,1.1057,0,0,0-1.05913.9267A.78492.78492,0,0,0,24.31646,23.80793Z" style="fill: #fff"/>
      </g>
    </g>
  </g>
</svg>
