<svg id="Layer_1" data-name="Layer 1" xmlns="http://www.w3.org/2000/svg" xmlns:xlink="http://www.w3.org/1999/xlink" viewBox="0 0 40 26">
  <defs>
    <mask id="mask" x="-3" y="-2.00026" width="44.39065" height="28.00026" maskUnits="userSpaceOnUse">
      <g id="mask-2">
        <rect id="path-1" x="-3" y="-2.00026" width="44.39065" height="28.00026" rx="2.73173" ry="2.73173" style="fill: #fff"/>
      </g>
    </mask>
    <mask id="mask-2-2" x="4.51199" y="5.29975" width="20.67034" height="4.88673" maskUnits="userSpaceOnUse">
      <g id="mask-4">
        <polygon id="path-3" points="4.512 5.3 4.512 10.186 25.182 10.186 25.182 5.3 4.512 5.3" style="fill: #fff"/>
      </g>
    </mask>
  </defs>
  <title>star</title>
  <g id="Page-1">
    <g id="star_65x41" data-name="star 65x41">
      <rect y="-0.00026" width="40" height="26" style="fill: #ea1e2e"/>
      <g style="mask: url(#mask)">
        <g id="Page-1-2" data-name="Page-1">
          <g>
            <path id="Fill-1" d="M18.60186,13.01239a5.96446,5.96446,0,0,1,.15775-1.54138H10.223a7.245,7.245,0,0,0-1.93611-.237c-2.21339,0-3.65575,1.34333-3.65575,3.00354a3.11344,3.11344,0,0,0,2.41076,3.00354c1.34333.49444,2.19358,1.107,2.19358,1.68s-.23766,1.50177-1.917,1.50177a1.75484,1.75484,0,0,1-1.85758-1.482l-.45484.05873a13.452,13.452,0,0,1-.49376,1.83778,4.7289,4.7289,0,0,0,2.76657.63239c2.41075,0,4.09077-1.38294,4.09077-3.22071s-1.56119-2.5692-2.47017-2.96393c-.909-.39542-2.253-.83045-2.253-1.75924s.75123-1.245,1.79816-1.245a3.95424,3.95424,0,0,1,1.95661.61259,12.42715,12.42715,0,0,1,2.80617-.01981v8.37891h2.391v-8.3393a6.62168,6.62168,0,0,1,3.00354.099" style="fill: #fff"/>
            <g id="Group-5">
              <g style="mask: url(#mask-2-2)">
                <path id="Fill-3" d="M15.65746,6.86674c3.35935-1.146,9.52487-1.26479,9.52487-1.26479V5.32536a52.72784,52.72784,0,0,0-11.57982.98821C6.36752,7.69172,4.512,10.18648,4.512,10.18648h6.67977c.6324-1.06674,1.10635-2.17378,4.4657-3.31974" style="fill: #fff"/>
              </g>
            </g>
            <polygon id="Fill-6" points="27.461 10.539 30.162 8.448 32.863 10.539 31.832 7.235 34.533 5.273 31.194 5.273 30.162 2.098 29.13 5.273 25.791 5.273 28.492 7.235 27.461 10.539" style="fill: #fff"/>
            <path id="Fill-8" d="M28.71944,15.75915V12.43941s2.2728-.336,2.2728,1.44235c0,1.64041-.79083,1.87739-2.2728,1.87739ZM19.64531,17.2213l1.24909-2.826,1.04693,2.826Zm11.62352-.86937a2.54543,2.54543,0,0,0,2.25231-2.74676c0-2.23319-2.56851-2.13416-2.56851-2.13416H26.222v9.43062L22.5068,11.471H20.74825l-4.58453,9.78165h1.69982l1.301-2.94413h3.17973l1.09133,2.94413h5.40268v-4.4459l2.64022,4.4459h3.08276a56.94584,56.94584,0,0,1-3.29242-4.90073Z" style="fill: #fff"/>
          </g>
        </g>
      </g>
    </g>
  </g>
</svg>
