<svg id="Layer_1" data-name="Layer 1" xmlns="http://www.w3.org/2000/svg" viewBox="0 0 40 26">
  <title>svs</title>
  <rect x="-0.12332" y="-0.004" width="40.11658" height="25.98623" style="fill: #fff"/>
  <g>
    <path d="M10.76565,10.66657l2.6964-1.3482A7.63851,7.63851,0,0,0,7.66922,6.622c-3.7483,0-5.03724,2.41491-5.03724,3.82238a4.23379,4.23379,0,0,0,4.59278,3.9409c3.70386,0,3.24458,1.33339,3.24458,1.33339s.01481,1.126-2.163,1.126a3.95235,3.95235,0,0,1-3.46681-1.67414l-2.652,1.37783S3.832,19.378,8.35073,19.378s5.42245-2.58908,5.42245-3.80756c0-1.24766-.37146-3.81422-4.87911-4.03848-2.875-.143-2.899-.71727-2.899-1.44323s.75559-.93337,2.23713-.85929A3.68281,3.68281,0,0,1,10.76565,10.66657Z" style="fill: #727272"/>
    <path d="M34.805,10.66657l2.69641-1.3482A7.63853,7.63853,0,0,0,31.70853,6.622c-3.7483,0-5.03724,2.41491-5.03724,3.82238a4.23379,4.23379,0,0,0,4.59278,3.9409c3.70385,0,3.24457,1.33339,3.24457,1.33339s.01482,1.126-2.163,1.126a3.95235,3.95235,0,0,1-3.46681-1.67414l-2.652,1.37783S27.87133,19.378,32.39,19.378s5.42244-2.58908,5.42244-3.80756c0-1.24766-.37145-3.81422-4.8791-4.03848-2.875-.143-2.899-.71727-2.899-1.44323s.75558-.93337,2.23712-.85929A3.68279,3.68279,0,0,1,34.805,10.66657Z" style="fill: #727272"/>
    <polygon points="14.366 7.007 17.951 7.007 20.218 14.726 22.662 7.037 25.996 7.037 21.625 19.008 18.692 19.008 14.366 7.007" style="fill: #727272"/>
  </g>
</svg>
