<svg id="Layer_1" data-name="Layer 1" xmlns="http://www.w3.org/2000/svg" xmlns:xlink="http://www.w3.org/1999/xlink" viewBox="0 0 40 26">
  <defs>
    <linearGradient id="linear-gradient" x1="20" y1="26" x2="20" y2="1.49004" gradientUnits="userSpaceOnUse">
      <stop offset="0" stop-color="#f09442"/>
      <stop offset="1" stop-color="#e96535"/>
    </linearGradient>
    <mask id="mask" x="16.45609" y="10.16766" width="3.81178" height="5.60603" maskUnits="userSpaceOnUse">
      <g id="mask-3">
        <polygon id="path-2" points="20.268 10.168 16.456 10.168 16.456 15.774 20.268 15.774 20.268 10.168" style="fill: #fff"/>
      </g>
    </mask>
  </defs>
  <title>swedbank</title>
  <g id="Page-1">
    <g id="Swedbank-65x41">
      <rect width="40" height="26" style="fill: url(#linear-gradient)"/>
      <g id="Page-1-2" data-name="Page-1">
        <path id="Fill-1" d="M19.426,13.94c0-.29066-.00123-.58071.00062-.87138-.00185.29067-.00062.58072-.00062.87138,0,.295-.00307.58993.00184.88428-.00491-.29435-.00184-.58932-.00184-.88428" style="fill: #fefefe"/>
        <path id="Fill-3" d="M10.82985,11.75035c-.08788-.00308-.11123.03994-.13028.10569q-.2.70608-.40127,1.41092c-.11246.39267-.22614.78473-.34044,1.18109a.12558.12558,0,0,1-.06022-.094c-.11676-.37608-.23045-.75278-.3472-1.12886q-.19911-.64524-.40189-1.28924c-.06514-.20894-.06576-.20832-.2753-.20832-.14319,0-.28637.0043-.42955-.00184a.102.102,0,0,0-.11737.08787q-.28575.93744-.57518,1.87364c-.07681.25011-.15793.499-.23782.74971-.05162-.02274-.04608-.06268-.05469-.094-.11122-.39145-.21815-.78412-.33245-1.17495-.13027-.44368-.23781-.89411-.38775-1.33226-.01721-.05039-.03565-.08726-.10386-.086-.25563.0043-.51188.00184-.77366.00184a.56479.56479,0,0,0,.01167.05715c.161.52725.32078,1.0545.48362,1.58175.23044.74848.464,1.49634.69317,2.24543.02274.07435.06084.09033.13089.08849.18681-.00369.37362-.00615.55982.00184.08726.00369.11921-.03257.14318-.10877q.31155-.99735.62926-1.99347c.06145-.19419.12536-.38837.188-.58256L8.727,13.05c.1948.53032.34167,1.076.52479,1.61063.10631.31278.204.63233.2876.95372.024.09156.06759.1143.15485.11122.17329-.00676.34782-.0086.52049.00062.1014.00491.14073-.03073.17022-.126.2962-.95925.59854-1.91665.89842-2.87468.10078-.32077.19971-.64216.30172-.97215-.26178,0-.50881.00553-.75523-.00307" style="fill: #fefefe"/>
        <path id="Fill-5" d="M24.03169,14.61077a.99644.99644,0,0,1-.82283.397,6.98144,6.98144,0,0,1-.8554-.04793c-.09587-.01229-.13151-.03564-.129-.13949.0043-.14933.00492-.29927.00492-.4486-.00062-.14932-.00185-.29926-.00185-.44859V13.013a.2095.2095,0,0,1,.04855-.15055,1.19546,1.19546,0,0,1,1.38572-.33061,1.04475,1.04475,0,0,1,.58624.6901,1.44022,1.44022,0,0,1-.2163,1.38879m-.64278-2.93736a1.80634,1.80634,0,0,0-1.12763.3896.23264.23264,0,0,1-.01843-.14072c-.00062-.5463-.00246-1.0926.00122-1.6389.00062-.08972-.02335-.11922-.11614-.11492-.18619.00922-.373.00492-.5592.00615-.20955.00123-.1776-.0209-.17821.18189q-.00369,2.569-.00492,5.13793c0,.07312.01414.10323.09464.11552a11.39679,11.39679,0,0,0,1.873.16223,1.7483,1.7483,0,0,0,1.42443-.70976,2.41812,2.41812,0,0,0,.03318-2.66636,1.66049,1.66049,0,0,0-1.422-.72266" style="fill: #fefefe"/>
        <g id="Group-9">
          <g style="mask: url(#mask)">
            <path id="Fill-7" d="M19.31476,14.95508c-.27161.03134-.54384.03871-.81607.051a1.109,1.109,0,0,1-1.10919-.82774,1.39077,1.39077,0,0,1,.255-1.38449,1.14537,1.14537,0,0,1,1.70957.04547.34244.34244,0,0,1,.07251.22921c-.00184.29067-.00061.58071-.00061.87138,0,.295-.00307.58993.00184.88428.00123.086-.02273.12044-.11307.13089m.95065-2.04693h-.00123V11.16478c-.00061-.29067-.00614-.58133-.00061-.872.00246-.10693-.03687-.12843-.13519-.12475-.19911.008-.39882.00983-.59792.00062-.102-.00492-.12229.02826-.12106.12228.00369.5377.00123,1.0754-.00062,1.61371,0,.04424.02581.10508-.02212.13089-.04363.02274-.075-.03257-.10815-.05592a1.75112,1.75112,0,0,0-2.62888.762,2.47437,2.47437,0,0,0-.13212,1.51661,1.81645,1.81645,0,0,0,1.87979,1.51539,12.99684,12.99684,0,0,0,1.74582-.15732c.09771-.01352.12475-.0467.12475-.145-.0043-.85479-.00246-1.709-.00246-2.56312" style="fill: #fefefe"/>
          </g>
        </g>
        <path id="Fill-10" d="M4.61456,12.818a3.8078,3.8078,0,0,0-.7454-.2624,3.05821,3.05821,0,0,1-.95863-.3853.66186.66186,0,0,1-.06145-.96171.98667.98667,0,0,1,.8345-.23044,2.22608,2.22608,0,0,1,1.09813.46211c.07374.05592.11061.04978.15793-.027.0805-.12844.17022-.25134.25564-.37609.1524-.22245.15485-.22614-.075-.3773a2.58809,2.58809,0,0,0-2.31548-.35765,1.49045,1.49045,0,0,0-1.00472,1.3169,1.387,1.387,0,0,0,.81176,1.441,4.39662,4.39662,0,0,0,.86831.30357A2.405,2.405,0,0,1,4.354,13.714a.65955.65955,0,0,1,.03257,1.0459,1.17869,1.17869,0,0,1-.98444.19787,2.32287,2.32287,0,0,1-1.221-.61758c-.04731-.04363-.07189-.03872-.11061.01106a5.96548,5.96548,0,0,1-.37915.46211c-.09832.10385-.0633.1567.02827.23167a2.98968,2.98968,0,0,0,1.95967.71161c.08234,0,.1653.00676.24642-.00062a1.72994,1.72994,0,0,0,1.17863-.53462,1.53848,1.53848,0,0,0,.36932-1.27327A1.3828,1.3828,0,0,0,4.61456,12.818" style="fill: #fefefe"/>
        <path id="Fill-12" d="M38.34431,15.563q-.707-1.06-1.41767-2.117a.12151.12151,0,0,1,.01905-.185c.4701-.49161.93528-.98814,1.42013-1.50187-.32507,0-.62311.00308-.92115-.00246a.2213.2213,0,0,0-.188.08051q-.67473.75584-1.35438,1.50678a.60045.60045,0,0,1-.15978.14379.24934.24934,0,0,1-.00675-.03564q-.00093-1.60294,0-3.20652c0-.06575-.02274-.07865-.08358-.07742-.22061.00491-.44245.00675-.66305.00245-.07928-.00184-.11369.01967-.10324.1014a.83757.83757,0,0,1-.00062.10385q-.00184,2.60952-.00553,5.21842c0,.08112.027.09279.09525.09218.22123-.00307.44245-.0043.66367.00123.07989.00184.10324-.02028.102-.1014-.00553-.29066.00369-.58132-.00553-.872a.32621.32621,0,0,1,.10692-.26178c.11369-.11307.21939-.23413.32815-.35211.11615-.126.11615-.126.21508.02151q.49683.73833.99428,1.47789c.0252.03749.04179.086.10324.08542.306-.00123.61267-.00061.92115-.00061,0-.05838-.03626-.08726-.05961-.12168" style="fill: #fefefe"/>
        <path id="Fill-14" d="M28.41812,15.05678a5.46314,5.46314,0,0,1-1.05019.04978.60617.60617,0,0,1-.61206-.75216.58611.58611,0,0,1,.48731-.43323,2.16908,2.16908,0,0,1,1.202.09156c.05715.01905.05961.05285.05961.09709v.42954H28.506c0,.13458-.00246.26916.00123.40374.00184.06759-.01659.10446-.08911.11368m.88736-2.08749a1.3038,1.3038,0,0,0-.9783-1.186,2.9962,2.9962,0,0,0-2.03956.20279c-.05654.0252-.05285.05469-.03749.1014.06268.18865.126.37608.18251.566.02212.07374.05408.05408.10385.0338a2.49083,2.49083,0,0,1,1.11042-.20648.79978.79978,0,0,1,.84864.82713c.00123.0805-.00184.12291-.10447.08911a3.05415,3.05415,0,0,0-1.10427-.13212,1.63724,1.63724,0,0,0-1.04037.381,1.24024,1.24024,0,0,0,.32692,1.98918,1.62568,1.62568,0,0,0,.6649.13887,14.85522,14.85522,0,0,0,1.98119-.15977c.094-.01352.11921-.04178.11737-.13519-.00615-.38161-.00246-.76384-.00246-1.21366a12.37625,12.37625,0,0,0-.02888-1.296" style="fill: #fefefe"/>
        <path id="Fill-16" d="M14.68234,13.46034c-.28575-.00921-.5715-.00307-.85724-.00307v-.00184c-.29005,0-.5801.00061-.87015,0-.05592,0-.11983.00983-.102-.08358a1.08189,1.08189,0,0,1,.65445-.915.8942.8942,0,0,1,1.12026.3687,1.52816,1.52816,0,0,1,.17943.483c.02335.10877.00123.15609-.12474.15178m-.56474-1.77163a1.74836,1.74836,0,0,0-1.69236.69378,2.15592,2.15592,0,0,0-.42278,1.53136,1.85758,1.85758,0,0,0,.99735,1.6303,2.308,2.308,0,0,0,2.31855-.13581c.05284-.03011.05837-.06145.03871-.11553-.06514-.17882-.12782-.35887-.18558-.54015-.02274-.07067-.04609-.07558-.1057-.03626a1.98813,1.98813,0,0,1-.9402.306,1.09142,1.09142,0,0,1-1.25483-.85847c-.02458-.1014-.01475-.137.10139-.13519.42955.00614.85909.00245,1.28863.00245v.00062c.42955,0,.85909.00061,1.28863-.00184.03626,0,.08542.032.09771-.05654a2.15777,2.15777,0,0,0-.05961-.87138,1.72223,1.72223,0,0,0-1.46991-1.41337" style="fill: #fefefe"/>
        <path id="Fill-18" d="M33.80345,13.09588a1.3258,1.3258,0,0,0-1.50309-1.42567,16.24685,16.24685,0,0,0-1.78516.15547c-.09463.01414-.12044.04241-.11983.1352.0043.59853.00246,1.19706.00246,1.7956h-.00246c0,.60713.00185,1.21427-.00184,1.82141-.00061.08541.02212.11122.10754.10938.204-.00553.408-.00983.61144.00123.1229.00676.14809-.0338.14748-.15056-.00553-.97154-.00307-1.94308-.00369-2.914,0-.07128-.01044-.13457.09525-.14441a6.43291,6.43291,0,0,1,.79088-.04424.74.74,0,0,1,.71406.48485,1.36651,1.36651,0,0,1,.09525.53339c.00061.7073.00184,1.414-.00185,2.12068-.00061.09033.024.11737.11492.11491.21631-.00614.43323-.00368.65015,0,.07312.00123.09525-.02089.09463-.09525-.00307-.83266.00615-1.66532-.00614-2.498" style="fill: #fefefe"/>
        <path id="Fill-20" d="M22.22767,13.013c-.00062.30357,0,.60652,0,.91009,0,.14933.00123.29927.00123.44859,0-.14932-.00123-.29926-.00123-.44859,0-.30357-.00062-.60652,0-.91009" style="fill: #fefefe"/>
      </g>
    </g>
  </g>
</svg>
