<svg id="Layer_1" data-name="Layer 1" xmlns="http://www.w3.org/2000/svg" xmlns:xlink="http://www.w3.org/1999/xlink" viewBox="0 0 40 26">
  <defs>
    <linearGradient id="linear-gradient" x1="-1293.16808" y1="-481.50655" x2="-1293.16808" y2="-482.11151" gradientTransform="matrix(3.84279, 0, 0, -8.56913, 4972.50392, -4114.43572)" gradientUnits="userSpaceOnUse">
      <stop offset="0" stop-color="#9ed0b7"/>
      <stop offset="0.42612" stop-color="#a0d7f6"/>
      <stop offset="1" stop-color="#2f4e98"/>
    </linearGradient>
    <linearGradient id="linear-gradient-2" x1="-1538.07694" y1="-466.86448" x2="-1538.07694" y2="-467.50017" gradientTransform="matrix(8.33865, 0, 0, -10.21501, 12830.5237, -4759.90491)" gradientUnits="userSpaceOnUse">
      <stop offset="0" stop-color="#f5da09"/>
      <stop offset="0.27443" stop-color="#87b958"/>
      <stop offset="0.62472" stop-color="#a0d7f6"/>
      <stop offset="1" stop-color="#517dbc"/>
    </linearGradient>
    <linearGradient id="linear-gradient-3" x1="-1289.02591" y1="-482.57538" x2="-1289.02591" y2="-483.09581" gradientTransform="matrix(3.80077, 0, 0, -8.47538, 4908.23852, -4079.91431)" gradientUnits="userSpaceOnUse">
      <stop offset="0" stop-color="#ffd701"/>
      <stop offset="1" stop-color="#e52038"/>
    </linearGradient>
    <linearGradient id="linear-gradient-4" x1="-1532.95159" y1="-466.27728" x2="-1532.95159" y2="-466.91297" gradientTransform="matrix(8.13359, 0, 0, -10.27749, 12475.51508, -4780.89136)" gradientUnits="userSpaceOnUse">
      <stop offset="0" stop-color="#fce245"/>
      <stop offset="0.27726" stop-color="#f4ab58"/>
      <stop offset="0.49695" stop-color="#ea736b"/>
      <stop offset="0.70227" stop-color="#d45596"/>
      <stop offset="1" stop-color="#3e58a0"/>
    </linearGradient>
  </defs>
  <title>swish</title>
  <g id="Page-1">
    <g id="swish-65x41-">
      <rect width="40" height="26" style="fill: #fff"/>
      <g id="Group-2">
        <g id="Group">
          <path id="Fill-18" d="M2.394,11.60777c.00235-.07395.00633-.14488.01083-.21559a4.50553,4.50553,0,0,0-.4974,2.0692,4.41964,4.41964,0,0,0,1.53517,3.37811l.90766-1.18727-.04492-.03972A4.30431,4.30431,0,0,1,2.394,11.60777" style="fill: url(#linear-gradient)"/>
          <path id="Fill-68" d="M3.19058,12.02615l.00075-.00324q.00914-.03994.01912-.07975l.00169-.00654q.00967-.0382.02011-.07617l.0028-.00984q.01012-.03634.02095-.07249l.00407-.01318.02165-.06883.0054-.01607.02231-.06556.00687-.019.02276-.0621.0086-.022.02309-.05868.01007-.02413.02358-.056.01178-.02641.02388-.05318.01348-.02833.02418-.05057.01552-.03071.02412-.04749.01755-.03271.02418-.04489.01959-.03452.02409-.04219.02228-.03709.02349-.03895.02442-.03845.02336-.03674.02753-.04105.02228-.03318.034-.04817L3.798,10.6828q.02645-.03644.0539-.07239A3.31262,3.31262,0,0,1,7.69211,9.48733,3.93408,3.93408,0,0,0,6.03,9.11893c-.0438,0-.0874.00095-.13087.00238l-.03733.0015q-.05023.00213-.10018.00552l-.03316.00222q-.064.00486-.1275.01172l-.02391.00289q-.05255.006-.10468.01346l-.03771.00559q-.05192.0079-.10338.01714l-.0237.00413q-.0619.01158-.12313.02508L5.15193,9.218q-.04707.01075-.09373.02263l-.036.00924c-.03979.01054-.07947.0215-.11881.03325l-.00459.00139c-.039.01172-.07775.0242-.11628.03705l-.0356.0122q-.04464.01537-.08879.03181l-.03193.01184q-.05734.02191-.114.04544l-.02415.01038q-.04568.01944-.09081.04l-.03582.01648q-.04467.02086-.08878.0428l-.02409.01188q-.05423.02737-.10745.05645l-.03136.01743q-.03984.02209-.07914.04512l-.034.02q-.04962.02963-.09838.06061l-.013.00839q-.04785.03076-.09476.06292l-.03328.02309q-.03665.02557-.07272.05191l-.03021.0221q-.04812.03576-.09524.07293l-.024.0194q-.03663.02938-.07263.05959l-.03232.0274q-.03568.03058-.07067.062l-.02315.02061q-.04424.04025-.08731.08188l-.02813.02756q-.03125.03068-.06187.06195l-.0296.03044q-.03831.04-.07564.0809l-.01683.01861q-.0364.04048-.07175.08195l-.02774.03292q-.02812.03354-.05556.06776l-.025.03115q-.03718.04714-.07315.09537l-.01989.02734q-.02732.03729-.05394.07525l-.02526.03651q-.0265.03867-.05213.078l-.018.02734q-.03279.051-.06416.10306l-.02056.03467q-.0227.03829-.04462.07712l-.02116.03769q-.02767.0501-.05418.101l-.00494.00933c-.00447.07074-.00848.14164-.0108.21562a4.30435,4.30435,0,0,0,1.91134,4.00473,3.71469,3.71469,0,0,1-1.11475-3.58636" style="fill: url(#linear-gradient-2)"/>
          <path id="Fill-70" d="M9.69683,15.30088a1.41108,1.41108,0,0,1-.01716.18174,4.505,4.505,0,0,0,.4737-2.02126A4.4242,4.4242,0,0,0,8.634,10.0949L7.73725,11.269a4.26436,4.26436,0,0,1,1.95958,4.03188" style="fill: url(#linear-gradient-3)"/>
          <path id="Fill-72" d="M8.22178,16.3279a3.31553,3.31553,0,0,1-3.6927,1.17632A3.92842,3.92842,0,0,0,6.03,17.80229a4.1015,4.1015,0,0,0,3.64965-2.31965,1.40981,1.40981,0,0,0,.01715-.18177A4.26439,4.26439,0,0,0,7.73726,11.269l-.01317.01724a3.73175,3.73175,0,0,1,.49769,5.04167" style="fill: url(#linear-gradient-4)"/>
        </g>
        <g id="Page-1-2" data-name="Page-1">
          <path id="Fill-1" d="M12.56673,15.27825l.11664-.17777c.14748-.20841.31373-.22816.55774-.09944a2.21134,2.21134,0,0,0,1.11281.34668c.43037,0,.69315-.19888.69315-.51627,0-.82345-2.47163-.51559-2.47163-2.25239,0-.99167.86075-1.51816,1.90585-1.51816a2.74081,2.74081,0,0,1,1.38631.36711.38178.38178,0,0,1,.14748.55577l-.09787.17913c-.11732.23839-.30167.26767-.54635.1587a2.20939,2.20939,0,0,0-.94722-.24792c-.43105,0-.67439.17845-.67439.49516,0,.83434,2.47029.50605,2.47029,2.234,0,.89224-.74343,1.557-1.89378,1.557a2.88208,2.88208,0,0,1-1.66317-.51627.36011.36011,0,0,1-.09586-.56531" style="fill: #4d4d4f"/>
          <path id="Fill-3" d="M16.6473,11.6461a.3294.3294,0,0,1,.34189-.46519h.46858a.40471.40471,0,0,1,.43976.36575l.80109,2.95732c.05765.26835.0972.53738.0972.53738h.02011s.03955-.269.10726-.53738l.84064-2.95732a.41386.41386,0,0,1,.44981-.3569h.37071a.4213.4213,0,0,1,.44848.3569l.82991,2.95732a3.66993,3.66993,0,0,1,.10927.53738h.0181A5.30913,5.30913,0,0,1,22.098,14.504l.79171-2.95732a.41906.41906,0,0,1,.4478-.36575H23.788c.29161,0,.41831.1873.34055.46519l-1.27839,4.248a.43479.43479,0,0,1-.45785.348H21.736a.43083.43083,0,0,1-.4592-.35894l-.75148-2.52891a4.40827,4.40827,0,0,1-.11731-.54556h-.01944s-.04827.2772-.126.54556l-.75215,2.52891a.42321.42321,0,0,1-.45116.35894h-.67371a.42272.42272,0,0,1-.44781-.348Z" style="fill: #4d4d4f"/>
          <path id="Fill-5" d="M24.85893,11.59815a.367.367,0,0,1,.40088-.41683h.431a.3656.3656,0,0,1,.39887.41683v4.2262c0,.27857-.13608.41752-.39887.41752h-.431a.36358.36358,0,0,1-.40088-.41752Z" style="fill: #4d4d4f"/>
          <path id="Fill-7" d="M26.91071,15.27825l.11866-.17777c.1448-.20841.31306-.22816.5564-.09944a2.21134,2.21134,0,0,0,1.11281.34668c.4297,0,.69315-.19888.69315-.51627,0-.82345-2.47029-.51559-2.47029-2.25239,0-.99167.85941-1.51816,1.90518-1.51816a2.72706,2.72706,0,0,1,1.38564.36711.379.379,0,0,1,.14547.55577l-.09653.17913c-.116.23839-.30234.26767-.547.1587a2.19824,2.19824,0,0,0-.94722-.24792c-.42971,0-.67372.17845-.67372.49516,0,.83434,2.47029.50605,2.47029,2.234,0,.89224-.74142,1.557-1.89445,1.557a2.866,2.866,0,0,1-1.65982-.51627.3594.3594,0,0,1-.09855-.56531" style="fill: #4d4d4f"/>
          <path id="Fill-9" d="M31.29745,9.61146a.37321.37321,0,0,1,.41093-.41547h.41831a.36863.36863,0,0,1,.41093.41547v2.04533a2.8253,2.8253,0,0,1-.03017.42568h.02079a1.96028,1.96028,0,0,1,1.72819-1.02164c1.10409,0,1.73826.58506,1.73826,1.92478v2.83881a.36994.36994,0,0,1-.40959.41751h-.42032a.3655.3655,0,0,1-.41026-.41751v-2.58c0-.61435-.15553-1.03323-.781-1.03323a1.50337,1.50337,0,0,0-1.43592,1.67822v1.935a.3657.3657,0,0,1-.41093.41751h-.41831a.37005.37005,0,0,1-.41093-.41751Z" style="fill: #4d4d4f"/>
          <path id="Fill-11" d="M37.29567,9.34753a1.09835,1.09835,0,1,1-1.04912,1.09725,1.07379,1.07379,0,0,1,1.04912-1.09725Zm0,1.99017a.89459.89459,0,1,0-.83461-.89292.85731.85731,0,0,0,.83461.89292ZM36.935,9.97278a.0869.0869,0,0,1,.09787-.09876h.33385a.32628.32628,0,0,1,.34925.34531.29918.29918,0,0,1-.20446.30037v.00613a.30725.30725,0,0,1,.03888.06266l.15419.30445c.03553.06879.01475.11306-.05363.11306h-.0362a.11243.11243,0,0,1-.11463-.07083l-.17161-.36711h-.18369v.34259c0,.06334-.02949.09535-.09117.09535h-.02681c-.063,0-.09184-.032-.09184-.09535Zm.38747.43862a.17132.17132,0,0,0,.18033-.19207.16532.16532,0,0,0-.17765-.18321h-.18033v.37528Z" style="fill: #4d4d4f"/>
        </g>
      </g>
    </g>
  </g>
</svg>
