<svg id="Layer_1" data-name="Layer 1" xmlns="http://www.w3.org/2000/svg" viewBox="0 0 40 26">
  <title>trustly</title>
  <rect y="-0.00032" width="40" height="26" style="fill: #fff"/>
  <g>
    <rect x="2.01724" y="7.42978" width="35.96555" height="11.14044" style="fill: none"/>
    <path d="M8.44506,10.94519H4.92334v-.83748h.00233l-.00042-.023a1.75991,1.75991,0,0,1,3.51981,0l-.00049.023h.00049Zm-.58042,1.68766c0,.053,0,.0981-.10583.0981H7.20794c-.06059,0-.0869.01138-.0869.072v1.8983c0,.09828-.05686.12459-.1924.12459H6.3849c-.15089,0-.19264-.015-.19264-.12459v-1.8983c0-.06059-.02631-.072-.08649-.072H5.596c-.10557,0-.10557-.04507-.10557-.0981V12.165c0-.09064.06806-.10193.17372-.10193H7.69092c.10574,0,.17372.01129.17372.10193v.46788ZM10.628,10.94519H9.41617V10.289c.00233-.04158.00332-.083.00332-.12484a2.73438,2.73438,0,0,0-5.46875,0l.00108.02532H3.95074v.75572H2.74192c-.40347,0-.79847.19688-.713.66018l.896,4.01375a.70329.70329,0,0,0,.73124.57453H9.714a.7028.7028,0,0,0,.73107-.57453l.89632-4.01375c.08541-.46331-.30959-.66019-.71339-.66019" style="fill: #63c331"/>
    <g>
      <path d="M5.93064,17.48756a1.08237,1.08237,0,1,0-.00008,0m3.67411,0a1.08291,1.08291,0,1,1-1.08233-1.0825,1.08254,1.08254,0,0,1,1.08233,1.0825" style="fill: #63c331"/>
      <path d="M16.67757,12.21652h-1.0468c-.11454,0-.16476.02158-.16476.13637V15.959c0,.18675-.10757.23655-.36578.23655H14.06778c-.28668,0-.36562-.02855-.36562-.23655V12.35289c0-.11487-.05-.13637-.16484-.13637h-.96795c-.20053,0-.20053-.08591-.20053-.18642v-.88894c0-.172.1289-.19364.3296-.19364h3.85015c.20053,0,.32976.02166.32976.19364v.88894c0,.10051,0,.18642-.20086.18642m3.11178.116c.05727,0,.16484,0,.16484.12184v.83059a.15027.15027,0,0,1-.16484.16476,2.27454,2.27454,0,0,0-.67255.07362.53491.53491,0,0,0-.41.57171v1.71355c0,.18609.00714.387-.25813.387h-.96081c-.27249,0-.3511-.1504-.3511-.33682v-2.6786c0-.44845.18559-.84179,1.08291-.84179l1.56971-.00589Zm1.677,3.87041c-.49485,0-1.03876-.22958-1.03876-1.14732V12.72573c0-.20086.07885-.38737.27971-.38737h1.00357a.32966.32966,0,0,1,.35134.3013v1.86386c0,.17206.05727.35873.27971.35873.22933,0,.30129-.17928.30129-.3442v-1.7924c0-.1865-.00722-.38728.25789-.38728h.96065c.27257,0,.35134.15048.35134.33706v2.36884c0,1.00979-.61918,1.15844-.89143,1.15844Zm4.99092.09321a4.98627,4.98627,0,0,1-1.5986-.22958c-.07179-.03569-.13637-1.05387.07885-1.00365a3.518,3.518,0,0,0,1.01792.12907c.31549,0,.49477-.04292.49477-.19372,0-.10027-.172-.17206-.3872-.26511-.466-.201-1.19006-.48032-1.19006-1.32635,0-.8676.98206-1.21156,1.92852-1.21156a2.81464,2.81464,0,0,1,1.08258.12185c.13612.05013-.00731.95351-.20053.94637-.12932-.00722-.56656-.086-.803-.086-.24386,0-.35151.04283-.35151.16476,0,.06449.13645.14334.35151.24385.48754.22228,1.26908.5879,1.26908,1.448,0,1.11852-1.00406,1.262-1.6923,1.262m4.47415-2.88943h-.43766v1.55585c0,.13612.10773.19356.26543.19356a.54592.54592,0,0,0,.10757-.00714c.10749-.01436.215.97492.14318,1.01078a2.88267,2.88267,0,0,1-.88894.13637,1.0568,1.0568,0,0,1-1.21156-1.03967c-.0073-.43027,0-1.87109,0-1.87109h-.23672c-.17919,0-.215-.11478-.215-.29415v-.466c0-.20061.06433-.27963.26535-.27963h.26511v-.50174c0-.17928.17945-.27265.35134-.30112l.82453-.13613c.27971-.04316.27971.05727.27971.258v.6811h.45153c.17936,0,.22941.17231.22941.35134v.4087c0,.2007,0,.301-.19339.301" style="fill: #110f0d"/>
    </g>
    <rect x="2.01724" y="7.42978" width="35.96555" height="11.14044" style="fill: none"/>
    <path d="M33.01046,16.19557H31.9781c-.25108,0-.27971-.02855-.27971-.25091V11.06928a.1958.1958,0,0,1,.21514-.20053h1.02522c.30826,0,.32968.09312.32968.25082v4.74632c0,.18642.0073.32977-.258.32977m2.91814,1.14706c-.05752.13637-.19373.28677-.33731.28677h-.80984c-.258,0-.29383-.08615-.22244-.25091l.53776-1.27606-1.41948-3.51317c-.06441-.16475,0-.251.22236-.251h1.1684a.41646.41646,0,0,1,.33715.28677l.5161,1.46272.58789-1.46272a.42615.42615,0,0,1,.3369-.28677h.88172c.25838,0,.2944.08624.22244.251L35.9286,17.34272Z" style="fill: #110f0d"/>
  </g>
</svg>
