<svg id="Layer_1" data-name="Layer 1" xmlns="http://www.w3.org/2000/svg" xmlns:xlink="http://www.w3.org/1999/xlink" viewBox="0 0 40 26">
  <defs>
    <mask id="mask" x="1.69522" y="9.55992" width="7.02389" height="6.96883" maskUnits="userSpaceOnUse">
      <g id="mask-2">
        <polygon id="path-1" points="8.719 9.56 1.695 9.56 1.695 16.529 8.719 16.529 8.719 9.56" style="fill: #fff"/>
      </g>
    </mask>
  </defs>
  <title>unicredit</title>
  <g id="Page-1">
    <g id="Uni-Credit-65x41">
      <rect width="40" height="26" style="fill: #fff"/>
      <g id="Page-1-2" data-name="Page-1">
        <g id="Group-10">
          <g id="Group-3">
            <g style="mask: url(#mask)">
              <path id="Fill-1" d="M8.71912,13.04434a3.51206,3.51206,0,1,1-3.512-3.48442,3.49834,3.49834,0,0,1,3.512,3.48442" style="fill: #ed1c24"/>
            </g>
          </g>
          <path id="Fill-4" d="M4.90948,11.20015c.07314.05552.44065.26891.55067.33725a.36832.36832,0,0,1,.03745.02646l.01838-.027c.03873-.064.05405-.11527-.05583-.18354s-.47753-.28172-.55067-.33718c-.0044-.00331-.11669-.092-.12037-.09642a.86681.86681,0,0,0,.12037.28039" style="fill: #828282"/>
          <path id="Fill-6" d="M8.37424,10.74644a.60061.60061,0,0,1,.04454.25048c-.04206.16123-.29246.40551-.68821.75973,0,0-.65387.6018-1.13141,1.01583s-2.00461,1.69006-2.30148,1.92069S2.85,15.77326,2.77528,15.82893a1.1332,1.1332,0,0,1-.422.07572,1.47116,1.47116,0,0,0,.16663.17123c.11732.11268.32268-.05046.39737-.10613s1.22554-.90527,1.52241-1.13569,1.824-1.50672,2.30148-1.92068,1.13134-1.01584,1.13134-1.01584c.39574-.35414.61188-.5469.65394-.70814a.415.415,0,0,0-.15222-.443" style="fill: #828282"/>
          <path id="Fill-8" d="M4.98454,12.07678s.40575-.52073.44448-.58477.05412-.11521-.05583-.18354-.4776-.28166-.55067-.33712-.06029-.26032.15485-.30311a18.35581,18.35581,0,0,1,2.80909-.11943c.72716.07678.62806.28172.63232.44816s-.2924.40545-.68821.75966c0,0-.65388.6018-1.13141,1.01584s-2.00462,1.69-2.30148,1.92068S2.85,15.77324,2.77527,15.82891s-.28359.22226-.39737.10613c-.11378-.11633,0-.246.05774-.32529s2.37688-3.3281,2.5489-3.533" style="fill: #fefefe"/>
        </g>
        <g id="Group-29">
          <path id="Fill-11" d="M13.85645,10.191v4.35477a1.80635,1.80635,0,0,1-1.96681,1.68964,1.80642,1.80642,0,0,1-1.96688-1.68964V11.21427A1.023,1.023,0,0,1,10.94614,10.191h.072v4.347a.87221.87221,0,0,0,.91145.833.85236.85236,0,0,0,.89548-.833V11.15867a.97545.97545,0,0,1,.97535-.96769Z" style="fill: #221f20"/>
          <path id="Fill-13" d="M16.01463,11.72984c1.49509,0,1.73492.83285,1.73492,1.33268V16.172h-.04788a1.03023,1.03023,0,0,1-1.02338-1.00732V13.07849c0-.29369-.11988-.64269-.7036-.64269a1.62315,1.62315,0,0,0-.60763.09522v3.641h-1.0714v-4.117a4.93743,4.93743,0,0,1,1.719-.32522" style="fill: #221f20"/>
          <path id="Fill-15" d="M19.28044,11.72984v3.44268a1.00441,1.00441,0,0,1-1.00735.99951h-.048V11.72984ZM18.75275,10.191a.55378.55378,0,0,1,.57557.5315.54649.54649,0,0,1-.57557.51559.554.554,0,0,1-.58365-.51559.56108.56108,0,0,1,.58365-.5315Z" style="fill: #221f20"/>
          <path id="Fill-17" d="M22.32446,10.10372a2.61764,2.61764,0,0,1,1.36727.34893v1.04709a1.334,1.334,0,0,0-1.13524-.52347,1.97158,1.97158,0,0,0-1.759,2.16553,2.04234,2.04234,0,0,0,1.759,2.17355,1.35858,1.35858,0,0,0,1.13524-.468v1.031a2.35786,2.35786,0,0,1-1.37507.357,2.82218,2.82218,0,0,1-2.63842-3.08565,2.80107,2.80107,0,0,1,2.64622-3.046" style="fill: #221f20"/>
          <path id="Fill-19" d="M25.5848,11.72984a4.074,4.074,0,0,1,.59961.04757v.84876a1.112,1.112,0,0,0-1.07133-.06348v2.60983a1.00946,1.00946,0,0,1-1.00734.99951h-.0559V12.071a3.25079,3.25079,0,0,1,1.535-.34112" style="fill: #221f20"/>
          <path id="Fill-21" d="M28.96667,13.39575c-.03185-.88064-.58358-.97572-.87959-.97572h-.03994c-.59947.01576-.8793.43627-.8793,1.22148Zm.9274.60272-2.66253.36491c.08824.72186.456,1.10282,1.1275,1.10282a2.176,2.176,0,0,0,1.39111-.42846v.88035a3.25612,3.25612,0,0,1-1.49488.31727,2.01313,2.01313,0,0,1-2.07889-2.26863c0-1.3564.71963-2.2369,1.90276-2.2369,1.16723,0,1.81493.76951,1.81493,2.10205Z" style="fill: #221f20"/>
          <path id="Fill-23" d="M32.68576,12.58647a1.334,1.334,0,0,0-.36772-.04757c-.8796,0-1.06346.84073-1.06346,1.53895,0,.97593.32793,1.4595.99146,1.4595a3.49926,3.49926,0,0,0,.43972-.03955ZM33.73319,10.191v5.92554a11.11169,11.11169,0,0,1-1.44728.11887h-.07186a1.86936,1.86936,0,0,1-2.01477-2.10205c0-1.35632.74347-2.22887,1.89489-2.22887a2.52608,2.52608,0,0,1,.58358.06334v-.76937A1.006,1.006,0,0,1,33.68509,10.191Z" style="fill: #221f20"/>
          <path id="Fill-25" d="M35.28777,11.72984v3.44268a1.00453,1.00453,0,0,1-1.00748.99951h-.048V11.72984ZM34.76,10.191a.55384.55384,0,0,1,.57578.5315A.54656.54656,0,0,1,34.76,11.238a.55385.55385,0,0,1-.58344-.51559A.561.561,0,0,1,34.76,10.191Z" style="fill: #221f20"/>
          <path id="Fill-27" d="M37.15715,10.191v1.53888h.68743v.84876h-.68743v2.35611c0,.28538.09591.37265.4076.37265a.88059.88059,0,0,0,.27983-.05538v.88042a1.5251,1.5251,0,0,1-.53555.103c-.78362,0-1.21533-.38061-1.21533-1.07066V12.57862H35.63v-.84876h.4637v-.53938a1.00257,1.00257,0,0,1,.99947-.9995Z" style="fill: #221f20"/>
        </g>
      </g>
    </g>
  </g>
</svg>
