<svg id="Layer_1" data-name="Layer 1" xmlns="http://www.w3.org/2000/svg" viewBox="0 0 40 26">
  <title>union_pay</title>
  <g id="Page-1">
    <g id="union-pay-65x41-">
      <g id="UnionPay-dark">
        <rect id="Rectangle" x="-3.29617" y="-0.78858" width="45.29617" height="26.99949" rx="2.81533" ry="2.81533" style="fill: #fff"/>
        <path id="path22" d="M27.26807-.78858A4.064,4.064,0,0,0,23.67515,2.013L18.70958,25.42561a2.14153,2.14153,0,0,0,1.995,2.80585H39.05926a2.813,2.813,0,0,0,2.8091-2.822L41.85553,1.14609h0a2.25,2.25,0,0,0-1.8571-1.93467h0" style="fill: #01798a"/>
        <rect id="Rectangle-19" x="-4" y="-0.78858" width="20.37769" height="29.02004" rx="2.81533" ry="2.81533" style="fill: #dc1f2b"/>
        <path id="path20" d="M24.37091,2.01562A3.97523,3.97523,0,0,1,27.84929-.78416L23.77731-.787,14.1767-.78858a3.971,3.971,0,0,0-3.505,2.8042L5.827,25.42589a2.13273,2.13273,0,0,0,1.945,2.80557H21.47346a2.13329,2.13329,0,0,1-1.94582-2.80557Z" style="fill: #1a4580"/>
        <path id="path24" d="M16.62825,15.04h.17791a.3236.3236,0,0,0,.325-.165l.46231-.69836h1.238l-.25817.45933h1.48441l-.1883.70378H18.10315a.82494.82494,0,0,1-.755.43693h-.92l.20009-.73668ZM16.425,16.04863h3.25214l-.20731.7645H18.16193l-.19957.73792h1.2727l-.2073.76442h-1.2727l-.29565,1.09041c-.07321.18226.02305.26422.2872.24562h1.03724l-.19218.71037h-1.9914q-.56623,0-.38857-.65486l.378-1.39154h-.81353l.20665-.76442h.81365l.19939-.73792h-.77766l.20678-.7645Zm5.19076-1.87724-.05122.44753a2.3737,2.3737,0,0,1,1.17063-.46489H24.794l-.78734,2.87676q-.09793.49332-.83978.49242H20.83333l-.5466,2.02c-.0315.10825.013.16376.13075.16376h.45914l-.16877.627H19.54057q-.67207,0-.56051-.40917l1.54459-5.75348h1.0911Zm1.74344.8132h-1.8376l-.2198.77623a1.518,1.518,0,0,1,.81744-.231c.51-.00806,1.09214,0,1.09214,0l.14782-.54524Zm-.66573,1.8007c.13585.0186.21188-.03566.221-.16373l.11245-.40919H21.18653l-.15434.57292Zm-1.24138.92944H22.5129l-.01971.46334h.28245c.14272,0,.21347-.04612.21347-.13716l.08359-.29975h.88166l-.11773.43691a.76131.76131,0,0,1-.79262.57314h-.56508l-.00264.792c-.01038.12685.10331.19151.33736.19151h.53112l-.17141.62711H21.89943c-.35707.01714-.53217-.15459-.52848-.51887l.08113-2.12827Z" style="fill: #fff"/>
        <path id="path28" d="M8.59737,10.33872A2.62146,2.62146,0,0,1,7.60258,11.985a3.23605,3.23605,0,0,1-1.98349.57293,2.16039,2.16039,0,0,1-1.67686-.58749,1.53836,1.53836,0,0,1-.37017-1.06016,2.85869,2.85869,0,0,1,.06284-.57159l.86257-4.19821H5.80023L4.9494,10.29119a1.349,1.349,0,0,0-.03527.3182.81628.81628,0,0,0,.15687.52274.887.887,0,0,0,.75341.30233,1.56313,1.56313,0,0,0,.98751-.29837,1.37328,1.37328,0,0,0,.499-.8449l.85351-4.15068H9.46058l-.86321,4.19821" style="fill: #fff"/>
        <path id="path34" d="M14.06854,8.68712h1.02029l-.79921,3.74678H13.27134l.7972-3.74678m.32117-1.365h1.02937l-.19228.90945H14.1975l.19221-.90945" style="fill: #fff"/>
        <path id="path18" d="M15.992,12.14872a1.38949,1.38949,0,0,1-.4029-1.04557,2.45462,2.45462,0,0,1,.01443-.25487c.00984-.09506.02228-.18748.03988-.27324A2.5474,2.5474,0,0,1,16.419,9.12675a2.06608,2.06608,0,0,1,1.43426-.53733,1.49633,1.49633,0,0,1,1.08827.38816,1.40909,1.40909,0,0,1,.39947,1.05758,2.58847,2.58847,0,0,1-.01566.26c-.01179.09638-.026.1888-.04259.27991a2.47683,2.47683,0,0,1-.7722,1.42721,2.07932,2.07932,0,0,1-1.42968.52794,1.508,1.508,0,0,1-1.0889-.38147m1.94435-.742a1.836,1.836,0,0,0,.38716-.89244c.01179-.062.02217-.12675.02868-.19142a1.73613,1.73613,0,0,0,.00915-.17694.7637.7637,0,0,0-.17527-.53733.63525.63525,0,0,0-.49557-.19137.88864.88864,0,0,0-.69319.30093,1.89461,1.89461,0,0,0-.39191.90834c-.01109.062-.02024.12413-.02869.18484a1.35763,1.35763,0,0,0-.00721.17291.74958.74958,0,0,0,.17528.532.643.643,0,0,0,.49767.18748.89324.89324,0,0,0,.6939-.29705M-4-.78858m0,0" style="fill: #fff"/>
        <path id="path26" d="M25.96073,15.07168l.246-.87393H27.4506l-.05368.32071a3.107,3.107,0,0,1,1.09338-.32071h1.53808l-.24444.87393h-.242l-1.16025,4.12174h.242l-.23018.81854h-.242l-.10066.35512h-1.2046l.10049-.35512H24.5703l.23159-.81854H25.04l1.1613-4.12174Zm1.342,0-.31659,1.1155a5.13133,5.13133,0,0,1,1.00855-.26921c.10313-.38954.23793-.84629.23793-.84629Zm-.46318,1.6384-.31765,1.16839a3.436,3.436,0,0,1,1.01225-.32348c.119-.45156.2381-.84491.2381-.84491Zm.23282,2.48334.2381-.84756H26.382l-.23934.84756Zm3.00841-5.04978h1.1694l.04962.43553c-.00774.11087.05755.16382.19622.16382h.20661l-.20907.73793h-.85949c-.32821.01714-.497-.10949-.51264-.38288l-.04065-.9544Zm-.34264,1.5829H33.526l-.22226.79217h-1.206l-.20677.73653h1.20477l-.22368.79088H31.5302l-.30357.4635h.65677l.1517.928c.01812.09242.09925.13731.23792.13731h.204l-.21435.76428h-.722c-.37414.0186-.56754-.10816-.58338-.3814l-.17405-.84756-.59763.90168a.64563.64563,0,0,1-.65131.35512h-1.1027l.21452-.7645h.344a.45915.45915,0,0,0,.36481-.19137l.93535-1.36509h-1.206l.2235-.79088H30.6158l.208-.73653h-1.3093l.22367-.79217Z" style="fill: #fff"/>
        <path id="path30" d="M9.79741,8.6858h.92012l-.10524.54127.13206-.15445a1.426,1.426,0,0,1,1.08827-.48188.99214.99214,0,0,1,.84169.34193,1.14726,1.14726,0,0,1,.138.94928l-.50692,2.55326h-.94564l.45777-2.31429a.74412.74412,0,0,0-.03863-.53213.44422.44422,0,0,0-.40738-.17153.87946.87946,0,0,0-.61476.22836,1.13638,1.13638,0,0,0-.33223.63633l-.42182,2.15326h-.9476L9.79741,8.6858" style="fill: #fff"/>
        <path id="path32" d="M20.34938,8.6858h.92091l-.10453.54127.13058-.15445a1.42867,1.42867,0,0,1,1.08845-.48188.98857.98857,0,0,1,.84083.34193,1.14331,1.14331,0,0,1,.13745.94928l-.50489,2.55326h-.947l.4579-2.31429a.74965.74965,0,0,0-.038-.53213.447.447,0,0,0-.40669-.17153.8861.8861,0,0,0-.61612.22836,1.12228,1.12228,0,0,0-.33084.63633l-.42377,2.15326h-.94643l.74212-3.74941" style="fill: #fff"/>
        <path id="path38" d="M24.90132,6.36219h2.67352a1.79411,1.79411,0,0,1,1.18488.34851A1.254,1.254,0,0,1,29.168,7.71679v.01314c0,.08313-.00546.17692-.0132.27852-.0132.10036-.03027.202-.05227.30765A2.37759,2.37759,0,0,1,28.289,9.7116a2.28646,2.28646,0,0,1-1.50411.52809H25.35113l-.4433,2.19552H23.66646l1.23486-6.073m.6682,2.82138h1.18911a1.14494,1.14494,0,0,0,.73508-.21655,1.13519,1.13519,0,0,0,.36094-.668c.01038-.05559.01689-.10569.02481-.15187.004-.04352.00915-.08721.00915-.12931a.51536.51536,0,0,0-.22754-.46876,1.34661,1.34661,0,0,0-.71942-.14655H25.93187l-.36235,1.781" style="fill: #fff"/>
        <path id="path40" d="M34.7241,13.16008a5.91472,5.91472,0,0,1-.986,1.56167,1.99,1.99,0,0,1-1.70438.71163l.09028-.64287c.88272-.27461,1.36016-1.51177,1.63223-2.05958l-.32434-4.03458.68281-.00923h.57282l.06159,2.53086,1.07367-2.53086h1.087l-2.18569,4.473" style="fill: #fff"/>
        <path id="path42" d="M31.68454,8.99207l-.43186.29975a1.3472,1.3472,0,0,0-1.65828-.20468c-1.08316.50693-1.98824,4.395.99395,3.11439l.17.20329,1.17327.03039.77044-3.53293-1.01752.08979m-.66715,1.93149c-.18847.56113-.60942.93207-.939.82647-.32962-.103-.44735-.64433-.25641-1.2067.1883-.56244.61206-.93207.939-.82645.32961.103.44858.64424.2564,1.20668" style="fill: #fff"/>
      </g>
    </g>
  </g>
</svg>
