<svg id="Layer_1" data-name="Layer 1" xmlns="http://www.w3.org/2000/svg" viewBox="0 0 40 26">
  <title>visacheckout</title>
  <g>
    <path d="M-.19553-.24112h40.294V26.1688H-.19553Z" style="fill: #122d98"/>
    <g>
      <g>
        <path d="M9.50959,21.00555h-1.147c.08947-.48.71147-3.81506.92772-5.0175.03129-.173.08508-.24836.26552-.2393.29831.01509.607,0,.93966,0l-.37295,2.00474c.16562-.12651.29831-.24246.44746-.34318a1.48058,1.48058,0,0,1,1.2753-.21982.80812.80812,0,0,1,.63834.80368,8.48924,8.48924,0,0,1-.13722,1.23564c-.091.56726-.20733,1.13013-.31326,1.696a.60491.60491,0,0,1-.02827.07972h-1.144c.07-.38667.35951-1.92475.42208-2.31609.03567-.21818.05969-.45144-.173-.57933a.63956.63956,0,0,0-.68609.06463,1.27778,1.27778,0,0,0-.52047.84882c-.12679.59594-.37885,1.91583-.39381,1.982Zm11.10569-.00137c.11334-.60952.73521-3.9461.9291-5.02518.03143-.17605.094-.24233.27005-.23176.29831.01647.607,0,.93514,0l-.531,2.85947c.27443-.23779,1.238-1.0836,1.49155-1.29272a.3192.3192,0,0,1,.18345-.07822h1.26035l-2.10012,1.74568,1.52133,2.03466H23.32368c-.05214,0-.859-1.09554-1.24525-1.62685l-.31025,1.62384-1.1529-.00906ZM8.32088,17.23262a5.55892,5.55892,0,0,0-.80094-.3521,1.77337,1.77337,0,0,0-2.2372,1.56976,2.051,2.051,0,0,0,.05352,1.03833,1.14559,1.14559,0,0,0,1.30823.67868,3.52627,3.52627,0,0,0,1.16182-.41989c.0328-.018.0671-.03156.13269-.0601-.07.36267-.13269.6983-.2028,1.03242a.15016.15016,0,0,1-.08645.08727,3.74634,3.74634,0,0,1-2.33421.20171A1.8668,1.8668,0,0,1,3.95078,19.132a3.08481,3.08481,0,0,1,1.55563-2.87155,3.03285,3.03285,0,0,1,2.898-.05873.21363.21363,0,0,1,.08055.1777c-.05077.29035-.112.57329-.16411.85322Z" style="fill: #fff"/>
        <path d="M16.6792,19.46158H14.00483a.64151.64151,0,0,0,.0741.55573.62983.62983,0,0,0,.48081.281,2.96823,2.96823,0,0,0,1.50349-.25893c.11636-.048.23259-.09783.38037-.16095-.05969.30091-.11046.58084-.16864.85486a.14985.14985,0,0,1-.08343.08562,3.94788,3.94788,0,0,1-2.11493.2529,1.47389,1.47389,0,0,1-1.25595-1.86616,2.34768,2.34768,0,0,1,2.55361-2.05881,1.43432,1.43432,0,0,1,1.36463.98577,2.37644,2.37644,0,0,1-.05969,1.329Zm-1.03366-.76307c.0612-.40479-.08947-.68032-.39821-.74344a.92257.92257,0,0,0-.69981.14215.9382.9382,0,0,0-.3934.60129h1.49142Zm11.37574-1.55316a1.68,1.68,0,0,1,1.23784.40932,1.64721,1.64721,0,0,1,.42358,1.67652,2.28571,2.28571,0,0,1-2.41777,1.88125,1.687,1.687,0,0,1-1.1931-.47408,1.65426,1.65426,0,0,1-.37434-1.55,2.25577,2.25577,0,0,1,2.32378-1.943Zm.51,1.63741c.00892-.49961-.20884-.78858-.60705-.78858a.8362.8362,0,0,0-.64725.28294,1.77529,1.77529,0,0,0-.40575,1.35433.57693.57693,0,0,0,.73686.60211,1.00786,1.00786,0,0,0,.44733-.23025,1.58314,1.58314,0,0,0,.47436-1.22055h.0015Zm5.6498-1.54712-.701,3.7625H31.31824l.08508-.49673c-.16864.1294-.30874.24686-.458.35073a1.49086,1.49086,0,0,1-1.205.2168.85957.85957,0,0,1-.67263-.873c.01331-.39436.352-2.35836.46242-2.95731h1.14988c-.07918.42592-.35649,1.9655-.42222,2.31623a.51428.51428,0,0,0,.13434.54324.55958.55958,0,0,0,.58166.03609,1.064,1.064,0,0,0,.63244-.81713c.14915-.64273.255-1.29588.38777-1.94149.01194-.05571.08343-.13845.12968-.14C32.46963,17.23111,32.8157,17.23564,33.18111,17.23564Zm2.22677,2.91367-.15959.83826a10.37039,10.37039,0,0,1-1.32745-.01207.8007.8007,0,0,1-.71435-1.03394c.12213-.76293.58318-3.17548.6592-3.62542.02085-.12487.06723-.16548.185-.1626h1.00525l-.18936,1.07606h1.18267c-.05365.27855-.09838.53583-.15958.78721-.00742.03294-.10292.06011-.15808.06175-.29831,0-.58468.01043-.87709,0-.12817,0-.17153.042-.1939.17591-.08191.49522-.18194.98728-.2699,1.481-.05077.28445.03884.39725.31478.40781.22229.01208.44884.006.70255.006Zm-15.26243-.2002c-.05516.30847-.097.57494-.14915.83977a.212.212,0,0,1-.10593.143,2.78779,2.78779,0,0,1-2.16859-.06023,1.25756,1.25756,0,0,1-.68169-1.13918,2.37135,2.37135,0,0,1,2.367-2.57955,7.27038,7.27038,0,0,1,1.071.13392c.12377.01647.17.08425.1401.21817-.058.262-.10428.52527-.149.77515a4.181,4.181,0,0,0-.7086-.25742,1.31941,1.31941,0,0,0-1.45724,1.69765.70611.70611,0,0,0,.76375.52829,5.09284,5.09284,0,0,0,.87407-.19869,1.1765,1.1765,0,0,0,.20432-.10086Z" style="fill: #fff"/>
      </g>
      <g>
        <path d="M31.08157,4.205c-.02973-.15492-.08929-.18811-.22517-.18811H29.19651a1.01562,1.01562,0,0,0-1.04428.73747c-.99477,2.47409-3.2036,7.96733-3.31843,8.25771H27.168c.13713-.39119.27729-.781.40709-1.17523.03884-.11745.0894-.16717.21491-.16717h2.55637c.12226,0,.17732.03171.20129.16863.06857.39433.1565.78405.23553,1.17377h2.05391C32.77444,12.684,31.59764,6.81917,31.08157,4.205Zm-.93814,5.6287H28.28057l1.15586-3.33958h.03737l.66974,3.33958Z" style="fill: #fff"/>
        <path d="M10.97922,10.14371c.19388-.50715,1.69285-4.45174,2.2671-5.9717.03431-.09331.07-.15807.18346-.15053h2.13579a.30407.30407,0,0,1,.07163.02566c-.14024.35059-2.5012,6.21691-3.53788,8.807a.2253.2253,0,0,1-.243.1685H9.67126c-.11485-.459-1.317-5.27944-1.78986-7.24041a1.0308,1.0308,0,0,0-.63532-.80355c-.63984-.23327-1.27818-.45007-1.91363-.67127-.07753-.027-.188,0-.167-.15052s.10429-.137.2072-.137H8.8614c.71285,0,1.044.28144,1.18282,1.01884C10.34239,6.65071,10.95246,10.01281,10.97922,10.14371Z" style="fill: #fff"/>
        <path d="M18.55307,12.68553l.39971-1.95644c.10429.04528.19238.07821.27581.119a4.2594,4.2594,0,0,0,2.22389.42442,1.53033,1.53033,0,0,0,.83839-.289.681.681,0,0,0,.06545-1.10158,5.68922,5.68922,0,0,0-.96793-.6216,4.76437,4.76437,0,0,1-1.35131-.98577,2.33883,2.33883,0,0,1-.1342-2.894,3.22846,3.22846,0,0,1,1.99555-1.35434,5.44818,5.44818,0,0,1,3.28128.16548.89676.89676,0,0,1,.10593.04364.43119.43119,0,0,1,.05517.03911l-.37873,1.842c-.36252-.10675-.70406-.22874-1.056-.30091a2.94524,2.94524,0,0,0-1.45272.009,1.21382,1.21382,0,0,0-.24754.10072.61739.61739,0,0,0-.10593,1.11832c.38036.28281.81575.483,1.21107.75236a6.92536,6.92536,0,0,1,1.02612.78118,2.36417,2.36417,0,0,1,.37734,2.62305,2.94531,2.94531,0,0,1-2.02245,1.72771,6.30952,6.30952,0,0,1-4.00469-.18209c-.04171-.0151-.08054-.03609-.13419-.06024Z" style="fill: #fff"/>
        <polygon points="18.851 4.026 17.006 13.012 14.777 13.012 16.623 4.026 18.851 4.026" style="fill: #fff"/>
      </g>
    </g>
  </g>
</svg>
