<svg id="Layer_1" data-name="Layer 1" xmlns="http://www.w3.org/2000/svg" xmlns:xlink="http://www.w3.org/1999/xlink" viewBox="0 0 40 26">
  <defs>
    <clipPath id="clip-path">
      <polygon points="0.091 -0.064 40.091 25.936 0.091 25.936 0.091 -0.064" style="fill: none"/>
    </clipPath>
    <linearGradient id="linear-gradient" x1="248.167" y1="-1443.53995" x2="249.30425" y2="-1443.67449" gradientTransform="matrix(13.2041, 0, 0, -14.07943, -3266.65124, -20304.76276)" gradientUnits="userSpaceOnUse">
      <stop offset="0" stop-color="#26245d"/>
      <stop offset="1" stop-color="#2a368a"/>
    </linearGradient>
    <linearGradient id="linear-gradient-2" x1="254.3158" y1="-1443.11859" x2="255.45305" y2="-1443.25313" gradientTransform="matrix(17.35998, 0, 0, -14.13736, -4425.55448, -20382.72729)" xlink:href="#linear-gradient"/>
    <linearGradient id="linear-gradient-3" x1="244.39326" y1="-1440.42239" x2="245.53051" y2="-1440.55693" gradientTransform="matrix(11.10684, 0, 0, -14.54307, -2708.64399, -20928.87466)" xlink:href="#linear-gradient"/>
    <linearGradient id="linear-gradient-4" x1="227.90408" y1="-1443.90431" x2="229.04133" y2="-1444.03885" gradientTransform="matrix(6.72559, 0, 0, -14.02587, -1527.69235, -20232.65228)" xlink:href="#linear-gradient"/>
  </defs>
  <title>visa_samsungpay</title>
  <g id="Page-1">
    <g id="android-pay-65x41">
      <rect x="0.09094" y="-0.06438" width="40" height="26" style="fill: #3056d3"/>
    </g>
  </g>
  <path d="M38.33265,5.51212A5.3674,5.3674,0,0,0,37.03033,2.4979h0a5.36336,5.36336,0,0,0-3.01421-1.30231,11.62235,11.62235,0,0,0-1.88289-.11174,11.62235,11.62235,0,0,0-1.88289.11174A5.36732,5.36732,0,0,0,27.23612,2.4979h0a5.3698,5.3698,0,0,0-1.30271,3.01422A11.62247,11.62247,0,0,0,25.82167,7.395a11.6238,11.6238,0,0,0,.11174,1.88289,5.36726,5.36726,0,0,0,1.30232,3.01421h0a5.36189,5.36189,0,0,0,3.01421,1.30232,11.62377,11.62377,0,0,0,1.88289.11174,11.62377,11.62377,0,0,0,1.88289-.11174,5.36734,5.36734,0,0,0,3.01421-1.30232h0A5.36074,5.36074,0,0,0,38.33225,9.2779,11.62377,11.62377,0,0,0,38.444,7.395,11.58979,11.58979,0,0,0,38.33265,5.51212Zm-9.2204,3.12754H28.859V8.10084h.2533a.86423.86423,0,0,0,.88955-.85814.89034.89034,0,0,0-.88955-.88915H28.3082a.09265.09265,0,0,0-.09146.09146V9.46718h-.54916V6.445a.64142.64142,0,0,1,.64062-.64062h.80405A1.4403,1.4403,0,0,1,30.551,7.2435,1.40531,1.40531,0,0,1,29.11225,8.63966Zm4.59887-1.33611V8.64642h-.54956v-1.397a.9398.9398,0,0,0-.94045-.89193.91807.91807,0,0,0-.89234.89193.84478.84478,0,0,0,.92733.84422h.17139v.54916H32.2561a1.37988,1.37988,0,0,1-1.47649-1.39179A1.46444,1.46444,0,0,1,32.22111,5.81a1.48841,1.48841,0,0,1,1.48961,1.44109ZM33.79781,5.899h.614l.70981,1.47888-.307.61437Zm1.26931,3.66319h-.61239L36.25411,5.899h.614Z" style="fill: #fff"/>
  <g style="clip-path: url(#clip-path)">
    <g id="direct-debit--65x41">
      <rect id="Rectangle" x="0.09094" y="-0.06438" width="40" height="26" style="fill: #fff"/>
    </g>
    <g id="Page-1-2" data-name="Page-1">
      <g id="visa-65x41">
        <g id="Page-1-3" data-name="Page-1">
          <path id="Path" d="M26.09094,24.80134H24.22236c-.06387-.28412-.13931-.5593-.18436-.83915a.31914.31914,0,0,0-.38-.319c-.69322.01532-1.38761-.00885-2.08009.01811a.5462.5462,0,0,0-.37013.27272,7.80431,7.80431,0,0,0-.3395.87463H18.75293c.05821-.15808.102-.29485.15813-.42662.94245-2.21447,1.89456-4.42493,2.82411-6.64465a1.081,1.081,0,0,1,1.14429-.752c.51053.018,1.02231.00377,1.55582.00377.55442,2.61627,1.102,5.2,1.65566,7.81225" style="fill: url(#linear-gradient)"/>
          <path id="Fill-3" d="M.603,17.04447a2.18247,2.18247,0,0,1,.35356-.05883q1.51947-.00664,3.039-.00074a.9565.9565,0,0,1,1.09583.88757c.27038,1.36615.52694,2.73509.78966,4.10272.01207.06293.02964.1248.06761.28247.08893-.17742.14606-.274.18761-.37671.60937-1.509,1.22274-3.0165,1.81862-4.53073.10342-.26272.21858-.39064.53143-.37393.564.03024,1.13081.00861,1.76424.00861-.31576.75121-.60779,1.4531-.90548,2.15268-.75534,1.77466-1.52176,3.54482-2.26145,5.32571a.50561.50561,0,0,1-.58047.36688c-.56691-.02492-1.13572-.00713-1.74943-.00713-.23182-.873-.46356-1.73853-.69147-2.605-.3091-1.1757-.63252-2.34821-.91456-3.53023A1.23017,1.23017,0,0,0,2.2985,17.721c-.56057-.18962-1.12423-.3704-1.68655-.555Z" style="fill: url(#linear-gradient-2)"/>
          <path id="Fill-5" d="M19.17378,17.21979c-.11275.524-.22117,1.028-.33217,1.544a10.40906,10.40906,0,0,0-1.38769-.271,2.73812,2.73812,0,0,0-1.13123.15365c-.50786.19651-.541.66271-.10425.98673a8.12579,8.12579,0,0,0,.81921.4821c.20368.11661.40994.22888.61428.34435a2.20947,2.20947,0,0,1,.00017,3.87891,5.10978,5.10978,0,0,1-3.34055.53487,5.85581,5.85581,0,0,1-1.0915-.24649.4095.4095,0,0,1-.21742-.33329c.07344-.46964.19435-.93207.28978-1.35951.63627.13095,1.24489.29526,1.86467.36786a2.25031,2.25031,0,0,0,1.01223-.14267.62669.62669,0,0,0,.15613-1.1739,6.429,6.429,0,0,0-.64126-.37688,10.41769,10.41769,0,0,1-1.029-.6137,2.01109,2.01109,0,0,1-.23724-3.11615,3.29719,3.29719,0,0,1,1.77415-.92125,5.258,5.258,0,0,1,2.98166.26239" style="fill: url(#linear-gradient-3)"/>
          <path id="Fill-8" d="M11.5084,24.80332H9.46279c.56807-2.61045,1.13056-5.19532,1.69621-7.79471h2.04145c-.5674,2.61356-1.12814,5.1968-1.692,7.79471" style="fill: url(#linear-gradient-4)"/>
          <path id="Fill-10" d="M23.03343,19.2479c.19344.918.387,1.836.58756,2.78786H21.89638c.35373-.96034.69455-1.8857,1.03529-2.811Z" style="fill: #fff"/>
        </g>
      </g>
    </g>
  </g>
</svg>
