<svg id="Layer_1" data-name="Layer 1" xmlns="http://www.w3.org/2000/svg" xmlns:xlink="http://www.w3.org/1999/xlink" viewBox="0 0 40 26">
  <defs>
    <mask id="mask" x="14.82606" y="-1.71348" width="33.33191" height="20.15418" maskUnits="userSpaceOnUse">
      <g id="mask-2">
        <path id="path-1" d="M16.87725-1.71348H46.10677A2.01008,2.01008,0,0,1,48.158.25278V16.47444a2.01007,2.01007,0,0,1-2.0512,1.96626H16.87725a2.01007,2.01007,0,0,1-2.05119-1.96626V.25278A2.01008,2.01008,0,0,1,16.87725-1.71348Z" style="fill: #fff"/>
      </g>
    </mask>
    <mask id="mask-2-2" x="24.56923" y="1.72748" width="13.84556" height="13.27226" maskUnits="userSpaceOnUse">
      <g id="mask-4">
        <polygon id="path-3" points="24.57 15 38.415 15 38.415 1.728 24.57 1.728 24.57 15" style="fill: #fff"/>
      </g>
    </mask>
    <clipPath id="clip-path">
      <polygon points="0 0 40 26 0 26 0 0" style="fill: none"/>
    </clipPath>
    <linearGradient id="linear-gradient" x1="-733.41031" y1="-1238.31759" x2="-732.27306" y2="-1238.45213" gradientTransform="matrix(13.2041, 0, 0, -14.07943, 9694.10057, -17415.28464)" gradientUnits="userSpaceOnUse">
      <stop offset="0" stop-color="#26245d"/>
      <stop offset="1" stop-color="#2a368b"/>
    </linearGradient>
    <linearGradient id="linear-gradient-2" x1="-746.51425" y1="-1237.95197" x2="-745.377" y2="-1238.08651" gradientTransform="matrix(17.35998, 0, 0, -14.13736, 12948.74389, -17482.14933)" xlink:href="#linear-gradient"/>
    <linearGradient id="linear-gradient-3" x1="-721.99817" y1="-1235.63377" x2="-720.86092" y2="-1235.76831" gradientTransform="matrix(11.10684, 0, 0, -14.54307, 8024.82023, -17950.55583)" xlink:href="#linear-gradient"/>
    <linearGradient id="linear-gradient-4" x1="-676.20507" y1="-1238.63" x2="-675.06782" y2="-1238.76453" gradientTransform="matrix(6.72559, 0, 0, -14.02587, 4552.88397, -17353.43649)" xlink:href="#linear-gradient"/>
  </defs>
  <title>Illustration CMYK - visa_androidpay</title>
  <g id="Page-1">
    <g id="android-pay-65x41">
      <rect y="-0.00026" width="40" height="26" style="fill: #767576"/>
    </g>
  </g>
  <g style="mask: url(#mask)">
    <g id="android_pay_logo_rgb_fc_light-_3_" data-name="android_pay_logo_rgb_fc_light-(3)">
      <g>
        <g id="Group-4">
          <g style="mask: url(#mask-2-2)">
            <path id="Fill-1" d="M38.41479,8.36361a6.929,6.929,0,0,0-13.84556,0,6.929,6.929,0,0,0,13.84556,0" style="fill: #fff"/>
          </g>
          <g style="mask: url(#mask-2-2)">
            <path id="Fill-3" d="M31.492,1.72748a6.784,6.784,0,0,0-6.92278,6.63613,6.929,6.929,0,0,0,13.84556,0A6.784,6.784,0,0,0,31.492,1.72748Zm0,.213A6.80516,6.80516,0,0,1,36.23,3.82179a6.23659,6.23659,0,0,1,0,9.08366,6.90683,6.90683,0,0,1-9.476,0,6.23672,6.23672,0,0,1,0-9.08366A6.80518,6.80518,0,0,1,31.492,1.9405Z" style="fill: #c6c5c4"/>
          </g>
        </g>
        <path id="Fill-5" d="M30.0849,5.62254h-.01564v1.988a.30921.30921,0,0,0,.31462.30158h.27127v.6929a.31489.31489,0,0,0,.62921,0v-.6929h.42388v.6929a.3149.3149,0,0,0,.62923,0v-.6929h.26438a.30921.30921,0,0,0,.3146-.30158v-1.988Zm.62669-.71625a.13383.13383,0,1,0,.1337-.12817.131.131,0,0,0-.1337.12817Zm1.29514,0a.13382.13382,0,1,0,.13372-.12817.131.131,0,0,0-.13372.12817ZM30.0728,5.517l-.0009-.04134a1.04843,1.04843,0,0,1,.03506-.269,1.25224,1.25224,0,0,1,.67384-.782l-.21833-.3861a.048.048,0,0,1,.02058-.06644.05222.05222,0,0,1,.06929.01973l.22092.39066a1.64838,1.64838,0,0,1,1.24017-.0017l.21993-.389a.05226.05226,0,0,1,.06932-.01973.048.048,0,0,1,.02058.06644l-.2172.38407a1.24292,1.24292,0,0,1,.68836.82718,1.04486,1.04486,0,0,1,.01941.12187V5.517Zm3.58391.35437a.31489.31489,0,0,0-.62921,0V7.13809a.31489.31489,0,0,0,.62921,0V5.87135Zm-3.70016,0V7.13809a.3149.3149,0,0,1-.62923,0V5.87135a.3149.3149,0,0,1,.62923,0Z" style="fill: #78c159"/>
        <path id="Fill-6" d="M35.60009,9.573h-.406l-.88171,2.02434h.18018l-.8793-2.022h-.418l.997,2.21779-.07927.17272a.45356.45356,0,0,1-.418.27406h-.13214v.34775h.12734a.82674.82674,0,0,0,.79281-.5343L35.60009,9.573Zm-2.6211,2.3053v-2.303h-.36036v.26254A1.13869,1.13869,0,0,0,31.821,9.5292a1.19792,1.19792,0,1,0,0,2.39511,1.14886,1.14886,0,0,0,.79762-.30861v.26255Zm-1.13156-.29018a.86316.86316,0,1,1,.74717-1.34956.14267.14267,0,0,1,.024.076v.81756a.13444.13444,0,0,1-.02644.0783.90607.90607,0,0,1-.74476.37769Zm-3.522.98107V11.6157a1.14028,1.14028,0,0,0,.79762.31092,1.19905,1.19905,0,1,0,0-2.39742,1.14887,1.14887,0,0,0-.79762.30859V9.57525H27.965v2.99389Zm.77118-.97876a.88726.88726,0,0,1-.74717-.3754.12447.12447,0,0,1-.024-.076v-.82678a.13232.13232,0,0,1,.02642-.076.90027.90027,0,0,1,.74476-.3708.86287.86287,0,1,1,0,1.725Z" style="fill: #767576"/>
      </g>
    </g>
  </g>
  <g style="clip-path: url(#clip-path)">
    <g id="direct-debit--65x41">
      <rect id="Rectangle" y="-0.00026" width="40" height="26" style="fill: #fff"/>
    </g>
    <g id="Page-1-2" data-name="Page-1">
      <g id="visa-65x41">
        <g id="Page-1-3" data-name="Page-1">
          <path id="Path" d="M26,24.86546H24.13142c-.06387-.28411-.13931-.55929-.18436-.83914a.31915.31915,0,0,0-.38-.319c-.69323.01533-1.38762-.00885-2.08009.01811a.54622.54622,0,0,0-.37014.27273,7.80335,7.80335,0,0,0-.33949.87462H18.662c.0582-.15807.102-.29484.15813-.42662.94245-2.21447,1.89456-4.42493,2.8241-6.64465a1.081,1.081,0,0,1,1.1443-.752c.51053.018,1.02231.00377,1.55582.00377.55441,2.61626,1.102,5.2,1.65566,7.81224" style="fill: url(#linear-gradient)"/>
          <path id="Fill-3-2" data-name="Fill-3" d="M.512,17.1086a2.18153,2.18153,0,0,1,.35357-.05884q1.51947-.00664,3.039-.00074a.95651.95651,0,0,1,1.09583.88758c.27038,1.36615.52693,2.73509.78965,4.10271.01208.06294.02965.12481.06762.28248.08893-.17742.146-.274.1876-.37672.60937-1.509,1.22274-3.01649,1.81862-4.53072.10343-.26273.21859-.39065.53143-.37393.564.03024,1.13081.0086,1.76425.0086-.31576.75122-.60779,1.4531-.90548,2.15269-.75534,1.77466-1.52176,3.54481-2.26145,5.3257a.50562.50562,0,0,1-.58048.36688c-.5669-.02491-1.13572-.00713-1.74942-.00713-.23182-.873-.46356-1.73852-.69147-2.605-.3091-1.17571-.63252-2.34822-.91456-3.53023a1.23016,1.23016,0,0,0-.84919-.96682c-.56057-.18963-1.12423-.3704-1.68655-.555Z" style="fill: url(#linear-gradient-2)"/>
          <path id="Fill-5-2" data-name="Fill-5" d="M19.08283,17.28392c-.11274.524-.22116,1.028-.33216,1.544a10.41238,10.41238,0,0,0-1.3877-.271,2.73789,2.73789,0,0,0-1.13122.15366c-.50787.19651-.541.66271-.10426.98673a8.13082,8.13082,0,0,0,.81922.4821c.20367.11661.40993.22888.61428.34434a2.20948,2.20948,0,0,1,.00017,3.87892,5.10985,5.10985,0,0,1-3.34055.53487,5.85593,5.85593,0,0,1-1.09151-.2465.40952.40952,0,0,1-.21742-.33328c.07345-.46964.19436-.93208.28978-1.35951.63627.13095,1.24489.29525,1.86467.36786a2.25043,2.25043,0,0,0,1.01223-.14267.6267.6267,0,0,0,.15614-1.1739,6.42719,6.42719,0,0,0-.64127-.37688,10.41893,10.41893,0,0,1-1.029-.61371,2.01108,2.01108,0,0,1-.23723-3.11614,3.29713,3.29713,0,0,1,1.77415-.92126,5.25786,5.25786,0,0,1,2.98165.2624" style="fill: url(#linear-gradient-3)"/>
          <path id="Fill-8" d="M11.41746,24.86744H9.37185c.56807-2.61044,1.13056-5.19532,1.69621-7.7947h2.04145c-.5674,2.61356-1.12814,5.1968-1.692,7.7947" style="fill: url(#linear-gradient-4)"/>
          <path id="Fill-10" d="M22.94249,19.312c.19343.918.387,1.836.58755,2.78786H21.80543c.35373-.96035.69456-1.8857,1.0353-2.811Z" style="fill: #fff"/>
        </g>
      </g>
    </g>
  </g>
</svg>
