<?xml version="1.0" encoding="UTF-8"?>
<svg width="40px" height="26px" viewBox="0 0 40 26" version="1.1" xmlns="http://www.w3.org/2000/svg">
    <!-- Generator: Sketch 51.3 (57544) - http://www.bohemiancoding.com/sketch -->
    <title>visa</title>
    <desc>Created with Sketch.</desc>
    <defs></defs>
    <g id="visa" stroke="none" stroke-width="1" fill="none" fill-rule="evenodd">
        <rect id="Rectangle" fill="#293381" fill-rule="nonzero" x="0" y="0" width="40" height="26"></rect>
        <g transform="translate(0.000000, 6.000000)" fill-rule="nonzero" id="Page-1">
            <g transform="translate(0.927961, 0.750000)">
                <g id="visa-65x41">
                    <g id="Page-1-2">
                        <path d="M35.5923961,12.3430886 L33.0178706,12.3430886 C32.929872,11.9363143 32.8259219,11.5423361 32.7638598,11.1416561 C32.7662454,11.003787 32.7085877,10.8721717 32.6069617,10.7835047 C32.5053358,10.6948378 32.3706118,10.6586031 32.2403507,10.6849029 C31.2852283,10.70685 30.3285006,10.6722321 29.3744083,10.7108325 C29.1574157,10.7566879 28.9708693,10.8995206 28.8644381,11.1013007 C28.6844892,11.5085826 28.5282908,11.9267488 28.3966901,12.3535318 L25.482104,12.3535318 C25.5622984,12.1272043 25.6226437,11.9313868 25.6999707,11.7427243 C26.998485,8.57215286 28.3103248,5.40741536 29.5910222,2.22938036 C29.8029222,1.52625701 30.462452,1.07584412 31.1676278,1.15266857 C31.8710222,1.1784825 32.5761612,1.15806857 33.3112176,1.15806857 C34.0750872,4.90384607 34.8295473,8.60305821 35.5923868,12.3430886" id="Path" fill="#FFFFFF"></path>
                        <path d="M0.475115995,1.23735214 C0.635011832,1.19543946 0.797954333,1.16726447 0.962295482,1.15311214 C2.35794872,1.14679929 3.75366072,1.14644893 5.1494315,1.15206107 C5.51479232,1.09543867 5.88624951,1.20076106 6.17330169,1.44236763 C6.46035387,1.68397419 6.63664508,2.03968159 6.65922393,2.42282571 C7.03174457,4.37878286 7.38523272,6.33873214 7.74720244,8.29681071 C7.7638315,8.38691357 7.78803272,8.47549286 7.84036044,8.70123214 C7.96285128,8.44722 8.04159805,8.30900893 8.09884396,8.16187821 C8.93843516,6.001425 9.78352918,3.84307393 10.6045333,1.67512821 C10.747031,1.29897964 10.9057031,1.1158425 11.3366945,1.13976643 C12.1137597,1.18306286 12.8947409,1.15209 13.7674696,1.15209 C13.3324137,2.22762536 12.9300591,3.23252679 12.5199004,4.23414964 C11.4791922,6.77498464 10.4232283,9.30936857 9.40408596,11.8591232 C9.31033896,12.224333 8.96198159,12.4531249 8.60430427,12.3843986 C7.82323028,12.34872 7.0395116,12.3741868 6.1939536,12.3741868 C5.87454945,11.1242989 5.55525665,9.88509536 5.24124396,8.64459 C4.81537485,6.96130393 4.36975873,5.28258857 3.98117509,3.5902575 C3.87304045,2.9367833 3.42088413,2.40179421 2.81124835,2.20600607 C2.03888791,1.93451143 1.26228669,1.67564893 0.487522833,1.41134786 L0.475115995,1.23735214 Z" id="Fill-3" fill="#FFFFFF"></path>
                        <path d="M26.0619404,1.48836536 C25.9065998,2.23857964 25.7572259,2.96023179 25.6042886,3.69892286 C24.9761664,3.52471325 24.337373,3.39508112 23.6923272,3.31092321 C23.1636917,3.26963553 22.6326174,3.34459552 22.1337333,3.53091536 C21.4339951,3.812265 21.3883302,4.4797725 21.990085,4.94359393 C22.3530397,5.19635752 22.7299197,5.42683015 23.1187917,5.63382964 C23.3994256,5.80078607 23.6836044,5.9615325 23.965157,6.12684 C24.9428366,6.68123072 25.5511176,7.74618282 25.5511641,8.90355258 C25.5512105,10.0609223 24.9430149,11.1259271 23.9653797,11.6804025 C22.5593665,12.4713328 20.9361569,12.7414087 19.3627863,12.4461996 C18.8518041,12.3787068 18.3482153,12.2605246 17.8589143,12.0932711 C17.6864055,11.9987104 17.5731298,11.8182714 17.5593592,11.6161039 C17.660507,10.9437075 17.8271316,10.2816289 17.9586144,9.66965464 C18.8352591,9.85714071 19.6738203,10.0923782 20.5277485,10.1963282 C21.001556,10.2403119 21.4787495,10.1704207 21.9223995,9.99206357 C22.2828383,9.91557698 22.557061,9.61017903 22.6055597,9.23123768 C22.6540585,8.85229633 22.4661819,8.48303585 22.1375101,8.31131357 C21.853269,8.11388221 21.5582653,7.93371891 21.25398,7.77172821 C20.765583,7.50734112 20.2922304,7.21397055 19.8362691,6.89307107 C19.1489013,6.39915348 18.7127703,5.60924606 18.6493383,4.74333722 C18.5859063,3.87742837 18.9019496,3.02802235 19.5094505,2.43167786 C20.1732677,1.73974291 21.0273397,1.27888875 21.9538667,1.11267964 C23.3293347,0.821687083 24.7565335,0.952204941 26.0619497,1.48836536" id="Fill-5" fill="#FFFFFF"></path>
                        <path d="M15.5006593,12.3459332 L12.6821822,12.3459332 C13.4648615,8.6084775 14.2398574,4.90762607 15.0192147,1.18601357 L17.8319199,1.18601357 C17.0501499,4.92792429 16.2775853,8.62644214 15.5006222,12.3459332" id="Fill-8" fill="#FFFFFF"></path>
                        <path d="M31.3797597,4.39207071 C31.6462794,5.70639214 31.9129104,7.02078107 32.1892943,8.38353857 L29.8131297,8.38353857 C30.300504,7.00858286 30.7700894,5.68372179 31.2395634,4.35898607 L31.3797597,4.39207071 Z" id="Fill-10" fill="#293381"></path>
                    </g>
                </g>
            </g>
        </g>
    </g>
</svg>