<svg id="Layer_1" data-name="Layer 1" xmlns="http://www.w3.org/2000/svg" xmlns:xlink="http://www.w3.org/1999/xlink" viewBox="0 0 40 26">
  <defs>
    <clipPath id="clip-path">
      <polygon points="0 0 40 26 0 26 0 0" style="fill: none"/>
    </clipPath>
    <linearGradient id="linear-gradient" x1="-192.71474" y1="-1412.89483" x2="-191.57749" y2="-1413.02936" gradientTransform="matrix(13.2041, 0, 0, -14.07943, 2554.70339, -19873.23277)" gradientUnits="userSpaceOnUse">
      <stop offset="0" stop-color="#26245d"/>
      <stop offset="1" stop-color="#2a368a"/>
    </linearGradient>
    <linearGradient id="linear-gradient-2" x1="-195.21245" y1="-1412.48177" x2="-194.0752" y2="-1412.61631" gradientTransform="matrix(17.35998, 0, 0, -14.13736, 3378.1558, -19949.53959)" xlink:href="#linear-gradient"/>
    <linearGradient id="linear-gradient-3" x1="-189.66842" y1="-1409.84192" x2="-188.53117" y2="-1409.97646" gradientTransform="matrix(11.10684, 0, 0, -14.54307, 2112.31875, -20484.07673)" xlink:href="#linear-gradient"/>
    <linearGradient id="linear-gradient-4" x1="-178.18629" y1="-1413.25144" x2="-177.04904" y2="-1413.38598" gradientTransform="matrix(6.72559, 0, 0, -14.02587, 1203.41397, -19802.65492)" xlink:href="#linear-gradient"/>
  </defs>
  <title>visadankort</title>
  <rect id="Rectangle" y="-0.00032" width="40" height="26" style="fill: #e92127"/>
  <path d="M22.88052,8.87865c-.6331.48449-1.56214.25253-2.38116.29062L20.65067,7.287c.82247.06229,2.40545-.28371,2.68414.78892A1.03522,1.03522,0,0,1,22.88052,8.87865ZM40,4.68482l-5.392.01384c-.09294.03809-.15131.18-.26147.2629-.77083.95511-1.54167,1.92388-2.34,2.85131.09638-1.02418.14095-2.07967.27868-3.10384l-4.5871-.01037c-.031.92029-.08261,1.827-.13773,2.699A3.23326,3.23326,0,0,0,25.50961,5.017a5.7069,5.7069,0,0,0-1.44524-.29062L16.13594,4.754c0,.01384-.02754.01384-.13583,0L16,11.92349l7.87163-.04156a3.93409,3.93409,0,0,0,2.98691-1.74385,7.40306,7.40306,0,0,0,.60557-1.24574c-.08244.99664-.12393,2.02082-.23394,3.03115,1.47282-.01388,4.55612,0,4.55612,0,.02754-1.24555.09639-2.54665.179-3.77854l2.4087,3.50176c.0895.30447.34753.23522.592.23522H40v-.083a46.89519,46.89519,0,0,1-2.94187-3.87544l.01377-.05519A38.66426,38.66426,0,0,1,40,4.78164Z" style="fill: #fff"/>
  <g style="clip-path: url(#clip-path)">
    <g id="direct-debit--65x41">
      <rect id="Rectangle-2" data-name="Rectangle" y="-0.00032" width="40" height="26" style="fill: #fff"/>
    </g>
    <g id="Page-1">
      <g id="visa-65x41">
        <g id="Page-1-2" data-name="Page-1">
          <path id="Path" d="M26,24.8654H24.13142c-.06387-.28412-.13931-.5593-.18436-.83915a.31914.31914,0,0,0-.38-.319c-.69323.01532-1.38762-.00885-2.08009.01811a.54624.54624,0,0,0-.37014.27272,7.80426,7.80426,0,0,0-.33949.87463H18.662c.0582-.15808.102-.29485.15813-.42662.94245-2.21447,1.89456-4.42493,2.8241-6.64465a1.081,1.081,0,0,1,1.1443-.752c.51053.018,1.02231.00377,1.55582.00377.55441,2.61626,1.102,5.2,1.65566,7.81224" style="fill: url(#linear-gradient)"/>
          <path id="Fill-3" d="M.512,17.10854a2.18153,2.18153,0,0,1,.35357-.05884q1.51947-.00665,3.039-.00074a.9565.9565,0,0,1,1.09583.88758c.27038,1.36615.52693,2.73508.78965,4.10271.01208.06293.02965.12481.06762.28247.08893-.17741.146-.27395.1876-.37671.60937-1.509,1.22274-3.0165,1.81862-4.53073.10343-.26272.21859-.39064.53143-.37393.564.03024,1.13081.00861,1.76425.00861-.31576.75121-.60779,1.4531-.90548,2.15268-.75534,1.77466-1.52176,3.54482-2.26145,5.32571a.50562.50562,0,0,1-.58048.36688c-.5669-.02492-1.13572-.00713-1.74942-.00713-.23182-.873-.46356-1.73852-.69147-2.605-.3091-1.1757-.63252-2.34821-.91456-3.53022a1.23016,1.23016,0,0,0-.84919-.96682c-.56057-.18963-1.12423-.37041-1.68655-.555Z" style="fill: url(#linear-gradient-2)"/>
          <path id="Fill-5" d="M19.08283,17.28385c-.11274.524-.22116,1.028-.33216,1.544a10.40919,10.40919,0,0,0-1.3877-.271,2.73805,2.73805,0,0,0-1.13122.15365c-.50787.19651-.541.66271-.10426.98674a8.12885,8.12885,0,0,0,.81922.48209c.20367.11662.40993.22888.61428.34435a2.20947,2.20947,0,0,1,.00017,3.87891,5.10985,5.10985,0,0,1-3.34055.53488,5.85673,5.85673,0,0,1-1.09151-.2465.40953.40953,0,0,1-.21742-.33328c.07345-.46965.19436-.93208.28978-1.35952.63627.131,1.24489.29526,1.86467.36787a2.25044,2.25044,0,0,0,1.01223-.14268.62669.62669,0,0,0,.15614-1.1739,6.429,6.429,0,0,0-.64127-.37687,10.42087,10.42087,0,0,1-1.029-.61371,2.01109,2.01109,0,0,1-.23723-3.11615,3.29719,3.29719,0,0,1,1.77415-.92125,5.258,5.258,0,0,1,2.98165.26239" style="fill: url(#linear-gradient-3)"/>
          <path id="Fill-8" d="M11.41746,24.86738H9.37185c.56807-2.61045,1.13056-5.19532,1.69621-7.7947h2.04145c-.5674,2.61355-1.12814,5.19679-1.692,7.7947" style="fill: url(#linear-gradient-4)"/>
          <path id="Fill-10" d="M22.94249,19.312c.19343.918.387,1.836.58755,2.78786H21.80543c.35373-.96034.69456-1.88569,1.0353-2.811Z" style="fill: #fff"/>
        </g>
      </g>
    </g>
  </g>
</svg>
