<svg id="Layer_1" data-name="Layer 1" xmlns="http://www.w3.org/2000/svg" viewBox="0 0 40 26">
  <title>vpay</title>
  <g id="Page-1">
    <g id="vpay-65x41">
      <rect width="40" height="26" style="fill: #fff"/>
      <g id="VPay_logo_2015" data-name="VPay logo 2015">
        <g id="svg3355">
          <polygon id="path8681" points="29.098 3.68 10.902 3.68 10.902 23.393 29.098 23.393 29.098 3.68" style="fill: #1c3378"/>
          <polygon id="path8683" points="28.643 16.482 11.357 16.482 11.357 4.136 28.643 4.136 28.643 16.482" style="fill: #fff"/>
          <path id="path8685" d="M24.37225,6.37664l-3.39137,8.09589H18.765L17.09575,8.01012a.892.892,0,0,0-.49639-.71217,8.9645,8.9645,0,0,0-2.06765-.68833l.049-.233h3.56346A.9762.9762,0,0,1,19.11046,7.2l.88292,4.68465,2.17885-5.508h2.2" style="fill: #1c3378"/>
          <path id="path8687" d="M16.17444,19.64563a1.26683,1.26683,0,0,0,.32167.02911c.49242,0,.79291-.25283.79291-.69363,0-.4183-.278-.642-.73467-.642a1.71872,1.71872,0,0,0-.37991.03441ZM15.52185,17.893a5.45831,5.45831,0,0,1,1.00735-.0781,1.581,1.581,0,0,1,1.06427.30711,1.08064,1.08064,0,0,1,.35344.83262,1.16941,1.16941,0,0,1-.31108.8538,1.55318,1.55318,0,0,1-1.13972.40109,1.88066,1.88066,0,0,1-.32167-.0225v1.419h-.65259Z" style="fill: #fff"/>
          <path id="path8689" d="M20.42492,20.02025l-.28328-.92661c-.07016-.229-.1284-.48581-.18268-.70422h-.0106c-.053.21841-.10722.48183-.17076.70422l-.278.92661Zm-1.03251.5189-.31107,1.06691h-.67907l1.15561-3.76334h.84056l1.17282,3.76334h-.70687l-.327-1.06691Z" style="fill: #fff"/>
          <path id="path8691" d="M22.9572,21.60606V20.03613l-1.13973-2.19341h.7479l.43418.965c.12311.28064.21312.49111.31108.74923h.00925c.09134-.24092.19459-.47521.31637-.74923l.43418-.965h.74393l-1.19929,2.17753v1.58581Z" style="fill: #fff"/>
        </g>
      </g>
    </g>
  </g>
</svg>
