<svg id="Layer_1" data-name="Layer 1" xmlns="http://www.w3.org/2000/svg" viewBox="0 0 40 26">
  <title>vr_bank</title>
  <g id="Ebene_2" data-name="Ebene 2">
    <g>
      <rect width="39.99207" height="26" style="fill: #fff"/>
      <path d="M39.99207,21.201H24.80256c-.41861,2.19769-.76247,4.06648-.897,4.79905H39.99207Z" style="fill: #f60"/>
      <polygon points="0 21.201 0 26 16.087 26 15.01 21.201 0 21.201" style="fill: #f60"/>
      <path d="M7.86386,10.48047,6.68279,5.80194h9.97185l3.24422,13.38145h.13455l2.01829-8.53227c1.01662-3.91063,1.40533-4.84918,7.17615-4.84918h4.14124s-.83722,3.612-1.88374,7.53684c-.40366,1.49315-3.85718,1.32251-3.69273-.0711.01495-.1422.1794-1.19452.314-1.9482.19435-1.08075-1.12128-1.20874-1.36048-.1422-.16446.7679-.912,4.451-1.61464,8.02033H39.99207V0H0V19.19761H14.51675l-2.04819-8.71714Z" style="fill: #0066b3"/>
    </g>
  </g>
</svg>
