<svg id="Layer_1" data-name="Layer 1" xmlns="http://www.w3.org/2000/svg" viewBox="0 0 40 26">
  <title>Wallet</title>
  <rect x="-0.27675" y="-0.15601" width="40.54078" height="26.26832" style="fill: #fff"/>
  <path d="M25.36182,15.53442a1.53619,1.53619,0,0,1-1.504-1.83945,1.57446,1.57446,0,0,1,1.56453-1.22808h3.00714a.51125.51125,0,0,1,.51127.5111l.00088,2.55643Zm2.55627,6.13505H11.55794a.51123.51123,0,0,1-.51125-.51124V6.33183H27.40682a.51126.51126,0,0,1,.51127.51126v4.60129H25.47582a2.63387,2.63387,0,0,0-2.65775,2.30075,2.55919,2.55919,0,0,0,2.54375,2.8118h2.55627v5.11254ZM11.55794,4.28682H27.40682a.51126.51126,0,0,1,.51127.51125v.51125H11.55794a.51126.51126,0,0,1-.51125-.51125h0a.51124.51124,0,0,1,.51125-.51125Zm17.38264,7.15756V4.28682a1.0225,1.0225,0,0,0-1.02249-1.02251H11.04669a1.02251,1.02251,0,0,0-1.02251,1.02251V21.66947A1.0225,1.0225,0,0,0,11.04669,22.692h16.8714a1.02249,1.02249,0,0,0,1.02249-1.02253V16.55693a1.02388,1.02388,0,0,0,1.02253-1.02251V12.46689a1.02372,1.02372,0,0,0-1.02253-1.02251Z" style="fill: #0f0f0f"/>
  <path d="M26.6242,13.50808a.51126.51126,0,1,0,.51124.51126.51128.51128,0,0,0-.51124-.51126Z" style="fill: #0f0f0f"/>
</svg>
