<?xml version="1.0" encoding="UTF-8"?>
<svg width="109px" height="20px" viewBox="0 0 109 20" version="1.1" xmlns="http://www.w3.org/2000/svg">
    <!-- Generator: Sketch 51.3 (57544) - http://www.bohemiancoding.com/sketch -->
    <title>WeChat Pay Logo</title>
    <desc>Created with Sketch.</desc>
    <defs></defs>
    <g id="Symbols" stroke="none" stroke-width="1" fill="none" fill-rule="evenodd">
        <g id="Blocks-/-WeChat-Pay-QR" transform="translate(-218.000000, -38.000000)">
            <g id="WeChat-Pay-Logo" transform="translate(218.000000, 38.000000)">
                <path d="M8.25769594,12.6510998 C8.15514463,12.7029526 8.0396917,12.7326772 7.91696095,12.7326772 C7.6334562,12.7326772 7.38667144,12.5764582 7.25699366,12.3459277 L7.20737206,12.2375983 L5.14079781,7.70988837 C5.11830268,7.66034745 5.10440863,7.60486162 5.10440863,7.55069688 C5.10440863,7.34196446 5.2737837,7.17286479 5.48285604,7.17286479 C5.56787438,7.17286479 5.64627651,7.20093797 5.70946135,7.24783671 L8.1481976,8.98143867 C8.32650456,9.09802497 8.53921582,9.16606117 8.7681368,9.16606117 C8.90476161,9.16606117 9.03510101,9.14063016 9.15650853,9.0963736 L20.6260453,3.99993395 C18.5700569,1.58068565 15.1842097,2.27373675e-13 11.3524298,2.27373675e-13 C5.08257513,2.27373675e-13 0,4.228813 0,9.44514169 C0,12.2914327 1.52933773,14.8530286 3.92275292,16.5846489 C4.11495392,16.7217121 4.24033116,16.9462976 4.24033116,17.1999472 C4.24033116,17.2838364 4.22246739,17.36079 4.20063388,17.440716 C4.00942532,18.1527842 3.70309464,19.2928859 3.68886978,19.3460598 C3.66538222,19.4355638 3.62800061,19.5287007 3.62800061,19.6221679 C3.62800061,19.8309003 3.79737568,20 4.00644802,20 C4.08848907,20 4.15564363,19.9696149 4.22511387,19.9299822 L6.71049443,18.4972587 C6.89740246,18.3895898 7.09522724,18.3228747 7.31323147,18.3228747 C7.42934602,18.3228747 7.54116003,18.3407094 7.64701944,18.3727459 C8.80651084,18.7059911 10.057306,18.8909439 11.3524298,18.8909439 C17.6222844,18.8909439 22.7051903,14.6618006 22.7051903,9.44514169 C22.7051903,7.86511659 22.2364316,6.3772376 21.4123822,5.06836647 L8.34072941,12.6032103 L8.25769594,12.6510998 Z" id="Fill-1" fill="#1AAD19"></path>
                <path d="M39.8361802,10.5029819 C39.7531518,10.8002677 39.6714518,11.0892587 39.5917445,11.3709503 C39.280886,12.4685189 39.0088849,13.4293892 38.7976605,14.3952363 C38.5897573,13.2366179 38.2333993,11.8756063 37.8551217,10.4681437 L36.0414486,3.63521498 L35.1012345,3.63521498 L33.1065594,10.5189079 C32.6505672,12.0040099 32.2530271,13.3311787 32.03981,14.4061854 C31.8375528,13.4705314 31.5496102,12.3364656 31.2463903,11.1416819 L29.3114956,3.63521498 L28.2766292,3.63521498 L31.5187236,15.899914 L32.4403392,15.899914 L34.5253493,8.8718914 C35.0231878,7.23051535 35.3453381,6.09877212 35.5465991,5.08481514 C35.7229515,6.17077103 36.0115583,7.31910387 36.4350033,8.86923707 L38.2666106,15.899914 L39.2064925,15.899914 L42.8859807,3.63521498 L41.8494537,3.63521498 L39.8361802,10.5029819 Z" id="Fill-3" fill="#4D4D4D"></path>
                <path d="M46.7119643,7.79194094 C47.4263409,7.79194094 48.0038867,8.00992843 48.4276639,8.43993113 C49.1181284,9.1396809 49.2097918,10.1801813 49.2117844,10.6645979 L43.8989609,10.6645979 C44.0882657,9.32050765 44.9295098,7.79194094 46.7119643,7.79194094 L46.7119643,7.79194094 Z M49.3472868,14.7575866 C48.8444666,14.9898411 48.2074725,15.1952205 47.0716435,15.1952205 C45.0470781,15.1952205 43.8770414,13.8478123 43.8531292,11.4954056 L50.2081257,11.4954056 L50.2210781,11.4376737 C50.2589391,11.2677961 50.2589391,11.1374018 50.2589391,10.9001704 C50.2589391,10.5743504 50.2131074,9.43431238 49.625266,8.44689876 C49.0244723,7.43725507 48.080605,6.92563149 46.8195691,6.92563149 C44.4509339,6.92563149 42.8594448,8.83343669 42.8594448,11.6732462 C42.8594448,14.3090035 44.5087217,16.0797785 46.9637065,16.0797785 C48.5279622,16.0797785 49.4100563,15.6832868 49.7169294,15.5130774 L49.7677428,15.4848751 L49.3472868,14.7575866 Z" id="Fill-5" fill="#4D4D4D"></path>
                <path d="M57.7411296,15.1952205 C54.5760856,15.1952205 52.6863584,13.1998222 52.6863584,9.85767924 C52.6863584,6.39144603 54.6298881,4.32205803 57.885267,4.32205803 C58.7882843,4.32205803 59.6368349,4.49226743 60.2901026,4.79917522 L60.7480875,4.00685543 L60.7098944,3.98595252 C60.4757542,3.85721714 59.5783829,3.4375 57.8673329,3.4375 C54.142013,3.4375 51.6392038,6.01021678 51.6392038,9.83976246 C51.6392038,14.4453701 54.7713685,16.0797785 57.4535191,16.0797785 C58.9785854,16.0797785 60.1622388,15.7599308 60.761372,15.4603225 L60.8068716,15.4377606 L60.3681494,14.67862 C59.6653967,15.0017856 58.6929676,15.1952205 57.7411296,15.1952205" id="Fill-7" fill="#4D4D4D"></path>
                <path d="M66.3076384,6.92553195 C65.6646661,6.92553195 65.0472667,7.10337257 64.5251839,7.43815091 C64.0957608,7.68400894 63.7051951,8.0732012 63.4302049,8.52510219 L63.4302049,3.43773225 L62.4189185,3.43773225 L62.4189185,15.8998476 L63.4302049,15.8998476 L63.4302049,10.5586566 C63.4302049,10.2089476 63.4464784,9.98332894 63.5338244,9.72054952 C63.9310324,8.60605949 64.975198,7.82767497 66.0738303,7.82767497 C68.0761441,7.82767497 68.3753785,9.63992401 68.3753785,10.7205712 L68.3753785,15.8998476 L69.3866649,15.8998476 L69.3866649,10.6306555 C69.3866649,7.10436795 66.8217504,6.92553195 66.3076384,6.92553195" id="Fill-9" fill="#4D4D4D"></path>
                <path d="M82.390014,15.1443568 C82.2129974,15.1818493 81.9655726,15.2133695 81.6261524,15.2133695 C80.8167912,15.2133695 80.4401742,14.6708893 80.4401742,13.5069622 L80.4401742,7.97167278 L82.9054545,7.97167278 L82.9054545,7.12294831 L80.4401742,7.12294831 L80.4401742,5.18461823 L79.4285557,5.18461823 L79.4285557,7.12294831 L77.9712406,7.12294831 L77.9712406,7.97167278 L79.4285557,7.97167278 L79.4285557,13.3453794 C79.4285557,14.3427468 79.6112183,15.0348653 79.984182,15.4582322 C80.3123104,15.8766222 80.8423639,16.0979276 81.5182154,16.0979276 C82.0004446,16.0979276 82.4159188,16.0229425 82.7533464,15.8756268 L82.8005066,15.8550557 L82.390014,15.1443568 Z" id="Fill-11" fill="#4D4D4D"></path>
                <path d="M92.9090194,7.10695593 C92.9090194,8.94541656 91.6702351,9.9995204 89.5098352,9.9995204 C89.0528467,9.9995204 88.4779578,9.98094004 88.0359144,9.84026014 L88.0359144,4.54187036 C88.2461424,4.50006455 88.7934659,4.41213961 89.6712425,4.41213961 C91.7290193,4.41213961 92.9090194,5.39424455 92.9090194,7.10695593 M89.7074429,3.54583015 C88.8356443,3.54583015 87.9535502,3.62446491 87.0850728,3.78040725 L87.0246281,3.79135639 L87.0246281,15.8997813 L88.0359144,15.8997813 L88.0359144,10.7450575 C88.4311298,10.8452587 88.8705163,10.8661617 89.4374344,10.8661617 C90.9930552,10.8661617 92.2783354,10.3780953 93.0551495,9.49353729 C93.6370127,8.85583266 93.9199736,8.04559609 93.9199736,7.01704024 C93.9199736,6.0180139 93.588192,5.17891141 92.9621576,4.5913074 C92.2587407,3.90715187 91.1332072,3.54583015 89.7074429,3.54583015" id="Fill-13" fill="#4D4D4D"></path>
                <path d="M107.893361,7.12301467 L105.770157,12.7614915 C105.57421,13.2707925 105.407489,13.7671537 105.260695,14.2051194 C105.225159,14.3106293 105.191283,14.4118259 105.158404,14.509041 C104.98504,13.9473168 104.771823,13.3262018 104.575876,12.8142464 L102.308536,7.16913379 L102.289937,7.12301467 L101.213225,7.12301467 L104.45698,15.224385 C104.542001,15.4357367 104.559603,15.5312928 104.559603,15.5744258 C104.559603,15.6533924 104.523735,15.7582387 104.457312,15.9234712 C104.01859,16.964967 103.441044,17.6683664 103.034869,18.0741483 C102.473264,18.6149696 101.862507,18.8933433 101.548327,19.0111295 L101.488547,19.0333596 L101.953506,19.8379557 C102.183661,19.7506943 102.759546,19.4982005 103.404179,18.9557202 C104.527056,17.9766014 105.245418,16.4679422 106.3394,13.6603166 L108.971402,7.12301467 L107.893361,7.12301467 Z" id="Fill-15" fill="#4D4D4D"></path>
                <path d="M76.1148908,13.0575165 C76.1148908,13.1862519 76.1002778,13.3763688 76.0285413,13.5552048 C75.7525547,14.3654414 74.9548175,15.2310872 73.543002,15.2310872 C72.7801367,15.2310872 71.8894076,14.779518 71.8894076,13.5067631 C71.8894076,12.9639511 72.0694133,12.5140408 72.4241108,12.1696405 C73.0371928,11.5744053 74.1670437,11.2734698 75.7864303,11.2734698 C75.8937031,11.2734698 76.0033006,11.2747969 76.1148908,11.2774513 L76.1148908,13.0575165 Z M77.2510519,15.8143779 C77.1411223,15.13719 77.1258451,14.4347859 77.1258451,13.7765102 L77.1258451,10.3968748 C77.1258451,8.12575709 76.0673986,6.92566467 74.0650848,6.92566467 C73.1630639,6.92566467 72.1996019,7.2053655 71.4872179,7.67451968 L71.4835647,7.67717402 L71.8953857,8.39019548 C72.4616396,8.00498472 73.1962752,7.79197412 73.9757462,7.79197412 C73.9860417,7.79197412 73.9963372,7.79164233 74.0066328,7.79164233 C74.6462838,7.79164233 75.1471114,7.96682862 75.4958308,8.3125561 C75.9123014,8.72464202 76.1148908,9.35936052 76.1148908,10.2532087 L76.1148908,10.412469 C73.9970015,10.3955476 72.494851,10.8278728 71.6313553,11.681906 C71.1076119,12.1998336 70.842253,12.8620909 70.842253,13.6510927 C70.842253,14.8292869 71.6592528,16.0977285 73.4533313,16.0977285 C74.7592025,16.0977285 75.7113726,15.4212042 76.202901,14.7470024 L76.319805,15.8996485 L77.2646686,15.8996485 L77.2510519,15.8143779 Z" id="Fill-17" fill="#4D4D4D"></path>
                <path d="M99.3213388,13.0575165 C99.3213388,13.1862519 99.3067257,13.3763688 99.2353213,13.5552048 C98.9590027,14.3654414 98.1612654,15.2310872 96.749782,15.2310872 C95.9869168,15.2310872 95.0958556,14.779518 95.0958556,13.5067631 C95.0958556,12.9639511 95.2758612,12.5140408 95.6305587,12.1696405 C96.2436407,11.5744053 97.3734916,11.2734698 98.9928783,11.2734698 C99.100151,11.2734698 99.2097485,11.2747969 99.3213388,11.2774513 L99.3213388,13.0575165 Z M100.4575,15.8143779 C100.347902,15.13719 100.332625,14.4344541 100.332625,13.7765102 L100.332625,10.3968748 C100.332625,8.12575709 99.2741786,6.92566467 97.2715327,6.92566467 C96.411026,6.92566467 95.4967169,7.18247184 94.7956247,7.61346992 L95.2057852,8.32317345 C95.7567619,7.98109568 96.4492191,7.79197412 97.1825262,7.79197412 C97.1928218,7.79197412 97.2031173,7.79164233 97.2134128,7.79164233 C97.8527318,7.79164233 98.3535593,7.96682862 98.7026108,8.31222431 C99.1190815,8.72464202 99.3213388,9.35936052 99.3213388,10.2532087 L99.3213388,10.412469 C97.2120844,10.3955476 95.7012989,10.8278728 94.8378032,11.681906 C94.3140598,12.1998336 94.0487009,12.8620909 94.0487009,13.6510927 C94.0487009,14.8292869 94.8657007,16.0977285 96.6597792,16.0977285 C97.9656504,16.0977285 98.9178206,15.4212042 99.4093489,14.7470024 L99.5262529,15.8996485 L100.471449,15.8996485 L100.4575,15.8143779 Z" id="Fill-19" fill="#4D4D4D"></path>
            </g>
        </g>
    </g>
</svg>