<?xml version="1.0" encoding="utf-8"?>
<!-- Generator: Adobe Illustrator 22.1.0, SVG Export Plug-In . SVG Version: 6.00 Build 0)  -->
<svg version="1.1" id="Layer_1" xmlns="http://www.w3.org/2000/svg"  x="0px" y="0px"
	 viewBox="0 0 40 26" style="enable-background:new 0 0 40 26;" xml:space="preserve">
<style type="text/css">
	.st0{fill:#16AA16;}
	.st1{fill:#FFFFFF;}
</style>
<rect x="-0.9" y="-0.6" class="st0" width="41.9" height="27.6"/>
<path class="st1" d="M17.3,15.5c-0.1,0-0.2,0.1-0.3,0.1c-0.2,0-0.4-0.1-0.5-0.3l0-0.1l-1.6-3.6c0,0,0-0.1,0-0.1
	c0-0.2,0.1-0.3,0.3-0.3c0.1,0,0.1,0,0.2,0.1l1.9,1.4c0.2,0.2,0.5,0.2,0.8,0.1l9.1-4.1c-1.9-2.1-4.6-3.3-7.4-3.2c-5,0-9,3.4-9,7.6
	c0.1,2.3,1.2,4.4,3.1,5.7c0.2,0.1,0.3,0.3,0.3,0.5c0,0.1,0,0.1,0,0.2c-0.2,0.6-0.4,1.5-0.4,1.5c0,0.1,0,0.1,0,0.2
	c0,0.2,0.1,0.3,0.3,0.3c0,0,0,0,0,0c0.1,0,0.1,0,0.2-0.1l2-1.1c0.1-0.1,0.3-0.1,0.5-0.1c0.1,0,0.2,0,0.3,0c1,0.3,1.9,0.4,2.9,0.4
	c5,0,9-3.4,9-7.6c0-1.2-0.4-2.5-1-3.5L17.3,15.5C17.4,15.5,17.3,15.5,17.3,15.5z"/>
</svg>
