<svg id="Layer_1" data-name="Layer 1" xmlns="http://www.w3.org/2000/svg" viewBox="0 0 40 26">
  <title>yandex</title>
  <g id="Page-1">
    <g id="yandex-65x41">
      <rect width="40" height="26" style="fill: #fff"/>
      <g id="Page-1-Copy-5">
        <path id="Fill-1" d="M5.00786,10.50966H4.687c-.48527,0-.9548.32574-.9548,1.27123,0,.91362.43037,1.20762.9548,1.20762h.3209ZM4.50693,13.497l-.95481,2.1769H2.85549L3.90436,13.346a1.574,1.574,0,0,1-.822-1.5651A1.60424,1.60424,0,0,1,4.71046,9.99321h.9001V15.6739h-.6027V13.497Z" style="fill: red"/>
        <path id="Fill-3" d="M17.32038,13.6718c0-1.25539.47757-2.05776,1.40117-2.05776a1.229,1.229,0,0,1,.72784.20647l-.0861.58808a1.03647,1.03647,0,0,0-.64964-.2781c-.43833,0-.75133.50047-.75133,1.50951,0,1.001.23473,1.57318.72783,1.57318a.98867.98867,0,0,0,.66531-.24629l.14086.46072a1.18413,1.18413,0,0,1-.82183.30188c-.84534,0-1.35411-.69111-1.35411-2.05769Zm-1.78447.00782V15.6739h-.61053V11.66957h.61053v1.85122l.947-1.85122h.61837l-.97837,1.883,1.11917,2.1213h-.66524ZM12.6634,13.3063h1.00971c0-.68329-.10961-1.18383-.46177-1.18383-.37574,0-.50877.46873-.54794,1.18383Zm.67314,2.42319c-.814,0-1.31487-.6593-1.31487-1.89071,0-1.28727.35223-2.22474,1.18967-2.22474.65746,0,1.088.50048,1.088,1.859v.34177H12.65557c0,.9058.25047,1.38249.73574,1.38249a1.35566,1.35566,0,0,0,.7749-.27008l.14093.47642a1.53787,1.53787,0,0,1-.9706.32587ZM10.738,12.17011h-.681v.07163a8.961,8.961,0,0,1-.36784,2.92367H10.738Zm.9157,4.29038h-.5478V15.6739H9.41523v.78659H8.86742V15.16541h.24264a8.83284,8.83284,0,0,0,.3991-3.15419v-.34165H11.3407v3.49584h.313ZM8.51519,11.66957V15.6739h-.6027V13.87841H7.00455V15.6739H6.394V11.66957h.61053v1.70014h.90794V11.66957Z"/>
        <path id="Fill-5" d="M23.2331,10.319H22.02c-.02356,1.438-.06273,2.53444-.12533,3.35284a3.46249,3.46249,0,0,1-.40693,1.67649H23.2331Zm.41483,5.35494h-2.395l-.05489.94549h-.30517v-1.2711h.16436a2.844,2.844,0,0,0,.48521-1.67649c.07826-.84212.10176-2.09758.12533-3.67859h1.95667v5.35508h.3837v1.2711h-.3055l-.0547-.94549Z"/>
        <path id="Fill-7" d="M24.76782,13.44121h1.43257c.06247-1.06449-.25053-1.54112-.6497-1.54112-.41484,0-.75153.54017-.78287,1.54112m.861,1.9864a1.00349,1.00349,0,0,0,.79827-.42892l.11749.30163a1.13569,1.13569,0,0,1-.92347.4529c-.83737,0-1.22107-.77069-1.22107-2.08142,0-1.311.48521-2.08168,1.15064-2.08168.68084,0,1.119.72312.9939,2.14536H24.76012c.01567,1.0963.29734,1.69213.86871,1.69213"/>
        <polygon id="Fill-9" points="28.956 13.743 27.61 13.743 27.61 15.674 27.242 15.674 27.242 11.67 27.61 11.67 27.61 13.441 28.956 13.441 28.956 11.67 29.324 11.67 29.324 15.674 28.956 15.674 28.956 13.743"/>
        <path id="Fill-11" d="M30.56088,13.44929V15.3799h.23494a.84793.84793,0,0,0,.93136-.96921c0-.67521-.32866-.9614-.89233-.9614Zm-.36757-1.77972h.36757v1.48579h.2899a1.1272,1.1272,0,0,1,1.23654,1.24744,1.15853,1.15853,0,0,1-1.26017,1.2711h-.63384V11.66957Z"/>
        <polygon id="Fill-13" points="33.082 11.98 33.082 15.674 32.722 15.674 32.722 11.67 34.389 11.67 34.389 11.98 33.082 11.98"/>
        <path id="Fill-15" d="M36.79241,12.88521c0-.20661.01541-.3814.03133-.54825h-.02363a3.5821,3.5821,0,0,1-.21123.51644l-1.28354,2.8205h-.31307V11.66957h.3444v2.78074c0,.21449-.01593.38929-.03133.56409h.02337a4.40182,4.40182,0,0,1,.2113-.53222l1.28373-2.81261h.32077V15.6739h-.3521V12.88521"/>
      </g>
    </g>
  </g>
</svg>
